%FSTAX23Y23*%
%MOIN*%
%SFA1B1*%

%IPPOS*%
%ADD24C,0.010000*%
%ADD66C,0.006000*%
%LNpaw8-1*%
%LPD*%
G54D24*
X03917Y0272D02*
Y03035D01*
X02051Y0272D02*
Y03035D01*
X03254Y0273D02*
X03917D01*
X02051D02*
X02682D01*
X03857Y0275D02*
X03917Y0273D01*
X03857Y0271D02*
X03917Y0273D01*
X02051D02*
X02111Y0271D01*
X02051Y0273D02*
X02111Y0275D01*
X0159Y04917D02*
X02035D01*
X0159Y03051D02*
X02035D01*
X016Y04254D02*
Y04917D01*
Y03051D02*
Y03682D01*
X0158Y04857D02*
X016Y04917D01*
X0162Y04857*
X016Y03051D02*
X0162Y03111D01*
X0158D02*
X016Y03051D01*
G54D66*
X02728Y02694D02*
Y02753D01*
X02698Y02724*
X02738*
X02758Y02753D02*
X02798D01*
Y02743*
X02758Y02704*
Y02694*
X02818D02*
Y02704D01*
X02828*
Y02694*
X02818*
X02898D02*
Y02753D01*
X02868Y02724*
X02908*
X02928Y02743D02*
X02938Y02753D01*
X02958*
X02968Y02743*
Y02704*
X02958Y02694*
X02938*
X02928Y02704*
Y02743*
X03068Y02694D02*
X03048Y02714D01*
Y02734*
X03068Y02753*
X03098Y02694D02*
Y02734D01*
X03108*
X03118Y02724*
Y02694*
Y02724*
X03128Y02734*
X03138Y02724*
Y02694*
X03158D02*
Y02734D01*
X03168*
X03178Y02724*
Y02694*
Y02724*
X03188Y02734*
X03198Y02724*
Y02694*
X03218D02*
X03238Y02714D01*
Y02734*
X03218Y02753*
X01635Y03728D02*
X01576D01*
X01606Y03698*
Y03738*
X01576Y03758D02*
Y03798D01*
X01586*
X01625Y03758*
X01635*
Y03818D02*
X01625D01*
Y03828*
X01635*
Y03818*
Y03898D02*
X01576D01*
X01606Y03868*
Y03908*
X01586Y03928D02*
X01576Y03938D01*
Y03958*
X01586Y03968*
X01625*
X01635Y03958*
Y03938*
X01625Y03928*
X01586*
X01635Y04068D02*
X01616Y04048D01*
X01596*
X01576Y04068*
X01635Y04098D02*
X01596D01*
Y04108*
X01606Y04118*
X01635*
X01606*
X01596Y04128*
X01606Y04138*
X01635*
Y04158D02*
X01596D01*
Y04168*
X01606Y04178*
X01635*
X01606*
X01596Y04188*
X01606Y04198*
X01635*
Y04218D02*
X01616Y04238D01*
X01596*
X01576Y04218*
M02*