%FSTAX23Y23*%
%MOIN*%
%SFA1B1*%

%IPPOS*%
%ADD23C,0.007870*%
%ADD24C,0.010000*%
%ADD42C,0.009840*%
%ADD43C,0.023620*%
%ADD44C,0.008000*%
%LNpaw8-1*%
%LPD*%
G54D23*
X02499Y0386D02*
D01*
X02499Y03858*
X02499Y03857*
X025Y03856*
X025Y03854*
X025Y03853*
X02501Y03852*
X02502Y0385*
X02502Y03849*
X02503Y03848*
X02504Y03847*
X02505Y03846*
X02506Y03845*
X02507Y03844*
X02508Y03843*
X02509Y03842*
X02511Y03842*
X02512Y03841*
X02513Y03841*
X02515Y0384*
X02516Y0384*
X02517Y0384*
X02519Y0384*
X0252*
X02522Y0384*
X02523Y0384*
X02524Y0384*
X02526Y03841*
X02527Y03841*
X02528Y03842*
X0253Y03842*
X02531Y03843*
X02532Y03844*
X02533Y03845*
X02534Y03846*
X02535Y03847*
X02536Y03848*
X02537Y03849*
X02537Y0385*
X02538Y03852*
X02539Y03853*
X02539Y03854*
X02539Y03856*
X0254Y03857*
X0254Y03858*
X0254Y0386*
X02276Y03547D02*
D01*
X02276Y03546*
X02276Y03544*
X02276Y03543*
X02277Y03541*
X02277Y03539*
X02278Y03538*
X02279Y03536*
X02279Y03535*
X0228Y03534*
X02281Y03532*
X02283Y03531*
X02284Y0353*
X02285Y03529*
X02286Y03528*
X02288Y03527*
X02289Y03526*
X02291Y03526*
X02292Y03525*
X02294Y03525*
X02295Y03524*
X02297Y03524*
X02299Y03524*
X023*
X02302Y03524*
X02304Y03524*
X02305Y03525*
X02307Y03525*
X02308Y03526*
X0231Y03526*
X02311Y03527*
X02313Y03528*
X02314Y03529*
X02315Y0353*
X02316Y03531*
X02318Y03532*
X02319Y03534*
X0232Y03535*
X0232Y03536*
X02321Y03538*
X02322Y03539*
X02322Y03541*
X02323Y03543*
X02323Y03544*
X02323Y03546*
X02323Y03547*
X02876D02*
D01*
X02876Y03546*
X02876Y03544*
X02876Y03543*
X02877Y03541*
X02877Y03539*
X02878Y03538*
X02879Y03536*
X02879Y03535*
X0288Y03534*
X02881Y03532*
X02883Y03531*
X02884Y0353*
X02885Y03529*
X02886Y03528*
X02888Y03527*
X02889Y03526*
X02891Y03526*
X02892Y03525*
X02894Y03525*
X02895Y03524*
X02897Y03524*
X02899Y03524*
X029*
X02902Y03524*
X02904Y03524*
X02905Y03525*
X02907Y03525*
X02908Y03526*
X0291Y03526*
X02911Y03527*
X02913Y03528*
X02914Y03529*
X02915Y0353*
X02916Y03531*
X02918Y03532*
X02919Y03534*
X0292Y03535*
X0292Y03536*
X02921Y03538*
X02922Y03539*
X02922Y03541*
X02923Y03543*
X02923Y03544*
X02923Y03546*
X02923Y03547*
X02242Y03693D02*
D01*
X02246Y03696*
X02251Y037*
X02255Y03703*
X02258Y03707*
X02262Y03712*
X02265Y03716*
X02268Y03721*
X02271Y03726*
X02273Y03731*
X02275Y03736*
X02276Y03741*
X02277Y03747*
X02278Y03752*
X02278Y03757*
X02278Y03763*
X02278Y03768*
X02277Y03774*
X02276Y03779*
X02274Y03784*
X02272Y0379*
X0227Y03795*
X02267Y03799*
X02264Y03804*
X02261Y03809*
X02258Y03813*
X02254Y03817*
X0225Y0382*
X02245Y03824*
X02241Y03827*
X02236Y03829*
X02232Y03831*
X02167D02*
D01*
X02162Y03829*
X02157Y03826*
X02153Y03823*
X02148Y03819*
X02144Y03816*
X0214Y03812*
X02137Y03807*
X02134Y03803*
X02131Y03798*
X02128Y03793*
X02126Y03788*
X02124Y03783*
X02123Y03778*
X02122Y03772*
X02121Y03767*
X02121Y03761*
X02121Y03756*
X02121Y0375*
X02122Y03745*
X02123Y0374*
X02125Y03734*
X02127Y03729*
X02129Y03724*
X02132Y03719*
X02135Y03715*
X02138Y0371*
X02142Y03706*
X02145Y03702*
X02149Y03699*
X02154Y03695*
X02157Y03693*
X02862D02*
D01*
X02866Y03696*
X02871Y037*
X02875Y03703*
X02878Y03707*
X02882Y03712*
X02885Y03716*
X02888Y03721*
X02891Y03726*
X02893Y03731*
X02895Y03736*
X02896Y03741*
X02897Y03747*
X02898Y03752*
X02898Y03757*
X02898Y03763*
X02898Y03768*
X02897Y03774*
X02896Y03779*
X02894Y03784*
X02892Y0379*
X0289Y03795*
X02887Y03799*
X02884Y03804*
X02881Y03809*
X02878Y03813*
X02874Y03817*
X0287Y0382*
X02865Y03824*
X02861Y03827*
X02856Y03829*
X02852Y03831*
X02787D02*
D01*
X02782Y03829*
X02777Y03826*
X02773Y03823*
X02768Y03819*
X02764Y03816*
X0276Y03812*
X02757Y03807*
X02754Y03803*
X02751Y03798*
X02748Y03793*
X02746Y03788*
X02744Y03783*
X02743Y03778*
X02742Y03772*
X02741Y03767*
X02741Y03761*
X02741Y03756*
X02741Y0375*
X02742Y03745*
X02743Y0374*
X02745Y03734*
X02747Y03729*
X02749Y03724*
X02752Y03719*
X02755Y03715*
X02758Y0371*
X02762Y03706*
X02765Y03702*
X02769Y03699*
X02774Y03695*
X02777Y03693*
X02458Y0386D02*
X02499D01*
X0254D02*
X02581D01*
X02458Y03659D02*
X02581D01*
X02458D02*
Y0386D01*
X02581Y03659D02*
Y0386D01*
X0363Y0335D02*
X0373D01*
Y0305D02*
Y0335D01*
X0363Y0305D02*
X0373D01*
X0363D02*
Y0335D01*
X0325D02*
X0335D01*
Y0305D02*
Y0335D01*
X0325Y0305D02*
X0335D01*
X0325D02*
Y0335D01*
X0343D02*
X0353D01*
Y0305D02*
Y0335D01*
X0343Y0305D02*
X0353D01*
X0343D02*
Y0335D01*
X0383D02*
X0393D01*
Y0305D02*
Y0335D01*
X0383Y0305D02*
X0393D01*
X0383D02*
Y0335D01*
X0331Y0357D02*
X0391D01*
X0331Y0347D02*
X0391D01*
Y0357*
X0331Y0347D02*
Y0357D01*
X03528Y04718D02*
Y04801D01*
X03551Y04718D02*
Y04801D01*
X03528D02*
X03551D01*
X03528Y04718D02*
X03551D01*
X03183Y03783D02*
X03416D01*
X03183Y04016D02*
X03416D01*
Y03783D02*
Y04016D01*
X03183Y03783D02*
Y04016D01*
X0367Y04338D02*
Y0453D01*
Y0423D02*
Y0453D01*
X0347Y0423D02*
Y0453D01*
Y0423D02*
X0367D01*
X0347Y0453D02*
X0367D01*
X0235Y031D02*
X0255D01*
Y0315*
X0235Y031D02*
Y0315D01*
X0255*
X02383Y02966D02*
Y031D01*
Y02966D02*
X024Y0295D01*
X02416Y02966*
Y031D01*
X02483Y02966D02*
Y031D01*
Y02966D02*
X025Y0295D01*
X02516Y02966*
Y031*
X0207D02*
X0227D01*
Y0315*
X0207Y031D02*
Y0315D01*
X0227*
X02103Y02966D02*
Y031D01*
Y02966D02*
X0212Y0295D01*
X02136Y02966*
Y031D01*
X02203Y02966D02*
Y031D01*
Y02966D02*
X0222Y0295D01*
X02236Y02966*
Y031*
X0237Y03292D02*
Y03547D01*
X02229Y03292D02*
Y03547D01*
Y03292D02*
X0237D01*
X02323Y03547D02*
X0237D01*
X02229D02*
X02276D01*
X0265Y031D02*
X0285D01*
Y0315*
X0265Y031D02*
Y0315D01*
X0285*
X02683Y02966D02*
Y031D01*
Y02966D02*
X027Y0295D01*
X02716Y02966*
Y031D01*
X02783Y02966D02*
Y031D01*
Y02966D02*
X028Y0295D01*
X02816Y02966*
Y031*
X0295D02*
X0315D01*
Y0315*
X0295Y031D02*
Y0315D01*
X0315*
X02983Y02966D02*
Y031D01*
Y02966D02*
X03Y0295D01*
X03016Y02966*
Y031D01*
X03083Y02966D02*
Y031D01*
Y02966D02*
X031Y0295D01*
X03116Y02966*
Y031*
X0297Y03292D02*
Y03547D01*
X02829Y03292D02*
Y03547D01*
Y03292D02*
X0297D01*
X02923Y03547D02*
X0297D01*
X02829D02*
X02876D01*
X0369Y0361D02*
Y0491D01*
X0389Y0361D02*
Y0491D01*
X0369D02*
X0389D01*
X0369Y0361D02*
X0389D01*
X02534Y04674D02*
X02585D01*
G54D24*
X0298Y0383D02*
Y0393D01*
Y03822D02*
Y03922D01*
X02275Y04525D02*
Y0459D01*
Y0477D02*
Y04835D01*
X024Y0476D02*
X0245D01*
X0224Y048D02*
X0231D01*
X0204Y0393D02*
X0224D01*
X0204Y04915D02*
X0224D01*
X0204Y0393D02*
Y04915D01*
X0224Y0393D02*
Y04915D01*
X03316Y03604D02*
Y03643D01*
X03335Y03663*
X03355Y03643*
Y03604*
Y03633*
X03316*
X03375Y03663D02*
Y03604D01*
X03405*
X03415Y03614*
Y03653*
X03405Y03663*
X03375*
X03475Y03653D02*
X03465Y03663D01*
X03445*
X03435Y03653*
Y03614*
X03445Y03604*
X03465*
X03475Y03614*
X03111Y04198D02*
X03131D01*
X03141Y04188*
Y04158*
X03111*
X03101Y04168*
X03111Y04178*
X03141*
X03171Y04208D02*
Y04198D01*
X03161*
X03181*
X03171*
Y04168*
X03181Y04158*
X03211D02*
Y04198D01*
X03221*
X03231Y04188*
Y04158*
Y04188*
X03241Y04198*
X03251Y04188*
Y04158*
X03301D02*
X03281D01*
X03271Y04168*
Y04188*
X03281Y04198*
X03301*
X03311Y04188*
Y04178*
X03271*
X03351Y04138D02*
X03361D01*
X03371Y04148*
Y04198*
X03341*
X03331Y04188*
Y04168*
X03341Y04158*
X03371*
X03401Y04198D02*
X03421D01*
X03431Y04188*
Y04158*
X03401*
X03391Y04168*
X03401Y04178*
X03431*
X0299Y03703D02*
X0298Y03713D01*
X0296*
X0295Y03703*
Y03663*
X0296Y03653*
X0298*
X0299Y03663*
X0301Y03703D02*
X0302Y03713D01*
X0304*
X0305Y03703*
Y03663*
X0304Y03653*
X0302*
X0301Y03663*
Y03703*
X0297Y04183D02*
X0296Y04193D01*
X0294*
X0293Y04183*
Y04143*
X0294Y04133*
X0296*
X0297Y04143*
X0299Y04133D02*
X0301D01*
X03*
Y04193*
X0299Y04183*
X03625Y03838D02*
X03615Y03848D01*
X03596*
X03586Y03838*
Y03799*
X03596Y03789*
X03615*
X03625Y03799*
X03685Y03789D02*
X03645D01*
X03685Y03828*
Y03838*
X03675Y03848*
X03655*
X03645Y03838*
X0297Y04403D02*
X0296Y04413D01*
X0294*
X0293Y04403*
Y04363*
X0294Y04353*
X0296*
X0297Y04363*
X0302Y04353D02*
Y04413D01*
X0299Y04383*
X0303*
X02589Y03559D02*
X02579Y03569D01*
X0256*
X0255Y03559*
Y0352*
X0256Y0351*
X02579*
X02589Y0352*
X02649Y03569D02*
X02609D01*
Y03539*
X02629Y03549*
X02639*
X02649Y03539*
Y0352*
X02639Y0351*
X02619*
X02609Y0352*
X03149Y03674D02*
X03139Y03684D01*
X0312*
X0311Y03674*
Y03635*
X0312Y03625*
X03139*
X03149Y03635*
X03209Y03684D02*
X03189Y03674D01*
X03169Y03654*
Y03635*
X03179Y03625*
X03199*
X03209Y03635*
Y03644*
X03199Y03654*
X03169*
X02175Y03759D02*
X02165Y03749D01*
Y0373*
X02175Y0372*
X02215*
X02225Y0373*
Y03749*
X02215Y03759*
X02165Y03779D02*
Y03819D01*
X02175*
X02215Y03779*
X02225*
X0279Y03744D02*
X0278Y03734D01*
Y03715*
X0279Y03705*
X0283*
X0284Y03715*
Y03734*
X0283Y03744*
X0279Y03764D02*
X0278Y03774D01*
Y03794*
X0279Y03804*
X028*
X0281Y03794*
X0282Y03804*
X0283*
X0284Y03794*
Y03774*
X0283Y03764*
X0282*
X0281Y03774*
X028Y03764*
X0279*
X0281Y03774D02*
Y03794D01*
X0293Y04623D02*
X0292Y04633D01*
X02901*
X02891Y04623*
Y04584*
X02901Y04574*
X0292*
X0293Y04584*
X0295Y04633D02*
Y04574D01*
X0298*
X0299Y04584*
Y04593*
Y04603*
X0298Y04613*
X0295*
X0302Y04623D02*
Y04613D01*
X0301*
X0303*
X0302*
Y04584*
X0303Y04574*
X0255Y04943D02*
X0254Y04953D01*
X0252*
X0251Y04943*
Y04903*
X0252Y04893*
X0254*
X0255Y04903*
X0261Y04933D02*
X0258D01*
X0257Y04923*
Y04903*
X0258Y04893*
X0261*
X0273Y04623D02*
X0272Y04633D01*
X02701*
X02691Y04623*
Y04584*
X02701Y04574*
X0272*
X0273Y04584*
X0275Y04574D02*
X0277D01*
X0276*
Y04613*
X0275*
X028Y04574D02*
Y04613D01*
X0283*
X0284Y04603*
Y04574*
X02499Y04744D02*
X02489Y04754D01*
X0247*
X0246Y04744*
Y04705*
X0247Y04695*
X02489*
X02499Y04705*
X02529Y04695D02*
X02549D01*
X02559Y04705*
Y04724*
X02549Y04734*
X02529*
X02519Y04724*
Y04705*
X02529Y04695*
X02579Y04734D02*
Y04705D01*
X02589Y04695*
X02619*
Y04734*
X02649Y04744D02*
Y04734D01*
X02639*
X02659*
X02649*
Y04705*
X02659Y04695*
X0317Y04583D02*
X0316Y04593D01*
X03141*
X03131Y04583*
Y04544*
X03141Y04534*
X0316*
X0317Y04544*
X0319Y04534D02*
X0322D01*
X0323Y04544*
X0322Y04553*
X032*
X0319Y04563*
X032Y04573*
X0323*
X0325Y04534D02*
X0328D01*
X0329Y04544*
X0328Y04553*
X0326*
X0325Y04563*
X0326Y04573*
X0329*
X02139Y04469D02*
X021D01*
Y04439*
X02119*
X021*
Y0441*
X02159D02*
X02179D01*
X02169*
Y04469*
X02159Y04459*
X03476Y04671D02*
X03496D01*
X03486*
Y04611*
X03476*
X03496*
X03566Y04661D02*
X03556Y04671D01*
X03536*
X03526Y04661*
Y04621*
X03536Y04611*
X03556*
X03566Y04621*
X03626Y04661D02*
X03616Y04671D01*
X03596*
X03586Y04661*
Y04651*
X03596Y04641*
X03616*
X03626Y04631*
Y04621*
X03616Y04611*
X03596*
X03586Y04621*
X03646Y04611D02*
Y04671D01*
X03676*
X03686Y04661*
Y04641*
X03676Y04631*
X03646*
X0248Y04164D02*
Y04105D01*
X02519*
X02539D02*
X02559D01*
X02549*
Y04164*
X02539Y04154*
X03461Y04856D02*
X03481D01*
X03471*
Y04916*
X03461*
X03511Y04896D02*
X03531Y04856D01*
X03551Y04896*
X03571Y04856D02*
X03591D01*
X03581*
Y04916*
X03571*
X0213Y03065D02*
Y03124D01*
X02149Y03104*
X02169Y03124*
Y03065*
X02189D02*
X02209D01*
X02199*
Y03124*
X02189Y03114*
X02405Y03075D02*
Y03134D01*
X02424Y03114*
X02444Y03134*
Y03075*
X02504D02*
X02464D01*
X02504Y03114*
Y03124*
X02494Y03134*
X02474*
X02464Y03124*
X027Y0307D02*
Y03129D01*
X02719Y03109*
X02739Y03129*
Y0307*
X02759Y03119D02*
X02769Y03129D01*
X02789*
X02799Y03119*
Y03109*
X02789Y03099*
X02779*
X02789*
X02799Y03089*
Y0308*
X02789Y0307*
X02769*
X02759Y0308*
X03005Y03065D02*
Y03124D01*
X03024Y03104*
X03044Y03124*
Y03065*
X03094D02*
Y03124D01*
X03064Y03094*
X03104*
X02325Y0334D02*
X02265D01*
X02285Y03359*
X02265Y03379*
X02325*
X02275Y03439D02*
X02265Y03429D01*
Y03409*
X02275Y03399*
X02315*
X02325Y03409*
Y03429*
X02315Y03439*
X02325Y03459D02*
Y03479D01*
Y03469*
X02265*
X02275Y03459*
X02925Y0332D02*
X02865D01*
X02885Y03339*
X02865Y03359*
X02925*
X02875Y03419D02*
X02865Y03409D01*
Y03389*
X02875Y03379*
X02915*
X02925Y03389*
Y03409*
X02915Y03419*
X02925Y03479D02*
Y03439D01*
X02885Y03479*
X02875*
X02865Y03469*
Y03449*
X02875Y03439*
X0255Y0365D02*
X0249D01*
X0255Y03689*
X0249*
X0255Y03709D02*
X0251D01*
X0249Y03729*
X0251Y03749*
X0255*
X0252*
Y03709*
X0255Y03769D02*
X0249D01*
X0255Y03809*
X0249*
Y03829D02*
X0255D01*
Y03859*
X0254Y03869*
X025*
X0249Y03859*
Y03829*
X03636Y03404D02*
Y03443D01*
X03665*
X03675Y03433*
Y03404*
X03695Y03384D02*
Y03443D01*
X03725*
X03735Y03433*
Y03414*
X03725Y03404*
X03695*
X03755D02*
X03775D01*
X03765*
Y03463*
X03755Y03453*
X03836Y03404D02*
Y03443D01*
X03865*
X03875Y03433*
Y03404*
X03895Y03384D02*
Y03443D01*
X03925*
X03935Y03433*
Y03414*
X03925Y03404*
X03895*
X03995D02*
X03955D01*
X03995Y03443*
Y03453*
X03985Y03463*
X03965*
X03955Y03453*
X03594Y04085D02*
X03535D01*
Y04114*
X03545Y04124*
X03565*
X03575Y04114*
Y04085*
Y04144D02*
Y04164D01*
Y04154*
X03535*
Y04144*
X03515Y04194D02*
X03575D01*
X03545*
X03535Y04204*
Y04224*
X03545Y04234*
X03575*
X03515Y04294D02*
X03575D01*
Y04264*
X03565Y04254*
X03545*
X03535Y04264*
Y04294*
Y04314D02*
X03575D01*
X03555*
X03545Y04324*
X03535Y04334*
Y04344*
X02244Y04908D02*
Y04968D01*
X02274*
X02284Y04958*
Y04938*
X02274Y04928*
X02244*
X02304Y04948D02*
Y04918D01*
X02314Y04908*
X02324Y04918*
X02334Y04908*
X02344Y04918*
Y04948*
X02364D02*
Y04908D01*
Y04928*
X02374Y04938*
X02384Y04948*
X02394*
X0327Y04893D02*
Y04953D01*
X033*
X0331Y04943*
Y04923*
X033Y04913*
X0327*
X0329D02*
X0331Y04893D01*
X0333D02*
X0335D01*
X0334*
Y04953*
X0333Y04943*
X0327Y04733D02*
Y04793D01*
X033*
X0331Y04783*
Y04763*
X033Y04753*
X0327*
X0329D02*
X0331Y04733D01*
X0337D02*
X0333D01*
X0337Y04773*
Y04783*
X0336Y04793*
X0334*
X0333Y04783*
X0267Y04893D02*
Y04953D01*
X027*
X0271Y04943*
Y04923*
X027Y04913*
X0267*
X0269D02*
X0271Y04893D01*
X0277Y04933D02*
X0274D01*
X0273Y04923*
Y04903*
X0274Y04893*
X0277*
X0266Y04745D02*
Y04804D01*
X02689*
X02699Y04794*
Y04774*
X02689Y04764*
X0266*
X02679D02*
X02699Y04745D01*
X02749D02*
X02729D01*
X02719Y04755*
Y04774*
X02729Y04784*
X02749*
X02759Y04774*
Y04764*
X02719*
X02779Y04745D02*
Y04784D01*
X02809*
X02819Y04774*
Y04745*
X0333Y04405D02*
Y04464D01*
X03359*
X03369Y04454*
Y04434*
X03359Y04424*
X0333*
X03349D02*
X03369Y04405D01*
X03389D02*
X03419D01*
X03429Y04415*
X03419Y04424*
X03399*
X03389Y04434*
X03399Y04444*
X03429*
X03459Y04454D02*
Y04444D01*
X03449*
X03469*
X03459*
Y04415*
X03469Y04405*
X03295Y03433D02*
X03285Y03443D01*
X03266*
X03256Y03433*
Y03423*
X03266Y03413*
X03285*
X03295Y03403*
Y03394*
X03285Y03384*
X03266*
X03256Y03394*
X03315Y03384D02*
X03335D01*
X03325*
Y03443*
X03315Y03433*
X03475D02*
X03465Y03443D01*
X03446*
X03436Y03433*
Y03423*
X03446Y03413*
X03465*
X03475Y03403*
Y03394*
X03465Y03384*
X03446*
X03436Y03394*
X03535Y03384D02*
X03495D01*
X03535Y03423*
Y03433*
X03525Y03443*
X03505*
X03495Y03433*
X02945Y03899D02*
X02984Y0386D01*
X02964Y03879*
X02984Y03899*
X02945Y0386*
X03014Y03909D02*
Y03899D01*
X03004*
X03024*
X03014*
Y0387*
X03024Y0386*
X02861Y04908D02*
Y04967D01*
X0289*
X029Y04957*
Y04937*
X0289Y04927*
X02861*
X0288D02*
X029Y04908D01*
X0296Y04967D02*
X0292D01*
Y04908*
X0296*
X0292Y04937D02*
X0294D01*
X0302Y04957D02*
X0301Y04967D01*
X0299*
X0298Y04957*
Y04918*
X0299Y04908*
X0301*
X0302Y04918*
Y04937*
X03*
G54D42*
X02415Y03864D02*
D01*
X02415Y03864*
X02415Y03865*
X02415Y03865*
X02415Y03865*
X02415Y03866*
X02415Y03866*
X02415Y03866*
X02414Y03866*
X02414Y03867*
X02414Y03867*
X02414Y03867*
X02414Y03867*
X02413Y03868*
X02413Y03868*
X02413Y03868*
X02412Y03868*
X02412Y03868*
X02412Y03869*
X02411Y03869*
X02411Y03869*
X02411Y03869*
X0241Y03869*
X0241*
X0241Y03869*
X02409Y03869*
X02409Y03869*
X02409Y03869*
X02408Y03868*
X02408Y03868*
X02408Y03868*
X02407Y03868*
X02407Y03868*
X02407Y03867*
X02407Y03867*
X02406Y03867*
X02406Y03867*
X02406Y03866*
X02406Y03866*
X02406Y03866*
X02406Y03866*
X02406Y03865*
X02405Y03865*
X02405Y03865*
X02405Y03864*
X02405Y03864*
X02405Y03863*
X02405Y03863*
X02405Y03863*
X02406Y03862*
X02406Y03862*
X02406Y03862*
X02406Y03862*
X02406Y03861*
X02406Y03861*
X02406Y03861*
X02407Y0386*
X02407Y0386*
X02407Y0386*
X02407Y0386*
X02408Y0386*
X02408Y03859*
X02408Y03859*
X02409Y03859*
X02409Y03859*
X02409Y03859*
X0241Y03859*
X0241Y03859*
X0241*
X02411Y03859*
X02411Y03859*
X02411Y03859*
X02412Y03859*
X02412Y03859*
X02412Y03859*
X02413Y0386*
X02413Y0386*
X02413Y0386*
X02414Y0386*
X02414Y0386*
X02414Y03861*
X02414Y03861*
X02414Y03861*
X02415Y03862*
X02415Y03862*
X02415Y03862*
X02415Y03862*
X02415Y03863*
X02415Y03863*
X02415Y03863*
X02415Y03864*
X03492Y04817D02*
D01*
X03492Y04817*
X03492Y04817*
X03492Y04818*
X03492Y04818*
X03492Y04818*
X03492Y04819*
X03492Y04819*
X03492Y04819*
X03491Y04819*
X03491Y0482*
X03491Y0482*
X03491Y0482*
X0349Y0482*
X0349Y04821*
X0349Y04821*
X03489Y04821*
X03489Y04821*
X03489Y04821*
X03489Y04821*
X03488Y04821*
X03488Y04821*
X03488Y04822*
X03487*
X03487Y04821*
X03486Y04821*
X03486Y04821*
X03486Y04821*
X03485Y04821*
X03485Y04821*
X03485Y04821*
X03485Y04821*
X03484Y0482*
X03484Y0482*
X03484Y0482*
X03484Y0482*
X03483Y04819*
X03483Y04819*
X03483Y04819*
X03483Y04819*
X03483Y04818*
X03483Y04818*
X03483Y04818*
X03482Y04817*
X03482Y04817*
X03482Y04817*
X03482Y04816*
X03482Y04816*
X03483Y04816*
X03483Y04815*
X03483Y04815*
X03483Y04815*
X03483Y04814*
X03483Y04814*
X03483Y04814*
X03484Y04813*
X03484Y04813*
X03484Y04813*
X03484Y04813*
X03485Y04813*
X03485Y04812*
X03485Y04812*
X03485Y04812*
X03486Y04812*
X03486Y04812*
X03486Y04812*
X03487Y04812*
X03487Y04812*
X03488*
X03488Y04812*
X03488Y04812*
X03489Y04812*
X03489Y04812*
X03489Y04812*
X03489Y04812*
X0349Y04812*
X0349Y04813*
X0349Y04813*
X03491Y04813*
X03491Y04813*
X03491Y04813*
X03491Y04814*
X03492Y04814*
X03492Y04814*
X03492Y04815*
X03492Y04815*
X03492Y04815*
X03492Y04816*
X03492Y04816*
X03492Y04816*
X03492Y04817*
X03139Y04042D02*
D01*
X03139Y04043*
X03139Y04043*
X03139Y04043*
X03139Y04044*
X03139Y04044*
X03139Y04044*
X03138Y04045*
X03138Y04045*
X03138Y04045*
X03138Y04045*
X03138Y04046*
X03137Y04046*
X03137Y04046*
X03137Y04046*
X03137Y04046*
X03136Y04047*
X03136Y04047*
X03136Y04047*
X03135Y04047*
X03135Y04047*
X03135Y04047*
X03134Y04047*
X03134*
X03134Y04047*
X03133Y04047*
X03133Y04047*
X03133Y04047*
X03132Y04047*
X03132Y04047*
X03132Y04046*
X03131Y04046*
X03131Y04046*
X03131Y04046*
X03131Y04046*
X0313Y04045*
X0313Y04045*
X0313Y04045*
X0313Y04045*
X0313Y04044*
X0313Y04044*
X03129Y04044*
X03129Y04043*
X03129Y04043*
X03129Y04043*
X03129Y04042*
X03129Y04042*
X03129Y04042*
X03129Y04041*
X03129Y04041*
X0313Y04041*
X0313Y0404*
X0313Y0404*
X0313Y0404*
X0313Y04039*
X0313Y04039*
X03131Y04039*
X03131Y04039*
X03131Y04038*
X03131Y04038*
X03132Y04038*
X03132Y04038*
X03132Y04038*
X03133Y04038*
X03133Y04037*
X03133Y04037*
X03134Y04037*
X03134Y04037*
X03134*
X03135Y04037*
X03135Y04037*
X03135Y04037*
X03136Y04038*
X03136Y04038*
X03136Y04038*
X03137Y04038*
X03137Y04038*
X03137Y04038*
X03137Y04039*
X03138Y04039*
X03138Y04039*
X03138Y04039*
X03138Y0404*
X03138Y0404*
X03139Y0404*
X03139Y04041*
X03139Y04041*
X03139Y04041*
X03139Y04042*
X03139Y04042*
X03139Y04042*
X02175Y03539D02*
D01*
X02175Y03539*
X02175Y03539*
X02175Y0354*
X02175Y0354*
X02175Y0354*
X02175Y03541*
X02175Y03541*
X02175Y03541*
X02175Y03541*
X02174Y03542*
X02174Y03542*
X02174Y03542*
X02174Y03542*
X02173Y03543*
X02173Y03543*
X02173Y03543*
X02172Y03543*
X02172Y03543*
X02172Y03543*
X02171Y03543*
X02171Y03543*
X02171Y03544*
X0217*
X0217Y03543*
X0217Y03543*
X02169Y03543*
X02169Y03543*
X02169Y03543*
X02168Y03543*
X02168Y03543*
X02168Y03543*
X02168Y03542*
X02167Y03542*
X02167Y03542*
X02167Y03542*
X02167Y03541*
X02166Y03541*
X02166Y03541*
X02166Y03541*
X02166Y0354*
X02166Y0354*
X02166Y0354*
X02166Y03539*
X02166Y03539*
X02166Y03539*
X02166Y03538*
X02166Y03538*
X02166Y03538*
X02166Y03537*
X02166Y03537*
X02166Y03537*
X02166Y03536*
X02166Y03536*
X02167Y03536*
X02167Y03535*
X02167Y03535*
X02167Y03535*
X02168Y03535*
X02168Y03535*
X02168Y03534*
X02168Y03534*
X02169Y03534*
X02169Y03534*
X02169Y03534*
X0217Y03534*
X0217Y03534*
X0217Y03534*
X02171*
X02171Y03534*
X02171Y03534*
X02172Y03534*
X02172Y03534*
X02172Y03534*
X02173Y03534*
X02173Y03534*
X02173Y03535*
X02174Y03535*
X02174Y03535*
X02174Y03535*
X02174Y03535*
X02175Y03536*
X02175Y03536*
X02175Y03536*
X02175Y03537*
X02175Y03537*
X02175Y03537*
X02175Y03538*
X02175Y03538*
X02175Y03538*
X02175Y03539*
X02775D02*
D01*
X02775Y03539*
X02775Y03539*
X02775Y0354*
X02775Y0354*
X02775Y0354*
X02775Y03541*
X02775Y03541*
X02775Y03541*
X02775Y03541*
X02774Y03542*
X02774Y03542*
X02774Y03542*
X02774Y03542*
X02773Y03543*
X02773Y03543*
X02773Y03543*
X02772Y03543*
X02772Y03543*
X02772Y03543*
X02771Y03543*
X02771Y03543*
X02771Y03544*
X0277*
X0277Y03543*
X0277Y03543*
X02769Y03543*
X02769Y03543*
X02769Y03543*
X02768Y03543*
X02768Y03543*
X02768Y03543*
X02768Y03542*
X02767Y03542*
X02767Y03542*
X02767Y03542*
X02767Y03541*
X02766Y03541*
X02766Y03541*
X02766Y03541*
X02766Y0354*
X02766Y0354*
X02766Y0354*
X02766Y03539*
X02766Y03539*
X02766Y03539*
X02766Y03538*
X02766Y03538*
X02766Y03538*
X02766Y03537*
X02766Y03537*
X02766Y03537*
X02766Y03536*
X02766Y03536*
X02767Y03536*
X02767Y03535*
X02767Y03535*
X02767Y03535*
X02768Y03535*
X02768Y03535*
X02768Y03534*
X02768Y03534*
X02769Y03534*
X02769Y03534*
X02769Y03534*
X0277Y03534*
X0277Y03534*
X0277Y03534*
X02771*
X02771Y03534*
X02771Y03534*
X02772Y03534*
X02772Y03534*
X02772Y03534*
X02773Y03534*
X02773Y03534*
X02773Y03535*
X02774Y03535*
X02774Y03535*
X02774Y03535*
X02774Y03535*
X02775Y03536*
X02775Y03536*
X02775Y03536*
X02775Y03537*
X02775Y03537*
X02775Y03537*
X02775Y03538*
X02775Y03538*
X02775Y03538*
X02775Y03539*
X02903Y04868D02*
D01*
X02903Y04868*
X02903Y04869*
X02903Y04869*
X02902Y04869*
X02902Y0487*
X02902Y0487*
X02902Y0487*
X02902Y04871*
X02902Y04871*
X02902Y04871*
X02901Y04871*
X02901Y04872*
X02901Y04872*
X02901Y04872*
X029Y04872*
X029Y04872*
X029Y04873*
X02899Y04873*
X02899Y04873*
X02899Y04873*
X02898Y04873*
X02898Y04873*
X02898*
X02897Y04873*
X02897Y04873*
X02897Y04873*
X02896Y04873*
X02896Y04873*
X02896Y04872*
X02895Y04872*
X02895Y04872*
X02895Y04872*
X02894Y04872*
X02894Y04871*
X02894Y04871*
X02894Y04871*
X02894Y04871*
X02893Y0487*
X02893Y0487*
X02893Y0487*
X02893Y04869*
X02893Y04869*
X02893Y04869*
X02893Y04868*
X02893Y04868*
X02893Y04868*
X02893Y04867*
X02893Y04867*
X02893Y04867*
X02893Y04866*
X02893Y04866*
X02893Y04866*
X02894Y04865*
X02894Y04865*
X02894Y04865*
X02894Y04865*
X02894Y04864*
X02895Y04864*
X02895Y04864*
X02895Y04864*
X02896Y04864*
X02896Y04863*
X02896Y04863*
X02897Y04863*
X02897Y04863*
X02897Y04863*
X02898Y04863*
X02898*
X02898Y04863*
X02899Y04863*
X02899Y04863*
X02899Y04863*
X029Y04863*
X029Y04864*
X029Y04864*
X02901Y04864*
X02901Y04864*
X02901Y04864*
X02901Y04865*
X02902Y04865*
X02902Y04865*
X02902Y04865*
X02902Y04866*
X02902Y04866*
X02902Y04866*
X02902Y04867*
X02903Y04867*
X02903Y04867*
X02903Y04868*
X02903Y04868*
G54D43*
X03235Y03976D02*
D01*
X03235Y03977*
X03234Y03978*
X03234Y03979*
X03234Y0398*
X03234Y0398*
X03234Y03981*
X03233Y03982*
X03233Y03983*
X03232Y03983*
X03232Y03984*
X03231Y03984*
X03231Y03985*
X0323Y03986*
X03229Y03986*
X03229Y03986*
X03228Y03987*
X03227Y03987*
X03226Y03988*
X03226Y03988*
X03225Y03988*
X03224Y03988*
X03223Y03988*
X03222*
X03221Y03988*
X03221Y03988*
X0322Y03988*
X03219Y03988*
X03218Y03987*
X03218Y03987*
X03217Y03986*
X03216Y03986*
X03215Y03986*
X03215Y03985*
X03214Y03984*
X03214Y03984*
X03213Y03983*
X03213Y03983*
X03212Y03982*
X03212Y03981*
X03212Y0398*
X03211Y0398*
X03211Y03979*
X03211Y03978*
X03211Y03977*
X03211Y03976*
X03211Y03975*
X03211Y03975*
X03211Y03974*
X03211Y03973*
X03212Y03972*
X03212Y03971*
X03212Y03971*
X03213Y0397*
X03213Y03969*
X03214Y03969*
X03214Y03968*
X03215Y03967*
X03215Y03967*
X03216Y03966*
X03217Y03966*
X03218Y03966*
X03218Y03965*
X03219Y03965*
X0322Y03965*
X03221Y03965*
X03221Y03965*
X03222Y03964*
X03223*
X03224Y03965*
X03225Y03965*
X03226Y03965*
X03226Y03965*
X03227Y03965*
X03228Y03966*
X03229Y03966*
X03229Y03966*
X0323Y03967*
X03231Y03967*
X03231Y03968*
X03232Y03969*
X03232Y03969*
X03233Y0397*
X03233Y03971*
X03234Y03971*
X03234Y03972*
X03234Y03973*
X03234Y03974*
X03234Y03975*
X03235Y03975*
X03235Y03976*
G54D44*
X0364Y042D02*
Y04216D01*
Y04208*
X0359*
X03598Y042*
X0354Y04213D02*
Y0418D01*
X03506Y04213*
X03498*
X0349Y04204*
Y04188*
X03498Y0418*
X0359Y04573D02*
Y0454D01*
X03615*
X03606Y04556*
Y04564*
X03615Y04573*
X03631*
X0364Y04564*
Y04548*
X03631Y0454*
X0349Y04573D02*
X03498Y04556D01*
X03515Y0454*
X03531*
X0354Y04548*
Y04564*
X03531Y04573*
X03523*
X03515Y04564*
Y0454*
X0372Y0496D02*
Y04943D01*
Y04951*
X03769*
X03761Y0496*
X0382Y04926D02*
Y0496D01*
X03853Y04926*
X03861*
X03869Y04935*
Y04951*
X03861Y0496*
M02*