%FSTAX23Y23*%
%MOIN*%
%SFA1B1*%

%IPPOS*%
%ADD45R,0.051310X0.047370*%
%ADD46R,0.047370X0.051310*%
%ADD47R,0.072960X0.019810*%
%ADD48O,0.057210X0.019810*%
%ADD49O,0.029650X0.072960*%
%ADD50O,0.072960X0.029650*%
%ADD51R,0.092650X0.023750*%
%ADD52R,0.092650X0.023750*%
%ADD53R,0.165480X0.401700*%
%ADD54R,0.067060X0.059180*%
%ADD55O,0.078870X0.031620*%
%ADD56R,0.173350X0.173350*%
%ADD57C,0.067060*%
%ADD58C,0.067060*%
%ADD59R,0.067060X0.067060*%
%ADD60C,0.158000*%
%ADD61R,0.067060X0.067060*%
%ADD62R,0.061150X0.061150*%
%ADD63C,0.061150*%
%ADD64C,0.058000*%
%ADD65C,0.047370*%
%LNpaw8-1*%
%LPD*%
G54D45*
X02706Y047D03*
X02773D03*
X03013Y043D03*
X02946D03*
X03013Y0408D03*
X02946D03*
X03033Y036D03*
X02966D03*
X02753Y0484D03*
X02686D03*
X02593D03*
X02526D03*
X03353Y0468D03*
X03286D03*
X03146Y0448D03*
X03213D03*
X03353Y0484D03*
X03286D03*
X02706Y0452D03*
X02773D03*
X02906D03*
X02973D03*
G54D46*
X026Y03386D03*
Y03453D03*
X036Y03666D03*
Y03733D03*
X034Y04286D03*
Y04353D03*
X0316Y03573D03*
Y03506D03*
G54D47*
X0241Y03836D03*
Y03811D03*
Y03785D03*
Y0376D03*
Y03734D03*
Y03708D03*
Y03683D03*
X02629Y03836D03*
Y03811D03*
Y03785D03*
Y0376D03*
Y03734D03*
Y03708D03*
Y03683D03*
G54D48*
X03487Y04789D03*
Y04769D03*
Y0475D03*
Y0473D03*
X03592Y04789D03*
Y04769D03*
Y0475D03*
Y0473D03*
G54D49*
X03189Y04065D03*
X03221D03*
X03252D03*
X03284D03*
X03315D03*
X03347D03*
X03378D03*
X0341D03*
Y03734D03*
X03378D03*
X03347D03*
X03315D03*
X03284D03*
X03252D03*
X03221D03*
X03189D03*
G54D50*
X03465Y0401D03*
Y03978D03*
Y03947D03*
Y03915D03*
Y03884D03*
Y03852D03*
Y03821D03*
Y03789D03*
X03134D03*
Y03821D03*
Y03852D03*
Y03884D03*
Y03915D03*
Y03947D03*
Y03978D03*
Y0401D03*
G54D51*
X02428Y0333D03*
Y03356D03*
Y03381D03*
Y03407D03*
Y03432D03*
Y03458D03*
Y03483D03*
Y03509D03*
X02171Y0333D03*
Y03356D03*
Y03381D03*
Y03407D03*
Y03432D03*
Y03458D03*
Y03483D03*
X03028Y0333D03*
Y03356D03*
Y03381D03*
Y03407D03*
Y03432D03*
Y03458D03*
Y03483D03*
Y03509D03*
X02771Y0333D03*
Y03356D03*
Y03381D03*
Y03407D03*
Y03432D03*
Y03458D03*
Y03483D03*
G54D52*
X02171Y03509D03*
X02771D03*
G54D53*
X02785Y04165D03*
X02375Y0416D03*
G54D54*
X0256Y04637D03*
Y04562D03*
G54D55*
X03181Y04685D03*
Y04735D03*
Y04785D03*
Y04835D03*
X02898Y04685D03*
Y04735D03*
Y04785D03*
Y04835D03*
G54D56*
X0304Y0476D03*
G54D57*
X0298Y03972D03*
Y0378D03*
G54D58*
X0368Y031D03*
Y032D03*
X033Y031D03*
Y032D03*
X0348Y031D03*
Y032D03*
X0388Y031D03*
Y032D03*
X0336Y0352D03*
X0346D03*
X0356D03*
X0366D03*
X0376D03*
X0352Y0448D03*
X0362D03*
X0352Y0438D03*
X0362D03*
X0352Y0428D03*
X025Y032D03*
X0222D03*
X028D03*
X031D03*
X0384Y0366D03*
X0374D03*
X0384Y0376D03*
X0374D03*
X0384Y0386D03*
X0374D03*
X0384Y0396D03*
X0374D03*
X0384Y0406D03*
X0374D03*
X0384Y0416D03*
X0374D03*
X0384Y0426D03*
X0374D03*
X0384Y0436D03*
X0374D03*
X0384Y0446D03*
X0374D03*
X0384Y0456D03*
X0374D03*
X0384Y0466D03*
X0374D03*
X0384Y0476D03*
X0374D03*
X0384Y0486D03*
G54D59*
X0368Y033D03*
X033D03*
X0348D03*
X0388D03*
X0362Y0428D03*
X0374Y0486D03*
G54D60*
X024Y048D03*
Y0456D03*
X0214Y0423D03*
Y0462D03*
Y0403D03*
Y0482D03*
G54D61*
X0386Y0352D03*
X024Y032D03*
X0212D03*
X027D03*
X03D03*
G54D62*
X022Y03661D03*
X0282D03*
G54D63*
X022Y03858D03*
X0282D03*
G54D64*
X0344Y044D03*
G54D65*
X0264Y04224D03*
X03353Y04768D03*
X03655Y04795D03*
X02395Y03299D03*
X02867Y04566D03*
X036Y03802D03*
X03015Y04615D03*
X02419Y03616D03*
X03064Y03282D03*
X02896Y036D03*
X03309Y03616D03*
X0377Y03455D03*
X02161Y03913D03*
X02897Y04116D03*
X02476Y03862D03*
X02516Y03456D03*
X03156Y03739D03*
X02698Y03439D03*
X02928Y03652D03*
X02951Y0349D03*
X03157Y03655D03*
X03028Y0371D03*
X03112Y03526D03*
X03091Y03612D03*
X03116Y03422D03*
X03315Y04177D03*
X03244Y04273D03*
X03362Y04134D03*
X03149Y04227D03*
X03555Y04676D03*
X02155Y0359D03*
X02363Y03865D03*
X03136Y0412D03*
X0284Y04835D03*
X02854Y0452D03*
X02527Y04789D03*
X03233Y04869D03*
X02493Y04714D03*
X03063Y04478D03*
X02284Y03728D03*
X02341Y03785D03*
X02744Y03659D03*
X02856Y03458D03*
X02739Y03599D03*
X02896Y03409D03*
X02675Y04752D03*
X0326Y04785D03*
X03271Y04206D03*
X02853Y03337D03*
X0255Y045D03*
X03505Y04095D03*
X03315Y03964D03*
X03075Y0389D03*
X0291Y0403D03*
X03065Y03985D03*
X031Y043D03*
X033D03*
X03343Y03856D03*
X0328Y03825D03*
X03215Y0382D03*
X0336Y03995D03*
X03375Y0392D03*
X034Y03855D03*
X03235Y03925D03*
X0351Y0486D03*
M02*