%FSTAX23Y23*%
%MOIN*%
%SFA1B1*%

%IPPOS*%
%ADD67C,0.003940*%
%LNpaw8-1*%
%LPD*%
G54D67*
X02962Y03972D02*
X02997D01*
X0298Y03954D02*
Y03989D01*
X02962Y0378D02*
X02997D01*
X0298Y03762D02*
Y03797D01*
X03662Y031D02*
X03697D01*
X0368Y03082D02*
Y03117D01*
X03662Y032D02*
X03697D01*
X0368Y03182D02*
Y03217D01*
X03662Y033D02*
X03697D01*
X0368Y03282D02*
Y03317D01*
X03282Y031D02*
X03317D01*
X033Y03082D02*
Y03117D01*
X03282Y032D02*
X03317D01*
X033Y03182D02*
Y03217D01*
X03282Y033D02*
X03317D01*
X033Y03282D02*
Y03317D01*
X03462Y031D02*
X03497D01*
X0348Y03082D02*
Y03117D01*
X03462Y032D02*
X03497D01*
X0348Y03182D02*
Y03217D01*
X03462Y033D02*
X03497D01*
X0348Y03282D02*
Y03317D01*
X03862Y031D02*
X03897D01*
X0388Y03082D02*
Y03117D01*
X03862Y032D02*
X03897D01*
X0388Y03182D02*
Y03217D01*
X03862Y033D02*
X03897D01*
X0388Y03282D02*
Y03317D01*
X02361Y048D02*
X02439D01*
X024Y04761D02*
Y04839D01*
X02361Y0456D02*
X02439D01*
X024Y04521D02*
Y04599D01*
X03342Y0352D02*
X03377D01*
X0336Y03502D02*
Y03537D01*
X03442Y0352D02*
X03477D01*
X0346Y03502D02*
Y03537D01*
X03542Y0352D02*
X03577D01*
X0356Y03502D02*
Y03537D01*
X03642Y0352D02*
X03677D01*
X0366Y03502D02*
Y03537D01*
X03742Y0352D02*
X03777D01*
X0376Y03502D02*
Y03537D01*
X03842Y0352D02*
X03877D01*
X0386Y03502D02*
Y03537D01*
X03502Y0448D02*
X03537D01*
X0352Y04462D02*
Y04497D01*
X03602Y0448D02*
X03637D01*
X0362Y04462D02*
Y04497D01*
X03502Y0438D02*
X03537D01*
X0352Y04362D02*
Y04397D01*
X03602Y0438D02*
X03637D01*
X0362Y04362D02*
Y04397D01*
X03502Y0428D02*
X03537D01*
X0352Y04262D02*
Y04297D01*
X03602Y0428D02*
X03637D01*
X0362Y04262D02*
Y04297D01*
X02382Y032D02*
X02417D01*
X024Y03182D02*
Y03217D01*
X02482Y032D02*
X02517D01*
X025Y03182D02*
Y03217D01*
X02102Y032D02*
X02137D01*
X0212Y03182D02*
Y03217D01*
X02202Y032D02*
X02237D01*
X0222Y03182D02*
Y03217D01*
X02101Y0423D02*
X02179D01*
X0214Y04191D02*
Y04269D01*
X02101Y0462D02*
X02179D01*
X0214Y04581D02*
Y04659D01*
X02101Y0403D02*
X02179D01*
X0214Y03991D02*
Y04069D01*
X02101Y0482D02*
X02179D01*
X0214Y04781D02*
Y04859D01*
X02682Y032D02*
X02717D01*
X027Y03182D02*
Y03217D01*
X02782Y032D02*
X02817D01*
X028Y03182D02*
Y03217D01*
X02982Y032D02*
X03017D01*
X03Y03182D02*
Y03217D01*
X03082Y032D02*
X03117D01*
X031Y03182D02*
Y03217D01*
X03822Y0366D02*
X03857D01*
X0384Y03642D02*
Y03677D01*
X03722Y0366D02*
X03757D01*
X0374Y03642D02*
Y03677D01*
X03822Y0376D02*
X03857D01*
X0384Y03742D02*
Y03777D01*
X03722Y0376D02*
X03757D01*
X0374Y03742D02*
Y03777D01*
X03822Y0386D02*
X03857D01*
X0384Y03842D02*
Y03877D01*
X03722Y0386D02*
X03757D01*
X0374Y03842D02*
Y03877D01*
X03822Y0396D02*
X03857D01*
X0384Y03942D02*
Y03977D01*
X03722Y0396D02*
X03757D01*
X0374Y03942D02*
Y03977D01*
X03822Y0406D02*
X03857D01*
X0384Y04042D02*
Y04077D01*
X03722Y0406D02*
X03757D01*
X0374Y04042D02*
Y04077D01*
X03822Y0416D02*
X03857D01*
X0384Y04142D02*
Y04177D01*
X03722Y0416D02*
X03757D01*
X0374Y04142D02*
Y04177D01*
X03822Y0426D02*
X03857D01*
X0384Y04242D02*
Y04277D01*
X03722Y0426D02*
X03757D01*
X0374Y04242D02*
Y04277D01*
X03822Y0436D02*
X03857D01*
X0384Y04342D02*
Y04377D01*
X03722Y0436D02*
X03757D01*
X0374Y04342D02*
Y04377D01*
X03822Y0446D02*
X03857D01*
X0384Y04442D02*
Y04477D01*
X03722Y0446D02*
X03757D01*
X0374Y04442D02*
Y04477D01*
X03822Y0456D02*
X03857D01*
X0384Y04542D02*
Y04577D01*
X03722Y0456D02*
X03757D01*
X0374Y04542D02*
Y04577D01*
X03822Y0466D02*
X03857D01*
X0384Y04642D02*
Y04677D01*
X03722Y0466D02*
X03757D01*
X0374Y04642D02*
Y04677D01*
X03822Y0476D02*
X03857D01*
X0384Y04742D02*
Y04777D01*
X03722Y0476D02*
X03757D01*
X0374Y04742D02*
Y04777D01*
X03822Y0486D02*
X03857D01*
X0384Y04842D02*
Y04877D01*
X03722Y0486D02*
X03757D01*
X0374Y04842D02*
Y04877D01*
X02184Y03661D02*
X02215D01*
X022Y03645D02*
Y03677D01*
X02184Y03858D02*
X02215D01*
X022Y03842D02*
Y03874D01*
X02804Y03661D02*
X02835D01*
X0282Y03645D02*
Y03677D01*
X02804Y03858D02*
X02835D01*
X0282Y03842D02*
Y03874D01*
X03426Y044D02*
X03454D01*
X0344Y04386D02*
Y04414D01*
X02628Y04224D02*
X02651D01*
X0264Y04212D02*
Y04235D01*
X03341Y04768D02*
X03365D01*
X03353Y04756D02*
Y0478D01*
X03643Y04795D02*
X03666D01*
X03655Y04783D02*
Y04806D01*
X02383Y03299D02*
X02406D01*
X02395Y03287D02*
Y0331D01*
X02855Y04566D02*
X02878D01*
X02867Y04554D02*
Y04577D01*
X03588Y03802D02*
X03611D01*
X036Y0379D02*
Y03813D01*
X03003Y04615D02*
X03026D01*
X03015Y04603D02*
Y04626D01*
X02407Y03616D02*
X0243D01*
X02419Y03604D02*
Y03627D01*
X03052Y03282D02*
X03075D01*
X03064Y0327D02*
Y03293D01*
X02884Y036D02*
X02907D01*
X02896Y03588D02*
Y03611D01*
X03297Y03616D02*
X0332D01*
X03309Y03604D02*
Y03627D01*
X03758Y03455D02*
X03781D01*
X0377Y03443D02*
Y03466D01*
X02149Y03913D02*
X02172D01*
X02161Y03901D02*
Y03924D01*
X02885Y04116D02*
X02908D01*
X02897Y04104D02*
Y04127D01*
X02464Y03862D02*
X02487D01*
X02476Y0385D02*
Y03873D01*
X02504Y03456D02*
X02527D01*
X02516Y03444D02*
Y03467D01*
X03144Y03739D02*
X03167D01*
X03156Y03727D02*
Y0375D01*
X02686Y03439D02*
X02709D01*
X02698Y03427D02*
Y0345D01*
X02916Y03652D02*
X02939D01*
X02928Y03641D02*
Y03664D01*
X02939Y0349D02*
X02962D01*
X02951Y03478D02*
Y03501D01*
X03146Y03655D02*
X03169D01*
X03157Y03643D02*
Y03667D01*
X03016Y0371D02*
X0304D01*
X03028Y03698D02*
Y03721D01*
X031Y03526D02*
X03123D01*
X03112Y03514D02*
Y03537D01*
X03079Y03612D02*
X03102D01*
X03091Y036D02*
Y03623D01*
X03104Y03422D02*
X03127D01*
X03116Y0341D02*
Y03433D01*
X03303Y04177D02*
X03326D01*
X03315Y04165D02*
Y04188D01*
X03232Y04273D02*
X03255D01*
X03244Y04261D02*
Y04284D01*
X0335Y04134D02*
X03373D01*
X03362Y04122D02*
Y04145D01*
X03137Y04227D02*
X0316D01*
X03149Y04215D02*
Y04238D01*
X03543Y04676D02*
X03567D01*
X03555Y04664D02*
Y04687D01*
X02143Y0359D02*
X02166D01*
X02155Y03578D02*
Y03601D01*
X02351Y03865D02*
X02375D01*
X02363Y03853D02*
Y03876D01*
X03124Y0412D02*
X03147D01*
X03136Y04108D02*
Y04131D01*
X02828Y04835D02*
X02851D01*
X0284Y04823D02*
Y04846D01*
X02842Y0452D02*
X02865D01*
X02854Y04508D02*
Y04531D01*
X02515Y04789D02*
X02538D01*
X02527Y04777D02*
Y048D01*
X03221Y04869D02*
X03244D01*
X03233Y04857D02*
Y0488D01*
X02481Y04714D02*
X02504D01*
X02493Y04702D02*
Y04725D01*
X03051Y04478D02*
X03074D01*
X03063Y04466D02*
Y04489D01*
X02272Y03728D02*
X02295D01*
X02284Y03716D02*
Y03739D01*
X02329Y03785D02*
X02353D01*
X02341Y03773D02*
Y03797D01*
X02732Y03659D02*
X02755D01*
X02744Y03647D02*
Y0367D01*
X02844Y03458D02*
X02868D01*
X02856Y03446D02*
Y0347D01*
X02727Y03599D02*
X0275D01*
X02739Y03587D02*
Y0361D01*
X02884Y03409D02*
X02907D01*
X02896Y03397D02*
Y0342D01*
X02663Y04752D02*
X02686D01*
X02675Y0474D02*
Y04763D01*
X03248Y04785D02*
X03271D01*
X0326Y04773D02*
Y04796D01*
X03259Y04206D02*
X03282D01*
X03271Y04194D02*
Y04218D01*
X02841Y03337D02*
X02864D01*
X02853Y03325D02*
Y03348D01*
X02538Y045D02*
X02561D01*
X0255Y04488D02*
Y04511D01*
X03493Y04095D02*
X03516D01*
X03505Y04083D02*
Y04106D01*
X03303Y03964D02*
X03327D01*
X03315Y03952D02*
Y03975D01*
X03063Y0389D02*
X03086D01*
X03075Y03878D02*
Y03901D01*
X02898Y0403D02*
X02921D01*
X0291Y04018D02*
Y04041D01*
X03053Y03985D02*
X03076D01*
X03065Y03973D02*
Y03996D01*
X03088Y043D02*
X03111D01*
X031Y04288D02*
Y04311D01*
X03288Y043D02*
X03311D01*
X033Y04288D02*
Y04311D01*
X03331Y03856D02*
X03354D01*
X03343Y03844D02*
Y03867D01*
X03268Y03825D02*
X03291D01*
X0328Y03813D02*
Y03836D01*
X03203Y0382D02*
X03226D01*
X03215Y03808D02*
Y03831D01*
X03348Y03995D02*
X03371D01*
X0336Y03983D02*
Y04006D01*
X03363Y0392D02*
X03386D01*
X03375Y03908D02*
Y03931D01*
X03388Y03855D02*
X03411D01*
X034Y03843D02*
Y03866D01*
X03223Y03925D02*
X03246D01*
X03235Y03913D02*
Y03936D01*
X03498Y0486D02*
X03521D01*
X0351Y04848D02*
Y04871D01*
M02*