%FSTAX23Y23*%
%MOIN*%
%SFA1B1*%

%IPPOS*%
%ADD10R,0.043310X0.039370*%
%ADD11R,0.039370X0.043310*%
%ADD12R,0.064960X0.011810*%
%ADD13O,0.049210X0.011810*%
%ADD14O,0.021650X0.064960*%
%ADD15O,0.064960X0.021650*%
%ADD16R,0.084650X0.015750*%
%ADD17R,0.084650X0.015750*%
%ADD18R,0.157480X0.393700*%
%ADD19R,0.059060X0.051180*%
%ADD20O,0.070870X0.023620*%
%ADD21R,0.165350X0.165350*%
%LNpaw8-1*%
%LPD*%
G54D10*
X02706Y047D03*
X02773D03*
X03013Y043D03*
X02946D03*
X03013Y0408D03*
X02946D03*
X03033Y036D03*
X02966D03*
X02753Y0484D03*
X02686D03*
X02593D03*
X02526D03*
X03353Y0468D03*
X03286D03*
X03146Y0448D03*
X03213D03*
X03353Y0484D03*
X03286D03*
X02706Y0452D03*
X02773D03*
X02906D03*
X02973D03*
G54D11*
X026Y03386D03*
Y03453D03*
X036Y03666D03*
Y03733D03*
X034Y04286D03*
Y04353D03*
X0316Y03573D03*
Y03506D03*
G54D12*
X0241Y03836D03*
Y03811D03*
Y03785D03*
Y0376D03*
Y03734D03*
Y03708D03*
Y03683D03*
X02629Y03836D03*
Y03811D03*
Y03785D03*
Y0376D03*
Y03734D03*
Y03708D03*
Y03683D03*
G54D13*
X03487Y04789D03*
Y04769D03*
Y0475D03*
Y0473D03*
X03592Y04789D03*
Y04769D03*
Y0475D03*
Y0473D03*
G54D14*
X03189Y04065D03*
X03221D03*
X03252D03*
X03284D03*
X03315D03*
X03347D03*
X03378D03*
X0341D03*
Y03734D03*
X03378D03*
X03347D03*
X03315D03*
X03284D03*
X03252D03*
X03221D03*
X03189D03*
G54D15*
X03465Y0401D03*
Y03978D03*
Y03947D03*
Y03915D03*
Y03884D03*
Y03852D03*
Y03821D03*
Y03789D03*
X03134D03*
Y03821D03*
Y03852D03*
Y03884D03*
Y03915D03*
Y03947D03*
Y03978D03*
Y0401D03*
G54D16*
X02428Y0333D03*
Y03356D03*
Y03381D03*
Y03407D03*
Y03432D03*
Y03458D03*
Y03483D03*
Y03509D03*
X02171Y0333D03*
Y03356D03*
Y03381D03*
Y03407D03*
Y03432D03*
Y03458D03*
Y03483D03*
X03028Y0333D03*
Y03356D03*
Y03381D03*
Y03407D03*
Y03432D03*
Y03458D03*
Y03483D03*
Y03509D03*
X02771Y0333D03*
Y03356D03*
Y03381D03*
Y03407D03*
Y03432D03*
Y03458D03*
Y03483D03*
G54D17*
X02171Y03509D03*
X02771D03*
G54D18*
X02785Y04165D03*
X02375Y0416D03*
G54D19*
X0256Y04637D03*
Y04562D03*
G54D20*
X03181Y04685D03*
Y04735D03*
Y04785D03*
Y04835D03*
X02898Y04685D03*
Y04735D03*
Y04785D03*
Y04835D03*
G54D21*
X0304Y0476D03*
M02*