%FSTAX23Y23*%
%MOIN*%
%SFA1B1*%

%IPPOS*%
%ADD9500C,0.024000*%
%ADD9501C,0.028000*%
%ADD9502C,0.031000*%
%ADD9503C,0.035000*%
%ADD9504C,0.078000*%
%LNpaw8-1*%
%LPD*%
G54D9500*
X02395Y03299D03*
X02516Y03456D03*
X02698Y03439D03*
X02856Y03458D03*
X02896Y03409D03*
X02853Y03337D03*
X02951Y0349D03*
X02896Y036D03*
X02928Y03653D03*
X03028Y0371D03*
X03091Y03612D03*
X03112Y03526D03*
X03116Y03422D03*
X03064Y03282D03*
X03075Y0389D03*
X03065Y03985D03*
X0291Y0403D03*
X02897Y04116D03*
X0264Y04224D03*
X0255Y045D03*
X02854Y0452D03*
X02867Y04566D03*
X03015Y04615D03*
X03063Y04478D03*
X031Y043D03*
X02744Y03659D03*
X02739Y03599D03*
X02419Y03616D03*
X02284Y03728D03*
X02342Y03786D03*
X02363Y03865D03*
X02476Y03862D03*
X02161Y03913D03*
X02155Y0359D03*
X03158Y03655D03*
X03156Y03739D03*
X03215Y0382D03*
X0328Y03825D03*
X03343Y03856D03*
X034Y03855D03*
X03375Y0392D03*
X0336Y03995D03*
X03316Y03964D03*
X03235Y03925D03*
X03136Y0412D03*
X03149Y04227D03*
X03244Y04273D03*
X033Y043D03*
X03271Y04207D03*
X03315Y04177D03*
X03362Y04134D03*
X03505Y04095D03*
X036Y03802D03*
X03309Y03616D03*
X0377Y03455D03*
X03556Y04676D03*
X03655Y04795D03*
X0351Y0486D03*
X03353Y04768D03*
X0326Y04785D03*
X03233Y04869D03*
X0284Y04835D03*
X02675Y04752D03*
X02527Y04789D03*
X02493Y04714D03*
G54D9501*
X0344Y044D03*
G54D9502*
X022Y03662D03*
Y03858D03*
X0282D03*
Y03662D03*
G54D9503*
X033Y031D03*
X0348D03*
X0368D03*
X0388D03*
X031Y032D03*
X03D03*
X028D03*
X027D03*
X025D03*
X024D03*
X0222D03*
X0212D03*
X0298Y0378D03*
Y03972D03*
X0374Y0396D03*
Y0386D03*
Y0376D03*
Y0366D03*
X0384D03*
Y0376D03*
Y0386D03*
Y0396D03*
Y0406D03*
X0374D03*
Y0416D03*
X0384D03*
Y0426D03*
X0374D03*
Y0436D03*
X0384D03*
Y0446D03*
X0374D03*
Y0456D03*
X0384D03*
Y0466D03*
X0374D03*
X0362Y0448D03*
X0352D03*
Y0438D03*
X0362D03*
Y0428D03*
X0352D03*
X0356Y0352D03*
X0346D03*
X0336D03*
X033Y033D03*
Y032D03*
X0348D03*
Y033D03*
X0368D03*
Y032D03*
X0388D03*
Y033D03*
X0386Y0352D03*
X0376D03*
X0366D03*
X0374Y0476D03*
X0384D03*
Y0486D03*
X0374D03*
G54D9504*
X0214Y0403D03*
Y0423D03*
Y0462D03*
X024Y0456D03*
Y048D03*
X0214Y0482D03*
M02*