%FSTAX23Y23*%
%MOIN*%
%SFA1B1*%

%IPPOS*%
%ADD57C,0.061150*%
%ADD58R,0.061150X0.061150*%
%ADD59R,0.067060X0.067060*%
%ADD60C,0.067060*%
%ADD61R,0.067060X0.067060*%
%ADD62C,0.158000*%
%ADD63C,0.067060*%
%ADD64C,0.047370*%
%ADD65C,0.058000*%
%LNpaw7-1*%
%LPD*%
G54D57*
X0282Y03858D03*
X022D03*
G54D58*
X0282Y03661D03*
X022D03*
G54D59*
X0374Y0486D03*
X0362Y0428D03*
X0388Y033D03*
X0348D03*
X033D03*
X0368D03*
G54D60*
X0384Y0486D03*
X0374Y0476D03*
X0384D03*
X0374Y0466D03*
X0384D03*
X0374Y0456D03*
X0384D03*
X0374Y0446D03*
X0384D03*
X0374Y0436D03*
X0384D03*
X0374Y0426D03*
X0384D03*
X0374Y0416D03*
X0384D03*
X0374Y0406D03*
X0384D03*
X0374Y0396D03*
X0384D03*
X0374Y0386D03*
X0384D03*
X0374Y0376D03*
X0384D03*
X0374Y0366D03*
X0384D03*
X031Y032D03*
X028D03*
X0222D03*
X025D03*
X0352Y0428D03*
X0362Y0438D03*
X0352D03*
X0362Y0448D03*
X0352D03*
X0376Y0352D03*
X0366D03*
X0356D03*
X0346D03*
X0336D03*
X0388Y032D03*
Y031D03*
X0348Y032D03*
Y031D03*
X033Y032D03*
Y031D03*
X0368Y032D03*
Y031D03*
G54D61*
X03Y032D03*
X027D03*
X0212D03*
X024D03*
X0386Y0352D03*
G54D62*
X0214Y0482D03*
Y0403D03*
Y0462D03*
Y0423D03*
X024Y0456D03*
Y048D03*
G54D63*
X0298Y0378D03*
Y03972D03*
G54D64*
X0351Y0486D03*
X03235Y03925D03*
X034Y03855D03*
X03375Y0392D03*
X0336Y03995D03*
X03215Y0382D03*
X0328Y03825D03*
X03343Y03856D03*
X033Y043D03*
X031D03*
X03065Y03985D03*
X0291Y0403D03*
X03075Y0389D03*
X03315Y03964D03*
X03505Y04095D03*
X0255Y045D03*
X02853Y03337D03*
X03271Y04206D03*
X0326Y04785D03*
X02675Y04752D03*
X02896Y03409D03*
X02739Y03599D03*
X02856Y03458D03*
X02744Y03659D03*
X02341Y03785D03*
X02284Y03728D03*
X03063Y04478D03*
X02493Y04714D03*
X03233Y04869D03*
X02527Y04789D03*
X02854Y0452D03*
X0284Y04835D03*
X03136Y0412D03*
X02363Y03865D03*
X02155Y0359D03*
X03555Y04676D03*
X03149Y04227D03*
X03362Y04134D03*
X03244Y04273D03*
X03315Y04177D03*
X03116Y03422D03*
X03091Y03612D03*
X03112Y03526D03*
X03028Y0371D03*
X03157Y03655D03*
X02951Y0349D03*
X02928Y03652D03*
X02698Y03439D03*
X03156Y03739D03*
X02516Y03456D03*
X02476Y03862D03*
X02897Y04116D03*
X02161Y03913D03*
X0377Y03455D03*
X03309Y03616D03*
X02896Y036D03*
X03064Y03282D03*
X02419Y03616D03*
X03015Y04615D03*
X036Y03802D03*
X02867Y04566D03*
X02395Y03299D03*
X03655Y04795D03*
X03353Y04768D03*
X0264Y04224D03*
G54D65*
X0344Y044D03*
M02*