%FSTAX23Y23*%
%MOIN*%
%SFA1B1*%

%IPPOS*%
%ADD48R,0.047370X0.051310*%
%ADD49R,0.165480X0.401700*%
%ADD50R,0.078870X0.070990*%
%ADD51O,0.029650X0.072960*%
%ADD52O,0.072960X0.029650*%
%ADD53R,0.092650X0.023750*%
%ADD54R,0.092650X0.023750*%
%ADD55R,0.051310X0.047370*%
%ADD56R,0.072960X0.019810*%
%ADD57R,0.067060X0.059180*%
%ADD58O,0.057210X0.019810*%
%ADD59O,0.106420X0.035560*%
%ADD60R,0.070990X0.031620*%
%ADD61O,0.078870X0.031620*%
%ADD62R,0.173350X0.173350*%
%ADD63R,0.059180X0.031620*%
%ADD64C,0.067060*%
%ADD65R,0.067060X0.067060*%
%ADD66C,0.061150*%
%ADD67R,0.061150X0.061150*%
%ADD68C,0.067060*%
%ADD69R,0.067060X0.067060*%
%ADD70C,0.158000*%
%ADD71C,0.058000*%
%LNrazbot_v02-1*%
%LPD*%
G54D48*
X0198Y00793D03*
Y00726D03*
X0206Y00793D03*
Y00726D03*
X0116Y01333D03*
Y01266D03*
X0126Y01086D03*
Y01153D03*
X0064Y01666D03*
Y01733D03*
X0176Y02386D03*
Y02453D03*
X016D03*
Y02386D03*
X013D03*
Y02453D03*
X0148Y02386D03*
Y02453D03*
X0138Y01973D03*
Y01906D03*
X0082Y01266D03*
Y01333D03*
Y01573D03*
Y01506D03*
X0028Y01653D03*
Y01586D03*
X015Y01906D03*
Y01973D03*
X016Y01906D03*
Y01973D03*
X0178Y02113D03*
Y02046D03*
X0012Y01146D03*
Y01213D03*
Y01366D03*
Y01433D03*
Y01586D03*
Y01653D03*
X0162Y01126D03*
Y01193D03*
X0126Y00886D03*
Y00953D03*
X01Y01333D03*
Y01266D03*
X0108Y01333D03*
Y01266D03*
G54D49*
X01125Y023D03*
X00715Y02295D03*
G54D50*
X002Y01824D03*
Y01935D03*
X0036D03*
Y01824D03*
G54D51*
X01529Y00925D03*
X01561D03*
X01592D03*
X01624D03*
X01655D03*
X01687D03*
X01718D03*
X0175D03*
Y00594D03*
X01718D03*
X01687D03*
X01655D03*
X01624D03*
X01592D03*
X01561D03*
X01529D03*
G54D52*
X01805Y0087D03*
Y00838D03*
Y00807D03*
Y00775D03*
Y00744D03*
Y00712D03*
Y00681D03*
Y00649D03*
X01474D03*
Y00681D03*
Y00712D03*
Y00744D03*
Y00775D03*
Y00807D03*
Y00838D03*
Y0087D03*
G54D53*
X01028Y0035D03*
Y00376D03*
Y00401D03*
Y00427D03*
Y00452D03*
Y00478D03*
Y00503D03*
Y00529D03*
X00771Y0035D03*
Y00376D03*
Y00401D03*
Y00427D03*
Y00452D03*
Y00478D03*
Y00503D03*
X00448Y0035D03*
Y00376D03*
Y00401D03*
Y00427D03*
Y00452D03*
Y00478D03*
Y00503D03*
Y00529D03*
X00191Y0035D03*
Y00376D03*
Y00401D03*
Y00427D03*
Y00452D03*
Y00478D03*
Y00503D03*
G54D54*
X00771Y00529D03*
X00191D03*
G54D55*
X01026Y0066D03*
X01093D03*
X00453Y0064D03*
X00386D03*
G54D56*
X00769Y00783D03*
Y00808D03*
Y00834D03*
Y0086D03*
Y00885D03*
Y00911D03*
Y00936D03*
X0055Y00783D03*
Y00808D03*
Y00834D03*
Y0086D03*
Y00885D03*
Y00911D03*
Y00936D03*
G54D57*
X0114Y01722D03*
Y01797D03*
X005Y01817D03*
Y01742D03*
G54D58*
X01327Y01349D03*
Y01329D03*
Y0131D03*
Y0129D03*
X01432Y01349D03*
Y01329D03*
Y0131D03*
Y0129D03*
G54D59*
X00463Y01555D03*
Y01505D03*
Y01455D03*
Y01405D03*
X00656Y01555D03*
Y01505D03*
Y01455D03*
Y01405D03*
X00783Y01875D03*
Y01825D03*
Y01775D03*
Y01725D03*
X00976Y01875D03*
Y01825D03*
Y01775D03*
Y01725D03*
G54D60*
X00556Y01237D03*
Y01162D03*
X00643Y012D03*
G54D61*
X01641Y02125D03*
Y02175D03*
Y02225D03*
Y02275D03*
X01358Y02125D03*
Y02175D03*
Y02225D03*
Y02275D03*
G54D62*
X015Y022D03*
G54D63*
X00298Y01237D03*
Y01162D03*
X00381Y012D03*
G54D64*
X021Y011D03*
X02D03*
X021Y012D03*
X02D03*
X021Y013D03*
X02D03*
X021Y014D03*
X02D03*
X021Y015D03*
X02D03*
X021Y016D03*
X02D03*
X021Y017D03*
X02D03*
X021Y018D03*
X02D03*
X021Y019D03*
X02D03*
X021Y02D03*
X02D03*
X021Y021D03*
X02D03*
X021Y022D03*
X02D03*
X021Y023D03*
X0138Y0008D03*
Y0018D03*
X0174Y0008D03*
Y0018D03*
X0192Y0008D03*
Y0018D03*
X0156Y0008D03*
Y0018D03*
X0172Y014D03*
X0162D03*
X0172Y015D03*
X0162D03*
X0172Y016D03*
X011Y001D03*
X008D03*
X005D03*
X002D03*
X0208Y0038D03*
Y0028D03*
Y0018D03*
Y0008D03*
G54D65*
X02Y023D03*
X0138Y0028D03*
X0174D03*
X0192D03*
X0156D03*
X0162Y016D03*
X0208Y0048D03*
G54D66*
X01178Y0152D03*
X00258Y0088D03*
G54D67*
X00981Y0152D03*
X00061Y0088D03*
G54D68*
X0112Y009D03*
Y01092D03*
G54D69*
X01Y001D03*
X007D03*
X004D03*
X001D03*
G54D70*
X002Y0238D03*
Y0214D03*
X0048Y0238D03*
Y0214D03*
G54D71*
X01835Y0239D03*
X02Y00635D03*
X0185Y016D03*
X014Y02445D03*
X0161Y0173D03*
X01725Y02175D03*
X01565Y0206D03*
X0146D03*
X01205Y01965D03*
X01265Y021D03*
X01695Y0198D03*
X0168Y01875D03*
X01885Y02515D03*
X002Y01145D03*
X0077Y0145D03*
X0035Y01555D03*
Y0139D03*
X0028D03*
Y0151D03*
X0126Y018D03*
X00645Y00375D03*
X01285Y02315D03*
X0138Y0071D03*
X0086Y0095D03*
X0046Y0059D03*
X0097Y0074D03*
X00625Y0071D03*
X0017Y0068D03*
X001Y004D03*
X0103Y0029D03*
X00455Y00295D03*
X0077Y0069D03*
X006Y00475D03*
X0068Y0047D03*
X01485Y00475D03*
X01435Y0053D03*
X0102Y006D03*
X01395Y0059D03*
X00685Y0054D03*
X00475Y0072D03*
X0194Y00895D03*
X01825Y01055D03*
X01645Y00405D03*
X0188Y007D03*
X0187Y00455D03*
X0178Y01D03*
X0132Y0104D03*
X0122Y00625D03*
X0115Y0059D03*
X01295Y00665D03*
X01845Y0052D03*
X01735Y0046D03*
X01775Y0052D03*
X0123Y00755D03*
X0165Y00815D03*
X0137Y00915D03*
X01385Y0123D03*
X01225Y0126D03*
X01435Y01125D03*
X01495Y0108D03*
X00465Y0096D03*
X0141Y01025D03*
X0185Y01205D03*
X01565Y0132D03*
X0141Y01425D03*
X0148D03*
X01855Y0168D03*
Y01755D03*
X0125Y016D03*
X0092Y01025D03*
X01005Y01145D03*
M02*