%FSTAX23Y23*%
%MOIN*%
%SFA1B1*%

%IPPOS*%
%ADD10R,0.039370X0.043310*%
%ADD11R,0.157480X0.393700*%
%ADD12R,0.070870X0.062990*%
%ADD13O,0.021650X0.064960*%
%ADD14O,0.064960X0.021650*%
%ADD15R,0.084650X0.015750*%
%ADD16R,0.084650X0.015750*%
%ADD17R,0.043310X0.039370*%
%ADD18R,0.064960X0.011810*%
%ADD19R,0.059060X0.051180*%
%ADD20O,0.049210X0.011810*%
%ADD21O,0.098430X0.027560*%
%ADD22R,0.062990X0.023620*%
%ADD23O,0.070870X0.023620*%
%ADD24R,0.165350X0.165350*%
%ADD25R,0.051180X0.023620*%
%ADD26C,0.007870*%
%ADD27C,0.011810*%
%ADD28C,0.059060*%
%ADD29C,0.019690*%
%ADD30C,0.013780*%
%ADD31C,0.047240*%
%ADD32C,0.010000*%
%ADD33C,0.000000*%
%ADD34C,0.031500*%
%ADD35C,0.039370*%
%ADD36C,0.015750*%
%ADD37C,0.059060*%
%ADD38R,0.059060X0.059060*%
%ADD39C,0.053150*%
%ADD40R,0.053150X0.053150*%
%ADD41C,0.059060*%
%ADD42R,0.059060X0.059060*%
%ADD43C,0.150000*%
%ADD44C,0.050000*%
%LNrazbot_v02-1*%
%LPD*%
G54D10*
X0198Y00793D03*
Y00726D03*
X0206Y00793D03*
Y00726D03*
X0116Y01333D03*
Y01266D03*
X0126Y01086D03*
Y01153D03*
X0064Y01666D03*
Y01733D03*
X0176Y02386D03*
Y02453D03*
X016D03*
Y02386D03*
X013D03*
Y02453D03*
X0148Y02386D03*
Y02453D03*
X0138Y01973D03*
Y01906D03*
X0082Y01266D03*
Y01333D03*
Y01573D03*
Y01506D03*
X0028Y01653D03*
Y01586D03*
X015Y01906D03*
Y01973D03*
X016Y01906D03*
Y01973D03*
X0178Y02113D03*
Y02046D03*
X0012Y01146D03*
Y01213D03*
Y01366D03*
Y01433D03*
Y01586D03*
Y01653D03*
X0162Y01126D03*
Y01193D03*
X0126Y00886D03*
Y00953D03*
X01Y01333D03*
Y01266D03*
X0108Y01333D03*
Y01266D03*
G54D11*
X01125Y023D03*
X00715Y02295D03*
G54D12*
X002Y01824D03*
Y01935D03*
X0036D03*
Y01824D03*
G54D13*
X01529Y00925D03*
X01561D03*
X01592D03*
X01624D03*
X01655D03*
X01687D03*
X01718D03*
X0175D03*
Y00594D03*
X01718D03*
X01687D03*
X01655D03*
X01624D03*
X01592D03*
X01561D03*
X01529D03*
G54D14*
X01805Y0087D03*
Y00838D03*
Y00807D03*
Y00775D03*
Y00744D03*
Y00712D03*
Y00681D03*
Y00649D03*
X01474D03*
Y00681D03*
Y00712D03*
Y00744D03*
Y00775D03*
Y00807D03*
Y00838D03*
Y0087D03*
G54D15*
X01028Y0035D03*
Y00376D03*
Y00401D03*
Y00427D03*
Y00452D03*
Y00478D03*
Y00503D03*
Y00529D03*
X00771Y0035D03*
Y00376D03*
Y00401D03*
Y00427D03*
Y00452D03*
Y00478D03*
Y00503D03*
X00448Y0035D03*
Y00376D03*
Y00401D03*
Y00427D03*
Y00452D03*
Y00478D03*
Y00503D03*
Y00529D03*
X00191Y0035D03*
Y00376D03*
Y00401D03*
Y00427D03*
Y00452D03*
Y00478D03*
Y00503D03*
G54D16*
X00771Y00529D03*
X00191D03*
G54D17*
X01026Y0066D03*
X01093D03*
X00453Y0064D03*
X00386D03*
G54D18*
X00769Y00783D03*
Y00808D03*
Y00834D03*
Y0086D03*
Y00885D03*
Y00911D03*
Y00936D03*
X0055Y00783D03*
Y00808D03*
Y00834D03*
Y0086D03*
Y00885D03*
Y00911D03*
Y00936D03*
G54D19*
X0114Y01722D03*
Y01797D03*
X005Y01817D03*
Y01742D03*
G54D20*
X01327Y01349D03*
Y01329D03*
Y0131D03*
Y0129D03*
X01432Y01349D03*
Y01329D03*
Y0131D03*
Y0129D03*
G54D21*
X00463Y01555D03*
Y01505D03*
Y01455D03*
Y01405D03*
X00656Y01555D03*
Y01505D03*
Y01455D03*
Y01405D03*
X00783Y01875D03*
Y01825D03*
Y01775D03*
Y01725D03*
X00976Y01875D03*
Y01825D03*
Y01775D03*
Y01725D03*
G54D22*
X00556Y01237D03*
Y01162D03*
X00643Y012D03*
G54D23*
X01641Y02125D03*
Y02175D03*
Y02225D03*
Y02275D03*
X01358Y02125D03*
Y02175D03*
Y02225D03*
Y02275D03*
G54D24*
X015Y022D03*
G54D25*
X00298Y01237D03*
Y01162D03*
X00381Y012D03*
G54D26*
X01175Y01516D02*
X01178Y0152D01*
X0116Y01333D02*
X01175Y01348D01*
X0205Y0185D02*
X021Y019D01*
X01935Y0185D02*
X0205D01*
X0191Y01825D02*
X01935Y0185D01*
X0205Y0195D02*
X021Y02D01*
X0197Y0195D02*
X0205D01*
X0193Y0191D02*
X0197Y0195D01*
X00191Y00529D02*
Y0068D01*
X00465Y0073D02*
X00518Y00783D01*
X01305Y0092D02*
Y01041D01*
X01125Y0092D02*
X01135Y0091D01*
X016Y00375D02*
X0164Y00415D01*
X01637Y00412D02*
X0164Y00415D01*
X016Y00375D02*
X01637Y00412D01*
X01361Y00503D02*
X01444Y0042D01*
X01028Y00503D02*
X01361D01*
X01125Y0092D02*
X01132Y00912D01*
X01135Y0091*
X01305Y0104D02*
Y01041D01*
Y0092D02*
Y0104D01*
X00465Y0073D02*
X00518Y00783D01*
X00191Y00529D02*
Y0068D01*
X0096Y011D02*
X01005Y01145D01*
X0096Y01025D02*
Y011D01*
X0155Y02276D02*
Y02408D01*
X01594Y02453*
X01805Y00775D02*
X01969Y00775D01*
X01474Y00744D02*
X01474Y00744D01*
X0198Y00793D02*
X0206D01*
X01471Y0081D02*
X01474Y00807D01*
X01425Y00744D02*
X01474D01*
X01415Y00755D02*
X01425Y00744D01*
X01415Y00755D02*
Y00785D01*
X0144Y0081*
X01471*
X00448Y0035D02*
X00455Y00344D01*
Y003D02*
Y00344D01*
X01028Y00301D02*
Y0035D01*
Y00301D02*
X0103Y003D01*
X0034Y00686D02*
X00386Y0064D01*
X0034Y00686D02*
Y0069D01*
X00433Y00783*
X00518D02*
X0055D01*
X00433D02*
X00518D01*
X0183Y00895D02*
X0194D01*
X01805Y0087D02*
X0183Y00895D01*
X01028Y00427D02*
X01367D01*
X01031Y00455D02*
X01375D01*
X0143Y004*
X01367Y00427D02*
X0142Y00375D01*
X016*
X01805Y00712D02*
X01867D01*
X0208Y0018D02*
Y00201D01*
X0187Y00411D02*
X0208Y00201D01*
X0187Y00411D02*
Y00455D01*
X01718Y00925D02*
X0172Y00926D01*
X0175Y00925D02*
Y0097D01*
X0178Y01*
X0208Y0028D02*
Y003D01*
Y0038D02*
Y00401D01*
Y003D02*
X02145Y00365D01*
X0208Y00401D02*
X0213Y00451D01*
Y0081*
X01925Y01015D02*
X0213Y0081D01*
X0186Y01089D02*
X01925Y01025D01*
X0172Y00926D02*
Y01D01*
X01775Y01055*
X01825*
X01789Y01089D02*
X0186D01*
X01687Y00987D02*
X01789Y01089D01*
X01687Y00925D02*
Y00987D01*
X01655Y00975D02*
X01785Y01105D01*
X01655Y00925D02*
Y00975D01*
X0126Y00886D02*
X01271D01*
X01305Y0092*
X0126Y01086D02*
X01305Y01041D01*
X01093Y0064D02*
X011D01*
X0115Y0059*
X0122Y00625D02*
X01325D01*
X01349Y00649*
X01474*
X01295Y00665D02*
X01405D01*
X01421Y00681D02*
X01474D01*
X01405Y00665D02*
X01421Y00681D01*
X0175Y00544D02*
Y00594D01*
Y00544D02*
X01775Y0052D01*
X01805Y00559D02*
Y00649D01*
Y00559D02*
X01845Y0052D01*
X01554Y00775D02*
X01805D01*
X01522Y00807D02*
X01554Y00775D01*
X01474Y00807D02*
X01522D01*
X0123Y00755D02*
X01415D01*
X01802Y0081D02*
X01805Y00807D01*
X0135Y0119D02*
X01365Y01175D01*
X01432Y01277D02*
Y0129D01*
X01385Y0123D02*
X01432Y01277D01*
X01255Y0129D02*
X01327D01*
X01225Y0126D02*
X01255Y0129D01*
X01327Y01349D02*
X01334D01*
X0141Y01425*
X01432Y01349D02*
Y01377D01*
X01561Y00925D02*
Y01013D01*
X01495Y0108D02*
X01561Y01013D01*
X01515Y01125D02*
X01592Y01047D01*
X01435Y01125D02*
X01515D01*
X01592Y00925D02*
Y01047D01*
X0141Y01025D02*
X01509Y00925D01*
X01529*
X01925Y01015D02*
Y01025D01*
X02145Y00365D02*
Y00825D01*
X01785Y01105D02*
X01865D01*
X02145Y00825*
X01432Y01377D02*
X0148Y01425D01*
X01565Y0163D02*
X01585Y0165D01*
X0166*
X01675Y01635*
Y01545D02*
Y01635D01*
Y01545D02*
X0172Y015D01*
X01565Y0132D02*
Y0163D01*
X01855Y01755D02*
Y0181D01*
X0193Y01885*
Y0191*
X0191Y01735D02*
Y01825D01*
X01855Y0168D02*
X0191Y01735D01*
X01327Y0133D02*
X01327Y01329D01*
X01295Y0133D02*
X01327D01*
X0125Y01375D02*
X01295Y0133D01*
X0125Y01375D02*
Y016D01*
X0092Y01025D02*
X0096D01*
X01206Y011D02*
X0126Y01153D01*
X01125Y011D02*
X01206D01*
X01135Y0091D02*
X01216D01*
X0126Y00953*
X01013Y01333D02*
X0108Y01266D01*
X01156Y0119D02*
X0135D01*
X0108Y01266D02*
X01156Y0119D01*
X0165Y0081D02*
X01802D01*
X01365Y00905D02*
Y01175D01*
X01093Y01333D02*
X0116Y01266D01*
X0108Y01333D02*
X01093D01*
G54D27*
X01175Y01348D02*
Y01516D01*
X0186Y00655D02*
X02D01*
X01015Y00595D02*
Y0071D01*
X0137Y00712D02*
X01474D01*
X01718Y00481D02*
X0192Y0028D01*
X00966Y00726D02*
X01065Y00825D01*
X0067Y00475D02*
X0069Y00455D01*
X007Y00533D02*
Y00769D01*
Y0077D02*
X00765Y00835D01*
X0024Y0048D02*
X00255Y00495D01*
X01535Y0042D02*
X0159Y00475D01*
X007Y0077D02*
X00754Y00824D01*
X007Y00533D02*
Y0054D01*
Y00769*
X0067Y00475D02*
X00677Y00467D01*
X0069Y00455*
X00975Y00735D02*
X01065Y00825D01*
X00966Y00726D02*
X00975Y00735D01*
X00625Y0071D02*
Y0084D01*
X0055Y0054D02*
Y0071D01*
X01737Y00462D02*
X0192Y0028D01*
X01718Y00481D02*
X01737Y00462D01*
X01592Y01695D02*
X01594Y01693D01*
X01525Y01695D02*
X01592D01*
X01525Y0135D02*
Y01695D01*
X01504Y01329D02*
X01525Y0135D01*
X0153Y0071D02*
Y0077D01*
X01504Y01308D02*
X0162Y01193D01*
X01474Y00775D02*
X01524D01*
X0138Y00712D02*
X01474D01*
X0137D02*
X0138D01*
X01015Y0071D02*
X0138D01*
X01015Y00595D02*
Y0064D01*
Y0071*
X01477D02*
X0153D01*
X0208Y0048D02*
X0209Y0049D01*
X01805Y00838D02*
X02075Y0084D01*
X01432Y01329D02*
X01504D01*
Y0131D02*
Y01329D01*
X01718Y01693D02*
X0172Y01695D01*
X0162Y01126D02*
X01675Y01181D01*
Y01345*
X0162Y014D02*
X01675Y01345D01*
X01432Y0131D02*
X01504D01*
X002Y0048D02*
X0024D01*
X0174Y0028D02*
Y0036D01*
X01687Y00412D02*
X0174Y0036D01*
X01687Y00412D02*
Y00594D01*
X01718Y00481D02*
Y00594D01*
X02Y0067D02*
X0204Y0071D01*
X0055Y00834D02*
Y0086D01*
X0046Y0059D02*
Y00633D01*
X0047Y00505D02*
X0048D01*
X0055Y00911D02*
Y00936D01*
X00447Y0048D02*
X00448Y00478D01*
Y00427D02*
X00771D01*
X01028*
X00769Y00885D02*
Y00911D01*
X0102Y00538D02*
Y00575D01*
Y00538D02*
X01028Y00529D01*
Y00503D02*
X01071D01*
X01624Y00475D02*
X01625Y00475D01*
X01624Y00475D02*
Y00594D01*
X00769Y00808D02*
Y00834D01*
X00905Y0048D02*
X01027D01*
X00769Y00936D02*
X00858D01*
X0055Y0086D02*
X00605D01*
X00625Y0084*
X00191Y00427D02*
X00448D01*
X003Y0048D02*
X00447D01*
X00285Y00495D02*
X003Y0048D01*
X00354Y00885D02*
X0055D01*
X00363Y00911D02*
X0055D01*
X00217Y00982D02*
X00292D01*
X00363Y00911*
X00275Y00964D02*
X00354Y00885D01*
X00224Y00964D02*
X00275D01*
X0015Y00889D02*
X00224Y00964D01*
X00255Y00501D02*
Y0067D01*
X0015Y00775D02*
Y00889D01*
Y00775D02*
X00255Y0067D01*
X00125Y00505D02*
X0019D01*
X00125D02*
Y00889D01*
X00217Y00982*
X00423Y00808D02*
X0055D01*
X00285Y00495D02*
Y0067D01*
X00423Y00808*
X01469Y00875D02*
X01474Y0087D01*
X00127Y00452D02*
X00191D01*
X00105Y00475D02*
X00127Y00452D01*
X00105Y00475D02*
Y00895D01*
X0021Y01*
X0087*
X01019Y0085*
X0046Y0054D02*
Y0059D01*
X00448Y00529D02*
X0046Y0054D01*
X00448Y00452D02*
X00552D01*
X00575Y00475*
X006*
X00771Y00478D02*
X00772Y0048D01*
X00813*
X00768Y00455D02*
X00771Y00452D01*
X0069Y00455D02*
X00768D01*
X00448Y00503D02*
X00513D01*
X0055Y0054*
Y0071D02*
X00625D01*
X0156Y00593D02*
X01561Y00594D01*
X01399D02*
X01529D01*
X0153Y0071D02*
X01558Y00681D01*
X01805*
X01485Y00475D02*
X0156Y0055D01*
Y00593*
X0159Y00475D02*
X01624D01*
X00765Y00509D02*
X00771Y00503D01*
X00723Y00509D02*
X00765D01*
X007Y00533D02*
X00723Y00509D01*
X00765Y00834D02*
X00769D01*
X0155Y004D02*
X01602Y00452D01*
X01657*
Y00592*
X01655Y00594D02*
X01657Y00592D01*
X01028Y00452D02*
X01031Y00455D01*
X01592Y00517D02*
Y00594D01*
X01513Y00438D02*
X01592Y00517D01*
X01456Y00438D02*
X01513D01*
X01435Y0046D02*
X01456Y00438D01*
X01435Y0046D02*
Y0053D01*
X01444Y0042D02*
X01535D01*
X0143Y004D02*
X0155D01*
X01805Y00681D02*
X01833D01*
X0186Y00655*
X02Y00635D02*
Y00655D01*
Y0067*
X01942Y00744D02*
X0196Y00726D01*
X01805Y00744D02*
X01942D01*
X02076Y00838D02*
X021Y00815D01*
Y0049D02*
Y00815D01*
X01015Y00595D02*
X0102Y0059D01*
X01524Y00775D02*
X0153Y0077D01*
X01318Y00838D02*
X01474D01*
X01315Y0087D02*
X01474D01*
X0093Y00505D02*
X01027D01*
X00769Y00885D02*
X00914D01*
X0093Y0087*
X00813Y0048D02*
X00838Y00505D01*
X00769Y00783D02*
X00772Y0078D01*
X00838Y00505D02*
Y00766D01*
X00825Y0078D02*
X00838Y00766D01*
X00772Y0078D02*
X00825D01*
X00905Y0048D02*
Y0086D01*
X00769D02*
X00905D01*
X0093Y00505D02*
Y0087D01*
X0162Y01126D02*
X01624Y01122D01*
Y00925D02*
Y01122D01*
X00527Y0096D02*
X0055Y00936D01*
X00465Y0096D02*
X00527D01*
X01594Y01693D02*
X01718D01*
X01305Y00825D02*
X01318Y00838D01*
X0129Y00845D02*
X01315Y0087D01*
X01065Y00825D02*
X01305D01*
X01021Y00845D02*
X0129D01*
X00925Y01265D02*
X00998D01*
G54D28*
X019Y01955D02*
Y0215D01*
Y02255*
X00915Y01975D02*
X012D01*
X00715Y02175D02*
X00915Y01975D01*
X002Y01935D02*
X0036D01*
X0034Y0203D02*
Y0224D01*
Y0203D02*
X0036Y0201D01*
X002Y0238D02*
X0034Y0224D01*
X0036Y01935D02*
Y0201D01*
X0126Y018D02*
X01745D01*
X019Y01955*
G54D29*
X019Y0215D02*
X0205D01*
Y0225D02*
X021Y023D01*
X01905Y0225D02*
X0205D01*
X019Y02255D02*
X01905Y0225D01*
X0205Y0215D02*
X021Y022D01*
X019Y02255D02*
Y0233D01*
Y02425*
X001Y00401D02*
X00191D01*
X007Y00095D02*
Y0037D01*
X001Y00401D02*
X00191D01*
X01871Y02453D02*
X019Y02425D01*
X0116Y0006D02*
Y0035D01*
X01125Y00025D02*
X0116Y0006D01*
X01075Y00025D02*
X01125D01*
X01Y001D02*
X01075Y00025D01*
X004Y00055D02*
Y001D01*
Y00055D02*
X0042Y00035D01*
X0056*
X006Y00075*
X0178Y02453D02*
X01871D01*
X0036Y01733D02*
Y01824D01*
X0028Y01653D02*
X0036Y01733D01*
X0012Y01653D02*
X0028D01*
X011Y001D02*
Y00352D01*
X00771Y0035D02*
X00772D01*
Y00128D02*
Y0035D01*
Y00128D02*
X008Y001D01*
X005D02*
X00547Y00147D01*
X00191Y0035D02*
X002D01*
X0114Y01797D02*
X01257D01*
X00448Y00401D02*
X00553D01*
X001Y001D02*
Y00336D01*
X002Y001D02*
Y0035D01*
X01028Y00401D02*
X01108D01*
X0116Y0035*
X00506Y00376D02*
X00547Y00336D01*
Y00147D02*
Y00336D01*
X00553Y00401D02*
X006Y00355D01*
Y00075D02*
Y00355D01*
X0007Y004D02*
X001D01*
G54D30*
X02Y023D02*
Y0241D01*
X0193Y0248D02*
X02Y0241D01*
X0189Y0252D02*
X0193Y0248D01*
X01835Y01955D02*
Y0239D01*
X01585Y0175D02*
X01605Y0173D01*
X0125Y0175D02*
X01585D01*
X01225Y01325D02*
Y0155D01*
Y01325D02*
X01239Y0131D01*
X012Y01575D02*
X01225Y0155D01*
X012Y01575D02*
Y017D01*
X0125Y0175*
X01239Y0131D02*
X01327D01*
X0168Y01875D02*
X01755D01*
X01835Y01955*
G54D31*
X021Y02295D02*
Y023D01*
X0138Y00175D02*
X0156D01*
X0174*
X0192*
X0138D02*
X0156D01*
X0174*
X0192*
X00773Y01058D02*
X00921Y01206D01*
X00065Y00985D02*
X00138Y01058D01*
X0174Y00175D02*
X0192D01*
X0156D02*
X0174D01*
X0138D02*
X0156D01*
X0172Y016D02*
X0185D01*
X00184Y01935D02*
X002D01*
X0172Y016D02*
Y01695D01*
Y01775*
X00138Y01058D02*
X00773D01*
X0185Y01205D02*
Y016D01*
X00976Y01525D02*
Y01725D01*
X00921Y01206D02*
Y0147D01*
X00065Y004D02*
Y0088D01*
Y00985*
X00921Y0147D02*
X00976Y01525D01*
G54D32*
X00715Y02275D02*
X0076D01*
X00715D02*
X0076D01*
X00715D02*
X0076D01*
X00715D02*
X0076D01*
X00715D02*
X0076D01*
X00715D02*
X0076D01*
X00715D02*
X0076D01*
X00715D02*
X0076D01*
X0012Y01146D02*
X002D01*
X0012D02*
X002D01*
X0012D02*
X002D01*
X0012D02*
X002D01*
X0012D02*
X002D01*
X0012D02*
X002D01*
X00282*
X002D02*
X00282D01*
X002D02*
X00282D01*
X002D02*
X00282D01*
X002D02*
X00282D01*
X002D02*
X00282D01*
X00745Y01395D02*
Y0145D01*
Y01395D02*
Y0145D01*
Y01395D02*
Y0145D01*
Y01395D02*
Y0145D01*
Y01395D02*
Y0145D01*
Y01395D02*
Y0145D01*
Y01455*
Y0145D02*
Y01455D01*
Y0145D02*
Y01455D01*
Y0145D02*
Y01455D01*
Y0145D02*
Y01455D01*
Y0145D02*
Y01455D01*
X0012Y01146D02*
X00282D01*
X002D02*
X00282D01*
X0012D02*
X002D01*
X00745Y01395D02*
Y0145D01*
Y01395D02*
Y01455D01*
Y0145D02*
Y01455D01*
X01125Y0228D02*
X01231Y02386D01*
X01125Y0228D02*
X01231Y02386D01*
X01125Y0228D02*
X01231Y02386D01*
X01125Y0228D02*
X01231Y02386D01*
X01125Y0228D02*
X01231Y02386D01*
X01125Y0228D02*
X01231Y02386D01*
X01125Y0228D02*
X01231Y02386D01*
X01125Y0228D02*
X01231Y02386D01*
X0168Y01975D02*
X0169Y01985D01*
X0168Y01975D02*
X0169Y01985D01*
X0168Y01975D02*
X0169Y01985D01*
X0168Y01975D02*
X0169Y01985D01*
X0168Y01975D02*
X0169Y01985D01*
X0168Y01975D02*
X0169Y01985D01*
X01695Y0199*
X0169Y01985D02*
X01695Y0199D01*
X0169Y01985D02*
X01695Y0199D01*
X0169Y01985D02*
X01695Y0199D01*
X0169Y01985D02*
X01695Y0199D01*
X0169Y01985D02*
X01695Y0199D01*
X0168Y01975D02*
X01695Y0199D01*
X0168Y01975D02*
X0169Y01985D01*
X01695Y0199*
X0028Y01505D02*
X00463D01*
X0028D02*
X00463D01*
X0028D02*
X00463D01*
X0028D02*
X00463D01*
X0028D02*
X00463D01*
X0028D02*
X00463D01*
X0028D02*
X00463D01*
X0028D02*
X00463D01*
X0028D02*
X00463D01*
X0169Y01985D02*
X01695Y0199D01*
X0168Y01975D02*
X0169Y01985D01*
X01135Y0229D02*
X01231Y02386D01*
X01125Y0228D02*
X01135Y0229D01*
X00745Y0145D02*
Y01455D01*
Y01395D02*
Y0145D01*
X0012Y01146D02*
X002D01*
X00282*
X00715Y02275D02*
X0076D01*
X005Y01817D02*
Y0212D01*
X01358Y02275D02*
Y02395D01*
X013Y02453D02*
X01358Y02395D01*
X01646Y0212D02*
X01773D01*
X0178Y02113*
X01641Y02125D02*
X01646Y0212D01*
X01231Y02386D02*
X013D01*
X016Y01973D02*
X01601Y01975D01*
X0168*
X01725Y02175D02*
X01735D01*
X01641D02*
X01725D01*
X0178Y0212D02*
Y02366D01*
X0176Y02386D02*
X0178Y02366D01*
X01593Y01905D02*
X01595Y01906D01*
X016*
X015D02*
X01595D01*
X0155Y0246D02*
Y0248D01*
X01641Y02275D02*
Y02344D01*
X016Y02386D02*
X01641Y02344D01*
Y02225D02*
X01675D01*
X017Y0225*
Y02495*
X0169Y02505D02*
X017Y02495D01*
X01575Y02505D02*
X0169D01*
X0155Y0248D02*
X01575Y02505D01*
X0148Y0239D02*
X0155Y0246D01*
X0148Y02386D02*
Y0239D01*
X00282Y01146D02*
X00298Y01162D01*
X0082Y01573D02*
X00861D01*
X00875Y0156*
Y01388D02*
Y0156D01*
X0082Y01333D02*
X00875Y01388D01*
X00656Y01455D02*
X00745D01*
X0035Y01555D02*
X00463D01*
X0035Y0135D02*
Y0139D01*
Y0135D02*
X00375Y01325D01*
X00469*
X00556Y01237*
X00575Y01666D02*
X0064D01*
X00463Y01555D02*
X00575Y01666D01*
X00463Y01505D02*
X0052D01*
X00783Y01631D02*
Y01725D01*
Y01631D02*
X0082Y01595D01*
Y01573D02*
Y01595D01*
X00753Y012D02*
X0082Y01266D01*
X0028Y01256D02*
X00298Y01237D01*
X0028Y01256D02*
Y0139D01*
Y0151D02*
Y01586D01*
Y01505D02*
Y0151D01*
Y01455D02*
X00463D01*
X00258Y01433D02*
X0028Y01455D01*
X0012Y01433D02*
X00258D01*
X0012Y01215D02*
Y01366D01*
Y01433D02*
Y01586D01*
X01605Y0173D02*
X0161D01*
X01625*
X00502Y01162D02*
X00556D01*
X0045Y0111D02*
X00502Y01162D01*
X00298Y01136D02*
Y01162D01*
Y01136D02*
X00325Y0111D01*
X0045*
X00643Y012D02*
X00753D01*
X00675Y01325D02*
X00745Y01395D01*
X00463Y01405D02*
X00543Y01325D01*
X00675*
X0062Y01405D02*
X00656D01*
X0052Y01505D02*
X0062Y01405D01*
G54D33*
X01175Y01495D02*
Y015D01*
G54D34*
X0138Y02055D02*
X0146D01*
X0138D02*
X0146D01*
X0138D02*
X0146D01*
X0138D02*
X0146D01*
X0138D02*
X0146D01*
X0138D02*
X0146D01*
X01473*
X0146D02*
X01473D01*
Y0206*
Y02055D02*
Y0206D01*
Y02055D02*
Y0206D01*
Y02055D02*
Y0206D01*
Y02055D02*
Y0206D01*
Y02055D02*
Y0206D01*
X0146Y02055D02*
X01473D01*
X0146D02*
X01473D01*
X0146D02*
X01473D01*
Y0206D02*
Y022D01*
X0146Y02055D02*
X01473D01*
Y0206D02*
Y022D01*
Y0206D02*
Y022D01*
Y0206D02*
Y022D01*
Y0206D02*
Y022D01*
Y0206D02*
Y022D01*
X0138Y02055D02*
X01473D01*
X0138D02*
X0146D01*
X01473D02*
Y022D01*
Y02055D02*
Y0206D01*
X0146Y02055D02*
X01473D01*
Y0206D02*
Y022D01*
X00976Y01775D02*
Y01825D01*
Y01775D02*
Y01825D01*
Y01875*
Y01825D02*
Y01875D01*
Y01825D02*
Y01875D01*
Y01775D02*
Y01825D01*
Y01775D02*
Y01825D01*
Y01775D02*
Y01825D01*
Y01875*
Y01825D02*
Y01875D01*
Y01825D02*
Y01875D01*
Y01825D02*
Y01875D01*
Y01775D02*
Y01825D01*
Y01775D02*
Y01825D01*
X01012Y01875D02*
Y01896D01*
Y01875D02*
Y01896D01*
Y01875D02*
Y01896D01*
Y01875D02*
Y01896D01*
Y01875D02*
Y01896D01*
Y01875D02*
Y01896D01*
Y01875D02*
Y01896D01*
X01299Y02236D02*
Y02315D01*
Y02236D02*
Y02315D01*
Y02236D02*
Y02315D01*
Y02236D02*
Y02315D01*
Y02236D02*
Y02315D01*
Y02236D02*
Y02315D01*
Y02236D02*
Y02315D01*
X00976Y01825D02*
Y01875D01*
Y01775D02*
Y01825D01*
X01012Y01875D02*
Y01896D01*
X01299Y02236D02*
Y02315D01*
Y02236D02*
Y02315D01*
X01012Y01875D02*
Y01896D01*
X00976Y01775D02*
Y01825D01*
Y01875*
X01573Y02046D02*
X0178D01*
X01473Y0206D02*
Y022D01*
Y02055D02*
Y0206D01*
X0146Y02055D02*
X01473D01*
X0138D02*
X0146D01*
X0114Y01578D02*
Y01722D01*
Y01578D02*
X01175Y01543D01*
X01398Y02125D02*
X01473Y022D01*
X01358Y02125D02*
X01398D01*
X01473Y01999D02*
X015Y01973D01*
X01473Y01999D02*
Y02055D01*
X01299Y01906D02*
X0138D01*
Y02055D02*
Y02103D01*
X01358Y02125D02*
X0138Y02103D01*
X01478Y0206D02*
X01565D01*
X0138Y01973D02*
Y02055D01*
X015Y02226D02*
X0155Y02276D01*
X01594Y02453D02*
X016D01*
X01299Y01906D02*
Y02066D01*
X01265Y021D02*
X01299Y02066D01*
X0123Y02175D02*
X01358D01*
X01125Y0228D02*
X0123Y02175D01*
X014Y02445D02*
X01414D01*
X01422Y02453*
X0148*
X01022Y01906D02*
X01299D01*
X00976Y01725D02*
X00976D01*
X00976Y01825D02*
X00976D01*
X00976Y01775D02*
X00976D01*
X00976Y01875D02*
X00976D01*
X01012*
Y01896D02*
X01022Y01906D01*
X0131Y02225D02*
X01358D01*
X01299Y02236D02*
X0131Y02225D01*
X00976Y01725D02*
Y01775D01*
G54D35*
X0063Y01742D02*
X00713Y01825D01*
X0063Y01742D02*
X00713Y01825D01*
X0063Y01742D02*
X00713Y01825D01*
X0063Y01742D02*
X00713Y01825D01*
X0063Y01742D02*
X00713Y01825D01*
X0063Y01742D02*
X00713Y01825D01*
X0063Y01742D02*
X00713Y01825D01*
X00733D02*
X00758Y0185D01*
X00733Y01825D02*
X00758Y0185D01*
X00733Y01825D02*
X00758Y018D01*
X00733Y01825D02*
X00758Y018D01*
X00733Y01825D02*
X00758Y018D01*
X00783Y01775*
X00758Y018D02*
X00783Y01775D01*
X00758Y018D02*
X00783Y01775D01*
X00733Y01825D02*
X00758Y018D01*
X00733Y01825D02*
X00758Y018D01*
X00733Y01825D02*
X00758Y018D01*
X00733Y01825D02*
X00758Y018D01*
X00783Y01775*
X00758Y018D02*
X00783Y01775D01*
X00758Y018D02*
X00783Y01775D01*
X00758Y018D02*
X00783Y01775D01*
X00758Y018D02*
X00783Y01775D01*
X00733Y01825D02*
X00758Y0185D01*
X00733Y01825D02*
X00758Y0185D01*
X00733Y01825D02*
X00758Y018D01*
X00733Y01825D02*
X00758Y0185D01*
X00733Y01825D02*
X00758Y0185D01*
X00733Y01825D02*
X00758Y0185D01*
X00783Y01875*
X00758Y0185D02*
X00783Y01875D01*
X00758Y0185D02*
X00783Y01875D01*
X00758Y0185D02*
X00783Y01875D01*
X00758Y0185D02*
X00783Y01875D01*
X00758Y0185D02*
X00783Y01875D01*
X00758Y0185D02*
X00783Y01875D01*
X0063Y01742D02*
X00713Y01825D01*
X00758Y018D02*
X00783Y01775D01*
X00733Y01825D02*
X00758Y018D01*
X00733Y01825D02*
X00758Y0185D01*
X00783Y01875*
X00758Y0185D02*
X00783Y01875D01*
X00758Y018D02*
X00783Y01775D01*
X00733Y01825D02*
X00758Y018D01*
X00733Y01825D02*
X00758Y0185D01*
X005Y01742D02*
X0063D01*
X00713Y01825*
X00715Y02175D02*
Y02275D01*
Y02295*
X0012Y01824D02*
X002D01*
X00065Y0188D02*
X0012Y01824D01*
X00065Y0188D02*
Y02445D01*
X0036Y025D02*
X0048Y0238D01*
X00065Y02445D02*
X0012Y025D01*
X0036*
X00445Y01745D02*
X00482D01*
X005Y01742*
X0036Y01824D02*
X00365D01*
X00445Y01745*
X00713Y01825D02*
X00733D01*
X00189Y01835D02*
X002Y01824D01*
G54D36*
X0064Y01733D02*
X00643Y0173D01*
X00745Y01555D02*
X00793Y01506D01*
X0082*
X00701Y00376D02*
X00771D01*
X00448D02*
X00506D01*
X001Y00336D02*
X0014Y00376D01*
X00191*
X00646Y00401D02*
X00771D01*
Y00529D02*
Y00688D01*
X007Y01598D02*
Y0171D01*
X00643Y0173D02*
X0068D01*
X007Y0171*
X00656Y01555D02*
X00745D01*
X00656D02*
X007Y01598D01*
X01028Y00376D02*
X01075D01*
X011Y00352*
G54D37*
X021Y011D03*
X02D03*
X021Y012D03*
X02D03*
X021Y013D03*
X02D03*
X021Y014D03*
X02D03*
X021Y015D03*
X02D03*
X021Y016D03*
X02D03*
X021Y017D03*
X02D03*
X021Y018D03*
X02D03*
X021Y019D03*
X02D03*
X021Y02D03*
X02D03*
X021Y021D03*
X02D03*
X021Y022D03*
X02D03*
X021Y023D03*
X0138Y0008D03*
Y0018D03*
X0174Y0008D03*
Y0018D03*
X0192Y0008D03*
Y0018D03*
X0156Y0008D03*
Y0018D03*
X0172Y014D03*
X0162D03*
X0172Y015D03*
X0162D03*
X0172Y016D03*
X011Y001D03*
X008D03*
X005D03*
X002D03*
X0208Y0038D03*
Y0028D03*
Y0018D03*
Y0008D03*
G54D38*
X02Y023D03*
X0138Y0028D03*
X0174D03*
X0192D03*
X0156D03*
X0162Y016D03*
X0208Y0048D03*
G54D39*
X01178Y0152D03*
X00258Y0088D03*
G54D40*
X00981Y0152D03*
X00061Y0088D03*
G54D41*
X0112Y009D03*
Y01092D03*
G54D42*
X01Y001D03*
X007D03*
X004D03*
X001D03*
G54D43*
X002Y0238D03*
Y0214D03*
X0048Y0238D03*
Y0214D03*
G54D44*
X01835Y0239D03*
X02Y00635D03*
X0185Y016D03*
X014Y02445D03*
X0161Y0173D03*
X01725Y02175D03*
X01565Y0206D03*
X0146D03*
X01205Y01965D03*
X01265Y021D03*
X01695Y0198D03*
X0168Y01875D03*
X01885Y02515D03*
X002Y01145D03*
X0077Y0145D03*
X0035Y01555D03*
Y0139D03*
X0028D03*
Y0151D03*
X0126Y018D03*
X00645Y00375D03*
X01285Y02315D03*
X0138Y0071D03*
X0086Y0095D03*
X0046Y0059D03*
X0097Y0074D03*
X00625Y0071D03*
X0017Y0068D03*
X001Y004D03*
X0103Y0029D03*
X00455Y00295D03*
X0077Y0069D03*
X006Y00475D03*
X0068Y0047D03*
X01485Y00475D03*
X01435Y0053D03*
X0102Y006D03*
X01395Y0059D03*
X00685Y0054D03*
X00475Y0072D03*
X0194Y00895D03*
X01825Y01055D03*
X01645Y00405D03*
X0188Y007D03*
X0187Y00455D03*
X0178Y01D03*
X0132Y0104D03*
X0122Y00625D03*
X0115Y0059D03*
X01295Y00665D03*
X01845Y0052D03*
X01735Y0046D03*
X01775Y0052D03*
X0123Y00755D03*
X0165Y00815D03*
X0137Y00915D03*
X01385Y0123D03*
X01225Y0126D03*
X01435Y01125D03*
X01495Y0108D03*
X00465Y0096D03*
X0141Y01025D03*
X0185Y01205D03*
X01565Y0132D03*
X0141Y01425D03*
X0148D03*
X01855Y0168D03*
Y01755D03*
X0125Y016D03*
X0092Y01025D03*
X01005Y01145D03*
M02*