%FSTAX23Y23*%
%MOIN*%
%SFA1B1*%

%IPPOS*%
%ADD10R,0.039370X0.043310*%
%ADD11R,0.157480X0.393700*%
%ADD12R,0.070870X0.062990*%
%ADD13O,0.021650X0.064960*%
%ADD14O,0.064960X0.021650*%
%ADD15R,0.084650X0.015750*%
%ADD16R,0.084650X0.015750*%
%ADD17R,0.043310X0.039370*%
%ADD18R,0.064960X0.011810*%
%ADD19R,0.059060X0.051180*%
%ADD20O,0.049210X0.011810*%
%ADD21O,0.098430X0.027560*%
%ADD22R,0.062990X0.023620*%
%ADD23O,0.070870X0.023620*%
%ADD24R,0.165350X0.165350*%
%ADD25R,0.051180X0.023620*%
%LNrazbot_v02-1*%
%LPD*%
G54D10*
X0198Y00793D03*
Y00726D03*
X0206Y00793D03*
Y00726D03*
X0116Y01333D03*
Y01266D03*
X0126Y01086D03*
Y01153D03*
X0064Y01666D03*
Y01733D03*
X0176Y02386D03*
Y02453D03*
X016D03*
Y02386D03*
X013D03*
Y02453D03*
X0148Y02386D03*
Y02453D03*
X0138Y01973D03*
Y01906D03*
X0082Y01266D03*
Y01333D03*
Y01573D03*
Y01506D03*
X0028Y01653D03*
Y01586D03*
X015Y01906D03*
Y01973D03*
X016Y01906D03*
Y01973D03*
X0178Y02113D03*
Y02046D03*
X0012Y01146D03*
Y01213D03*
Y01366D03*
Y01433D03*
Y01586D03*
Y01653D03*
X0162Y01126D03*
Y01193D03*
X0126Y00886D03*
Y00953D03*
X01Y01333D03*
Y01266D03*
X0108Y01333D03*
Y01266D03*
G54D11*
X01125Y023D03*
X00715Y02295D03*
G54D12*
X002Y01824D03*
Y01935D03*
X0036D03*
Y01824D03*
G54D13*
X01529Y00925D03*
X01561D03*
X01592D03*
X01624D03*
X01655D03*
X01687D03*
X01718D03*
X0175D03*
Y00594D03*
X01718D03*
X01687D03*
X01655D03*
X01624D03*
X01592D03*
X01561D03*
X01529D03*
G54D14*
X01805Y0087D03*
Y00838D03*
Y00807D03*
Y00775D03*
Y00744D03*
Y00712D03*
Y00681D03*
Y00649D03*
X01474D03*
Y00681D03*
Y00712D03*
Y00744D03*
Y00775D03*
Y00807D03*
Y00838D03*
Y0087D03*
G54D15*
X01028Y0035D03*
Y00376D03*
Y00401D03*
Y00427D03*
Y00452D03*
Y00478D03*
Y00503D03*
Y00529D03*
X00771Y0035D03*
Y00376D03*
Y00401D03*
Y00427D03*
Y00452D03*
Y00478D03*
Y00503D03*
X00448Y0035D03*
Y00376D03*
Y00401D03*
Y00427D03*
Y00452D03*
Y00478D03*
Y00503D03*
Y00529D03*
X00191Y0035D03*
Y00376D03*
Y00401D03*
Y00427D03*
Y00452D03*
Y00478D03*
Y00503D03*
G54D16*
X00771Y00529D03*
X00191D03*
G54D17*
X01026Y0066D03*
X01093D03*
X00453Y0064D03*
X00386D03*
G54D18*
X00769Y00783D03*
Y00808D03*
Y00834D03*
Y0086D03*
Y00885D03*
Y00911D03*
Y00936D03*
X0055Y00783D03*
Y00808D03*
Y00834D03*
Y0086D03*
Y00885D03*
Y00911D03*
Y00936D03*
G54D19*
X0114Y01722D03*
Y01797D03*
X005Y01817D03*
Y01742D03*
G54D20*
X01327Y01349D03*
Y01329D03*
Y0131D03*
Y0129D03*
X01432Y01349D03*
Y01329D03*
Y0131D03*
Y0129D03*
G54D21*
X00463Y01555D03*
Y01505D03*
Y01455D03*
Y01405D03*
X00656Y01555D03*
Y01505D03*
Y01455D03*
Y01405D03*
X00783Y01875D03*
Y01825D03*
Y01775D03*
Y01725D03*
X00976Y01875D03*
Y01825D03*
Y01775D03*
Y01725D03*
G54D22*
X00556Y01237D03*
Y01162D03*
X00643Y012D03*
G54D23*
X01641Y02125D03*
Y02175D03*
Y02225D03*
Y02275D03*
X01358Y02125D03*
Y02175D03*
Y02225D03*
Y02275D03*
G54D24*
X015Y022D03*
G54D25*
X00298Y01237D03*
Y01162D03*
X00381Y012D03*
M02*