%FSTAX23Y23*%
%MOIN*%
%SFA1B1*%

%IPPOS*%
%ADD72C,0.003940*%
%LNrazbot_v02-1*%
%LPD*%
G54D72*
X0164Y0074D02*
Y00779D01*
X0162Y0076D02*
X01659D01*
X01433Y00553D02*
X01846D01*
X01433Y00966D02*
X01846D01*
Y00553D02*
Y00966D01*
X01433Y00553D02*
Y00966D01*
X01293Y01268D02*
Y01371D01*
X01466Y01268D02*
Y01371D01*
X01293D02*
X01466D01*
X01293Y01268D02*
X01466D01*
X0136Y0132D02*
X01399D01*
X0138Y013D02*
Y01339D01*
X00394Y01361D02*
Y01598D01*
X00725Y01361D02*
Y01598D01*
X00394D02*
X00725D01*
X00394Y01361D02*
X00725D01*
X0054Y0148D02*
X00579D01*
X0056Y0146D02*
Y01499D01*
X00714Y01681D02*
Y01918D01*
X01045Y01681D02*
Y01918D01*
X00714D02*
X01045D01*
X00714Y01681D02*
X01045D01*
X0086Y018D02*
X00899D01*
X0088Y0178D02*
Y01819D01*
X00505Y01121D02*
Y01278D01*
X00694Y01121D02*
Y01278D01*
X00505D02*
X00694D01*
X00505Y01121D02*
X00694D01*
X0058Y012D02*
X00619D01*
X006Y0118D02*
Y01219D01*
X015Y0218D02*
Y02219D01*
X0148Y022D02*
X01519D01*
X01312Y02099D02*
X01687D01*
X01312Y023D02*
X01687D01*
Y02099D02*
Y023D01*
X01312Y02099D02*
Y023D01*
X00263Y01131D02*
Y01268D01*
X00416Y01131D02*
Y01268D01*
X00263D02*
X00416D01*
X00263Y01131D02*
X00416D01*
X0032Y012D02*
X00359D01*
X0034Y0118D02*
Y01219D01*
M02*