%FSTAX23Y23*%
%MOIN*%
%SFA1B1*%

%IPPOS*%
%ADD34C,0.010000*%
%ADD37C,0.003940*%
%LNrazbot_v02-1*%
%LPD*%
G54D34*
X0Y0D02*
Y02555D01*
X0216*
Y0D02*
Y02555D01*
X0Y0D02*
X0216D01*
X0D02*
Y02555D01*
X0216*
Y0D02*
Y02555D01*
X0Y0D02*
X0216D01*
G54D37*
X01472Y02254D02*
D01*
X01472Y02255*
X01471Y02257*
X01471Y02258*
X01471Y02259*
X0147Y02261*
X0147Y02262*
X01469Y02263*
X01469Y02264*
X01468Y02266*
X01467Y02267*
X01466Y02268*
X01465Y02269*
X01464Y0227*
X01463Y0227*
X01462Y02271*
X0146Y02272*
X01459Y02272*
X01458Y02273*
X01457Y02273*
X01455Y02273*
X01454Y02274*
X01453Y02274*
X01451*
X0145Y02274*
X01448Y02273*
X01447Y02273*
X01446Y02273*
X01444Y02272*
X01443Y02272*
X01442Y02271*
X01441Y0227*
X0144Y0227*
X01439Y02269*
X01438Y02268*
X01437Y02267*
X01436Y02266*
X01435Y02264*
X01434Y02263*
X01434Y02262*
X01433Y02261*
X01433Y02259*
X01433Y02258*
X01432Y02257*
X01432Y02255*
X01432Y02254*
X01432Y02253*
X01432Y02251*
X01433Y0225*
X01433Y02249*
X01433Y02247*
X01434Y02246*
X01434Y02245*
X01435Y02244*
X01436Y02242*
X01437Y02241*
X01438Y0224*
X01439Y02239*
X0144Y02239*
X01441Y02238*
X01442Y02237*
X01443Y02236*
X01444Y02236*
X01446Y02235*
X01447Y02235*
X01448Y02235*
X0145Y02234*
X01451Y02234*
X01453*
X01454Y02234*
X01455Y02235*
X01457Y02235*
X01458Y02235*
X01459Y02236*
X0146Y02236*
X01462Y02237*
X01463Y02238*
X01464Y02239*
X01465Y02239*
X01466Y0224*
X01467Y02241*
X01468Y02242*
X01469Y02244*
X01469Y02245*
X0147Y02246*
X0147Y02247*
X01471Y02249*
X01471Y0225*
X01471Y02251*
X01472Y02253*
X01472Y02254*
X00856Y01862D02*
D01*
X00856Y01864*
X00856Y01865*
X00855Y01867*
X00855Y01868*
X00855Y01869*
X00854Y0187*
X00854Y01872*
X00853Y01873*
X00852Y01874*
X00851Y01875*
X0085Y01876*
X00849Y01877*
X00848Y01878*
X00847Y01879*
X00846Y0188*
X00845Y0188*
X00844Y01881*
X00842Y01881*
X00841Y01882*
X0084Y01882*
X00838Y01882*
X00837Y01882*
X00836*
X00834Y01882*
X00833Y01882*
X00831Y01882*
X0083Y01881*
X00829Y01881*
X00828Y0188*
X00826Y0188*
X00825Y01879*
X00824Y01878*
X00823Y01877*
X00822Y01876*
X00821Y01875*
X0082Y01874*
X00819Y01873*
X00819Y01872*
X00818Y0187*
X00818Y01869*
X00817Y01868*
X00817Y01867*
X00817Y01865*
X00817Y01864*
X00817Y01862*
X00817Y01861*
X00817Y0186*
X00817Y01858*
X00817Y01857*
X00818Y01856*
X00818Y01854*
X00819Y01853*
X00819Y01852*
X0082Y01851*
X00821Y0185*
X00822Y01849*
X00823Y01848*
X00824Y01847*
X00825Y01846*
X00826Y01845*
X00828Y01845*
X00829Y01844*
X0083Y01844*
X00831Y01843*
X00833Y01843*
X00834Y01843*
X00836Y01843*
X00837*
X00838Y01843*
X0084Y01843*
X00841Y01843*
X00842Y01844*
X00844Y01844*
X00845Y01845*
X00846Y01845*
X00847Y01846*
X00848Y01847*
X00849Y01848*
X0085Y01849*
X00851Y0185*
X00852Y01851*
X00853Y01852*
X00854Y01853*
X00854Y01854*
X00855Y01856*
X00855Y01857*
X00855Y01858*
X00856Y0186*
X00856Y01861*
X00856Y01862*
X00536Y01542D02*
D01*
X00536Y01544*
X00536Y01545*
X00535Y01547*
X00535Y01548*
X00535Y01549*
X00534Y0155*
X00534Y01552*
X00533Y01553*
X00532Y01554*
X00531Y01555*
X0053Y01556*
X00529Y01557*
X00528Y01558*
X00527Y01559*
X00526Y0156*
X00525Y0156*
X00524Y01561*
X00522Y01561*
X00521Y01562*
X0052Y01562*
X00518Y01562*
X00517Y01562*
X00516*
X00514Y01562*
X00513Y01562*
X00511Y01562*
X0051Y01561*
X00509Y01561*
X00508Y0156*
X00506Y0156*
X00505Y01559*
X00504Y01558*
X00503Y01557*
X00502Y01556*
X00501Y01555*
X005Y01554*
X00499Y01553*
X00499Y01552*
X00498Y0155*
X00498Y01549*
X00497Y01548*
X00497Y01547*
X00497Y01545*
X00497Y01544*
X00497Y01542*
X00497Y01541*
X00497Y0154*
X00497Y01538*
X00497Y01537*
X00498Y01536*
X00498Y01534*
X00499Y01533*
X00499Y01532*
X005Y01531*
X00501Y0153*
X00502Y01529*
X00503Y01528*
X00504Y01527*
X00505Y01526*
X00506Y01525*
X00508Y01525*
X00509Y01524*
X0051Y01524*
X00511Y01523*
X00513Y01523*
X00514Y01523*
X00516Y01523*
X00517*
X00518Y01523*
X0052Y01523*
X00521Y01523*
X00522Y01524*
X00524Y01524*
X00525Y01525*
X00526Y01525*
X00527Y01526*
X00528Y01527*
X00529Y01528*
X0053Y01529*
X00531Y0153*
X00532Y01531*
X00533Y01532*
X00534Y01533*
X00534Y01534*
X00535Y01536*
X00535Y01537*
X00535Y01538*
X00536Y0154*
X00536Y01541*
X00536Y01542*
X01389Y01323D02*
D01*
X01389Y01325*
X01389Y01326*
X01389Y01328*
X01389Y01329*
X01388Y0133*
X01388Y01331*
X01387Y01333*
X01386Y01334*
X01386Y01335*
X01385Y01336*
X01384Y01337*
X01383Y01338*
X01382Y01339*
X01381Y0134*
X01379Y0134*
X01378Y01341*
X01377Y01342*
X01376Y01342*
X01374Y01343*
X01373Y01343*
X01372Y01343*
X0137Y01343*
X01369*
X01368Y01343*
X01366Y01343*
X01365Y01343*
X01364Y01342*
X01362Y01342*
X01361Y01341*
X0136Y0134*
X01359Y0134*
X01358Y01339*
X01356Y01338*
X01355Y01337*
X01355Y01336*
X01354Y01335*
X01353Y01334*
X01352Y01333*
X01352Y01331*
X01351Y0133*
X01351Y01329*
X0135Y01328*
X0135Y01326*
X0135Y01325*
X0135Y01323*
X0135Y01322*
X0135Y01321*
X0135Y01319*
X01351Y01318*
X01351Y01317*
X01352Y01315*
X01352Y01314*
X01353Y01313*
X01354Y01312*
X01355Y01311*
X01355Y0131*
X01356Y01309*
X01358Y01308*
X01359Y01307*
X0136Y01306*
X01361Y01306*
X01362Y01305*
X01364Y01305*
X01365Y01304*
X01366Y01304*
X01368Y01304*
X01369Y01304*
X0137*
X01372Y01304*
X01373Y01304*
X01374Y01304*
X01376Y01305*
X01377Y01305*
X01378Y01306*
X01379Y01306*
X01381Y01307*
X01382Y01308*
X01383Y01309*
X01384Y0131*
X01385Y01311*
X01386Y01312*
X01386Y01313*
X01387Y01314*
X01388Y01315*
X01388Y01317*
X01389Y01318*
X01389Y01319*
X01389Y01321*
X01389Y01322*
X01389Y01323*
X01557Y00862D02*
D01*
X01557Y00863*
X01557Y00865*
X01556Y00866*
X01556Y00867*
X01556Y00869*
X01555Y0087*
X01555Y00871*
X01554Y00872*
X01553Y00873*
X01552Y00875*
X01551Y00876*
X0155Y00876*
X01549Y00877*
X01548Y00878*
X01547Y00879*
X01546Y0088*
X01545Y0088*
X01543Y00881*
X01542Y00881*
X01541Y00881*
X01539Y00881*
X01538Y00882*
X01536*
X01535Y00881*
X01534Y00881*
X01532Y00881*
X01531Y00881*
X0153Y0088*
X01528Y0088*
X01527Y00879*
X01526Y00878*
X01525Y00877*
X01524Y00876*
X01523Y00876*
X01522Y00875*
X01521Y00873*
X0152Y00872*
X0152Y00871*
X01519Y0087*
X01519Y00869*
X01518Y00867*
X01518Y00866*
X01518Y00865*
X01517Y00863*
X01517Y00862*
X01517Y0086*
X01518Y00859*
X01518Y00858*
X01518Y00856*
X01519Y00855*
X01519Y00854*
X0152Y00853*
X0152Y00851*
X01521Y0085*
X01522Y00849*
X01523Y00848*
X01524Y00847*
X01525Y00846*
X01526Y00846*
X01527Y00845*
X01528Y00844*
X0153Y00844*
X01531Y00843*
X01532Y00843*
X01534Y00842*
X01535Y00842*
X01536Y00842*
X01538*
X01539Y00842*
X01541Y00842*
X01542Y00843*
X01543Y00843*
X01545Y00844*
X01546Y00844*
X01547Y00845*
X01548Y00846*
X01549Y00846*
X0155Y00847*
X01551Y00848*
X01552Y00849*
X01553Y0085*
X01554Y00851*
X01555Y00853*
X01555Y00854*
X01556Y00855*
X01556Y00856*
X01556Y00858*
X01557Y00859*
X01557Y0086*
X01557Y00862*
X00312Y0114D02*
X00367D01*
X00312Y01259D02*
X00367D01*
Y0114D02*
Y01259D01*
X00312Y0114D02*
Y01259D01*
X01416Y0211D02*
Y02289D01*
X01583Y0211D02*
Y02289D01*
X01416D02*
X01583D01*
X01416Y0211D02*
X01583D01*
X00572Y0114D02*
X00627D01*
X00572Y01259D02*
X00627D01*
Y0114D02*
Y01259D01*
X00572Y0114D02*
Y01259D01*
X00801Y01701D02*
X00958D01*
X00801Y01898D02*
X00958D01*
Y01701D02*
Y01898D01*
X00801Y01701D02*
Y01898D01*
X00481Y01381D02*
X00638D01*
X00481Y01578D02*
X00638D01*
Y01381D02*
Y01578D01*
X00481Y01381D02*
Y01578D01*
X01332Y01278D02*
X01427D01*
X01332Y01361D02*
X01427D01*
Y01278D02*
Y01361D01*
X01332Y01278D02*
Y01361D01*
X01502Y00622D02*
Y00897D01*
X01777Y00622D02*
Y00897D01*
X01502D02*
X01777D01*
X01502Y00622D02*
X01777D01*
M02*