%FSTAX23Y23*%
%MOIN*%
%SFA1B1*%

%IPPOS*%
%ADD34C,0.010000*%
%ADD36C,0.000000*%
%ADD37C,0.003940*%
%LNrazbot_v02-1*%
%LPD*%
G54D34*
X0Y0D02*
Y02555D01*
X0216*
Y0D02*
Y02555D01*
X0Y0D02*
X0216D01*
G54D36*
X02062Y0008D02*
X02097D01*
X0208Y00062D02*
Y00097D01*
X02062Y0018D02*
X02097D01*
X0208Y00162D02*
Y00197D01*
X02062Y0028D02*
X02097D01*
X0208Y00262D02*
Y00297D01*
X02062Y0038D02*
X02097D01*
X0208Y00362D02*
Y00397D01*
X02062Y0048D02*
X02097D01*
X0208Y00462D02*
Y00497D01*
X00441Y0214D02*
X00519D01*
X0048Y02101D02*
Y02179D01*
X00441Y0238D02*
X00519D01*
X0048Y02341D02*
Y02419D01*
X00161Y0214D02*
X00239D01*
X002Y02101D02*
Y02179D01*
X00161Y0238D02*
X00239D01*
X002Y02341D02*
Y02419D01*
X00242Y0088D02*
X00274D01*
X00258Y00864D02*
Y00895D01*
X00045Y0088D02*
X00077D01*
X00061Y00864D02*
Y00895D01*
X00182Y001D02*
X00217D01*
X002Y00082D02*
Y00117D01*
X00082Y001D02*
X00117D01*
X001Y00082D02*
Y00117D01*
X00482Y001D02*
X00517D01*
X005Y00082D02*
Y00117D01*
X00382Y001D02*
X00417D01*
X004Y00082D02*
Y00117D01*
X00782Y001D02*
X00817D01*
X008Y00082D02*
Y00117D01*
X00682Y001D02*
X00717D01*
X007Y00082D02*
Y00117D01*
X01082Y001D02*
X01117D01*
X011Y00082D02*
Y00117D01*
X00982Y001D02*
X01017D01*
X01Y00082D02*
Y00117D01*
X01602Y016D02*
X01637D01*
X0162Y01582D02*
Y01617D01*
X01702Y016D02*
X01737D01*
X0172Y01582D02*
Y01617D01*
X01602Y015D02*
X01637D01*
X0162Y01482D02*
Y01517D01*
X01702Y015D02*
X01737D01*
X0172Y01482D02*
Y01517D01*
X01602Y014D02*
X01637D01*
X0162Y01382D02*
Y01417D01*
X01702Y014D02*
X01737D01*
X0172Y01382D02*
Y01417D01*
X01102Y01092D02*
X01137D01*
X0112Y01074D02*
Y01109D01*
X01102Y009D02*
X01137D01*
X0112Y00882D02*
Y00917D01*
X01542Y0028D02*
X01577D01*
X0156Y00262D02*
Y00297D01*
X01542Y0018D02*
X01577D01*
X0156Y00162D02*
Y00197D01*
X01542Y0008D02*
X01577D01*
X0156Y00062D02*
Y00097D01*
X01902Y0028D02*
X01937D01*
X0192Y00262D02*
Y00297D01*
X01902Y0018D02*
X01937D01*
X0192Y00162D02*
Y00197D01*
X01902Y0008D02*
X01937D01*
X0192Y00062D02*
Y00097D01*
X01722Y0028D02*
X01757D01*
X0174Y00262D02*
Y00297D01*
X01722Y0018D02*
X01757D01*
X0174Y00162D02*
Y00197D01*
X01722Y0008D02*
X01757D01*
X0174Y00062D02*
Y00097D01*
X01362Y0028D02*
X01397D01*
X0138Y00262D02*
Y00297D01*
X01362Y0018D02*
X01397D01*
X0138Y00162D02*
Y00197D01*
X01362Y0008D02*
X01397D01*
X0138Y00062D02*
Y00097D01*
X00965Y0152D02*
X00997D01*
X00981Y01504D02*
Y01535D01*
X01162Y0152D02*
X01194D01*
X01178Y01504D02*
Y01535D01*
X01982Y023D02*
X02017D01*
X02Y02282D02*
Y02317D01*
X02082Y023D02*
X02117D01*
X021Y02282D02*
Y02317D01*
X01982Y022D02*
X02017D01*
X02Y02182D02*
Y02217D01*
X02082Y022D02*
X02117D01*
X021Y02182D02*
Y02217D01*
X01982Y021D02*
X02017D01*
X02Y02082D02*
Y02117D01*
X02082Y021D02*
X02117D01*
X021Y02082D02*
Y02117D01*
X01982Y02D02*
X02017D01*
X02Y01982D02*
Y02017D01*
X02082Y02D02*
X02117D01*
X021Y01982D02*
Y02017D01*
X01982Y019D02*
X02017D01*
X02Y01882D02*
Y01917D01*
X02082Y019D02*
X02117D01*
X021Y01882D02*
Y01917D01*
X01982Y018D02*
X02017D01*
X02Y01782D02*
Y01817D01*
X02082Y018D02*
X02117D01*
X021Y01782D02*
Y01817D01*
X01982Y017D02*
X02017D01*
X02Y01682D02*
Y01717D01*
X02082Y017D02*
X02117D01*
X021Y01682D02*
Y01717D01*
X01982Y016D02*
X02017D01*
X02Y01582D02*
Y01617D01*
X02082Y016D02*
X02117D01*
X021Y01582D02*
Y01617D01*
X01982Y015D02*
X02017D01*
X02Y01482D02*
Y01517D01*
X02082Y015D02*
X02117D01*
X021Y01482D02*
Y01517D01*
X01982Y014D02*
X02017D01*
X02Y01382D02*
Y01417D01*
X02082Y014D02*
X02117D01*
X021Y01382D02*
Y01417D01*
X01982Y013D02*
X02017D01*
X02Y01282D02*
Y01317D01*
X02082Y013D02*
X02117D01*
X021Y01282D02*
Y01317D01*
X01982Y012D02*
X02017D01*
X02Y01182D02*
Y01217D01*
X02082Y012D02*
X02117D01*
X021Y01182D02*
Y01217D01*
X01982Y011D02*
X02017D01*
X02Y01082D02*
Y01117D01*
X02082Y011D02*
X02117D01*
X021Y01082D02*
Y01117D01*
X00991Y01145D02*
X01019D01*
X01005Y01131D02*
Y01159D01*
X00906Y01025D02*
X00934D01*
X0092Y01011D02*
Y01039D01*
X01236Y016D02*
X01264D01*
X0125Y01586D02*
Y01614D01*
X01841Y01755D02*
X01869D01*
X01855Y01741D02*
Y01769D01*
X01841Y0168D02*
X01869D01*
X01855Y01666D02*
Y01694D01*
X01466Y01425D02*
X01494D01*
X0148Y01411D02*
Y01439D01*
X01396Y01425D02*
X01424D01*
X0141Y01411D02*
Y01439D01*
X01551Y0132D02*
X01579D01*
X01565Y01306D02*
Y01334D01*
X01836Y01205D02*
X01864D01*
X0185Y01191D02*
Y01219D01*
X01396Y01025D02*
X01424D01*
X0141Y01011D02*
Y01039D01*
X00451Y0096D02*
X00479D01*
X00465Y00946D02*
Y00974D01*
X01481Y0108D02*
X01509D01*
X01495Y01066D02*
Y01094D01*
X01421Y01125D02*
X01449D01*
X01435Y01111D02*
Y01139D01*
X01211Y0126D02*
X01239D01*
X01225Y01246D02*
Y01274D01*
X01371Y0123D02*
X01399D01*
X01385Y01216D02*
Y01244D01*
X01356Y00915D02*
X01384D01*
X0137Y00901D02*
Y00929D01*
X01636Y00815D02*
X01664D01*
X0165Y00801D02*
Y00829D01*
X01216Y00755D02*
X01244D01*
X0123Y00741D02*
Y00769D01*
X01761Y0052D02*
X01789D01*
X01775Y00506D02*
Y00534D01*
X01721Y0046D02*
X01749D01*
X01735Y00446D02*
Y00474D01*
X01831Y0052D02*
X01859D01*
X01845Y00506D02*
Y00534D01*
X01281Y00665D02*
X01309D01*
X01295Y00651D02*
Y00679D01*
X01136Y0059D02*
X01164D01*
X0115Y00576D02*
Y00604D01*
X01206Y00625D02*
X01234D01*
X0122Y00611D02*
Y00639D01*
X01306Y0104D02*
X01334D01*
X0132Y01026D02*
Y01054D01*
X01766Y01D02*
X01794D01*
X0178Y00986D02*
Y01014D01*
X01856Y00455D02*
X01884D01*
X0187Y00441D02*
Y00469D01*
X01866Y007D02*
X01894D01*
X0188Y00686D02*
Y00714D01*
X01631Y00405D02*
X01659D01*
X01645Y00391D02*
Y00419D01*
X01811Y01055D02*
X01839D01*
X01825Y01041D02*
Y01069D01*
X01926Y00895D02*
X01954D01*
X0194Y00881D02*
Y00909D01*
X00461Y0072D02*
X00489D01*
X00475Y00706D02*
Y00734D01*
X00671Y0054D02*
X00699D01*
X00685Y00526D02*
Y00554D01*
X01381Y0059D02*
X01409D01*
X01395Y00576D02*
Y00604D01*
X01006Y006D02*
X01034D01*
X0102Y00586D02*
Y00614D01*
X01421Y0053D02*
X01449D01*
X01435Y00516D02*
Y00544D01*
X01471Y00475D02*
X01499D01*
X01485Y00461D02*
Y00489D01*
X00666Y0047D02*
X00694D01*
X0068Y00456D02*
Y00484D01*
X00586Y00475D02*
X00614D01*
X006Y00461D02*
Y00489D01*
X00756Y0069D02*
X00784D01*
X0077Y00676D02*
Y00704D01*
X00441Y00295D02*
X00469D01*
X00455Y00281D02*
Y00309D01*
X01016Y0029D02*
X01044D01*
X0103Y00276D02*
Y00304D01*
X00086Y004D02*
X00114D01*
X001Y00386D02*
Y00414D01*
X00156Y0068D02*
X00184D01*
X0017Y00666D02*
Y00694D01*
X00611Y0071D02*
X00639D01*
X00625Y00696D02*
Y00724D01*
X00956Y0074D02*
X00984D01*
X0097Y00726D02*
Y00754D01*
X00446Y0059D02*
X00474D01*
X0046Y00576D02*
Y00604D01*
X00846Y0095D02*
X00874D01*
X0086Y00936D02*
Y00964D01*
X01366Y0071D02*
X01394D01*
X0138Y00696D02*
Y00724D01*
X01271Y02315D02*
X01299D01*
X01285Y02301D02*
Y02329D01*
X00631Y00375D02*
X00659D01*
X00645Y00361D02*
Y00389D01*
X01246Y018D02*
X01274D01*
X0126Y01786D02*
Y01814D01*
X00266Y0151D02*
X00294D01*
X0028Y01496D02*
Y01524D01*
X00266Y0139D02*
X00294D01*
X0028Y01376D02*
Y01404D01*
X00336Y0139D02*
X00364D01*
X0035Y01376D02*
Y01404D01*
X00336Y01555D02*
X00364D01*
X0035Y01541D02*
Y01569D01*
X00756Y0145D02*
X00784D01*
X0077Y01436D02*
Y01464D01*
X00186Y01145D02*
X00214D01*
X002Y01131D02*
Y01159D01*
X01871Y02515D02*
X01899D01*
X01885Y02501D02*
Y02529D01*
X01666Y01875D02*
X01694D01*
X0168Y01861D02*
Y01889D01*
X01681Y0198D02*
X01709D01*
X01695Y01966D02*
Y01994D01*
X01251Y021D02*
X01279D01*
X01265Y02086D02*
Y02114D01*
X01191Y01965D02*
X01219D01*
X01205Y01951D02*
Y01979D01*
X01446Y0206D02*
X01474D01*
X0146Y02046D02*
Y02074D01*
X01551Y0206D02*
X01579D01*
X01565Y02046D02*
Y02074D01*
X01711Y02175D02*
X01739D01*
X01725Y02161D02*
Y02189D01*
X01596Y0173D02*
X01624D01*
X0161Y01716D02*
Y01744D01*
X01386Y02445D02*
X01414D01*
X014Y02431D02*
Y02459D01*
X01836Y016D02*
X01864D01*
X0185Y01586D02*
Y01614D01*
X01986Y00635D02*
X02014D01*
X02Y00621D02*
Y00649D01*
X01821Y0239D02*
X01849D01*
X01835Y02376D02*
Y02404D01*
G54D37*
X01472Y02254D02*
D01*
X01472Y02255*
X01471Y02257*
X01471Y02258*
X01471Y02259*
X0147Y02261*
X0147Y02262*
X01469Y02263*
X01469Y02264*
X01468Y02266*
X01467Y02267*
X01466Y02268*
X01465Y02269*
X01464Y0227*
X01463Y0227*
X01462Y02271*
X0146Y02272*
X01459Y02272*
X01458Y02273*
X01457Y02273*
X01455Y02273*
X01454Y02274*
X01453Y02274*
X01451*
X0145Y02274*
X01448Y02273*
X01447Y02273*
X01446Y02273*
X01444Y02272*
X01443Y02272*
X01442Y02271*
X01441Y0227*
X0144Y0227*
X01439Y02269*
X01438Y02268*
X01437Y02267*
X01436Y02266*
X01435Y02264*
X01434Y02263*
X01434Y02262*
X01433Y02261*
X01433Y02259*
X01433Y02258*
X01432Y02257*
X01432Y02255*
X01432Y02254*
X01432Y02253*
X01432Y02251*
X01433Y0225*
X01433Y02249*
X01433Y02247*
X01434Y02246*
X01434Y02245*
X01435Y02244*
X01436Y02242*
X01437Y02241*
X01438Y0224*
X01439Y02239*
X0144Y02239*
X01441Y02238*
X01442Y02237*
X01443Y02236*
X01444Y02236*
X01446Y02235*
X01447Y02235*
X01448Y02235*
X0145Y02234*
X01451Y02234*
X01453*
X01454Y02234*
X01455Y02235*
X01457Y02235*
X01458Y02235*
X01459Y02236*
X0146Y02236*
X01462Y02237*
X01463Y02238*
X01464Y02239*
X01465Y02239*
X01466Y0224*
X01467Y02241*
X01468Y02242*
X01469Y02244*
X01469Y02245*
X0147Y02246*
X0147Y02247*
X01471Y02249*
X01471Y0225*
X01471Y02251*
X01472Y02253*
X01472Y02254*
X00856Y01862D02*
D01*
X00856Y01864*
X00856Y01865*
X00855Y01867*
X00855Y01868*
X00855Y01869*
X00854Y0187*
X00854Y01872*
X00853Y01873*
X00852Y01874*
X00851Y01875*
X0085Y01876*
X00849Y01877*
X00848Y01878*
X00847Y01879*
X00846Y0188*
X00845Y0188*
X00844Y01881*
X00842Y01881*
X00841Y01882*
X0084Y01882*
X00838Y01882*
X00837Y01882*
X00836*
X00834Y01882*
X00833Y01882*
X00831Y01882*
X0083Y01881*
X00829Y01881*
X00828Y0188*
X00826Y0188*
X00825Y01879*
X00824Y01878*
X00823Y01877*
X00822Y01876*
X00821Y01875*
X0082Y01874*
X00819Y01873*
X00819Y01872*
X00818Y0187*
X00818Y01869*
X00817Y01868*
X00817Y01867*
X00817Y01865*
X00817Y01864*
X00817Y01862*
X00817Y01861*
X00817Y0186*
X00817Y01858*
X00817Y01857*
X00818Y01856*
X00818Y01854*
X00819Y01853*
X00819Y01852*
X0082Y01851*
X00821Y0185*
X00822Y01849*
X00823Y01848*
X00824Y01847*
X00825Y01846*
X00826Y01845*
X00828Y01845*
X00829Y01844*
X0083Y01844*
X00831Y01843*
X00833Y01843*
X00834Y01843*
X00836Y01843*
X00837*
X00838Y01843*
X0084Y01843*
X00841Y01843*
X00842Y01844*
X00844Y01844*
X00845Y01845*
X00846Y01845*
X00847Y01846*
X00848Y01847*
X00849Y01848*
X0085Y01849*
X00851Y0185*
X00852Y01851*
X00853Y01852*
X00854Y01853*
X00854Y01854*
X00855Y01856*
X00855Y01857*
X00855Y01858*
X00856Y0186*
X00856Y01861*
X00856Y01862*
X00536Y01542D02*
D01*
X00536Y01544*
X00536Y01545*
X00535Y01547*
X00535Y01548*
X00535Y01549*
X00534Y0155*
X00534Y01552*
X00533Y01553*
X00532Y01554*
X00531Y01555*
X0053Y01556*
X00529Y01557*
X00528Y01558*
X00527Y01559*
X00526Y0156*
X00525Y0156*
X00524Y01561*
X00522Y01561*
X00521Y01562*
X0052Y01562*
X00518Y01562*
X00517Y01562*
X00516*
X00514Y01562*
X00513Y01562*
X00511Y01562*
X0051Y01561*
X00509Y01561*
X00508Y0156*
X00506Y0156*
X00505Y01559*
X00504Y01558*
X00503Y01557*
X00502Y01556*
X00501Y01555*
X005Y01554*
X00499Y01553*
X00499Y01552*
X00498Y0155*
X00498Y01549*
X00497Y01548*
X00497Y01547*
X00497Y01545*
X00497Y01544*
X00497Y01542*
X00497Y01541*
X00497Y0154*
X00497Y01538*
X00497Y01537*
X00498Y01536*
X00498Y01534*
X00499Y01533*
X00499Y01532*
X005Y01531*
X00501Y0153*
X00502Y01529*
X00503Y01528*
X00504Y01527*
X00505Y01526*
X00506Y01525*
X00508Y01525*
X00509Y01524*
X0051Y01524*
X00511Y01523*
X00513Y01523*
X00514Y01523*
X00516Y01523*
X00517*
X00518Y01523*
X0052Y01523*
X00521Y01523*
X00522Y01524*
X00524Y01524*
X00525Y01525*
X00526Y01525*
X00527Y01526*
X00528Y01527*
X00529Y01528*
X0053Y01529*
X00531Y0153*
X00532Y01531*
X00533Y01532*
X00534Y01533*
X00534Y01534*
X00535Y01536*
X00535Y01537*
X00535Y01538*
X00536Y0154*
X00536Y01541*
X00536Y01542*
X01389Y01323D02*
D01*
X01389Y01325*
X01389Y01326*
X01389Y01328*
X01389Y01329*
X01388Y0133*
X01388Y01331*
X01387Y01333*
X01386Y01334*
X01386Y01335*
X01385Y01336*
X01384Y01337*
X01383Y01338*
X01382Y01339*
X01381Y0134*
X01379Y0134*
X01378Y01341*
X01377Y01342*
X01376Y01342*
X01374Y01343*
X01373Y01343*
X01372Y01343*
X0137Y01343*
X01369*
X01368Y01343*
X01366Y01343*
X01365Y01343*
X01364Y01342*
X01362Y01342*
X01361Y01341*
X0136Y0134*
X01359Y0134*
X01358Y01339*
X01356Y01338*
X01355Y01337*
X01355Y01336*
X01354Y01335*
X01353Y01334*
X01352Y01333*
X01352Y01331*
X01351Y0133*
X01351Y01329*
X0135Y01328*
X0135Y01326*
X0135Y01325*
X0135Y01323*
X0135Y01322*
X0135Y01321*
X0135Y01319*
X01351Y01318*
X01351Y01317*
X01352Y01315*
X01352Y01314*
X01353Y01313*
X01354Y01312*
X01355Y01311*
X01355Y0131*
X01356Y01309*
X01358Y01308*
X01359Y01307*
X0136Y01306*
X01361Y01306*
X01362Y01305*
X01364Y01305*
X01365Y01304*
X01366Y01304*
X01368Y01304*
X01369Y01304*
X0137*
X01372Y01304*
X01373Y01304*
X01374Y01304*
X01376Y01305*
X01377Y01305*
X01378Y01306*
X01379Y01306*
X01381Y01307*
X01382Y01308*
X01383Y01309*
X01384Y0131*
X01385Y01311*
X01386Y01312*
X01386Y01313*
X01387Y01314*
X01388Y01315*
X01388Y01317*
X01389Y01318*
X01389Y01319*
X01389Y01321*
X01389Y01322*
X01389Y01323*
X01557Y00862D02*
D01*
X01557Y00863*
X01557Y00865*
X01556Y00866*
X01556Y00867*
X01556Y00869*
X01555Y0087*
X01555Y00871*
X01554Y00872*
X01553Y00873*
X01552Y00875*
X01551Y00876*
X0155Y00876*
X01549Y00877*
X01548Y00878*
X01547Y00879*
X01546Y0088*
X01545Y0088*
X01543Y00881*
X01542Y00881*
X01541Y00881*
X01539Y00881*
X01538Y00882*
X01536*
X01535Y00881*
X01534Y00881*
X01532Y00881*
X01531Y00881*
X0153Y0088*
X01528Y0088*
X01527Y00879*
X01526Y00878*
X01525Y00877*
X01524Y00876*
X01523Y00876*
X01522Y00875*
X01521Y00873*
X0152Y00872*
X0152Y00871*
X01519Y0087*
X01519Y00869*
X01518Y00867*
X01518Y00866*
X01518Y00865*
X01517Y00863*
X01517Y00862*
X01517Y0086*
X01518Y00859*
X01518Y00858*
X01518Y00856*
X01519Y00855*
X01519Y00854*
X0152Y00853*
X0152Y00851*
X01521Y0085*
X01522Y00849*
X01523Y00848*
X01524Y00847*
X01525Y00846*
X01526Y00846*
X01527Y00845*
X01528Y00844*
X0153Y00844*
X01531Y00843*
X01532Y00843*
X01534Y00842*
X01535Y00842*
X01536Y00842*
X01538*
X01539Y00842*
X01541Y00842*
X01542Y00843*
X01543Y00843*
X01545Y00844*
X01546Y00844*
X01547Y00845*
X01548Y00846*
X01549Y00846*
X0155Y00847*
X01551Y00848*
X01552Y00849*
X01553Y0085*
X01554Y00851*
X01555Y00853*
X01555Y00854*
X01556Y00855*
X01556Y00856*
X01556Y00858*
X01557Y00859*
X01557Y0086*
X01557Y00862*
X00312Y0114D02*
X00367D01*
X00312Y01259D02*
X00367D01*
Y0114D02*
Y01259D01*
X00312Y0114D02*
Y01259D01*
X01416Y0211D02*
Y02289D01*
X01583Y0211D02*
Y02289D01*
X01416D02*
X01583D01*
X01416Y0211D02*
X01583D01*
X00572Y0114D02*
X00627D01*
X00572Y01259D02*
X00627D01*
Y0114D02*
Y01259D01*
X00572Y0114D02*
Y01259D01*
X00801Y01701D02*
X00958D01*
X00801Y01898D02*
X00958D01*
Y01701D02*
Y01898D01*
X00801Y01701D02*
Y01898D01*
X00481Y01381D02*
X00638D01*
X00481Y01578D02*
X00638D01*
Y01381D02*
Y01578D01*
X00481Y01381D02*
Y01578D01*
X01332Y01278D02*
X01427D01*
X01332Y01361D02*
X01427D01*
Y01278D02*
Y01361D01*
X01332Y01278D02*
Y01361D01*
X01502Y00622D02*
Y00897D01*
X01777Y00622D02*
Y00897D01*
X01502D02*
X01777D01*
X01502Y00622D02*
X01777D01*
M02*