%FSTAX23Y23*%
%MOIN*%
%SFA1B1*%

%IPPOS*%
%ADD33C,0.000000*%
%ADD73C,0.006670*%
%LNrazbot_v02-1*%
%LPD*%
G54D33*
X0208Y0108D02*
Y0112D01*
X0212*
Y0108*
X0208*
X0198D02*
Y0112D01*
X0202*
Y0108*
X0198*
X0208Y0118D02*
Y0122D01*
X0212*
Y0118*
X0208*
X0198D02*
Y0122D01*
X0202*
Y0118*
X0198*
X0208Y0128D02*
Y0132D01*
X0212*
Y0128*
X0208*
X0198D02*
Y0132D01*
X0202*
Y0128*
X0198*
X0208Y0138D02*
Y0142D01*
X0212*
Y0138*
X0208*
X0198D02*
Y0142D01*
X0202*
Y0138*
X0198*
X0208Y0148D02*
Y0152D01*
X0212*
Y0148*
X0208*
X0198D02*
Y0152D01*
X0202*
Y0148*
X0198*
X0208Y0158D02*
Y0162D01*
X0212*
Y0158*
X0208*
X0198D02*
Y0162D01*
X0202*
Y0158*
X0198*
X0208Y0168D02*
Y0172D01*
X0212*
Y0168*
X0208*
X0198D02*
Y0172D01*
X0202*
Y0168*
X0198*
X0208Y0178D02*
Y0182D01*
X0212*
Y0178*
X0208*
X0198D02*
Y0182D01*
X0202*
Y0178*
X0198*
X0208Y0188D02*
Y0192D01*
X0212*
Y0188*
X0208*
X0198D02*
Y0192D01*
X0202*
Y0188*
X0198*
X0208Y0198D02*
Y0202D01*
X0212*
Y0198*
X0208*
X0198D02*
Y0202D01*
X0202*
Y0198*
X0198*
X0208Y0208D02*
Y0212D01*
X0212*
Y0208*
X0208*
X0198D02*
Y0212D01*
X0202*
Y0208*
X0198*
X0208Y0218D02*
Y0222D01*
X0212*
Y0218*
X0208*
X0198D02*
Y0222D01*
X0202*
Y0218*
X0198*
X0208Y0228D02*
Y0232D01*
X0212*
Y0228*
X0208*
X0198D02*
Y0232D01*
X0202*
Y0228*
X0198*
X0136Y0006D02*
Y001D01*
X014*
Y0006*
X0136*
Y0016D02*
Y002D01*
X014*
Y0016*
X0136*
Y0026D02*
Y003D01*
X014*
Y0026*
X0136*
X0172Y0006D02*
Y001D01*
X0176*
Y0006*
X0172*
Y0016D02*
Y002D01*
X0176*
Y0016*
X0172*
Y0026D02*
Y003D01*
X0176*
Y0026*
X0172*
X019Y0006D02*
Y001D01*
X0194*
Y0006*
X019*
Y0016D02*
Y002D01*
X0194*
Y0016*
X019*
Y0026D02*
Y003D01*
X0194*
Y0026*
X019*
X0154Y0006D02*
Y001D01*
X0158*
Y0006*
X0154*
Y0016D02*
Y002D01*
X0158*
Y0016*
X0154*
Y0026D02*
Y003D01*
X0158*
Y0026*
X0154*
X011Y0088D02*
Y0092D01*
X0114*
Y0088*
X011*
Y01072D02*
Y01112D01*
X0114*
Y01072*
X011*
X017Y0138D02*
Y0142D01*
X0174*
Y0138*
X017*
X016D02*
Y0142D01*
X0164*
Y0138*
X016*
X017Y0148D02*
Y0152D01*
X0174*
Y0148*
X017*
X016D02*
Y0152D01*
X0164*
Y0148*
X016*
X017Y0158D02*
Y0162D01*
X0174*
Y0158*
X017*
X016D02*
Y0162D01*
X0164*
Y0158*
X016*
X0098Y0008D02*
Y0012D01*
X0102*
Y0008*
X0098*
X0108D02*
Y0012D01*
X0112*
Y0008*
X0108*
X0068D02*
Y0012D01*
X0072*
Y0008*
X0068*
X0078D02*
Y0012D01*
X0082*
Y0008*
X0078*
X0038D02*
Y0012D01*
X0042*
Y0008*
X0038*
X0048D02*
Y0012D01*
X0052*
Y0008*
X0048*
X0008D02*
Y0012D01*
X0012*
Y0008*
X0008*
X0018D02*
Y0012D01*
X0022*
Y0008*
X0018*
X002Y0236D02*
X0018Y024D01*
X0022*
X002Y0236*
Y0212D02*
X0018Y0216D01*
X0022*
X002Y0212*
X0048Y0236D02*
X0046Y024D01*
X005*
X0048Y0236*
Y0212D02*
X0046Y0216D01*
X005*
X0048Y0212*
X0206Y0046D02*
Y005D01*
X021*
Y0046*
X0206*
Y0036D02*
Y004D01*
X021*
Y0036*
X0206*
Y0026D02*
Y003D01*
X021*
Y0026*
X0206*
Y0016D02*
Y002D01*
X021*
Y0016*
X0206*
Y0006D02*
Y001D01*
X021*
Y0006*
X0206*
X01835Y0237D02*
X01845Y0238D01*
X01855*
X01845Y0239*
X01855Y024*
X01845*
X01835Y0241*
X01825Y024*
X01815*
X01825Y0239*
X01815Y0238*
X01825*
X01835Y0237*
X02Y00615D02*
X0201Y00625D01*
X0202*
X0201Y00635*
X0202Y00645*
X0201*
X02Y00655*
X0199Y00645*
X0198*
X0199Y00635*
X0198Y00625*
X0199*
X02Y00615*
X0185Y0158D02*
X0186Y0159D01*
X0187*
X0186Y016*
X0187Y0161*
X0186*
X0185Y0162*
X0184Y0161*
X0183*
X0184Y016*
X0183Y0159*
X0184*
X0185Y0158*
X014Y02425D02*
X0141Y02435D01*
X0142*
X0141Y02445*
X0142Y02455*
X0141*
X014Y02465*
X0139Y02455*
X0138*
X0139Y02445*
X0138Y02435*
X0139*
X014Y02425*
X0161Y0171D02*
X0162Y0172D01*
X0163*
X0162Y0173*
X0163Y0174*
X0162*
X0161Y0175*
X016Y0174*
X0159*
X016Y0173*
X0159Y0172*
X016*
X0161Y0171*
X01725Y02155D02*
X01735Y02165D01*
X01745*
X01735Y02175*
X01745Y02185*
X01735*
X01725Y02195*
X01715Y02185*
X01705*
X01715Y02175*
X01705Y02165*
X01715*
X01725Y02155*
X01565Y0204D02*
X01575Y0205D01*
X01585*
X01575Y0206*
X01585Y0207*
X01575*
X01565Y0208*
X01555Y0207*
X01545*
X01555Y0206*
X01545Y0205*
X01555*
X01565Y0204*
X0146D02*
X0147Y0205D01*
X0148*
X0147Y0206*
X0148Y0207*
X0147*
X0146Y0208*
X0145Y0207*
X0144*
X0145Y0206*
X0144Y0205*
X0145*
X0146Y0204*
X01205Y01945D02*
X01215Y01955D01*
X01225*
X01215Y01965*
X01225Y01975*
X01215*
X01205Y01985*
X01195Y01975*
X01185*
X01195Y01965*
X01185Y01955*
X01195*
X01205Y01945*
X01265Y0208D02*
X01275Y0209D01*
X01285*
X01275Y021*
X01285Y0211*
X01275*
X01265Y0212*
X01255Y0211*
X01245*
X01255Y021*
X01245Y0209*
X01255*
X01265Y0208*
X01695Y0196D02*
X01705Y0197D01*
X01715*
X01705Y0198*
X01715Y0199*
X01705*
X01695Y02*
X01685Y0199*
X01675*
X01685Y0198*
X01675Y0197*
X01685*
X01695Y0196*
X0168Y01855D02*
X0169Y01865D01*
X017*
X0169Y01875*
X017Y01885*
X0169*
X0168Y01895*
X0167Y01885*
X0166*
X0167Y01875*
X0166Y01865*
X0167*
X0168Y01855*
X01885Y02495D02*
X01895Y02505D01*
X01905*
X01895Y02515*
X01905Y02525*
X01895*
X01885Y02535*
X01875Y02525*
X01865*
X01875Y02515*
X01865Y02505*
X01875*
X01885Y02495*
X002Y01125D02*
X0021Y01135D01*
X0022*
X0021Y01145*
X0022Y01155*
X0021*
X002Y01165*
X0019Y01155*
X0018*
X0019Y01145*
X0018Y01135*
X0019*
X002Y01125*
X0077Y0143D02*
X0078Y0144D01*
X0079*
X0078Y0145*
X0079Y0146*
X0078*
X0077Y0147*
X0076Y0146*
X0075*
X0076Y0145*
X0075Y0144*
X0076*
X0077Y0143*
X0035Y01535D02*
X0036Y01545D01*
X0037*
X0036Y01555*
X0037Y01565*
X0036*
X0035Y01575*
X0034Y01565*
X0033*
X0034Y01555*
X0033Y01545*
X0034*
X0035Y01535*
Y0137D02*
X0036Y0138D01*
X0037*
X0036Y0139*
X0037Y014*
X0036*
X0035Y0141*
X0034Y014*
X0033*
X0034Y0139*
X0033Y0138*
X0034*
X0035Y0137*
X0028D02*
X0029Y0138D01*
X003*
X0029Y0139*
X003Y014*
X0029*
X0028Y0141*
X0027Y014*
X0026*
X0027Y0139*
X0026Y0138*
X0027*
X0028Y0137*
Y0149D02*
X0029Y015D01*
X003*
X0029Y0151*
X003Y0152*
X0029*
X0028Y0153*
X0027Y0152*
X0026*
X0027Y0151*
X0026Y015*
X0027*
X0028Y0149*
X0126Y0178D02*
X0127Y0179D01*
X0128*
X0127Y018*
X0128Y0181*
X0127*
X0126Y0182*
X0125Y0181*
X0124*
X0125Y018*
X0124Y0179*
X0125*
X0126Y0178*
X00645Y00355D02*
X00655Y00365D01*
X00665*
X00655Y00375*
X00665Y00385*
X00655*
X00645Y00395*
X00635Y00385*
X00625*
X00635Y00375*
X00625Y00365*
X00635*
X00645Y00355*
X01285Y02295D02*
X01295Y02305D01*
X01305*
X01295Y02315*
X01305Y02325*
X01295*
X01285Y02335*
X01275Y02325*
X01265*
X01275Y02315*
X01265Y02305*
X01275*
X01285Y02295*
X0138Y0069D02*
X0139Y007D01*
X014*
X0139Y0071*
X014Y0072*
X0139*
X0138Y0073*
X0137Y0072*
X0136*
X0137Y0071*
X0136Y007*
X0137*
X0138Y0069*
X0086Y0093D02*
X0087Y0094D01*
X0088*
X0087Y0095*
X0088Y0096*
X0087*
X0086Y0097*
X0085Y0096*
X0084*
X0085Y0095*
X0084Y0094*
X0085*
X0086Y0093*
X0046Y0057D02*
X0047Y0058D01*
X0048*
X0047Y0059*
X0048Y006*
X0047*
X0046Y0061*
X0045Y006*
X0044*
X0045Y0059*
X0044Y0058*
X0045*
X0046Y0057*
X0097Y0072D02*
X0098Y0073D01*
X0099*
X0098Y0074*
X0099Y0075*
X0098*
X0097Y0076*
X0096Y0075*
X0095*
X0096Y0074*
X0095Y0073*
X0096*
X0097Y0072*
X00625Y0069D02*
X00635Y007D01*
X00645*
X00635Y0071*
X00645Y0072*
X00635*
X00625Y0073*
X00615Y0072*
X00605*
X00615Y0071*
X00605Y007*
X00615*
X00625Y0069*
X0017Y0066D02*
X0018Y0067D01*
X0019*
X0018Y0068*
X0019Y0069*
X0018*
X0017Y007*
X0016Y0069*
X0015*
X0016Y0068*
X0015Y0067*
X0016*
X0017Y0066*
X001Y0038D02*
X0011Y0039D01*
X0012*
X0011Y004*
X0012Y0041*
X0011*
X001Y0042*
X0009Y0041*
X0008*
X0009Y004*
X0008Y0039*
X0009*
X001Y0038*
X0103Y0027D02*
X0104Y0028D01*
X0105*
X0104Y0029*
X0105Y003*
X0104*
X0103Y0031*
X0102Y003*
X0101*
X0102Y0029*
X0101Y0028*
X0102*
X0103Y0027*
X00455Y00275D02*
X00465Y00285D01*
X00475*
X00465Y00295*
X00475Y00305*
X00465*
X00455Y00315*
X00445Y00305*
X00435*
X00445Y00295*
X00435Y00285*
X00445*
X00455Y00275*
X0077Y0067D02*
X0078Y0068D01*
X0079*
X0078Y0069*
X0079Y007*
X0078*
X0077Y0071*
X0076Y007*
X0075*
X0076Y0069*
X0075Y0068*
X0076*
X0077Y0067*
X006Y00455D02*
X0061Y00465D01*
X0062*
X0061Y00475*
X0062Y00485*
X0061*
X006Y00495*
X0059Y00485*
X0058*
X0059Y00475*
X0058Y00465*
X0059*
X006Y00455*
X0068Y0045D02*
X0069Y0046D01*
X007*
X0069Y0047*
X007Y0048*
X0069*
X0068Y0049*
X0067Y0048*
X0066*
X0067Y0047*
X0066Y0046*
X0067*
X0068Y0045*
X01485Y00455D02*
X01495Y00465D01*
X01505*
X01495Y00475*
X01505Y00485*
X01495*
X01485Y00495*
X01475Y00485*
X01465*
X01475Y00475*
X01465Y00465*
X01475*
X01485Y00455*
X01435Y0051D02*
X01445Y0052D01*
X01455*
X01445Y0053*
X01455Y0054*
X01445*
X01435Y0055*
X01425Y0054*
X01415*
X01425Y0053*
X01415Y0052*
X01425*
X01435Y0051*
X0102Y0058D02*
X0103Y0059D01*
X0104*
X0103Y006*
X0104Y0061*
X0103*
X0102Y0062*
X0101Y0061*
X01*
X0101Y006*
X01Y0059*
X0101*
X0102Y0058*
X01395Y0057D02*
X01405Y0058D01*
X01415*
X01405Y0059*
X01415Y006*
X01405*
X01395Y0061*
X01385Y006*
X01375*
X01385Y0059*
X01375Y0058*
X01385*
X01395Y0057*
X00685Y0052D02*
X00695Y0053D01*
X00705*
X00695Y0054*
X00705Y0055*
X00695*
X00685Y0056*
X00675Y0055*
X00665*
X00675Y0054*
X00665Y0053*
X00675*
X00685Y0052*
X00475Y007D02*
X00485Y0071D01*
X00495*
X00485Y0072*
X00495Y0073*
X00485*
X00475Y0074*
X00465Y0073*
X00455*
X00465Y0072*
X00455Y0071*
X00465*
X00475Y007*
X0194Y00875D02*
X0195Y00885D01*
X0196*
X0195Y00895*
X0196Y00905*
X0195*
X0194Y00915*
X0193Y00905*
X0192*
X0193Y00895*
X0192Y00885*
X0193*
X0194Y00875*
X01825Y01035D02*
X01835Y01045D01*
X01845*
X01835Y01055*
X01845Y01065*
X01835*
X01825Y01075*
X01815Y01065*
X01805*
X01815Y01055*
X01805Y01045*
X01815*
X01825Y01035*
X01645Y00385D02*
X01655Y00395D01*
X01665*
X01655Y00405*
X01665Y00415*
X01655*
X01645Y00425*
X01635Y00415*
X01625*
X01635Y00405*
X01625Y00395*
X01635*
X01645Y00385*
X0188Y0068D02*
X0189Y0069D01*
X019*
X0189Y007*
X019Y0071*
X0189*
X0188Y0072*
X0187Y0071*
X0186*
X0187Y007*
X0186Y0069*
X0187*
X0188Y0068*
X0187Y00435D02*
X0188Y00445D01*
X0189*
X0188Y00455*
X0189Y00465*
X0188*
X0187Y00475*
X0186Y00465*
X0185*
X0186Y00455*
X0185Y00445*
X0186*
X0187Y00435*
X0178Y0098D02*
X0179Y0099D01*
X018*
X0179Y01*
X018Y0101*
X0179*
X0178Y0102*
X0177Y0101*
X0176*
X0177Y01*
X0176Y0099*
X0177*
X0178Y0098*
X0132Y0102D02*
X0133Y0103D01*
X0134*
X0133Y0104*
X0134Y0105*
X0133*
X0132Y0106*
X0131Y0105*
X013*
X0131Y0104*
X013Y0103*
X0131*
X0132Y0102*
X0122Y00605D02*
X0123Y00615D01*
X0124*
X0123Y00625*
X0124Y00635*
X0123*
X0122Y00645*
X0121Y00635*
X012*
X0121Y00625*
X012Y00615*
X0121*
X0122Y00605*
X0115Y0057D02*
X0116Y0058D01*
X0117*
X0116Y0059*
X0117Y006*
X0116*
X0115Y0061*
X0114Y006*
X0113*
X0114Y0059*
X0113Y0058*
X0114*
X0115Y0057*
X01295Y00645D02*
X01305Y00655D01*
X01315*
X01305Y00665*
X01315Y00675*
X01305*
X01295Y00685*
X01285Y00675*
X01275*
X01285Y00665*
X01275Y00655*
X01285*
X01295Y00645*
X01845Y005D02*
X01855Y0051D01*
X01865*
X01855Y0052*
X01865Y0053*
X01855*
X01845Y0054*
X01835Y0053*
X01825*
X01835Y0052*
X01825Y0051*
X01835*
X01845Y005*
X01735Y0044D02*
X01745Y0045D01*
X01755*
X01745Y0046*
X01755Y0047*
X01745*
X01735Y0048*
X01725Y0047*
X01715*
X01725Y0046*
X01715Y0045*
X01725*
X01735Y0044*
X01775Y005D02*
X01785Y0051D01*
X01795*
X01785Y0052*
X01795Y0053*
X01785*
X01775Y0054*
X01765Y0053*
X01755*
X01765Y0052*
X01755Y0051*
X01765*
X01775Y005*
X0123Y00735D02*
X0124Y00745D01*
X0125*
X0124Y00755*
X0125Y00765*
X0124*
X0123Y00775*
X0122Y00765*
X0121*
X0122Y00755*
X0121Y00745*
X0122*
X0123Y00735*
X0165Y00795D02*
X0166Y00805D01*
X0167*
X0166Y00815*
X0167Y00825*
X0166*
X0165Y00835*
X0164Y00825*
X0163*
X0164Y00815*
X0163Y00805*
X0164*
X0165Y00795*
X0137Y00895D02*
X0138Y00905D01*
X0139*
X0138Y00915*
X0139Y00925*
X0138*
X0137Y00935*
X0136Y00925*
X0135*
X0136Y00915*
X0135Y00905*
X0136*
X0137Y00895*
X01385Y0121D02*
X01395Y0122D01*
X01405*
X01395Y0123*
X01405Y0124*
X01395*
X01385Y0125*
X01375Y0124*
X01365*
X01375Y0123*
X01365Y0122*
X01375*
X01385Y0121*
X01225Y0124D02*
X01235Y0125D01*
X01245*
X01235Y0126*
X01245Y0127*
X01235*
X01225Y0128*
X01215Y0127*
X01205*
X01215Y0126*
X01205Y0125*
X01215*
X01225Y0124*
X01435Y01105D02*
X01445Y01115D01*
X01455*
X01445Y01125*
X01455Y01135*
X01445*
X01435Y01145*
X01425Y01135*
X01415*
X01425Y01125*
X01415Y01115*
X01425*
X01435Y01105*
X01495Y0106D02*
X01505Y0107D01*
X01515*
X01505Y0108*
X01515Y0109*
X01505*
X01495Y011*
X01485Y0109*
X01475*
X01485Y0108*
X01475Y0107*
X01485*
X01495Y0106*
X00465Y0094D02*
X00475Y0095D01*
X00485*
X00475Y0096*
X00485Y0097*
X00475*
X00465Y0098*
X00455Y0097*
X00445*
X00455Y0096*
X00445Y0095*
X00455*
X00465Y0094*
X0141Y01005D02*
X0142Y01015D01*
X0143*
X0142Y01025*
X0143Y01035*
X0142*
X0141Y01045*
X014Y01035*
X0139*
X014Y01025*
X0139Y01015*
X014*
X0141Y01005*
X0185Y01185D02*
X0186Y01195D01*
X0187*
X0186Y01205*
X0187Y01215*
X0186*
X0185Y01225*
X0184Y01215*
X0183*
X0184Y01205*
X0183Y01195*
X0184*
X0185Y01185*
X01565Y013D02*
X01575Y0131D01*
X01585*
X01575Y0132*
X01585Y0133*
X01575*
X01565Y0134*
X01555Y0133*
X01545*
X01555Y0132*
X01545Y0131*
X01555*
X01565Y013*
X0141Y01405D02*
X0142Y01415D01*
X0143*
X0142Y01425*
X0143Y01435*
X0142*
X0141Y01445*
X014Y01435*
X0139*
X014Y01425*
X0139Y01415*
X014*
X0141Y01405*
X0148D02*
X0149Y01415D01*
X015*
X0149Y01425*
X015Y01435*
X0149*
X0148Y01445*
X0147Y01435*
X0146*
X0147Y01425*
X0146Y01415*
X0147*
X0148Y01405*
X01855Y0166D02*
X01865Y0167D01*
X01875*
X01865Y0168*
X01875Y0169*
X01865*
X01855Y017*
X01845Y0169*
X01835*
X01845Y0168*
X01835Y0167*
X01845*
X01855Y0166*
Y01735D02*
X01865Y01745D01*
X01875*
X01865Y01755*
X01875Y01765*
X01865*
X01855Y01775*
X01845Y01765*
X01835*
X01845Y01755*
X01835Y01745*
X01845*
X01855Y01735*
X0125Y0158D02*
X0126Y0159D01*
X0127*
X0126Y016*
X0127Y0161*
X0126*
X0125Y0162*
X0124Y0161*
X0123*
X0124Y016*
X0123Y0159*
X0124*
X0125Y0158*
X0092Y01005D02*
X0093Y01015D01*
X0094*
X0093Y01025*
X0094Y01035*
X0093*
X0092Y01045*
X0091Y01035*
X009*
X0091Y01025*
X009Y01015*
X0091*
X0092Y01005*
X01005Y01125D02*
X01015Y01135D01*
X01025*
X01015Y01145*
X01025Y01155*
X01015*
X01005Y01165*
X00995Y01155*
X00985*
X00995Y01145*
X00985Y01135*
X00995*
X01005Y01125*
G54D73*
X01198Y0152D02*
D01*
X01198Y01521*
X01198Y01522*
X01197Y01524*
X01197Y01525*
X01197Y01526*
X01196Y01528*
X01196Y01529*
X01195Y0153*
X01194Y01531*
X01193Y01532*
X01192Y01533*
X01191Y01534*
X0119Y01535*
X01189Y01536*
X01188Y01537*
X01187Y01537*
X01185Y01538*
X01184Y01539*
X01183Y01539*
X01181Y01539*
X0118Y01539*
X01179Y01539*
X01177*
X01176Y01539*
X01174Y01539*
X01173Y01539*
X01172Y01539*
X0117Y01538*
X01169Y01537*
X01168Y01537*
X01167Y01536*
X01166Y01535*
X01165Y01534*
X01164Y01533*
X01163Y01532*
X01162Y01531*
X01161Y0153*
X0116Y01529*
X0116Y01528*
X01159Y01526*
X01159Y01525*
X01158Y01524*
X01158Y01522*
X01158Y01521*
X01158Y0152*
X01158Y01518*
X01158Y01517*
X01158Y01515*
X01159Y01514*
X01159Y01513*
X0116Y01511*
X0116Y0151*
X01161Y01509*
X01162Y01508*
X01163Y01507*
X01164Y01506*
X01165Y01505*
X01166Y01504*
X01167Y01503*
X01168Y01502*
X01169Y01502*
X0117Y01501*
X01172Y015*
X01173Y015*
X01174Y015*
X01176Y015*
X01177Y015*
X01179*
X0118Y015*
X01181Y015*
X01183Y015*
X01184Y015*
X01185Y01501*
X01187Y01502*
X01188Y01502*
X01189Y01503*
X0119Y01504*
X01191Y01505*
X01192Y01506*
X01193Y01507*
X01194Y01508*
X01195Y01509*
X01196Y0151*
X01196Y01511*
X01197Y01513*
X01197Y01514*
X01197Y01515*
X01198Y01517*
X01198Y01518*
X01198Y0152*
X01001D02*
D01*
X01001Y01521*
X01001Y01522*
X01001Y01524*
X01Y01525*
X01Y01526*
X00999Y01528*
X00999Y01529*
X00998Y0153*
X00997Y01531*
X00996Y01532*
X00995Y01533*
X00994Y01534*
X00993Y01535*
X00992Y01536*
X00991Y01537*
X0099Y01537*
X00989Y01538*
X00987Y01539*
X00986Y01539*
X00985Y01539*
X00983Y01539*
X00982Y01539*
X0098*
X00979Y01539*
X00978Y01539*
X00976Y01539*
X00975Y01539*
X00974Y01538*
X00972Y01537*
X00971Y01537*
X0097Y01536*
X00969Y01535*
X00968Y01534*
X00967Y01533*
X00966Y01532*
X00965Y01531*
X00964Y0153*
X00963Y01529*
X00963Y01528*
X00962Y01526*
X00962Y01525*
X00962Y01524*
X00961Y01522*
X00961Y01521*
X00961Y0152*
X00961Y01518*
X00961Y01517*
X00962Y01515*
X00962Y01514*
X00962Y01513*
X00963Y01511*
X00963Y0151*
X00964Y01509*
X00965Y01508*
X00966Y01507*
X00967Y01506*
X00968Y01505*
X00969Y01504*
X0097Y01503*
X00971Y01502*
X00972Y01502*
X00974Y01501*
X00975Y015*
X00976Y015*
X00978Y015*
X00979Y015*
X0098Y015*
X00982*
X00983Y015*
X00985Y015*
X00986Y015*
X00987Y015*
X00989Y01501*
X0099Y01502*
X00991Y01502*
X00992Y01503*
X00993Y01504*
X00994Y01505*
X00995Y01506*
X00996Y01507*
X00997Y01508*
X00998Y01509*
X00999Y0151*
X00999Y01511*
X01Y01513*
X01Y01514*
X01001Y01515*
X01001Y01517*
X01001Y01518*
X01001Y0152*
X00081Y0088D02*
D01*
X00081Y00881*
X00081Y00882*
X00081Y00884*
X0008Y00885*
X0008Y00886*
X00079Y00888*
X00079Y00889*
X00078Y0089*
X00077Y00891*
X00076Y00892*
X00075Y00893*
X00074Y00894*
X00073Y00895*
X00072Y00896*
X00071Y00897*
X0007Y00897*
X00069Y00898*
X00067Y00899*
X00066Y00899*
X00065Y00899*
X00063Y00899*
X00062Y00899*
X0006*
X00059Y00899*
X00058Y00899*
X00056Y00899*
X00055Y00899*
X00054Y00898*
X00052Y00897*
X00051Y00897*
X0005Y00896*
X00049Y00895*
X00048Y00894*
X00047Y00893*
X00046Y00892*
X00045Y00891*
X00044Y0089*
X00043Y00889*
X00043Y00888*
X00042Y00886*
X00042Y00885*
X00042Y00884*
X00041Y00882*
X00041Y00881*
X00041Y0088*
X00041Y00878*
X00041Y00877*
X00042Y00875*
X00042Y00874*
X00042Y00873*
X00043Y00871*
X00043Y0087*
X00044Y00869*
X00045Y00868*
X00046Y00867*
X00047Y00866*
X00048Y00865*
X00049Y00864*
X0005Y00863*
X00051Y00862*
X00052Y00862*
X00054Y00861*
X00055Y0086*
X00056Y0086*
X00058Y0086*
X00059Y0086*
X0006Y0086*
X00062*
X00063Y0086*
X00065Y0086*
X00066Y0086*
X00067Y0086*
X00069Y00861*
X0007Y00862*
X00071Y00862*
X00072Y00863*
X00073Y00864*
X00074Y00865*
X00075Y00866*
X00076Y00867*
X00077Y00868*
X00078Y00869*
X00079Y0087*
X00079Y00871*
X0008Y00873*
X0008Y00874*
X00081Y00875*
X00081Y00877*
X00081Y00878*
X00081Y0088*
X00278D02*
D01*
X00278Y00881*
X00278Y00882*
X00277Y00884*
X00277Y00885*
X00277Y00886*
X00276Y00888*
X00276Y00889*
X00275Y0089*
X00274Y00891*
X00273Y00892*
X00272Y00893*
X00271Y00894*
X0027Y00895*
X00269Y00896*
X00268Y00897*
X00267Y00897*
X00265Y00898*
X00264Y00899*
X00263Y00899*
X00261Y00899*
X0026Y00899*
X00259Y00899*
X00257*
X00256Y00899*
X00254Y00899*
X00253Y00899*
X00252Y00899*
X0025Y00898*
X00249Y00897*
X00248Y00897*
X00247Y00896*
X00246Y00895*
X00245Y00894*
X00244Y00893*
X00243Y00892*
X00242Y00891*
X00241Y0089*
X0024Y00889*
X0024Y00888*
X00239Y00886*
X00239Y00885*
X00238Y00884*
X00238Y00882*
X00238Y00881*
X00238Y0088*
X00238Y00878*
X00238Y00877*
X00238Y00875*
X00239Y00874*
X00239Y00873*
X0024Y00871*
X0024Y0087*
X00241Y00869*
X00242Y00868*
X00243Y00867*
X00244Y00866*
X00245Y00865*
X00246Y00864*
X00247Y00863*
X00248Y00862*
X00249Y00862*
X0025Y00861*
X00252Y0086*
X00253Y0086*
X00254Y0086*
X00256Y0086*
X00257Y0086*
X00259*
X0026Y0086*
X00261Y0086*
X00263Y0086*
X00264Y0086*
X00265Y00861*
X00267Y00862*
X00268Y00862*
X00269Y00863*
X0027Y00864*
X00271Y00865*
X00272Y00866*
X00273Y00867*
X00274Y00868*
X00275Y00869*
X00276Y0087*
X00276Y00871*
X00277Y00873*
X00277Y00874*
X00277Y00875*
X00278Y00877*
X00278Y00878*
X00278Y0088*
M02*