%FSTAX23Y23*%
%MOIN*%
%SFA1B1*%

%IPPOS*%
%ADD9500C,0.028000*%
%ADD9501C,0.031500*%
%ADD9502C,0.035430*%
%ADD9503C,0.078000*%
%LNrazbot_v02-1*%
%LPD*%
G54D9500*
X0068Y0047D03*
X00685Y0054D03*
X0077Y0069D03*
X0097Y0074D03*
X0102Y006D03*
X0115Y0059D03*
X0122Y00625D03*
X01295Y00665D03*
X0138Y0071D03*
X01395Y0059D03*
X01435Y0053D03*
X01485Y00475D03*
X01645Y00405D03*
X01735Y0046D03*
X01775Y0052D03*
X01845D03*
X0187Y00455D03*
X0188Y007D03*
X02Y00635D03*
X0194Y00895D03*
X0178Y01D03*
X01825Y01055D03*
X01495Y0108D03*
X0141Y01025D03*
X0132Y0104D03*
X0137Y00915D03*
X0123Y00755D03*
X0165Y00815D03*
X0086Y0095D03*
X0092Y01025D03*
X0103Y0029D03*
X00645Y00375D03*
X006Y00475D03*
X0046Y0059D03*
X00475Y0072D03*
X00625Y0071D03*
X00465Y0096D03*
X0017Y0068D03*
X001Y004D03*
X00455Y00295D03*
X002Y01145D03*
X0028Y0139D03*
X0035D03*
Y01555D03*
X0028Y0151D03*
X0077Y0145D03*
X01005Y01145D03*
X01225Y0126D03*
X01385Y0123D03*
X01435Y01125D03*
X01565Y0132D03*
X0148Y01425D03*
X0141D03*
X0125Y016D03*
X0126Y018D03*
X01205Y01965D03*
X01265Y021D03*
X0146Y0206D03*
X01565D03*
X01695Y0198D03*
X0168Y01875D03*
X0161Y0173D03*
X01855Y01755D03*
Y0168D03*
X0185Y016D03*
Y01205D03*
X01725Y02175D03*
X01835Y0239D03*
X01885Y02515D03*
X014Y02445D03*
X01285Y02315D03*
G54D9501*
X00061Y0088D03*
X00258D03*
X00981Y0152D03*
X01178D03*
G54D9502*
X007Y001D03*
X008D03*
X01D03*
X011D03*
X0138Y0008D03*
Y0018D03*
Y0028D03*
X0156D03*
Y0018D03*
Y0008D03*
X0174D03*
Y0018D03*
Y0028D03*
X0192D03*
Y0018D03*
Y0008D03*
X0208D03*
Y0018D03*
Y0028D03*
Y0038D03*
Y0048D03*
X021Y011D03*
X02D03*
X0112Y01092D03*
Y009D03*
X005Y001D03*
X004D03*
X002D03*
X001D03*
X0162Y014D03*
X0172D03*
Y015D03*
X0162D03*
Y016D03*
X0172D03*
X02D03*
Y015D03*
Y014D03*
Y013D03*
Y012D03*
X021D03*
Y013D03*
Y014D03*
Y015D03*
Y016D03*
Y017D03*
X02D03*
Y018D03*
X021D03*
Y019D03*
X02D03*
Y02D03*
X021D03*
Y021D03*
X02D03*
Y022D03*
X021D03*
Y023D03*
X02D03*
G54D9503*
X002Y0214D03*
Y0238D03*
X0048D03*
Y0214D03*
M02*