%FSTAX23Y23*%
%MOIN*%
%SFA1B1*%

%IPPOS*%
%ADD33C,0.000000*%
%LNrazbot_v02-1*%
%LPD*%
G54D33*
X02082Y011D02*
X02117D01*
X021Y01082D02*
Y01117D01*
X01982Y011D02*
X02017D01*
X02Y01082D02*
Y01117D01*
X02082Y012D02*
X02117D01*
X021Y01182D02*
Y01217D01*
X01982Y012D02*
X02017D01*
X02Y01182D02*
Y01217D01*
X02082Y013D02*
X02117D01*
X021Y01282D02*
Y01317D01*
X01982Y013D02*
X02017D01*
X02Y01282D02*
Y01317D01*
X02082Y014D02*
X02117D01*
X021Y01382D02*
Y01417D01*
X01982Y014D02*
X02017D01*
X02Y01382D02*
Y01417D01*
X02082Y015D02*
X02117D01*
X021Y01482D02*
Y01517D01*
X01982Y015D02*
X02017D01*
X02Y01482D02*
Y01517D01*
X02082Y016D02*
X02117D01*
X021Y01582D02*
Y01617D01*
X01982Y016D02*
X02017D01*
X02Y01582D02*
Y01617D01*
X02082Y017D02*
X02117D01*
X021Y01682D02*
Y01717D01*
X01982Y017D02*
X02017D01*
X02Y01682D02*
Y01717D01*
X02082Y018D02*
X02117D01*
X021Y01782D02*
Y01817D01*
X01982Y018D02*
X02017D01*
X02Y01782D02*
Y01817D01*
X02082Y019D02*
X02117D01*
X021Y01882D02*
Y01917D01*
X01982Y019D02*
X02017D01*
X02Y01882D02*
Y01917D01*
X02082Y02D02*
X02117D01*
X021Y01982D02*
Y02017D01*
X01982Y02D02*
X02017D01*
X02Y01982D02*
Y02017D01*
X02082Y021D02*
X02117D01*
X021Y02082D02*
Y02117D01*
X01982Y021D02*
X02017D01*
X02Y02082D02*
Y02117D01*
X02082Y022D02*
X02117D01*
X021Y02182D02*
Y02217D01*
X01982Y022D02*
X02017D01*
X02Y02182D02*
Y02217D01*
X02082Y023D02*
X02117D01*
X021Y02282D02*
Y02317D01*
X01982Y023D02*
X02017D01*
X02Y02282D02*
Y02317D01*
X01162Y0152D02*
X01194D01*
X01178Y01504D02*
Y01535D01*
X00965Y0152D02*
X00997D01*
X00981Y01504D02*
Y01535D01*
X01362Y0008D02*
X01397D01*
X0138Y00062D02*
Y00097D01*
X01362Y0018D02*
X01397D01*
X0138Y00162D02*
Y00197D01*
X01362Y0028D02*
X01397D01*
X0138Y00262D02*
Y00297D01*
X01722Y0008D02*
X01757D01*
X0174Y00062D02*
Y00097D01*
X01722Y0018D02*
X01757D01*
X0174Y00162D02*
Y00197D01*
X01722Y0028D02*
X01757D01*
X0174Y00262D02*
Y00297D01*
X01902Y0008D02*
X01937D01*
X0192Y00062D02*
Y00097D01*
X01902Y0018D02*
X01937D01*
X0192Y00162D02*
Y00197D01*
X01902Y0028D02*
X01937D01*
X0192Y00262D02*
Y00297D01*
X01542Y0008D02*
X01577D01*
X0156Y00062D02*
Y00097D01*
X01542Y0018D02*
X01577D01*
X0156Y00162D02*
Y00197D01*
X01542Y0028D02*
X01577D01*
X0156Y00262D02*
Y00297D01*
X01102Y009D02*
X01137D01*
X0112Y00882D02*
Y00917D01*
X01102Y01092D02*
X01137D01*
X0112Y01074D02*
Y01109D01*
X01702Y014D02*
X01737D01*
X0172Y01382D02*
Y01417D01*
X01602Y014D02*
X01637D01*
X0162Y01382D02*
Y01417D01*
X01702Y015D02*
X01737D01*
X0172Y01482D02*
Y01517D01*
X01602Y015D02*
X01637D01*
X0162Y01482D02*
Y01517D01*
X01702Y016D02*
X01737D01*
X0172Y01582D02*
Y01617D01*
X01602Y016D02*
X01637D01*
X0162Y01582D02*
Y01617D01*
X00982Y001D02*
X01017D01*
X01Y00082D02*
Y00117D01*
X01082Y001D02*
X01117D01*
X011Y00082D02*
Y00117D01*
X00682Y001D02*
X00717D01*
X007Y00082D02*
Y00117D01*
X00782Y001D02*
X00817D01*
X008Y00082D02*
Y00117D01*
X00382Y001D02*
X00417D01*
X004Y00082D02*
Y00117D01*
X00482Y001D02*
X00517D01*
X005Y00082D02*
Y00117D01*
X00082Y001D02*
X00117D01*
X001Y00082D02*
Y00117D01*
X00182Y001D02*
X00217D01*
X002Y00082D02*
Y00117D01*
X00045Y0088D02*
X00077D01*
X00061Y00864D02*
Y00895D01*
X00242Y0088D02*
X00274D01*
X00258Y00864D02*
Y00895D01*
X00161Y0238D02*
X00239D01*
X002Y02341D02*
Y02419D01*
X00161Y0214D02*
X00239D01*
X002Y02101D02*
Y02179D01*
X00441Y0238D02*
X00519D01*
X0048Y02341D02*
Y02419D01*
X00441Y0214D02*
X00519D01*
X0048Y02101D02*
Y02179D01*
X02062Y0048D02*
X02097D01*
X0208Y00462D02*
Y00497D01*
X02062Y0038D02*
X02097D01*
X0208Y00362D02*
Y00397D01*
X02062Y0028D02*
X02097D01*
X0208Y00262D02*
Y00297D01*
X02062Y0018D02*
X02097D01*
X0208Y00162D02*
Y00197D01*
X02062Y0008D02*
X02097D01*
X0208Y00062D02*
Y00097D01*
X01821Y0239D02*
X01849D01*
X01835Y02376D02*
Y02404D01*
X01986Y00635D02*
X02014D01*
X02Y00621D02*
Y00649D01*
X01836Y016D02*
X01864D01*
X0185Y01586D02*
Y01614D01*
X01386Y02445D02*
X01414D01*
X014Y02431D02*
Y02459D01*
X01596Y0173D02*
X01624D01*
X0161Y01716D02*
Y01744D01*
X01711Y02175D02*
X01739D01*
X01725Y02161D02*
Y02189D01*
X01551Y0206D02*
X01579D01*
X01565Y02046D02*
Y02074D01*
X01446Y0206D02*
X01474D01*
X0146Y02046D02*
Y02074D01*
X01191Y01965D02*
X01219D01*
X01205Y01951D02*
Y01979D01*
X01251Y021D02*
X01279D01*
X01265Y02086D02*
Y02114D01*
X01681Y0198D02*
X01709D01*
X01695Y01966D02*
Y01994D01*
X01666Y01875D02*
X01694D01*
X0168Y01861D02*
Y01889D01*
X01871Y02515D02*
X01899D01*
X01885Y02501D02*
Y02529D01*
X00186Y01145D02*
X00214D01*
X002Y01131D02*
Y01159D01*
X00756Y0145D02*
X00784D01*
X0077Y01436D02*
Y01464D01*
X00336Y01555D02*
X00364D01*
X0035Y01541D02*
Y01569D01*
X00336Y0139D02*
X00364D01*
X0035Y01376D02*
Y01404D01*
X00266Y0139D02*
X00294D01*
X0028Y01376D02*
Y01404D01*
X00266Y0151D02*
X00294D01*
X0028Y01496D02*
Y01524D01*
X01246Y018D02*
X01274D01*
X0126Y01786D02*
Y01814D01*
X00631Y00375D02*
X00659D01*
X00645Y00361D02*
Y00389D01*
X01271Y02315D02*
X01299D01*
X01285Y02301D02*
Y02329D01*
X01366Y0071D02*
X01394D01*
X0138Y00696D02*
Y00724D01*
X00846Y0095D02*
X00874D01*
X0086Y00936D02*
Y00964D01*
X00446Y0059D02*
X00474D01*
X0046Y00576D02*
Y00604D01*
X00956Y0074D02*
X00984D01*
X0097Y00726D02*
Y00754D01*
X00611Y0071D02*
X00639D01*
X00625Y00696D02*
Y00724D01*
X00156Y0068D02*
X00184D01*
X0017Y00666D02*
Y00694D01*
X00086Y004D02*
X00114D01*
X001Y00386D02*
Y00414D01*
X01016Y0029D02*
X01044D01*
X0103Y00276D02*
Y00304D01*
X00441Y00295D02*
X00469D01*
X00455Y00281D02*
Y00309D01*
X00756Y0069D02*
X00784D01*
X0077Y00676D02*
Y00704D01*
X00586Y00475D02*
X00614D01*
X006Y00461D02*
Y00489D01*
X00666Y0047D02*
X00694D01*
X0068Y00456D02*
Y00484D01*
X01471Y00475D02*
X01499D01*
X01485Y00461D02*
Y00489D01*
X01421Y0053D02*
X01449D01*
X01435Y00516D02*
Y00544D01*
X01006Y006D02*
X01034D01*
X0102Y00586D02*
Y00614D01*
X01381Y0059D02*
X01409D01*
X01395Y00576D02*
Y00604D01*
X00671Y0054D02*
X00699D01*
X00685Y00526D02*
Y00554D01*
X00461Y0072D02*
X00489D01*
X00475Y00706D02*
Y00734D01*
X01926Y00895D02*
X01954D01*
X0194Y00881D02*
Y00909D01*
X01811Y01055D02*
X01839D01*
X01825Y01041D02*
Y01069D01*
X01631Y00405D02*
X01659D01*
X01645Y00391D02*
Y00419D01*
X01866Y007D02*
X01894D01*
X0188Y00686D02*
Y00714D01*
X01856Y00455D02*
X01884D01*
X0187Y00441D02*
Y00469D01*
X01766Y01D02*
X01794D01*
X0178Y00986D02*
Y01014D01*
X01306Y0104D02*
X01334D01*
X0132Y01026D02*
Y01054D01*
X01206Y00625D02*
X01234D01*
X0122Y00611D02*
Y00639D01*
X01136Y0059D02*
X01164D01*
X0115Y00576D02*
Y00604D01*
X01281Y00665D02*
X01309D01*
X01295Y00651D02*
Y00679D01*
X01831Y0052D02*
X01859D01*
X01845Y00506D02*
Y00534D01*
X01721Y0046D02*
X01749D01*
X01735Y00446D02*
Y00474D01*
X01761Y0052D02*
X01789D01*
X01775Y00506D02*
Y00534D01*
X01216Y00755D02*
X01244D01*
X0123Y00741D02*
Y00769D01*
X01636Y00815D02*
X01664D01*
X0165Y00801D02*
Y00829D01*
X01356Y00915D02*
X01384D01*
X0137Y00901D02*
Y00929D01*
X01371Y0123D02*
X01399D01*
X01385Y01216D02*
Y01244D01*
X01211Y0126D02*
X01239D01*
X01225Y01246D02*
Y01274D01*
X01421Y01125D02*
X01449D01*
X01435Y01111D02*
Y01139D01*
X01481Y0108D02*
X01509D01*
X01495Y01066D02*
Y01094D01*
X00451Y0096D02*
X00479D01*
X00465Y00946D02*
Y00974D01*
X01396Y01025D02*
X01424D01*
X0141Y01011D02*
Y01039D01*
X01836Y01205D02*
X01864D01*
X0185Y01191D02*
Y01219D01*
X01551Y0132D02*
X01579D01*
X01565Y01306D02*
Y01334D01*
X01396Y01425D02*
X01424D01*
X0141Y01411D02*
Y01439D01*
X01466Y01425D02*
X01494D01*
X0148Y01411D02*
Y01439D01*
X01841Y0168D02*
X01869D01*
X01855Y01666D02*
Y01694D01*
X01841Y01755D02*
X01869D01*
X01855Y01741D02*
Y01769D01*
X01236Y016D02*
X01264D01*
X0125Y01586D02*
Y01614D01*
X00906Y01025D02*
X00934D01*
X0092Y01011D02*
Y01039D01*
X00991Y01145D02*
X01019D01*
X01005Y01131D02*
Y01159D01*
M02*