%FSTAX23Y23*%
%MOIN*%
%SFA1B1*%

%IPPOS*%
%ADD26C,0.007870*%
%ADD27C,0.011810*%
%ADD28C,0.059060*%
%ADD30C,0.013780*%
%ADD31C,0.047240*%
%ADD32C,0.010000*%
%ADD34C,0.031500*%
%ADD37C,0.059060*%
%ADD38R,0.059060X0.059060*%
%ADD39C,0.053150*%
%ADD40R,0.053150X0.053150*%
%ADD41C,0.059060*%
%ADD42R,0.059060X0.059060*%
%ADD43C,0.150000*%
%ADD44C,0.050000*%
%LNrazbot_v02-1*%
%LPD*%
G36*
X0215Y00025D02*
X00025D01*
Y00847*
X00029*
X00094*
Y00912*
X00029*
X00028*
X00025Y00916*
Y02525*
X01851*
X01854Y02521*
X01853Y02515*
X01854Y02506*
X01858Y02499*
X01862Y02492*
X01869Y02488*
X01871Y02486*
Y02445*
X01845Y02419*
X01843Y0242*
X01835Y02421*
X01826Y0242*
X01819Y02417*
X01812Y02412*
X01808Y02405*
X01804Y02398*
X01803Y0239*
X01804Y02381*
X01808Y02374*
X01812Y02367*
X01819Y02363*
X01826Y02359*
X01835Y02358*
X01843Y02359*
X0185Y02363*
X01857Y02367*
X01862Y02374*
X01865Y02381*
X01866Y0239*
X01865Y02398*
X01864Y024*
X01894Y0243*
X01897Y02435*
X01898Y0244*
Y02486*
X019Y02488*
X01907Y02492*
X01912Y02499*
X01915Y02506*
X01916Y02515*
X01915Y02523*
X01916Y02525*
X0215*
Y00025*
G37*
%LNrazbot_v02-2*%
%LPC*%
G36*
X0138Y00741D02*
X01371Y0074D01*
X01364Y00737*
X01357Y00732*
X01353Y00725*
X01349Y00718*
X01348Y0071*
X01349Y00701*
X01353Y00694*
X01357Y00687*
X01364Y00683*
X01371Y00679*
X0138Y00678*
X01388Y00679*
X01395Y00683*
X01402Y00687*
X01407Y00694*
X0141Y00701*
X01411Y0071*
X0141Y00718*
X01407Y00725*
X01402Y00732*
X01395Y00737*
X01388Y0074*
X0138Y00741*
G37*
G36*
X00165Y0071D02*
X00161Y0071D01*
X00154Y00707*
X00147Y00702*
X00143Y00695*
X00139Y00688*
X00139Y00685*
X00165*
Y0071*
G37*
G36*
X0112Y01127D02*
X0111Y01126D01*
X01102Y01122*
X01094Y01117*
X01089Y01109*
X01085Y01101*
X01084Y01092*
X01085Y01082*
X01089Y01074*
X01094Y01066*
X01102Y01061*
X0111Y01057*
X0112Y01056*
X01129Y01057*
X01137Y01061*
X01145Y01066*
X0115Y01074*
X01152Y01078*
X01157Y01079*
X01174Y01062*
Y00675*
X01175Y00671*
X01177Y00667*
X01181Y00665*
X01184Y00665*
X01184Y0066*
X01154*
X0115Y00664*
Y0088*
X0115Y00882*
X01154Y0089*
X01155Y009*
X01154Y00909*
X0115Y00917*
X0115Y00919*
Y0092*
X01149Y00923*
X01147Y00927*
X01143Y00929*
X0114Y0093*
X01139Y00929*
X01137Y0093*
X01129Y00934*
X0112Y00935*
X0111Y00934*
X01102Y0093*
X01094Y00925*
X01089Y00917*
X01085Y00909*
X01084Y009*
X01085Y0089*
X01089Y00882*
X01094Y00874*
X01102Y00869*
X0111Y00865*
X0112Y00864*
X01126Y00865*
X01129Y00861*
Y0066*
X0113Y00656*
X01132Y00652*
X01142Y00642*
X01145Y00641*
X01146Y0064*
X0115Y00639*
X01188*
X01191Y00635*
X01189Y00633*
X01188Y00625*
X01189Y00616*
X01193Y00609*
X01197Y00602*
X01204Y00598*
X01211Y00594*
X0122Y00593*
X01228Y00594*
X01235Y00598*
X01242Y00602*
X01247Y00609*
X0125Y00616*
X01251Y00625*
X0125Y00633*
X01247Y0064*
X01242Y00647*
X01235Y00652*
X01228Y00655*
X0122Y00656*
X01211Y00655*
X01206Y00652*
X01202Y00657*
X01198Y00659*
X01195Y00659*
X01195Y00664*
X01263*
X01264Y00656*
X01268Y00649*
X01272Y00642*
X01279Y00638*
X01286Y00634*
X01295Y00633*
X01303Y00634*
X0131Y00638*
X01317Y00642*
X01322Y00649*
X01325Y00656*
X01326Y00665*
X01325Y00673*
X01322Y0068*
X01317Y00687*
X0131Y00692*
X01303Y00695*
X01295Y00696*
X01286Y00695*
X01279Y00692*
X01272Y00687*
X01271Y00685*
X01195*
Y00745*
X01199Y00746*
X01203Y00739*
X01207Y00732*
X01214Y00728*
X01221Y00724*
X01225Y00724*
Y00754*
Y00785*
X01221Y00785*
X01214Y00782*
X01207Y00777*
X01203Y0077*
X01199Y00763*
X01195Y00764*
Y01067*
X01194Y0107*
X01193Y01071*
X01192Y01074*
X01167Y01099*
X01163Y01101*
X0116Y01102*
X01154*
X0115Y01109*
X01145Y01117*
X01137Y01122*
X01129Y01126*
X0112Y01127*
G37*
G36*
X00765Y00685D02*
X00739D01*
X00739Y00681*
X00743Y00674*
X00747Y00667*
X00754Y00663*
X00761Y00659*
X00765Y00659*
Y00685*
G37*
G36*
X008D02*
X00775D01*
Y00659*
X00778Y00659*
X00785Y00663*
X00792Y00667*
X00797Y00674*
X008Y00681*
X008Y00685*
G37*
G36*
X00765Y0072D02*
X00761Y0072D01*
X00754Y00717*
X00747Y00712*
X00743Y00705*
X00739Y00698*
X00739Y00695*
X00765*
Y0072*
G37*
G36*
X00775D02*
Y00695D01*
X008*
X008Y00698*
X00797Y00705*
X00792Y00712*
X00785Y00717*
X00778Y0072*
X00775Y0072*
G37*
G36*
X00505Y00715D02*
X0048D01*
Y00689*
X00483Y00689*
X0049Y00693*
X00497Y00697*
X00502Y00704*
X00505Y00711*
X00505Y00715*
G37*
G36*
X00175Y0071D02*
Y00685D01*
X002*
X002Y00688*
X00197Y00695*
X00192Y00702*
X00185Y00707*
X00178Y0071*
X00175Y0071*
G37*
G36*
X0047Y00715D02*
X00444D01*
X00444Y00711*
X00448Y00704*
X00452Y00697*
X00459Y00693*
X00466Y00689*
X0047Y00689*
Y00715*
G37*
G36*
X0208Y00415D02*
X0207Y00414D01*
X02062Y0041*
X02054Y00405*
X02049Y00397*
X02045Y00389*
X02044Y0038*
X02045Y0037*
X02049Y00362*
X02054Y00354*
X02062Y00349*
X0207Y00345*
X0208Y00344*
X02089Y00345*
X02097Y00349*
X02105Y00354*
X0211Y00362*
X02114Y0037*
X02115Y0038*
X02114Y00389*
X0211Y00397*
X02105Y00405*
X02097Y0041*
X02089Y00414*
X0208Y00415*
G37*
G36*
X02115Y00515D02*
X02044D01*
Y00444*
X02115*
Y00515*
G37*
G36*
X001Y00431D02*
X00091Y0043D01*
X00084Y00427*
X00077Y00422*
X00073Y00415*
X00069Y00408*
X00068Y004*
X00069Y00391*
X00073Y00384*
X00077Y00377*
X00084Y00373*
X00085Y00372*
X00103Y00353*
X0011Y00349*
X00117Y00346*
X00125Y00345*
X00636*
X00636Y00344*
X00645Y00343*
X00653Y00344*
X0066Y00348*
X00667Y00352*
X00672Y00359*
X00675Y00366*
X00676Y00375*
X00675Y00383*
X00672Y0039*
X00667Y00397*
X0066Y00402*
X00653Y00405*
X00645Y00406*
X00636Y00405*
X00636Y00404*
X00137*
X00127Y00414*
X00127Y00415*
X00122Y00422*
X00115Y00427*
X00108Y0043*
X001Y00431*
G37*
G36*
X0045Y00325D02*
X00446Y00325D01*
X00439Y00322*
X00432Y00317*
X00428Y0031*
X00424Y00303*
X00424Y003*
X0045*
Y00325*
G37*
G36*
X0046D02*
Y003D01*
X00485*
X00485Y00303*
X00482Y0031*
X00477Y00317*
X0047Y00322*
X00463Y00325*
X0046Y00325*
G37*
G36*
X00165Y00675D02*
X00139D01*
X00139Y00671*
X00143Y00664*
X00147Y00657*
X00154Y00653*
X00161Y00649*
X00165Y00649*
Y00675*
G37*
G36*
X002D02*
X00175D01*
Y00649*
X00178Y00649*
X00185Y00653*
X00192Y00657*
X00197Y00664*
X002Y00671*
X002Y00675*
G37*
G36*
X01155Y0062D02*
Y00595D01*
X0118*
X0118Y00598*
X01177Y00605*
X01172Y00612*
X01165Y00617*
X01158Y0062*
X01155Y0062*
G37*
G36*
X01485Y00506D02*
X01476Y00505D01*
X01469Y00502*
X01462Y00497*
X01458Y0049*
X01456Y00487*
X00705*
X00702Y00492*
X00695Y00497*
X00688Y005*
X0068Y00501*
X00671Y005*
X00664Y00497*
X00657Y00492*
X00653Y00485*
X00649Y00478*
X00648Y0047*
X00649Y00461*
X00653Y00454*
X00657Y00447*
X00664Y00443*
X00671Y00439*
X0068Y00438*
X00688Y00439*
X00695Y00443*
X00702Y00447*
X00707Y00454*
X0071Y00461*
X0071Y00462*
X01456*
X01458Y00459*
X01462Y00452*
X01469Y00448*
X01476Y00444*
X01485Y00443*
X01493Y00444*
X015Y00448*
X01507Y00452*
X01512Y00459*
X01515Y00466*
X01516Y00475*
X01515Y00483*
X01512Y0049*
X01507Y00497*
X015Y00502*
X01493Y00505*
X01485Y00506*
G37*
G36*
X01145Y0062D02*
X01141Y0062D01*
X01134Y00617*
X01127Y00612*
X01123Y00605*
X01119Y00598*
X01119Y00595*
X01145*
Y0062*
G37*
G36*
X0126Y0075D02*
X01235D01*
Y00724*
X01238Y00724*
X01245Y00728*
X01252Y00732*
X01257Y00739*
X0126Y00746*
X0126Y0075*
G37*
G36*
X01325Y0107D02*
Y01045D01*
X0135*
X0135Y01048*
X01347Y01055*
X01342Y01062*
X01335Y01067*
X01328Y0107*
X01325Y0107*
G37*
G36*
X021Y01135D02*
X0209Y01134D01*
X02082Y0113*
X02074Y01125*
X02069Y01117*
X02065Y01109*
X02064Y011*
X02065Y0109*
X02069Y01082*
X02074Y01074*
X02082Y01069*
X0209Y01065*
X021Y01064*
X02109Y01065*
X02117Y01069*
X02125Y01074*
X0213Y01082*
X02134Y0109*
X02135Y011*
X02134Y01109*
X0213Y01117*
X02125Y01125*
X02117Y0113*
X02109Y01134*
X021Y01135*
G37*
G36*
X01315Y0107D02*
X01311Y0107D01*
X01304Y01067*
X01297Y01062*
X01293Y01055*
X01289Y01048*
X01289Y01045*
X01315*
Y0107*
G37*
G36*
Y01035D02*
X01289D01*
X01289Y01031*
X01293Y01024*
X01297Y01017*
X01304Y01013*
X01311Y01009*
X01315Y01009*
Y01035*
G37*
G36*
X0135D02*
X01325D01*
Y01009*
X01328Y01009*
X01335Y01013*
X01342Y01017*
X01347Y01024*
X0135Y01031*
X0135Y01035*
G37*
G36*
X02005Y01135D02*
Y01105D01*
X02035*
X02034Y01109*
X0203Y01117*
X02025Y01125*
X02017Y0113*
X02009Y01134*
X02005Y01135*
G37*
G36*
X00195Y0114D02*
X00169D01*
X00169Y01136*
X00173Y01129*
X00177Y01122*
X00184Y01118*
X00191Y01114*
X00195Y01114*
Y0114*
G37*
G36*
X01995Y01135D02*
X0199Y01134D01*
X01982Y0113*
X01974Y01125*
X01969Y01117*
X01965Y01109*
X01964Y01105*
X01995*
Y01135*
G37*
G36*
Y01095D02*
X01964D01*
X01965Y0109*
X01969Y01082*
X01974Y01074*
X01982Y01069*
X0199Y01065*
X01995Y01064*
Y01095*
G37*
G36*
X02035D02*
X02005D01*
Y01064*
X02009Y01065*
X02017Y01069*
X02025Y01074*
X0203Y01082*
X02034Y0109*
X02035Y01095*
G37*
G36*
X01235Y00785D02*
Y0076D01*
X0126*
X0126Y00763*
X01257Y0077*
X01252Y00777*
X01245Y00782*
X01238Y00785*
X01235Y00785*
G37*
G36*
X0137Y00946D02*
X01361Y00945D01*
X01354Y00942*
X01347Y00937*
X01343Y0093*
X01339Y00923*
X01338Y00915*
X01339Y00906*
X01343Y00899*
X01347Y00892*
X01354Y00888*
X01361Y00884*
X0137Y00883*
X01378Y00884*
X01385Y00888*
X01392Y00892*
X01397Y00899*
X01399Y00904*
X01545*
X01622Y00828*
X01619Y00823*
X01618Y00815*
X01619Y00806*
X01623Y00799*
X01627Y00792*
X01634Y00788*
X01641Y00784*
X0165Y00783*
X01658Y00784*
X01665Y00788*
X01672Y00792*
X01677Y00799*
X0168Y00806*
X01681Y00815*
X0168Y00823*
X01677Y0083*
X01672Y00837*
X01665Y00842*
X01658Y00845*
X0165Y00846*
X01641Y00845*
X01636Y00842*
X01557Y00922*
X01553Y00924*
X0155Y00925*
X01399*
X01397Y0093*
X01392Y00937*
X01385Y00942*
X01378Y00945*
X0137Y00946*
G37*
G36*
X0086Y00981D02*
X00851Y0098D01*
X00844Y00977*
X00837Y00972*
X00833Y00965*
X00829Y00958*
X00828Y0095*
X00829Y00941*
X00833Y00934*
X00837Y00927*
X00844Y00923*
X00851Y00919*
X0086Y00918*
X00868Y00919*
X00871Y00921*
X01002Y0079*
Y00754*
X00998Y00753*
X00997Y00755*
X00992Y00762*
X00985Y00767*
X00978Y0077*
X0097Y00771*
X00961Y0077*
X00954Y00767*
X00947Y00762*
X00943Y00755*
X00941Y00752*
X00655*
X0065Y00751*
X00646Y00748*
X00636Y00738*
X00633Y0074*
X00625Y00741*
X00616Y0074*
X00609Y00737*
X00602Y00732*
X00598Y00725*
X00594Y00718*
X00593Y0071*
X00594Y00701*
X00598Y00694*
X00602Y00687*
X00609Y00683*
X00616Y00679*
X00625Y00678*
X00633Y00679*
X0064Y00683*
X00647Y00687*
X00652Y00694*
X00655Y00701*
X00656Y0071*
X00655Y00718*
X00653Y00721*
X00659Y00727*
X00941*
X00943Y00724*
X00947Y00717*
X00954Y00713*
X00961Y00709*
X0097Y00708*
X00978Y00709*
X00985Y00713*
X00992Y00717*
X00997Y00724*
X00998Y00726*
X01002Y00725*
Y00625*
X00997Y00622*
X00993Y00615*
X00991Y00611*
X00482*
X00482Y00612*
X00475Y00617*
X00468Y0062*
X0046Y00621*
X00451Y0062*
X00444Y00617*
X00437Y00612*
X00433Y00605*
X00429Y00598*
X00428Y0059*
X00429Y00581*
X00433Y00574*
X00437Y00567*
X00444Y00563*
X00451Y00559*
X0046Y00558*
X00468Y00559*
X00475Y00563*
X00482Y00567*
X00487Y00574*
X0049Y00581*
X0049Y00587*
X00638*
X0064Y00582*
X00631Y00573*
X00628Y00569*
X00627Y00565*
Y00529*
X00605Y00507*
X006*
X00595Y00506*
X00594Y00505*
X00591Y00505*
X00584Y00502*
X00577Y00497*
X00573Y0049*
X00569Y00483*
X00568Y00475*
X00569Y00466*
X00573Y00459*
X00577Y00452*
X00584Y00448*
X00591Y00444*
X006Y00443*
X00608Y00444*
X00615Y00448*
X00622Y00452*
X00627Y00459*
X0063Y00466*
X00631Y00475*
X0063Y00483*
X00627Y0049*
X00625Y00493*
X00648Y00516*
X00651Y0052*
X00652Y00525*
Y00525*
X00656Y00526*
X00658Y00524*
X00662Y00517*
X00669Y00513*
X00676Y00509*
X00685Y00508*
X00693Y00509*
X007Y00513*
X00707Y00517*
X00708Y00519*
X01405*
X01408Y00514*
X01412Y00507*
X01419Y00503*
X01426Y00499*
X01435Y00498*
X01443Y00499*
X0145Y00503*
X01457Y00507*
X01462Y00514*
X01465Y00521*
X01466Y0053*
X01465Y00538*
X01462Y00545*
X01457Y00552*
X0145Y00557*
X01443Y0056*
X01435Y00561*
X01426Y0056*
X01419Y00557*
X01412Y00552*
X01408Y00545*
X01405Y0054*
X01364*
X01363Y00544*
X01365Y00546*
X01381Y00562*
X01386Y00559*
X01395Y00558*
X01403Y00559*
X0141Y00563*
X01417Y00567*
X01422Y00574*
X01425Y00581*
X01426Y0059*
X01425Y00598*
X01422Y00605*
X01417Y00612*
X0141Y00617*
X01403Y0062*
X01395Y00621*
X01386Y0062*
X01379Y00617*
X01372Y00612*
X01368Y00605*
X01364Y00598*
X01363Y0059*
X01364Y00581*
X01367Y00576*
X01354Y00563*
X01173*
X01172Y00567*
X01177Y00574*
X0118Y00581*
X0118Y00585*
X01119*
X01119Y00581*
X01123Y00574*
X01127Y00567*
X01126Y00563*
X01003*
X00984Y00582*
X00986Y00587*
X00991*
X00993Y00584*
X00997Y00577*
X01004Y00573*
X01011Y00569*
X0102Y00568*
X01028Y00569*
X01035Y00573*
X01042Y00577*
X01047Y00584*
X0105Y00591*
X01051Y006*
X0105Y00608*
X01047Y00615*
X01042Y00622*
X01035Y00627*
X01028Y0063*
X01027Y0063*
Y00795*
X01026Y00799*
X01023Y00803*
X00888Y00938*
X0089Y00941*
X00891Y0095*
X0089Y00958*
X00887Y00965*
X00882Y00972*
X00875Y00977*
X00868Y0098*
X0086Y00981*
G37*
G36*
X0047Y0075D02*
X00466Y0075D01*
X00459Y00747*
X00452Y00742*
X00448Y00735*
X00444Y00728*
X00444Y00725*
X0047*
Y0075*
G37*
G36*
X0048D02*
Y00725D01*
X00505*
X00505Y00728*
X00502Y00735*
X00497Y00742*
X0049Y00747*
X00483Y0075*
X0048Y0075*
G37*
G36*
X00263Y00912D02*
Y00885D01*
X0029*
X0029Y00888*
X00286Y00896*
X00281Y00903*
X00274Y00908*
X00266Y00911*
X00263Y00912*
G37*
G36*
X0092Y01056D02*
X00911Y01055D01*
X00904Y01052*
X00897Y01047*
X00893Y0104*
X00889Y01033*
X00888Y01025*
X0052*
X00516Y01024*
X00515Y01023*
X00512Y01022*
X00478Y00987*
X00473Y0099*
X00465Y00991*
X00456Y0099*
X00449Y00987*
X00442Y00982*
X00438Y00975*
X00434Y00968*
X00433Y0096*
X00434Y00951*
X00438Y00944*
X00442Y00937*
X00449Y00933*
X00456Y00929*
X00465Y00928*
X00473Y00929*
X0048Y00933*
X00487Y00937*
X00492Y00944*
X00495Y00951*
X00496Y0096*
X00495Y00968*
X00492Y00973*
X00524Y01004*
X00896*
X00897Y01002*
X00904Y00998*
X00911Y00994*
X0092Y00993*
X00928Y00994*
X00935Y00998*
X00942Y01002*
X00947Y01009*
X0095Y01016*
X00951Y01025*
X0095Y01033*
X00947Y0104*
X00942Y01047*
X00935Y01052*
X00928Y01055*
X0092Y01056*
G37*
G36*
X00253Y00912D02*
X00249Y00911D01*
X00242Y00908*
X00235Y00903*
X0023Y00896*
X00226Y00888*
X00226Y00885*
X00253*
Y00912*
G37*
G36*
Y00875D02*
X00226D01*
X00226Y00871*
X0023Y00863*
X00235Y00856*
X00242Y00851*
X00249Y00848*
X00253Y00847*
Y00875*
G37*
G36*
X0029D02*
X00263D01*
Y00847*
X00266Y00848*
X00274Y00851*
X00281Y00856*
X00286Y00863*
X0029Y00871*
X0029Y00875*
G37*
G36*
X011Y00135D02*
X0109Y00134D01*
X01082Y0013*
X01074Y00125*
X01069Y00117*
X01065Y00109*
X01064Y001*
X01065Y0009*
X01069Y00082*
X01074Y00074*
X01082Y00069*
X0109Y00065*
X011Y00064*
X01109Y00065*
X01117Y00069*
X01125Y00074*
X0113Y00082*
X01134Y0009*
X01135Y001*
X01134Y00109*
X0113Y00117*
X01125Y00125*
X01117Y0013*
X01109Y00134*
X011Y00135*
G37*
G36*
X00135Y00135D02*
X00064D01*
Y00064*
X00135*
Y00135*
G37*
G36*
X008Y00135D02*
X0079Y00134D01*
X00782Y0013*
X00774Y00125*
X00769Y00117*
X00765Y00109*
X00764Y001*
X00765Y0009*
X00769Y00082*
X00774Y00074*
X00782Y00069*
X0079Y00065*
X008Y00064*
X00809Y00065*
X00817Y00069*
X00825Y00074*
X0083Y00082*
X00834Y0009*
X00835Y001*
X00834Y00109*
X0083Y00117*
X00825Y00125*
X00817Y0013*
X00809Y00134*
X008Y00135*
G37*
G36*
X002D02*
X0019Y00134D01*
X00182Y0013*
X00174Y00125*
X00169Y00117*
X00165Y00109*
X00164Y001*
X00165Y0009*
X00169Y00082*
X00174Y00074*
X00182Y00069*
X0019Y00065*
X002Y00064*
X00209Y00065*
X00217Y00069*
X00225Y00074*
X0023Y00082*
X00234Y0009*
X00235Y001*
X00234Y00109*
X0023Y00117*
X00225Y00125*
X00217Y0013*
X00209Y00134*
X002Y00135*
G37*
G36*
X005D02*
X0049Y00134D01*
X00482Y0013*
X00474Y00125*
X00469Y00117*
X00465Y00109*
X00464Y001*
X00465Y0009*
X00469Y00082*
X00474Y00074*
X00482Y00069*
X0049Y00065*
X005Y00064*
X00509Y00065*
X00517Y00069*
X00525Y00074*
X0053Y00082*
X00534Y0009*
X00535Y001*
X00534Y00109*
X0053Y00117*
X00525Y00125*
X00517Y0013*
X00509Y00134*
X005Y00135*
G37*
G36*
X01375Y00115D02*
X0137Y00114D01*
X01362Y0011*
X01354Y00105*
X01349Y00097*
X01345Y00089*
X01344Y00085*
X01375*
Y00115*
G37*
G36*
X01385D02*
Y00085D01*
X01415*
X01414Y00089*
X0141Y00097*
X01405Y00105*
X01397Y0011*
X01389Y00114*
X01385Y00115*
G37*
G36*
X01035Y00135D02*
X00964D01*
Y00064*
X01035*
Y00135*
G37*
G36*
X00435D02*
X00364D01*
Y00064*
X00435*
Y00135*
G37*
G36*
X00735D02*
X00664D01*
Y00064*
X00735*
Y00135*
G37*
G36*
X01595Y00075D02*
X01565D01*
Y00044*
X01569Y00045*
X01577Y00049*
X01585Y00054*
X0159Y00062*
X01594Y0007*
X01595Y00075*
G37*
G36*
X01735D02*
X01704D01*
X01705Y0007*
X01709Y00062*
X01714Y00054*
X01722Y00049*
X0173Y00045*
X01735Y00044*
Y00075*
G37*
G36*
X01555D02*
X01524D01*
X01525Y0007*
X01529Y00062*
X01534Y00054*
X01542Y00049*
X0155Y00045*
X01555Y00044*
Y00075*
G37*
G36*
X01375D02*
X01344D01*
X01345Y0007*
X01349Y00062*
X01354Y00054*
X01362Y00049*
X0137Y00045*
X01375Y00044*
Y00075*
G37*
G36*
X01415D02*
X01385D01*
Y00044*
X01389Y00045*
X01397Y00049*
X01405Y00054*
X0141Y00062*
X01414Y0007*
X01415Y00075*
G37*
G36*
X02075D02*
X02044D01*
X02045Y0007*
X02049Y00062*
X02054Y00054*
X02062Y00049*
X0207Y00045*
X02075Y00044*
Y00075*
G37*
G36*
X02115D02*
X02085D01*
Y00044*
X02089Y00045*
X02097Y00049*
X02105Y00054*
X0211Y00062*
X02114Y0007*
X02115Y00075*
G37*
G36*
X01955D02*
X01925D01*
Y00044*
X01929Y00045*
X01937Y00049*
X01945Y00054*
X0195Y00062*
X01954Y0007*
X01955Y00075*
G37*
G36*
X01775D02*
X01745D01*
Y00044*
X01749Y00045*
X01757Y00049*
X01765Y00054*
X0177Y00062*
X01774Y0007*
X01775Y00075*
G37*
G36*
X01915D02*
X01884D01*
X01885Y0007*
X01889Y00062*
X01894Y00054*
X01902Y00049*
X0191Y00045*
X01915Y00044*
Y00075*
G37*
G36*
X01555Y00115D02*
X0155Y00114D01*
X01542Y0011*
X01534Y00105*
X01529Y00097*
X01525Y00089*
X01524Y00085*
X01555*
Y00115*
G37*
G36*
X01955Y00315D02*
X01884D01*
Y00244*
X01955*
Y00315*
G37*
G36*
X01025Y00285D02*
X00999D01*
X00999Y00281*
X01003Y00274*
X01007Y00267*
X01014Y00263*
X01021Y00259*
X01025Y00259*
Y00285*
G37*
G36*
X01775Y00315D02*
X01704D01*
Y00244*
X01775*
Y00315*
G37*
G36*
X0208Y00215D02*
X0207Y00214D01*
X02062Y0021*
X02054Y00205*
X02049Y00197*
X02045Y00189*
X02044Y0018*
X02045Y0017*
X02049Y00162*
X02054Y00154*
X02062Y00149*
X0207Y00145*
X0208Y00144*
X02089Y00145*
X02097Y00149*
X02105Y00154*
X0211Y00162*
X02114Y0017*
X02115Y0018*
X02114Y00189*
X0211Y00197*
X02105Y00205*
X02097Y0021*
X02089Y00214*
X0208Y00215*
G37*
G36*
Y00315D02*
X0207Y00314D01*
X02062Y0031*
X02054Y00305*
X02049Y00297*
X02045Y00289*
X02044Y0028*
X02045Y0027*
X02049Y00262*
X02054Y00254*
X02062Y00249*
X0207Y00245*
X0208Y00244*
X02089Y00245*
X02097Y00249*
X02105Y00254*
X0211Y00262*
X02114Y0027*
X02115Y0028*
X02114Y00289*
X0211Y00297*
X02105Y00305*
X02097Y0031*
X02089Y00314*
X0208Y00315*
G37*
G36*
X01025Y0032D02*
X01021Y0032D01*
X01014Y00317*
X01007Y00312*
X01003Y00305*
X00999Y00298*
X00999Y00295*
X01025*
Y0032*
G37*
G36*
X01035D02*
Y00295D01*
X0106*
X0106Y00298*
X01057Y00305*
X01052Y00312*
X01045Y00317*
X01038Y0032*
X01035Y0032*
G37*
G36*
X00485Y0029D02*
X0046D01*
Y00264*
X00463Y00264*
X0047Y00268*
X00477Y00272*
X00482Y00279*
X00485Y00286*
X00485Y0029*
G37*
G36*
X0106Y00285D02*
X01035D01*
Y00259*
X01038Y00259*
X01045Y00263*
X01052Y00267*
X01057Y00274*
X0106Y00281*
X0106Y00285*
G37*
G36*
X0045Y0029D02*
X00424D01*
X00424Y00286*
X00428Y00279*
X00432Y00272*
X00439Y00268*
X00446Y00264*
X0045Y00264*
Y0029*
G37*
G36*
X01915Y00115D02*
X0191Y00114D01*
X01902Y0011*
X01894Y00105*
X01889Y00097*
X01885Y00089*
X01884Y00085*
X01915*
Y00115*
G37*
G36*
X01925D02*
Y00085D01*
X01955*
X01954Y00089*
X0195Y00097*
X01945Y00105*
X01937Y0011*
X01929Y00114*
X01925Y00115*
G37*
G36*
X01745D02*
Y00085D01*
X01775*
X01774Y00089*
X0177Y00097*
X01765Y00105*
X01757Y0011*
X01749Y00114*
X01745Y00115*
G37*
G36*
X01565D02*
Y00085D01*
X01595*
X01594Y00089*
X0159Y00097*
X01585Y00105*
X01577Y0011*
X01569Y00114*
X01565Y00115*
G37*
G36*
X01735D02*
X0173Y00114D01*
X01722Y0011*
X01714Y00105*
X01709Y00097*
X01705Y00089*
X01704Y00085*
X01735*
Y00115*
G37*
G36*
X0156Y00215D02*
X0155Y00214D01*
X01542Y0021*
X01534Y00205*
X01529Y00197*
X01525Y00189*
X01524Y0018*
X01525Y0017*
X01529Y00162*
X01534Y00154*
X01542Y00149*
X0155Y00145*
X0156Y00144*
X01569Y00145*
X01577Y00149*
X01585Y00154*
X0159Y00162*
X01594Y0017*
X01595Y0018*
X01594Y00189*
X0159Y00197*
X01585Y00205*
X01577Y0021*
X01569Y00214*
X0156Y00215*
G37*
G36*
X0174D02*
X0173Y00214D01*
X01722Y0021*
X01714Y00205*
X01709Y00197*
X01705Y00189*
X01704Y0018*
X01705Y0017*
X01709Y00162*
X01714Y00154*
X01722Y00149*
X0173Y00145*
X0174Y00144*
X01749Y00145*
X01757Y00149*
X01765Y00154*
X0177Y00162*
X01774Y0017*
X01775Y0018*
X01774Y00189*
X0177Y00197*
X01765Y00205*
X01757Y0021*
X01749Y00214*
X0174Y00215*
G37*
G36*
X0138D02*
X0137Y00214D01*
X01362Y0021*
X01354Y00205*
X01349Y00197*
X01345Y00189*
X01344Y0018*
X01345Y0017*
X01349Y00162*
X01354Y00154*
X01362Y00149*
X0137Y00145*
X0138Y00144*
X01389Y00145*
X01397Y00149*
X01405Y00154*
X0141Y00162*
X01414Y0017*
X01415Y0018*
X01414Y00189*
X0141Y00197*
X01405Y00205*
X01397Y0021*
X01389Y00214*
X0138Y00215*
G37*
G36*
X02075Y00115D02*
X0207Y00114D01*
X02062Y0011*
X02054Y00105*
X02049Y00097*
X02045Y00089*
X02044Y00085*
X02075*
Y00115*
G37*
G36*
X02085D02*
Y00085D01*
X02115*
X02114Y00089*
X0211Y00097*
X02105Y00105*
X02097Y0011*
X02089Y00114*
X02085Y00115*
G37*
G36*
X01455Y02055D02*
X01429D01*
X01429Y02051*
X01433Y02044*
X01437Y02037*
X01444Y02033*
X01451Y02029*
X01455Y02029*
Y02055*
G37*
G36*
X0149D02*
X01465D01*
Y02029*
X01468Y02029*
X01475Y02033*
X01482Y02037*
X01487Y02044*
X0149Y02051*
X0149Y02055*
G37*
G36*
X021Y02035D02*
X0209Y02034D01*
X02082Y0203*
X02074Y02025*
X02069Y02017*
X02065Y02009*
X02064Y02*
X02065Y0199*
X02069Y01982*
X02074Y01974*
X02082Y01969*
X0209Y01965*
X021Y01964*
X02109Y01965*
X02117Y01969*
X02125Y01974*
X0213Y01982*
X02134Y0199*
X02135Y02*
X02134Y02009*
X0213Y02017*
X02125Y02025*
X02117Y0203*
X02109Y02034*
X021Y02035*
G37*
G36*
X01725Y02206D02*
X01716Y02205D01*
X01709Y02202*
X01702Y02197*
X01698Y0219*
X01694Y02183*
X01693Y02175*
X01694Y02166*
X01698Y02159*
X01702Y02152*
X01709Y02148*
X01713Y02146*
Y02094*
X01687Y02067*
X01684Y02064*
X01683Y0206*
Y02008*
X01679Y02007*
X01672Y02002*
X01668Y01995*
X01664Y01988*
X01663Y0198*
X01664Y01971*
X01668Y01964*
X01672Y01957*
X01679Y01953*
X01686Y01949*
X01695Y01948*
X01703Y01949*
X0171Y01953*
X01717Y01957*
X01722Y01964*
X01725Y01971*
X01726Y0198*
X01725Y01988*
X01722Y01995*
X01717Y02002*
X0171Y02007*
X01706Y02008*
Y02055*
X01732Y02082*
X01735Y02085*
X01736Y0209*
Y02146*
X0174Y02148*
X01747Y02152*
X01752Y02159*
X01755Y02166*
X01756Y02175*
X01755Y02183*
X01752Y0219*
X01747Y02197*
X0174Y02202*
X01733Y02205*
X01725Y02206*
G37*
G36*
X02Y02035D02*
X0199Y02034D01*
X01982Y0203*
X01974Y02025*
X01969Y02017*
X01965Y02009*
X01964Y02*
X01965Y0199*
X01969Y01982*
X01974Y01974*
X01982Y01969*
X0199Y01965*
X02Y01964*
X02009Y01965*
X02017Y01969*
X02025Y01974*
X0203Y01982*
X02034Y0199*
X02035Y02*
X02034Y02009*
X0203Y02017*
X02025Y02025*
X02017Y0203*
X02009Y02034*
X02Y02035*
G37*
G36*
X0028Y02135D02*
X00205D01*
Y02059*
X00215Y0206*
X00231Y02064*
X00245Y02072*
X00257Y02082*
X00267Y02094*
X00275Y02108*
X00279Y02124*
X0028Y02135*
G37*
G36*
X00475D02*
X00399D01*
X004Y02124*
X00404Y02108*
X00412Y02094*
X00422Y02082*
X00434Y02072*
X00448Y02064*
X00464Y0206*
X00475Y02059*
Y02135*
G37*
G36*
X00195D02*
X00119D01*
X0012Y02124*
X00124Y02108*
X00132Y02094*
X00142Y02082*
X00154Y02072*
X00168Y02064*
X00184Y0206*
X00195Y02059*
Y02135*
G37*
G36*
X0156Y02055D02*
X01534D01*
X01534Y02051*
X01538Y02044*
X01542Y02037*
X01549Y02033*
X01556Y02029*
X0156Y02029*
Y02055*
G37*
G36*
X01595D02*
X0157D01*
Y02029*
X01573Y02029*
X0158Y02033*
X01587Y02037*
X01592Y02044*
X01595Y02051*
X01595Y02055*
G37*
G36*
X021Y01835D02*
X0209Y01834D01*
X02082Y0183*
X02074Y01825*
X02069Y01817*
X02065Y01809*
X02064Y018*
X02065Y0179*
X02069Y01782*
X02074Y01774*
X02082Y01769*
X0209Y01765*
X021Y01764*
X02109Y01765*
X02117Y01769*
X02125Y01774*
X0213Y01782*
X02134Y0179*
X02135Y018*
X02134Y01809*
X0213Y01817*
X02125Y01825*
X02117Y0183*
X02109Y01834*
X021Y01835*
G37*
G36*
X0168Y01906D02*
X01671Y01905D01*
X01664Y01902*
X01657Y01897*
X01653Y0189*
X01649Y01883*
X01648Y01875*
X01649Y01866*
X0165Y01864*
X0161Y01824*
X01607Y01819*
X01607Y01819*
X01606Y01815*
Y0176*
X01601Y0176*
X01594Y01757*
X01587Y01752*
X01583Y01745*
X01579Y01738*
X01578Y0173*
X01579Y01721*
X01583Y01714*
X01587Y01707*
X01594Y01703*
X01601Y01699*
X0161Y01698*
X01618Y01699*
X01625Y01703*
X01632Y01707*
X01637Y01714*
X0164Y01721*
X01641Y0173*
X0164Y01738*
X01637Y01745*
X01633Y0175*
Y01809*
X01669Y01845*
X01671Y01844*
X0168Y01843*
X01688Y01844*
X01695Y01848*
X01702Y01852*
X01707Y01859*
X0171Y01866*
X01711Y01875*
X0171Y01883*
X01707Y0189*
X01702Y01897*
X01695Y01902*
X01688Y01905*
X0168Y01906*
G37*
G36*
X02Y01835D02*
X0199Y01834D01*
X01982Y0183*
X01974Y01825*
X01969Y01817*
X01965Y01809*
X01964Y018*
X01965Y0179*
X01969Y01782*
X01974Y01774*
X01982Y01769*
X0199Y01765*
X02Y01764*
X02009Y01765*
X02017Y01769*
X02025Y01774*
X0203Y01782*
X02034Y0179*
X02035Y018*
X02034Y01809*
X0203Y01817*
X02025Y01825*
X02017Y0183*
X02009Y01834*
X02Y01835*
G37*
G36*
X01855Y01786D02*
X01846Y01785D01*
X01839Y01782*
X01832Y01777*
X01828Y0177*
X01824Y01763*
X01823Y01755*
X01824Y01746*
X01827Y01741*
X0177Y01685*
X0157*
X01566Y01684*
X01562Y01682*
X01217Y01337*
X01215Y01333*
X01214Y0133*
Y01289*
X01209Y01287*
X01202Y01282*
X01198Y01275*
X01194Y01268*
X01193Y0126*
X01194Y01251*
X01198Y01244*
X01202Y01237*
X01209Y01233*
X01216Y01229*
X01225Y01228*
X01233Y01229*
X0124Y01233*
X01247Y01237*
X01252Y01244*
X01255Y01251*
X01256Y0126*
X01255Y01268*
X01252Y01275*
X01247Y01282*
X0124Y01287*
X01235Y01289*
Y01325*
X0136Y01451*
X01361Y0145*
X01365Y01449*
Y01253*
X01362Y01252*
X01358Y01245*
X01354Y01238*
X01353Y0123*
X01354Y01221*
X01358Y01214*
X01362Y01207*
X01369Y01203*
X01376Y01199*
X01385Y01198*
X01393Y01199*
X014Y01203*
X01407Y01207*
X01412Y01214*
X01415Y01221*
X01416Y0123*
X01415Y01238*
X01412Y01245*
X01407Y01252*
X014Y01257*
X01393Y0126*
X01385Y01261*
Y01399*
X01389Y01401*
X01394Y01398*
X01401Y01394*
X0141Y01393*
X01418Y01394*
X0142Y01395*
X01439Y01375*
Y01159*
X01436Y01156*
X01435Y01156*
X01426Y01155*
X01419Y01152*
X01412Y01147*
X01408Y0114*
X01404Y01133*
X01403Y01125*
X01404Y01116*
X01408Y01109*
X01412Y01102*
X01419Y01098*
X01426Y01094*
X01435Y01093*
X01443Y01094*
X0145Y01098*
X01457Y01102*
X01462Y01109*
X01465Y01116*
X01469Y01115*
Y01098*
X01468Y01095*
X01464Y01088*
X01463Y0108*
X01464Y01071*
X01468Y01064*
X01472Y01058*
X01472Y01057*
X01472Y01057*
X01473Y01057*
X01479Y01053*
X01486Y01049*
X01495Y01048*
X01503Y01049*
X0151Y01053*
X01517Y01057*
X01522Y01064*
X01525Y01071*
X01526Y0108*
X01525Y01088*
X01522Y01095*
X01517Y01102*
X0151Y01107*
X01503Y0111*
X01495Y01111*
X01493Y01111*
X0149Y01114*
Y01395*
X01495Y01398*
X01502Y01402*
X01507Y01409*
X0151Y01416*
X01511Y01425*
X0151Y01433*
X01507Y0144*
X01502Y01447*
X01495Y01452*
X01488Y01455*
X0148Y01456*
X01471Y01455*
X01464Y01452*
X01457Y01447*
X01453Y0144*
X01449Y01433*
X01448Y01425*
X01449Y01416*
X01453Y01409*
X01457Y01402*
X01464Y01398*
X01469Y01395*
Y01134*
X01465Y01133*
X01462Y0114*
X0146Y01143*
Y0138*
X01459Y01383*
X01458Y01384*
X01458Y01384*
X01457Y01387*
X01436Y01408*
X01437Y01409*
X0144Y01416*
X01441Y01425*
X0144Y01433*
X01437Y0144*
X01432Y01447*
X01425Y01452*
X01418Y01455*
X0141Y01456*
X01401Y01455*
X014Y01454*
X01397Y01458*
X01579Y01639*
X01584*
Y01635*
Y01578*
X01562Y01557*
X0156Y01553*
X01559Y0155*
Y0146*
X0156Y01456*
X01562Y01452*
X01572Y01442*
X01575Y01441*
X01576Y0144*
X0158Y01439*
X01613*
X01614Y01434*
X0161Y01434*
X01602Y0143*
X01594Y01425*
X01589Y01417*
X01585Y01409*
X01584Y014*
X01585Y0139*
X01589Y01382*
X01594Y01374*
X01602Y01369*
X0161Y01365*
X0162Y01364*
X01629Y01365*
X01637Y01369*
X01645Y01374*
X0165Y01382*
X01651Y01382*
X01656Y01381*
Y01294*
X01651Y01292*
X01617Y01327*
X01613Y01329*
X0161Y0133*
X01594*
X01592Y01335*
X01587Y01342*
X0158Y01347*
X01573Y0135*
X01565Y01351*
X01556Y0135*
X01549Y01347*
X01542Y01342*
X01538Y01335*
X01534Y01328*
X01533Y0132*
X01534Y01311*
X01538Y01304*
X01542Y01297*
X01549Y01293*
X01556Y01289*
X01565Y01288*
X01573Y01289*
X0158Y01293*
X01587Y01297*
X01592Y01304*
X01594Y01309*
X01605*
X01639Y01275*
Y012*
X0164Y01196*
X01642Y01192*
X01704Y0113*
Y0096*
X01705Y00956*
X01707Y00952*
X01724Y00935*
Y00489*
X01719Y00487*
X01712Y00482*
X01708Y00475*
X01704Y00468*
X01703Y0046*
X01704Y00451*
X01708Y00444*
X01712Y00437*
X01719Y00433*
X01726Y00429*
X01735Y00428*
X01743Y00429*
X0175Y00433*
X01757Y00437*
X01762Y00444*
X01765Y00451*
X01766Y0046*
X01765Y00468*
X01762Y00475*
X01757Y00482*
X0175Y00487*
X01745Y00489*
Y005*
X01749Y00502*
X01752Y00497*
X01759Y00493*
X01766Y00489*
X01775Y00488*
X01783Y00489*
X0179Y00493*
X01797Y00497*
X01802Y00504*
X01805Y00511*
X01806Y0052*
X01805Y00528*
X01802Y00535*
X01797Y00542*
X0179Y00547*
X01785Y00549*
Y00924*
X01785Y00925*
X0179Y00926*
X01794Y00921*
Y00775*
Y0056*
X01795Y00556*
X01797Y00552*
X01817Y00533*
X01814Y00528*
X01813Y0052*
X01814Y00511*
X01818Y00504*
X01822Y00497*
X01829Y00493*
X01836Y00489*
X01845Y00488*
X01853Y00489*
X0186Y00493*
X01867Y00497*
X01872Y00504*
X01875Y00511*
X01876Y0052*
X01875Y00528*
X01872Y00535*
X01867Y00542*
X0186Y00547*
X01853Y0055*
X01845Y00551*
X01836Y0055*
X01831Y00547*
X01815Y00564*
Y00775*
Y00925*
X01814Y00929*
X01812Y00932*
X01778Y00966*
X0178Y00968*
X01788Y00969*
X01795Y00973*
X01802Y00977*
X01807Y00984*
X01809Y00989*
X01845*
X01874Y0096*
Y00875*
X01875Y00871*
X01877Y00867*
X01918Y00827*
Y00681*
X01914Y0068*
X01907Y00686*
X0191Y00691*
X01911Y007*
X0191Y00708*
X01907Y00715*
X01902Y00722*
X01895Y00727*
X01888Y0073*
X0188Y00731*
X01871Y0073*
X01864Y00727*
X01857Y00722*
X01853Y00715*
X01849Y00708*
X01848Y007*
X01849Y00691*
X01853Y00684*
X01857Y00677*
X01864Y00673*
X01871Y00669*
X0188Y00668*
X01888Y00669*
X01893Y00672*
X01904Y0066*
Y00474*
X01901Y0047*
X01896Y00471*
X01892Y00477*
X01885Y00482*
X01878Y00485*
X0187Y00486*
X01861Y00485*
X01854Y00482*
X01847Y00477*
X01843Y0047*
X01839Y00463*
X01838Y00455*
X01839Y00446*
X01843Y00439*
X01847Y00432*
X01854Y00428*
X01861Y00424*
X0187Y00423*
X01878Y00424*
X01885Y00428*
X01892Y00432*
X01897Y00439*
X01899Y00444*
X019*
X01903Y00445*
X01905Y00446*
X01909Y00444*
Y00415*
X01674*
X01672Y0042*
X01667Y00427*
X0166Y00432*
X01653Y00435*
X01645Y00436*
X01636Y00435*
X01629Y00432*
X01622Y00427*
X01618Y0042*
X01614Y00413*
X01613Y00405*
X01614Y00396*
X01618Y00389*
X01622Y00382*
X01629Y00378*
X01636Y00374*
X01635Y0037*
X01525*
X01521Y00369*
X01517Y00367*
X0144Y0029*
X01415*
Y00315*
X01344*
Y00244*
X01415*
Y00269*
X01445*
X01448Y0027*
X01452Y00272*
X01529Y00349*
X01654*
X01656Y00345*
X016Y0029*
X01595*
Y00315*
X01524*
Y00244*
X01595*
Y00269*
X01605*
X01608Y0027*
X01612Y00272*
X01675Y00336*
X01938*
X01941Y00336*
X01945Y00339*
X01963Y00357*
X01964Y00359*
X01965Y0036*
X0197Y00358*
Y00212*
X01962Y00204*
X01945*
X01945Y00205*
X01937Y0021*
X01929Y00214*
X0192Y00215*
X0191Y00214*
X01902Y0021*
X01894Y00205*
X01889Y00197*
X01885Y00189*
X01884Y0018*
X01885Y0017*
X01889Y00162*
X01894Y00154*
X01902Y00149*
X0191Y00145*
X0192Y00144*
X01927Y00145*
X01975*
X01982Y00146*
X01989Y00149*
X01996Y00153*
X02021Y00178*
X02025Y00185*
X02028Y00192*
X02029Y002*
Y00626*
X0203Y00626*
X02031Y00635*
X0203Y00643*
X02029Y00643*
Y0098*
X02028Y00987*
X02025Y00994*
X02021Y01001*
X01879Y01142*
Y01196*
X0188Y01196*
X01881Y01205*
X0188Y01213*
X01877Y0122*
X01872Y01227*
X01865Y01232*
X01858Y01235*
X0185Y01236*
X01841Y01235*
X01834Y01232*
X01827Y01227*
X01823Y0122*
X01819Y01213*
X01818Y01205*
X01819Y01196*
X0182Y01196*
Y0113*
X01821Y01122*
X01824Y01115*
X01828Y01108*
X0197Y00967*
Y00914*
X01965Y00912*
X01962Y00917*
X01955Y00922*
X01948Y00925*
X0194Y00926*
X01931Y00925*
X01924Y00922*
X01917Y00917*
X01915Y00913*
X0191Y00915*
Y0099*
X0191Y00993*
X01907Y00997*
X01855Y01049*
X01856Y01055*
X01855Y01063*
X01852Y0107*
X01847Y01077*
X0184Y01082*
X01833Y01085*
X01825Y01086*
X01816Y01085*
X01809Y01082*
X01802Y01077*
X01798Y0107*
X01794Y01063*
X01793Y01055*
X01794Y01046*
X01798Y01039*
X01802Y01032*
X01809Y01028*
X01816Y01024*
X01825Y01023*
X01833Y01024*
X0184Y01028*
X01845Y01031*
X0189Y00985*
Y0098*
X01886Y00978*
X01857Y01007*
X01853Y01009*
X0185Y0101*
X01809*
X01807Y01015*
X01802Y01022*
X01795Y01027*
X01788Y0103*
X0178Y01031*
X01771Y0103*
X01764Y01027*
X01759Y01023*
X01755Y01025*
Y01149*
X01755Y0115*
Y01154*
X01754Y01158*
X01752Y01161*
X0169Y01223*
Y01372*
X01695Y01374*
X01702Y01369*
X0171Y01365*
X01715Y01364*
Y01399*
Y01435*
X0171Y01434*
X01702Y0143*
X01695Y01425*
X0169Y01427*
Y01448*
X01689Y01452*
X01687Y01455*
X01654Y01489*
X01654Y0149*
X01655Y015*
X01654Y01509*
X0165Y01517*
X01645Y01525*
X01637Y0153*
X01629Y01534*
X0162Y01535*
X0161Y01534*
X01602Y0153*
X01594Y01525*
X01589Y01517*
X01585Y01509*
X01585Y01505*
X0158Y01506*
Y01545*
X01598Y01564*
X01655*
Y01635*
Y01636*
X01658Y01639*
X01713*
X01714Y01634*
X0171Y01634*
X01702Y0163*
X01694Y01625*
X01689Y01617*
X01685Y01609*
X01684Y016*
X01685Y0159*
X01689Y01582*
X01694Y01574*
X01702Y01569*
X0171Y01565*
X0172Y01564*
X01729Y01565*
X01737Y01569*
X01745Y01574*
X0175Y01582*
X01754Y0159*
X01755Y016*
X01754Y01609*
X0175Y01617*
X01745Y01625*
X01737Y0163*
X01729Y01634*
X01725Y01634*
X01726Y01639*
X01815*
X01818Y0164*
X01822Y01642*
X01835Y01656*
X01839Y01653*
X01846Y01649*
X01855Y01648*
X01863Y01649*
X0187Y01653*
X01877Y01657*
X01882Y01664*
X01885Y01671*
X01886Y0168*
X01885Y01688*
X01882Y01695*
X01877Y01702*
X0187Y01707*
X01863Y0171*
X01855Y01711*
X01846Y0171*
X01839Y01707*
X01832Y01702*
X01828Y01695*
X01824Y01688*
X01823Y0168*
X01824Y01673*
X0181Y0166*
X01775*
X01775Y01665*
X01778Y01665*
X01782Y01667*
X01841Y01727*
X01846Y01724*
X01855Y01723*
X01863Y01724*
X0187Y01728*
X01877Y01732*
X01882Y01739*
X01885Y01746*
X01886Y01755*
X01885Y01763*
X01882Y0177*
X01877Y01777*
X0187Y01782*
X01863Y01785*
X01855Y01786*
G37*
G36*
X01205Y02D02*
X01195Y01999D01*
X01187Y01995*
X01179Y0199*
X01174Y01982*
X0117Y01974*
X01169Y01965*
Y01855*
X0117Y01845*
X01172Y0184*
X01174Y01837*
X01179Y01829*
X01234Y01774*
X01242Y01769*
X0125Y01765*
X0126Y01764*
X01269Y01765*
X01277Y01769*
X01285Y01774*
X0129Y01782*
X01294Y0179*
X01295Y018*
X01294Y01809*
X0129Y01817*
X01285Y01825*
X0124Y01869*
Y01965*
X01239Y01974*
X01235Y01982*
X0123Y0199*
X01222Y01995*
X01214Y01999*
X01205Y02*
G37*
G36*
X01995Y01935D02*
X0199Y01934D01*
X01982Y0193*
X01974Y01925*
X01969Y01917*
X01965Y01909*
X01964Y01905*
X01995*
Y01935*
G37*
G36*
X02005D02*
Y01905D01*
X02035*
X02034Y01909*
X0203Y01917*
X02025Y01925*
X02017Y0193*
X02009Y01934*
X02005Y01935*
G37*
G36*
X02035Y01895D02*
X02005D01*
Y01864*
X02009Y01865*
X02017Y01869*
X02025Y01874*
X0203Y01882*
X02034Y0189*
X02035Y01895*
G37*
G36*
X021Y01935D02*
X0209Y01934D01*
X02082Y0193*
X02074Y01925*
X02069Y01917*
X02065Y01909*
X02064Y019*
X02065Y0189*
X02069Y01882*
X02074Y01874*
X02082Y01869*
X0209Y01865*
X021Y01864*
X02109Y01865*
X02117Y01869*
X02125Y01874*
X0213Y01882*
X02134Y0189*
X02135Y019*
X02134Y01909*
X0213Y01917*
X02125Y01925*
X02117Y0193*
X02109Y01934*
X021Y01935*
G37*
G36*
X01995Y01895D02*
X01964D01*
X01965Y0189*
X01969Y01882*
X01974Y01874*
X01982Y01869*
X0199Y01865*
X01995Y01864*
Y01895*
G37*
G36*
X0056Y02135D02*
X00485D01*
Y02059*
X00495Y0206*
X00511Y02064*
X00525Y02072*
X00537Y02082*
X00547Y02094*
X00555Y02108*
X00559Y02124*
X0056Y02135*
G37*
G36*
X00485Y0222D02*
Y02145D01*
X0056*
X00559Y02155*
X00555Y02171*
X00547Y02185*
X00537Y02197*
X00525Y02207*
X00511Y02215*
X00495Y02219*
X00485Y0222*
G37*
G36*
X02Y02235D02*
X0199Y02234D01*
X01982Y0223*
X01974Y02225*
X01969Y02217*
X01965Y02209*
X01964Y022*
X01965Y0219*
X01969Y02182*
X01974Y02174*
X01982Y02169*
X0199Y02165*
X02Y02164*
X02009Y02165*
X02017Y02169*
X02025Y02174*
X0203Y02182*
X02034Y0219*
X02035Y022*
X02034Y02209*
X0203Y02217*
X02025Y02225*
X02017Y0223*
X02009Y02234*
X02Y02235*
G37*
G36*
X00475Y0222D02*
X00464Y02219D01*
X00448Y02215*
X00434Y02207*
X00422Y02197*
X00412Y02185*
X00404Y02171*
X004Y02155*
X00399Y02145*
X00475*
Y0222*
G37*
G36*
X00195D02*
X00184Y02219D01*
X00168Y02215*
X00154Y02207*
X00142Y02197*
X00132Y02185*
X00124Y02171*
X0012Y02155*
X00119Y02145*
X00195*
Y0222*
G37*
G36*
X00205D02*
Y02145D01*
X0028*
X00279Y02155*
X00275Y02171*
X00267Y02185*
X00257Y02197*
X00245Y02207*
X00231Y02215*
X00215Y02219*
X00205Y0222*
G37*
G36*
X002Y02461D02*
X00184Y02459D01*
X00168Y02455*
X00154Y02447*
X00142Y02437*
X00132Y02425*
X00124Y02411*
X0012Y02395*
X00118Y0238*
X0012Y02364*
X00124Y02348*
X00132Y02334*
X00142Y02322*
X00154Y02312*
X00168Y02304*
X00184Y023*
X002Y02298*
X00215Y023*
X00231Y02304*
X00245Y02312*
X00257Y02322*
X00267Y02334*
X00275Y02348*
X00279Y02364*
X00281Y0238*
X00279Y02395*
X00275Y02411*
X00267Y02425*
X00257Y02437*
X00245Y02447*
X00231Y02455*
X00215Y02459*
X002Y02461*
G37*
G36*
X0048D02*
X00464Y02459D01*
X00448Y02455*
X00434Y02447*
X00422Y02437*
X00412Y02425*
X00404Y02411*
X004Y02395*
X00398Y0238*
X004Y02364*
X00404Y02348*
X00412Y02334*
X00422Y02322*
X00434Y02312*
X00448Y02304*
X00464Y023*
X0048Y02298*
X00495Y023*
X00511Y02304*
X00525Y02312*
X00537Y02322*
X00547Y02334*
X00555Y02348*
X00559Y02364*
X00561Y0238*
X00559Y02395*
X00555Y02411*
X00547Y02425*
X00537Y02437*
X00525Y02447*
X00511Y02455*
X00495Y02459*
X0048Y02461*
G37*
G36*
X02035Y02335D02*
X01964D01*
Y02264*
X02035*
Y02335*
G37*
G36*
X021Y02235D02*
X0209Y02234D01*
X02082Y0223*
X02074Y02225*
X02069Y02217*
X02065Y02209*
X02064Y022*
X02065Y0219*
X02069Y02182*
X02074Y02174*
X02082Y02169*
X0209Y02165*
X021Y02164*
X02109Y02165*
X02117Y02169*
X02125Y02174*
X0213Y02182*
X02134Y0219*
X02135Y022*
X02134Y02209*
X0213Y02217*
X02125Y02225*
X02117Y0223*
X02109Y02234*
X021Y02235*
G37*
G36*
Y02335D02*
X0209Y02334D01*
X02082Y0233*
X02074Y02325*
X02069Y02317*
X02065Y02309*
X02064Y023*
X02065Y0229*
X02069Y02282*
X02074Y02274*
X02082Y02269*
X0209Y02265*
X021Y02264*
X02109Y02265*
X02117Y02269*
X02125Y02274*
X0213Y02282*
X02134Y0229*
X02135Y023*
X02134Y02309*
X0213Y02317*
X02125Y02325*
X02117Y0233*
X02109Y02334*
X021Y02335*
G37*
G36*
X01455Y0209D02*
X01451Y0209D01*
X01444Y02087*
X01437Y02082*
X01433Y02075*
X01429Y02068*
X01429Y02065*
X01455*
Y0209*
G37*
G36*
X01465D02*
Y02065D01*
X0149*
X0149Y02068*
X01487Y02075*
X01482Y02082*
X01475Y02087*
X01468Y0209*
X01465Y0209*
G37*
G36*
X02135Y02095D02*
X02105D01*
Y02064*
X02109Y02065*
X02117Y02069*
X02125Y02074*
X0213Y02082*
X02134Y0209*
X02135Y02095*
G37*
G36*
X02Y02135D02*
X0199Y02134D01*
X01982Y0213*
X01974Y02125*
X01969Y02117*
X01965Y02109*
X01964Y021*
X01965Y0209*
X01969Y02082*
X01974Y02074*
X01982Y02069*
X0199Y02065*
X02Y02064*
X02009Y02065*
X02017Y02069*
X02025Y02074*
X0203Y02082*
X02034Y0209*
X02035Y021*
X02034Y02109*
X0203Y02117*
X02025Y02125*
X02017Y0213*
X02009Y02134*
X02Y02135*
G37*
G36*
X02095Y02095D02*
X02064D01*
X02065Y0209*
X02069Y02082*
X02074Y02074*
X02082Y02069*
X0209Y02065*
X02095Y02064*
Y02095*
G37*
G36*
Y02135D02*
X0209Y02134D01*
X02082Y0213*
X02074Y02125*
X02069Y02117*
X02065Y02109*
X02064Y02105*
X02095*
Y02135*
G37*
G36*
X02105D02*
Y02105D01*
X02135*
X02134Y02109*
X0213Y02117*
X02125Y02125*
X02117Y0213*
X02109Y02134*
X02105Y02135*
G37*
G36*
X014Y02476D02*
X01391Y02475D01*
X01384Y02472*
X01377Y02467*
X01373Y0246*
X01369Y02453*
X01368Y02445*
X01369Y02436*
X01371Y02433*
X01283Y02346*
X01276Y02345*
X01269Y02342*
X01262Y02337*
X01258Y0233*
X01254Y02323*
X01253Y02315*
X01249Y0231*
X01244Y02303*
X01242Y02295*
Y02122*
X01238Y02115*
X01234Y02108*
X01233Y021*
X01234Y02091*
X01238Y02084*
X01242Y02077*
X01249Y02073*
X01256Y02069*
X01265Y02068*
X01273Y02069*
X0128Y02073*
X01287Y02077*
X01292Y02084*
X01295Y02091*
X01296Y021*
X01295Y02108*
X01292Y02115*
X01287Y02122*
Y02284*
X01293Y02284*
X013Y02288*
X01307Y02292*
X01312Y02299*
X01315Y02306*
X01316Y02315*
X01316Y02315*
X01415Y02415*
X01419Y0242*
X01422Y02422*
X01427Y02429*
X0143Y02436*
X01431Y02445*
X0143Y02453*
X01427Y0246*
X01422Y02467*
X01415Y02472*
X01408Y02475*
X014Y02476*
G37*
G36*
X0156Y0209D02*
X01556Y0209D01*
X01549Y02087*
X01542Y02082*
X01538Y02075*
X01534Y02068*
X01534Y02065*
X0156*
Y0209*
G37*
G36*
X0157D02*
Y02065D01*
X01595*
X01595Y02068*
X01592Y02075*
X01587Y02082*
X0158Y02087*
X01573Y0209*
X0157Y0209*
G37*
G36*
X02135Y01395D02*
X02105D01*
Y01364*
X02109Y01365*
X02117Y01369*
X02125Y01374*
X0213Y01382*
X02134Y0139*
X02135Y01395*
G37*
G36*
X01725Y01435D02*
Y01405D01*
X01755*
X01754Y01409*
X0175Y01417*
X01745Y01425*
X01737Y0143*
X01729Y01434*
X01725Y01435*
G37*
G36*
X02095Y01395D02*
X02064D01*
X02065Y0139*
X02069Y01382*
X02074Y01374*
X02082Y01369*
X0209Y01365*
X02095Y01364*
Y01395*
G37*
G36*
X02Y01435D02*
X0199Y01434D01*
X01982Y0143*
X01974Y01425*
X01969Y01417*
X01965Y01409*
X01964Y014*
X01965Y0139*
X01969Y01382*
X01974Y01374*
X01982Y01369*
X0199Y01365*
X02Y01364*
X02009Y01365*
X02017Y01369*
X02025Y01374*
X0203Y01382*
X02034Y0139*
X02035Y014*
X02034Y01409*
X0203Y01417*
X02025Y01425*
X02017Y0143*
X02009Y01434*
X02Y01435*
G37*
G36*
X01755Y01395D02*
X01725D01*
Y01364*
X01729Y01365*
X01737Y01369*
X01745Y01374*
X0175Y01382*
X01754Y0139*
X01755Y01395*
G37*
G36*
X008Y01445D02*
X00775D01*
Y01419*
X00778Y01419*
X00785Y01423*
X00792Y01427*
X00797Y01434*
X008Y01441*
X008Y01445*
G37*
G36*
X00765Y0148D02*
X00761Y0148D01*
X00754Y01477*
X00747Y01472*
X00743Y01465*
X00739Y01458*
X00739Y01455*
X00765*
Y0148*
G37*
G36*
Y01445D02*
X00739D01*
X00739Y01441*
X00743Y01434*
X00747Y01427*
X00754Y01423*
X00761Y01419*
X00765Y01419*
Y01445*
G37*
G36*
X02095Y01435D02*
X0209Y01434D01*
X02082Y0143*
X02074Y01425*
X02069Y01417*
X02065Y01409*
X02064Y01405*
X02095*
Y01435*
G37*
G36*
X02105D02*
Y01405D01*
X02135*
X02134Y01409*
X0213Y01417*
X02125Y01425*
X02117Y0143*
X02109Y01434*
X02105Y01435*
G37*
G36*
X0125Y01195D02*
X0111D01*
X01106Y01194*
X01105Y01193*
X01102Y01192*
X01065Y01155*
X01034*
X01032Y0116*
X01027Y01167*
X0102Y01172*
X01013Y01175*
X01005Y01176*
X00996Y01175*
X00989Y01172*
X00982Y01167*
X00978Y0116*
X00974Y01153*
X00973Y01145*
X00974Y01136*
X00978Y01129*
X00982Y01122*
X00989Y01118*
X00996Y01114*
X01005Y01113*
X01013Y01114*
X0102Y01118*
X01027Y01122*
X01032Y01129*
X01034Y01134*
X0107*
X01073Y01135*
X01077Y01137*
X01114Y01174*
X01245*
X01382Y01038*
X01379Y01033*
X01378Y01025*
X01379Y01016*
X01383Y01009*
X01387Y01002*
X01394Y00998*
X01401Y00994*
X0141Y00993*
X01418Y00994*
X01425Y00998*
X01432Y01002*
X01437Y01009*
X0144Y01016*
X01441Y01025*
X0144Y01033*
X01437Y0104*
X01432Y01047*
X01425Y01052*
X01418Y01055*
X0141Y01056*
X01401Y01055*
X01396Y01052*
X01257Y01192*
X01253Y01194*
X0125Y01195*
G37*
G36*
X02Y01235D02*
X0199Y01234D01*
X01982Y0123*
X01974Y01225*
X01969Y01217*
X01965Y01209*
X01964Y012*
X01965Y0119*
X01969Y01182*
X01974Y01174*
X01982Y01169*
X0199Y01165*
X02Y01164*
X02009Y01165*
X02017Y01169*
X02025Y01174*
X0203Y01182*
X02034Y0119*
X02035Y012*
X02034Y01209*
X0203Y01217*
X02025Y01225*
X02017Y0123*
X02009Y01234*
X02Y01235*
G37*
G36*
X00205Y01175D02*
Y0115D01*
X0023*
X0023Y01153*
X00227Y0116*
X00222Y01167*
X00215Y01172*
X00208Y01175*
X00205Y01175*
G37*
G36*
X0023Y0114D02*
X00205D01*
Y01114*
X00208Y01114*
X00215Y01118*
X00222Y01122*
X00227Y01129*
X0023Y01136*
X0023Y0114*
G37*
G36*
X00195Y01175D02*
X00191Y01175D01*
X00184Y01172*
X00177Y01167*
X00173Y0116*
X00169Y01153*
X00169Y0115*
X00195*
Y01175*
G37*
G36*
X0028Y01541D02*
X00271Y0154D01*
X00264Y01537*
X00257Y01532*
X00253Y01525*
X00249Y01518*
X00248Y0151*
X00249Y01501*
X00253Y01494*
X00257Y01487*
X00264Y01483*
X00268Y01481*
Y01418*
X00264Y01417*
X00257Y01412*
X00253Y01405*
X00249Y01398*
X00248Y0139*
X00249Y01381*
X00253Y01374*
X00257Y01367*
X00264Y01363*
X00271Y01359*
X0028Y01358*
X00288Y01359*
X00295Y01363*
X00302Y01367*
X00307Y01374*
X0031Y01381*
X00311Y0139*
X0031Y01398*
X00307Y01405*
X00302Y01412*
X00295Y01417*
X00291Y01418*
Y01481*
X00295Y01483*
X00302Y01487*
X00307Y01494*
X0031Y01501*
X00311Y0151*
X0031Y01518*
X00307Y01525*
X00302Y01532*
X00295Y01537*
X00288Y0154*
X0028Y01541*
G37*
G36*
X0035Y01586D02*
X00341Y01585D01*
X00334Y01582*
X00327Y01577*
X00323Y0157*
X00319Y01563*
X00318Y01555*
X00319Y01546*
X00323Y01539*
X00327Y01532*
X00334Y01528*
X00338Y01526*
Y01418*
X00334Y01417*
X00327Y01412*
X00323Y01405*
X00319Y01398*
X00318Y0139*
X00319Y01381*
X00323Y01374*
X00327Y01367*
X00334Y01363*
X00341Y01359*
X0035Y01358*
X00358Y01359*
X00365Y01363*
X00372Y01367*
X00377Y01374*
X0038Y01381*
X00381Y0139*
X0038Y01398*
X00377Y01405*
X00372Y01412*
X00365Y01417*
X00361Y01418*
Y01526*
X00365Y01528*
X00372Y01532*
X00377Y01539*
X0038Y01546*
X00381Y01555*
X0038Y01563*
X00377Y0157*
X00372Y01577*
X00365Y01582*
X00358Y01585*
X0035Y01586*
G37*
G36*
X021Y01335D02*
X0209Y01334D01*
X02082Y0133*
X02074Y01325*
X02069Y01317*
X02065Y01309*
X02064Y013*
X02065Y0129*
X02069Y01282*
X02074Y01274*
X02082Y01269*
X0209Y01265*
X021Y01264*
X02109Y01265*
X02117Y01269*
X02125Y01274*
X0213Y01282*
X02134Y0129*
X02135Y013*
X02134Y01309*
X0213Y01317*
X02125Y01325*
X02117Y0133*
X02109Y01334*
X021Y01335*
G37*
G36*
Y01235D02*
X0209Y01234D01*
X02082Y0123*
X02074Y01225*
X02069Y01217*
X02065Y01209*
X02064Y012*
X02065Y0119*
X02069Y01182*
X02074Y01174*
X02082Y01169*
X0209Y01165*
X021Y01164*
X02109Y01165*
X02117Y01169*
X02125Y01174*
X0213Y01182*
X02134Y0119*
X02135Y012*
X02134Y01209*
X0213Y01217*
X02125Y01225*
X02117Y0123*
X02109Y01234*
X021Y01235*
G37*
G36*
X02Y01335D02*
X0199Y01334D01*
X01982Y0133*
X01974Y01325*
X01969Y01317*
X01965Y01309*
X01964Y013*
X01965Y0129*
X01969Y01282*
X01974Y01274*
X01982Y01269*
X0199Y01265*
X02Y01264*
X02009Y01265*
X02017Y01269*
X02025Y01274*
X0203Y01282*
X02034Y0129*
X02035Y013*
X02034Y01309*
X0203Y01317*
X02025Y01325*
X02017Y0133*
X02009Y01334*
X02Y01335*
G37*
G36*
X00775Y0148D02*
Y01455D01*
X008*
X008Y01458*
X00797Y01465*
X00792Y01472*
X00785Y01477*
X00778Y0148*
X00775Y0148*
G37*
G36*
X01245Y0163D02*
X01241Y0163D01*
X01234Y01627*
X01227Y01622*
X01223Y01615*
X01219Y01608*
X01219Y01605*
X01245*
Y0163*
G37*
G36*
X01255D02*
Y01605D01*
X0128*
X0128Y01608*
X01277Y01615*
X01272Y01622*
X01265Y01627*
X01258Y0163*
X01255Y0163*
G37*
G36*
X0128Y01595D02*
X01255D01*
Y01569*
X01258Y01569*
X01265Y01573*
X01272Y01577*
X01277Y01584*
X0128Y01591*
X0128Y01595*
G37*
G36*
X0185Y01631D02*
X01841Y0163D01*
X01834Y01627*
X01827Y01622*
X01823Y01615*
X01819Y01608*
X01818Y016*
X01819Y01591*
X01823Y01584*
X01827Y01577*
X01834Y01573*
X01841Y01569*
X0185Y01568*
X01858Y01569*
X01865Y01573*
X01872Y01577*
X01877Y01584*
X0188Y01591*
X01881Y016*
X0188Y01608*
X01877Y01615*
X01872Y01622*
X01865Y01627*
X01858Y0163*
X0185Y01631*
G37*
G36*
X01245Y01595D02*
X01219D01*
X01219Y01591*
X01223Y01584*
X01227Y01577*
X01234Y01573*
X01241Y01569*
X01245Y01569*
Y01595*
G37*
G36*
X02095Y01735D02*
X0209Y01734D01*
X02082Y0173*
X02074Y01725*
X02069Y01717*
X02065Y01709*
X02064Y01705*
X02095*
Y01735*
G37*
G36*
X02105D02*
Y01705D01*
X02135*
X02134Y01709*
X0213Y01717*
X02125Y01725*
X02117Y0173*
X02109Y01734*
X02105Y01735*
G37*
G36*
X02135Y01695D02*
X02105D01*
Y01664*
X02109Y01665*
X02117Y01669*
X02125Y01674*
X0213Y01682*
X02134Y0169*
X02135Y01695*
G37*
G36*
X02Y01735D02*
X0199Y01734D01*
X01982Y0173*
X01974Y01725*
X01969Y01717*
X01965Y01709*
X01964Y017*
X01965Y0169*
X01969Y01682*
X01974Y01674*
X01982Y01669*
X0199Y01665*
X02Y01664*
X02009Y01665*
X02017Y01669*
X02025Y01674*
X0203Y01682*
X02034Y0169*
X02035Y017*
X02034Y01709*
X0203Y01717*
X02025Y01725*
X02017Y0173*
X02009Y01734*
X02Y01735*
G37*
G36*
X02095Y01695D02*
X02064D01*
X02065Y0169*
X02069Y01682*
X02074Y01674*
X02082Y01669*
X0209Y01665*
X02095Y01664*
Y01695*
G37*
G36*
X01014Y01552D02*
X00949D01*
Y01487*
X01014*
Y01552*
G37*
G36*
X01173Y01515D02*
X01146D01*
X01146Y01511*
X0115Y01503*
X01155Y01496*
X01162Y01491*
X01169Y01488*
X01173Y01487*
Y01515*
G37*
G36*
X021Y01535D02*
X0209Y01534D01*
X02082Y0153*
X02074Y01525*
X02069Y01517*
X02065Y01509*
X02064Y015*
X02065Y0149*
X02069Y01482*
X02074Y01474*
X02082Y01469*
X0209Y01465*
X021Y01464*
X02109Y01465*
X02117Y01469*
X02125Y01474*
X0213Y01482*
X02134Y0149*
X02135Y015*
X02134Y01509*
X0213Y01517*
X02125Y01525*
X02117Y0153*
X02109Y01534*
X021Y01535*
G37*
G36*
X0172D02*
X0171Y01534D01*
X01702Y0153*
X01694Y01525*
X01689Y01517*
X01685Y01509*
X01684Y015*
X01685Y0149*
X01689Y01482*
X01694Y01474*
X01702Y01469*
X0171Y01465*
X0172Y01464*
X01729Y01465*
X01737Y01469*
X01745Y01474*
X0175Y01482*
X01754Y0149*
X01755Y015*
X01754Y01509*
X0175Y01517*
X01745Y01525*
X01737Y0153*
X01729Y01534*
X0172Y01535*
G37*
G36*
X02D02*
X0199Y01534D01*
X01982Y0153*
X01974Y01525*
X01969Y01517*
X01965Y01509*
X01964Y015*
X01965Y0149*
X01969Y01482*
X01974Y01474*
X01982Y01469*
X0199Y01465*
X02Y01464*
X02009Y01465*
X02017Y01469*
X02025Y01474*
X0203Y01482*
X02034Y0149*
X02035Y015*
X02034Y01509*
X0203Y01517*
X02025Y01525*
X02017Y0153*
X02009Y01534*
X02Y01535*
G37*
G36*
Y01635D02*
X0199Y01634D01*
X01982Y0163*
X01974Y01625*
X01969Y01617*
X01965Y01609*
X01964Y016*
X01965Y0159*
X01969Y01582*
X01974Y01574*
X01982Y01569*
X0199Y01565*
X02Y01564*
X02009Y01565*
X02017Y01569*
X02025Y01574*
X0203Y01582*
X02034Y0159*
X02035Y016*
X02034Y01609*
X0203Y01617*
X02025Y01625*
X02017Y0163*
X02009Y01634*
X02Y01635*
G37*
G36*
X021D02*
X0209Y01634D01*
X02082Y0163*
X02074Y01625*
X02069Y01617*
X02065Y01609*
X02064Y016*
X02065Y0159*
X02069Y01582*
X02074Y01574*
X02082Y01569*
X0209Y01565*
X021Y01564*
X02109Y01565*
X02117Y01569*
X02125Y01574*
X0213Y01582*
X02134Y0159*
X02135Y016*
X02134Y01609*
X0213Y01617*
X02125Y01625*
X02117Y0163*
X02109Y01634*
X021Y01635*
G37*
G36*
X01183Y01552D02*
Y01525D01*
X0121*
X0121Y01528*
X01206Y01536*
X01201Y01543*
X01194Y01548*
X01186Y01551*
X01183Y01552*
G37*
G36*
X0121Y01515D02*
X01183D01*
Y01487*
X01186Y01488*
X01194Y01491*
X01201Y01496*
X01206Y01503*
X0121Y01511*
X0121Y01515*
G37*
G36*
X01173Y01552D02*
X01169Y01551D01*
X01162Y01548*
X01155Y01543*
X0115Y01536*
X01146Y01528*
X01146Y01525*
X01173*
Y01552*
G37*
%LNrazbot_v02-3*%
%LPD*%
G54D26*
X01835Y01055D02*
X019Y0099D01*
X0114Y0066D02*
Y0092D01*
X0193Y0089D02*
X01933Y00886D01*
X0145Y01125D02*
Y0138D01*
X0148Y01065D02*
Y01425D01*
X0052Y01015D02*
X0092D01*
X01805Y0056D02*
Y00775D01*
X0052Y01015D02*
X0092D01*
X0148Y01065D02*
Y0108D01*
Y01425*
X0145Y01125D02*
Y0138D01*
X0193Y0089D02*
X01932Y00887D01*
X01933Y00886*
X0114Y009D02*
Y0092D01*
Y0066D02*
Y009D01*
X01185Y00675D02*
X01275D01*
X01285Y00665*
X01185Y00675D02*
Y01067D01*
X01005Y01145D02*
X0107D01*
X0111Y01185*
X01358Y00553D02*
X01395Y0059D01*
X00996Y00553D02*
X01358D01*
X0069Y0053D02*
X01435D01*
X0156Y0028D02*
X01605D01*
X0138D02*
X01445D01*
X0188Y007D02*
X01915Y00665D01*
X01885Y00875D02*
X01928Y00831D01*
X019Y00879D02*
X01942Y00837D01*
X01945Y00885D02*
X01956Y00873D01*
X01915Y0047D02*
Y00665D01*
X01928Y00464D02*
Y00831D01*
X019Y00455D02*
X01915Y0047D01*
X0187Y00455D02*
X019D01*
X0114Y0066D02*
X0115Y0065D01*
X01195*
X0122Y00625*
X01805Y0056D02*
X01845Y0052D01*
X0173Y01145D02*
Y0115D01*
X0162Y015D02*
X01629D01*
X01445Y0028D02*
X01525Y0036D01*
X01956Y00364D02*
Y00873D01*
X01605Y0028D02*
X01671Y00346D01*
X019Y00879D02*
Y0099D01*
X01942Y00377D02*
Y00837D01*
X0192Y00455D02*
X01928Y00464D01*
X0192Y00405D02*
Y00455D01*
X01885Y00875D02*
Y00965D01*
X0185Y01D02*
X01885Y00965D01*
X0178Y01D02*
X0185D01*
X01938Y00346D02*
X01956Y00364D01*
X01925Y0036D02*
X01942Y00377D01*
X01671Y00346D02*
X01938D01*
X01525Y0036D02*
X01925D01*
X01645Y00405D02*
X0192D01*
X0173Y0097D02*
Y01145D01*
X01745Y00985D02*
X01805Y00925D01*
X01745Y0115D02*
X01745Y01149D01*
Y00985D02*
Y01149D01*
X01745Y0115D02*
Y01154D01*
X01682Y01217D02*
X01745Y01154D01*
X01666Y01208D02*
X0173Y01145D01*
X01805Y00775D02*
Y00925D01*
X0173Y0097D02*
X01775Y00925D01*
X01735Y0046D02*
Y0094D01*
X01775Y0052D02*
Y00925D01*
X0155Y00915D02*
X0165Y00815D01*
X0137Y00915D02*
X0155D01*
X00465Y0096D02*
X0052Y01015D01*
X0111Y01185D02*
X0125D01*
X0141Y01025*
X01715Y0096D02*
X01735Y0094D01*
X01715Y0096D02*
Y01135D01*
X0165Y012D02*
X01715Y01135D01*
X0165Y012D02*
Y0128D01*
X01565Y0132D02*
X0161D01*
X0165Y0128*
X0141Y0142D02*
Y01425D01*
Y0142D02*
X0145Y0138D01*
X0168Y01218D02*
Y01448D01*
X0157Y0155D02*
X0162Y016D01*
X0157Y0146D02*
Y0155D01*
Y0146D02*
X0158Y0145D01*
X0166*
X01666Y01443*
Y01208D02*
Y01443D01*
X01629Y015D02*
X0168Y01448D01*
X01375Y01239D02*
X01385Y0123D01*
X01815Y0165D02*
X01845Y0168D01*
X01575Y0165D02*
X01815D01*
X01375Y01239D02*
Y0145D01*
X01575Y0165*
X01225Y0126D02*
Y0133D01*
X0157Y01675*
X01775*
X0185Y0175*
X0116Y01092D02*
X01185Y01067D01*
X0112Y01092D02*
X0116D01*
G54D27*
X01015Y00595D02*
Y00795D01*
X0101Y00599D02*
X0102Y0059D01*
X006Y00495D02*
X0061D01*
X006D02*
X0061D01*
X01015Y00595D02*
Y00795D01*
X00655Y0074D02*
X0097D01*
X00625Y0071D02*
X00655Y0074D01*
X0086Y0095D02*
X01015Y00795D01*
X0046Y0059D02*
X00469Y00599D01*
X0101*
X00968Y00581D02*
X00996Y00553D01*
X0064Y00565D02*
X00656Y00581D01*
X00968*
X0061Y00495D02*
X0064Y00525D01*
Y00565*
X00685Y00535D02*
X0069Y0053D01*
X00685Y00475D02*
X01485D01*
X00465Y0096D02*
X0047D01*
G54D28*
X01205Y01855D02*
X0126Y018D01*
X01205Y01855D02*
Y01965D01*
G54D30*
X0162Y0174D02*
Y01815D01*
X0168Y01875*
X01835Y0239D02*
X01885Y0244D01*
Y02515*
G54D31*
X0192Y00175D02*
X01975D01*
X0185Y0113D02*
Y01205D01*
X02Y00635D02*
Y0098D01*
Y002D02*
Y00635D01*
X01975Y00175D02*
X02Y002D01*
X0185Y0113D02*
X02Y0098D01*
X00125Y00375D02*
X00645D01*
X001Y004D02*
X00125Y00375D01*
G54D32*
X0028Y01395D02*
X00282Y01392D01*
X0028Y01395D02*
X00282Y01392D01*
X00285Y0139*
X00282Y01392D02*
X00285Y0139D01*
X00282Y01392D02*
X00285Y0139D01*
X00282Y01392D02*
X00285Y0139D01*
X00282Y01392D02*
X00285Y0139D01*
X00282Y01392D02*
X00285Y0139D01*
X0028Y01395D02*
X00282Y01392D01*
X0028Y01395D02*
X00282Y01392D01*
X0028Y01395D02*
X00282Y01392D01*
X0028Y01395D02*
X00282Y01392D01*
X0028Y01395D02*
X00285Y0139D01*
X00282Y01392D02*
X00285Y0139D01*
X0028Y01395D02*
X00282Y01392D01*
X00285Y0139*
X0028Y01395D02*
X00282Y01392D01*
X01725Y0209D02*
Y02175D01*
X01695Y0206D02*
X01725Y0209D01*
X01695Y0198D02*
Y0206D01*
X0035Y0139D02*
Y0155D01*
X0028Y01395D02*
Y0151D01*
X-00385Y-02D02*
X-00365D01*
G54D34*
X01265Y02295D02*
X01285Y02315D01*
X01265Y021D02*
Y02295D01*
X014Y02431D02*
Y02445D01*
X01299Y0233D02*
X014Y02431D01*
G54D37*
X021Y011D03*
X02D03*
X021Y012D03*
X02D03*
X021Y013D03*
X02D03*
X021Y014D03*
X02D03*
X021Y015D03*
X02D03*
X021Y016D03*
X02D03*
X021Y017D03*
X02D03*
X021Y018D03*
X02D03*
X021Y019D03*
X02D03*
X021Y02D03*
X02D03*
X021Y021D03*
X02D03*
X021Y022D03*
X02D03*
X021Y023D03*
X0138Y0008D03*
Y0018D03*
X0174Y0008D03*
Y0018D03*
X0192Y0008D03*
Y0018D03*
X0156Y0008D03*
Y0018D03*
X0172Y014D03*
X0162D03*
X0172Y015D03*
X0162D03*
X0172Y016D03*
X011Y001D03*
X008D03*
X005D03*
X002D03*
X0208Y0038D03*
Y0028D03*
Y0018D03*
Y0008D03*
G54D38*
X02Y023D03*
X0138Y0028D03*
X0174D03*
X0192D03*
X0156D03*
X0162Y016D03*
X0208Y0048D03*
G54D39*
X01178Y0152D03*
X00258Y0088D03*
G54D40*
X00981Y0152D03*
X00061Y0088D03*
G54D41*
X0112Y009D03*
Y01092D03*
G54D42*
X01Y001D03*
X007D03*
X004D03*
X001D03*
G54D43*
X002Y0238D03*
Y0214D03*
X0048Y0238D03*
Y0214D03*
G54D44*
X01835Y0239D03*
X02Y00635D03*
X0185Y016D03*
X014Y02445D03*
X0161Y0173D03*
X01725Y02175D03*
X01565Y0206D03*
X0146D03*
X01205Y01965D03*
X01265Y021D03*
X01695Y0198D03*
X0168Y01875D03*
X01885Y02515D03*
X002Y01145D03*
X0077Y0145D03*
X0035Y01555D03*
Y0139D03*
X0028D03*
Y0151D03*
X0126Y018D03*
X00645Y00375D03*
X01285Y02315D03*
X0138Y0071D03*
X0086Y0095D03*
X0046Y0059D03*
X0097Y0074D03*
X00625Y0071D03*
X0017Y0068D03*
X001Y004D03*
X0103Y0029D03*
X00455Y00295D03*
X0077Y0069D03*
X006Y00475D03*
X0068Y0047D03*
X01485Y00475D03*
X01435Y0053D03*
X0102Y006D03*
X01395Y0059D03*
X00685Y0054D03*
X00475Y0072D03*
X0194Y00895D03*
X01825Y01055D03*
X01645Y00405D03*
X0188Y007D03*
X0187Y00455D03*
X0178Y01D03*
X0132Y0104D03*
X0122Y00625D03*
X0115Y0059D03*
X01295Y00665D03*
X01845Y0052D03*
X01735Y0046D03*
X01775Y0052D03*
X0123Y00755D03*
X0165Y00815D03*
X0137Y00915D03*
X01385Y0123D03*
X01225Y0126D03*
X01435Y01125D03*
X01495Y0108D03*
X00465Y0096D03*
X0141Y01025D03*
X0185Y01205D03*
X01565Y0132D03*
X0141Y01425D03*
X0148D03*
X01855Y0168D03*
Y01755D03*
X0125Y016D03*
X0092Y01025D03*
X01005Y01145D03*
M02*