%FSTAX23Y23*%
%MOIN*%
%SFA1B1*%

%IPPOS*%
%ADD64C,0.067060*%
%ADD65R,0.067060X0.067060*%
%ADD66C,0.061150*%
%ADD67R,0.061150X0.061150*%
%ADD68C,0.067060*%
%ADD69R,0.067060X0.067060*%
%ADD70C,0.158000*%
%ADD71C,0.058000*%
%LNrazbot_v02-1*%
%LPD*%
G54D64*
X021Y011D03*
X02D03*
X021Y012D03*
X02D03*
X021Y013D03*
X02D03*
X021Y014D03*
X02D03*
X021Y015D03*
X02D03*
X021Y016D03*
X02D03*
X021Y017D03*
X02D03*
X021Y018D03*
X02D03*
X021Y019D03*
X02D03*
X021Y02D03*
X02D03*
X021Y021D03*
X02D03*
X021Y022D03*
X02D03*
X021Y023D03*
X0138Y0008D03*
Y0018D03*
X0174Y0008D03*
Y0018D03*
X0192Y0008D03*
Y0018D03*
X0156Y0008D03*
Y0018D03*
X0172Y014D03*
X0162D03*
X0172Y015D03*
X0162D03*
X0172Y016D03*
X011Y001D03*
X008D03*
X005D03*
X002D03*
X0208Y0038D03*
Y0028D03*
Y0018D03*
Y0008D03*
G54D65*
X02Y023D03*
X0138Y0028D03*
X0174D03*
X0192D03*
X0156D03*
X0162Y016D03*
X0208Y0048D03*
G54D66*
X01178Y0152D03*
X00258Y0088D03*
G54D67*
X00981Y0152D03*
X00061Y0088D03*
G54D68*
X0112Y009D03*
Y01092D03*
G54D69*
X01Y001D03*
X007D03*
X004D03*
X001D03*
G54D70*
X002Y0238D03*
Y0214D03*
X0048Y0238D03*
Y0214D03*
G54D71*
X01835Y0239D03*
X02Y00635D03*
X0185Y016D03*
X014Y02445D03*
X0161Y0173D03*
X01725Y02175D03*
X01565Y0206D03*
X0146D03*
X01205Y01965D03*
X01265Y021D03*
X01695Y0198D03*
X0168Y01875D03*
X01885Y02515D03*
X002Y01145D03*
X0077Y0145D03*
X0035Y01555D03*
Y0139D03*
X0028D03*
Y0151D03*
X0126Y018D03*
X00645Y00375D03*
X01285Y02315D03*
X0138Y0071D03*
X0086Y0095D03*
X0046Y0059D03*
X0097Y0074D03*
X00625Y0071D03*
X0017Y0068D03*
X001Y004D03*
X0103Y0029D03*
X00455Y00295D03*
X0077Y0069D03*
X006Y00475D03*
X0068Y0047D03*
X01485Y00475D03*
X01435Y0053D03*
X0102Y006D03*
X01395Y0059D03*
X00685Y0054D03*
X00475Y0072D03*
X0194Y00895D03*
X01825Y01055D03*
X01645Y00405D03*
X0188Y007D03*
X0187Y00455D03*
X0178Y01D03*
X0132Y0104D03*
X0122Y00625D03*
X0115Y0059D03*
X01295Y00665D03*
X01845Y0052D03*
X01735Y0046D03*
X01775Y0052D03*
X0123Y00755D03*
X0165Y00815D03*
X0137Y00915D03*
X01385Y0123D03*
X01225Y0126D03*
X01435Y01125D03*
X01495Y0108D03*
X00465Y0096D03*
X0141Y01025D03*
X0185Y01205D03*
X01565Y0132D03*
X0141Y01425D03*
X0148D03*
X01855Y0168D03*
Y01755D03*
X0125Y016D03*
X0092Y01025D03*
X01005Y01145D03*
M02*