%FSTAX23Y23*%
%MOIN*%
%SFA1B1*%

%IPPOS*%
%ADD34C,0.010000*%
%ADD36C,0.000000*%
%ADD37C,0.003940*%
%ADD73C,0.006670*%
%LNrazbot_v02-1*%
%LPD*%
G54D34*
X0Y0D02*
Y02555D01*
X0216*
Y0D02*
Y02555D01*
X0Y0D02*
X0216D01*
G54D36*
X0206Y0006D02*
Y001D01*
X021*
Y0006*
X0206*
Y0016D02*
Y002D01*
X021*
Y0016*
X0206*
Y0026D02*
Y003D01*
X021*
Y0026*
X0206*
Y0036D02*
Y004D01*
X021*
Y0036*
X0206*
Y0046D02*
Y005D01*
X021*
Y0046*
X0206*
X00258Y0086D02*
X00238Y009D01*
X00278*
X00258Y0086*
X00061D02*
X00041Y009D01*
X00081*
X00061Y0086*
X0018Y0008D02*
Y0012D01*
X0022*
Y0008*
X0018*
X0008D02*
Y0012D01*
X0012*
Y0008*
X0008*
X0048D02*
Y0012D01*
X0052*
Y0008*
X0048*
X0038D02*
Y0012D01*
X0042*
Y0008*
X0038*
X0078D02*
Y0012D01*
X0082*
Y0008*
X0078*
X0068D02*
Y0012D01*
X0072*
Y0008*
X0068*
X0108D02*
Y0012D01*
X0112*
Y0008*
X0108*
X0098D02*
Y0012D01*
X0102*
Y0008*
X0098*
X016Y0158D02*
Y0162D01*
X0164*
Y0158*
X016*
X017D02*
Y0162D01*
X0174*
Y0158*
X017*
X016Y0148D02*
Y0152D01*
X0164*
Y0148*
X016*
X017D02*
Y0152D01*
X0174*
Y0148*
X017*
X016Y0138D02*
Y0142D01*
X0164*
Y0138*
X016*
X017D02*
Y0142D01*
X0174*
Y0138*
X017*
X011Y01072D02*
Y01112D01*
X0114*
Y01072*
X011*
Y0088D02*
Y0092D01*
X0114*
Y0088*
X011*
X0154Y0026D02*
Y003D01*
X0158*
Y0026*
X0154*
Y0016D02*
Y002D01*
X0158*
Y0016*
X0154*
Y0006D02*
Y001D01*
X0158*
Y0006*
X0154*
X019Y0026D02*
Y003D01*
X0194*
Y0026*
X019*
Y0016D02*
Y002D01*
X0194*
Y0016*
X019*
Y0006D02*
Y001D01*
X0194*
Y0006*
X019*
X0172Y0026D02*
Y003D01*
X0176*
Y0026*
X0172*
Y0016D02*
Y002D01*
X0176*
Y0016*
X0172*
Y0006D02*
Y001D01*
X0176*
Y0006*
X0172*
X0136Y0026D02*
Y003D01*
X014*
Y0026*
X0136*
Y0016D02*
Y002D01*
X014*
Y0016*
X0136*
Y0006D02*
Y001D01*
X014*
Y0006*
X0136*
X00981Y015D02*
X00961Y0154D01*
X01001*
X00981Y015*
X01178D02*
X01158Y0154D01*
X01198*
X01178Y015*
X0198Y0228D02*
Y0232D01*
X0202*
Y0228*
X0198*
X0208D02*
Y0232D01*
X0212*
Y0228*
X0208*
X0198Y0218D02*
Y0222D01*
X0202*
Y0218*
X0198*
X0208D02*
Y0222D01*
X0212*
Y0218*
X0208*
X0198Y0208D02*
Y0212D01*
X0202*
Y0208*
X0198*
X0208D02*
Y0212D01*
X0212*
Y0208*
X0208*
X0198Y0198D02*
Y0202D01*
X0202*
Y0198*
X0198*
X0208D02*
Y0202D01*
X0212*
Y0198*
X0208*
X0198Y0188D02*
Y0192D01*
X0202*
Y0188*
X0198*
X0208D02*
Y0192D01*
X0212*
Y0188*
X0208*
X0198Y0178D02*
Y0182D01*
X0202*
Y0178*
X0198*
X0208D02*
Y0182D01*
X0212*
Y0178*
X0208*
X0198Y0168D02*
Y0172D01*
X0202*
Y0168*
X0198*
X0208D02*
Y0172D01*
X0212*
Y0168*
X0208*
X0198Y0158D02*
Y0162D01*
X0202*
Y0158*
X0198*
X0208D02*
Y0162D01*
X0212*
Y0158*
X0208*
X0198Y0148D02*
Y0152D01*
X0202*
Y0148*
X0198*
X0208D02*
Y0152D01*
X0212*
Y0148*
X0208*
X0198Y0138D02*
Y0142D01*
X0202*
Y0138*
X0198*
X0208D02*
Y0142D01*
X0212*
Y0138*
X0208*
X0198Y0128D02*
Y0132D01*
X0202*
Y0128*
X0198*
X0208D02*
Y0132D01*
X0212*
Y0128*
X0208*
X0198Y0118D02*
Y0122D01*
X0202*
Y0118*
X0198*
X0208D02*
Y0122D01*
X0212*
Y0118*
X0208*
X0198Y0108D02*
Y0112D01*
X0202*
Y0108*
X0198*
X0208D02*
Y0112D01*
X0212*
Y0108*
X0208*
X01005Y01125D02*
X01015Y01135D01*
X01025*
X01015Y01145*
X01025Y01155*
X01015*
X01005Y01165*
X00995Y01155*
X00985*
X00995Y01145*
X00985Y01135*
X00995*
X01005Y01125*
X0092Y01005D02*
X0093Y01015D01*
X0094*
X0093Y01025*
X0094Y01035*
X0093*
X0092Y01045*
X0091Y01035*
X009*
X0091Y01025*
X009Y01015*
X0091*
X0092Y01005*
X0125Y0158D02*
X0126Y0159D01*
X0127*
X0126Y016*
X0127Y0161*
X0126*
X0125Y0162*
X0124Y0161*
X0123*
X0124Y016*
X0123Y0159*
X0124*
X0125Y0158*
X01855Y01735D02*
X01865Y01745D01*
X01875*
X01865Y01755*
X01875Y01765*
X01865*
X01855Y01775*
X01845Y01765*
X01835*
X01845Y01755*
X01835Y01745*
X01845*
X01855Y01735*
Y0166D02*
X01865Y0167D01*
X01875*
X01865Y0168*
X01875Y0169*
X01865*
X01855Y017*
X01845Y0169*
X01835*
X01845Y0168*
X01835Y0167*
X01845*
X01855Y0166*
X0148Y01405D02*
X0149Y01415D01*
X015*
X0149Y01425*
X015Y01435*
X0149*
X0148Y01445*
X0147Y01435*
X0146*
X0147Y01425*
X0146Y01415*
X0147*
X0148Y01405*
X0141D02*
X0142Y01415D01*
X0143*
X0142Y01425*
X0143Y01435*
X0142*
X0141Y01445*
X014Y01435*
X0139*
X014Y01425*
X0139Y01415*
X014*
X0141Y01405*
X01565Y013D02*
X01575Y0131D01*
X01585*
X01575Y0132*
X01585Y0133*
X01575*
X01565Y0134*
X01555Y0133*
X01545*
X01555Y0132*
X01545Y0131*
X01555*
X01565Y013*
X0185Y01185D02*
X0186Y01195D01*
X0187*
X0186Y01205*
X0187Y01215*
X0186*
X0185Y01225*
X0184Y01215*
X0183*
X0184Y01205*
X0183Y01195*
X0184*
X0185Y01185*
X0141Y01005D02*
X0142Y01015D01*
X0143*
X0142Y01025*
X0143Y01035*
X0142*
X0141Y01045*
X014Y01035*
X0139*
X014Y01025*
X0139Y01015*
X014*
X0141Y01005*
X00465Y0094D02*
X00475Y0095D01*
X00485*
X00475Y0096*
X00485Y0097*
X00475*
X00465Y0098*
X00455Y0097*
X00445*
X00455Y0096*
X00445Y0095*
X00455*
X00465Y0094*
X01495Y0106D02*
X01505Y0107D01*
X01515*
X01505Y0108*
X01515Y0109*
X01505*
X01495Y011*
X01485Y0109*
X01475*
X01485Y0108*
X01475Y0107*
X01485*
X01495Y0106*
X01435Y01105D02*
X01445Y01115D01*
X01455*
X01445Y01125*
X01455Y01135*
X01445*
X01435Y01145*
X01425Y01135*
X01415*
X01425Y01125*
X01415Y01115*
X01425*
X01435Y01105*
X01225Y0124D02*
X01235Y0125D01*
X01245*
X01235Y0126*
X01245Y0127*
X01235*
X01225Y0128*
X01215Y0127*
X01205*
X01215Y0126*
X01205Y0125*
X01215*
X01225Y0124*
X01385Y0121D02*
X01395Y0122D01*
X01405*
X01395Y0123*
X01405Y0124*
X01395*
X01385Y0125*
X01375Y0124*
X01365*
X01375Y0123*
X01365Y0122*
X01375*
X01385Y0121*
X0137Y00895D02*
X0138Y00905D01*
X0139*
X0138Y00915*
X0139Y00925*
X0138*
X0137Y00935*
X0136Y00925*
X0135*
X0136Y00915*
X0135Y00905*
X0136*
X0137Y00895*
X0165Y00795D02*
X0166Y00805D01*
X0167*
X0166Y00815*
X0167Y00825*
X0166*
X0165Y00835*
X0164Y00825*
X0163*
X0164Y00815*
X0163Y00805*
X0164*
X0165Y00795*
X0123Y00735D02*
X0124Y00745D01*
X0125*
X0124Y00755*
X0125Y00765*
X0124*
X0123Y00775*
X0122Y00765*
X0121*
X0122Y00755*
X0121Y00745*
X0122*
X0123Y00735*
X01775Y005D02*
X01785Y0051D01*
X01795*
X01785Y0052*
X01795Y0053*
X01785*
X01775Y0054*
X01765Y0053*
X01755*
X01765Y0052*
X01755Y0051*
X01765*
X01775Y005*
X01735Y0044D02*
X01745Y0045D01*
X01755*
X01745Y0046*
X01755Y0047*
X01745*
X01735Y0048*
X01725Y0047*
X01715*
X01725Y0046*
X01715Y0045*
X01725*
X01735Y0044*
X01845Y005D02*
X01855Y0051D01*
X01865*
X01855Y0052*
X01865Y0053*
X01855*
X01845Y0054*
X01835Y0053*
X01825*
X01835Y0052*
X01825Y0051*
X01835*
X01845Y005*
X01295Y00645D02*
X01305Y00655D01*
X01315*
X01305Y00665*
X01315Y00675*
X01305*
X01295Y00685*
X01285Y00675*
X01275*
X01285Y00665*
X01275Y00655*
X01285*
X01295Y00645*
X0115Y0057D02*
X0116Y0058D01*
X0117*
X0116Y0059*
X0117Y006*
X0116*
X0115Y0061*
X0114Y006*
X0113*
X0114Y0059*
X0113Y0058*
X0114*
X0115Y0057*
X0122Y00605D02*
X0123Y00615D01*
X0124*
X0123Y00625*
X0124Y00635*
X0123*
X0122Y00645*
X0121Y00635*
X012*
X0121Y00625*
X012Y00615*
X0121*
X0122Y00605*
X0132Y0102D02*
X0133Y0103D01*
X0134*
X0133Y0104*
X0134Y0105*
X0133*
X0132Y0106*
X0131Y0105*
X013*
X0131Y0104*
X013Y0103*
X0131*
X0132Y0102*
X0178Y0098D02*
X0179Y0099D01*
X018*
X0179Y01*
X018Y0101*
X0179*
X0178Y0102*
X0177Y0101*
X0176*
X0177Y01*
X0176Y0099*
X0177*
X0178Y0098*
X0187Y00435D02*
X0188Y00445D01*
X0189*
X0188Y00455*
X0189Y00465*
X0188*
X0187Y00475*
X0186Y00465*
X0185*
X0186Y00455*
X0185Y00445*
X0186*
X0187Y00435*
X0188Y0068D02*
X0189Y0069D01*
X019*
X0189Y007*
X019Y0071*
X0189*
X0188Y0072*
X0187Y0071*
X0186*
X0187Y007*
X0186Y0069*
X0187*
X0188Y0068*
X01645Y00385D02*
X01655Y00395D01*
X01665*
X01655Y00405*
X01665Y00415*
X01655*
X01645Y00425*
X01635Y00415*
X01625*
X01635Y00405*
X01625Y00395*
X01635*
X01645Y00385*
X01825Y01035D02*
X01835Y01045D01*
X01845*
X01835Y01055*
X01845Y01065*
X01835*
X01825Y01075*
X01815Y01065*
X01805*
X01815Y01055*
X01805Y01045*
X01815*
X01825Y01035*
X0194Y00875D02*
X0195Y00885D01*
X0196*
X0195Y00895*
X0196Y00905*
X0195*
X0194Y00915*
X0193Y00905*
X0192*
X0193Y00895*
X0192Y00885*
X0193*
X0194Y00875*
X00475Y007D02*
X00485Y0071D01*
X00495*
X00485Y0072*
X00495Y0073*
X00485*
X00475Y0074*
X00465Y0073*
X00455*
X00465Y0072*
X00455Y0071*
X00465*
X00475Y007*
X00685Y0052D02*
X00695Y0053D01*
X00705*
X00695Y0054*
X00705Y0055*
X00695*
X00685Y0056*
X00675Y0055*
X00665*
X00675Y0054*
X00665Y0053*
X00675*
X00685Y0052*
X01395Y0057D02*
X01405Y0058D01*
X01415*
X01405Y0059*
X01415Y006*
X01405*
X01395Y0061*
X01385Y006*
X01375*
X01385Y0059*
X01375Y0058*
X01385*
X01395Y0057*
X0102Y0058D02*
X0103Y0059D01*
X0104*
X0103Y006*
X0104Y0061*
X0103*
X0102Y0062*
X0101Y0061*
X01*
X0101Y006*
X01Y0059*
X0101*
X0102Y0058*
X01435Y0051D02*
X01445Y0052D01*
X01455*
X01445Y0053*
X01455Y0054*
X01445*
X01435Y0055*
X01425Y0054*
X01415*
X01425Y0053*
X01415Y0052*
X01425*
X01435Y0051*
X01485Y00455D02*
X01495Y00465D01*
X01505*
X01495Y00475*
X01505Y00485*
X01495*
X01485Y00495*
X01475Y00485*
X01465*
X01475Y00475*
X01465Y00465*
X01475*
X01485Y00455*
X0068Y0045D02*
X0069Y0046D01*
X007*
X0069Y0047*
X007Y0048*
X0069*
X0068Y0049*
X0067Y0048*
X0066*
X0067Y0047*
X0066Y0046*
X0067*
X0068Y0045*
X006Y00455D02*
X0061Y00465D01*
X0062*
X0061Y00475*
X0062Y00485*
X0061*
X006Y00495*
X0059Y00485*
X0058*
X0059Y00475*
X0058Y00465*
X0059*
X006Y00455*
X0077Y0067D02*
X0078Y0068D01*
X0079*
X0078Y0069*
X0079Y007*
X0078*
X0077Y0071*
X0076Y007*
X0075*
X0076Y0069*
X0075Y0068*
X0076*
X0077Y0067*
X00455Y00275D02*
X00465Y00285D01*
X00475*
X00465Y00295*
X00475Y00305*
X00465*
X00455Y00315*
X00445Y00305*
X00435*
X00445Y00295*
X00435Y00285*
X00445*
X00455Y00275*
X0103Y0027D02*
X0104Y0028D01*
X0105*
X0104Y0029*
X0105Y003*
X0104*
X0103Y0031*
X0102Y003*
X0101*
X0102Y0029*
X0101Y0028*
X0102*
X0103Y0027*
X001Y0038D02*
X0011Y0039D01*
X0012*
X0011Y004*
X0012Y0041*
X0011*
X001Y0042*
X0009Y0041*
X0008*
X0009Y004*
X0008Y0039*
X0009*
X001Y0038*
X0017Y0066D02*
X0018Y0067D01*
X0019*
X0018Y0068*
X0019Y0069*
X0018*
X0017Y007*
X0016Y0069*
X0015*
X0016Y0068*
X0015Y0067*
X0016*
X0017Y0066*
X00625Y0069D02*
X00635Y007D01*
X00645*
X00635Y0071*
X00645Y0072*
X00635*
X00625Y0073*
X00615Y0072*
X00605*
X00615Y0071*
X00605Y007*
X00615*
X00625Y0069*
X0097Y0072D02*
X0098Y0073D01*
X0099*
X0098Y0074*
X0099Y0075*
X0098*
X0097Y0076*
X0096Y0075*
X0095*
X0096Y0074*
X0095Y0073*
X0096*
X0097Y0072*
X0046Y0057D02*
X0047Y0058D01*
X0048*
X0047Y0059*
X0048Y006*
X0047*
X0046Y0061*
X0045Y006*
X0044*
X0045Y0059*
X0044Y0058*
X0045*
X0046Y0057*
X0086Y0093D02*
X0087Y0094D01*
X0088*
X0087Y0095*
X0088Y0096*
X0087*
X0086Y0097*
X0085Y0096*
X0084*
X0085Y0095*
X0084Y0094*
X0085*
X0086Y0093*
X0138Y0069D02*
X0139Y007D01*
X014*
X0139Y0071*
X014Y0072*
X0139*
X0138Y0073*
X0137Y0072*
X0136*
X0137Y0071*
X0136Y007*
X0137*
X0138Y0069*
X01285Y02295D02*
X01295Y02305D01*
X01305*
X01295Y02315*
X01305Y02325*
X01295*
X01285Y02335*
X01275Y02325*
X01265*
X01275Y02315*
X01265Y02305*
X01275*
X01285Y02295*
X00645Y00355D02*
X00655Y00365D01*
X00665*
X00655Y00375*
X00665Y00385*
X00655*
X00645Y00395*
X00635Y00385*
X00625*
X00635Y00375*
X00625Y00365*
X00635*
X00645Y00355*
X0126Y0178D02*
X0127Y0179D01*
X0128*
X0127Y018*
X0128Y0181*
X0127*
X0126Y0182*
X0125Y0181*
X0124*
X0125Y018*
X0124Y0179*
X0125*
X0126Y0178*
X0028Y0149D02*
X0029Y015D01*
X003*
X0029Y0151*
X003Y0152*
X0029*
X0028Y0153*
X0027Y0152*
X0026*
X0027Y0151*
X0026Y015*
X0027*
X0028Y0149*
Y0137D02*
X0029Y0138D01*
X003*
X0029Y0139*
X003Y014*
X0029*
X0028Y0141*
X0027Y014*
X0026*
X0027Y0139*
X0026Y0138*
X0027*
X0028Y0137*
X0035D02*
X0036Y0138D01*
X0037*
X0036Y0139*
X0037Y014*
X0036*
X0035Y0141*
X0034Y014*
X0033*
X0034Y0139*
X0033Y0138*
X0034*
X0035Y0137*
Y01535D02*
X0036Y01545D01*
X0037*
X0036Y01555*
X0037Y01565*
X0036*
X0035Y01575*
X0034Y01565*
X0033*
X0034Y01555*
X0033Y01545*
X0034*
X0035Y01535*
X0077Y0143D02*
X0078Y0144D01*
X0079*
X0078Y0145*
X0079Y0146*
X0078*
X0077Y0147*
X0076Y0146*
X0075*
X0076Y0145*
X0075Y0144*
X0076*
X0077Y0143*
X002Y01125D02*
X0021Y01135D01*
X0022*
X0021Y01145*
X0022Y01155*
X0021*
X002Y01165*
X0019Y01155*
X0018*
X0019Y01145*
X0018Y01135*
X0019*
X002Y01125*
X01885Y02495D02*
X01895Y02505D01*
X01905*
X01895Y02515*
X01905Y02525*
X01895*
X01885Y02535*
X01875Y02525*
X01865*
X01875Y02515*
X01865Y02505*
X01875*
X01885Y02495*
X0168Y01855D02*
X0169Y01865D01*
X017*
X0169Y01875*
X017Y01885*
X0169*
X0168Y01895*
X0167Y01885*
X0166*
X0167Y01875*
X0166Y01865*
X0167*
X0168Y01855*
X01695Y0196D02*
X01705Y0197D01*
X01715*
X01705Y0198*
X01715Y0199*
X01705*
X01695Y02*
X01685Y0199*
X01675*
X01685Y0198*
X01675Y0197*
X01685*
X01695Y0196*
X01265Y0208D02*
X01275Y0209D01*
X01285*
X01275Y021*
X01285Y0211*
X01275*
X01265Y0212*
X01255Y0211*
X01245*
X01255Y021*
X01245Y0209*
X01255*
X01265Y0208*
X01205Y01945D02*
X01215Y01955D01*
X01225*
X01215Y01965*
X01225Y01975*
X01215*
X01205Y01985*
X01195Y01975*
X01185*
X01195Y01965*
X01185Y01955*
X01195*
X01205Y01945*
X0146Y0204D02*
X0147Y0205D01*
X0148*
X0147Y0206*
X0148Y0207*
X0147*
X0146Y0208*
X0145Y0207*
X0144*
X0145Y0206*
X0144Y0205*
X0145*
X0146Y0204*
X01565D02*
X01575Y0205D01*
X01585*
X01575Y0206*
X01585Y0207*
X01575*
X01565Y0208*
X01555Y0207*
X01545*
X01555Y0206*
X01545Y0205*
X01555*
X01565Y0204*
X01725Y02155D02*
X01735Y02165D01*
X01745*
X01735Y02175*
X01745Y02185*
X01735*
X01725Y02195*
X01715Y02185*
X01705*
X01715Y02175*
X01705Y02165*
X01715*
X01725Y02155*
X0161Y0171D02*
X0162Y0172D01*
X0163*
X0162Y0173*
X0163Y0174*
X0162*
X0161Y0175*
X016Y0174*
X0159*
X016Y0173*
X0159Y0172*
X016*
X0161Y0171*
X014Y02425D02*
X0141Y02435D01*
X0142*
X0141Y02445*
X0142Y02455*
X0141*
X014Y02465*
X0139Y02455*
X0138*
X0139Y02445*
X0138Y02435*
X0139*
X014Y02425*
X0185Y0158D02*
X0186Y0159D01*
X0187*
X0186Y016*
X0187Y0161*
X0186*
X0185Y0162*
X0184Y0161*
X0183*
X0184Y016*
X0183Y0159*
X0184*
X0185Y0158*
X02Y00615D02*
X0201Y00625D01*
X0202*
X0201Y00635*
X0202Y00645*
X0201*
X02Y00655*
X0199Y00645*
X0198*
X0199Y00635*
X0198Y00625*
X0199*
X02Y00615*
X01835Y0237D02*
X01845Y0238D01*
X01855*
X01845Y0239*
X01855Y024*
X01845*
X01835Y0241*
X01825Y024*
X01815*
X01825Y0239*
X01815Y0238*
X01825*
X01835Y0237*
G54D37*
X01472Y02254D02*
D01*
X01472Y02255*
X01471Y02257*
X01471Y02258*
X01471Y02259*
X0147Y02261*
X0147Y02262*
X01469Y02263*
X01469Y02264*
X01468Y02266*
X01467Y02267*
X01466Y02268*
X01465Y02269*
X01464Y0227*
X01463Y0227*
X01462Y02271*
X0146Y02272*
X01459Y02272*
X01458Y02273*
X01457Y02273*
X01455Y02273*
X01454Y02274*
X01453Y02274*
X01451*
X0145Y02274*
X01448Y02273*
X01447Y02273*
X01446Y02273*
X01444Y02272*
X01443Y02272*
X01442Y02271*
X01441Y0227*
X0144Y0227*
X01439Y02269*
X01438Y02268*
X01437Y02267*
X01436Y02266*
X01435Y02264*
X01434Y02263*
X01434Y02262*
X01433Y02261*
X01433Y02259*
X01433Y02258*
X01432Y02257*
X01432Y02255*
X01432Y02254*
X01432Y02253*
X01432Y02251*
X01433Y0225*
X01433Y02249*
X01433Y02247*
X01434Y02246*
X01434Y02245*
X01435Y02244*
X01436Y02242*
X01437Y02241*
X01438Y0224*
X01439Y02239*
X0144Y02239*
X01441Y02238*
X01442Y02237*
X01443Y02236*
X01444Y02236*
X01446Y02235*
X01447Y02235*
X01448Y02235*
X0145Y02234*
X01451Y02234*
X01453*
X01454Y02234*
X01455Y02235*
X01457Y02235*
X01458Y02235*
X01459Y02236*
X0146Y02236*
X01462Y02237*
X01463Y02238*
X01464Y02239*
X01465Y02239*
X01466Y0224*
X01467Y02241*
X01468Y02242*
X01469Y02244*
X01469Y02245*
X0147Y02246*
X0147Y02247*
X01471Y02249*
X01471Y0225*
X01471Y02251*
X01472Y02253*
X01472Y02254*
X00856Y01862D02*
D01*
X00856Y01864*
X00856Y01865*
X00855Y01867*
X00855Y01868*
X00855Y01869*
X00854Y0187*
X00854Y01872*
X00853Y01873*
X00852Y01874*
X00851Y01875*
X0085Y01876*
X00849Y01877*
X00848Y01878*
X00847Y01879*
X00846Y0188*
X00845Y0188*
X00844Y01881*
X00842Y01881*
X00841Y01882*
X0084Y01882*
X00838Y01882*
X00837Y01882*
X00836*
X00834Y01882*
X00833Y01882*
X00831Y01882*
X0083Y01881*
X00829Y01881*
X00828Y0188*
X00826Y0188*
X00825Y01879*
X00824Y01878*
X00823Y01877*
X00822Y01876*
X00821Y01875*
X0082Y01874*
X00819Y01873*
X00819Y01872*
X00818Y0187*
X00818Y01869*
X00817Y01868*
X00817Y01867*
X00817Y01865*
X00817Y01864*
X00817Y01862*
X00817Y01861*
X00817Y0186*
X00817Y01858*
X00817Y01857*
X00818Y01856*
X00818Y01854*
X00819Y01853*
X00819Y01852*
X0082Y01851*
X00821Y0185*
X00822Y01849*
X00823Y01848*
X00824Y01847*
X00825Y01846*
X00826Y01845*
X00828Y01845*
X00829Y01844*
X0083Y01844*
X00831Y01843*
X00833Y01843*
X00834Y01843*
X00836Y01843*
X00837*
X00838Y01843*
X0084Y01843*
X00841Y01843*
X00842Y01844*
X00844Y01844*
X00845Y01845*
X00846Y01845*
X00847Y01846*
X00848Y01847*
X00849Y01848*
X0085Y01849*
X00851Y0185*
X00852Y01851*
X00853Y01852*
X00854Y01853*
X00854Y01854*
X00855Y01856*
X00855Y01857*
X00855Y01858*
X00856Y0186*
X00856Y01861*
X00856Y01862*
X00536Y01542D02*
D01*
X00536Y01544*
X00536Y01545*
X00535Y01547*
X00535Y01548*
X00535Y01549*
X00534Y0155*
X00534Y01552*
X00533Y01553*
X00532Y01554*
X00531Y01555*
X0053Y01556*
X00529Y01557*
X00528Y01558*
X00527Y01559*
X00526Y0156*
X00525Y0156*
X00524Y01561*
X00522Y01561*
X00521Y01562*
X0052Y01562*
X00518Y01562*
X00517Y01562*
X00516*
X00514Y01562*
X00513Y01562*
X00511Y01562*
X0051Y01561*
X00509Y01561*
X00508Y0156*
X00506Y0156*
X00505Y01559*
X00504Y01558*
X00503Y01557*
X00502Y01556*
X00501Y01555*
X005Y01554*
X00499Y01553*
X00499Y01552*
X00498Y0155*
X00498Y01549*
X00497Y01548*
X00497Y01547*
X00497Y01545*
X00497Y01544*
X00497Y01542*
X00497Y01541*
X00497Y0154*
X00497Y01538*
X00497Y01537*
X00498Y01536*
X00498Y01534*
X00499Y01533*
X00499Y01532*
X005Y01531*
X00501Y0153*
X00502Y01529*
X00503Y01528*
X00504Y01527*
X00505Y01526*
X00506Y01525*
X00508Y01525*
X00509Y01524*
X0051Y01524*
X00511Y01523*
X00513Y01523*
X00514Y01523*
X00516Y01523*
X00517*
X00518Y01523*
X0052Y01523*
X00521Y01523*
X00522Y01524*
X00524Y01524*
X00525Y01525*
X00526Y01525*
X00527Y01526*
X00528Y01527*
X00529Y01528*
X0053Y01529*
X00531Y0153*
X00532Y01531*
X00533Y01532*
X00534Y01533*
X00534Y01534*
X00535Y01536*
X00535Y01537*
X00535Y01538*
X00536Y0154*
X00536Y01541*
X00536Y01542*
X01389Y01323D02*
D01*
X01389Y01325*
X01389Y01326*
X01389Y01328*
X01389Y01329*
X01388Y0133*
X01388Y01331*
X01387Y01333*
X01386Y01334*
X01386Y01335*
X01385Y01336*
X01384Y01337*
X01383Y01338*
X01382Y01339*
X01381Y0134*
X01379Y0134*
X01378Y01341*
X01377Y01342*
X01376Y01342*
X01374Y01343*
X01373Y01343*
X01372Y01343*
X0137Y01343*
X01369*
X01368Y01343*
X01366Y01343*
X01365Y01343*
X01364Y01342*
X01362Y01342*
X01361Y01341*
X0136Y0134*
X01359Y0134*
X01358Y01339*
X01356Y01338*
X01355Y01337*
X01355Y01336*
X01354Y01335*
X01353Y01334*
X01352Y01333*
X01352Y01331*
X01351Y0133*
X01351Y01329*
X0135Y01328*
X0135Y01326*
X0135Y01325*
X0135Y01323*
X0135Y01322*
X0135Y01321*
X0135Y01319*
X01351Y01318*
X01351Y01317*
X01352Y01315*
X01352Y01314*
X01353Y01313*
X01354Y01312*
X01355Y01311*
X01355Y0131*
X01356Y01309*
X01358Y01308*
X01359Y01307*
X0136Y01306*
X01361Y01306*
X01362Y01305*
X01364Y01305*
X01365Y01304*
X01366Y01304*
X01368Y01304*
X01369Y01304*
X0137*
X01372Y01304*
X01373Y01304*
X01374Y01304*
X01376Y01305*
X01377Y01305*
X01378Y01306*
X01379Y01306*
X01381Y01307*
X01382Y01308*
X01383Y01309*
X01384Y0131*
X01385Y01311*
X01386Y01312*
X01386Y01313*
X01387Y01314*
X01388Y01315*
X01388Y01317*
X01389Y01318*
X01389Y01319*
X01389Y01321*
X01389Y01322*
X01389Y01323*
X01557Y00862D02*
D01*
X01557Y00863*
X01557Y00865*
X01556Y00866*
X01556Y00867*
X01556Y00869*
X01555Y0087*
X01555Y00871*
X01554Y00872*
X01553Y00873*
X01552Y00875*
X01551Y00876*
X0155Y00876*
X01549Y00877*
X01548Y00878*
X01547Y00879*
X01546Y0088*
X01545Y0088*
X01543Y00881*
X01542Y00881*
X01541Y00881*
X01539Y00881*
X01538Y00882*
X01536*
X01535Y00881*
X01534Y00881*
X01532Y00881*
X01531Y00881*
X0153Y0088*
X01528Y0088*
X01527Y00879*
X01526Y00878*
X01525Y00877*
X01524Y00876*
X01523Y00876*
X01522Y00875*
X01521Y00873*
X0152Y00872*
X0152Y00871*
X01519Y0087*
X01519Y00869*
X01518Y00867*
X01518Y00866*
X01518Y00865*
X01517Y00863*
X01517Y00862*
X01517Y0086*
X01518Y00859*
X01518Y00858*
X01518Y00856*
X01519Y00855*
X01519Y00854*
X0152Y00853*
X0152Y00851*
X01521Y0085*
X01522Y00849*
X01523Y00848*
X01524Y00847*
X01525Y00846*
X01526Y00846*
X01527Y00845*
X01528Y00844*
X0153Y00844*
X01531Y00843*
X01532Y00843*
X01534Y00842*
X01535Y00842*
X01536Y00842*
X01538*
X01539Y00842*
X01541Y00842*
X01542Y00843*
X01543Y00843*
X01545Y00844*
X01546Y00844*
X01547Y00845*
X01548Y00846*
X01549Y00846*
X0155Y00847*
X01551Y00848*
X01552Y00849*
X01553Y0085*
X01554Y00851*
X01555Y00853*
X01555Y00854*
X01556Y00855*
X01556Y00856*
X01556Y00858*
X01557Y00859*
X01557Y0086*
X01557Y00862*
X00312Y0114D02*
X00367D01*
X00312Y01259D02*
X00367D01*
Y0114D02*
Y01259D01*
X00312Y0114D02*
Y01259D01*
X01416Y0211D02*
Y02289D01*
X01583Y0211D02*
Y02289D01*
X01416D02*
X01583D01*
X01416Y0211D02*
X01583D01*
X00572Y0114D02*
X00627D01*
X00572Y01259D02*
X00627D01*
Y0114D02*
Y01259D01*
X00572Y0114D02*
Y01259D01*
X00801Y01701D02*
X00958D01*
X00801Y01898D02*
X00958D01*
Y01701D02*
Y01898D01*
X00801Y01701D02*
Y01898D01*
X00481Y01381D02*
X00638D01*
X00481Y01578D02*
X00638D01*
Y01381D02*
Y01578D01*
X00481Y01381D02*
Y01578D01*
X01332Y01278D02*
X01427D01*
X01332Y01361D02*
X01427D01*
Y01278D02*
Y01361D01*
X01332Y01278D02*
Y01361D01*
X01502Y00622D02*
Y00897D01*
X01777Y00622D02*
Y00897D01*
X01502D02*
X01777D01*
X01502Y00622D02*
X01777D01*
G54D73*
X005Y0214D02*
D01*
X00499Y02141*
X00499Y02142*
X00499Y02144*
X00499Y02145*
X00498Y02146*
X00498Y02148*
X00497Y02149*
X00496Y0215*
X00496Y02151*
X00495Y02152*
X00494Y02153*
X00493Y02154*
X00492Y02155*
X00491Y02156*
X0049Y02157*
X00488Y02157*
X00487Y02158*
X00486Y02159*
X00484Y02159*
X00483Y02159*
X00482Y02159*
X0048Y02159*
X00479*
X00477Y02159*
X00476Y02159*
X00475Y02159*
X00473Y02159*
X00472Y02158*
X00471Y02157*
X0047Y02157*
X00468Y02156*
X00467Y02155*
X00466Y02154*
X00465Y02153*
X00464Y02152*
X00463Y02151*
X00463Y0215*
X00462Y02149*
X00461Y02148*
X00461Y02146*
X0046Y02145*
X0046Y02144*
X0046Y02142*
X0046Y02141*
X0046Y0214*
X0046Y02138*
X0046Y02137*
X0046Y02135*
X0046Y02134*
X00461Y02133*
X00461Y02131*
X00462Y0213*
X00463Y02129*
X00463Y02128*
X00464Y02127*
X00465Y02126*
X00466Y02125*
X00467Y02124*
X00468Y02123*
X0047Y02122*
X00471Y02122*
X00472Y02121*
X00473Y0212*
X00475Y0212*
X00476Y0212*
X00477Y0212*
X00479Y0212*
X0048*
X00482Y0212*
X00483Y0212*
X00484Y0212*
X00486Y0212*
X00487Y02121*
X00488Y02122*
X0049Y02122*
X00491Y02123*
X00492Y02124*
X00493Y02125*
X00494Y02126*
X00495Y02127*
X00496Y02128*
X00496Y02129*
X00497Y0213*
X00498Y02131*
X00498Y02133*
X00499Y02134*
X00499Y02135*
X00499Y02137*
X00499Y02138*
X005Y0214*
Y0238D02*
D01*
X00499Y02381*
X00499Y02382*
X00499Y02384*
X00499Y02385*
X00498Y02386*
X00498Y02388*
X00497Y02389*
X00496Y0239*
X00496Y02391*
X00495Y02392*
X00494Y02393*
X00493Y02394*
X00492Y02395*
X00491Y02396*
X0049Y02397*
X00488Y02397*
X00487Y02398*
X00486Y02399*
X00484Y02399*
X00483Y02399*
X00482Y02399*
X0048Y02399*
X00479*
X00477Y02399*
X00476Y02399*
X00475Y02399*
X00473Y02399*
X00472Y02398*
X00471Y02397*
X0047Y02397*
X00468Y02396*
X00467Y02395*
X00466Y02394*
X00465Y02393*
X00464Y02392*
X00463Y02391*
X00463Y0239*
X00462Y02389*
X00461Y02388*
X00461Y02386*
X0046Y02385*
X0046Y02384*
X0046Y02382*
X0046Y02381*
X0046Y0238*
X0046Y02378*
X0046Y02377*
X0046Y02375*
X0046Y02374*
X00461Y02373*
X00461Y02371*
X00462Y0237*
X00463Y02369*
X00463Y02368*
X00464Y02367*
X00465Y02366*
X00466Y02365*
X00467Y02364*
X00468Y02363*
X0047Y02362*
X00471Y02362*
X00472Y02361*
X00473Y0236*
X00475Y0236*
X00476Y0236*
X00477Y0236*
X00479Y0236*
X0048*
X00482Y0236*
X00483Y0236*
X00484Y0236*
X00486Y0236*
X00487Y02361*
X00488Y02362*
X0049Y02362*
X00491Y02363*
X00492Y02364*
X00493Y02365*
X00494Y02366*
X00495Y02367*
X00496Y02368*
X00496Y02369*
X00497Y0237*
X00498Y02371*
X00498Y02373*
X00499Y02374*
X00499Y02375*
X00499Y02377*
X00499Y02378*
X005Y0238*
X0022Y0214D02*
D01*
X00219Y02141*
X00219Y02142*
X00219Y02144*
X00219Y02145*
X00218Y02146*
X00218Y02148*
X00217Y02149*
X00216Y0215*
X00216Y02151*
X00215Y02152*
X00214Y02153*
X00213Y02154*
X00212Y02155*
X00211Y02156*
X0021Y02157*
X00208Y02157*
X00207Y02158*
X00206Y02159*
X00204Y02159*
X00203Y02159*
X00202Y02159*
X002Y02159*
X00199*
X00197Y02159*
X00196Y02159*
X00195Y02159*
X00193Y02159*
X00192Y02158*
X00191Y02157*
X00189Y02157*
X00188Y02156*
X00187Y02155*
X00186Y02154*
X00185Y02153*
X00184Y02152*
X00183Y02151*
X00183Y0215*
X00182Y02149*
X00181Y02148*
X00181Y02146*
X0018Y02145*
X0018Y02144*
X0018Y02142*
X0018Y02141*
X0018Y0214*
X0018Y02138*
X0018Y02137*
X0018Y02135*
X0018Y02134*
X00181Y02133*
X00181Y02131*
X00182Y0213*
X00183Y02129*
X00183Y02128*
X00184Y02127*
X00185Y02126*
X00186Y02125*
X00187Y02124*
X00188Y02123*
X0019Y02122*
X00191Y02122*
X00192Y02121*
X00193Y0212*
X00195Y0212*
X00196Y0212*
X00197Y0212*
X00199Y0212*
X002*
X00202Y0212*
X00203Y0212*
X00204Y0212*
X00206Y0212*
X00207Y02121*
X00208Y02122*
X0021Y02122*
X00211Y02123*
X00212Y02124*
X00213Y02125*
X00214Y02126*
X00215Y02127*
X00216Y02128*
X00216Y02129*
X00217Y0213*
X00218Y02131*
X00218Y02133*
X00219Y02134*
X00219Y02135*
X00219Y02137*
X00219Y02138*
X0022Y0214*
Y0238D02*
D01*
X00219Y02381*
X00219Y02382*
X00219Y02384*
X00219Y02385*
X00218Y02386*
X00218Y02388*
X00217Y02389*
X00216Y0239*
X00216Y02391*
X00215Y02392*
X00214Y02393*
X00213Y02394*
X00212Y02395*
X00211Y02396*
X0021Y02397*
X00208Y02397*
X00207Y02398*
X00206Y02399*
X00204Y02399*
X00203Y02399*
X00202Y02399*
X002Y02399*
X00199*
X00197Y02399*
X00196Y02399*
X00195Y02399*
X00193Y02399*
X00192Y02398*
X00191Y02397*
X00189Y02397*
X00188Y02396*
X00187Y02395*
X00186Y02394*
X00185Y02393*
X00184Y02392*
X00183Y02391*
X00183Y0239*
X00182Y02389*
X00181Y02388*
X00181Y02386*
X0018Y02385*
X0018Y02384*
X0018Y02382*
X0018Y02381*
X0018Y0238*
X0018Y02378*
X0018Y02377*
X0018Y02375*
X0018Y02374*
X00181Y02373*
X00181Y02371*
X00182Y0237*
X00183Y02369*
X00183Y02368*
X00184Y02367*
X00185Y02366*
X00186Y02365*
X00187Y02364*
X00188Y02363*
X0019Y02362*
X00191Y02362*
X00192Y02361*
X00193Y0236*
X00195Y0236*
X00196Y0236*
X00197Y0236*
X00199Y0236*
X002*
X00202Y0236*
X00203Y0236*
X00204Y0236*
X00206Y0236*
X00207Y02361*
X00208Y02362*
X0021Y02362*
X00211Y02363*
X00212Y02364*
X00213Y02365*
X00214Y02366*
X00215Y02367*
X00216Y02368*
X00216Y02369*
X00217Y0237*
X00218Y02371*
X00218Y02373*
X00219Y02374*
X00219Y02375*
X00219Y02377*
X00219Y02378*
X0022Y0238*
M02*