%FSLAX42Y42*%
%MOMM*%
G71*
G01*
G75*
G04 Layer_Physical_Order=2*
G04 Layer_Color=16711680*
%ADD10R,1.00X1.10*%
%ADD11R,1.65X0.30*%
%ADD12R,1.10X1.00*%
%ADD13O,1.25X0.30*%
%ADD14O,0.55X1.65*%
%ADD15O,1.65X0.55*%
%ADD16R,2.15X0.40*%
%ADD17R,2.15X0.40*%
%ADD18R,4.00X10.00*%
%ADD19R,1.50X1.30*%
%ADD20O,1.80X0.60*%
%ADD21R,4.20X4.20*%
%ADD22C,0.20*%
%ADD23C,0.50*%
%ADD24C,0.40*%
%ADD25C,2.00*%
%ADD26C,0.48*%
%ADD27C,0.16*%
%ADD28C,1.00*%
%ADD29C,0.32*%
%ADD30C,0.80*%
%ADD31C,0.25*%
%ADD32C,0.15*%
%ADD33C,1.50*%
%ADD34C,1.50*%
%ADD35R,1.50X1.50*%
%ADD36C,3.81*%
%ADD37R,1.50X1.50*%
%ADD38R,1.35X1.35*%
%ADD39C,1.35*%
%ADD40R,1.35X1.35*%
%ADD41C,1.00*%
G36*
X7152Y12246D02*
X7164Y12231D01*
X7170Y12226D01*
X7162Y12202D01*
X6881D01*
X6863Y12199D01*
X6848Y12189D01*
X6800Y12140D01*
X6794Y12141D01*
X6776Y12138D01*
X6765Y12134D01*
X6750Y12143D01*
X6744Y12151D01*
Y12202D01*
X6792Y12250D01*
X7151D01*
X7152Y12246D01*
D02*
G37*
G36*
X9914Y9036D02*
X9914D01*
X9899D01*
X9897Y9036D01*
X9897Y9036D01*
Y9036D01*
X9709D01*
Y8846D01*
X9897D01*
X9914Y8828D01*
Y8477D01*
X9760D01*
Y8287D01*
X9914D01*
Y8229D01*
X9894Y8215D01*
X9880Y8221D01*
X9855Y8224D01*
X9830Y8221D01*
X9807Y8211D01*
X9787Y8196D01*
X9772Y8176D01*
X9763Y8153D01*
X9759Y8128D01*
X9763Y8103D01*
X9772Y8080D01*
X9787Y8060D01*
X9807Y8045D01*
X9830Y8035D01*
X9855Y8032D01*
X9880Y8035D01*
X9894Y8041D01*
X9914Y8027D01*
Y7975D01*
X9894Y7961D01*
X9880Y7967D01*
X9868Y7968D01*
Y7874D01*
X9855D01*
Y7861D01*
X9761D01*
X9763Y7849D01*
X9772Y7826D01*
X9786Y7808D01*
X9781Y7798D01*
X9772Y7786D01*
X9431D01*
X9422Y7798D01*
X9416Y7808D01*
X9430Y7826D01*
X9440Y7849D01*
X9441Y7861D01*
X9253D01*
X9255Y7849D01*
X9264Y7826D01*
X9278Y7808D01*
X9273Y7798D01*
X9264Y7786D01*
X8923D01*
X8914Y7798D01*
X8908Y7808D01*
X8922Y7826D01*
X8932Y7849D01*
X8933Y7861D01*
X8745D01*
X8747Y7849D01*
X8756Y7826D01*
X8770Y7808D01*
X8765Y7798D01*
X8756Y7786D01*
X8466D01*
X8456Y7798D01*
X8451Y7808D01*
X8465Y7826D01*
X8475Y7849D01*
X8476Y7861D01*
X8288D01*
X8289Y7849D01*
X8299Y7826D01*
X8313Y7808D01*
X8308Y7798D01*
X8298Y7786D01*
X5246D01*
Y10107D01*
X5269Y10115D01*
X5290Y10090D01*
X5321Y10065D01*
X5357Y10045D01*
X5395Y10034D01*
X5436Y10030D01*
X5476Y10034D01*
X5515Y10045D01*
X5550Y10065D01*
X5582Y10090D01*
X5607Y10121D01*
X5626Y10157D01*
X5638Y10196D01*
X5642Y10236D01*
X5638Y10276D01*
X5626Y10315D01*
X5607Y10351D01*
X5582Y10382D01*
X5550Y10408D01*
X5515Y10427D01*
X5476Y10439D01*
X5436Y10443D01*
X5395Y10439D01*
X5357Y10427D01*
X5321Y10408D01*
X5290Y10382D01*
X5269Y10357D01*
X5246Y10366D01*
Y10615D01*
X5269Y10623D01*
X5290Y10598D01*
X5321Y10573D01*
X5357Y10553D01*
X5395Y10542D01*
X5436Y10538D01*
X5476Y10542D01*
X5515Y10553D01*
X5550Y10573D01*
X5582Y10598D01*
X5607Y10629D01*
X5626Y10665D01*
X5638Y10704D01*
X5642Y10744D01*
X5638Y10784D01*
X5626Y10823D01*
X5607Y10859D01*
X5582Y10890D01*
X5550Y10916D01*
X5515Y10935D01*
X5476Y10947D01*
X5436Y10951D01*
X5395Y10947D01*
X5357Y10935D01*
X5321Y10916D01*
X5290Y10890D01*
X5269Y10865D01*
X5246Y10874D01*
Y11605D01*
X5269Y11614D01*
X5290Y11589D01*
X5321Y11563D01*
X5357Y11544D01*
X5395Y11532D01*
X5436Y11528D01*
X5476Y11532D01*
X5515Y11544D01*
X5550Y11563D01*
X5582Y11589D01*
X5607Y11620D01*
X5626Y11656D01*
X5638Y11695D01*
X5642Y11735D01*
X5638Y11775D01*
X5626Y11814D01*
X5607Y11850D01*
X5582Y11881D01*
X5550Y11906D01*
X5515Y11926D01*
X5476Y11937D01*
X5436Y11941D01*
X5395Y11937D01*
X5357Y11926D01*
X5321Y11906D01*
X5290Y11881D01*
X5269Y11856D01*
X5246Y11864D01*
Y12113D01*
X5269Y12122D01*
X5290Y12097D01*
X5321Y12071D01*
X5357Y12052D01*
X5395Y12040D01*
X5436Y12036D01*
X5476Y12040D01*
X5515Y12052D01*
X5550Y12071D01*
X5582Y12097D01*
X5607Y12128D01*
X5626Y12164D01*
X5638Y12203D01*
X5642Y12243D01*
X5638Y12283D01*
X5626Y12322D01*
X5607Y12358D01*
X5582Y12389D01*
X5550Y12414D01*
X5515Y12434D01*
X5476Y12445D01*
X5436Y12449D01*
X5441Y12454D01*
X8175D01*
X8180Y12430D01*
X8177Y12428D01*
X8162Y12417D01*
X8151Y12403D01*
X8149Y12398D01*
X6622D01*
X6622Y12398D01*
X6610Y12396D01*
X6600Y12389D01*
X6442Y12230D01*
X6437Y12232D01*
X6419Y12235D01*
X6400Y12232D01*
X6383Y12225D01*
X6369Y12214D01*
X6357Y12199D01*
X6350Y12182D01*
X6348Y12164D01*
X6350Y12146D01*
X6357Y12129D01*
X6369Y12114D01*
X6383Y12103D01*
X6400Y12096D01*
X6419Y12093D01*
X6437Y12096D01*
X6454Y12103D01*
X6469Y12114D01*
X6480Y12129D01*
X6487Y12146D01*
X6489Y12164D01*
X6487Y12182D01*
X6485Y12187D01*
X6634Y12337D01*
X7126D01*
X7128Y12335D01*
X7120Y12311D01*
X6780D01*
X6780Y12311D01*
X6768Y12309D01*
X6758Y12303D01*
X6758Y12303D01*
X6692Y12236D01*
X6685Y12226D01*
X6683Y12215D01*
X6683Y12215D01*
Y12017D01*
X6683Y12017D01*
X6685Y12005D01*
X6692Y11995D01*
X7183Y11504D01*
X7181Y11499D01*
X7179Y11481D01*
X7181Y11463D01*
X7188Y11445D01*
X7199Y11431D01*
X7202Y11428D01*
X7194Y11405D01*
X6944D01*
X6398Y11951D01*
X6400Y11955D01*
X6403Y11974D01*
X6400Y11992D01*
X6393Y12009D01*
X6382Y12023D01*
X6368Y12035D01*
X6350Y12042D01*
X6332Y12044D01*
X6314Y12042D01*
X6297Y12035D01*
X6282Y12023D01*
X6271Y12009D01*
X6264Y11992D01*
X6262Y11974D01*
X6264Y11955D01*
X6271Y11938D01*
X6282Y11924D01*
X6297Y11912D01*
X6314Y11905D01*
X6332Y11903D01*
X6350Y11905D01*
X6355Y11907D01*
X6910Y11352D01*
X6920Y11346D01*
X6932Y11344D01*
X6932Y11344D01*
X7717D01*
X7719Y11339D01*
X7730Y11324D01*
X7745Y11313D01*
X7762Y11306D01*
X7780Y11304D01*
X7798Y11306D01*
X7815Y11313D01*
X7830Y11324D01*
X7841Y11339D01*
X7848Y11356D01*
X7851Y11374D01*
X7848Y11392D01*
X7841Y11409D01*
X7830Y11424D01*
X7815Y11435D01*
X7798Y11442D01*
X7780Y11445D01*
X7762Y11442D01*
X7745Y11435D01*
X7730Y11424D01*
X7719Y11409D01*
X7717Y11405D01*
X7304D01*
X7296Y11428D01*
X7299Y11431D01*
X7310Y11445D01*
X7317Y11463D01*
X7320Y11481D01*
X7317Y11499D01*
X7310Y11516D01*
X7299Y11531D01*
X7284Y11542D01*
X7267Y11549D01*
X7249Y11551D01*
X7231Y11549D01*
X7226Y11547D01*
X7159Y11614D01*
X7163Y11641D01*
X7181Y11644D01*
X7198Y11651D01*
X7213Y11662D01*
X7224Y11677D01*
X7231Y11694D01*
X7233Y11712D01*
X7231Y11730D01*
X7224Y11747D01*
X7213Y11762D01*
X7198Y11773D01*
X7181Y11780D01*
X7163Y11783D01*
X7145Y11780D01*
X7140Y11778D01*
X6962Y11956D01*
Y11997D01*
X6967Y11999D01*
X6982Y12010D01*
X6993Y12025D01*
X7000Y12042D01*
X7002Y12060D01*
X7000Y12078D01*
X6993Y12095D01*
X6982Y12110D01*
X6982Y12111D01*
X8194D01*
X8197Y12107D01*
X8212Y12095D01*
X8229Y12088D01*
X8247Y12086D01*
X8266Y12088D01*
X8283Y12095D01*
X8297Y12107D01*
X8309Y12121D01*
X8316Y12138D01*
X8318Y12156D01*
X8316Y12175D01*
X8309Y12192D01*
X8297Y12206D01*
X8283Y12218D01*
X8266Y12225D01*
X8247Y12227D01*
X8229Y12225D01*
X8212Y12218D01*
X8197Y12206D01*
X8194Y12202D01*
X7265D01*
X7257Y12226D01*
X7264Y12231D01*
X7275Y12246D01*
X7282Y12263D01*
X7284Y12281D01*
X7282Y12299D01*
X7275Y12316D01*
X7264Y12331D01*
X7266Y12337D01*
X8149D01*
X8151Y12332D01*
X8162Y12317D01*
X8177Y12306D01*
X8194Y12299D01*
X8212Y12297D01*
X8230Y12299D01*
X8247Y12306D01*
X8262Y12317D01*
X8273Y12332D01*
X8280Y12349D01*
X8282Y12367D01*
X8280Y12386D01*
X8273Y12403D01*
X8262Y12417D01*
X8247Y12428D01*
X8244Y12430D01*
X8249Y12454D01*
X9387D01*
X9405Y12437D01*
Y12249D01*
X9595D01*
Y12437D01*
X9595Y12437D01*
D01*
X9595Y12439D01*
D01*
X9610Y12454D01*
X9707D01*
X9712Y12430D01*
X9706Y12427D01*
X9686Y12412D01*
X9671Y12392D01*
X9661Y12369D01*
X9658Y12344D01*
X9661Y12320D01*
X9671Y12296D01*
X9686Y12277D01*
X9706Y12261D01*
X9729Y12252D01*
X9754Y12249D01*
X9778Y12252D01*
X9802Y12261D01*
X9821Y12277D01*
X9837Y12296D01*
X9846Y12320D01*
X9849Y12344D01*
X9846Y12369D01*
X9837Y12392D01*
X9821Y12412D01*
X9802Y12427D01*
X9796Y12430D01*
X9801Y12454D01*
X9914D01*
Y9036D01*
D02*
G37*
%LPC*%
G36*
X9594Y9284D02*
X9512D01*
Y9202D01*
X9524Y9204D01*
X9548Y9213D01*
X9567Y9229D01*
X9583Y9248D01*
X9592Y9272D01*
X9594Y9284D01*
D02*
G37*
G36*
X9487D02*
X9405D01*
X9407Y9272D01*
X9417Y9248D01*
X9432Y9229D01*
X9452Y9213D01*
X9475Y9204D01*
X9487Y9202D01*
Y9284D01*
D02*
G37*
G36*
X9144Y9688D02*
X9132Y9685D01*
X9122Y9679D01*
X9116Y9669D01*
X9113Y9657D01*
X9116Y9645D01*
X9122Y9635D01*
X9399Y9359D01*
X9399Y9359D01*
X9409Y9352D01*
D01*
X9409Y9352D01*
X9409Y9326D01*
X9407Y9321D01*
X9405Y9309D01*
X9594D01*
X9592Y9321D01*
X9583Y9344D01*
X9567Y9364D01*
X9548Y9379D01*
X9529Y9387D01*
X9528Y9392D01*
X9521Y9402D01*
X9511Y9408D01*
X9500Y9411D01*
X9434D01*
X9166Y9679D01*
X9156Y9685D01*
X9144Y9688D01*
D02*
G37*
G36*
X5671Y9383D02*
X5506D01*
Y9218D01*
X5671D01*
Y9383D01*
D02*
G37*
G36*
X9754Y9392D02*
X9729Y9389D01*
X9706Y9379D01*
X9686Y9364D01*
X9671Y9344D01*
X9661Y9321D01*
X9658Y9296D01*
X9661Y9272D01*
X9671Y9248D01*
X9686Y9229D01*
X9706Y9213D01*
X9729Y9204D01*
X9754Y9201D01*
X9778Y9204D01*
X9802Y9213D01*
X9821Y9229D01*
X9837Y9248D01*
X9846Y9272D01*
X9849Y9296D01*
X9846Y9321D01*
X9837Y9344D01*
X9821Y9364D01*
X9802Y9379D01*
X9778Y9389D01*
X9754Y9392D01*
D02*
G37*
G36*
X6144Y9215D02*
X6133Y9213D01*
X6123Y9206D01*
X6123Y9206D01*
X6062Y9145D01*
X6055Y9135D01*
X6053Y9124D01*
X6053Y9124D01*
Y8379D01*
X6055Y8368D01*
X6062Y8358D01*
X6072Y8351D01*
X6083Y8349D01*
X6095Y8351D01*
X6105Y8358D01*
X6112Y8368D01*
X6114Y8379D01*
Y8394D01*
X6132Y8421D01*
X6133Y8422D01*
X6144Y8420D01*
X6156Y8422D01*
X6166Y8429D01*
X6173Y8439D01*
X6175Y8451D01*
Y9185D01*
X6173Y9196D01*
X6166Y9206D01*
X6156Y9213D01*
X6144Y9215D01*
D02*
G37*
G36*
X9442Y8477D02*
X9252D01*
Y8287D01*
X9442D01*
Y8477D01*
D02*
G37*
G36*
X8522Y9035D02*
X8510Y9033D01*
X8486Y9024D01*
X8467Y9009D01*
X8451Y8989D01*
X8442Y8966D01*
X8440Y8954D01*
X8522D01*
Y9035D01*
D02*
G37*
G36*
Y8928D02*
X8440D01*
X8442Y8916D01*
X8451Y8893D01*
X8467Y8873D01*
X8486Y8858D01*
X8510Y8848D01*
X8522Y8847D01*
Y8928D01*
D02*
G37*
G36*
X9500Y9646D02*
X9475Y9643D01*
X9452Y9633D01*
X9432Y9618D01*
X9417Y9598D01*
X9407Y9575D01*
X9404Y9550D01*
X9407Y9526D01*
X9417Y9502D01*
X9432Y9483D01*
X9452Y9467D01*
X9475Y9458D01*
X9500Y9455D01*
X9524Y9458D01*
X9548Y9467D01*
X9567Y9483D01*
X9583Y9502D01*
X9592Y9526D01*
X9595Y9550D01*
X9592Y9575D01*
X9583Y9598D01*
X9567Y9618D01*
X9548Y9633D01*
X9524Y9643D01*
X9500Y9646D01*
D02*
G37*
G36*
X7150Y9788D02*
X7076D01*
X7078Y9778D01*
X7086Y9756D01*
X7100Y9738D01*
X7119Y9724D01*
X7140Y9715D01*
X7150Y9714D01*
Y9788D01*
D02*
G37*
G36*
X5675D02*
X5601D01*
Y9714D01*
X5611Y9715D01*
X5632Y9724D01*
X5650Y9738D01*
X5664Y9756D01*
X5673Y9778D01*
X5675Y9788D01*
D02*
G37*
G36*
X9500Y10154D02*
X9475Y10151D01*
X9452Y10141D01*
X9432Y10126D01*
X9417Y10106D01*
X9407Y10083D01*
X9404Y10058D01*
X9407Y10034D01*
X9417Y10010D01*
X9432Y9991D01*
X9452Y9975D01*
X9475Y9966D01*
X9500Y9963D01*
X9524Y9966D01*
X9548Y9975D01*
X9567Y9991D01*
X9583Y10010D01*
X9592Y10034D01*
X9595Y10058D01*
X9592Y10083D01*
X9583Y10106D01*
X9567Y10126D01*
X9548Y10141D01*
X9524Y10151D01*
X9500Y10154D01*
D02*
G37*
G36*
X7249Y9788D02*
X7175D01*
Y9714D01*
X7186Y9715D01*
X7207Y9724D01*
X7225Y9738D01*
X7239Y9756D01*
X7248Y9778D01*
X7249Y9788D01*
D02*
G37*
G36*
X5575D02*
X5501D01*
X5503Y9778D01*
X5512Y9756D01*
X5526Y9738D01*
X5544Y9724D01*
X5565Y9715D01*
X5575Y9714D01*
Y9788D01*
D02*
G37*
G36*
X5948Y9686D02*
X5929Y9684D01*
X5912Y9677D01*
X5898Y9665D01*
X5886Y9651D01*
X5879Y9634D01*
X5877Y9615D01*
X5879Y9597D01*
X5881Y9592D01*
X5824Y9535D01*
X5820Y9537D01*
X5801Y9540D01*
X5783Y9537D01*
X5766Y9530D01*
X5751Y9519D01*
X5740Y9504D01*
X5733Y9487D01*
X5731Y9469D01*
X5733Y9451D01*
X5740Y9434D01*
X5751Y9419D01*
X5766Y9408D01*
X5783Y9401D01*
X5801Y9399D01*
X5820Y9401D01*
X5837Y9408D01*
X5851Y9419D01*
X5863Y9434D01*
X5870Y9451D01*
X5872Y9469D01*
X5870Y9487D01*
X5868Y9492D01*
X5925Y9549D01*
X5929Y9547D01*
X5948Y9545D01*
X5966Y9547D01*
X5983Y9554D01*
X5998Y9565D01*
X6009Y9580D01*
X6016Y9597D01*
X6018Y9615D01*
X6016Y9634D01*
X6009Y9651D01*
X5998Y9665D01*
X5983Y9677D01*
X5966Y9684D01*
X5948Y9686D01*
D02*
G37*
G36*
X9754Y9646D02*
X9729Y9643D01*
X9706Y9633D01*
X9686Y9618D01*
X9671Y9598D01*
X9661Y9575D01*
X9658Y9550D01*
X9661Y9526D01*
X9671Y9502D01*
X9686Y9483D01*
X9706Y9467D01*
X9729Y9458D01*
X9754Y9455D01*
X9778Y9458D01*
X9802Y9467D01*
X9821Y9483D01*
X9837Y9502D01*
X9846Y9526D01*
X9849Y9550D01*
X9846Y9575D01*
X9837Y9598D01*
X9821Y9618D01*
X9802Y9633D01*
X9778Y9643D01*
X9754Y9646D01*
D02*
G37*
G36*
Y9900D02*
X9729Y9897D01*
X9706Y9887D01*
X9686Y9872D01*
X9671Y9852D01*
X9661Y9829D01*
X9658Y9804D01*
X9661Y9780D01*
X9671Y9756D01*
X9686Y9737D01*
X9706Y9721D01*
X9729Y9712D01*
X9754Y9709D01*
X9778Y9712D01*
X9802Y9721D01*
X9821Y9737D01*
X9837Y9756D01*
X9846Y9780D01*
X9849Y9804D01*
X9846Y9829D01*
X9837Y9852D01*
X9821Y9872D01*
X9802Y9887D01*
X9778Y9897D01*
X9754Y9900D01*
D02*
G37*
G36*
X9500D02*
X9475Y9897D01*
X9452Y9887D01*
X9432Y9872D01*
X9417Y9852D01*
X9407Y9829D01*
X9404Y9804D01*
X9407Y9780D01*
X9417Y9756D01*
X9432Y9737D01*
X9452Y9721D01*
X9475Y9712D01*
X9500Y9709D01*
X9524Y9712D01*
X9548Y9721D01*
X9567Y9737D01*
X9583Y9756D01*
X9592Y9780D01*
X9595Y9804D01*
X9592Y9829D01*
X9583Y9852D01*
X9567Y9872D01*
X9548Y9887D01*
X9524Y9897D01*
X9500Y9900D01*
D02*
G37*
G36*
X8934Y8477D02*
X8744D01*
Y8287D01*
X8934D01*
Y8477D01*
D02*
G37*
G36*
X9843Y7968D02*
X9830Y7967D01*
X9807Y7957D01*
X9787Y7942D01*
X9772Y7922D01*
X9763Y7899D01*
X9761Y7887D01*
X9843D01*
Y7968D01*
D02*
G37*
G36*
X9360D02*
Y7887D01*
X9441D01*
X9440Y7899D01*
X9430Y7922D01*
X9415Y7942D01*
X9395Y7957D01*
X9372Y7967D01*
X9360Y7968D01*
D02*
G37*
G36*
X6350Y8224D02*
X6325Y8221D01*
X6302Y8211D01*
X6282Y8196D01*
X6267Y8176D01*
X6257Y8153D01*
X6254Y8128D01*
X6257Y8103D01*
X6267Y8080D01*
X6282Y8060D01*
X6302Y8045D01*
X6325Y8035D01*
X6350Y8032D01*
X6375Y8035D01*
X6398Y8045D01*
X6418Y8060D01*
X6433Y8080D01*
X6443Y8103D01*
X6446Y8128D01*
X6443Y8153D01*
X6433Y8176D01*
X6418Y8196D01*
X6398Y8211D01*
X6375Y8221D01*
X6350Y8224D01*
D02*
G37*
G36*
X5639D02*
X5614Y8221D01*
X5591Y8211D01*
X5571Y8196D01*
X5556Y8176D01*
X5546Y8153D01*
X5543Y8128D01*
X5546Y8103D01*
X5556Y8080D01*
X5571Y8060D01*
X5591Y8045D01*
X5614Y8035D01*
X5639Y8032D01*
X5664Y8035D01*
X5687Y8045D01*
X5707Y8060D01*
X5722Y8080D01*
X5731Y8103D01*
X5735Y8128D01*
X5731Y8153D01*
X5722Y8176D01*
X5707Y8196D01*
X5687Y8211D01*
X5664Y8221D01*
X5639Y8224D01*
D02*
G37*
G36*
X9335Y7968D02*
X9322Y7967D01*
X9299Y7957D01*
X9279Y7942D01*
X9264Y7922D01*
X9255Y7899D01*
X9253Y7887D01*
X9335D01*
Y7968D01*
D02*
G37*
G36*
X8395D02*
Y7887D01*
X8476D01*
X8475Y7899D01*
X8465Y7922D01*
X8450Y7942D01*
X8430Y7957D01*
X8407Y7967D01*
X8395Y7968D01*
D02*
G37*
G36*
X8369D02*
X8357Y7967D01*
X8334Y7957D01*
X8314Y7942D01*
X8299Y7922D01*
X8289Y7899D01*
X8288Y7887D01*
X8369D01*
Y7968D01*
D02*
G37*
G36*
X8852D02*
Y7887D01*
X8933D01*
X8932Y7899D01*
X8922Y7922D01*
X8907Y7942D01*
X8887Y7957D01*
X8864Y7967D01*
X8852Y7968D01*
D02*
G37*
G36*
X8826D02*
X8814Y7967D01*
X8791Y7957D01*
X8771Y7942D01*
X8756Y7922D01*
X8747Y7899D01*
X8745Y7887D01*
X8826D01*
Y7968D01*
D02*
G37*
G36*
X7112Y8224D02*
X7087Y8221D01*
X7064Y8211D01*
X7044Y8196D01*
X7029Y8176D01*
X7019Y8153D01*
X7016Y8128D01*
X7019Y8103D01*
X7029Y8080D01*
X7044Y8060D01*
X7064Y8045D01*
X7087Y8035D01*
X7112Y8032D01*
X7137Y8035D01*
X7160Y8045D01*
X7180Y8060D01*
X7195Y8080D01*
X7205Y8103D01*
X7208Y8128D01*
X7205Y8153D01*
X7195Y8176D01*
X7180Y8196D01*
X7160Y8211D01*
X7137Y8221D01*
X7112Y8224D01*
D02*
G37*
G36*
X6953Y8223D02*
X6763D01*
Y8033D01*
X6953D01*
Y8223D01*
D02*
G37*
G36*
X6191D02*
X6001D01*
Y8033D01*
X6191D01*
Y8223D01*
D02*
G37*
G36*
X8534Y8814D02*
X8523Y8812D01*
X8513Y8805D01*
X8066Y8358D01*
X8059Y8348D01*
X8057Y8336D01*
X8059Y8325D01*
X8066Y8315D01*
X8076Y8308D01*
X8087Y8306D01*
X8099Y8308D01*
X8109Y8315D01*
X8264Y8470D01*
X8286Y8460D01*
X8286Y8460D01*
X8287Y8460D01*
Y8287D01*
X8477D01*
Y8477D01*
X8304D01*
X8304Y8478D01*
X8304Y8478D01*
X8294Y8500D01*
X8556Y8762D01*
X8563Y8772D01*
X8565Y8783D01*
X8563Y8795D01*
X8556Y8805D01*
X8546Y8812D01*
X8534Y8814D01*
D02*
G37*
G36*
X7715Y8223D02*
X7525D01*
Y8033D01*
X7715D01*
Y8223D01*
D02*
G37*
G36*
X5480D02*
X5290D01*
Y8033D01*
X5480D01*
Y8223D01*
D02*
G37*
G36*
X8382Y8224D02*
X8357Y8221D01*
X8334Y8211D01*
X8314Y8196D01*
X8299Y8176D01*
X8289Y8153D01*
X8286Y8128D01*
X8289Y8103D01*
X8299Y8080D01*
X8314Y8060D01*
X8334Y8045D01*
X8357Y8035D01*
X8382Y8032D01*
X8407Y8035D01*
X8430Y8045D01*
X8450Y8060D01*
X8465Y8080D01*
X8475Y8103D01*
X8478Y8128D01*
X8475Y8153D01*
X8465Y8176D01*
X8450Y8196D01*
X8430Y8211D01*
X8407Y8221D01*
X8382Y8224D01*
D02*
G37*
G36*
X7874D02*
X7849Y8221D01*
X7826Y8211D01*
X7806Y8196D01*
X7791Y8176D01*
X7781Y8153D01*
X7778Y8128D01*
X7781Y8103D01*
X7791Y8080D01*
X7806Y8060D01*
X7826Y8045D01*
X7849Y8035D01*
X7874Y8032D01*
X7899Y8035D01*
X7922Y8045D01*
X7942Y8060D01*
X7957Y8080D01*
X7967Y8103D01*
X7970Y8128D01*
X7967Y8153D01*
X7957Y8176D01*
X7942Y8196D01*
X7922Y8211D01*
X7899Y8221D01*
X7874Y8224D01*
D02*
G37*
G36*
X9347D02*
X9322Y8221D01*
X9299Y8211D01*
X9279Y8196D01*
X9264Y8176D01*
X9255Y8153D01*
X9251Y8128D01*
X9255Y8103D01*
X9264Y8080D01*
X9279Y8060D01*
X9299Y8045D01*
X9322Y8035D01*
X9347Y8032D01*
X9372Y8035D01*
X9395Y8045D01*
X9415Y8060D01*
X9430Y8080D01*
X9440Y8103D01*
X9443Y8128D01*
X9440Y8153D01*
X9430Y8176D01*
X9415Y8196D01*
X9395Y8211D01*
X9372Y8221D01*
X9347Y8224D01*
D02*
G37*
G36*
X8839D02*
X8814Y8221D01*
X8791Y8211D01*
X8771Y8196D01*
X8756Y8176D01*
X8747Y8153D01*
X8743Y8128D01*
X8747Y8103D01*
X8756Y8080D01*
X8771Y8060D01*
X8791Y8045D01*
X8814Y8035D01*
X8839Y8032D01*
X8864Y8035D01*
X8887Y8045D01*
X8907Y8060D01*
X8922Y8080D01*
X8932Y8103D01*
X8935Y8128D01*
X8932Y8153D01*
X8922Y8176D01*
X8907Y8196D01*
X8887Y8211D01*
X8864Y8221D01*
X8839Y8224D01*
D02*
G37*
G36*
X6109Y11793D02*
Y11595D01*
X6306D01*
X6303Y11624D01*
X6291Y11663D01*
X6272Y11700D01*
X6246Y11732D01*
X6214Y11758D01*
X6177Y11778D01*
X6137Y11790D01*
X6109Y11793D01*
D02*
G37*
G36*
X9500Y11932D02*
X9475Y11929D01*
X9452Y11919D01*
X9432Y11904D01*
X9417Y11884D01*
X9407Y11861D01*
X9404Y11836D01*
X9407Y11812D01*
X9417Y11788D01*
X9432Y11769D01*
X9452Y11753D01*
X9475Y11744D01*
X9500Y11741D01*
X9524Y11744D01*
X9548Y11753D01*
X9567Y11769D01*
X9583Y11788D01*
X9592Y11812D01*
X9595Y11836D01*
X9592Y11861D01*
X9583Y11884D01*
X9567Y11904D01*
X9548Y11919D01*
X9524Y11929D01*
X9500Y11932D01*
D02*
G37*
G36*
X9754Y11170D02*
X9729Y11167D01*
X9706Y11157D01*
X9686Y11142D01*
X9671Y11122D01*
X9661Y11099D01*
X9658Y11074D01*
X9661Y11050D01*
X9671Y11026D01*
X9686Y11007D01*
X9706Y10991D01*
X9729Y10982D01*
X9754Y10979D01*
X9778Y10982D01*
X9802Y10991D01*
X9821Y11007D01*
X9837Y11026D01*
X9846Y11050D01*
X9849Y11074D01*
X9846Y11099D01*
X9837Y11122D01*
X9821Y11142D01*
X9802Y11157D01*
X9778Y11167D01*
X9754Y11170D01*
D02*
G37*
G36*
X9500D02*
X9475Y11167D01*
X9452Y11157D01*
X9432Y11142D01*
X9417Y11122D01*
X9407Y11099D01*
X9404Y11074D01*
X9407Y11050D01*
X9417Y11026D01*
X9432Y11007D01*
X9452Y10991D01*
X9475Y10982D01*
X9500Y10979D01*
X9524Y10982D01*
X9548Y10991D01*
X9567Y11007D01*
X9583Y11026D01*
X9592Y11050D01*
X9595Y11074D01*
X9592Y11099D01*
X9583Y11122D01*
X9567Y11142D01*
X9548Y11157D01*
X9524Y11167D01*
X9500Y11170D01*
D02*
G37*
G36*
X9741Y11824D02*
X9659D01*
X9661Y11812D01*
X9671Y11788D01*
X9686Y11769D01*
X9706Y11753D01*
X9729Y11744D01*
X9741Y11742D01*
Y11824D01*
D02*
G37*
G36*
X9766Y10915D02*
Y10833D01*
X9848D01*
X9846Y10845D01*
X9837Y10868D01*
X9821Y10888D01*
X9802Y10903D01*
X9778Y10913D01*
X9766Y10915D01*
D02*
G37*
G36*
X9741Y11931D02*
X9729Y11929D01*
X9706Y11919D01*
X9686Y11904D01*
X9671Y11884D01*
X9661Y11861D01*
X9659Y11849D01*
X9741D01*
Y11931D01*
D02*
G37*
G36*
X7865Y10909D02*
X7791D01*
X7793Y10899D01*
X7802Y10878D01*
X7816Y10860D01*
X7834Y10846D01*
X7855Y10837D01*
X7865Y10835D01*
Y10909D01*
D02*
G37*
G36*
X9848Y11824D02*
X9766D01*
Y11742D01*
X9778Y11744D01*
X9802Y11753D01*
X9821Y11769D01*
X9837Y11788D01*
X9846Y11812D01*
X9848Y11824D01*
D02*
G37*
G36*
X9500Y11678D02*
X9475Y11675D01*
X9452Y11665D01*
X9432Y11650D01*
X9417Y11630D01*
X9407Y11607D01*
X9404Y11582D01*
X9407Y11558D01*
X9417Y11534D01*
X9432Y11515D01*
X9452Y11499D01*
X9475Y11490D01*
X9500Y11487D01*
X9524Y11490D01*
X9548Y11499D01*
X9567Y11515D01*
X9583Y11534D01*
X9592Y11558D01*
X9595Y11582D01*
X9592Y11607D01*
X9583Y11630D01*
X9567Y11650D01*
X9548Y11665D01*
X9524Y11675D01*
X9500Y11678D01*
D02*
G37*
G36*
X6083Y11570D02*
X5886D01*
X5889Y11541D01*
X5901Y11501D01*
X5920Y11465D01*
X5946Y11433D01*
X5978Y11407D01*
X6015Y11387D01*
X6055Y11375D01*
X6083Y11372D01*
Y11570D01*
D02*
G37*
G36*
Y11793D02*
X6055Y11790D01*
X6015Y11778D01*
X5978Y11758D01*
X5946Y11732D01*
X5920Y11700D01*
X5901Y11663D01*
X5889Y11624D01*
X5886Y11595D01*
X6083D01*
Y11793D01*
D02*
G37*
G36*
X9754Y11678D02*
X9729Y11675D01*
X9706Y11665D01*
X9686Y11650D01*
X9671Y11630D01*
X9661Y11607D01*
X9658Y11582D01*
X9661Y11558D01*
X9671Y11534D01*
X9686Y11515D01*
X9706Y11499D01*
X9729Y11490D01*
X9754Y11487D01*
X9778Y11490D01*
X9802Y11499D01*
X9821Y11515D01*
X9837Y11534D01*
X9846Y11558D01*
X9849Y11582D01*
X9846Y11607D01*
X9837Y11630D01*
X9821Y11650D01*
X9802Y11665D01*
X9778Y11675D01*
X9754Y11678D01*
D02*
G37*
G36*
X9512Y11423D02*
Y11341D01*
X9594D01*
X9592Y11353D01*
X9583Y11376D01*
X9567Y11396D01*
X9548Y11411D01*
X9524Y11421D01*
X9512Y11423D01*
D02*
G37*
G36*
X9487Y11316D02*
X9405D01*
X9407Y11304D01*
X9417Y11280D01*
X9432Y11261D01*
X9452Y11245D01*
X9475Y11236D01*
X9487Y11234D01*
Y11316D01*
D02*
G37*
G36*
X9754Y11424D02*
X9729Y11421D01*
X9706Y11411D01*
X9686Y11396D01*
X9671Y11376D01*
X9661Y11353D01*
X9658Y11328D01*
X9661Y11304D01*
X9671Y11280D01*
X9686Y11261D01*
X9706Y11245D01*
X9729Y11236D01*
X9754Y11233D01*
X9778Y11236D01*
X9802Y11245D01*
X9821Y11261D01*
X9837Y11280D01*
X9846Y11304D01*
X9849Y11328D01*
X9846Y11353D01*
X9837Y11376D01*
X9821Y11396D01*
X9802Y11411D01*
X9778Y11421D01*
X9754Y11424D01*
D02*
G37*
G36*
X9487Y11423D02*
X9475Y11421D01*
X9452Y11411D01*
X9432Y11396D01*
X9417Y11376D01*
X9407Y11353D01*
X9405Y11341D01*
X9487D01*
Y11423D01*
D02*
G37*
G36*
X9594Y11316D02*
X9512D01*
Y11234D01*
X9524Y11236D01*
X9548Y11245D01*
X9567Y11261D01*
X9583Y11280D01*
X9592Y11304D01*
X9594Y11316D01*
D02*
G37*
G36*
X9766Y11931D02*
Y11849D01*
X9848D01*
X9846Y11861D01*
X9837Y11884D01*
X9821Y11904D01*
X9802Y11919D01*
X9778Y11929D01*
X9766Y11931D01*
D02*
G37*
G36*
X9754Y10408D02*
X9729Y10405D01*
X9706Y10395D01*
X9686Y10380D01*
X9671Y10360D01*
X9661Y10337D01*
X9658Y10312D01*
X9661Y10288D01*
X9671Y10264D01*
X9686Y10245D01*
X9706Y10229D01*
X9729Y10220D01*
X9754Y10217D01*
X9778Y10220D01*
X9802Y10229D01*
X9821Y10245D01*
X9837Y10264D01*
X9846Y10288D01*
X9849Y10312D01*
X9846Y10337D01*
X9837Y10360D01*
X9821Y10380D01*
X9802Y10395D01*
X9778Y10405D01*
X9754Y10408D01*
D02*
G37*
G36*
X9500D02*
X9475Y10405D01*
X9452Y10395D01*
X9432Y10380D01*
X9417Y10360D01*
X9407Y10337D01*
X9404Y10312D01*
X9407Y10288D01*
X9417Y10264D01*
X9432Y10245D01*
X9452Y10229D01*
X9475Y10220D01*
X9500Y10217D01*
X9524Y10220D01*
X9548Y10229D01*
X9567Y10245D01*
X9583Y10264D01*
X9592Y10288D01*
X9595Y10312D01*
X9592Y10337D01*
X9583Y10360D01*
X9567Y10380D01*
X9548Y10395D01*
X9524Y10405D01*
X9500Y10408D01*
D02*
G37*
G36*
X9754Y12186D02*
X9729Y12183D01*
X9706Y12173D01*
X9686Y12158D01*
X9671Y12138D01*
X9661Y12115D01*
X9658Y12090D01*
X9661Y12066D01*
X9671Y12042D01*
X9686Y12023D01*
X9706Y12007D01*
X9729Y11998D01*
X9754Y11995D01*
X9778Y11998D01*
X9802Y12007D01*
X9821Y12023D01*
X9837Y12042D01*
X9846Y12066D01*
X9849Y12090D01*
X9846Y12115D01*
X9837Y12138D01*
X9821Y12158D01*
X9802Y12173D01*
X9778Y12183D01*
X9754Y12186D01*
D02*
G37*
G36*
X9500Y10662D02*
X9475Y10659D01*
X9452Y10649D01*
X9432Y10634D01*
X9417Y10614D01*
X9407Y10591D01*
X9404Y10566D01*
X9407Y10542D01*
X9417Y10518D01*
X9432Y10499D01*
X9452Y10483D01*
X9475Y10474D01*
X9500Y10471D01*
X9524Y10474D01*
X9548Y10483D01*
X9567Y10499D01*
X9583Y10518D01*
X9592Y10542D01*
X9595Y10566D01*
X9592Y10591D01*
X9583Y10614D01*
X9567Y10634D01*
X9548Y10649D01*
X9524Y10659D01*
X9500Y10662D01*
D02*
G37*
G36*
X9766Y10153D02*
Y10071D01*
X9848D01*
X9846Y10083D01*
X9837Y10106D01*
X9821Y10126D01*
X9802Y10141D01*
X9778Y10151D01*
X9766Y10153D01*
D02*
G37*
G36*
X9848Y10046D02*
X9766D01*
Y9964D01*
X9778Y9966D01*
X9802Y9975D01*
X9821Y9991D01*
X9837Y10010D01*
X9846Y10034D01*
X9848Y10046D01*
D02*
G37*
G36*
X9741D02*
X9659D01*
X9661Y10034D01*
X9671Y10010D01*
X9686Y9991D01*
X9706Y9975D01*
X9729Y9966D01*
X9741Y9964D01*
Y10046D01*
D02*
G37*
G36*
Y10153D02*
X9729Y10151D01*
X9706Y10141D01*
X9686Y10126D01*
X9671Y10106D01*
X9661Y10083D01*
X9659Y10071D01*
X9741D01*
Y10153D01*
D02*
G37*
G36*
X8913Y12268D02*
X8473D01*
X8462Y12266D01*
X8452Y12259D01*
X8445Y12249D01*
X8443Y12238D01*
X8445Y12226D01*
X8452Y12216D01*
X8462Y12209D01*
X8473Y12207D01*
X8514D01*
X8515Y12182D01*
X8500Y12180D01*
X8482Y12173D01*
X8468Y12162D01*
X8457Y12147D01*
X8450Y12130D01*
X8447Y12112D01*
X8450Y12094D01*
X8457Y12077D01*
X8468Y12062D01*
X8482Y12051D01*
X8487Y12049D01*
Y11749D01*
X7498Y10760D01*
X6769D01*
X6767Y10764D01*
X6756Y10779D01*
X6741Y10790D01*
X6736Y10792D01*
Y10950D01*
X6734Y10962D01*
X6727Y10972D01*
X6340Y11359D01*
X6342Y11363D01*
X6344Y11382D01*
X6342Y11400D01*
X6335Y11417D01*
X6324Y11432D01*
X6309Y11443D01*
X6292Y11450D01*
X6274Y11452D01*
X6269Y11461D01*
X6272Y11465D01*
X6291Y11501D01*
X6303Y11541D01*
X6306Y11570D01*
X6109D01*
Y11372D01*
X6137Y11375D01*
X6177Y11387D01*
X6181Y11389D01*
X6204Y11378D01*
X6206Y11363D01*
X6213Y11346D01*
X6224Y11332D01*
X6238Y11321D01*
X6256Y11314D01*
X6274Y11311D01*
X6292Y11314D01*
X6297Y11315D01*
X6675Y10937D01*
Y10792D01*
X6670Y10790D01*
X6656Y10779D01*
X6644Y10764D01*
X6637Y10747D01*
X6635Y10729D01*
X6637Y10711D01*
X6644Y10694D01*
X6656Y10679D01*
X6670Y10668D01*
X6687Y10661D01*
X6706Y10658D01*
X6724Y10661D01*
X6741Y10668D01*
X6756Y10679D01*
X6767Y10694D01*
X6769Y10698D01*
X7511D01*
X7511Y10698D01*
X7522Y10701D01*
X7532Y10707D01*
X7769Y10944D01*
X7791Y10933D01*
X7791Y10935D01*
X7878D01*
Y10922D01*
X7891D01*
Y10835D01*
X7901Y10837D01*
X7922Y10846D01*
X7940Y10860D01*
X7944Y10865D01*
X7968Y10857D01*
Y10800D01*
X7963Y10798D01*
X7949Y10787D01*
X7937Y10772D01*
X7930Y10755D01*
X7928Y10737D01*
X7930Y10718D01*
X7937Y10701D01*
X7949Y10687D01*
X7963Y10675D01*
X7980Y10668D01*
X7998Y10666D01*
X8017Y10668D01*
X8034Y10675D01*
X8048Y10687D01*
X8053Y10693D01*
X8077Y10685D01*
Y9806D01*
X8077Y9806D01*
X8079Y9794D01*
X8086Y9784D01*
X8140Y9731D01*
X8129Y9708D01*
X8115Y9710D01*
X8097Y9707D01*
X8092Y9706D01*
X8070Y9728D01*
X8060Y9734D01*
X8048Y9737D01*
X8048Y9737D01*
X7603D01*
X7593Y9760D01*
X7987Y10154D01*
X7987Y10154D01*
X7991Y10160D01*
X7994Y10164D01*
X7996Y10175D01*
X7996Y10175D01*
X7996Y10175D01*
Y10175D01*
Y10402D01*
X8001Y10404D01*
X8015Y10415D01*
X8027Y10429D01*
X8034Y10447D01*
X8036Y10465D01*
X8034Y10483D01*
X8027Y10500D01*
X8015Y10515D01*
X8001Y10526D01*
X7984Y10533D01*
X7965Y10535D01*
X7947Y10533D01*
X7930Y10526D01*
X7916Y10515D01*
X7904Y10500D01*
X7897Y10483D01*
X7895Y10465D01*
X7897Y10447D01*
X7904Y10429D01*
X7916Y10415D01*
X7930Y10404D01*
X7935Y10402D01*
Y10188D01*
X7793Y10046D01*
X7774Y10062D01*
X7781Y10071D01*
X7788Y10088D01*
X7790Y10107D01*
X7788Y10125D01*
X7781Y10142D01*
X7770Y10157D01*
X7755Y10168D01*
X7738Y10175D01*
X7720Y10177D01*
X7701Y10175D01*
X7684Y10168D01*
X7670Y10157D01*
X7666Y10151D01*
X7641D01*
X7637Y10157D01*
X7617Y10172D01*
X7594Y10181D01*
X7569Y10185D01*
X7544Y10181D01*
X7521Y10172D01*
X7501Y10157D01*
X7486Y10137D01*
X7477Y10114D01*
X7473Y10089D01*
X7477Y10064D01*
X7486Y10041D01*
X7501Y10021D01*
X7521Y10006D01*
X7544Y9996D01*
X7569Y9993D01*
X7594Y9996D01*
X7617Y10006D01*
X7637Y10021D01*
X7652Y10041D01*
X7654Y10044D01*
X7669Y10048D01*
X7689Y10033D01*
Y10011D01*
X7640Y9962D01*
X6411D01*
X6411Y9962D01*
X6399Y9960D01*
X6389Y9953D01*
X6389Y9953D01*
X6312Y9876D01*
X6307Y9878D01*
X6289Y9880D01*
X6271Y9878D01*
X6254Y9871D01*
X6239Y9859D01*
X6228Y9845D01*
X6221Y9828D01*
X6218Y9809D01*
X6221Y9791D01*
X6228Y9774D01*
X6239Y9760D01*
X6254Y9748D01*
X6271Y9741D01*
X6289Y9739D01*
X6307Y9741D01*
X6324Y9748D01*
X6339Y9760D01*
X6350Y9774D01*
X6357Y9791D01*
X6360Y9809D01*
X6357Y9828D01*
X6355Y9832D01*
X6424Y9901D01*
X7109D01*
X7119Y9877D01*
X7100Y9863D01*
X7086Y9845D01*
X7078Y9823D01*
X7076Y9813D01*
X7249D01*
X7248Y9823D01*
X7239Y9845D01*
X7225Y9863D01*
X7207Y9877D01*
X7217Y9901D01*
X7615D01*
X7625Y9878D01*
X7524Y9777D01*
X7415D01*
X7403Y9774D01*
X7399Y9772D01*
X7393Y9768D01*
X7393Y9768D01*
X7281Y9655D01*
X6396D01*
X6396Y9655D01*
X6396Y9655D01*
X6208D01*
X6069Y9794D01*
X6071Y9799D01*
X6074Y9817D01*
X6071Y9835D01*
X6064Y9852D01*
X6053Y9867D01*
X6039Y9878D01*
X6021Y9885D01*
X6003Y9888D01*
Y9891D01*
X6021Y9908D01*
X6157D01*
X6157Y9908D01*
X6169Y9911D01*
X6179Y9917D01*
X6685Y10424D01*
X7295D01*
X7297Y10419D01*
X7308Y10405D01*
X7323Y10393D01*
X7340Y10386D01*
X7358Y10384D01*
X7377Y10386D01*
X7394Y10393D01*
X7408Y10405D01*
X7420Y10419D01*
X7427Y10436D01*
X7429Y10455D01*
X7427Y10473D01*
X7420Y10490D01*
X7408Y10505D01*
X7394Y10516D01*
X7377Y10523D01*
X7358Y10525D01*
X7340Y10523D01*
X7323Y10516D01*
X7308Y10505D01*
X7297Y10490D01*
X7295Y10485D01*
X6673D01*
X6673Y10485D01*
X6661Y10483D01*
X6651Y10476D01*
X6651Y10476D01*
X6144Y9970D01*
X5552D01*
X5550Y9974D01*
X5539Y9989D01*
X5524Y10000D01*
X5507Y10007D01*
X5489Y10010D01*
X5471Y10007D01*
X5454Y10000D01*
X5439Y9989D01*
X5428Y9974D01*
X5421Y9957D01*
X5418Y9939D01*
X5421Y9921D01*
X5428Y9904D01*
X5439Y9889D01*
X5454Y9878D01*
X5471Y9871D01*
X5489Y9868D01*
X5502Y9870D01*
X5515Y9849D01*
X5512Y9845D01*
X5503Y9823D01*
X5501Y9813D01*
X5675D01*
X5673Y9823D01*
X5664Y9845D01*
X5650Y9863D01*
X5632Y9877D01*
X5615Y9884D01*
X5620Y9908D01*
X5977D01*
X5978Y9900D01*
X5978D01*
X5982Y9884D01*
X5968Y9878D01*
X5953Y9867D01*
X5942Y9852D01*
X5935Y9835D01*
X5933Y9817D01*
X5935Y9799D01*
X5942Y9782D01*
X5953Y9767D01*
X5968Y9756D01*
X5985Y9749D01*
X6003Y9746D01*
X6021Y9749D01*
X6026Y9751D01*
X6174Y9603D01*
X6174Y9603D01*
X6184Y9596D01*
X6184Y9596D01*
X6184Y9596D01*
D01*
X6184Y9596D01*
X6184Y9596D01*
X6196Y9594D01*
X6196Y9594D01*
X6290D01*
X6299Y9571D01*
X5878Y9149D01*
X5537D01*
X5535Y9154D01*
X5524Y9169D01*
X5509Y9180D01*
X5492Y9187D01*
X5474Y9189D01*
X5455Y9187D01*
X5438Y9180D01*
X5424Y9169D01*
X5413Y9154D01*
X5406Y9137D01*
X5403Y9119D01*
X5406Y9100D01*
X5413Y9083D01*
X5424Y9069D01*
X5438Y9057D01*
X5455Y9050D01*
X5474Y9048D01*
X5492Y9050D01*
X5509Y9057D01*
X5524Y9069D01*
X5535Y9083D01*
X5537Y9088D01*
X5890D01*
X5890Y9088D01*
X5902Y9090D01*
X5912Y9097D01*
X6409Y9594D01*
X6524D01*
X6533Y9571D01*
X6288Y9326D01*
X6281Y9316D01*
X6279Y9304D01*
X6279Y9304D01*
Y8743D01*
X6279Y8743D01*
X6281Y8731D01*
X6288Y8721D01*
X6399Y8609D01*
X6409Y8603D01*
X6421Y8600D01*
X6421Y8600D01*
X6749D01*
X6749Y8600D01*
X6760Y8603D01*
X6770Y8609D01*
X6830Y8669D01*
X6835Y8667D01*
X6853Y8664D01*
X6871Y8667D01*
X6888Y8674D01*
X6903Y8685D01*
X6926Y8667D01*
Y8632D01*
X6926Y8632D01*
X6929Y8620D01*
X6935Y8611D01*
X7172Y8374D01*
X7172Y8374D01*
X7182Y8368D01*
X7182Y8368D01*
X7182Y8368D01*
D01*
X7182Y8368D01*
X7182Y8368D01*
X7193Y8365D01*
X7193Y8365D01*
X7275D01*
X7275Y8365D01*
X7286Y8368D01*
X7296Y8374D01*
X7377Y8456D01*
X7377Y8456D01*
X7381Y8462D01*
X7384Y8466D01*
X7386Y8477D01*
X7386Y8477D01*
X7386Y8477D01*
Y8477D01*
Y8596D01*
X7391Y8598D01*
X7406Y8609D01*
X7417Y8624D01*
X7424Y8641D01*
X7426Y8659D01*
X7424Y8677D01*
X7417Y8694D01*
X7406Y8709D01*
X7391Y8720D01*
X7374Y8727D01*
X7356Y8729D01*
X7338Y8727D01*
X7327Y8722D01*
X7311Y8742D01*
X7316Y8749D01*
X7324Y8766D01*
X7326Y8784D01*
X7324Y8803D01*
X7316Y8820D01*
X7305Y8834D01*
X7291Y8845D01*
X7286Y8847D01*
Y9393D01*
X7294Y9403D01*
X7549D01*
X7549Y9403D01*
X7561Y9405D01*
X7571Y9412D01*
X7600Y9442D01*
X7623Y9431D01*
X7622Y9423D01*
X7624Y9405D01*
X7629Y9393D01*
X7619Y9379D01*
X7611Y9373D01*
X7501D01*
X7489Y9370D01*
X7479Y9364D01*
X7479Y9364D01*
X7460Y9344D01*
X7455Y9346D01*
X7437Y9349D01*
X7419Y9346D01*
X7402Y9339D01*
X7387Y9328D01*
X7376Y9313D01*
X7369Y9296D01*
X7367Y9278D01*
X7369Y9260D01*
X7376Y9243D01*
X7387Y9228D01*
X7402Y9217D01*
X7407Y9215D01*
Y8923D01*
X7407Y8923D01*
X7409Y8911D01*
X7415Y8901D01*
X7429Y8888D01*
X7427Y8883D01*
X7425Y8865D01*
X7427Y8846D01*
X7434Y8829D01*
X7446Y8815D01*
X7460Y8803D01*
X7477Y8796D01*
X7496Y8794D01*
X7514Y8796D01*
X7531Y8803D01*
X7545Y8815D01*
X7557Y8829D01*
X7564Y8846D01*
X7566Y8865D01*
X7564Y8883D01*
X7557Y8900D01*
X7545Y8915D01*
X7531Y8926D01*
X7514Y8933D01*
X7496Y8935D01*
X7487Y8934D01*
X7471Y8947D01*
X7468Y8956D01*
Y9215D01*
X7472Y9217D01*
X7487Y9228D01*
X7498Y9243D01*
X7505Y9260D01*
X7508Y9278D01*
X7505Y9296D01*
X7503Y9301D01*
X7514Y9312D01*
X7932D01*
X7937Y9310D01*
X7952Y9293D01*
X7951Y9285D01*
X7953Y9266D01*
X7960Y9249D01*
X7971Y9235D01*
X7986Y9224D01*
X8003Y9216D01*
X8021Y9214D01*
X8040Y9216D01*
X8057Y9224D01*
X8071Y9235D01*
X8074Y9238D01*
X8097Y9230D01*
Y9192D01*
X7927Y9022D01*
X7923Y9024D01*
X7904Y9027D01*
X7886Y9024D01*
X7875Y9019D01*
X7860Y9029D01*
X7854Y9037D01*
Y9104D01*
X7869Y9106D01*
X7886Y9113D01*
X7901Y9125D01*
X7912Y9139D01*
X7919Y9156D01*
X7922Y9174D01*
X7919Y9193D01*
X7912Y9210D01*
X7901Y9224D01*
X7886Y9236D01*
X7869Y9243D01*
X7851Y9245D01*
X7833Y9243D01*
X7816Y9236D01*
X7801Y9224D01*
X7790Y9210D01*
X7783Y9193D01*
X7781Y9174D01*
X7783Y9156D01*
X7790Y9139D01*
X7793Y9136D01*
Y8783D01*
X7793Y8783D01*
X7795Y8772D01*
X7802Y8762D01*
X7848Y8715D01*
X7846Y8710D01*
X7844Y8692D01*
X7846Y8674D01*
X7853Y8657D01*
X7865Y8642D01*
X7879Y8631D01*
X7896Y8624D01*
X7915Y8621D01*
X7933Y8624D01*
X7950Y8631D01*
X7965Y8642D01*
X7976Y8657D01*
X7983Y8674D01*
X7985Y8692D01*
X7983Y8710D01*
X7976Y8727D01*
X7965Y8742D01*
X7950Y8753D01*
X7933Y8760D01*
X7915Y8762D01*
X7896Y8760D01*
X7892Y8758D01*
X7854Y8796D01*
Y8875D01*
X7860Y8883D01*
X7875Y8893D01*
X7886Y8888D01*
X7904Y8885D01*
X7923Y8888D01*
X7940Y8895D01*
X7954Y8906D01*
X7966Y8921D01*
X7973Y8938D01*
X7975Y8956D01*
X7973Y8974D01*
X7971Y8979D01*
X8150Y9158D01*
X8156Y9168D01*
X8159Y9180D01*
X8159Y9180D01*
Y9185D01*
X8182Y9194D01*
X8294Y9082D01*
X8304Y9075D01*
X8316Y9073D01*
X8316Y9073D01*
X8445D01*
X8446Y9073D01*
X8457Y9075D01*
X8467Y9082D01*
X8508Y9122D01*
X8514Y9132D01*
X8517Y9144D01*
X8517Y9144D01*
X8517Y9144D01*
Y9144D01*
Y9507D01*
X8514Y9519D01*
X8508Y9529D01*
X8508Y9529D01*
X8436Y9601D01*
X8437Y9606D01*
X8440Y9624D01*
X8437Y9642D01*
X8430Y9659D01*
X8419Y9674D01*
X8419Y9675D01*
X8451D01*
X8547Y9578D01*
Y9185D01*
X8547Y9185D01*
X8549Y9173D01*
X8556Y9163D01*
X8644Y9075D01*
Y8990D01*
X8619Y8985D01*
X8617Y8989D01*
X8602Y9009D01*
X8582Y9024D01*
X8559Y9033D01*
X8547Y9035D01*
Y8941D01*
Y8847D01*
X8559Y8848D01*
X8582Y8858D01*
X8602Y8873D01*
X8617Y8893D01*
X8619Y8897D01*
X8644Y8892D01*
Y8860D01*
X8644Y8860D01*
X8646Y8848D01*
X8652Y8838D01*
X8736Y8754D01*
X8736Y8754D01*
X8742Y8750D01*
X8746Y8747D01*
X8758Y8745D01*
X9513D01*
X9515Y8740D01*
X9526Y8726D01*
X9540Y8715D01*
X9558Y8708D01*
X9576Y8705D01*
X9594Y8708D01*
X9611Y8715D01*
X9626Y8726D01*
X9637Y8740D01*
X9644Y8757D01*
X9646Y8776D01*
X9644Y8794D01*
X9637Y8811D01*
X9626Y8826D01*
X9611Y8837D01*
X9594Y8844D01*
X9581Y8846D01*
X9584Y8850D01*
X9598Y8858D01*
X9598D01*
X9618Y8873D01*
X9633Y8893D01*
X9643Y8916D01*
X9646Y8941D01*
X9643Y8966D01*
X9633Y8989D01*
X9618Y9009D01*
X9598Y9024D01*
X9575Y9033D01*
X9550Y9037D01*
X9526Y9033D01*
X9508Y9026D01*
X8852Y9682D01*
Y10098D01*
X8852Y10098D01*
X8850Y10110D01*
X8843Y10120D01*
X8843Y10120D01*
X8766Y10196D01*
X8756Y10203D01*
X8745Y10205D01*
X8745Y10205D01*
X8565D01*
X8563Y10210D01*
X8552Y10225D01*
X8537Y10236D01*
X8520Y10243D01*
X8502Y10245D01*
X8484Y10243D01*
X8467Y10236D01*
X8452Y10225D01*
X8441Y10210D01*
X8434Y10193D01*
X8431Y10175D01*
X8434Y10156D01*
X8441Y10139D01*
D01*
X8422Y10139D01*
X8422Y10139D01*
Y10139D01*
X8404Y10137D01*
X8387Y10130D01*
X8372Y10118D01*
X8361Y10104D01*
X8356Y10092D01*
X8331Y10097D01*
Y10173D01*
X8331Y10173D01*
X8329Y10184D01*
X8322Y10194D01*
X8322Y10194D01*
X8178Y10338D01*
Y10581D01*
X8201Y10591D01*
X8209Y10583D01*
X8209Y10583D01*
X8219Y10576D01*
X8231Y10574D01*
X8359D01*
X8370Y10560D01*
X8385Y10548D01*
X8402Y10541D01*
X8420Y10539D01*
X8438Y10541D01*
X8455Y10548D01*
X8470Y10560D01*
X8481Y10574D01*
X8488Y10591D01*
X8491Y10610D01*
X8488Y10628D01*
X8481Y10645D01*
X8470Y10660D01*
X8455Y10671D01*
X8438Y10678D01*
X8420Y10680D01*
X8403Y10678D01*
X8398Y10688D01*
X8392Y10701D01*
X8820Y11129D01*
X8832Y11127D01*
X8845Y11122D01*
X8848Y11100D01*
X8858Y11077D01*
X8873Y11057D01*
X8893Y11042D01*
X8916Y11033D01*
X8941Y11029D01*
X8966Y11033D01*
X8989Y11042D01*
X9009Y11057D01*
X9024Y11077D01*
X9031Y11095D01*
X9037D01*
X9037Y11095D01*
X9049Y11097D01*
X9059Y11104D01*
X9077Y11121D01*
X9101Y11113D01*
X9102Y11100D01*
X9112Y11077D01*
X9127Y11057D01*
X9147Y11042D01*
X9170Y11033D01*
X9195Y11029D01*
X9220Y11033D01*
X9243Y11042D01*
X9263Y11057D01*
X9278Y11077D01*
X9287Y11100D01*
X9291Y11125D01*
X9287Y11150D01*
X9278Y11173D01*
X9263Y11193D01*
X9265Y11200D01*
X9266Y11201D01*
D01*
X9266Y11201D01*
X9266D01*
X9278Y11204D01*
X9288Y11210D01*
X9369Y11292D01*
X9369Y11292D01*
X9373Y11297D01*
X9375Y11301D01*
X9378Y11313D01*
X9378Y11313D01*
X9378Y11313D01*
Y11313D01*
Y11405D01*
Y11405D01*
Y11405D01*
D01*
X9378D01*
D01*
X9378Y11405D01*
D01*
D01*
D01*
D01*
X9378Y11405D01*
X9375Y11416D01*
X9373Y11420D01*
X9373Y11420D01*
X9373Y11420D01*
Y11420D01*
D01*
D01*
D01*
X9373Y11420D01*
X9369Y11426D01*
X9369Y11426D01*
X9288Y11508D01*
D01*
X9288Y11508D01*
Y11508D01*
X9288Y11508D01*
X9288Y11508D01*
D01*
X9278Y11514D01*
X9266Y11516D01*
X9266Y11516D01*
X8651D01*
X8651Y11516D01*
X8640Y11514D01*
X8630Y11508D01*
X8086Y10964D01*
X8079Y10954D01*
X8077Y10942D01*
X8077Y10942D01*
Y10788D01*
X8053Y10780D01*
X8048Y10787D01*
X8034Y10798D01*
X8029Y10800D01*
Y11115D01*
X8761Y11846D01*
X8969D01*
X8970Y11842D01*
X8982Y11827D01*
X8996Y11816D01*
X9013Y11809D01*
X9032Y11806D01*
X9050Y11809D01*
X9067Y11816D01*
X9082Y11827D01*
X9093Y11842D01*
X9100Y11859D01*
X9102Y11877D01*
X9100Y11895D01*
X9093Y11912D01*
X9082Y11927D01*
X9067Y11938D01*
X9050Y11945D01*
X9032Y11948D01*
X9013Y11945D01*
X8996Y11938D01*
X8982Y11927D01*
X8970Y11912D01*
X8969Y11908D01*
X8748D01*
X8737Y11905D01*
X8733Y11903D01*
X8727Y11899D01*
X8727Y11899D01*
X8571Y11744D01*
X8548Y11753D01*
Y12049D01*
X8553Y12051D01*
X8568Y12062D01*
X8579Y12077D01*
X8586Y12094D01*
X8588Y12112D01*
X8586Y12130D01*
X8584Y12135D01*
X8598Y12149D01*
X9221D01*
X9223Y12144D01*
X9234Y12129D01*
X9248Y12118D01*
X9265Y12111D01*
X9284Y12109D01*
X9302Y12111D01*
X9319Y12118D01*
X9334Y12129D01*
X9345Y12144D01*
X9352Y12161D01*
X9354Y12179D01*
X9352Y12198D01*
X9345Y12215D01*
X9334Y12229D01*
X9319Y12240D01*
X9302Y12247D01*
X9284Y12250D01*
X9265Y12247D01*
X9248Y12240D01*
X9234Y12229D01*
X9223Y12215D01*
X9221Y12210D01*
X8965D01*
X8948Y12221D01*
X8942Y12229D01*
X8943Y12238D01*
X8941Y12249D01*
X8934Y12259D01*
X8925Y12266D01*
X8913Y12268D01*
D02*
G37*
G36*
X8941Y10967D02*
X8916Y10964D01*
X8893Y10954D01*
X8873Y10939D01*
X8858Y10919D01*
X8848Y10896D01*
X8845Y10871D01*
X8848Y10846D01*
X8858Y10823D01*
X8873Y10803D01*
X8893Y10788D01*
X8916Y10779D01*
X8941Y10775D01*
X8966Y10779D01*
X8989Y10788D01*
X9009Y10803D01*
X9024Y10823D01*
X9033Y10846D01*
X9037Y10871D01*
X9033Y10896D01*
X9024Y10919D01*
X9009Y10939D01*
X8989Y10954D01*
X8966Y10964D01*
X8941Y10967D01*
D02*
G37*
G36*
X9848Y10808D02*
X9766D01*
Y10726D01*
X9778Y10728D01*
X9802Y10737D01*
X9821Y10753D01*
X9837Y10772D01*
X9846Y10796D01*
X9848Y10808D01*
D02*
G37*
G36*
X9741Y10915D02*
X9729Y10913D01*
X9706Y10903D01*
X9686Y10888D01*
X9671Y10868D01*
X9661Y10845D01*
X9659Y10833D01*
X9741D01*
Y10915D01*
D02*
G37*
G36*
X9290Y10966D02*
X9100D01*
Y10776D01*
X9290D01*
Y10966D01*
D02*
G37*
G36*
X6096Y12398D02*
X6056Y12395D01*
X6017Y12383D01*
X5981Y12364D01*
X5950Y12338D01*
X5924Y12307D01*
X5905Y12271D01*
X5893Y12232D01*
X5890Y12192D01*
X5893Y12152D01*
X5905Y12113D01*
X5924Y12077D01*
X5950Y12046D01*
X5981Y12020D01*
X6017Y12001D01*
X6056Y11989D01*
X6096Y11986D01*
X6136Y11989D01*
X6175Y12001D01*
X6211Y12020D01*
X6242Y12046D01*
X6268Y12077D01*
X6287Y12113D01*
X6299Y12152D01*
X6302Y12192D01*
X6299Y12232D01*
X6287Y12271D01*
X6268Y12307D01*
X6242Y12338D01*
X6211Y12364D01*
X6175Y12383D01*
X6136Y12395D01*
X6096Y12398D01*
D02*
G37*
G36*
X9500Y10916D02*
X9475Y10913D01*
X9452Y10903D01*
X9432Y10888D01*
X9417Y10868D01*
X9407Y10845D01*
X9404Y10820D01*
X9407Y10796D01*
X9417Y10772D01*
X9432Y10753D01*
X9452Y10737D01*
X9475Y10728D01*
X9500Y10725D01*
X9524Y10728D01*
X9548Y10737D01*
X9567Y10753D01*
X9583Y10772D01*
X9592Y10796D01*
X9595Y10820D01*
X9592Y10845D01*
X9583Y10868D01*
X9567Y10888D01*
X9548Y10903D01*
X9524Y10913D01*
X9500Y10916D01*
D02*
G37*
G36*
X9754Y10662D02*
X9729Y10659D01*
X9706Y10649D01*
X9686Y10634D01*
X9671Y10614D01*
X9661Y10591D01*
X9658Y10566D01*
X9661Y10542D01*
X9671Y10518D01*
X9686Y10499D01*
X9706Y10483D01*
X9729Y10474D01*
X9754Y10471D01*
X9778Y10474D01*
X9802Y10483D01*
X9821Y10499D01*
X9837Y10518D01*
X9846Y10542D01*
X9849Y10566D01*
X9846Y10591D01*
X9837Y10614D01*
X9821Y10634D01*
X9802Y10649D01*
X9778Y10659D01*
X9754Y10662D01*
D02*
G37*
G36*
X9741Y10808D02*
X9659D01*
X9661Y10796D01*
X9671Y10772D01*
X9686Y10753D01*
X9706Y10737D01*
X9729Y10728D01*
X9741Y10726D01*
Y10808D01*
D02*
G37*
G36*
X9500Y12186D02*
X9475Y12183D01*
X9452Y12173D01*
X9432Y12158D01*
X9417Y12138D01*
X9407Y12115D01*
X9404Y12090D01*
X9407Y12066D01*
X9417Y12042D01*
X9432Y12023D01*
X9452Y12007D01*
X9475Y11998D01*
X9500Y11995D01*
X9524Y11998D01*
X9548Y12007D01*
X9567Y12023D01*
X9583Y12042D01*
X9592Y12066D01*
X9595Y12090D01*
X9592Y12115D01*
X9583Y12138D01*
X9567Y12158D01*
X9548Y12173D01*
X9524Y12183D01*
X9500Y12186D01*
D02*
G37*
%LPD*%
G36*
X8351Y9556D02*
X8369Y9553D01*
X8388Y9556D01*
X8392Y9558D01*
X8456Y9495D01*
Y9266D01*
X8449Y9258D01*
X8435Y9248D01*
X8423Y9253D01*
X8405Y9255D01*
X8387Y9253D01*
X8382Y9251D01*
X8319Y9314D01*
Y9543D01*
X8324Y9550D01*
X8340Y9561D01*
X8351Y9556D01*
D02*
G37*
G36*
X8046Y9658D02*
X8047Y9657D01*
X8045Y9639D01*
X8047Y9621D01*
X8054Y9604D01*
X8065Y9589D01*
X8080Y9578D01*
X8097Y9571D01*
X8115Y9569D01*
X8134Y9571D01*
X8151Y9578D01*
X8165Y9589D01*
X8176Y9604D01*
X8183Y9621D01*
X8186Y9639D01*
X8184Y9653D01*
X8207Y9664D01*
X8258Y9613D01*
Y9301D01*
X8258Y9301D01*
X8260Y9289D01*
X8267Y9279D01*
X8339Y9208D01*
X8337Y9203D01*
X8334Y9185D01*
X8337Y9166D01*
X8341Y9157D01*
X8320Y9143D01*
X8159Y9304D01*
Y9329D01*
X8159Y9329D01*
X8156Y9341D01*
X8150Y9351D01*
X8150Y9351D01*
X8081Y9420D01*
X8071Y9427D01*
X8059Y9429D01*
X8059Y9429D01*
X8059Y9442D01*
X8066Y9447D01*
X8077Y9462D01*
X8084Y9479D01*
X8087Y9497D01*
X8084Y9515D01*
X8077Y9532D01*
X8066Y9547D01*
X8052Y9558D01*
X8035Y9565D01*
X8016Y9568D01*
X7998Y9565D01*
X7981Y9558D01*
X7966Y9547D01*
X7956Y9534D01*
X7667D01*
X7653Y9555D01*
X7662Y9576D01*
X7665Y9601D01*
X7662Y9626D01*
X7652Y9649D01*
X7637Y9669D01*
X7639Y9676D01*
X8004D01*
X8046Y9658D01*
D02*
G37*
G36*
X7013Y9380D02*
X6993Y9360D01*
X6988Y9362D01*
X6970Y9365D01*
X6952Y9362D01*
X6935Y9355D01*
X6920Y9344D01*
X6909Y9329D01*
X6902Y9312D01*
X6899Y9294D01*
X6902Y9276D01*
X6909Y9259D01*
X6920Y9244D01*
X6935Y9233D01*
X6935Y9208D01*
X6922Y9203D01*
X6907Y9191D01*
X6896Y9177D01*
X6889Y9160D01*
X6886Y9141D01*
X6889Y9123D01*
X6896Y9106D01*
X6907Y9092D01*
X6922Y9080D01*
X6926Y9078D01*
Y8803D01*
X6903Y8785D01*
X6888Y8796D01*
X6871Y8803D01*
X6853Y8806D01*
X6835Y8803D01*
X6818Y8796D01*
X6803Y8785D01*
X6792Y8770D01*
X6785Y8753D01*
X6782Y8735D01*
X6785Y8717D01*
X6787Y8712D01*
X6736Y8662D01*
X6434D01*
X6390Y8706D01*
X6391Y8708D01*
X6409Y8710D01*
X6426Y8717D01*
X6441Y8728D01*
X6452Y8743D01*
X6459Y8760D01*
X6461Y8778D01*
X6459Y8797D01*
X6452Y8814D01*
X6441Y8828D01*
X6426Y8839D01*
X6421Y8841D01*
Y8933D01*
X6891Y9403D01*
X7003D01*
X7013Y9380D01*
D02*
G37*
G36*
X8587Y10047D02*
X8586Y10044D01*
X8583Y10026D01*
X8586Y10008D01*
X8593Y9991D01*
X8604Y9976D01*
X8618Y9965D01*
X8636Y9958D01*
X8654Y9955D01*
X8672Y9958D01*
X8677Y9960D01*
X8711Y9926D01*
Y9867D01*
X8690Y9853D01*
X8680Y9857D01*
X8661Y9860D01*
X8643Y9857D01*
X8626Y9850D01*
X8611Y9839D01*
X8600Y9824D01*
X8593Y9807D01*
X8591Y9789D01*
X8593Y9771D01*
X8600Y9754D01*
X8611Y9739D01*
X8626Y9728D01*
X8631Y9726D01*
Y9605D01*
X8606Y9602D01*
X8606Y9603D01*
X8599Y9613D01*
X8490Y9722D01*
X8491Y9724D01*
X8509Y9726D01*
X8527Y9733D01*
X8541Y9744D01*
X8552Y9759D01*
X8559Y9776D01*
X8562Y9794D01*
X8559Y9813D01*
X8552Y9830D01*
X8541Y9844D01*
X8527Y9855D01*
X8509Y9862D01*
X8491Y9865D01*
X8473Y9862D01*
X8456Y9855D01*
X8441Y9844D01*
X8432Y9832D01*
X8425Y9832D01*
X8392Y9845D01*
X8331Y9906D01*
Y10041D01*
X8356Y10045D01*
X8361Y10033D01*
X8372Y10019D01*
X8387Y10007D01*
X8404Y10000D01*
X8422Y9998D01*
X8440Y10000D01*
X8457Y10007D01*
X8472Y10019D01*
X8483Y10033D01*
X8485Y10038D01*
X8530D01*
X8530Y10038D01*
X8542Y10040D01*
X8552Y10047D01*
X8566Y10061D01*
X8587Y10047D01*
D02*
G37*
G36*
X7489Y9653D02*
X7486Y9649D01*
X7477Y9626D01*
X7473Y9601D01*
X7477Y9576D01*
X7486Y9553D01*
X7501Y9533D01*
X7521Y9518D01*
X7544Y9509D01*
X7548Y9508D01*
X7557Y9484D01*
X7536Y9464D01*
X6878D01*
X6867Y9462D01*
X6857Y9455D01*
X6369Y8968D01*
X6364Y8960D01*
X6340Y8967D01*
Y9291D01*
X6593Y9544D01*
X7304D01*
X7304Y9544D01*
X7315Y9546D01*
X7325Y9553D01*
X7448Y9676D01*
X7478D01*
X7489Y9653D01*
D02*
G37*
G36*
X7080Y9328D02*
Y9218D01*
X7122D01*
Y8600D01*
X7122Y8600D01*
X7125Y8587D01*
X7125Y8585D01*
X7134Y8572D01*
X7134Y8572D01*
X7134Y8572D01*
Y8572D01*
X7193Y8513D01*
X7190Y8509D01*
X7183Y8493D01*
X7182Y8482D01*
X7158Y8474D01*
X6988Y8645D01*
Y9078D01*
X6992Y9080D01*
X7007Y9092D01*
X7018Y9106D01*
X7025Y9123D01*
X7028Y9141D01*
X7025Y9160D01*
X7018Y9177D01*
X7007Y9191D01*
X6992Y9203D01*
X6992Y9228D01*
X7005Y9233D01*
X7020Y9244D01*
X7031Y9259D01*
X7038Y9276D01*
X7041Y9294D01*
X7038Y9312D01*
X7036Y9317D01*
X7057Y9338D01*
X7080Y9328D01*
D02*
G37*
G36*
X8862Y11433D02*
X8858Y11427D01*
X8848Y11404D01*
X8847Y11392D01*
X8941D01*
Y11367D01*
X8847D01*
X8848Y11354D01*
X8858Y11331D01*
X8873Y11311D01*
X8882Y11304D01*
X8884Y11279D01*
X8489Y10884D01*
X8466Y10893D01*
Y11010D01*
X8291D01*
Y10964D01*
X8277Y10965D01*
D01*
D01*
X8277Y10965D01*
Y10965D01*
D01*
D01*
D01*
X8277Y10965D01*
X8207D01*
X8200Y10982D01*
X8198Y10989D01*
X8664Y11455D01*
X8851D01*
X8862Y11433D01*
D02*
G37*
G36*
X9465Y8983D02*
X9458Y8966D01*
X9455Y8941D01*
X9458Y8916D01*
X9467Y8893D01*
X9483Y8873D01*
X9502Y8858D01*
X9526Y8848D01*
D01*
D01*
D01*
X9526Y8826D01*
X9515Y8811D01*
X9513Y8806D01*
X9151D01*
X9142Y8829D01*
X9171Y8858D01*
X9171Y8858D01*
X9175Y8864D01*
X9177Y8868D01*
X9180Y8880D01*
X9180Y8880D01*
X9180Y8880D01*
Y8880D01*
Y8910D01*
X9204Y8915D01*
X9213Y8893D01*
X9229Y8873D01*
X9248Y8858D01*
X9272Y8848D01*
X9296Y8845D01*
X9321Y8848D01*
X9344Y8858D01*
X9364Y8873D01*
X9379Y8893D01*
X9389Y8916D01*
X9392Y8941D01*
X9389Y8966D01*
X9379Y8989D01*
X9364Y9009D01*
X9344Y9024D01*
X9321Y9033D01*
X9296Y9037D01*
X9272Y9033D01*
X9254Y9026D01*
X8812Y9468D01*
Y9603D01*
X8835Y9613D01*
X9465Y8983D01*
D02*
G37*
G36*
X8720Y9388D02*
X9046Y9062D01*
X9044Y9049D01*
X9040Y9036D01*
X9018Y9033D01*
X9000Y9026D01*
X8692Y9334D01*
Y9386D01*
X8716Y9394D01*
X8720Y9388D01*
D02*
G37*
G36*
X8633Y9310D02*
X8640Y9300D01*
X8957Y8983D01*
X8950Y8966D01*
X8947Y8941D01*
X8950Y8916D01*
X8959Y8893D01*
X8964Y8887D01*
X8953Y8865D01*
X8908D01*
X8874Y8899D01*
X8881Y8916D01*
X8884Y8941D01*
X8881Y8966D01*
X8871Y8989D01*
X8856Y9009D01*
X8836Y9024D01*
X8813Y9033D01*
X8788Y9037D01*
X8764Y9033D01*
X8740Y9024D01*
X8727Y9014D01*
X8705Y9025D01*
Y9088D01*
X8702Y9100D01*
X8696Y9110D01*
X8608Y9197D01*
Y9308D01*
X8633Y9311D01*
X8633Y9310D01*
D02*
G37*
D22*
X8585Y12179D02*
X9284D01*
X8518Y12112D02*
X8585Y12179D01*
X8518Y11736D02*
Y12112D01*
X7511Y10729D02*
X8518Y11736D01*
X6706Y10729D02*
X7511D01*
X6706D02*
Y10950D01*
X6274Y11382D02*
X6706Y10950D01*
X9144Y9657D02*
X9421Y9380D01*
X8087Y8336D02*
X8534Y8783D01*
X6083Y9124D02*
X6144Y9185D01*
X6083Y8379D02*
Y9124D01*
X9266Y11486D02*
X9347Y11405D01*
Y11313D02*
Y11405D01*
X8651Y11486D02*
X9266D01*
X9144Y11232D02*
X9266D01*
X9347Y11313D01*
X9037Y11125D02*
X9144Y11232D01*
X8941Y11125D02*
X9037D01*
X8108Y10942D02*
X8651Y11486D01*
X8108Y9806D02*
X8288Y9625D01*
Y9301D02*
Y9625D01*
X8108Y9806D02*
Y10942D01*
X8288Y9301D02*
X8405Y9185D01*
X8578D02*
X8674Y9088D01*
Y8860D02*
Y9088D01*
Y8860D02*
X8758Y8776D01*
X9576D01*
X8219Y9799D02*
Y10109D01*
X8463Y9705D02*
X8578Y9591D01*
Y9185D02*
Y9591D01*
X8219Y9799D02*
X8313Y9705D01*
X8463D01*
X8821Y9670D02*
Y10098D01*
X8745Y10175D02*
X8821Y10098D01*
Y9670D02*
X9550Y8941D01*
X8502Y10175D02*
X8745D01*
X8729Y10106D02*
X8781Y10053D01*
Y9456D02*
Y10053D01*
X8568Y10106D02*
X8729D01*
X8781Y9456D02*
X9296Y8941D01*
X8530Y10069D02*
X8568Y10106D01*
X8422Y10069D02*
X8530D01*
X8661Y9322D02*
Y9789D01*
Y9322D02*
X9042Y8941D01*
X8741Y9409D02*
X9149Y9002D01*
Y8880D02*
Y9002D01*
X8741Y9409D02*
Y9938D01*
X9103Y8834D02*
X9149Y8880D01*
X8895Y8834D02*
X9103D01*
X8788Y8941D02*
X8895Y8834D01*
X8654Y10026D02*
X8741Y9938D01*
X6673Y10455D02*
X7358D01*
X6157Y9939D02*
X6673Y10455D01*
X5489Y9939D02*
X6157D01*
X7720Y9998D02*
Y10107D01*
X7653Y9931D02*
X7720Y9998D01*
X6411Y9931D02*
X7653D01*
X6289Y9809D02*
X6411Y9931D01*
X8010Y9503D02*
X8016Y9497D01*
X7619Y9503D02*
X8010D01*
X7549Y9434D02*
X7619Y9503D01*
X6391Y8946D02*
X6878Y9434D01*
X7549D01*
X6391Y8778D02*
Y8946D01*
X8048Y9706D02*
X8115Y9639D01*
X7304Y9575D02*
X7435Y9706D01*
X8048D01*
X6580Y9575D02*
X7304D01*
X6309Y9304D02*
X6580Y9575D01*
X6309Y8743D02*
Y9304D01*
X6749Y8631D02*
X6853Y8735D01*
X6309Y8743D02*
X6421Y8631D01*
X6749D01*
X7501Y9342D02*
X7964D01*
X8021Y9285D01*
X7437Y9278D02*
X7501Y9342D01*
X7437Y8923D02*
Y9278D01*
Y8923D02*
X7496Y8865D01*
X8369Y9624D02*
X8486Y9507D01*
X8021Y9398D02*
X8128Y9291D01*
X8059Y9398D02*
X8128Y9329D01*
X8021Y9398D02*
X8059D01*
X8486Y9144D02*
Y9507D01*
X8128Y9291D02*
X8316Y9103D01*
X8446D02*
X8486Y9144D01*
X8316Y9103D02*
X8446D01*
X8128Y9180D02*
Y9291D01*
Y9329D01*
X7904Y8956D02*
X8128Y9180D01*
X7692Y9423D02*
X7717Y9398D01*
X8021D01*
X7823Y9147D02*
X7851Y9174D01*
X7823Y8783D02*
Y9147D01*
Y8783D02*
X7915Y8692D01*
X8290Y10922D02*
X8378D01*
X8301Y9893D02*
Y10173D01*
Y9893D02*
X8400Y9794D01*
X8491D01*
X8277Y10935D02*
X8290Y10922D01*
X8203Y10935D02*
X8277D01*
X8148Y10326D02*
Y10879D01*
X8203Y10935D01*
X8148Y10326D02*
X8301Y10173D01*
X8188Y10801D02*
X8240Y10853D01*
X8188Y10648D02*
X8231Y10604D01*
X8415D02*
X8420Y10610D01*
X8231Y10604D02*
X8415D01*
X8188Y10648D02*
Y10801D01*
X8748Y11877D02*
X9032D01*
X7998Y11127D02*
X8748Y11877D01*
X7998Y10737D02*
Y11127D01*
X7965Y10175D02*
Y10465D01*
X7536Y9746D02*
X7965Y10175D01*
X7415Y9746D02*
X7536D01*
X7293Y9625D02*
X7415Y9746D01*
X6396Y9625D02*
X7293D01*
X6196D02*
X6396D01*
X6003Y9817D02*
X6196Y9625D01*
X5890Y9119D02*
X6396Y9625D01*
X5474Y9119D02*
X5890D01*
X6932Y11943D02*
Y12060D01*
Y11943D02*
X7163Y11712D01*
X6780Y12281D02*
X7214D01*
X6713Y12215D02*
X6780Y12281D01*
X6713Y12017D02*
X7249Y11481D01*
X6713Y12017D02*
Y12215D01*
X6622Y12367D02*
X8212D01*
X6419Y12164D02*
X6622Y12367D01*
X6332Y11974D02*
X6932Y11374D01*
X7780D01*
X5801Y9469D02*
X5948Y9615D01*
X7255Y8784D02*
Y9393D01*
X7069D02*
X7255D01*
X6970Y9294D02*
X7069Y9393D01*
X6957Y8632D02*
Y9141D01*
X7356Y8477D02*
Y8659D01*
X7275Y8396D02*
X7356Y8477D01*
X7193Y8396D02*
X7275D01*
X6957Y8632D02*
X7193Y8396D01*
X9086Y11270D02*
X9195Y11379D01*
X8918Y11270D02*
X9086D01*
X8333Y10685D02*
X8918Y11270D01*
X8308Y10685D02*
X8333D01*
X7783Y8336D02*
X8087D01*
X6259D02*
X7783D01*
X8534Y8783D02*
Y8941D01*
X7356Y8860D02*
Y9144D01*
Y8860D02*
X7640Y8575D01*
X8169D01*
X8534Y8941D01*
X6144Y8451D02*
X6259Y8336D01*
X6144Y8451D02*
Y9185D01*
X8913Y12238D02*
Y12261D01*
X7793Y11557D02*
X8473Y12238D01*
X8539Y10500D02*
X9063Y9977D01*
Y9578D02*
Y9977D01*
Y9578D02*
X9657Y8984D01*
Y8692D02*
Y8984D01*
X9347Y8382D02*
X9657Y8692D01*
X9500Y9296D02*
Y9380D01*
X7282Y11598D02*
X7450Y11765D01*
X7506Y10550D02*
X7878Y10922D01*
X7506Y10254D02*
Y10550D01*
X9421Y9380D02*
X9500D01*
X8473Y12238D02*
X8913D01*
D23*
X6881Y12156D02*
X8247D01*
X6794Y12070D02*
X6881Y12156D01*
X7163Y8600D02*
X7247Y8517D01*
X7163Y8600D02*
Y9300D01*
D29*
X7247Y8476D02*
Y8517D01*
D31*
X9950Y6909D02*
Y7710D01*
X5210Y6909D02*
Y7710D01*
X8266Y6934D02*
X9950D01*
X5210D02*
X6813D01*
X9798Y6985D02*
X9950Y6934D01*
X9798Y6883D02*
X9950Y6934D01*
X5210D02*
X5362Y6883D01*
X5210Y6934D02*
X5362Y6985D01*
X4039Y12490D02*
X5170D01*
X4039Y7750D02*
X5170D01*
X4064Y10806D02*
Y12490D01*
Y7750D02*
Y9353D01*
X4013Y12338D02*
X4064Y12490D01*
X4115Y12338D01*
X4064Y7750D02*
X4115Y7902D01*
X4013D02*
X4064Y7750D01*
D32*
X6930Y6843D02*
Y6995D01*
X6854Y6919D01*
X6955D01*
X7006Y6995D02*
X7108D01*
Y6970D01*
X7006Y6868D01*
Y6843D01*
X7158D02*
Y6868D01*
X7184D01*
Y6843D01*
X7158D01*
X7362D02*
Y6995D01*
X7285Y6919D01*
X7387D01*
X7438Y6970D02*
X7463Y6995D01*
X7514D01*
X7539Y6970D01*
Y6868D01*
X7514Y6843D01*
X7463D01*
X7438Y6868D01*
Y6970D01*
X7793Y6843D02*
X7742Y6894D01*
Y6944D01*
X7793Y6995D01*
X7869Y6843D02*
Y6944D01*
X7895D01*
X7920Y6919D01*
Y6843D01*
Y6919D01*
X7946Y6944D01*
X7971Y6919D01*
Y6843D01*
X8022D02*
Y6944D01*
X8047D01*
X8073Y6919D01*
Y6843D01*
Y6919D01*
X8098Y6944D01*
X8123Y6919D01*
Y6843D01*
X8174D02*
X8225Y6894D01*
Y6944D01*
X8174Y6995D01*
X4155Y9470D02*
X4003D01*
X4079Y9394D01*
Y9495D01*
X4003Y9546D02*
Y9648D01*
X4028D01*
X4130Y9546D01*
X4155D01*
Y9698D02*
X4130D01*
Y9724D01*
X4155D01*
Y9698D01*
Y9902D02*
X4003D01*
X4079Y9825D01*
Y9927D01*
X4028Y9978D02*
X4003Y10003D01*
Y10054D01*
X4028Y10079D01*
X4130D01*
X4155Y10054D01*
Y10003D01*
X4130Y9978D01*
X4028D01*
X4155Y10333D02*
X4105Y10282D01*
X4054D01*
X4003Y10333D01*
X4155Y10409D02*
X4054D01*
Y10435D01*
X4079Y10460D01*
X4155D01*
X4079D01*
X4054Y10486D01*
X4079Y10511D01*
X4155D01*
Y10562D02*
X4054D01*
Y10587D01*
X4079Y10613D01*
X4155D01*
X4079D01*
X4054Y10638D01*
X4079Y10663D01*
X4155D01*
Y10714D02*
X4105Y10765D01*
X4054D01*
X4003Y10714D01*
D33*
X7569Y10089D02*
D03*
Y9601D02*
D03*
D34*
X9347Y7874D02*
D03*
Y8128D02*
D03*
X8382Y7874D02*
D03*
Y8128D02*
D03*
X8839Y7874D02*
D03*
Y8128D02*
D03*
X9855Y7874D02*
D03*
Y8128D02*
D03*
X8534Y8941D02*
D03*
X8788D02*
D03*
X9042D02*
D03*
X9296D02*
D03*
X9550D02*
D03*
X8941Y11379D02*
D03*
X9195D02*
D03*
X8941Y11125D02*
D03*
X9195D02*
D03*
X8941Y10871D02*
D03*
X6350Y8128D02*
D03*
X5639D02*
D03*
X7112D02*
D03*
X7874D02*
D03*
X9754Y9296D02*
D03*
X9500D02*
D03*
X9754Y9550D02*
D03*
X9500D02*
D03*
X9754Y9804D02*
D03*
X9500D02*
D03*
X9754Y10058D02*
D03*
X9500D02*
D03*
X9754Y10312D02*
D03*
X9500D02*
D03*
X9754Y10566D02*
D03*
X9500D02*
D03*
X9754Y10820D02*
D03*
X9500D02*
D03*
X9754Y11074D02*
D03*
X9500D02*
D03*
X9754Y11328D02*
D03*
X9500D02*
D03*
X9754Y11582D02*
D03*
X9500D02*
D03*
X9754Y11836D02*
D03*
X9500D02*
D03*
X9754Y12090D02*
D03*
X9500D02*
D03*
X9754Y12344D02*
D03*
D35*
X9347Y8382D02*
D03*
X8382D02*
D03*
X8839D02*
D03*
X9855D02*
D03*
X9195Y10871D02*
D03*
X9500Y12344D02*
D03*
D36*
X6096Y12192D02*
D03*
Y11582D02*
D03*
X5436Y10744D02*
D03*
Y11735D02*
D03*
Y10236D02*
D03*
Y12243D02*
D03*
D37*
X9804Y8941D02*
D03*
X6096Y8128D02*
D03*
X5385D02*
D03*
X6858D02*
D03*
X7620D02*
D03*
D38*
X5588Y9300D02*
D03*
X7163D02*
D03*
D39*
X5588Y9800D02*
D03*
X7163D02*
D03*
X7878Y10922D02*
D03*
D40*
X8378D02*
D03*
D41*
X9284Y12179D02*
D03*
X8518Y12112D02*
D03*
X6706Y10729D02*
D03*
X6274Y11382D02*
D03*
X8405Y9185D02*
D03*
X9576Y8776D02*
D03*
X8219Y10109D02*
D03*
X8502Y10175D02*
D03*
X8422Y10069D02*
D03*
X8661Y9789D02*
D03*
X8654Y10026D02*
D03*
X7358Y10455D02*
D03*
X5489Y9939D02*
D03*
X7720Y10107D02*
D03*
X6289Y9809D02*
D03*
X8016Y9497D02*
D03*
X6391Y8778D02*
D03*
X8115Y9639D02*
D03*
X6853Y8735D02*
D03*
X8021Y9285D02*
D03*
X7496Y8865D02*
D03*
X7437Y9278D02*
D03*
X8369Y9624D02*
D03*
X7904Y8956D02*
D03*
X7692Y9423D02*
D03*
X7915Y8692D02*
D03*
X7851Y9174D02*
D03*
X8491Y9794D02*
D03*
X8240Y10853D02*
D03*
X8420Y10610D02*
D03*
X9032Y11877D02*
D03*
X7998Y10737D02*
D03*
X7965Y10465D02*
D03*
X6003Y9817D02*
D03*
X5474Y9119D02*
D03*
X6932Y12060D02*
D03*
X7163Y11712D02*
D03*
X7249Y11481D02*
D03*
X7214Y12281D02*
D03*
X8212Y12367D02*
D03*
X6419Y12164D02*
D03*
X7780Y11374D02*
D03*
X6332Y11974D02*
D03*
X5948Y9615D02*
D03*
X5801Y9469D02*
D03*
X7255Y8784D02*
D03*
X6970Y9294D02*
D03*
X7356Y8659D02*
D03*
X6957Y9141D02*
D03*
X8247Y12156D02*
D03*
X6794Y12070D02*
D03*
X8308Y10685D02*
D03*
X7247Y8476D02*
D03*
X7356Y9144D02*
D03*
X7783Y8336D02*
D03*
X6144Y9185D02*
D03*
X8913Y12261D02*
D03*
X7793Y11557D02*
D03*
X8539Y10500D02*
D03*
X9144Y9657D02*
D03*
X7282Y11598D02*
D03*
X7450Y11765D02*
D03*
X6083Y8379D02*
D03*
X7506Y10254D02*
D03*
M02*
