%FSLAX42Y42*%
%MOMM*%
G71*
G01*
G75*
G04 Layer_Color=65535*
%ADD10R,1.00X1.10*%
%ADD11R,1.65X0.30*%
%ADD12R,1.10X1.00*%
%ADD13O,1.25X0.30*%
%ADD14O,0.55X1.65*%
%ADD15O,1.65X0.55*%
%ADD16R,2.15X0.40*%
%ADD17R,2.15X0.40*%
%ADD18R,4.00X10.00*%
%ADD19R,1.50X1.30*%
%ADD20O,1.80X0.60*%
%ADD21R,4.20X4.20*%
%ADD22C,0.20*%
%ADD23C,0.50*%
%ADD24C,0.40*%
%ADD25C,2.00*%
%ADD26C,0.48*%
%ADD27C,0.16*%
%ADD28C,1.00*%
%ADD29C,0.32*%
%ADD30C,0.80*%
%ADD31C,0.25*%
%ADD32C,0.15*%
%ADD33C,1.50*%
%ADD34C,1.50*%
%ADD35R,1.50X1.50*%
%ADD36C,3.81*%
%ADD37R,1.50X1.50*%
%ADD38R,1.35X1.35*%
%ADD39C,1.35*%
%ADD40R,1.35X1.35*%
%ADD41C,1.00*%
%ADD42C,0.25*%
%ADD43C,0.60*%
%ADD44C,0.20*%
D22*
X6349Y9805D02*
G03*
X6452Y9805I52J0D01*
G01*
X5782Y9012D02*
G03*
X5902Y9012I60J0D01*
G01*
X7306D02*
G03*
X7426Y9012I60J0D01*
G01*
X5696Y9382D02*
G03*
X5671Y9732I-108J169D01*
G01*
X5505D02*
G03*
X5480Y9382I83J-182D01*
G01*
X7270D02*
G03*
X7246Y9732I-108J169D01*
G01*
X7080D02*
G03*
X7055Y9382I83J-182D01*
G01*
X8297Y11030D02*
G03*
X7946Y11005I-169J-108D01*
G01*
Y10839D02*
G03*
X8297Y10814I182J83D01*
G01*
X6246Y9805D02*
X6349D01*
X6452D02*
X6556D01*
X6246Y9295D02*
X6556D01*
X6246D02*
Y9805D01*
X6556Y9295D02*
Y9805D01*
X9220Y8509D02*
X9474D01*
Y7747D02*
Y8509D01*
X9220Y7747D02*
X9474D01*
X9220D02*
Y8509D01*
X8255D02*
X8509D01*
Y7747D02*
Y8509D01*
X8255Y7747D02*
X8509D01*
X8255D02*
Y8509D01*
X8712D02*
X8966D01*
Y7747D02*
Y8509D01*
X8712Y7747D02*
X8966D01*
X8712D02*
Y8509D01*
X9728D02*
X9982D01*
Y7747D02*
Y8509D01*
X9728Y7747D02*
X9982D01*
X9728D02*
Y8509D01*
X8407Y9068D02*
X9931D01*
X8407Y8814D02*
X9931D01*
Y9068D01*
X8407Y8814D02*
Y9068D01*
X8962Y11985D02*
Y12195D01*
X9022Y11985D02*
Y12195D01*
X8962D02*
X9022D01*
X8962Y11985D02*
X9022D01*
X8087Y9611D02*
X8677D01*
X8087Y10201D02*
X8677D01*
Y9611D02*
Y10201D01*
X8087Y9611D02*
Y10201D01*
X9322Y11019D02*
Y11506D01*
Y10744D02*
Y11506D01*
X8814Y10744D02*
Y11506D01*
Y10744D02*
X9322D01*
X8814Y11506D02*
X9322D01*
X5969Y7874D02*
X6477D01*
Y8001D01*
X5969Y7874D02*
Y8001D01*
X6477D01*
X6054Y7535D02*
Y7874D01*
Y7535D02*
X6096Y7493D01*
X6138Y7535D01*
X6138Y7535D02*
Y7874D01*
X6308Y7535D02*
Y7874D01*
Y7535D02*
X6350Y7493D01*
X6392Y7535D01*
Y7874D01*
X5258D02*
X5766D01*
Y8001D01*
X5258Y7874D02*
Y8001D01*
X5766D01*
X5342Y7535D02*
Y7874D01*
Y7535D02*
X5385Y7493D01*
X5427Y7535D01*
X5427Y7535D02*
Y7874D01*
X5596Y7535D02*
Y7874D01*
Y7535D02*
X5639Y7493D01*
X5681Y7535D01*
Y7874D01*
X6022Y8362D02*
Y9012D01*
X5662Y8362D02*
Y9012D01*
Y8362D02*
X6022D01*
X5902Y9012D02*
X6022D01*
X5662D02*
X5782D01*
X6731Y7874D02*
X7239D01*
Y8001D01*
X6731Y7874D02*
Y8001D01*
X7239D01*
X6816Y7535D02*
Y7874D01*
Y7535D02*
X6858Y7493D01*
X6900Y7535D01*
X6900Y7535D02*
Y7874D01*
X7070Y7535D02*
Y7874D01*
Y7535D02*
X7112Y7493D01*
X7154Y7535D01*
Y7874D01*
X7493D02*
X8001D01*
Y8001D01*
X7493Y7874D02*
Y8001D01*
X8001D01*
X7578Y7535D02*
Y7874D01*
Y7535D02*
X7620Y7493D01*
X7662Y7535D01*
X7662Y7535D02*
Y7874D01*
X7832Y7535D02*
Y7874D01*
Y7535D02*
X7874Y7493D01*
X7916Y7535D01*
Y7874D01*
X7546Y8362D02*
Y9012D01*
X7186Y8362D02*
Y9012D01*
Y8362D02*
X7546D01*
X7426Y9012D02*
X7546D01*
X7186D02*
X7306D01*
X9373Y9169D02*
Y12471D01*
X9881Y9169D02*
Y12471D01*
X9373D02*
X9881D01*
X9373Y9169D02*
X9881D01*
X6437Y11874D02*
X6567D01*
D31*
X7569Y9728D02*
Y9982D01*
Y9708D02*
Y9962D01*
X5778Y11493D02*
Y11659D01*
Y12116D02*
Y12281D01*
X6096Y12090D02*
X6223D01*
X5690Y12192D02*
X5867D01*
X5182Y9982D02*
X5690D01*
X5182Y12484D02*
X5690D01*
X5182Y9982D02*
Y12484D01*
X5690Y9982D02*
Y12484D01*
X8423Y9154D02*
Y9256D01*
X8473Y9307D01*
X8524Y9256D01*
Y9154D01*
Y9230D01*
X8423D01*
X8575Y9307D02*
Y9154D01*
X8651D01*
X8677Y9180D01*
Y9281D01*
X8651Y9307D01*
X8575D01*
X8829Y9281D02*
X8804Y9307D01*
X8753D01*
X8727Y9281D01*
Y9180D01*
X8753Y9154D01*
X8804D01*
X8829Y9180D01*
X7903Y10664D02*
X7954D01*
X7979Y10639D01*
Y10563D01*
X7903D01*
X7878Y10588D01*
X7903Y10613D01*
X7979D01*
X8056Y10690D02*
Y10664D01*
X8030D01*
X8081D01*
X8056D01*
Y10588D01*
X8081Y10563D01*
X8157D02*
Y10664D01*
X8183D01*
X8208Y10639D01*
Y10563D01*
Y10639D01*
X8233Y10664D01*
X8259Y10639D01*
Y10563D01*
X8386D02*
X8335D01*
X8309Y10588D01*
Y10639D01*
X8335Y10664D01*
X8386D01*
X8411Y10639D01*
Y10613D01*
X8309D01*
X8513Y10512D02*
X8538D01*
X8563Y10537D01*
Y10664D01*
X8487D01*
X8462Y10639D01*
Y10588D01*
X8487Y10563D01*
X8563D01*
X8640Y10664D02*
X8690D01*
X8716Y10639D01*
Y10563D01*
X8640D01*
X8614Y10588D01*
X8640Y10613D01*
X8716D01*
X7596Y9407D02*
X7570Y9432D01*
X7520D01*
X7494Y9407D01*
Y9305D01*
X7520Y9280D01*
X7570D01*
X7596Y9305D01*
X7647Y9407D02*
X7672Y9432D01*
X7723D01*
X7748Y9407D01*
Y9305D01*
X7723Y9280D01*
X7672D01*
X7647Y9305D01*
Y9407D01*
X7545Y10626D02*
X7520Y10651D01*
X7469D01*
X7443Y10626D01*
Y10524D01*
X7469Y10499D01*
X7520D01*
X7545Y10524D01*
X7596Y10499D02*
X7647D01*
X7621D01*
Y10651D01*
X7596Y10626D01*
X9210Y9751D02*
X9185Y9776D01*
X9134D01*
X9108Y9751D01*
Y9649D01*
X9134Y9624D01*
X9185D01*
X9210Y9649D01*
X9362Y9624D02*
X9261D01*
X9362Y9726D01*
Y9751D01*
X9337Y9776D01*
X9286D01*
X9261Y9751D01*
X8115Y10973D02*
X8090Y10998D01*
X8039D01*
X8014Y10973D01*
Y10871D01*
X8039Y10846D01*
X8090D01*
X8115Y10871D01*
X8166Y10973D02*
X8191Y10998D01*
X8242D01*
X8268Y10973D01*
Y10947D01*
X8242Y10922D01*
X8217D01*
X8242D01*
X8268Y10897D01*
Y10871D01*
X8242Y10846D01*
X8191D01*
X8166Y10871D01*
X7545Y11185D02*
X7520Y11210D01*
X7469D01*
X7443Y11185D01*
Y11083D01*
X7469Y11058D01*
X7520D01*
X7545Y11083D01*
X7672Y11058D02*
Y11210D01*
X7596Y11134D01*
X7697D01*
X6579Y9042D02*
X6553Y9068D01*
X6502D01*
X6477Y9042D01*
Y8941D01*
X6502Y8915D01*
X6553D01*
X6579Y8941D01*
X6731Y9068D02*
X6629D01*
Y8992D01*
X6680Y9017D01*
X6706D01*
X6731Y8992D01*
Y8941D01*
X6706Y8915D01*
X6655D01*
X6629Y8941D01*
X8001Y9334D02*
X7976Y9360D01*
X7925D01*
X7899Y9334D01*
Y9233D01*
X7925Y9207D01*
X7976D01*
X8001Y9233D01*
X8153Y9360D02*
X8103Y9334D01*
X8052Y9284D01*
Y9233D01*
X8077Y9207D01*
X8128D01*
X8153Y9233D01*
Y9258D01*
X8128Y9284D01*
X8052D01*
X5525Y9550D02*
X5499Y9525D01*
Y9474D01*
X5525Y9449D01*
X5626D01*
X5651Y9474D01*
Y9525D01*
X5626Y9550D01*
X5499Y9601D02*
Y9703D01*
X5525D01*
X5626Y9601D01*
X5651D01*
X7087Y9512D02*
X7061Y9487D01*
Y9436D01*
X7087Y9411D01*
X7188D01*
X7214Y9436D01*
Y9487D01*
X7188Y9512D01*
X7087Y9563D02*
X7061Y9588D01*
Y9639D01*
X7087Y9665D01*
X7112D01*
X7137Y9639D01*
X7163Y9665D01*
X7188D01*
X7214Y9639D01*
Y9588D01*
X7188Y9563D01*
X7163D01*
X7137Y9588D01*
X7112Y9563D01*
X7087D01*
X7137Y9588D02*
Y9639D01*
X7445Y11745D02*
X7419Y11770D01*
X7369D01*
X7343Y11745D01*
Y11643D01*
X7369Y11618D01*
X7419D01*
X7445Y11643D01*
X7495Y11770D02*
Y11618D01*
X7572D01*
X7597Y11643D01*
Y11669D01*
Y11694D01*
X7572Y11720D01*
X7495D01*
X7673Y11745D02*
Y11720D01*
X7648D01*
X7699D01*
X7673D01*
Y11643D01*
X7699Y11618D01*
X6478Y12556D02*
X6453Y12582D01*
X6402D01*
X6377Y12556D01*
Y12455D01*
X6402Y12429D01*
X6453D01*
X6478Y12455D01*
X6631Y12531D02*
X6554D01*
X6529Y12506D01*
Y12455D01*
X6554Y12429D01*
X6631D01*
X6937Y11745D02*
X6911Y11770D01*
X6861D01*
X6835Y11745D01*
Y11643D01*
X6861Y11618D01*
X6911D01*
X6937Y11643D01*
X6987Y11618D02*
X7038D01*
X7013D01*
Y11720D01*
X6987D01*
X7114Y11618D02*
Y11720D01*
X7191D01*
X7216Y11694D01*
Y11618D01*
X6350Y12052D02*
X6325Y12078D01*
X6274D01*
X6248Y12052D01*
Y11951D01*
X6274Y11925D01*
X6325D01*
X6350Y11951D01*
X6426Y11925D02*
X6477D01*
X6502Y11951D01*
Y12001D01*
X6477Y12027D01*
X6426D01*
X6401Y12001D01*
Y11951D01*
X6426Y11925D01*
X6553Y12027D02*
Y11951D01*
X6578Y11925D01*
X6655D01*
Y12027D01*
X6731Y12052D02*
Y12027D01*
X6705D01*
X6756D01*
X6731D01*
Y11951D01*
X6756Y11925D01*
X8054Y11643D02*
X8029Y11669D01*
X7978D01*
X7953Y11643D01*
Y11542D01*
X7978Y11516D01*
X8029D01*
X8054Y11542D01*
X8105Y11516D02*
X8181D01*
X8207Y11542D01*
X8181Y11567D01*
X8130D01*
X8105Y11593D01*
X8130Y11618D01*
X8207D01*
X8257Y11516D02*
X8334D01*
X8359Y11542D01*
X8334Y11567D01*
X8283D01*
X8257Y11593D01*
X8283Y11618D01*
X8359D01*
X5436Y11354D02*
X5334D01*
Y11278D01*
X5385D01*
X5334D01*
Y11201D01*
X5486D02*
X5537D01*
X5512D01*
Y11354D01*
X5486Y11328D01*
X8830Y11866D02*
X8881D01*
X8856D01*
Y11713D01*
X8830D01*
X8881D01*
X9059Y11840D02*
X9033Y11866D01*
X8983D01*
X8957Y11840D01*
Y11739D01*
X8983Y11713D01*
X9033D01*
X9059Y11739D01*
X9211Y11840D02*
X9186Y11866D01*
X9135D01*
X9110Y11840D01*
Y11815D01*
X9135Y11789D01*
X9186D01*
X9211Y11764D01*
Y11739D01*
X9186Y11713D01*
X9135D01*
X9110Y11739D01*
X9262Y11713D02*
Y11866D01*
X9338D01*
X9364Y11840D01*
Y11789D01*
X9338Y11764D01*
X9262D01*
X6299Y10579D02*
Y10427D01*
X6401D01*
X6452D02*
X6502D01*
X6477D01*
Y10579D01*
X6452Y10554D01*
X8792Y12336D02*
X8843D01*
X8818D01*
Y12488D01*
X8792D01*
X8919Y12437D02*
X8970Y12336D01*
X9021Y12437D01*
X9072Y12336D02*
X9122D01*
X9097D01*
Y12488D01*
X9072D01*
X5410Y7785D02*
Y7937D01*
X5461Y7887D01*
X5512Y7937D01*
Y7785D01*
X5563D02*
X5613D01*
X5588D01*
Y7937D01*
X5563Y7912D01*
X6109Y7811D02*
Y7963D01*
X6159Y7912D01*
X6210Y7963D01*
Y7811D01*
X6363D02*
X6261D01*
X6363Y7912D01*
Y7937D01*
X6337Y7963D01*
X6286D01*
X6261Y7937D01*
X6858Y7798D02*
Y7950D01*
X6909Y7899D01*
X6960Y7950D01*
Y7798D01*
X7010Y7925D02*
X7036Y7950D01*
X7087D01*
X7112Y7925D01*
Y7899D01*
X7087Y7874D01*
X7061D01*
X7087D01*
X7112Y7849D01*
Y7823D01*
X7087Y7798D01*
X7036D01*
X7010Y7823D01*
X7633Y7785D02*
Y7937D01*
X7683Y7887D01*
X7734Y7937D01*
Y7785D01*
X7861D02*
Y7937D01*
X7785Y7861D01*
X7887D01*
X5906Y8484D02*
X5753D01*
X5804Y8534D01*
X5753Y8585D01*
X5906D01*
X5779Y8738D02*
X5753Y8712D01*
Y8661D01*
X5779Y8636D01*
X5880D01*
X5906Y8661D01*
Y8712D01*
X5880Y8738D01*
X5906Y8788D02*
Y8839D01*
Y8814D01*
X5753D01*
X5779Y8788D01*
X7429Y8433D02*
X7277D01*
X7328Y8484D01*
X7277Y8534D01*
X7429D01*
X7303Y8687D02*
X7277Y8661D01*
Y8611D01*
X7303Y8585D01*
X7404D01*
X7429Y8611D01*
Y8661D01*
X7404Y8687D01*
X7429Y8839D02*
Y8738D01*
X7328Y8839D01*
X7303D01*
X7277Y8814D01*
Y8763D01*
X7303Y8738D01*
X6477Y9271D02*
X6325D01*
X6477Y9373D01*
X6325D01*
X6477Y9423D02*
X6375D01*
X6325Y9474D01*
X6375Y9525D01*
X6477D01*
X6401D01*
Y9423D01*
X6477Y9576D02*
X6325D01*
X6477Y9677D01*
X6325D01*
Y9728D02*
X6477D01*
Y9804D01*
X6452Y9830D01*
X6350D01*
X6325Y9804D01*
Y9728D01*
X9235Y8646D02*
Y8748D01*
X9312D01*
X9337Y8722D01*
Y8646D01*
X9388Y8595D02*
Y8748D01*
X9464D01*
X9489Y8722D01*
Y8672D01*
X9464Y8646D01*
X9388D01*
X9540D02*
X9591D01*
X9566D01*
Y8799D01*
X9540Y8773D01*
X9743Y8646D02*
Y8748D01*
X9820D01*
X9845Y8722D01*
Y8646D01*
X9896Y8595D02*
Y8748D01*
X9972D01*
X9997Y8722D01*
Y8672D01*
X9972Y8646D01*
X9896D01*
X10150D02*
X10048D01*
X10150Y8748D01*
Y8773D01*
X10124Y8799D01*
X10074D01*
X10048Y8773D01*
X9360Y9906D02*
X9208D01*
Y9982D01*
X9233Y10008D01*
X9284D01*
X9309Y9982D01*
Y9906D01*
Y10058D02*
Y10109D01*
Y10084D01*
X9208D01*
Y10058D01*
X9157Y10185D02*
X9309D01*
X9233D01*
X9208Y10211D01*
Y10261D01*
X9233Y10287D01*
X9309D01*
X9157Y10439D02*
X9309D01*
Y10363D01*
X9284Y10338D01*
X9233D01*
X9208Y10363D01*
Y10439D01*
Y10490D02*
X9309D01*
X9258D01*
X9233Y10515D01*
X9208Y10541D01*
Y10566D01*
X5701Y12468D02*
Y12620D01*
X5777D01*
X5803Y12595D01*
Y12544D01*
X5777Y12518D01*
X5701D01*
X5853Y12569D02*
Y12493D01*
X5879Y12468D01*
X5904Y12493D01*
X5930Y12468D01*
X5955Y12493D01*
Y12569D01*
X6006D02*
Y12468D01*
Y12518D01*
X6031Y12544D01*
X6057Y12569D01*
X6082D01*
X8307Y12429D02*
Y12582D01*
X8383D01*
X8409Y12556D01*
Y12506D01*
X8383Y12480D01*
X8307D01*
X8358D02*
X8409Y12429D01*
X8459D02*
X8510D01*
X8485D01*
Y12582D01*
X8459Y12556D01*
X8307Y12023D02*
Y12175D01*
X8383D01*
X8409Y12150D01*
Y12099D01*
X8383Y12074D01*
X8307D01*
X8358D02*
X8409Y12023D01*
X8561D02*
X8459D01*
X8561Y12125D01*
Y12150D01*
X8536Y12175D01*
X8485D01*
X8459Y12150D01*
X6783Y12429D02*
Y12582D01*
X6859D01*
X6885Y12556D01*
Y12506D01*
X6859Y12480D01*
X6783D01*
X6834D02*
X6885Y12429D01*
X7037Y12531D02*
X6961D01*
X6935Y12506D01*
Y12455D01*
X6961Y12429D01*
X7037D01*
X6835Y12075D02*
Y12228D01*
X6911D01*
X6937Y12202D01*
Y12151D01*
X6911Y12126D01*
X6835D01*
X6886D02*
X6937Y12075D01*
X7064D02*
X7013D01*
X6987Y12101D01*
Y12151D01*
X7013Y12177D01*
X7064D01*
X7089Y12151D01*
Y12126D01*
X6987D01*
X7140Y12075D02*
Y12177D01*
X7216D01*
X7241Y12151D01*
Y12075D01*
X8458Y11189D02*
Y11341D01*
X8534D01*
X8560Y11316D01*
Y11265D01*
X8534Y11239D01*
X8458D01*
X8509D02*
X8560Y11189D01*
X8611D02*
X8687D01*
X8712Y11214D01*
X8687Y11239D01*
X8636D01*
X8611Y11265D01*
X8636Y11290D01*
X8712D01*
X8788Y11316D02*
Y11290D01*
X8763D01*
X8814D01*
X8788D01*
Y11214D01*
X8814Y11189D01*
X8372Y8722D02*
X8346Y8748D01*
X8296D01*
X8270Y8722D01*
Y8697D01*
X8296Y8672D01*
X8346D01*
X8372Y8646D01*
Y8621D01*
X8346Y8595D01*
X8296D01*
X8270Y8621D01*
X8423Y8595D02*
X8473D01*
X8448D01*
Y8748D01*
X8423Y8722D01*
X8829D02*
X8804Y8748D01*
X8753D01*
X8727Y8722D01*
Y8697D01*
X8753Y8672D01*
X8804D01*
X8829Y8646D01*
Y8621D01*
X8804Y8595D01*
X8753D01*
X8727Y8621D01*
X8981Y8595D02*
X8880D01*
X8981Y8697D01*
Y8722D01*
X8956Y8748D01*
X8905D01*
X8880Y8722D01*
X7480Y9906D02*
X7582Y9804D01*
X7531Y9855D01*
X7582Y9906D01*
X7480Y9804D01*
X7658Y9931D02*
Y9906D01*
X7633D01*
X7683D01*
X7658D01*
Y9830D01*
X7683Y9804D01*
X7267Y12466D02*
Y12619D01*
X7343D01*
X7369Y12593D01*
Y12542D01*
X7343Y12517D01*
X7267D01*
X7318D02*
X7369Y12466D01*
X7521Y12619D02*
X7419D01*
Y12466D01*
X7521D01*
X7419Y12542D02*
X7470D01*
X7673Y12593D02*
X7648Y12619D01*
X7597D01*
X7572Y12593D01*
Y12492D01*
X7597Y12466D01*
X7648D01*
X7673Y12492D01*
Y12542D01*
X7622D01*
X9950Y6909D02*
Y7710D01*
X5210Y6909D02*
Y7710D01*
X8266Y6934D02*
X9950D01*
X5210D02*
X6813D01*
X9798Y6985D02*
X9950Y6934D01*
X9798Y6883D02*
X9950Y6934D01*
X5210D02*
X5362Y6883D01*
X5210Y6934D02*
X5362Y6985D01*
X4039Y12490D02*
X5170D01*
X4039Y7750D02*
X5170D01*
X4064Y10806D02*
Y12490D01*
Y7750D02*
Y9353D01*
X4013Y12338D02*
X4064Y12490D01*
X4115Y12338D01*
X4064Y7750D02*
X4115Y7902D01*
X4013D02*
X4064Y7750D01*
D32*
X6930Y6843D02*
Y6995D01*
X6854Y6919D01*
X6955D01*
X7006Y6995D02*
X7108D01*
Y6970D01*
X7006Y6868D01*
Y6843D01*
X7158D02*
Y6868D01*
X7184D01*
Y6843D01*
X7158D01*
X7362D02*
Y6995D01*
X7285Y6919D01*
X7387D01*
X7438Y6970D02*
X7463Y6995D01*
X7514D01*
X7539Y6970D01*
Y6868D01*
X7514Y6843D01*
X7463D01*
X7438Y6868D01*
Y6970D01*
X7793Y6843D02*
X7742Y6894D01*
Y6944D01*
X7793Y6995D01*
X7869Y6843D02*
Y6944D01*
X7895D01*
X7920Y6919D01*
Y6843D01*
Y6919D01*
X7946Y6944D01*
X7971Y6919D01*
Y6843D01*
X8022D02*
Y6944D01*
X8047D01*
X8073Y6919D01*
Y6843D01*
Y6919D01*
X8098Y6944D01*
X8123Y6919D01*
Y6843D01*
X8174D02*
X8225Y6894D01*
Y6944D01*
X8174Y6995D01*
X4155Y9470D02*
X4003D01*
X4079Y9394D01*
Y9495D01*
X4003Y9546D02*
Y9648D01*
X4028D01*
X4130Y9546D01*
X4155D01*
Y9698D02*
X4130D01*
Y9724D01*
X4155D01*
Y9698D01*
Y9902D02*
X4003D01*
X4079Y9825D01*
Y9927D01*
X4028Y9978D02*
X4003Y10003D01*
Y10054D01*
X4028Y10079D01*
X4130D01*
X4155Y10054D01*
Y10003D01*
X4130Y9978D01*
X4028D01*
X4155Y10333D02*
X4105Y10282D01*
X4054D01*
X4003Y10333D01*
X4155Y10409D02*
X4054D01*
Y10435D01*
X4079Y10460D01*
X4155D01*
X4079D01*
X4054Y10486D01*
X4079Y10511D01*
X4155D01*
Y10562D02*
X4054D01*
Y10587D01*
X4079Y10613D01*
X4155D01*
X4079D01*
X4054Y10638D01*
X4079Y10663D01*
X4155D01*
Y10714D02*
X4105Y10765D01*
X4054D01*
X4003Y10714D01*
D42*
X6136Y9815D02*
G03*
X6136Y9815I-12J0D01*
G01*
X8872Y12235D02*
G03*
X8872Y12235I-12J0D01*
G01*
X7975Y10268D02*
G03*
X7975Y10268I-12J0D01*
G01*
X5527Y8989D02*
G03*
X5527Y8989I-12J0D01*
G01*
X7051D02*
G03*
X7051Y8989I-12J0D01*
G01*
X7374Y12366D02*
G03*
X7374Y12366I-12J0D01*
G01*
D43*
X8217Y10101D02*
G03*
X8217Y10101I-30J0D01*
G01*
D44*
X9246Y10668D02*
Y10710D01*
Y10689D01*
X9119D01*
X9140Y10668D01*
X8992Y10702D02*
Y10617D01*
X8907Y10702D01*
X8886D01*
X8865Y10681D01*
Y10638D01*
X8886Y10617D01*
X9119Y11616D02*
Y11532D01*
X9182D01*
X9161Y11574D01*
Y11595D01*
X9182Y11616D01*
X9224D01*
X9246Y11595D01*
Y11553D01*
X9224Y11532D01*
X8865Y11616D02*
X8886Y11574D01*
X8928Y11532D01*
X8970D01*
X8992Y11553D01*
Y11595D01*
X8970Y11616D01*
X8949D01*
X8928Y11595D01*
Y11532D01*
X9449Y12598D02*
Y12556D01*
Y12577D01*
X9576D01*
X9555Y12598D01*
X9703Y12514D02*
Y12598D01*
X9787Y12514D01*
X9809D01*
X9830Y12535D01*
Y12577D01*
X9809Y12598D01*
M02*
