%FSLAX25Y25*%
%MOIN*%
G70*
G01*
G75*
G04 Layer_Physical_Order=2*
G04 Layer_Color=16711680*
%ADD10R,0.16535X0.16535*%
%ADD11O,0.07087X0.02362*%
%ADD12R,0.03937X0.04331*%
%ADD13R,0.05906X0.05118*%
%ADD14R,0.08465X0.01575*%
%ADD15R,0.08465X0.01575*%
%ADD16R,0.15748X0.39370*%
%ADD17R,0.04331X0.03937*%
%ADD18O,0.06496X0.02165*%
%ADD19O,0.02165X0.06496*%
%ADD20O,0.04921X0.01181*%
%ADD21R,0.06496X0.01181*%
%ADD22C,0.00787*%
%ADD23C,0.01890*%
%ADD24C,0.01575*%
%ADD25C,0.01969*%
%ADD26C,0.01181*%
%ADD27C,0.03937*%
%ADD28C,0.01260*%
%ADD29C,0.07874*%
%ADD30C,0.03150*%
%ADD31C,0.00630*%
%ADD32C,0.01000*%
%ADD33C,0.05315*%
%ADD34R,0.05315X0.05315*%
%ADD35R,0.05906X0.05906*%
%ADD36C,0.05906*%
%ADD37R,0.05906X0.05906*%
%ADD38C,0.15000*%
%ADD39C,0.05906*%
%ADD40C,0.03937*%
%ADD41C,0.05000*%
G36*
X323199Y416648D02*
X323199Y416648D01*
X323589Y416387D01*
X323590Y416387D01*
X323590Y416387D01*
D01*
X323590Y416387D01*
X323590Y416387D01*
X324050Y416296D01*
X329104D01*
X329535Y415734D01*
X330110Y415293D01*
X330781Y415015D01*
X331500Y414920D01*
X332219Y415015D01*
X332890Y415293D01*
X333010Y415385D01*
X333791Y414786D01*
X333515Y414119D01*
X333420Y413400D01*
X333515Y412681D01*
X333793Y412010D01*
X334234Y411435D01*
X334810Y410993D01*
X335481Y410715D01*
X336200Y410620D01*
X336919Y410715D01*
X337105Y410792D01*
X345609Y402288D01*
X344985Y401527D01*
X344743Y401688D01*
X344283Y401780D01*
X344283Y401780D01*
X337209D01*
X337132Y401965D01*
X336690Y402541D01*
X336114Y402983D01*
X335444Y403261D01*
X334724Y403355D01*
X334005Y403261D01*
X333335Y402983D01*
X332759Y402541D01*
X332317Y401965D01*
X332039Y401295D01*
X331945Y400576D01*
X332039Y399856D01*
X332317Y399186D01*
D01*
X331575Y399180D01*
X331575Y399180D01*
Y399180D01*
X330855Y399085D01*
X330185Y398807D01*
X329609Y398365D01*
X329168Y397790D01*
X328970Y397312D01*
X328004Y397504D01*
Y400500D01*
X328004Y400500D01*
X327913Y400961D01*
X327652Y401351D01*
X327652Y401351D01*
X321980Y407023D01*
Y416581D01*
X322889Y416958D01*
X323199Y416648D01*
D02*
G37*
G36*
X344114Y444183D02*
X344000Y443316D01*
X343142Y443203D01*
X342342Y442872D01*
X341655Y442345D01*
X341128Y441658D01*
X340797Y440858D01*
X340684Y440000D01*
X340797Y439142D01*
X341128Y438342D01*
X341655Y437655D01*
X341700Y437621D01*
X341764Y436639D01*
X333252Y428127D01*
X332434Y428674D01*
X332685Y429281D01*
X332780Y430000D01*
X332685Y430719D01*
X332407Y431390D01*
X331965Y431965D01*
X331390Y432407D01*
X330719Y432685D01*
X330000Y432780D01*
X329281Y432685D01*
X328610Y432407D01*
X328034Y431965D01*
X327593Y431390D01*
Y431390D01*
X326731Y431351D01*
X326341Y431612D01*
X325880Y431703D01*
X325880Y431703D01*
X323193D01*
X322816Y432613D01*
X337999Y447796D01*
X340501D01*
X344114Y444183D01*
D02*
G37*
G36*
X278752Y367262D02*
Y362909D01*
X280394D01*
Y338600D01*
X280394Y338600D01*
X280496Y338088D01*
X280517Y337985D01*
X280865Y337465D01*
X280865Y337465D01*
X280865Y337465D01*
Y337465D01*
X283184Y335146D01*
X283065Y334991D01*
X282807Y334368D01*
X282752Y333950D01*
X281820Y333634D01*
X275104Y340349D01*
Y357416D01*
X275290Y357493D01*
X275866Y357934D01*
X276307Y358510D01*
X276585Y359181D01*
X276680Y359900D01*
X276585Y360619D01*
X276307Y361290D01*
X275866Y361865D01*
X275290Y362307D01*
X275290Y363292D01*
X275802Y363504D01*
X276377Y363946D01*
X276819Y364521D01*
X277097Y365192D01*
X277191Y365911D01*
X277097Y366630D01*
X277020Y366816D01*
X277843Y367639D01*
X278752Y367262D01*
D02*
G37*
G36*
X316768Y380239D02*
X316811Y380190D01*
X316720Y379500D01*
X316815Y378781D01*
X317093Y378110D01*
X317534Y377535D01*
X318110Y377093D01*
X318781Y376815D01*
X319500Y376720D01*
X320219Y376815D01*
X320890Y377093D01*
X321465Y377535D01*
X321907Y378110D01*
X322185Y378781D01*
X322280Y379500D01*
X322209Y380038D01*
X323092Y380473D01*
X325111Y378454D01*
Y366185D01*
X325111Y366185D01*
X325202Y365724D01*
X325463Y365334D01*
X328292Y362505D01*
X328215Y362319D01*
X328120Y361600D01*
X328215Y360881D01*
X328376Y360492D01*
X327557Y359946D01*
X321204Y366299D01*
Y367299D01*
X321204Y367299D01*
X321113Y367760D01*
X320851Y368151D01*
X320851Y368151D01*
X318133Y370869D01*
X317743Y371130D01*
X317282Y371222D01*
X317282Y371222D01*
X317282Y371717D01*
X317565Y371935D01*
X318007Y372510D01*
X318285Y373181D01*
X318380Y373900D01*
X318285Y374619D01*
X318007Y375290D01*
X317565Y375866D01*
X316990Y376307D01*
X316319Y376585D01*
X315600Y376680D01*
X314881Y376585D01*
X314210Y376307D01*
X313634Y375866D01*
X313242Y375354D01*
X301838D01*
X301291Y376172D01*
X301644Y377024D01*
X301772Y378000D01*
X301644Y378976D01*
X301267Y379886D01*
X300668Y380667D01*
X300757Y380930D01*
X315100D01*
X316768Y380239D01*
D02*
G37*
G36*
X328781Y376215D02*
X329500Y376120D01*
X330219Y376215D01*
X330405Y376292D01*
X332896Y373801D01*
Y364797D01*
X332652Y364479D01*
X332077Y364095D01*
X331619Y364285D01*
X330900Y364380D01*
X330181Y364285D01*
X329995Y364208D01*
X327519Y366684D01*
Y375722D01*
X327723Y375988D01*
X328337Y376399D01*
X328781Y376215D01*
D02*
G37*
G36*
X276084Y369286D02*
X275317Y368519D01*
X275131Y368596D01*
X274412Y368691D01*
X273692Y368596D01*
X273022Y368318D01*
X272446Y367877D01*
X272005Y367301D01*
X271727Y366630D01*
X271632Y365911D01*
X271727Y365192D01*
X272005Y364521D01*
X272446Y363946D01*
X273022Y363504D01*
X273022Y362519D01*
X272510Y362307D01*
X271935Y361865D01*
X271493Y361290D01*
X271215Y360619D01*
X271120Y359900D01*
X271215Y359181D01*
X271493Y358510D01*
X271935Y357934D01*
X272510Y357493D01*
X272696Y357416D01*
Y346579D01*
X271765Y345866D01*
X271190Y346307D01*
X270519Y346585D01*
X269800Y346680D01*
X269081Y346585D01*
X268410Y346307D01*
X267834Y345866D01*
X267393Y345290D01*
X267115Y344619D01*
X267020Y343900D01*
X267115Y343181D01*
X267192Y342995D01*
X265201Y341004D01*
X253299D01*
X251561Y342742D01*
X251600Y342820D01*
X252319Y342915D01*
X252990Y343193D01*
X253566Y343635D01*
X254007Y344210D01*
X254285Y344881D01*
X254380Y345600D01*
X254285Y346319D01*
X254007Y346990D01*
X253566Y347566D01*
X252990Y348007D01*
X252804Y348084D01*
Y351701D01*
X271299Y370196D01*
X275708D01*
X276084Y369286D01*
D02*
G37*
G36*
X294856Y380047D02*
X294733Y379886D01*
X294356Y378976D01*
X294228Y378000D01*
X294356Y377024D01*
X294733Y376114D01*
X295333Y375332D01*
X296114Y374733D01*
X297024Y374356D01*
X297184Y374335D01*
X297501Y373403D01*
X296702Y372604D01*
X270800D01*
X270339Y372513D01*
X269949Y372252D01*
X250748Y353051D01*
X250546Y352749D01*
X249604Y353034D01*
Y365801D01*
X259548Y375745D01*
X287550D01*
X287550Y375745D01*
X288011Y375837D01*
X288402Y376098D01*
X293234Y380930D01*
X294421D01*
X294856Y380047D01*
D02*
G37*
G36*
X339887Y366539D02*
X340148Y366148D01*
X352639Y353658D01*
X352356Y352976D01*
X352228Y352000D01*
X352356Y351024D01*
X352733Y350114D01*
X352907Y349887D01*
X352472Y349004D01*
X350699D01*
X349361Y350342D01*
X349644Y351024D01*
X349772Y352000D01*
X349644Y352976D01*
X349267Y353886D01*
X348668Y354667D01*
X347886Y355267D01*
X346976Y355644D01*
X346000Y355772D01*
X345024Y355644D01*
X344114Y355267D01*
X343587Y354863D01*
X342704Y355298D01*
Y357800D01*
X342613Y358261D01*
X342352Y358651D01*
X338904Y362099D01*
Y366461D01*
X339884Y366558D01*
X339887Y366539D01*
D02*
G37*
G36*
X281593Y482110D02*
X282034Y481534D01*
X282290Y481338D01*
X281974Y480406D01*
X270900D01*
X270209Y480269D01*
X269623Y479877D01*
X267699Y477953D01*
X267500Y477980D01*
X266781Y477885D01*
X266327Y477697D01*
X265741Y478088D01*
X265508Y478392D01*
Y480392D01*
X267412Y482296D01*
X281516D01*
X281593Y482110D01*
D02*
G37*
G36*
X390327Y355740D02*
X390327D01*
X389740D01*
X389631Y355740D01*
X389631Y355740D01*
Y355740D01*
X382260D01*
Y354349D01*
X381313Y354161D01*
X381051Y354552D01*
X381051Y354552D01*
X373794Y361809D01*
X374000Y362227D01*
X373500Y362293D01*
Y366001D01*
X373999D01*
Y366500D01*
X377707D01*
X377644Y366976D01*
X377267Y367886D01*
X376667Y368668D01*
X375886Y369267D01*
X375150Y369572D01*
X375113Y369761D01*
X374851Y370151D01*
X374461Y370413D01*
X374000Y370504D01*
X373539Y370413D01*
X373148Y370151D01*
X372887Y369761D01*
X372850Y369572D01*
X372114Y369267D01*
X371333Y368668D01*
X370733Y367886D01*
X370356Y366976D01*
X370300Y366551D01*
X369368Y366235D01*
X358990Y376613D01*
X359425Y377496D01*
X359500Y377486D01*
Y380199D01*
Y382914D01*
X359281Y382885D01*
X358823Y382695D01*
X358248Y383079D01*
X358004Y383397D01*
Y392800D01*
X358004Y392800D01*
X357913Y393261D01*
X357651Y393652D01*
X338808Y412495D01*
X338885Y412681D01*
X338980Y413400D01*
X338885Y414119D01*
X338607Y414790D01*
X338165Y415366D01*
X337590Y415807D01*
X336919Y416085D01*
X336200Y416180D01*
X335481Y416085D01*
X334810Y415807D01*
X334690Y415715D01*
X333909Y416314D01*
X334185Y416981D01*
X334280Y417700D01*
X334185Y418419D01*
X333907Y419090D01*
X333466Y419665D01*
X332890Y420107D01*
X332219Y420385D01*
X331500Y420480D01*
X330781Y420385D01*
X330709Y420356D01*
X329857Y420848D01*
X329801Y421270D01*
X344851Y436321D01*
X344851Y436321D01*
X345113Y436711D01*
X345113Y436711D01*
D01*
D01*
D01*
D01*
X345658Y437128D01*
X345658D01*
X345658Y437128D01*
X346345Y437655D01*
X346871Y438342D01*
X347203Y439142D01*
X347285Y439764D01*
X347782Y439933D01*
X348455Y439214D01*
X348356Y438976D01*
X348228Y438000D01*
X348356Y437024D01*
X348733Y436114D01*
X349332Y435332D01*
X350114Y434733D01*
X351024Y434356D01*
X352000Y434228D01*
X352976Y434356D01*
X353886Y434733D01*
X354667Y435332D01*
X355267Y436114D01*
X355644Y437024D01*
X355772Y438000D01*
X355644Y438976D01*
X355267Y439886D01*
X354667Y440667D01*
X353886Y441267D01*
X352976Y441644D01*
X352000Y441772D01*
X351024Y441644D01*
X350342Y441361D01*
X341851Y449852D01*
X341461Y450113D01*
X341000Y450204D01*
X341000Y450204D01*
X337500D01*
X337500Y450204D01*
X337039Y450113D01*
X336649Y449852D01*
X336649Y449852D01*
X318651Y431854D01*
X318349Y431652D01*
X318088Y431262D01*
X317997Y430801D01*
Y424722D01*
X317065Y424406D01*
X316865Y424665D01*
X316290Y425107D01*
X316104Y425184D01*
Y437581D01*
X344919Y466396D01*
X353091D01*
X353168Y466210D01*
X353609Y465634D01*
X354185Y465193D01*
X354855Y464915D01*
X355575Y464820D01*
X356294Y464915D01*
X356965Y465193D01*
X357540Y465634D01*
X357982Y466210D01*
X358260Y466881D01*
X358354Y467600D01*
X358260Y468319D01*
X357982Y468990D01*
X357540Y469565D01*
X356965Y470007D01*
X356294Y470285D01*
X355575Y470380D01*
X354855Y470285D01*
X354185Y470007D01*
X353609Y469565D01*
X353168Y468990D01*
X353091Y468804D01*
X344420D01*
X343959Y468713D01*
X343803Y468608D01*
X343568Y468451D01*
X343568Y468451D01*
X338062Y462945D01*
X337153Y463322D01*
Y474759D01*
X337312Y474881D01*
X337754Y475457D01*
X338031Y476127D01*
X338126Y476846D01*
X338067Y477296D01*
X338165Y477394D01*
X363717D01*
X364110Y477093D01*
X364781Y476815D01*
X365500Y476720D01*
X366219Y476815D01*
X366890Y477093D01*
X367465Y477534D01*
X367907Y478110D01*
X368185Y478781D01*
X368280Y479500D01*
X368185Y480219D01*
X368075Y480484D01*
X368113Y480539D01*
X368204Y481000D01*
X368113Y481461D01*
X367851Y481851D01*
X367461Y482113D01*
X367000Y482204D01*
X366539Y482113D01*
X366484Y482076D01*
X366219Y482185D01*
X365500Y482280D01*
X364781Y482185D01*
X364110Y481907D01*
X363534Y481465D01*
X363093Y480890D01*
X362975Y480606D01*
X354225D01*
X353560Y481116D01*
X353354Y481424D01*
X353585Y481981D01*
X353614Y482200D01*
X348186D01*
X348215Y481981D01*
X348446Y481424D01*
X348240Y481116D01*
X347575Y480606D01*
X337500D01*
X337500Y480606D01*
X336987Y480504D01*
X336885Y480483D01*
X336365Y480135D01*
X335796Y479567D01*
X335346Y479626D01*
X334627Y479531D01*
X333957Y479254D01*
X333381Y478812D01*
X332939Y478236D01*
X332661Y477566D01*
X332567Y476846D01*
X332661Y476127D01*
X332939Y475457D01*
X333381Y474881D01*
X333540Y474759D01*
Y462795D01*
X294952Y424206D01*
X266088D01*
X265966Y424366D01*
X265390Y424807D01*
X265204Y424884D01*
Y441000D01*
X265113Y441461D01*
X264851Y441852D01*
X264851Y441852D01*
X257608Y449095D01*
X257685Y449281D01*
X257780Y450000D01*
X257685Y450719D01*
X257407Y451390D01*
X256965Y451966D01*
X256390Y452407D01*
X255719Y452685D01*
X255000Y452780D01*
X254281Y452685D01*
X253610Y452407D01*
X253034Y451966D01*
X252593Y451390D01*
X252315Y450719D01*
X252220Y450000D01*
X252315Y449281D01*
X252593Y448610D01*
X253034Y448034D01*
X253610Y447593D01*
X254281Y447315D01*
X255000Y447220D01*
X255719Y447315D01*
X255905Y447392D01*
X262796Y440501D01*
Y424884D01*
X262610Y424807D01*
X262035Y424366D01*
X261593Y423790D01*
X261315Y423119D01*
X261220Y422400D01*
X261315Y421681D01*
X261593Y421010D01*
X262035Y420435D01*
X262610Y419993D01*
X263281Y419715D01*
X264000Y419620D01*
X264719Y419715D01*
X265390Y419993D01*
X265966Y420435D01*
X266088Y420594D01*
X295700D01*
X296391Y420731D01*
X296977Y421123D01*
X306345Y430490D01*
X307227Y430055D01*
X307286Y430500D01*
X310001D01*
Y430001D01*
X310500D01*
Y427286D01*
X310719Y427315D01*
X311390Y427593D01*
X311965Y428034D01*
X312407Y428610D01*
X312685Y429281D01*
X312714Y429498D01*
X313696Y429434D01*
Y425184D01*
X313510Y425107D01*
X312934Y424665D01*
X312493Y424090D01*
X312215Y423419D01*
X312120Y422700D01*
X312215Y421981D01*
X312493Y421310D01*
X312934Y420735D01*
X313510Y420293D01*
X314181Y420015D01*
X314900Y419920D01*
X315619Y420015D01*
X316290Y420293D01*
X316865Y420735D01*
X317065Y420994D01*
X317997Y420678D01*
Y386067D01*
X317997Y386067D01*
X318088Y385606D01*
X318349Y385216D01*
X320473Y383092D01*
X320038Y382209D01*
X319500Y382280D01*
X318781Y382185D01*
X318595Y382108D01*
X317718Y382985D01*
X317327Y383247D01*
X316866Y383338D01*
X316866Y383338D01*
X299327D01*
X298951Y384248D01*
X303815Y389112D01*
X304747Y388796D01*
X304720Y389000D01*
X304786Y389500D01*
X307000D01*
Y391714D01*
X307500Y391780D01*
X307382Y392679D01*
X314452Y399748D01*
X314452Y399748D01*
X314608Y399983D01*
X314713Y400139D01*
X314804Y400600D01*
X314804Y400600D01*
X314804Y400600D01*
Y400600D01*
Y409516D01*
X314990Y409593D01*
X315565Y410035D01*
X316007Y410610D01*
X316285Y411281D01*
X316380Y412000D01*
X316285Y412719D01*
X316007Y413390D01*
X315565Y413966D01*
X314990Y414407D01*
X314319Y414685D01*
X313600Y414780D01*
X312881Y414685D01*
X312210Y414407D01*
X311634Y413966D01*
X311193Y413390D01*
X310915Y412719D01*
X310820Y412000D01*
X310915Y411281D01*
X311193Y410610D01*
X311634Y410035D01*
X312210Y409593D01*
X312396Y409516D01*
Y401099D01*
X310127Y398830D01*
X309195Y399146D01*
X309185Y399219D01*
X308907Y399890D01*
X308466Y400465D01*
X307890Y400907D01*
X307219Y401185D01*
X306500Y401280D01*
X305781Y401185D01*
X305110Y400907D01*
X304535Y400465D01*
X304093Y399890D01*
X303944Y399532D01*
X303675Y399352D01*
X303674Y399352D01*
X303075Y398751D01*
X302813Y398361D01*
X302722Y397900D01*
Y397900D01*
Y397514D01*
X301740Y397449D01*
X301644Y398176D01*
X301267Y399086D01*
X300668Y399868D01*
X299886Y400467D01*
X298976Y400844D01*
X298000Y400972D01*
X297024Y400844D01*
X296114Y400467D01*
X295333Y399868D01*
X294733Y399086D01*
X294356Y398176D01*
X294228Y397200D01*
X294356Y396224D01*
X294733Y395314D01*
X295333Y394532D01*
X296114Y393933D01*
X297024Y393556D01*
X298000Y393428D01*
X298976Y393556D01*
X299886Y393933D01*
X300668Y394532D01*
X301267Y395314D01*
X301644Y396224D01*
X301740Y396951D01*
X302722Y396886D01*
Y394125D01*
X300801Y392204D01*
X252400D01*
X252400Y392204D01*
X251939Y392113D01*
X251549Y391851D01*
X251549Y391851D01*
X248505Y388808D01*
X248319Y388885D01*
X247600Y388980D01*
X246881Y388885D01*
X246210Y388607D01*
X245635Y388165D01*
X245193Y387590D01*
X244915Y386919D01*
X244820Y386200D01*
X244915Y385481D01*
X245193Y384810D01*
X245635Y384234D01*
X246210Y383793D01*
X246881Y383515D01*
X247600Y383420D01*
X248319Y383515D01*
X248990Y383793D01*
X249566Y384234D01*
X250007Y384810D01*
X250285Y385481D01*
X250380Y386200D01*
X250285Y386919D01*
X250208Y387105D01*
X252899Y389796D01*
X279872D01*
X280263Y388852D01*
X279543Y388299D01*
X278991Y387580D01*
X278644Y386742D01*
X278591Y386343D01*
X285409D01*
X285356Y386742D01*
X285009Y387580D01*
X284457Y388299D01*
X283737Y388852D01*
X284128Y389796D01*
X299807D01*
X300183Y388886D01*
X296210Y384913D01*
X291924D01*
X291463Y384821D01*
X291307Y384717D01*
X291073Y384560D01*
X291073Y384560D01*
X286641Y380129D01*
X251824D01*
X251824Y380129D01*
X251824Y380129D01*
X244421D01*
X238955Y385595D01*
X239032Y385781D01*
X239127Y386500D01*
X239032Y387219D01*
X238754Y387890D01*
X238313Y388465D01*
X237737Y388907D01*
X237066Y389185D01*
X236347Y389280D01*
Y389400D01*
X237043Y390096D01*
X242400D01*
X242400Y390096D01*
X242861Y390187D01*
X243251Y390448D01*
X263199Y410396D01*
X287216D01*
X287293Y410210D01*
X287735Y409634D01*
X288310Y409193D01*
X288981Y408915D01*
X289700Y408820D01*
X290419Y408915D01*
X291090Y409193D01*
X291666Y409634D01*
X292107Y410210D01*
X292385Y410881D01*
X292480Y411600D01*
X292385Y412319D01*
X292107Y412990D01*
X291666Y413565D01*
X291090Y414007D01*
X290419Y414285D01*
X289700Y414380D01*
X288981Y414285D01*
X288310Y414007D01*
X287735Y413565D01*
X287293Y412990D01*
X287216Y412804D01*
X262700D01*
X262700Y412804D01*
X262239Y412713D01*
X261848Y412452D01*
X261848Y412452D01*
X241901Y392504D01*
X218584D01*
X218507Y392690D01*
X218066Y393266D01*
X217490Y393707D01*
X216819Y393985D01*
X216100Y394080D01*
X215381Y393985D01*
X214710Y393707D01*
X214135Y393266D01*
X213693Y392690D01*
X213415Y392019D01*
X213320Y391300D01*
X213415Y390581D01*
X213693Y389910D01*
X214135Y389335D01*
X214710Y388893D01*
X215381Y388615D01*
X216100Y388520D01*
X216619Y388589D01*
X217111Y387736D01*
X216991Y387580D01*
X216644Y386742D01*
X216591Y386343D01*
X223409D01*
X223356Y386742D01*
X223009Y387580D01*
X222457Y388299D01*
X221737Y388852D01*
X221064Y389130D01*
X221256Y390096D01*
X235304D01*
X235367Y389776D01*
X235367D01*
X235496Y389130D01*
X234957Y388907D01*
X234382Y388465D01*
X233940Y387890D01*
X233662Y387219D01*
X233567Y386500D01*
X233662Y385781D01*
X233940Y385110D01*
X234382Y384535D01*
X234957Y384093D01*
X235628Y383815D01*
X236347Y383720D01*
X237066Y383815D01*
X237252Y383892D01*
X243071Y378073D01*
X243071Y378073D01*
X243462Y377812D01*
X243462Y377812D01*
X243462Y377812D01*
D01*
X243462Y377812D01*
X243462Y377812D01*
X243923Y377720D01*
X243923Y377720D01*
X247631D01*
X248008Y376811D01*
X231401Y360204D01*
X217984D01*
X217907Y360390D01*
X217465Y360965D01*
X216890Y361407D01*
X216219Y361685D01*
X215500Y361780D01*
X214781Y361685D01*
X214110Y361407D01*
X213534Y360965D01*
X213093Y360390D01*
X212815Y359719D01*
X212720Y359000D01*
X212815Y358281D01*
X213093Y357610D01*
X213534Y357034D01*
X214110Y356593D01*
X214781Y356315D01*
X215500Y356220D01*
X216219Y356315D01*
X216890Y356593D01*
X217465Y357034D01*
X217907Y357610D01*
X217984Y357796D01*
X231900D01*
X231900Y357796D01*
X232361Y357887D01*
X232751Y358149D01*
X252323Y377720D01*
X256831D01*
X257208Y376811D01*
X247549Y367151D01*
X247287Y366761D01*
X247196Y366300D01*
X247196Y366300D01*
Y344200D01*
X247196Y344200D01*
X247287Y343739D01*
X247549Y343349D01*
X251948Y338948D01*
X252339Y338687D01*
X252800Y338596D01*
X252800Y338596D01*
X265700D01*
X265700Y338596D01*
X266161Y338687D01*
X266551Y338948D01*
X268895Y341292D01*
X269081Y341215D01*
X269800Y341120D01*
X270519Y341215D01*
X271190Y341493D01*
X271765Y341934D01*
X272696Y341221D01*
Y339850D01*
X272696Y339850D01*
X272787Y339390D01*
X273048Y338999D01*
X282348Y329699D01*
X282348Y329699D01*
X282739Y329438D01*
X282739Y329438D01*
X282739Y329438D01*
D01*
X282739Y329438D01*
X282739Y329438D01*
X283200Y329346D01*
X283200Y329346D01*
X286400D01*
X286400Y329346D01*
X286861Y329438D01*
X287251Y329699D01*
X290452Y332899D01*
X290452Y332899D01*
X290608Y333133D01*
X290713Y333290D01*
X290804Y333750D01*
X290804Y333750D01*
X290804Y333750D01*
Y333750D01*
Y338416D01*
X290990Y338493D01*
X291565Y338934D01*
X292007Y339510D01*
X292285Y340181D01*
X292380Y340900D01*
X292285Y341619D01*
X292007Y342290D01*
X291565Y342865D01*
X290990Y343307D01*
X290319Y343585D01*
X289600Y343680D01*
X288881Y343585D01*
X288447Y343405D01*
X287847Y344186D01*
X288049Y344449D01*
X288327Y345119D01*
X288422Y345839D01*
X288327Y346558D01*
X288049Y347228D01*
X287607Y347804D01*
X287032Y348246D01*
X286846Y348323D01*
Y357430D01*
X287201Y357702D01*
X287729Y357962D01*
X288210Y357593D01*
X288881Y357315D01*
X289100Y357286D01*
Y359999D01*
Y362714D01*
X288881Y362685D01*
X288210Y362407D01*
X287729Y362038D01*
X287201Y362298D01*
X286846Y362571D01*
Y369799D01*
X287172Y370196D01*
X297201D01*
X297201Y370196D01*
X297662Y370287D01*
X298052Y370549D01*
X299223Y371719D01*
X300106Y371284D01*
X300068Y371000D01*
X300163Y370281D01*
X300353Y369823D01*
X299969Y369248D01*
X299651Y369004D01*
X295318D01*
X294857Y368913D01*
X294467Y368652D01*
X294467Y368652D01*
X293705Y367890D01*
X293519Y367967D01*
X292800Y368061D01*
X292081Y367967D01*
X291410Y367689D01*
X290834Y367247D01*
X290393Y366672D01*
X290115Y366001D01*
X290020Y365282D01*
X290115Y364562D01*
X290393Y363892D01*
X290648Y363559D01*
X290156Y362706D01*
X290100Y362714D01*
Y359999D01*
Y357286D01*
X290319Y357315D01*
X290777Y357505D01*
X291352Y357121D01*
X291596Y356803D01*
Y351300D01*
X291596Y351300D01*
X291687Y350839D01*
X291949Y350448D01*
X292492Y349905D01*
X292415Y349719D01*
X292320Y349000D01*
X292415Y348281D01*
X292693Y347610D01*
X293134Y347035D01*
X293710Y346593D01*
X294381Y346315D01*
X295100Y346220D01*
X295819Y346315D01*
X296490Y346593D01*
X297065Y347035D01*
X297507Y347610D01*
X297785Y348281D01*
X297880Y349000D01*
X297785Y349719D01*
X297507Y350390D01*
X297065Y350965D01*
X296490Y351407D01*
X295819Y351685D01*
X295100Y351780D01*
X294744Y351733D01*
X294142Y352261D01*
X294004Y352593D01*
Y362798D01*
X294190Y362875D01*
X294765Y363316D01*
X295207Y363892D01*
X295485Y364562D01*
X295580Y365282D01*
X295485Y366001D01*
X295408Y366187D01*
X295817Y366596D01*
X312299D01*
X312477Y366522D01*
X313061Y365856D01*
X313019Y365539D01*
X313114Y364819D01*
X313392Y364149D01*
X313834Y363573D01*
X314409Y363131D01*
X315080Y362854D01*
X315799Y362759D01*
X316519Y362854D01*
X317189Y363131D01*
X317765Y363573D01*
X317864Y363702D01*
X318796Y363386D01*
Y361899D01*
X312105Y355208D01*
X311919Y355285D01*
X311200Y355380D01*
X310481Y355285D01*
X310023Y355095D01*
X309448Y355479D01*
X309204Y355797D01*
Y358434D01*
X309819Y358515D01*
X310490Y358793D01*
X311066Y359234D01*
X311507Y359810D01*
X311785Y360481D01*
X311880Y361200D01*
X311785Y361919D01*
X311507Y362590D01*
X311066Y363165D01*
X310490Y363607D01*
X309819Y363885D01*
X309100Y363980D01*
X308381Y363885D01*
X307710Y363607D01*
X307135Y363165D01*
X306693Y362590D01*
X306415Y361919D01*
X306320Y361200D01*
X306415Y360481D01*
X306693Y359810D01*
X306796Y359676D01*
Y345800D01*
X306796Y345800D01*
X306887Y345339D01*
X307149Y344949D01*
X308992Y343105D01*
X308915Y342919D01*
X308820Y342200D01*
X308915Y341481D01*
X309193Y340810D01*
X309634Y340234D01*
X310210Y339793D01*
X310881Y339515D01*
X311600Y339420D01*
X312319Y339515D01*
X312990Y339793D01*
X313565Y340234D01*
X314007Y340810D01*
X314285Y341481D01*
X314380Y342200D01*
X314285Y342919D01*
X314007Y343590D01*
X313565Y344165D01*
X312990Y344607D01*
X312319Y344885D01*
X311600Y344980D01*
X310881Y344885D01*
X310695Y344808D01*
X309204Y346299D01*
Y349403D01*
X309448Y349721D01*
X310023Y350105D01*
X310481Y349915D01*
X311200Y349820D01*
X311919Y349915D01*
X312590Y350193D01*
X313165Y350635D01*
X313607Y351210D01*
X313885Y351881D01*
X313980Y352600D01*
X313885Y353319D01*
X313808Y353505D01*
X320851Y360548D01*
X321113Y360939D01*
X321204Y361400D01*
X321204Y361400D01*
Y361607D01*
X322114Y361983D01*
X326549Y357548D01*
X326939Y357287D01*
X327400Y357196D01*
X327400Y357196D01*
X332500D01*
X332500Y357196D01*
X332961Y357287D01*
X333351Y357548D01*
X334951Y359149D01*
X335213Y359539D01*
X335304Y360000D01*
Y374300D01*
X335213Y374761D01*
X334951Y375151D01*
X334951Y375151D01*
X332108Y377995D01*
X332185Y378181D01*
X332280Y378900D01*
X332185Y379619D01*
X331907Y380290D01*
X331466Y380866D01*
X331476Y380896D01*
X332701D01*
X336496Y377101D01*
Y361600D01*
X336496Y361600D01*
X336587Y361139D01*
X336848Y360749D01*
X340296Y357301D01*
Y353925D01*
X339330Y353733D01*
X339267Y353886D01*
X338667Y354667D01*
X337886Y355267D01*
X336976Y355644D01*
X336500Y355707D01*
Y351999D01*
Y348293D01*
X336976Y348356D01*
X337886Y348733D01*
X338667Y349332D01*
X339267Y350114D01*
X339330Y350267D01*
X340296Y350075D01*
Y348800D01*
X340296Y348800D01*
X340387Y348339D01*
X340649Y347949D01*
X343949Y344649D01*
X343949Y344649D01*
X344183Y344492D01*
X344339Y344387D01*
X344800Y344296D01*
X374516D01*
X374593Y344110D01*
X375034Y343534D01*
X375610Y343093D01*
X376281Y342815D01*
X377000Y342720D01*
X377719Y342815D01*
X377766Y342834D01*
X378313Y342016D01*
X370037Y333740D01*
X364260D01*
Y326260D01*
X371740D01*
Y332037D01*
X381051Y341349D01*
X381051Y341349D01*
X381313Y341739D01*
X381404Y342200D01*
X381404Y342200D01*
Y348260D01*
X382260D01*
Y348260D01*
X389631D01*
X390327Y347564D01*
Y333740D01*
X384260D01*
Y326260D01*
X390327D01*
Y323970D01*
X389509Y323423D01*
X388976Y323644D01*
X388000Y323772D01*
X387024Y323644D01*
X386114Y323267D01*
X385332Y322668D01*
X384733Y321886D01*
X384356Y320976D01*
X384228Y320000D01*
X384356Y319024D01*
X384733Y318114D01*
X385332Y317333D01*
X386114Y316733D01*
X387024Y316356D01*
X388000Y316228D01*
X388976Y316356D01*
X389509Y316577D01*
X390327Y316030D01*
Y313970D01*
X389509Y313423D01*
X388976Y313644D01*
X388500Y313707D01*
Y309999D01*
X388001D01*
Y309500D01*
X384293D01*
X384356Y309024D01*
X384733Y308114D01*
X385276Y307406D01*
X385074Y306995D01*
X384712Y306523D01*
X371288D01*
X370926Y306995D01*
X370724Y307406D01*
X371267Y308114D01*
X371644Y309024D01*
X371707Y309500D01*
X364293D01*
X364356Y309024D01*
X364733Y308114D01*
X365276Y307406D01*
X365074Y306995D01*
X364711Y306523D01*
X351289D01*
X350926Y306995D01*
X350724Y307406D01*
X351267Y308114D01*
X351644Y309024D01*
X351707Y309500D01*
X344293D01*
X344356Y309024D01*
X344733Y308114D01*
X345276Y307406D01*
X345074Y306995D01*
X344711Y306523D01*
X333289D01*
X332926Y306995D01*
X332724Y307406D01*
X333267Y308114D01*
X333644Y309024D01*
X333707Y309500D01*
X326293D01*
X326356Y309024D01*
X326733Y308114D01*
X327276Y307406D01*
X327074Y306995D01*
X326712Y306523D01*
X206523D01*
Y397897D01*
X207450Y398228D01*
X208251Y397251D01*
X209483Y396240D01*
X210889Y395489D01*
X212414Y395026D01*
X214000Y394870D01*
X215586Y395026D01*
X217111Y395489D01*
X218517Y396240D01*
X219749Y397251D01*
X220760Y398483D01*
X221511Y399889D01*
X221973Y401414D01*
X222130Y403000D01*
X221973Y404586D01*
X221511Y406111D01*
X220760Y407517D01*
X219749Y408749D01*
X218517Y409760D01*
X217111Y410511D01*
X215586Y410974D01*
X214000Y411130D01*
X212414Y410974D01*
X210889Y410511D01*
X209483Y409760D01*
X208251Y408749D01*
X207450Y407772D01*
X206523Y408103D01*
Y417897D01*
X207450Y418228D01*
X208251Y417251D01*
X209483Y416240D01*
X210889Y415489D01*
X212414Y415027D01*
X214000Y414870D01*
X215586Y415027D01*
X217111Y415489D01*
X218517Y416240D01*
X219749Y417251D01*
X220760Y418483D01*
X221511Y419889D01*
X221973Y421414D01*
X222130Y423000D01*
X221973Y424586D01*
X221511Y426111D01*
X220760Y427517D01*
X219749Y428749D01*
X218517Y429760D01*
X217111Y430511D01*
X215586Y430973D01*
X214000Y431130D01*
X212414Y430973D01*
X210889Y430511D01*
X209483Y429760D01*
X208251Y428749D01*
X207450Y427772D01*
X206523Y428103D01*
Y456897D01*
X207450Y457228D01*
X208251Y456251D01*
X209483Y455240D01*
X210889Y454489D01*
X212414Y454027D01*
X214000Y453870D01*
X215586Y454027D01*
X217111Y454489D01*
X218517Y455240D01*
X219749Y456251D01*
X220760Y457483D01*
X221511Y458889D01*
X221973Y460414D01*
X222130Y462000D01*
X221973Y463586D01*
X221511Y465111D01*
X220760Y466517D01*
X219749Y467749D01*
X218517Y468760D01*
X217111Y469511D01*
X215586Y469974D01*
X214000Y470130D01*
X212414Y469974D01*
X210889Y469511D01*
X209483Y468760D01*
X208251Y467749D01*
X207450Y466772D01*
X206523Y467103D01*
Y476897D01*
X207450Y477228D01*
X208251Y476251D01*
X209483Y475240D01*
X210889Y474489D01*
X212414Y474026D01*
X214000Y473870D01*
X215586Y474026D01*
X217111Y474489D01*
X218517Y475240D01*
X219749Y476251D01*
X220760Y477483D01*
X221511Y478889D01*
X221973Y480414D01*
X222130Y482000D01*
X221973Y483586D01*
X221511Y485111D01*
X220760Y486517D01*
X219749Y487749D01*
X218517Y488760D01*
X217111Y489511D01*
X215586Y489973D01*
X214000Y490130D01*
X214198Y490327D01*
X321850D01*
X322042Y489362D01*
X321910Y489307D01*
X321335Y488866D01*
X320893Y488290D01*
X320816Y488104D01*
X260700D01*
X260700Y488104D01*
X260239Y488013D01*
X259848Y487751D01*
X253605Y481508D01*
X253419Y481585D01*
X252700Y481680D01*
X251981Y481585D01*
X251310Y481307D01*
X250734Y480865D01*
X250293Y480290D01*
X250015Y479619D01*
X249920Y478900D01*
X250015Y478181D01*
X250293Y477510D01*
X250734Y476934D01*
X251310Y476493D01*
X251981Y476215D01*
X252700Y476120D01*
X253419Y476215D01*
X254090Y476493D01*
X254665Y476934D01*
X255107Y477510D01*
X255385Y478181D01*
X255480Y478900D01*
X255385Y479619D01*
X255308Y479805D01*
X261199Y485696D01*
X280542D01*
X280620Y485636D01*
X280304Y484704D01*
X266913D01*
X266913Y484704D01*
X266452Y484613D01*
X266062Y484351D01*
X266062Y484351D01*
X263453Y481742D01*
X263191Y481352D01*
X263100Y480891D01*
X263100Y480891D01*
Y473096D01*
X263100Y473096D01*
X263191Y472635D01*
X263453Y472245D01*
X282792Y452905D01*
X282715Y452719D01*
X282620Y452000D01*
X282715Y451281D01*
X282993Y450610D01*
X283435Y450035D01*
X283562Y449936D01*
X283246Y449004D01*
X273399D01*
X251908Y470495D01*
X251985Y470681D01*
X252080Y471400D01*
X251985Y472119D01*
X251707Y472790D01*
X251266Y473365D01*
X250690Y473807D01*
X250019Y474085D01*
X249300Y474180D01*
X248581Y474085D01*
X247910Y473807D01*
X247335Y473365D01*
X246893Y472790D01*
X246615Y472119D01*
X246520Y471400D01*
X246615Y470681D01*
X246893Y470010D01*
X247335Y469434D01*
X247910Y468993D01*
X248581Y468715D01*
X249300Y468620D01*
X250019Y468715D01*
X250205Y468792D01*
X272048Y446948D01*
X272439Y446687D01*
X272900Y446596D01*
X272900Y446596D01*
X303816D01*
X303893Y446410D01*
X304334Y445834D01*
X304910Y445393D01*
X305581Y445115D01*
X306300Y445020D01*
X307019Y445115D01*
X307690Y445393D01*
X308265Y445834D01*
X308707Y446410D01*
X308985Y447081D01*
X309080Y447800D01*
X308985Y448519D01*
X308707Y449190D01*
X308265Y449765D01*
X307690Y450207D01*
X307019Y450485D01*
X306300Y450580D01*
X305581Y450485D01*
X304910Y450207D01*
X304334Y449765D01*
X303893Y449190D01*
X303816Y449004D01*
X287554D01*
X287238Y449936D01*
X287366Y450035D01*
X287807Y450610D01*
X288085Y451281D01*
X288180Y452000D01*
X288085Y452719D01*
X287807Y453390D01*
X287414Y453902D01*
X287419Y453915D01*
X288090Y454193D01*
X288666Y454635D01*
X289107Y455210D01*
X289385Y455881D01*
X289414Y456100D01*
X283986D01*
X283935Y456486D01*
X283053Y456050D01*
X267405Y471698D01*
X267500Y472420D01*
X268219Y472515D01*
X268890Y472793D01*
X269465Y473235D01*
X269907Y473810D01*
X270185Y474481D01*
X270280Y475200D01*
X270253Y475399D01*
X271648Y476794D01*
X323836D01*
X324035Y476535D01*
X324610Y476093D01*
X325281Y475815D01*
X326000Y475720D01*
X326719Y475815D01*
X327390Y476093D01*
X327965Y476535D01*
X328407Y477110D01*
X328685Y477781D01*
X328780Y478500D01*
X328685Y479219D01*
X328407Y479890D01*
X327965Y480466D01*
X327390Y480907D01*
X326719Y481185D01*
X326000Y481280D01*
X325281Y481185D01*
X324610Y480907D01*
X324035Y480466D01*
X323989Y480406D01*
X286026D01*
X285710Y481338D01*
X285965Y481534D01*
X286407Y482110D01*
X286685Y482781D01*
X286780Y483500D01*
X286685Y484219D01*
X286407Y484890D01*
X285965Y485465D01*
X286044Y485696D01*
X320816D01*
X320893Y485510D01*
X321335Y484935D01*
X321910Y484493D01*
X322581Y484215D01*
X323300Y484120D01*
X324019Y484215D01*
X324690Y484493D01*
X325266Y484935D01*
X325707Y485510D01*
X325985Y486181D01*
X326080Y486900D01*
X325985Y487619D01*
X325707Y488290D01*
X325266Y488866D01*
X324690Y489307D01*
X324558Y489362D01*
X324750Y490327D01*
X369564D01*
X370260Y489631D01*
Y482260D01*
X377740D01*
Y489631D01*
X377740Y489631D01*
D01*
X377740Y489740D01*
D01*
X378327Y490327D01*
X382151D01*
X382343Y489362D01*
X382114Y489267D01*
X381332Y488667D01*
X380733Y487886D01*
X380356Y486976D01*
X380228Y486000D01*
X380356Y485024D01*
X380733Y484114D01*
X381332Y483332D01*
X382114Y482733D01*
X383024Y482356D01*
X384000Y482228D01*
X384976Y482356D01*
X385886Y482733D01*
X386667Y483332D01*
X387267Y484114D01*
X387644Y485024D01*
X387772Y486000D01*
X387644Y486976D01*
X387267Y487886D01*
X386667Y488667D01*
X385886Y489267D01*
X385657Y489362D01*
X385849Y490327D01*
X390327D01*
Y355740D01*
D02*
G37*
G36*
X355596Y392301D02*
Y377100D01*
X355596Y377100D01*
X355687Y376639D01*
X355948Y376249D01*
X375588Y356609D01*
X375272Y355677D01*
X375024Y355644D01*
X374342Y355361D01*
X348503Y381200D01*
Y397559D01*
X348503Y397559D01*
X348412Y398020D01*
X348251Y398261D01*
X349011Y398886D01*
X355596Y392301D01*
D02*
G37*
G36*
X372639Y353658D02*
X372356Y352976D01*
X372228Y352000D01*
X372356Y351024D01*
X372733Y350114D01*
X373333Y349332D01*
X374114Y348733D01*
X375024Y348356D01*
X375024Y348356D01*
X375024D01*
X375034Y347465D01*
X374593Y346890D01*
X374516Y346704D01*
X360293D01*
X359917Y347614D01*
X361052Y348748D01*
X361052Y348748D01*
X361208Y348983D01*
X361313Y349139D01*
X361404Y349600D01*
Y350799D01*
X362370Y350991D01*
X362733Y350114D01*
X363333Y349332D01*
X364114Y348733D01*
X365024Y348356D01*
X366000Y348228D01*
X366976Y348356D01*
X367886Y348733D01*
X368668Y349332D01*
X369267Y350114D01*
X369644Y351024D01*
X369772Y352000D01*
X369644Y352976D01*
X369267Y353886D01*
X368668Y354667D01*
X367886Y355267D01*
X366976Y355644D01*
X366000Y355772D01*
X365024Y355644D01*
X364342Y355361D01*
X346929Y372774D01*
Y378082D01*
X347838Y378459D01*
X372639Y353658D01*
D02*
G37*
G36*
X338066Y395567D02*
X338015Y395444D01*
X337920Y394724D01*
X338015Y394005D01*
X338293Y393335D01*
X338735Y392759D01*
X339310Y392317D01*
X339981Y392039D01*
X340700Y391945D01*
X341419Y392039D01*
X341605Y392116D01*
X342945Y390776D01*
Y388463D01*
X342127Y387916D01*
X341719Y388085D01*
X341000Y388180D01*
X340281Y388085D01*
X339610Y387807D01*
X339035Y387366D01*
X338593Y386790D01*
X338315Y386119D01*
X338220Y385400D01*
X338315Y384681D01*
X338593Y384010D01*
X339035Y383435D01*
X339610Y382993D01*
X339796Y382916D01*
Y378139D01*
X338816Y378042D01*
X338813Y378061D01*
X338551Y378451D01*
X334261Y382742D01*
X334300Y382820D01*
X335019Y382915D01*
X335690Y383193D01*
X336265Y383634D01*
X336707Y384210D01*
X336985Y384881D01*
X337080Y385600D01*
X336985Y386319D01*
X336707Y386990D01*
X336265Y387565D01*
X335690Y388007D01*
X335019Y388285D01*
X334300Y388380D01*
X333581Y388285D01*
X332910Y388007D01*
X332334Y387565D01*
X331965Y387084D01*
X331706Y387067D01*
X330391Y387612D01*
X328004Y389999D01*
Y395296D01*
X328970Y395488D01*
X329168Y395010D01*
X329609Y394434D01*
X330185Y393993D01*
X330855Y393715D01*
X331575Y393620D01*
X332294Y393715D01*
X332965Y393993D01*
X333540Y394434D01*
X333982Y395010D01*
X334059Y395196D01*
X335831D01*
X335831Y395196D01*
X336292Y395287D01*
X336683Y395549D01*
X337248Y396113D01*
X338066Y395567D01*
D02*
G37*
G36*
X343298Y369599D02*
X356131Y356766D01*
X356066Y356276D01*
X355890Y355758D01*
X355024Y355644D01*
X354342Y355361D01*
X342204Y367499D01*
Y369541D01*
X343146Y369826D01*
X343298Y369599D01*
D02*
G37*
%LPC*%
G36*
X377707Y365500D02*
X374500D01*
Y362293D01*
X374976Y362356D01*
X375886Y362733D01*
X376667Y363333D01*
X377267Y364114D01*
X377644Y365024D01*
X377707Y365500D01*
D02*
G37*
G36*
X223248Y369405D02*
X216752D01*
Y362909D01*
X223248D01*
Y369405D01*
D02*
G37*
G36*
X244614Y361100D02*
X242400D01*
Y358886D01*
X242619Y358915D01*
X243290Y359193D01*
X243865Y359634D01*
X244307Y360210D01*
X244585Y360881D01*
X244614Y361100D01*
D02*
G37*
G36*
X241400D02*
X239186D01*
X239215Y360881D01*
X239493Y360210D01*
X239934Y359634D01*
X240510Y359193D01*
X241181Y358915D01*
X241400Y358886D01*
Y361100D01*
D02*
G37*
G36*
Y364314D02*
X241181Y364285D01*
X240510Y364007D01*
X239934Y363565D01*
X239493Y362990D01*
X239215Y362319D01*
X239186Y362100D01*
X241400D01*
Y364314D01*
D02*
G37*
G36*
X384000Y369772D02*
X383024Y369644D01*
X382114Y369267D01*
X381332Y368668D01*
X380733Y367886D01*
X380356Y366976D01*
X380228Y366000D01*
X380356Y365024D01*
X380733Y364114D01*
X381332Y363333D01*
X382114Y362733D01*
X383024Y362356D01*
X384000Y362228D01*
X384976Y362356D01*
X385886Y362733D01*
X386667Y363333D01*
X387267Y364114D01*
X387644Y365024D01*
X387772Y366000D01*
X387644Y366976D01*
X387267Y367886D01*
X386667Y368668D01*
X385886Y369267D01*
X384976Y369644D01*
X384000Y369772D01*
D02*
G37*
G36*
X242400Y364314D02*
Y362100D01*
X244614D01*
X244585Y362319D01*
X244307Y362990D01*
X243865Y363565D01*
X243290Y364007D01*
X242619Y364285D01*
X242400Y364314D01*
D02*
G37*
G36*
X281500Y385343D02*
X278591D01*
X278644Y384943D01*
X278991Y384105D01*
X279543Y383386D01*
X280263Y382834D01*
X281101Y382486D01*
X281500Y382434D01*
Y385343D01*
D02*
G37*
G36*
X223409D02*
X220500D01*
Y382434D01*
X220899Y382486D01*
X221737Y382834D01*
X222457Y383386D01*
X223009Y384105D01*
X223356Y384943D01*
X223409Y385343D01*
D02*
G37*
G36*
X219500D02*
X216591D01*
X216644Y384943D01*
X216991Y384105D01*
X217543Y383386D01*
X218263Y382834D01*
X219101Y382486D01*
X219500Y382434D01*
Y385343D01*
D02*
G37*
G36*
X285409D02*
X282500D01*
Y382434D01*
X282899Y382486D01*
X283737Y382834D01*
X284457Y383386D01*
X285009Y384105D01*
X285356Y384943D01*
X285409Y385343D01*
D02*
G37*
G36*
X308000Y391714D02*
Y389500D01*
X310214D01*
X310185Y389719D01*
X309907Y390390D01*
X309466Y390966D01*
X308890Y391407D01*
X308219Y391685D01*
X308000Y391714D01*
D02*
G37*
G36*
X310214Y388500D02*
X308000D01*
Y386286D01*
X308219Y386315D01*
X308890Y386593D01*
X309466Y387035D01*
X309907Y387610D01*
X310185Y388281D01*
X310214Y388500D01*
D02*
G37*
G36*
X307000D02*
X304786D01*
X304815Y388281D01*
X305093Y387610D01*
X305535Y387035D01*
X306110Y386593D01*
X306781Y386315D01*
X307000Y386286D01*
Y388500D01*
D02*
G37*
G36*
X234159Y381339D02*
X233440Y381244D01*
X232769Y380966D01*
X232193Y380524D01*
X231752Y379949D01*
X231474Y379278D01*
X231379Y378559D01*
X231474Y377840D01*
X231551Y377654D01*
X229305Y375408D01*
X229119Y375485D01*
X228400Y375580D01*
X227681Y375485D01*
X227010Y375207D01*
X226434Y374765D01*
X225993Y374190D01*
X225715Y373519D01*
X225620Y372800D01*
X225715Y372081D01*
X225993Y371410D01*
X226434Y370834D01*
X227010Y370393D01*
X227681Y370115D01*
X228400Y370020D01*
X229119Y370115D01*
X229790Y370393D01*
X230365Y370834D01*
X230807Y371410D01*
X231085Y372081D01*
X231180Y372800D01*
X231085Y373519D01*
X231008Y373705D01*
X233254Y375951D01*
X233440Y375874D01*
X234159Y375779D01*
X234878Y375874D01*
X235549Y376152D01*
X236124Y376593D01*
X236566Y377169D01*
X236844Y377840D01*
X236939Y378559D01*
X236844Y379278D01*
X236566Y379949D01*
X236124Y380524D01*
X235549Y380966D01*
X234878Y381244D01*
X234159Y381339D01*
D02*
G37*
G36*
X384000Y379772D02*
X383024Y379644D01*
X382114Y379267D01*
X381332Y378667D01*
X380733Y377886D01*
X380356Y376976D01*
X380228Y376000D01*
X380356Y375024D01*
X380733Y374114D01*
X381332Y373333D01*
X382114Y372733D01*
X383024Y372356D01*
X384000Y372228D01*
X384976Y372356D01*
X385886Y372733D01*
X386667Y373333D01*
X387267Y374114D01*
X387644Y375024D01*
X387772Y376000D01*
X387644Y376976D01*
X387267Y377886D01*
X386667Y378667D01*
X385886Y379267D01*
X384976Y379644D01*
X384000Y379772D01*
D02*
G37*
G36*
X374000D02*
X373024Y379644D01*
X372114Y379267D01*
X371333Y378667D01*
X370733Y377886D01*
X370356Y376976D01*
X370228Y376000D01*
X370356Y375024D01*
X370733Y374114D01*
X371333Y373333D01*
X372114Y372733D01*
X373024Y372356D01*
X374000Y372228D01*
X374976Y372356D01*
X375886Y372733D01*
X376667Y373333D01*
X377267Y374114D01*
X377644Y375024D01*
X377772Y376000D01*
X377644Y376976D01*
X377267Y377886D01*
X376667Y378667D01*
X375886Y379267D01*
X374976Y379644D01*
X374000Y379772D01*
D02*
G37*
G36*
X362714Y379700D02*
X360500D01*
Y377486D01*
X360719Y377515D01*
X361390Y377793D01*
X361965Y378235D01*
X362407Y378810D01*
X362685Y379481D01*
X362714Y379700D01*
D02*
G37*
G36*
X384000Y389772D02*
X383024Y389644D01*
X382114Y389267D01*
X381332Y388667D01*
X380733Y387886D01*
X380356Y386976D01*
X380228Y386000D01*
X380356Y385024D01*
X380733Y384114D01*
X381332Y383332D01*
X382114Y382733D01*
X383024Y382356D01*
X384000Y382228D01*
X384976Y382356D01*
X385886Y382733D01*
X386667Y383332D01*
X387267Y384114D01*
X387644Y385024D01*
X387772Y386000D01*
X387644Y386976D01*
X387267Y387886D01*
X386667Y388667D01*
X385886Y389267D01*
X384976Y389644D01*
X384000Y389772D01*
D02*
G37*
G36*
X374000D02*
X373024Y389644D01*
X372114Y389267D01*
X371333Y388667D01*
X370733Y387886D01*
X370356Y386976D01*
X370228Y386000D01*
X370356Y385024D01*
X370733Y384114D01*
X371333Y383332D01*
X372114Y382733D01*
X373024Y382356D01*
X374000Y382228D01*
X374976Y382356D01*
X375886Y382733D01*
X376667Y383332D01*
X377267Y384114D01*
X377644Y385024D01*
X377772Y386000D01*
X377644Y386976D01*
X377267Y387886D01*
X376667Y388667D01*
X375886Y389267D01*
X374976Y389644D01*
X374000Y389772D01*
D02*
G37*
G36*
X360500Y382914D02*
Y380700D01*
X362714D01*
X362685Y380919D01*
X362407Y381590D01*
X361965Y382166D01*
X361390Y382607D01*
X360719Y382885D01*
X360500Y382914D01*
D02*
G37*
G36*
X310000Y323772D02*
X309024Y323644D01*
X308114Y323267D01*
X307332Y322668D01*
X306733Y321886D01*
X306356Y320976D01*
X306228Y320000D01*
X306356Y319024D01*
X306733Y318114D01*
X307332Y317333D01*
X308114Y316733D01*
X309024Y316356D01*
X310000Y316228D01*
X310976Y316356D01*
X311886Y316733D01*
X312667Y317333D01*
X313267Y318114D01*
X313644Y319024D01*
X313772Y320000D01*
X313644Y320976D01*
X313267Y321886D01*
X312667Y322668D01*
X311886Y323267D01*
X310976Y323644D01*
X310000Y323772D01*
D02*
G37*
G36*
X280000D02*
X279024Y323644D01*
X278114Y323267D01*
X277332Y322668D01*
X276733Y321886D01*
X276356Y320976D01*
X276228Y320000D01*
X276356Y319024D01*
X276733Y318114D01*
X277332Y317333D01*
X278114Y316733D01*
X279024Y316356D01*
X280000Y316228D01*
X280976Y316356D01*
X281886Y316733D01*
X282667Y317333D01*
X283267Y318114D01*
X283644Y319024D01*
X283772Y320000D01*
X283644Y320976D01*
X283267Y321886D01*
X282667Y322668D01*
X281886Y323267D01*
X280976Y323644D01*
X280000Y323772D01*
D02*
G37*
G36*
X250000D02*
X249024Y323644D01*
X248114Y323267D01*
X247333Y322668D01*
X246733Y321886D01*
X246356Y320976D01*
X246228Y320000D01*
X246356Y319024D01*
X246733Y318114D01*
X247333Y317333D01*
X248114Y316733D01*
X249024Y316356D01*
X250000Y316228D01*
X250976Y316356D01*
X251886Y316733D01*
X252667Y317333D01*
X253267Y318114D01*
X253644Y319024D01*
X253772Y320000D01*
X253644Y320976D01*
X253267Y321886D01*
X252667Y322668D01*
X251886Y323267D01*
X250976Y323644D01*
X250000Y323772D01*
D02*
G37*
G36*
X330000D02*
X329024Y323644D01*
X328114Y323267D01*
X327332Y322668D01*
X326733Y321886D01*
X326356Y320976D01*
X326228Y320000D01*
X326356Y319024D01*
X326733Y318114D01*
X327332Y317333D01*
X328114Y316733D01*
X329024Y316356D01*
X330000Y316228D01*
X330976Y316356D01*
X331886Y316733D01*
X332667Y317333D01*
X333267Y318114D01*
X333644Y319024D01*
X333772Y320000D01*
X333644Y320976D01*
X333267Y321886D01*
X332667Y322668D01*
X331886Y323267D01*
X330976Y323644D01*
X330000Y323772D01*
D02*
G37*
G36*
X215740Y323740D02*
X208260D01*
Y316260D01*
X215740D01*
Y323740D01*
D02*
G37*
G36*
X368000Y323772D02*
X367024Y323644D01*
X366114Y323267D01*
X365333Y322668D01*
X364733Y321886D01*
X364356Y320976D01*
X364228Y320000D01*
X364356Y319024D01*
X364733Y318114D01*
X365333Y317333D01*
X366114Y316733D01*
X367024Y316356D01*
X368000Y316228D01*
X368976Y316356D01*
X369886Y316733D01*
X370668Y317333D01*
X371267Y318114D01*
X371644Y319024D01*
X371772Y320000D01*
X371644Y320976D01*
X371267Y321886D01*
X370668Y322668D01*
X369886Y323267D01*
X368976Y323644D01*
X368000Y323772D01*
D02*
G37*
G36*
X348000D02*
X347024Y323644D01*
X346114Y323267D01*
X345333Y322668D01*
X344733Y321886D01*
X344356Y320976D01*
X344228Y320000D01*
X344356Y319024D01*
X344733Y318114D01*
X345333Y317333D01*
X346114Y316733D01*
X347024Y316356D01*
X348000Y316228D01*
X348976Y316356D01*
X349886Y316733D01*
X350668Y317333D01*
X351267Y318114D01*
X351644Y319024D01*
X351772Y320000D01*
X351644Y320976D01*
X351267Y321886D01*
X350668Y322668D01*
X349886Y323267D01*
X348976Y323644D01*
X348000Y323772D01*
D02*
G37*
G36*
X222000D02*
X221024Y323644D01*
X220114Y323267D01*
X219333Y322668D01*
X218733Y321886D01*
X218356Y320976D01*
X218228Y320000D01*
X218356Y319024D01*
X218733Y318114D01*
X219333Y317333D01*
X220114Y316733D01*
X221024Y316356D01*
X222000Y316228D01*
X222976Y316356D01*
X223886Y316733D01*
X224668Y317333D01*
X225267Y318114D01*
X225644Y319024D01*
X225772Y320000D01*
X225644Y320976D01*
X225267Y321886D01*
X224668Y322668D01*
X223886Y323267D01*
X222976Y323644D01*
X222000Y323772D01*
D02*
G37*
G36*
X347500Y313707D02*
X347024Y313644D01*
X346114Y313267D01*
X345333Y312667D01*
X344733Y311886D01*
X344356Y310976D01*
X344293Y310500D01*
X347500D01*
Y313707D01*
D02*
G37*
G36*
X330500D02*
Y310500D01*
X333707D01*
X333644Y310976D01*
X333267Y311886D01*
X332667Y312667D01*
X331886Y313267D01*
X330976Y313644D01*
X330500Y313707D01*
D02*
G37*
G36*
X329500D02*
X329024Y313644D01*
X328114Y313267D01*
X327332Y312667D01*
X326733Y311886D01*
X326356Y310976D01*
X326293Y310500D01*
X329500D01*
Y313707D01*
D02*
G37*
G36*
X348500D02*
Y310500D01*
X351707D01*
X351644Y310976D01*
X351267Y311886D01*
X350668Y312667D01*
X349886Y313267D01*
X348976Y313644D01*
X348500Y313707D01*
D02*
G37*
G36*
X387500D02*
X387024Y313644D01*
X386114Y313267D01*
X385332Y312667D01*
X384733Y311886D01*
X384356Y310976D01*
X384293Y310500D01*
X387500D01*
Y313707D01*
D02*
G37*
G36*
X368500D02*
Y310500D01*
X371707D01*
X371644Y310976D01*
X371267Y311886D01*
X370668Y312667D01*
X369886Y313267D01*
X368976Y313644D01*
X368500Y313707D01*
D02*
G37*
G36*
X367500D02*
X367024Y313644D01*
X366114Y313267D01*
X365333Y312667D01*
X364733Y311886D01*
X364356Y310976D01*
X364293Y310500D01*
X367500D01*
Y313707D01*
D02*
G37*
G36*
X306900Y330914D02*
Y328700D01*
X309114D01*
X309085Y328919D01*
X308807Y329590D01*
X308366Y330166D01*
X307790Y330607D01*
X307119Y330885D01*
X306900Y330914D01*
D02*
G37*
G36*
X305900D02*
X305681Y330885D01*
X305010Y330607D01*
X304434Y330166D01*
X303993Y329590D01*
X303715Y328919D01*
X303686Y328700D01*
X305900D01*
Y330914D01*
D02*
G37*
G36*
X242214Y329400D02*
X240000D01*
Y327186D01*
X240219Y327215D01*
X240890Y327493D01*
X241465Y327935D01*
X241907Y328510D01*
X242185Y329181D01*
X242214Y329400D01*
D02*
G37*
G36*
X239000Y332614D02*
X238781Y332585D01*
X238110Y332307D01*
X237534Y331866D01*
X237093Y331290D01*
X236815Y330619D01*
X236786Y330400D01*
X239000D01*
Y332614D01*
D02*
G37*
G36*
X335500Y355707D02*
X335024Y355644D01*
X334114Y355267D01*
X333332Y354667D01*
X332733Y353886D01*
X332356Y352976D01*
X332293Y352500D01*
X335500D01*
Y355707D01*
D02*
G37*
G36*
Y351500D02*
X332293D01*
X332356Y351024D01*
X332733Y350114D01*
X333332Y349332D01*
X334114Y348733D01*
X335024Y348356D01*
X335500Y348293D01*
Y351500D01*
D02*
G37*
G36*
X240000Y332614D02*
Y330400D01*
X242214D01*
X242185Y330619D01*
X241907Y331290D01*
X241465Y331866D01*
X240890Y332307D01*
X240219Y332585D01*
X240000Y332614D01*
D02*
G37*
G36*
X239000Y329400D02*
X236786D01*
X236815Y329181D01*
X237093Y328510D01*
X237534Y327935D01*
X238110Y327493D01*
X238781Y327215D01*
X239000Y327186D01*
Y329400D01*
D02*
G37*
G36*
X303740Y323740D02*
X296260D01*
Y316260D01*
X303740D01*
Y323740D01*
D02*
G37*
G36*
X273740D02*
X266260D01*
Y316260D01*
X273740D01*
Y323740D01*
D02*
G37*
G36*
X243740D02*
X236260D01*
Y316260D01*
X243740D01*
Y323740D01*
D02*
G37*
G36*
X305900Y327700D02*
X303686D01*
X303715Y327481D01*
X303993Y326810D01*
X304434Y326235D01*
X305010Y325793D01*
X305681Y325515D01*
X305900Y325486D01*
Y327700D01*
D02*
G37*
G36*
X351740Y333740D02*
X344260D01*
Y326260D01*
X351740D01*
Y333740D01*
D02*
G37*
G36*
X333740D02*
X326260D01*
Y326260D01*
X333740D01*
Y333740D01*
D02*
G37*
G36*
X309114Y327700D02*
X306900D01*
Y325486D01*
X307119Y325515D01*
X307790Y325793D01*
X308366Y326235D01*
X308807Y326810D01*
X309085Y327481D01*
X309114Y327700D01*
D02*
G37*
G36*
X374000Y459772D02*
X373024Y459644D01*
X372114Y459267D01*
X371333Y458668D01*
X370733Y457886D01*
X370356Y456976D01*
X370228Y456000D01*
X370356Y455024D01*
X370733Y454114D01*
X371333Y453333D01*
X372114Y452733D01*
X373024Y452356D01*
X374000Y452228D01*
X374976Y452356D01*
X375886Y452733D01*
X376667Y453333D01*
X377267Y454114D01*
X377644Y455024D01*
X377772Y456000D01*
X377644Y456976D01*
X377267Y457886D01*
X376667Y458668D01*
X375886Y459267D01*
X374976Y459644D01*
X374000Y459772D01*
D02*
G37*
G36*
X352500Y451707D02*
Y448500D01*
X355707D01*
X355644Y448976D01*
X355267Y449886D01*
X354667Y450667D01*
X353886Y451267D01*
X352976Y451644D01*
X352500Y451707D01*
D02*
G37*
G36*
X351500D02*
X351024Y451644D01*
X350114Y451267D01*
X349332Y450667D01*
X348733Y449886D01*
X348356Y448976D01*
X348293Y448500D01*
X351500D01*
Y451707D01*
D02*
G37*
G36*
X384000Y459772D02*
X383024Y459644D01*
X382114Y459267D01*
X381332Y458668D01*
X380733Y457886D01*
X380356Y456976D01*
X380228Y456000D01*
X380356Y455024D01*
X380733Y454114D01*
X381332Y453333D01*
X382114Y452733D01*
X383024Y452356D01*
X384000Y452228D01*
X384976Y452356D01*
X385886Y452733D01*
X386667Y453333D01*
X387267Y454114D01*
X387644Y455024D01*
X387772Y456000D01*
X387644Y456976D01*
X387267Y457886D01*
X386667Y458668D01*
X385886Y459267D01*
X384976Y459644D01*
X384000Y459772D01*
D02*
G37*
G36*
X286200Y459314D02*
X285981Y459285D01*
X285310Y459007D01*
X284735Y458566D01*
X284293Y457990D01*
X284015Y457319D01*
X283986Y457100D01*
X286200D01*
Y459314D01*
D02*
G37*
G36*
X240500Y464278D02*
Y456500D01*
X248278D01*
X248167Y457625D01*
X247694Y459187D01*
X246924Y460627D01*
X245888Y461888D01*
X244626Y462924D01*
X243187Y463694D01*
X241625Y464167D01*
X240500Y464278D01*
D02*
G37*
G36*
X239500D02*
X238375Y464167D01*
X236813Y463694D01*
X235373Y462924D01*
X234112Y461888D01*
X233076Y460627D01*
X232306Y459187D01*
X231833Y457625D01*
X231722Y456500D01*
X239500D01*
Y464278D01*
D02*
G37*
G36*
X248278Y455500D02*
X240500D01*
Y447722D01*
X241625Y447832D01*
X243187Y448306D01*
X244626Y449076D01*
X245888Y450112D01*
X246924Y451373D01*
X247694Y452813D01*
X248167Y454375D01*
X248278Y455500D01*
D02*
G37*
G36*
X351500Y447500D02*
X348293D01*
X348356Y447024D01*
X348733Y446114D01*
X349332Y445332D01*
X350114Y444733D01*
X351024Y444356D01*
X351500Y444293D01*
Y447500D01*
D02*
G37*
G36*
X362000Y451772D02*
X361024Y451644D01*
X360114Y451267D01*
X359332Y450667D01*
X358733Y449886D01*
X358356Y448976D01*
X358228Y448000D01*
X358356Y447024D01*
X358733Y446114D01*
X359332Y445332D01*
X360114Y444733D01*
X361024Y444356D01*
X362000Y444228D01*
X362976Y444356D01*
X363886Y444733D01*
X364668Y445332D01*
X365267Y446114D01*
X365644Y447024D01*
X365772Y448000D01*
X365644Y448976D01*
X365267Y449886D01*
X364668Y450667D01*
X363886Y451267D01*
X362976Y451644D01*
X362000Y451772D01*
D02*
G37*
G36*
X377707Y445500D02*
X374500D01*
Y442293D01*
X374976Y442356D01*
X375886Y442733D01*
X376667Y443332D01*
X377267Y444114D01*
X377644Y445024D01*
X377707Y445500D01*
D02*
G37*
G36*
X355707Y447500D02*
X352500D01*
Y444293D01*
X352976Y444356D01*
X353886Y444733D01*
X354667Y445332D01*
X355267Y446114D01*
X355644Y447024D01*
X355707Y447500D01*
D02*
G37*
G36*
X239500Y455500D02*
X231722D01*
X231833Y454375D01*
X232306Y452813D01*
X233076Y451373D01*
X234112Y450112D01*
X235373Y449076D01*
X236813Y448306D01*
X238375Y447832D01*
X239500Y447722D01*
Y455500D01*
D02*
G37*
G36*
X374500Y449707D02*
Y446500D01*
X377707D01*
X377644Y446976D01*
X377267Y447886D01*
X376667Y448667D01*
X375886Y449267D01*
X374976Y449644D01*
X374500Y449707D01*
D02*
G37*
G36*
X373500D02*
X373024Y449644D01*
X372114Y449267D01*
X371333Y448667D01*
X370733Y447886D01*
X370356Y446976D01*
X370293Y446500D01*
X373500D01*
Y449707D01*
D02*
G37*
G36*
X240000Y488130D02*
X238414Y487973D01*
X236889Y487511D01*
X235483Y486760D01*
X234251Y485749D01*
X233240Y484517D01*
X232489Y483111D01*
X232027Y481586D01*
X231870Y480000D01*
X232027Y478414D01*
X232489Y476889D01*
X233240Y475483D01*
X234251Y474251D01*
X235483Y473240D01*
X236889Y472489D01*
X238414Y472026D01*
X240000Y471870D01*
X241586Y472026D01*
X243111Y472489D01*
X244517Y473240D01*
X245749Y474251D01*
X246760Y475483D01*
X247511Y476889D01*
X247973Y478414D01*
X248130Y480000D01*
X247973Y481586D01*
X247511Y483111D01*
X246760Y484517D01*
X245749Y485749D01*
X244517Y486760D01*
X243111Y487511D01*
X241586Y487973D01*
X240000Y488130D01*
D02*
G37*
G36*
X384500Y469707D02*
Y466500D01*
X387707D01*
X387644Y466976D01*
X387267Y467886D01*
X386667Y468668D01*
X385886Y469267D01*
X384976Y469644D01*
X384500Y469707D01*
D02*
G37*
G36*
X383500D02*
X383024Y469644D01*
X382114Y469267D01*
X381332Y468668D01*
X380733Y467886D01*
X380356Y466976D01*
X380293Y466500D01*
X383500D01*
Y469707D01*
D02*
G37*
G36*
X374000Y479772D02*
X373024Y479644D01*
X372114Y479267D01*
X371333Y478667D01*
X370733Y477886D01*
X370356Y476976D01*
X370228Y476000D01*
X370356Y475024D01*
X370733Y474114D01*
X371333Y473333D01*
X372114Y472733D01*
X373024Y472356D01*
X374000Y472228D01*
X374976Y472356D01*
X375886Y472733D01*
X376667Y473333D01*
X377267Y474114D01*
X377644Y475024D01*
X377772Y476000D01*
X377644Y476976D01*
X377267Y477886D01*
X376667Y478667D01*
X375886Y479267D01*
X374976Y479644D01*
X374000Y479772D01*
D02*
G37*
G36*
X351400Y485414D02*
Y483200D01*
X353614D01*
X353585Y483419D01*
X353307Y484090D01*
X352866Y484665D01*
X352290Y485107D01*
X351619Y485385D01*
X351400Y485414D01*
D02*
G37*
G36*
X350400D02*
X350181Y485385D01*
X349510Y485107D01*
X348935Y484665D01*
X348493Y484090D01*
X348215Y483419D01*
X348186Y483200D01*
X350400D01*
Y485414D01*
D02*
G37*
G36*
X384000Y479772D02*
X383024Y479644D01*
X382114Y479267D01*
X381332Y478667D01*
X380733Y477886D01*
X380356Y476976D01*
X380228Y476000D01*
X380356Y475024D01*
X380733Y474114D01*
X381332Y473333D01*
X382114Y472733D01*
X383024Y472356D01*
X384000Y472228D01*
X384976Y472356D01*
X385886Y472733D01*
X386667Y473333D01*
X387267Y474114D01*
X387644Y475024D01*
X387772Y476000D01*
X387644Y476976D01*
X387267Y477886D01*
X386667Y478667D01*
X385886Y479267D01*
X384976Y479644D01*
X384000Y479772D01*
D02*
G37*
G36*
X387707Y465500D02*
X384500D01*
Y462293D01*
X384976Y462356D01*
X385886Y462733D01*
X386667Y463333D01*
X387267Y464114D01*
X387644Y465024D01*
X387707Y465500D01*
D02*
G37*
G36*
X304214Y461000D02*
X302000D01*
Y458786D01*
X302219Y458815D01*
X302890Y459093D01*
X303466Y459535D01*
X303907Y460110D01*
X304185Y460781D01*
X304214Y461000D01*
D02*
G37*
G36*
X301000D02*
X298786D01*
X298815Y460781D01*
X299093Y460110D01*
X299535Y459535D01*
X300110Y459093D01*
X300781Y458815D01*
X301000Y458786D01*
Y461000D01*
D02*
G37*
G36*
X287200Y459314D02*
Y457100D01*
X289414D01*
X289385Y457319D01*
X289107Y457990D01*
X288666Y458566D01*
X288090Y459007D01*
X287419Y459285D01*
X287200Y459314D01*
D02*
G37*
G36*
X301000Y464214D02*
X300781Y464185D01*
X300110Y463907D01*
X299535Y463465D01*
X299093Y462890D01*
X298815Y462219D01*
X298786Y462000D01*
X301000D01*
Y464214D01*
D02*
G37*
G36*
X383500Y465500D02*
X380293D01*
X380356Y465024D01*
X380733Y464114D01*
X381332Y463333D01*
X382114Y462733D01*
X383024Y462356D01*
X383500Y462293D01*
Y465500D01*
D02*
G37*
G36*
X374000Y469772D02*
X373024Y469644D01*
X372114Y469267D01*
X371333Y468668D01*
X370733Y467886D01*
X370356Y466976D01*
X370228Y466000D01*
X370356Y465024D01*
X370733Y464114D01*
X371333Y463333D01*
X372114Y462733D01*
X373024Y462356D01*
X374000Y462228D01*
X374976Y462356D01*
X375886Y462733D01*
X376667Y463333D01*
X377267Y464114D01*
X377644Y465024D01*
X377772Y466000D01*
X377644Y466976D01*
X377267Y467886D01*
X376667Y468668D01*
X375886Y469267D01*
X374976Y469644D01*
X374000Y469772D01*
D02*
G37*
G36*
X302000Y464214D02*
Y462000D01*
X304214D01*
X304185Y462219D01*
X303907Y462890D01*
X303466Y463465D01*
X302890Y463907D01*
X302219Y464185D01*
X302000Y464214D01*
D02*
G37*
G36*
X291500Y405714D02*
Y403500D01*
X293714D01*
X293685Y403719D01*
X293407Y404390D01*
X292966Y404965D01*
X292390Y405407D01*
X291719Y405685D01*
X291500Y405714D01*
D02*
G37*
G36*
X290500D02*
X290281Y405685D01*
X289610Y405407D01*
X289035Y404965D01*
X288593Y404390D01*
X288315Y403719D01*
X288286Y403500D01*
X290500D01*
Y405714D01*
D02*
G37*
G36*
X384000Y409772D02*
X383024Y409644D01*
X382114Y409267D01*
X381332Y408668D01*
X380733Y407886D01*
X380356Y406976D01*
X380228Y406000D01*
X380356Y405024D01*
X380733Y404114D01*
X381332Y403333D01*
X382114Y402733D01*
X383024Y402356D01*
X384000Y402228D01*
X384976Y402356D01*
X385886Y402733D01*
X386667Y403333D01*
X387267Y404114D01*
X387644Y405024D01*
X387772Y406000D01*
X387644Y406976D01*
X387267Y407886D01*
X386667Y408668D01*
X385886Y409267D01*
X384976Y409644D01*
X384000Y409772D01*
D02*
G37*
G36*
X350000Y409000D02*
X347786D01*
X347815Y408781D01*
X348093Y408110D01*
X348534Y407535D01*
X349110Y407093D01*
X349781Y406815D01*
X350000Y406786D01*
Y409000D01*
D02*
G37*
G36*
X351000Y412214D02*
Y410000D01*
X353214D01*
X353185Y410219D01*
X352907Y410890D01*
X352466Y411466D01*
X351890Y411907D01*
X351219Y412185D01*
X351000Y412214D01*
D02*
G37*
G36*
X350000D02*
X349781Y412185D01*
X349110Y411907D01*
X348534Y411466D01*
X348093Y410890D01*
X347815Y410219D01*
X347786Y410000D01*
X350000D01*
Y412214D01*
D02*
G37*
G36*
X353214Y409000D02*
X351000D01*
Y406786D01*
X351219Y406815D01*
X351890Y407093D01*
X352466Y407535D01*
X352907Y408110D01*
X353185Y408781D01*
X353214Y409000D01*
D02*
G37*
G36*
X374000Y409772D02*
X373024Y409644D01*
X372114Y409267D01*
X371333Y408668D01*
X370733Y407886D01*
X370356Y406976D01*
X370228Y406000D01*
X370356Y405024D01*
X370733Y404114D01*
X371333Y403333D01*
X372114Y402733D01*
X373024Y402356D01*
X374000Y402228D01*
X374976Y402356D01*
X375886Y402733D01*
X376667Y403333D01*
X377267Y404114D01*
X377644Y405024D01*
X377772Y406000D01*
X377644Y406976D01*
X377267Y407886D01*
X376667Y408668D01*
X375886Y409267D01*
X374976Y409644D01*
X374000Y409772D01*
D02*
G37*
G36*
X387707Y395500D02*
X384500D01*
Y392293D01*
X384976Y392356D01*
X385886Y392733D01*
X386667Y393333D01*
X387267Y394114D01*
X387644Y395024D01*
X387707Y395500D01*
D02*
G37*
G36*
X383500D02*
X380293D01*
X380356Y395024D01*
X380733Y394114D01*
X381332Y393333D01*
X382114Y392733D01*
X383024Y392356D01*
X383500Y392293D01*
Y395500D01*
D02*
G37*
G36*
X374000Y399772D02*
X373024Y399644D01*
X372114Y399267D01*
X371333Y398668D01*
X370733Y397886D01*
X370356Y396976D01*
X370228Y396000D01*
X370356Y395024D01*
X370733Y394114D01*
X371333Y393333D01*
X372114Y392733D01*
X373024Y392356D01*
X374000Y392228D01*
X374976Y392356D01*
X375886Y392733D01*
X376667Y393333D01*
X377267Y394114D01*
X377644Y395024D01*
X377772Y396000D01*
X377644Y396976D01*
X377267Y397886D01*
X376667Y398668D01*
X375886Y399267D01*
X374976Y399644D01*
X374000Y399772D01*
D02*
G37*
G36*
X383500Y399707D02*
X383024Y399644D01*
X382114Y399267D01*
X381332Y398668D01*
X380733Y397886D01*
X380356Y396976D01*
X380293Y396500D01*
X383500D01*
Y399707D01*
D02*
G37*
G36*
X293730Y402619D02*
X293714Y402500D01*
X291500D01*
Y400286D01*
X291573Y400296D01*
X293300D01*
X293761Y400387D01*
X294151Y400648D01*
X294413Y401039D01*
X294504Y401500D01*
X294413Y401961D01*
X294151Y402352D01*
X293761Y402613D01*
X293730Y402619D01*
D02*
G37*
G36*
X290500Y402500D02*
X288286D01*
X288315Y402281D01*
X288593Y401610D01*
X289035Y401034D01*
X289610Y400593D01*
X290281Y400315D01*
X290500Y400286D01*
Y402500D01*
D02*
G37*
G36*
X384500Y399707D02*
Y396500D01*
X387707D01*
X387644Y396976D01*
X387267Y397886D01*
X386667Y398668D01*
X385886Y399267D01*
X384976Y399644D01*
X384500Y399707D01*
D02*
G37*
G36*
X374000Y439772D02*
X373024Y439644D01*
X372114Y439267D01*
X371333Y438667D01*
X370733Y437886D01*
X370356Y436976D01*
X370228Y436000D01*
X370356Y435024D01*
X370733Y434114D01*
X371333Y433332D01*
X372114Y432733D01*
X373024Y432356D01*
X374000Y432228D01*
X374976Y432356D01*
X375886Y432733D01*
X376667Y433332D01*
X377267Y434114D01*
X377644Y435024D01*
X377772Y436000D01*
X377644Y436976D01*
X377267Y437886D01*
X376667Y438667D01*
X375886Y439267D01*
X374976Y439644D01*
X374000Y439772D01*
D02*
G37*
G36*
X309500Y429500D02*
X307286D01*
X307315Y429281D01*
X307593Y428610D01*
X308034Y428034D01*
X308610Y427593D01*
X309281Y427315D01*
X309500Y427286D01*
Y429500D01*
D02*
G37*
G36*
X384500Y429707D02*
Y426500D01*
X387707D01*
X387644Y426976D01*
X387267Y427886D01*
X386667Y428667D01*
X385886Y429267D01*
X384976Y429644D01*
X384500Y429707D01*
D02*
G37*
G36*
X384000Y439772D02*
X383024Y439644D01*
X382114Y439267D01*
X381332Y438667D01*
X380733Y437886D01*
X380356Y436976D01*
X380228Y436000D01*
X380356Y435024D01*
X380733Y434114D01*
X381332Y433332D01*
X382114Y432733D01*
X383024Y432356D01*
X384000Y432228D01*
X384976Y432356D01*
X385886Y432733D01*
X386667Y433332D01*
X387267Y434114D01*
X387644Y435024D01*
X387772Y436000D01*
X387644Y436976D01*
X387267Y437886D01*
X386667Y438667D01*
X385886Y439267D01*
X384976Y439644D01*
X384000Y439772D01*
D02*
G37*
G36*
X373500Y445500D02*
X370293D01*
X370356Y445024D01*
X370733Y444114D01*
X371333Y443332D01*
X372114Y442733D01*
X373024Y442356D01*
X373500Y442293D01*
Y445500D01*
D02*
G37*
G36*
X384000Y449772D02*
X383024Y449644D01*
X382114Y449267D01*
X381332Y448667D01*
X380733Y447886D01*
X380356Y446976D01*
X380228Y446000D01*
X380356Y445024D01*
X380733Y444114D01*
X381332Y443332D01*
X382114Y442733D01*
X383024Y442356D01*
X384000Y442228D01*
X384976Y442356D01*
X385886Y442733D01*
X386667Y443332D01*
X387267Y444114D01*
X387644Y445024D01*
X387772Y446000D01*
X387644Y446976D01*
X387267Y447886D01*
X386667Y448667D01*
X385886Y449267D01*
X384976Y449644D01*
X384000Y449772D01*
D02*
G37*
G36*
X362000Y441772D02*
X361024Y441644D01*
X360114Y441267D01*
X359332Y440667D01*
X358733Y439886D01*
X358356Y438976D01*
X358228Y438000D01*
X358356Y437024D01*
X358733Y436114D01*
X359332Y435332D01*
X360114Y434733D01*
X361024Y434356D01*
X362000Y434228D01*
X362976Y434356D01*
X363886Y434733D01*
X364668Y435332D01*
X365267Y436114D01*
X365644Y437024D01*
X365772Y438000D01*
X365644Y438976D01*
X365267Y439886D01*
X364668Y440667D01*
X363886Y441267D01*
X362976Y441644D01*
X362000Y441772D01*
D02*
G37*
G36*
X383500Y429707D02*
X383024Y429644D01*
X382114Y429267D01*
X381332Y428667D01*
X380733Y427886D01*
X380356Y426976D01*
X380293Y426500D01*
X383500D01*
Y429707D01*
D02*
G37*
G36*
X374000Y429772D02*
X373024Y429644D01*
X372114Y429267D01*
X371333Y428667D01*
X370733Y427886D01*
X370356Y426976D01*
X370228Y426000D01*
X370356Y425024D01*
X370733Y424114D01*
X371333Y423333D01*
X372114Y422733D01*
X373024Y422356D01*
X374000Y422228D01*
X374976Y422356D01*
X375886Y422733D01*
X376667Y423333D01*
X377267Y424114D01*
X377644Y425024D01*
X377772Y426000D01*
X377644Y426976D01*
X377267Y427886D01*
X376667Y428667D01*
X375886Y429267D01*
X374976Y429644D01*
X374000Y429772D01*
D02*
G37*
G36*
X384000Y419772D02*
X383024Y419644D01*
X382114Y419267D01*
X381332Y418668D01*
X380733Y417886D01*
X380356Y416976D01*
X380228Y416000D01*
X380356Y415024D01*
X380733Y414114D01*
X381332Y413333D01*
X382114Y412733D01*
X383024Y412356D01*
X384000Y412228D01*
X384976Y412356D01*
X385886Y412733D01*
X386667Y413333D01*
X387267Y414114D01*
X387644Y415024D01*
X387772Y416000D01*
X387644Y416976D01*
X387267Y417886D01*
X386667Y418668D01*
X385886Y419267D01*
X384976Y419644D01*
X384000Y419772D01*
D02*
G37*
G36*
X374000D02*
X373024Y419644D01*
X372114Y419267D01*
X371333Y418668D01*
X370733Y417886D01*
X370356Y416976D01*
X370228Y416000D01*
X370356Y415024D01*
X370733Y414114D01*
X371333Y413333D01*
X372114Y412733D01*
X373024Y412356D01*
X374000Y412228D01*
X374976Y412356D01*
X375886Y412733D01*
X376667Y413333D01*
X377267Y414114D01*
X377644Y415024D01*
X377772Y416000D01*
X377644Y416976D01*
X377267Y417886D01*
X376667Y418668D01*
X375886Y419267D01*
X374976Y419644D01*
X374000Y419772D01*
D02*
G37*
G36*
X383500Y425500D02*
X380293D01*
X380356Y425024D01*
X380733Y424114D01*
X381332Y423333D01*
X382114Y422733D01*
X383024Y422356D01*
X383500Y422293D01*
Y425500D01*
D02*
G37*
G36*
X365740Y431740D02*
X358260D01*
Y424260D01*
X365740D01*
Y431740D01*
D02*
G37*
G36*
X352000Y431772D02*
X351024Y431644D01*
X350114Y431267D01*
X349332Y430667D01*
X348733Y429886D01*
X348356Y428976D01*
X348228Y428000D01*
X348356Y427024D01*
X348733Y426114D01*
X349332Y425332D01*
X350114Y424733D01*
X351024Y424356D01*
X352000Y424228D01*
X352976Y424356D01*
X353886Y424733D01*
X354667Y425332D01*
X355267Y426114D01*
X355644Y427024D01*
X355772Y428000D01*
X355644Y428976D01*
X355267Y429886D01*
X354667Y430667D01*
X353886Y431267D01*
X352976Y431644D01*
X352000Y431772D01*
D02*
G37*
G36*
X387707Y425500D02*
X384500D01*
Y422293D01*
X384976Y422356D01*
X385886Y422733D01*
X386667Y423333D01*
X387267Y424114D01*
X387644Y425024D01*
X387707Y425500D01*
D02*
G37*
%LPD*%
D22*
X350900Y485900D02*
X351000Y486000D01*
X323500Y392500D02*
Y392900D01*
X323600D01*
Y386581D02*
Y392900D01*
X326800Y389500D02*
Y400500D01*
X320776Y406524D02*
X326800Y400500D01*
X319201Y386067D02*
Y430801D01*
Y386067D02*
X320118Y385150D01*
X325880Y430499D02*
X326379Y430000D01*
X329843D01*
X322950Y430499D02*
X325880D01*
X320776Y406524D02*
Y428325D01*
X340000Y385500D02*
X340900D01*
X341000Y385400D01*
X337500Y392000D02*
X343424D01*
X344150Y391275D01*
Y370450D02*
Y391275D01*
X336000Y399900D02*
X336676Y400576D01*
X336000Y399500D02*
Y399900D01*
X336676Y400576D02*
X344283D01*
X331624Y396350D02*
X337305D01*
X331575Y396400D02*
X331624Y396350D01*
X338828Y397874D02*
X343653D01*
X337305Y396350D02*
X338828Y397874D01*
X343653D02*
X345724Y395802D01*
X321000Y381500D02*
X321500Y382000D01*
X317500Y381500D02*
X321000D01*
X316866Y382134D02*
X317500Y381500D01*
X324650Y367850D02*
X330900Y361600D01*
X324650Y367850D02*
Y383305D01*
X320118Y385150D02*
X322805D01*
X323600Y386581D02*
X324532Y385650D01*
X329305D01*
X322805Y385150D02*
X324650Y383305D01*
X292735Y382134D02*
X316866D01*
X329305Y385650D02*
X332854Y382100D01*
X331581Y385600D02*
X334300D01*
X329957Y387224D02*
X331581Y385600D01*
X329076Y387224D02*
X329957D01*
X328000Y380400D02*
Y382500D01*
X332854Y382100D02*
X333200D01*
X328000Y380400D02*
X334100Y374300D01*
X326800Y389500D02*
X329076Y387224D01*
X333200Y382100D02*
X337700Y377600D01*
Y361600D02*
Y377600D01*
X334100Y360000D02*
Y374300D01*
X304526Y398500D02*
X306500D01*
X303926Y397900D02*
X304526Y398500D01*
X296709Y383709D02*
X313600Y400600D01*
X291924Y383709D02*
X296709D01*
X313600Y400600D02*
Y412000D01*
X303926Y393626D02*
Y397900D01*
X301300Y391000D02*
X303926Y393626D01*
X291000Y402000D02*
Y403000D01*
Y402000D02*
X291500Y401500D01*
X293300D01*
X365500Y479500D02*
X367000Y481000D01*
X365500Y479500D02*
Y480000D01*
X255000Y450000D02*
X264000Y441000D01*
Y422400D02*
Y441000D01*
X273900Y339850D02*
Y359900D01*
X289600Y333750D02*
Y340900D01*
X286400Y330550D02*
X289600Y333750D01*
X283200Y330550D02*
X286400D01*
X273900Y339850D02*
X283200Y330550D01*
X285642Y345839D02*
Y369799D01*
X278300D02*
X285642D01*
X274412Y365911D02*
X278300Y369799D01*
X228400Y372800D02*
X234159Y378559D01*
X249300Y471400D02*
X272900Y447800D01*
X306300D01*
X260700Y486900D02*
X323300D01*
X252700Y478900D02*
X260700Y486900D01*
X266913Y483500D02*
X284000D01*
X264304Y480891D02*
X266913Y483500D01*
X264304Y473096D02*
X285400Y452000D01*
X264304Y473096D02*
Y480891D01*
X287140Y378924D02*
X291924Y383709D01*
X251824Y378924D02*
X287140D01*
X243923D02*
X251824D01*
X236347Y386500D02*
X243923Y378924D01*
X231900Y359000D02*
X251824Y378924D01*
X215500Y359000D02*
X231900D01*
X344420Y467600D02*
X355575D01*
X314900Y438080D02*
X344420Y467600D01*
X314900Y422700D02*
Y438080D01*
X336200Y413400D02*
X356800Y392800D01*
Y377100D02*
Y392800D01*
Y377100D02*
X380200Y353700D01*
Y342200D02*
Y353700D01*
X368000Y330000D02*
X380200Y342200D01*
X322350Y425250D02*
X324400Y427300D01*
X322350Y419200D02*
X324050Y417500D01*
X331300D02*
X331500Y417700D01*
X324050Y417500D02*
X331300D01*
X322350Y419200D02*
Y425250D01*
X320776Y428325D02*
X322950Y430499D01*
X308000Y360100D02*
X309100Y361200D01*
X308000Y345800D02*
Y360100D01*
Y345800D02*
X311600Y342200D01*
X315783Y370017D02*
X320000Y365800D01*
X317282Y370017D02*
X320000Y367299D01*
X315783Y370017D02*
X317282D01*
X320000Y365800D02*
X327400Y358400D01*
X332500D02*
X334100Y360000D01*
X327400Y358400D02*
X332500D01*
X320000Y361400D02*
Y365800D01*
Y367299D01*
X311200Y352600D02*
X320000Y361400D01*
X302848Y371000D02*
X303830Y370017D01*
X315783D01*
X295318Y367800D02*
X313538D01*
X315799Y365539D01*
X292800Y365282D02*
X295318Y367800D01*
X292800Y351300D02*
Y365282D01*
Y351300D02*
X295100Y349000D01*
X287550Y376950D02*
X292735Y382134D01*
X259050Y376950D02*
X287550D01*
X248400Y366300D02*
X259050Y376950D01*
X248400Y344200D02*
Y366300D01*
X265700Y339800D02*
X269800Y343900D01*
X248400Y344200D02*
X252800Y339800D01*
X265700D01*
X315350Y374150D02*
X315600Y373900D01*
X299950Y374150D02*
X315350D01*
X297201Y371400D02*
X299950Y374150D01*
X251600Y352200D02*
X270800Y371400D01*
X297201D01*
X251600Y345600D02*
Y352200D01*
X252400Y391000D02*
X301300D01*
X247600Y386200D02*
X252400Y391000D01*
X262700Y411600D02*
X289700D01*
X242400Y391300D02*
X262700Y411600D01*
X216100Y391300D02*
X242400D01*
X344150Y370450D02*
X360200Y354400D01*
Y349600D02*
Y354400D01*
X358400Y347800D02*
X360200Y349600D01*
X350200Y347800D02*
X358400D01*
X346000Y352000D02*
X350200Y347800D01*
X341000Y367000D02*
Y385400D01*
Y367000D02*
X356000Y352000D01*
X345724Y372276D02*
Y395802D01*
Y372276D02*
X366000Y352000D01*
X347299Y380701D02*
Y397559D01*
X344283Y400576D02*
X347299Y397559D01*
Y380701D02*
X376000Y352000D01*
X337700Y361600D02*
X341500Y357800D01*
Y348800D02*
Y357800D01*
Y348800D02*
X344800Y345500D01*
X377000D01*
X374000Y366000D02*
Y369300D01*
X344000Y437172D02*
Y440000D01*
X327100Y420675D02*
X327503D01*
X328075D01*
X327503D02*
X344000Y437172D01*
X341000Y449000D02*
X352000Y438000D01*
X337500Y449000D02*
X341000D01*
X319301Y430801D02*
X337500Y449000D01*
D24*
Y479000D02*
X365000D01*
X335346Y476846D02*
X337500Y479000D01*
D25*
X282000Y338600D02*
X285300Y335300D01*
X282000Y338600D02*
Y366157D01*
X270900Y478600D02*
X324700D01*
X267500Y475200D02*
X270900Y478600D01*
X335346Y462046D02*
Y476846D01*
X295700Y422400D02*
X335346Y462046D01*
X264000Y422400D02*
X295700D01*
D28*
X285300Y333700D02*
Y335300D01*
D33*
X282000Y385843D02*
D03*
X220000D02*
D03*
D34*
X282000Y366157D02*
D03*
X220000D02*
D03*
D35*
X374000Y486000D02*
D03*
X362000Y428000D02*
D03*
X388000Y330000D02*
D03*
X348000D02*
D03*
X330000D02*
D03*
X368000D02*
D03*
D36*
X384000Y486000D02*
D03*
X374000Y476000D02*
D03*
X384000D02*
D03*
X374000Y466000D02*
D03*
X384000D02*
D03*
X374000Y456000D02*
D03*
X384000D02*
D03*
X374000Y446000D02*
D03*
X384000D02*
D03*
X374000Y436000D02*
D03*
X384000D02*
D03*
X374000Y426000D02*
D03*
X384000D02*
D03*
X374000Y416000D02*
D03*
X384000D02*
D03*
X374000Y406000D02*
D03*
X384000D02*
D03*
X374000Y396000D02*
D03*
X384000D02*
D03*
X374000Y386000D02*
D03*
X384000D02*
D03*
X374000Y376000D02*
D03*
X384000D02*
D03*
X374000Y366000D02*
D03*
X384000D02*
D03*
X310000Y320000D02*
D03*
X280000D02*
D03*
X222000D02*
D03*
X250000D02*
D03*
X352000Y428000D02*
D03*
X362000Y438000D02*
D03*
X352000D02*
D03*
X362000Y448000D02*
D03*
X352000D02*
D03*
X376000Y352000D02*
D03*
X366000D02*
D03*
X356000D02*
D03*
X346000D02*
D03*
X336000D02*
D03*
X388000Y320000D02*
D03*
Y310000D02*
D03*
X348000Y320000D02*
D03*
Y310000D02*
D03*
X330000Y320000D02*
D03*
Y310000D02*
D03*
X368000Y320000D02*
D03*
Y310000D02*
D03*
D37*
X300000Y320000D02*
D03*
X270000D02*
D03*
X212000D02*
D03*
X240000D02*
D03*
X386000Y352000D02*
D03*
D38*
X214000Y482000D02*
D03*
Y403000D02*
D03*
Y462000D02*
D03*
Y423000D02*
D03*
X240000Y456000D02*
D03*
Y480000D02*
D03*
D39*
X298000Y378000D02*
D03*
Y397200D02*
D03*
D40*
X351000Y486000D02*
D03*
X323500Y392500D02*
D03*
X340000Y385500D02*
D03*
X337500Y392000D02*
D03*
X336000Y399500D02*
D03*
X321500Y382000D02*
D03*
X328000Y382500D02*
D03*
X334300Y385600D02*
D03*
X330000Y430000D02*
D03*
X310000D02*
D03*
X306500Y398500D02*
D03*
X291000Y403000D02*
D03*
X307500Y389000D02*
D03*
X331575Y396400D02*
D03*
X350500Y409500D02*
D03*
X255000Y450000D02*
D03*
X285300Y333700D02*
D03*
X327100Y420675D02*
D03*
X326000Y478500D02*
D03*
X267500Y475200D02*
D03*
X289600Y340900D02*
D03*
X273900Y359900D02*
D03*
X285642Y345839D02*
D03*
X274412Y365911D02*
D03*
X234159Y378559D02*
D03*
X228400Y372800D02*
D03*
X306300Y447800D02*
D03*
X249300Y471400D02*
D03*
X323300Y486900D02*
D03*
X252700Y478900D02*
D03*
X285400Y452000D02*
D03*
X284000Y483500D02*
D03*
X313600Y412000D02*
D03*
X236347Y386500D02*
D03*
X215500Y359000D02*
D03*
X355575Y467600D02*
D03*
X314900Y422700D02*
D03*
X336200Y413400D02*
D03*
X324400Y427300D02*
D03*
X331500Y417700D02*
D03*
X311600Y342200D02*
D03*
X309100Y361200D02*
D03*
X311200Y352600D02*
D03*
X302848Y371000D02*
D03*
X315799Y365539D02*
D03*
X295100Y349000D02*
D03*
X292800Y365282D02*
D03*
X269800Y343900D02*
D03*
X315600Y373900D02*
D03*
X251600Y345600D02*
D03*
X247600Y386200D02*
D03*
X289700Y411600D02*
D03*
X216100Y391300D02*
D03*
X377000Y345500D02*
D03*
X330900Y361600D02*
D03*
X289600Y360000D02*
D03*
X306400Y328200D02*
D03*
X241900Y361600D02*
D03*
X301500Y461500D02*
D03*
X360000Y380200D02*
D03*
X286700Y456600D02*
D03*
X239500Y329900D02*
D03*
X365500Y479500D02*
D03*
X335346Y476846D02*
D03*
X264000Y422400D02*
D03*
D41*
X344000Y440000D02*
D03*
M02*
