%FSLAX25Y25*%
%MOIN*%
G70*
G01*
G75*
%ADD10R,0.16535X0.16535*%
%ADD11O,0.07087X0.02362*%
%ADD12R,0.03937X0.04331*%
%ADD13R,0.05906X0.05118*%
%ADD14R,0.08465X0.01575*%
%ADD15R,0.08465X0.01575*%
%ADD16R,0.15748X0.39370*%
%ADD17R,0.04331X0.03937*%
%ADD18O,0.06496X0.02165*%
%ADD19O,0.02165X0.06496*%
%ADD20O,0.04921X0.01181*%
%ADD21R,0.06496X0.01181*%
%ADD22C,0.00787*%
%ADD23C,0.01890*%
%ADD24C,0.01575*%
%ADD25C,0.01969*%
%ADD26C,0.01181*%
%ADD27C,0.03937*%
%ADD28C,0.01260*%
%ADD29C,0.07874*%
%ADD30C,0.03150*%
%ADD31C,0.00630*%
%ADD32C,0.01000*%
%ADD33C,0.05315*%
%ADD34R,0.05315X0.05315*%
%ADD35R,0.05906X0.05906*%
%ADD36C,0.05906*%
%ADD37R,0.05906X0.05906*%
%ADD38C,0.15000*%
%ADD39C,0.05906*%
%ADD40C,0.03937*%
%ADD41C,0.05000*%
%ADD42C,0.00984*%
%ADD43C,0.02362*%
%ADD44C,0.00800*%
%ADD45R,0.17335X0.17335*%
%ADD46O,0.07887X0.03162*%
%ADD47R,0.04737X0.05131*%
%ADD48R,0.06706X0.05918*%
%ADD49R,0.09265X0.02375*%
%ADD50R,0.09265X0.02375*%
%ADD51R,0.16548X0.40170*%
%ADD52R,0.05131X0.04737*%
%ADD53O,0.07296X0.02965*%
%ADD54O,0.02965X0.07296*%
%ADD55O,0.05721X0.01981*%
%ADD56R,0.07296X0.01981*%
%ADD57C,0.06115*%
%ADD58R,0.06115X0.06115*%
%ADD59R,0.06706X0.06706*%
%ADD60C,0.06706*%
%ADD61R,0.06706X0.06706*%
%ADD62C,0.15800*%
%ADD63C,0.06706*%
%ADD64C,0.04737*%
%ADD65C,0.05800*%
%ADD66C,0.00600*%
%ADD67C,0.00394*%
D33*
X282000Y385843D02*
D03*
X220000D02*
D03*
D34*
X282000Y366157D02*
D03*
X220000D02*
D03*
D35*
X374000Y486000D02*
D03*
X362000Y428000D02*
D03*
X388000Y330000D02*
D03*
X348000D02*
D03*
X330000D02*
D03*
X368000D02*
D03*
D36*
X384000Y486000D02*
D03*
X374000Y476000D02*
D03*
X384000D02*
D03*
X374000Y466000D02*
D03*
X384000D02*
D03*
X374000Y456000D02*
D03*
X384000D02*
D03*
X374000Y446000D02*
D03*
X384000D02*
D03*
X374000Y436000D02*
D03*
X384000D02*
D03*
X374000Y426000D02*
D03*
X384000D02*
D03*
X374000Y416000D02*
D03*
X384000D02*
D03*
X374000Y406000D02*
D03*
X384000D02*
D03*
X374000Y396000D02*
D03*
X384000D02*
D03*
X374000Y386000D02*
D03*
X384000D02*
D03*
X374000Y376000D02*
D03*
X384000D02*
D03*
X374000Y366000D02*
D03*
X384000D02*
D03*
X310000Y320000D02*
D03*
X280000D02*
D03*
X222000D02*
D03*
X250000D02*
D03*
X352000Y428000D02*
D03*
X362000Y438000D02*
D03*
X352000D02*
D03*
X362000Y448000D02*
D03*
X352000D02*
D03*
X376000Y352000D02*
D03*
X366000D02*
D03*
X356000D02*
D03*
X346000D02*
D03*
X336000D02*
D03*
X388000Y320000D02*
D03*
Y310000D02*
D03*
X348000Y320000D02*
D03*
Y310000D02*
D03*
X330000Y320000D02*
D03*
Y310000D02*
D03*
X368000Y320000D02*
D03*
Y310000D02*
D03*
D37*
X300000Y320000D02*
D03*
X270000D02*
D03*
X212000D02*
D03*
X240000D02*
D03*
X386000Y352000D02*
D03*
D38*
X214000Y482000D02*
D03*
Y403000D02*
D03*
Y462000D02*
D03*
Y423000D02*
D03*
X240000Y456000D02*
D03*
Y480000D02*
D03*
D39*
X298000Y378000D02*
D03*
Y397200D02*
D03*
M02*
