%FSLAX25Y25*%
%MOIN*%
G70*
G01*
G75*
G04 Layer_Color=16711935*
%ADD10R,0.04331X0.03937*%
%ADD11R,0.03937X0.04331*%
%ADD12R,0.06496X0.01181*%
%ADD13O,0.04921X0.01181*%
%ADD14O,0.02165X0.06496*%
%ADD15O,0.06496X0.02165*%
%ADD16R,0.08465X0.01575*%
%ADD17R,0.08465X0.01575*%
%ADD18R,0.15748X0.39370*%
%ADD19R,0.05906X0.05118*%
%ADD20O,0.07087X0.02362*%
%ADD21R,0.16535X0.16535*%
%ADD22C,0.03937*%
%ADD23C,0.00787*%
%ADD24C,0.01000*%
%ADD25C,0.01575*%
%ADD26C,0.01969*%
%ADD27C,0.01181*%
%ADD28C,0.07874*%
%ADD29C,0.01890*%
%ADD30C,0.00630*%
%ADD31C,0.03150*%
%ADD32C,0.01260*%
%ADD33C,0.05906*%
%ADD34C,0.05906*%
%ADD35R,0.05906X0.05906*%
%ADD36C,0.15000*%
%ADD37R,0.05906X0.05906*%
%ADD38R,0.05315X0.05315*%
%ADD39C,0.05315*%
%ADD40C,0.05000*%
%ADD41C,0.03937*%
%ADD42C,0.00984*%
%ADD43C,0.02362*%
%ADD44C,0.00800*%
%ADD45R,0.05131X0.04737*%
%ADD46R,0.04737X0.05131*%
%ADD47R,0.07296X0.01981*%
%ADD48O,0.05721X0.01981*%
%ADD49O,0.02965X0.07296*%
%ADD50O,0.07296X0.02965*%
%ADD51R,0.09265X0.02375*%
%ADD52R,0.09265X0.02375*%
%ADD53R,0.16548X0.40170*%
%ADD54R,0.06706X0.05918*%
%ADD55O,0.07887X0.03162*%
%ADD56R,0.17335X0.17335*%
%ADD57C,0.06706*%
%ADD58C,0.06706*%
%ADD59R,0.06706X0.06706*%
%ADD60C,0.15800*%
%ADD61R,0.06706X0.06706*%
%ADD62R,0.06115X0.06115*%
%ADD63C,0.06115*%
%ADD64C,0.05800*%
%ADD65C,0.04737*%
%ADD66C,0.00600*%
D24*
X391732Y272000D02*
Y303528D01*
X205118Y272000D02*
Y303528D01*
X325416Y273000D02*
X391732D01*
X205118D02*
X268234D01*
X385732Y275000D02*
X391732Y273000D01*
X385732Y271000D02*
X391732Y273000D01*
X205118D02*
X211118Y271000D01*
X205118Y273000D02*
X211118Y275000D01*
X159000Y491732D02*
X203528D01*
X159000Y305118D02*
X203528D01*
X160000Y425417D02*
Y491732D01*
Y305118D02*
Y368234D01*
X158000Y485732D02*
X160000Y491732D01*
X162000Y485732D01*
X160000Y305118D02*
X162000Y311118D01*
X158000D02*
X160000Y305118D01*
D66*
X272833Y269401D02*
Y275399D01*
X269834Y272400D01*
X273833D01*
X275832Y275399D02*
X279831D01*
Y274399D01*
X275832Y270401D01*
Y269401D01*
X281830D02*
Y270401D01*
X282830D01*
Y269401D01*
X281830D01*
X289827D02*
Y275399D01*
X286828Y272400D01*
X290827D01*
X292827Y274399D02*
X293826Y275399D01*
X295826D01*
X296825Y274399D01*
Y270401D01*
X295826Y269401D01*
X293826D01*
X292827Y270401D01*
Y274399D01*
X306822Y269401D02*
X304823Y271400D01*
Y273400D01*
X306822Y275399D01*
X309821Y269401D02*
Y273400D01*
X310821D01*
X311820Y272400D01*
Y269401D01*
Y272400D01*
X312820Y273400D01*
X313820Y272400D01*
Y269401D01*
X315819D02*
Y273400D01*
X316819D01*
X317818Y272400D01*
Y269401D01*
Y272400D01*
X318818Y273400D01*
X319818Y272400D01*
Y269401D01*
X321817D02*
X323816Y271400D01*
Y273400D01*
X321817Y275399D01*
X163599Y372833D02*
X157601D01*
X160600Y369834D01*
Y373833D01*
X157601Y375832D02*
Y379831D01*
X158601D01*
X162599Y375832D01*
X163599D01*
Y381830D02*
X162599D01*
Y382830D01*
X163599D01*
Y381830D01*
Y389827D02*
X157601D01*
X160600Y386828D01*
Y390827D01*
X158601Y392827D02*
X157601Y393826D01*
Y395826D01*
X158601Y396825D01*
X162599D01*
X163599Y395826D01*
Y393826D01*
X162599Y392827D01*
X158601D01*
X163599Y406822D02*
X161600Y404823D01*
X159600D01*
X157601Y406822D01*
X163599Y409821D02*
X159600D01*
Y410821D01*
X160600Y411820D01*
X163599D01*
X160600D01*
X159600Y412820D01*
X160600Y413820D01*
X163599D01*
Y415819D02*
X159600D01*
Y416819D01*
X160600Y417818D01*
X163599D01*
X160600D01*
X159600Y418818D01*
X160600Y419818D01*
X163599D01*
Y421817D02*
X161600Y423816D01*
X159600D01*
X157601Y421817D01*
M02*
