%FSLAX25Y25*%
%MOIN*%
G70*
G01*
G75*
G04 Layer_Physical_Order=1*
G04 Layer_Color=255*
%ADD10R,0.04331X0.03937*%
%ADD11R,0.03937X0.04331*%
%ADD12R,0.06496X0.01181*%
%ADD13O,0.04921X0.01181*%
%ADD14O,0.02165X0.06496*%
%ADD15O,0.06496X0.02165*%
%ADD16R,0.08465X0.01575*%
%ADD17R,0.08465X0.01575*%
%ADD18R,0.15748X0.39370*%
%ADD19R,0.05906X0.05118*%
%ADD20O,0.07087X0.02362*%
%ADD21R,0.16535X0.16535*%
%ADD22C,0.03937*%
%ADD23C,0.00787*%
%ADD24C,0.01000*%
%ADD25C,0.01575*%
%ADD26C,0.01969*%
%ADD27C,0.01181*%
%ADD28C,0.07874*%
%ADD29C,0.01890*%
%ADD30C,0.00630*%
%ADD31C,0.03150*%
%ADD32C,0.01260*%
%ADD33C,0.05906*%
%ADD34C,0.05906*%
%ADD35R,0.05906X0.05906*%
%ADD36C,0.15000*%
%ADD37R,0.05906X0.05906*%
%ADD38R,0.05315X0.05315*%
%ADD39C,0.05315*%
%ADD40C,0.05000*%
%ADD41C,0.03937*%
G36*
X389500Y477000D02*
X387634D01*
X387267Y477886D01*
X386667Y478667D01*
X385886Y479267D01*
X384976Y479644D01*
X384000Y479772D01*
X383024Y479644D01*
X382114Y479267D01*
X381332Y478667D01*
X380733Y477886D01*
X380366Y477000D01*
X377634D01*
X377267Y477886D01*
X376667Y478667D01*
X375886Y479267D01*
X374976Y479644D01*
X374000Y479772D01*
X373024Y479644D01*
X372114Y479267D01*
X371333Y478667D01*
X370733Y477886D01*
X370366Y477000D01*
X368694D01*
X368111Y477116D01*
X367733Y477883D01*
X367907Y478110D01*
X368185Y478781D01*
X368214Y479000D01*
X365499D01*
Y480000D01*
X368214D01*
X368185Y480219D01*
X368166Y480265D01*
X368298Y480462D01*
X368405Y481000D01*
X368298Y481538D01*
X367993Y481993D01*
X367995Y482000D01*
X379000D01*
Y490327D01*
X382151D01*
X382343Y489362D01*
X382114Y489267D01*
X381332Y488667D01*
X380733Y487886D01*
X380356Y486976D01*
X380293Y486500D01*
X387707D01*
X387644Y486976D01*
X387267Y487886D01*
X386667Y488667D01*
X385886Y489267D01*
X385657Y489362D01*
X385849Y490327D01*
X389500D01*
Y477000D01*
D02*
G37*
%LPC*%
G36*
X383500Y485500D02*
X380293D01*
X380356Y485024D01*
X380733Y484114D01*
X381332Y483332D01*
X382114Y482733D01*
X383024Y482356D01*
X383500Y482293D01*
Y485500D01*
D02*
G37*
G36*
X387707D02*
X384500D01*
Y482293D01*
X384976Y482356D01*
X385886Y482733D01*
X386667Y483332D01*
X387267Y484114D01*
X387644Y485024D01*
X387707Y485500D01*
D02*
G37*
%LPD*%
D10*
X270654Y470000D02*
D03*
X277346D02*
D03*
X301346Y430000D02*
D03*
X294654D02*
D03*
X301346Y408000D02*
D03*
X294654D02*
D03*
X303346Y360000D02*
D03*
X296654D02*
D03*
X275346Y484000D02*
D03*
X268654D02*
D03*
X259346D02*
D03*
X252654D02*
D03*
X335346Y468000D02*
D03*
X328654D02*
D03*
X314654Y448000D02*
D03*
X321346D02*
D03*
X335346Y484000D02*
D03*
X328654D02*
D03*
X270654Y452000D02*
D03*
X277346D02*
D03*
X290654D02*
D03*
X297346D02*
D03*
D11*
X260000Y338654D02*
D03*
Y345346D02*
D03*
X360000Y366654D02*
D03*
Y373346D02*
D03*
X340000Y428654D02*
D03*
Y435346D02*
D03*
X316000Y357346D02*
D03*
Y350654D02*
D03*
D12*
X241075Y383677D02*
D03*
Y381118D02*
D03*
Y378559D02*
D03*
Y376000D02*
D03*
Y373441D02*
D03*
Y370882D02*
D03*
Y368323D02*
D03*
X262925Y383677D02*
D03*
Y381118D02*
D03*
Y378559D02*
D03*
Y376000D02*
D03*
Y373441D02*
D03*
Y370882D02*
D03*
Y368323D02*
D03*
D13*
X348783Y478953D02*
D03*
Y476984D02*
D03*
Y475016D02*
D03*
Y473047D02*
D03*
X359217Y478953D02*
D03*
Y476984D02*
D03*
Y475016D02*
D03*
Y473047D02*
D03*
D14*
X318976Y406535D02*
D03*
X322126D02*
D03*
X325276D02*
D03*
X328425D02*
D03*
X331575D02*
D03*
X334724D02*
D03*
X337874D02*
D03*
X341024D02*
D03*
Y373465D02*
D03*
X337874D02*
D03*
X334724D02*
D03*
X331575D02*
D03*
X328425D02*
D03*
X325276D02*
D03*
X322126D02*
D03*
X318976D02*
D03*
D15*
X346535Y401024D02*
D03*
Y397874D02*
D03*
Y394724D02*
D03*
Y391575D02*
D03*
Y388425D02*
D03*
Y385276D02*
D03*
Y382126D02*
D03*
Y378976D02*
D03*
X313465D02*
D03*
Y382126D02*
D03*
Y385276D02*
D03*
Y388425D02*
D03*
Y391575D02*
D03*
Y394724D02*
D03*
Y397874D02*
D03*
Y401024D02*
D03*
D16*
X242894Y333043D02*
D03*
Y335602D02*
D03*
Y338161D02*
D03*
Y340721D02*
D03*
Y343280D02*
D03*
Y345839D02*
D03*
Y348398D02*
D03*
Y350957D02*
D03*
X217106Y333043D02*
D03*
Y335602D02*
D03*
Y338161D02*
D03*
Y340721D02*
D03*
Y343280D02*
D03*
Y345839D02*
D03*
Y348398D02*
D03*
X302894Y333043D02*
D03*
Y335602D02*
D03*
Y338161D02*
D03*
Y340721D02*
D03*
Y343280D02*
D03*
Y345839D02*
D03*
Y348398D02*
D03*
Y350957D02*
D03*
X277106Y333043D02*
D03*
Y335602D02*
D03*
Y338161D02*
D03*
Y340721D02*
D03*
Y343280D02*
D03*
Y345839D02*
D03*
Y348398D02*
D03*
D17*
X217106Y350957D02*
D03*
X277106D02*
D03*
D18*
X278500Y416500D02*
D03*
X237500Y416000D02*
D03*
D19*
X256000Y463740D02*
D03*
Y456260D02*
D03*
D20*
X318173Y468500D02*
D03*
Y473500D02*
D03*
Y478500D02*
D03*
Y483500D02*
D03*
X289827Y468500D02*
D03*
Y473500D02*
D03*
Y478500D02*
D03*
Y483500D02*
D03*
D21*
X304000Y476000D02*
D03*
D22*
X365500Y479500D02*
X369000D01*
X214000Y423000D02*
Y432000D01*
X225500Y443500D01*
X262154D02*
X270654Y452000D01*
X225500Y443500D02*
X262154D01*
X270654Y452000D02*
Y460154D01*
X277346Y466846D01*
Y470000D01*
Y473846D01*
X282000Y478500D01*
D23*
X340000Y436000D02*
X344000Y440000D01*
X340000Y435346D02*
Y436000D01*
X342346Y433000D02*
X354400D01*
X340000Y435346D02*
X342346Y433000D01*
X354400D02*
X357000Y435600D01*
X337874Y368574D02*
Y373465D01*
Y367374D02*
Y368574D01*
X332300Y363000D02*
X337874Y368574D01*
X332300Y363000D02*
X333500D01*
X330900Y361600D02*
X332300Y363000D01*
X348783Y475016D02*
X353016D01*
X354000Y476000D01*
X358000Y486000D02*
X374000D01*
X359217Y476984D02*
X365484D01*
X242894Y350957D02*
X246457D01*
X260000Y345346D02*
Y348800D01*
Y349400D01*
X277000Y415000D02*
X278500Y416500D01*
Y422400D01*
X302894Y350957D02*
X306300D01*
Y352746D02*
X308554Y355000D01*
X356846Y366654D02*
X360000D01*
X352300Y371200D02*
Y380226D01*
Y371200D02*
X356846Y366654D01*
X350400Y382126D02*
X352300Y380226D01*
X340000Y428000D02*
Y428654D01*
X335346Y476846D02*
Y484000D01*
X359217Y475016D02*
Y476984D01*
X362984D01*
X365484D02*
X366000Y477500D01*
X307500Y390400D02*
Y393600D01*
X309475Y388425D02*
X313465D01*
X220000Y385843D02*
X225250Y380592D01*
Y360800D02*
Y380592D01*
X217100Y352650D02*
X225250Y360800D01*
X217100Y350957D02*
X217106D01*
X235800Y331200D02*
X237643Y333043D01*
X235800Y315800D02*
Y331200D01*
Y315800D02*
X239600Y312000D01*
X255800D01*
X257400Y313600D01*
Y335900D01*
X260000Y338500D01*
Y338654D01*
X240000Y456000D02*
X247740Y463740D01*
X256000D01*
X268654Y481554D02*
Y484000D01*
X256000Y468900D02*
X268654Y481554D01*
X256000Y463740D02*
Y468900D01*
X265400Y350957D02*
X277106D01*
X264100Y349657D02*
X265400Y350957D01*
X264100Y340354D02*
Y349657D01*
X262400Y338654D02*
X264100Y340354D01*
X260000Y338654D02*
X262400D01*
X328654Y465600D02*
Y468000D01*
X304000Y476000D02*
X314400Y465600D01*
X306957Y426800D02*
X310157Y430000D01*
X295854Y426800D02*
X306957D01*
X294654Y428000D02*
X295854Y426800D01*
X294654Y428000D02*
Y430000D01*
X239500Y329900D02*
X239600Y330000D01*
Y333043D02*
X242894D01*
X284800Y456600D02*
X286700D01*
X277346Y452000D02*
X280200D01*
X360000Y373346D02*
Y380200D01*
X321346Y448000D02*
Y453893D01*
X328654Y461200D01*
X302894Y333043D02*
X306400D01*
X298043D02*
X302894D01*
X295800Y330800D02*
X298043Y333043D01*
X295800Y313600D02*
Y330800D01*
Y313600D02*
X297500Y311900D01*
X313600D01*
X317900Y316200D01*
Y338500D01*
X316000Y340400D02*
X317900Y338500D01*
X316000Y340400D02*
Y350654D01*
X304000Y468500D02*
Y476000D01*
X289600Y360000D02*
X296654D01*
X241075Y368323D02*
X241900D01*
X237643Y333043D02*
X239600D01*
X289827Y468500D02*
X293300D01*
X314400Y465600D02*
X328654D01*
Y461200D02*
Y465600D01*
X280200Y452000D02*
X284800Y456600D01*
X296500Y468500D02*
X304000Y476000D01*
X341024Y362400D02*
X341824Y361600D01*
X366000D01*
X341024Y362400D02*
Y373465D01*
X369200Y364800D02*
Y420800D01*
X366000Y361600D02*
X369200Y364800D01*
X362000Y428000D02*
X369200Y420800D01*
X324500Y360000D02*
X327500Y363000D01*
X324500Y347500D02*
Y360000D01*
Y347500D02*
X334000Y338000D01*
X342000D01*
X348000Y330000D02*
Y332000D01*
X342000Y338000D02*
X348000Y332000D01*
X333500Y363000D02*
X337874Y367374D01*
X377000Y345500D02*
X379500D01*
X386000Y352000D01*
X334724Y400576D02*
Y406535D01*
X331575Y396400D02*
Y406535D01*
X210040Y345860D02*
X212620Y343280D01*
X210040Y345860D02*
Y358240D01*
X212620Y343280D02*
X217106D01*
X210040Y358240D02*
X214316Y362516D01*
X216100Y377342D02*
Y391300D01*
X214316Y362516D02*
X223642D01*
Y369800D01*
X216100Y377342D02*
X223642Y369800D01*
X309600Y401024D02*
X313465D01*
X309600D02*
Y406100D01*
X289700Y411600D02*
X304100D01*
X309600Y406100D01*
X237400Y349398D02*
X238400Y348398D01*
X237400Y352400D02*
X240000Y355000D01*
X237400Y349398D02*
Y352400D01*
X238400Y348398D02*
X242894D01*
X244200Y355000D02*
X247600Y358400D01*
X240000Y355000D02*
X244200D01*
X241075Y373441D02*
Y376000D01*
Y373441D02*
X245700D01*
X241075Y376000D02*
X246000D01*
X247130Y374871D02*
X247600Y374400D01*
X245700Y373441D02*
X247130Y374871D01*
X246000Y376000D02*
X247130Y374871D01*
X247600Y375341D01*
Y358400D02*
Y374400D01*
Y375341D02*
Y386200D01*
X298400Y393100D02*
X309374Y382126D01*
X298000Y397200D02*
X298400Y397600D01*
X309374Y382126D02*
X313465D01*
X298400Y397600D02*
X301346Y400546D01*
Y408000D01*
X303346Y360000D02*
X309500Y366154D01*
X298000Y378000D02*
X312488D01*
X309500Y366154D02*
Y372500D01*
X313465Y376465D01*
Y378976D01*
X312488Y378000D02*
X313465Y378976D01*
X242894Y343280D02*
X249280D01*
X251600Y345600D01*
X315600Y373500D02*
X316800Y372300D01*
X315600Y373500D02*
Y373900D01*
X318976Y372300D02*
Y373465D01*
X269800Y343900D02*
X270420Y343280D01*
X277106D01*
Y348398D02*
X282200Y349000D01*
X295100D01*
X262925Y370882D02*
Y373441D01*
X287200Y370882D02*
X292800Y365282D01*
X262925Y370882D02*
X287200D01*
X315799Y365539D02*
X322665D01*
X325276Y368150D01*
Y373465D01*
X302894Y348398D02*
X307200D01*
X311200Y352398D01*
Y352600D01*
X262925Y378559D02*
Y381118D01*
X285782D01*
X295900Y371000D01*
X302848D01*
X302894Y343280D02*
X310520D01*
X309100Y361200D02*
X320973D01*
X310520Y343280D02*
X311600Y342200D01*
X320973Y361200D02*
X327573Y367800D01*
X329775D01*
X331575Y369600D01*
Y373465D01*
X322500Y347000D02*
Y360500D01*
Y347000D02*
X330000Y339500D01*
X322500Y360500D02*
X327000Y365000D01*
X332000D01*
X330000Y330000D02*
Y339500D01*
X332000Y365000D02*
X334724Y367724D01*
Y373465D01*
X303800Y430000D02*
X307700Y433900D01*
X301346Y430000D02*
X303800D01*
X307700Y433900D02*
X325943D01*
X329843Y430000D01*
X344600Y401024D02*
X346535D01*
X339200Y425300D02*
X344600Y419900D01*
X336800Y425300D02*
X339200D01*
X336800D02*
Y440800D01*
X350700Y454700D01*
X368000D01*
X371700Y451000D01*
X376000D01*
X378200Y448800D01*
Y361500D02*
Y448800D01*
X371800Y355100D02*
X378200Y361500D01*
X371800Y339200D02*
Y355100D01*
Y339200D02*
X377100Y333900D01*
X388000Y333100D01*
Y330000D02*
Y333100D01*
X217106Y340721D02*
X233600D01*
X234200Y313472D02*
X237900Y309772D01*
X234200Y313472D02*
Y336300D01*
X238621Y340721D01*
X231550Y342771D02*
X233600Y340721D01*
X237900Y309772D02*
X258300D01*
X259228Y310700D01*
Y330405D01*
X269544Y340721D01*
X277106D01*
X231550Y342771D02*
Y374500D01*
X238621Y340721D02*
X242894D01*
X233600D02*
X238621D01*
X230100Y387400D02*
X236800Y394100D01*
X230100Y375950D02*
X231550Y374500D01*
X230100Y375950D02*
Y387400D01*
X236800Y394100D02*
X253000D01*
X259400Y400500D01*
Y427300D01*
X269500Y437400D01*
X289600D01*
X277106Y340721D02*
X283480D01*
X286450Y337750D02*
X292850D01*
X283480Y340721D02*
X286450Y337750D01*
X292850D02*
X295820Y340721D01*
X302894D01*
X341024Y406535D02*
Y408800D01*
X341200Y408976D01*
X339500Y417700D02*
X341200Y416000D01*
Y408976D02*
Y416000D01*
X291300Y427200D02*
X293300Y425200D01*
X311500D01*
X289600Y437400D02*
X291300Y435700D01*
X311500Y425200D02*
X313600Y427300D01*
X291300Y427200D02*
Y435700D01*
X331500Y417700D02*
X339500D01*
X313600Y427300D02*
X324400D01*
X336200Y413400D02*
X337874Y411726D01*
Y406535D02*
Y411726D01*
X322350Y415925D02*
X325276Y413000D01*
Y406535D02*
Y413000D01*
X322350Y415925D02*
Y422975D01*
X323200Y423824D02*
X331524D01*
X322350Y422975D02*
X323200Y423824D01*
X331524D02*
X333700Y426000D01*
Y450900D01*
X342300Y459500D01*
Y477953D01*
X343300Y478953D01*
X348783D01*
X314900Y420426D02*
Y422700D01*
Y420426D02*
X322126Y413200D01*
Y406535D02*
Y413200D01*
X355575Y467600D02*
Y478953D01*
X359217D01*
X211614Y349583D02*
X212800Y348398D01*
X211614Y355114D02*
X215500Y359000D01*
X211614Y349583D02*
Y355114D01*
X212800Y348398D02*
X217106D01*
X236832Y383677D02*
Y386015D01*
X236347Y386500D02*
X236832Y386015D01*
Y383677D02*
X241075D01*
Y381118D02*
Y383677D01*
X318976Y406535D02*
Y409824D01*
X313600Y412000D02*
X316800D01*
X318976Y409824D01*
X237500Y416000D02*
Y424200D01*
X297100Y452000D02*
X297346D01*
Y453654D01*
X284000Y483500D02*
X289827D01*
X285400Y452000D02*
X290654D01*
X252654Y478946D02*
X252700Y478900D01*
X252654Y478946D02*
Y484000D01*
X318173Y473500D02*
X322400D01*
X323300Y474400D01*
Y486900D01*
X259346Y484000D02*
X262150D01*
X265300Y487150D01*
X272100D01*
X272900Y484000D02*
X275346D01*
X272100Y484800D02*
Y487150D01*
Y484800D02*
X272900Y484000D01*
X249300Y471400D02*
Y486800D01*
X251225Y488725D02*
X309575D01*
X249300Y486800D02*
X251225Y488725D01*
X306300Y447800D02*
X306500Y448000D01*
X314654D01*
X309575Y488725D02*
X314400Y483900D01*
X318173Y483500D01*
X217106Y345839D02*
X222500D01*
X228400Y351739D01*
Y372800D01*
X234159Y378559D02*
X241075D01*
X234300Y348339D02*
X236800Y345839D01*
X234300Y348339D02*
Y368382D01*
X236800Y370882D01*
Y345839D02*
X242894D01*
X236800Y370882D02*
X241075D01*
X272000Y368323D02*
X274412Y365911D01*
X262925Y368323D02*
X272000D01*
X277106Y345839D02*
X285642D01*
X264300Y359900D02*
X273900D01*
X256400Y367800D02*
X264300Y359900D01*
X256400Y367800D02*
Y374400D01*
X258000Y376000D01*
X262925D01*
X289600Y340900D02*
X294539Y345839D01*
X302894D01*
X318173Y468500D02*
X321654D01*
X329654Y474000D01*
X327100Y417475D02*
X328425Y416150D01*
X327100Y417475D02*
Y420675D01*
X328425Y406535D02*
Y416150D01*
X357000Y435600D02*
Y443000D01*
X362000Y448000D01*
X362953Y473047D02*
X365000Y471000D01*
X386500D01*
X359217Y473047D02*
X362953D01*
X384000Y446000D02*
Y447500D01*
X386500Y471000D02*
X389000Y468500D01*
X384000Y447500D02*
X389000Y452500D01*
Y468500D01*
X348700Y366600D02*
X352000Y363300D01*
X346535Y378976D02*
X348700D01*
X352000Y363300D02*
X363200D01*
Y383220D01*
X357800Y388620D02*
Y433800D01*
X362000Y438000D01*
X357800Y388620D02*
X363200Y383220D01*
X348783Y467217D02*
Y473047D01*
X355000Y461000D02*
X381000D01*
X348783Y467217D02*
X355000Y461000D01*
X256000Y451200D02*
Y456260D01*
X255000Y450200D02*
X256000Y451200D01*
X330000Y473346D02*
X335346Y468000D01*
X330000Y473346D02*
Y482000D01*
X346535Y391575D02*
X351425D01*
X352500Y392650D01*
Y407500D01*
X350500Y409500D02*
X352500Y407500D01*
X305000Y415000D02*
X318900Y401100D01*
X313465Y391575D02*
X318900D01*
Y385376D02*
Y391575D01*
X291500Y401500D02*
X293300D01*
X294654Y402854D01*
Y408000D01*
X291000Y402000D02*
X291500Y401500D01*
X291000Y402000D02*
Y403000D01*
X307500Y393600D02*
X308624Y394724D01*
X313465D01*
X307012Y397874D02*
X313465D01*
X306458Y398428D02*
X307012Y397874D01*
X306458Y398458D02*
X306500Y398500D01*
X306458Y398428D02*
Y398458D01*
X366000Y477500D02*
Y479500D01*
X340000Y428000D02*
X355000D01*
X306300Y350957D02*
Y352746D01*
X301200Y468500D02*
X304000D01*
X307500Y390400D02*
X309475Y388425D01*
X306400Y328200D02*
Y333043D01*
X241900Y361600D02*
Y368323D01*
X217100Y350957D02*
Y352650D01*
X239600Y330000D02*
Y333043D01*
X327500Y363000D02*
X332300D01*
X298400Y393100D02*
Y397200D01*
Y397600D01*
X316800Y372300D02*
X318976D01*
X344600Y401024D02*
Y419900D01*
X348700Y366600D02*
Y378976D01*
X381000Y461000D02*
X385000Y457000D01*
X386000Y456000D01*
X332828Y382126D02*
X346535D01*
X328425Y373465D02*
Y382075D01*
X328000Y382500D02*
X328425Y382075D01*
X326695Y385650D02*
X329305D01*
X332828Y382126D01*
X326195Y385150D02*
X326695Y385650D01*
X313465Y385276D02*
X313591Y385150D01*
X326195D01*
X321500Y374091D02*
X322126Y373465D01*
X321500Y374091D02*
Y382000D01*
X334724Y400576D02*
X335800Y399500D01*
X336000D01*
X338828Y397874D02*
X346535D01*
X334154Y393200D02*
X338828Y397874D01*
X340700Y394724D02*
X346535D01*
X337976Y392000D02*
X340700Y394724D01*
X337500Y392000D02*
X337976D01*
X334300Y385600D02*
X337350Y388650D01*
X346311D02*
X346535Y388425D01*
X337350Y388650D02*
X346311D01*
X346311Y385500D02*
X346535Y385276D01*
X340000Y385500D02*
X346311D01*
X278500Y415000D02*
X305000D01*
X277000D02*
X278500D01*
X318900Y391575D02*
Y401100D01*
X328400Y393200D02*
X334154D01*
X326700Y394900D02*
X328400Y393200D01*
X323500Y392500D02*
X325900Y394900D01*
X326700D01*
X354000Y476000D02*
Y482000D01*
X358000Y486000D01*
X348783Y476984D02*
X352425D01*
Y481175D01*
X351000Y482600D02*
X352425Y481175D01*
X351000Y482600D02*
Y486000D01*
D24*
X262925Y383677D02*
Y400925D01*
D25*
X257843Y350957D02*
X260000Y348800D01*
X246457Y350957D02*
X257843D01*
X246457D02*
X252000Y356500D01*
Y390000D01*
X260000Y349400D02*
X265600Y355000D01*
X308554D01*
X252000Y390000D02*
X262925Y400925D01*
X270200Y408200D02*
X277000Y415000D01*
X308554Y355000D02*
X310900Y357346D01*
X316000D01*
X320000Y330000D02*
X330000Y320000D01*
X282000Y472000D02*
X283500Y473500D01*
X282000Y464000D02*
Y472000D01*
X285000Y461000D02*
X290000D01*
X297346Y453654D01*
X282000Y464000D02*
X285000Y461000D01*
X238000Y482000D02*
X240000Y480000D01*
X210500Y330000D02*
Y334500D01*
Y330000D02*
X212000Y328500D01*
X210500Y334500D02*
X211602Y335602D01*
X212000Y320000D02*
Y328500D01*
X211602Y335602D02*
X217106D01*
Y327894D02*
X222000Y323000D01*
X217106Y327894D02*
Y333043D01*
X222000Y320000D02*
Y323000D01*
X240000Y320000D02*
X246000Y314000D01*
X242894Y338161D02*
X249339D01*
X246000Y314000D02*
X253000D01*
X255000Y316000D01*
X249339Y338161D02*
X255000Y332500D01*
Y316000D02*
Y332500D01*
X242894Y335602D02*
X248398D01*
X250000Y334000D01*
Y320000D02*
Y334000D01*
X269974Y334731D02*
X270000Y334705D01*
X269974Y334731D02*
X270335Y335602D01*
X270000Y320000D02*
Y334705D01*
X270335Y335602D02*
X277106D01*
X273000Y327000D02*
X279457Y320543D01*
X273000Y333087D02*
X273043Y333043D01*
X279457Y320543D02*
X280000Y320500D01*
Y320000D02*
Y320500D01*
X273043Y333043D02*
X277106D01*
X300000Y319500D02*
X305000Y314500D01*
X300000Y319500D02*
Y320000D01*
X305000Y314500D02*
X313000D01*
X315000Y316500D01*
X302894Y338161D02*
X310839D01*
X315000Y316500D02*
Y334000D01*
X310839Y338161D02*
X315000Y334000D01*
X302894Y335602D02*
X308398D01*
X310000Y334000D01*
Y320000D02*
Y334000D01*
X207087Y315500D02*
Y342413D01*
Y315500D02*
X214587Y308000D01*
X207087Y342413D02*
X211339Y338161D01*
X214587Y308000D02*
X261000D01*
Y329671D01*
X211339Y338161D02*
X217106D01*
X261000Y329671D02*
X269491Y338161D01*
X277106D01*
X283500Y473500D02*
X289827D01*
X318654Y357346D02*
X320000Y356000D01*
X316000Y357346D02*
X318654D01*
X320000Y355000D02*
Y356000D01*
Y330000D02*
Y355000D01*
X262925Y400925D02*
X270200Y408200D01*
X301200Y460600D02*
Y468500D01*
X293300D02*
X301200Y460600D01*
X273000Y333043D02*
Y333087D01*
Y327000D02*
Y333043D01*
D26*
X348000Y320000D02*
X368000D01*
X330000D02*
X348000D01*
X368000D02*
X388000D01*
X251800Y424200D02*
X274100Y446500D01*
X294400D01*
X297100Y449200D01*
X267500Y470000D02*
Y475200D01*
Y470000D02*
X270654D01*
X207244Y366157D02*
X220000D01*
X282000Y478500D02*
X289827D01*
X264000Y422400D02*
X278500D01*
X297100Y449200D02*
Y452000D01*
X237500Y424200D02*
X251800D01*
D27*
X346535Y382126D02*
X350400D01*
X355000Y386726D01*
Y428000D01*
D28*
X214000Y482000D02*
X238000D01*
X214000Y462000D02*
Y482000D01*
Y403000D02*
Y423000D01*
D29*
X318173Y478500D02*
X324700D01*
Y478600D01*
D30*
X384000Y456000D02*
X386000D01*
D31*
X207087Y342413D02*
Y396087D01*
X214000Y403000D01*
D32*
X277106Y338161D02*
X282439D01*
X285300Y333700D02*
Y335300D01*
X282439Y338161D02*
X285300Y335300D01*
D33*
X298000Y397200D02*
D03*
Y378000D02*
D03*
D34*
X368000Y310000D02*
D03*
Y320000D02*
D03*
X330000Y310000D02*
D03*
Y320000D02*
D03*
X348000Y310000D02*
D03*
Y320000D02*
D03*
X388000Y310000D02*
D03*
Y320000D02*
D03*
X336000Y352000D02*
D03*
X346000D02*
D03*
X356000D02*
D03*
X366000D02*
D03*
X376000D02*
D03*
X352000Y448000D02*
D03*
X362000D02*
D03*
X352000Y438000D02*
D03*
X362000D02*
D03*
X352000Y428000D02*
D03*
X250000Y320000D02*
D03*
X222000D02*
D03*
X280000D02*
D03*
X310000D02*
D03*
X384000Y366000D02*
D03*
X374000D02*
D03*
X384000Y376000D02*
D03*
X374000D02*
D03*
X384000Y386000D02*
D03*
X374000D02*
D03*
X384000Y396000D02*
D03*
X374000D02*
D03*
X384000Y406000D02*
D03*
X374000D02*
D03*
X384000Y416000D02*
D03*
X374000D02*
D03*
X384000Y426000D02*
D03*
X374000D02*
D03*
X384000Y436000D02*
D03*
X374000D02*
D03*
X384000Y446000D02*
D03*
X374000D02*
D03*
X384000Y456000D02*
D03*
X374000D02*
D03*
X384000Y466000D02*
D03*
X374000D02*
D03*
X384000Y476000D02*
D03*
X374000D02*
D03*
X384000Y486000D02*
D03*
D35*
X368000Y330000D02*
D03*
X330000D02*
D03*
X348000D02*
D03*
X388000D02*
D03*
X362000Y428000D02*
D03*
X374000Y486000D02*
D03*
D36*
X240000Y480000D02*
D03*
Y456000D02*
D03*
X214000Y423000D02*
D03*
Y462000D02*
D03*
Y403000D02*
D03*
Y482000D02*
D03*
D37*
X386000Y352000D02*
D03*
X240000Y320000D02*
D03*
X212000D02*
D03*
X270000D02*
D03*
X300000D02*
D03*
D38*
X220000Y366157D02*
D03*
X282000D02*
D03*
D39*
X220000Y385843D02*
D03*
X282000D02*
D03*
D40*
X344000Y440000D02*
D03*
D41*
X264000Y422400D02*
D03*
X335346Y476846D02*
D03*
X365500Y479500D02*
D03*
X239500Y329900D02*
D03*
X286700Y456600D02*
D03*
X360000Y380200D02*
D03*
X301500Y461500D02*
D03*
X241900Y361600D02*
D03*
X306400Y328200D02*
D03*
X289600Y360000D02*
D03*
X330900Y361600D02*
D03*
X377000Y345500D02*
D03*
X216100Y391300D02*
D03*
X289700Y411600D02*
D03*
X247600Y386200D02*
D03*
X251600Y345600D02*
D03*
X315600Y373900D02*
D03*
X269800Y343900D02*
D03*
X292800Y365282D02*
D03*
X295100Y349000D02*
D03*
X315799Y365539D02*
D03*
X302848Y371000D02*
D03*
X311200Y352600D02*
D03*
X309100Y361200D02*
D03*
X311600Y342200D02*
D03*
X331500Y417700D02*
D03*
X324400Y427300D02*
D03*
X336200Y413400D02*
D03*
X314900Y422700D02*
D03*
X355575Y467600D02*
D03*
X215500Y359000D02*
D03*
X236347Y386500D02*
D03*
X313600Y412000D02*
D03*
X284000Y483500D02*
D03*
X285400Y452000D02*
D03*
X252700Y478900D02*
D03*
X323300Y486900D02*
D03*
X249300Y471400D02*
D03*
X306300Y447800D02*
D03*
X228400Y372800D02*
D03*
X234159Y378559D02*
D03*
X274412Y365911D02*
D03*
X285642Y345839D02*
D03*
X273900Y359900D02*
D03*
X289600Y340900D02*
D03*
X267500Y475200D02*
D03*
X326000Y478500D02*
D03*
X327100Y420675D02*
D03*
X285300Y333700D02*
D03*
X255000Y450000D02*
D03*
X350500Y409500D02*
D03*
X331575Y396400D02*
D03*
X307500Y389000D02*
D03*
X291000Y403000D02*
D03*
X306500Y398500D02*
D03*
X310000Y430000D02*
D03*
X330000D02*
D03*
X334300Y385600D02*
D03*
X328000Y382500D02*
D03*
X321500Y382000D02*
D03*
X336000Y399500D02*
D03*
X337500Y392000D02*
D03*
X340000Y385500D02*
D03*
X323500Y392500D02*
D03*
X351000Y486000D02*
D03*
M02*
