M48
;Layer_Color=9474304
;FILE_FORMAT=2:3
INCH,LZ
;TYPE=PLATED
T1F00S00C0.024
T2F00S00C0.028
T3F00S00C0.031
T4F00S00C0.035
T5F00S00C0.078
%
T01
X02395Y03299
X02516Y03456
X02698Y03439
X02856Y03458
X02896Y03409
X02853Y03337
X02951Y0349
X02896Y036
X02928Y03653
X03028Y0371
X03091Y03612
X03112Y03526
X03116Y03422
X03064Y03282
X03075Y0389
X03065Y03985
X0291Y0403
X02897Y04116
X0264Y04224
X0255Y045
X02854Y0452
X02867Y04566
X03015Y04615
X03063Y04478
X031Y043
X02744Y03659
X02739Y03599
X02419Y03616
X02284Y03728
X02342Y03786
X02363Y03865
X02476Y03862
X02161Y03913
X02155Y0359
X03158Y03655
X03156Y03739
X03215Y0382
X0328Y03825
X03343Y03856
X034Y03855
X03375Y0392
X0336Y03995
X03316Y03964
X03235Y03925
X03136Y0412
X03149Y04227
X03244Y04273
X033Y043
X03271Y04207
X03315Y04177
X03362Y04134
X03505Y04095
X036Y03802
X03309Y03616
X0377Y03455
X03556Y04676
X03655Y04795
X0351Y0486
X03353Y04768
X0326Y04785
X03233Y04869
X0284Y04835
X02675Y04752
X02527Y04789
X02493Y04714
T02
X0344Y044
T03
X022Y03662
Y03858
X0282
Y03662
T04
X033Y031
X0348
X0368
X0388
X031Y032
X03
X028
X027
X025
X024
X0222
X0212
X0298Y0378
Y03972
X0374Y0396
Y0386
Y0376
Y0366
X0384
Y0376
Y0386
Y0396
Y0406
X0374
Y0416
X0384
Y0426
X0374
Y0436
X0384
Y0446
X0374
Y0456
X0384
Y0466
X0374
X0362Y0448
X0352
Y0438
X0362
Y0428
X0352
X0356Y0352
X0346
X0336
X033Y033
Y032
X0348
Y033
X0368
Y032
X0388
Y033
X0386Y0352
X0376
X0366
X0374Y0476
X0384
Y0486
X0374
T05
X0214Y0403
Y0423
Y0462
X024Y0456
Y048
X0214Y0482
M30
