%FSLAX25Y25*%
%MOIN*%
G70*
G01*
G75*
%ADD10R,0.04331X0.03937*%
%ADD11R,0.03937X0.04331*%
%ADD12R,0.06496X0.01181*%
%ADD13O,0.04921X0.01181*%
%ADD14O,0.02165X0.06496*%
%ADD15O,0.06496X0.02165*%
%ADD16R,0.08465X0.01575*%
%ADD17R,0.08465X0.01575*%
%ADD18R,0.15748X0.39370*%
%ADD19R,0.05906X0.05118*%
%ADD20O,0.07087X0.02362*%
%ADD21R,0.16535X0.16535*%
%ADD22C,0.03937*%
%ADD23C,0.00787*%
%ADD24C,0.01000*%
%ADD25C,0.01575*%
%ADD26C,0.01969*%
%ADD27C,0.01181*%
%ADD28C,0.07874*%
%ADD29C,0.01890*%
%ADD30C,0.00630*%
%ADD31C,0.03150*%
%ADD32C,0.01260*%
%ADD33C,0.05906*%
%ADD34C,0.05906*%
%ADD35R,0.05906X0.05906*%
%ADD36C,0.15000*%
%ADD37R,0.05906X0.05906*%
%ADD38R,0.05315X0.05315*%
%ADD39C,0.05315*%
%ADD40C,0.05000*%
%ADD41C,0.03937*%
%ADD42C,0.00984*%
%ADD43C,0.02362*%
%ADD44C,0.00800*%
%ADD45R,0.05131X0.04737*%
%ADD46R,0.04737X0.05131*%
%ADD47R,0.07296X0.01981*%
%ADD48O,0.05721X0.01981*%
%ADD49O,0.02965X0.07296*%
%ADD50O,0.07296X0.02965*%
%ADD51R,0.09265X0.02375*%
%ADD52R,0.09265X0.02375*%
%ADD53R,0.16548X0.40170*%
%ADD54R,0.06706X0.05918*%
%ADD55O,0.07887X0.03162*%
%ADD56R,0.17335X0.17335*%
%ADD57C,0.06706*%
%ADD58C,0.06706*%
%ADD59R,0.06706X0.06706*%
%ADD60C,0.15800*%
%ADD61R,0.06706X0.06706*%
%ADD62R,0.06115X0.06115*%
%ADD63C,0.06115*%
%ADD64C,0.05800*%
%ADD65C,0.04737*%
%ADD66C,0.00600*%
%ADD67C,0.00394*%
%ADD68C,0.00667*%
%ADD69C,0.01600*%
D24*
X416850Y315998D02*
Y310000D01*
X419849D01*
X420849Y311000D01*
Y314998D01*
X419849Y315998D01*
X416850D01*
X422848Y313999D02*
Y310000D01*
Y311999D01*
X423848Y312999D01*
X424848Y313999D01*
X425847D01*
X428847Y310000D02*
X430846D01*
X429846D01*
Y313999D01*
X428847D01*
X433845Y310000D02*
X435844D01*
X434845D01*
Y315998D01*
X433845D01*
X438843Y310000D02*
X440843D01*
X439843D01*
Y315998D01*
X438843D01*
X449840D02*
Y310000D01*
X452839D01*
X453838Y311000D01*
Y314998D01*
X452839Y315998D01*
X449840D01*
X455838Y313999D02*
Y310000D01*
Y311999D01*
X456837Y312999D01*
X457837Y313999D01*
X458837D01*
X462836D02*
X464835D01*
X465835Y312999D01*
Y310000D01*
X462836D01*
X461836Y311000D01*
X462836Y311999D01*
X465835D01*
X467834Y313999D02*
Y311000D01*
X468834Y310000D01*
X469833Y311000D01*
X470833Y310000D01*
X471833Y311000D01*
Y313999D01*
X473832Y310000D02*
X475831D01*
X474832D01*
Y313999D01*
X473832D01*
X478830Y310000D02*
Y313999D01*
X481829D01*
X482829Y312999D01*
Y310000D01*
X486828Y308001D02*
X487827D01*
X488827Y309000D01*
Y313999D01*
X485828D01*
X484828Y312999D01*
Y311000D01*
X485828Y310000D01*
X488827D01*
X490827D02*
Y311000D01*
X491826D01*
Y310000D01*
X490827D01*
X471237Y385998D02*
X469237Y384998D01*
X467238Y382999D01*
Y381000D01*
X468238Y380000D01*
X470237D01*
X471237Y381000D01*
Y381999D01*
X470237Y382999D01*
X467238D01*
X477235Y385998D02*
X473236D01*
Y382999D01*
X475235Y383999D01*
X476235D01*
X477235Y382999D01*
Y381000D01*
X476235Y380000D01*
X474236D01*
X473236Y381000D01*
X540818Y380000D02*
X536819D01*
X540818Y383999D01*
Y384998D01*
X539818Y385998D01*
X537819D01*
X536819Y384998D01*
X542817D02*
X543817Y385998D01*
X545816D01*
X546816Y384998D01*
Y383999D01*
X545816Y382999D01*
X544817D01*
X545816D01*
X546816Y381999D01*
Y381000D01*
X545816Y380000D01*
X543817D01*
X542817Y381000D01*
X548815Y380000D02*
Y381000D01*
X549815D01*
Y380000D01*
X548815D01*
X557812Y385998D02*
X555813Y384998D01*
X553814Y382999D01*
Y381000D01*
X554813Y380000D01*
X556813D01*
X557812Y381000D01*
Y381999D01*
X556813Y382999D01*
X553814D01*
X563811Y380000D02*
X559812D01*
X563811Y383999D01*
Y384998D01*
X562811Y385998D01*
X560812D01*
X559812Y384998D01*
X569809Y380000D02*
X565810D01*
X569809Y383999D01*
Y384998D01*
X568809Y385998D01*
X566810D01*
X565810Y384998D01*
X571808Y380000D02*
Y383999D01*
X572808D01*
X573807Y382999D01*
Y380000D01*
Y382999D01*
X574807Y383999D01*
X575807Y382999D01*
Y380000D01*
X577806D02*
X579805D01*
X578806D01*
Y383999D01*
X577806D01*
X582804Y380000D02*
X584804D01*
X583804D01*
Y385998D01*
X582804D01*
X595800Y380000D02*
X593801Y381999D01*
Y383999D01*
X595800Y385998D01*
X598799Y384998D02*
X599799Y385998D01*
X601798D01*
X602798Y384998D01*
Y381000D01*
X601798Y380000D01*
X599799D01*
X598799Y381000D01*
Y384998D01*
X604797Y380000D02*
Y381000D01*
X605797D01*
Y380000D01*
X604797D01*
X613794Y385998D02*
X611795Y384998D01*
X609796Y382999D01*
Y381000D01*
X610795Y380000D01*
X612795D01*
X613794Y381000D01*
Y381999D01*
X612795Y382999D01*
X609796D01*
X615794Y380000D02*
Y383999D01*
X616793D01*
X617793Y382999D01*
Y380000D01*
Y382999D01*
X618793Y383999D01*
X619793Y382999D01*
Y380000D01*
X621792D02*
Y383999D01*
X622791D01*
X623791Y382999D01*
Y380000D01*
Y382999D01*
X624791Y383999D01*
X625791Y382999D01*
Y380000D01*
X627790D02*
X629789Y381999D01*
Y383999D01*
X627790Y385998D01*
X640589Y380000D02*
Y385998D01*
X643588D01*
X644588Y384998D01*
Y382999D01*
X643588Y381999D01*
X640589D01*
X646587Y385998D02*
X650586D01*
X648587D01*
Y380000D01*
X652585Y385998D02*
Y380000D01*
Y382999D01*
X656584D01*
Y385998D01*
Y380000D01*
X690977D02*
Y385998D01*
X693976D01*
X694976Y384998D01*
Y382999D01*
X693976Y381999D01*
X690977D01*
X692976D02*
X694976Y380000D01*
X697974D02*
X699974D01*
X700974Y381000D01*
Y382999D01*
X699974Y383999D01*
X697974D01*
X696975Y382999D01*
Y381000D01*
X697974Y380000D01*
X702973Y383999D02*
Y381000D01*
X703973Y380000D01*
X706972D01*
Y383999D01*
X708971Y380000D02*
Y383999D01*
X711970D01*
X712970Y382999D01*
Y380000D01*
X718968Y385998D02*
Y380000D01*
X715969D01*
X714969Y381000D01*
Y382999D01*
X715969Y383999D01*
X718968D01*
X467238Y368000D02*
X469237D01*
X468238D01*
Y373998D01*
X467238Y372998D01*
X540818Y368000D02*
X536819D01*
X540818Y371999D01*
Y372998D01*
X539818Y373998D01*
X537819D01*
X536819Y372998D01*
X542817D02*
X543817Y373998D01*
X545816D01*
X546816Y372998D01*
Y371999D01*
X545816Y370999D01*
X546816Y369999D01*
Y369000D01*
X545816Y368000D01*
X543817D01*
X542817Y369000D01*
Y369999D01*
X543817Y370999D01*
X542817Y371999D01*
Y372998D01*
X543817Y370999D02*
X545816D01*
X548815Y368000D02*
Y371999D01*
X549815D01*
X550815Y370999D01*
Y368000D01*
Y370999D01*
X551815Y371999D01*
X552814Y370999D01*
Y368000D01*
X554813D02*
X556813D01*
X555813D01*
Y371999D01*
X554813D01*
X559812Y368000D02*
X561811D01*
X560812D01*
Y373998D01*
X559812D01*
X572808Y368000D02*
X570808Y369999D01*
Y371999D01*
X572808Y373998D01*
X575807Y372998D02*
X576806Y373998D01*
X578806D01*
X579805Y372998D01*
Y369000D01*
X578806Y368000D01*
X576806D01*
X575807Y369000D01*
Y372998D01*
X581805Y368000D02*
Y369000D01*
X582804D01*
Y368000D01*
X581805D01*
X586803Y373998D02*
X590802D01*
Y372998D01*
X586803Y369000D01*
Y368000D01*
X592801D02*
X594801D01*
X593801D01*
Y373998D01*
X592801Y372998D01*
X597800Y368000D02*
X599799D01*
X598799D01*
Y373998D01*
X597800Y372998D01*
X606797Y368000D02*
X602798D01*
X606797Y371999D01*
Y372998D01*
X605797Y373998D01*
X603798D01*
X602798Y372998D01*
X608796Y368000D02*
Y371999D01*
X609796D01*
X610795Y370999D01*
Y368000D01*
Y370999D01*
X611795Y371999D01*
X612795Y370999D01*
Y368000D01*
X614794D02*
Y371999D01*
X615794D01*
X616793Y370999D01*
Y368000D01*
Y370999D01*
X617793Y371999D01*
X618793Y370999D01*
Y368000D01*
X620792D02*
X622791Y369999D01*
Y371999D01*
X620792Y373998D01*
X640589Y368000D02*
Y373998D01*
X643588D01*
X644588Y372998D01*
Y370999D01*
X643588Y369999D01*
X640589D01*
X646587Y373998D02*
X650586D01*
X648587D01*
Y368000D01*
X652585Y373998D02*
Y368000D01*
Y370999D01*
X656584D01*
Y373998D01*
Y368000D01*
X690977D02*
Y373998D01*
X693976D01*
X694976Y372998D01*
Y370999D01*
X693976Y369999D01*
X690977D01*
X692976D02*
X694976Y368000D01*
X697974D02*
X699974D01*
X700974Y369000D01*
Y370999D01*
X699974Y371999D01*
X697974D01*
X696975Y370999D01*
Y369000D01*
X697974Y368000D01*
X702973Y371999D02*
Y369000D01*
X703973Y368000D01*
X706972D01*
Y371999D01*
X708971Y368000D02*
Y371999D01*
X711970D01*
X712970Y370999D01*
Y368000D01*
X718968Y373998D02*
Y368000D01*
X715969D01*
X714969Y369000D01*
Y370999D01*
X715969Y371999D01*
X718968D01*
X470237Y356000D02*
Y361998D01*
X467238Y358999D01*
X471237D01*
X536819Y360998D02*
X537819Y361998D01*
X539818D01*
X540818Y360998D01*
Y359999D01*
X539818Y358999D01*
X538819D01*
X539818D01*
X540818Y357999D01*
Y357000D01*
X539818Y356000D01*
X537819D01*
X536819Y357000D01*
X542817Y356000D02*
X544817D01*
X543817D01*
Y361998D01*
X542817Y360998D01*
X547816Y356000D02*
Y357000D01*
X548815D01*
Y356000D01*
X547816D01*
X555813D02*
Y361998D01*
X552814Y358999D01*
X556813D01*
X558812Y357000D02*
X559812Y356000D01*
X561811D01*
X562811Y357000D01*
Y360998D01*
X561811Y361998D01*
X559812D01*
X558812Y360998D01*
Y359999D01*
X559812Y358999D01*
X562811D01*
X568809Y361998D02*
X566810Y360998D01*
X564810Y358999D01*
Y357000D01*
X565810Y356000D01*
X567809D01*
X568809Y357000D01*
Y357999D01*
X567809Y358999D01*
X564810D01*
X570808Y356000D02*
Y359999D01*
X571808D01*
X572808Y358999D01*
Y356000D01*
Y358999D01*
X573807Y359999D01*
X574807Y358999D01*
Y356000D01*
X576806D02*
X578806D01*
X577806D01*
Y359999D01*
X576806D01*
X581805Y356000D02*
X583804D01*
X582804D01*
Y361998D01*
X581805D01*
X594801Y356000D02*
X592801Y357999D01*
Y359999D01*
X594801Y361998D01*
X597800Y360998D02*
X598799Y361998D01*
X600799D01*
X601798Y360998D01*
Y357000D01*
X600799Y356000D01*
X598799D01*
X597800Y357000D01*
Y360998D01*
X603798Y356000D02*
Y357000D01*
X604797D01*
Y356000D01*
X603798D01*
X608796Y360998D02*
X609796Y361998D01*
X611795D01*
X612795Y360998D01*
Y359999D01*
X611795Y358999D01*
X612795Y357999D01*
Y357000D01*
X611795Y356000D01*
X609796D01*
X608796Y357000D01*
Y357999D01*
X609796Y358999D01*
X608796Y359999D01*
Y360998D01*
X609796Y358999D02*
X611795D01*
X614794Y356000D02*
Y359999D01*
X615794D01*
X616793Y358999D01*
Y356000D01*
Y358999D01*
X617793Y359999D01*
X618793Y358999D01*
Y356000D01*
X620792D02*
Y359999D01*
X621792D01*
X622791Y358999D01*
Y356000D01*
Y358999D01*
X623791Y359999D01*
X624791Y358999D01*
Y356000D01*
X626790D02*
X628790Y357999D01*
Y359999D01*
X626790Y361998D01*
X640589Y356000D02*
Y361998D01*
X643588D01*
X644588Y360998D01*
Y358999D01*
X643588Y357999D01*
X640589D01*
X646587Y361998D02*
X650586D01*
X648587D01*
Y356000D01*
X652585Y361998D02*
Y356000D01*
Y358999D01*
X656584D01*
Y361998D01*
Y356000D01*
X690977D02*
Y361998D01*
X693976D01*
X694976Y360998D01*
Y358999D01*
X693976Y357999D01*
X690977D01*
X692976D02*
X694976Y356000D01*
X697974D02*
X699974D01*
X700974Y357000D01*
Y358999D01*
X699974Y359999D01*
X697974D01*
X696975Y358999D01*
Y357000D01*
X697974Y356000D01*
X702973Y359999D02*
Y357000D01*
X703973Y356000D01*
X706972D01*
Y359999D01*
X708971Y356000D02*
Y359999D01*
X711970D01*
X712970Y358999D01*
Y356000D01*
X718968Y361998D02*
Y356000D01*
X715969D01*
X714969Y357000D01*
Y358999D01*
X715969Y359999D01*
X718968D01*
X471237Y349998D02*
X469237Y348998D01*
X467238Y346999D01*
Y345000D01*
X468238Y344000D01*
X470237D01*
X471237Y345000D01*
Y345999D01*
X470237Y346999D01*
X467238D01*
X473236Y348998D02*
X474236Y349998D01*
X476235D01*
X477235Y348998D01*
Y345000D01*
X476235Y344000D01*
X474236D01*
X473236Y345000D01*
Y348998D01*
X536819D02*
X537819Y349998D01*
X539818D01*
X540818Y348998D01*
Y347999D01*
X539818Y346999D01*
X538819D01*
X539818D01*
X540818Y345999D01*
Y345000D01*
X539818Y344000D01*
X537819D01*
X536819Y345000D01*
X546816Y349998D02*
X542817D01*
Y346999D01*
X544817Y347999D01*
X545816D01*
X546816Y346999D01*
Y345000D01*
X545816Y344000D01*
X543817D01*
X542817Y345000D01*
X548815Y344000D02*
Y345000D01*
X549815D01*
Y344000D01*
X548815D01*
X556813D02*
Y349998D01*
X553814Y346999D01*
X557812D01*
X559812Y348998D02*
X560812Y349998D01*
X562811D01*
X563811Y348998D01*
Y347999D01*
X562811Y346999D01*
X561811D01*
X562811D01*
X563811Y345999D01*
Y345000D01*
X562811Y344000D01*
X560812D01*
X559812Y345000D01*
X565810Y348998D02*
X566810Y349998D01*
X568809D01*
X569809Y348998D01*
Y347999D01*
X568809Y346999D01*
X567809D01*
X568809D01*
X569809Y345999D01*
Y345000D01*
X568809Y344000D01*
X566810D01*
X565810Y345000D01*
X571808Y344000D02*
Y347999D01*
X572808D01*
X573807Y346999D01*
Y344000D01*
Y346999D01*
X574807Y347999D01*
X575807Y346999D01*
Y344000D01*
X577806D02*
X579805D01*
X578806D01*
Y347999D01*
X577806D01*
X582804Y344000D02*
X584804D01*
X583804D01*
Y349998D01*
X582804D01*
X595800Y344000D02*
X593801Y345999D01*
Y347999D01*
X595800Y349998D01*
X598799Y348998D02*
X599799Y349998D01*
X601798D01*
X602798Y348998D01*
Y345000D01*
X601798Y344000D01*
X599799D01*
X598799Y345000D01*
Y348998D01*
X604797Y344000D02*
Y345000D01*
X605797D01*
Y344000D01*
X604797D01*
X609796Y345000D02*
X610795Y344000D01*
X612795D01*
X613794Y345000D01*
Y348998D01*
X612795Y349998D01*
X610795D01*
X609796Y348998D01*
Y347999D01*
X610795Y346999D01*
X613794D01*
X615794Y344000D02*
Y347999D01*
X616793D01*
X617793Y346999D01*
Y344000D01*
Y346999D01*
X618793Y347999D01*
X619793Y346999D01*
Y344000D01*
X621792D02*
Y347999D01*
X622791D01*
X623791Y346999D01*
Y344000D01*
Y346999D01*
X624791Y347999D01*
X625791Y346999D01*
Y344000D01*
X627790D02*
X629789Y345999D01*
Y347999D01*
X627790Y349998D01*
X640589Y344000D02*
Y349998D01*
X643588D01*
X644588Y348998D01*
Y346999D01*
X643588Y345999D01*
X640589D01*
X646587Y349998D02*
X650586D01*
X648587D01*
Y344000D01*
X652585Y349998D02*
Y344000D01*
Y346999D01*
X656584D01*
Y349998D01*
Y344000D01*
X690977D02*
Y349998D01*
X693976D01*
X694976Y348998D01*
Y346999D01*
X693976Y345999D01*
X690977D01*
X692976D02*
X694976Y344000D01*
X697974D02*
X699974D01*
X700974Y345000D01*
Y346999D01*
X699974Y347999D01*
X697974D01*
X696975Y346999D01*
Y345000D01*
X697974Y344000D01*
X702973Y347999D02*
Y345000D01*
X703973Y344000D01*
X706972D01*
Y347999D01*
X708971Y344000D02*
Y347999D01*
X711970D01*
X712970Y346999D01*
Y344000D01*
X718968Y349998D02*
Y344000D01*
X715969D01*
X714969Y345000D01*
Y346999D01*
X715969Y347999D01*
X718968D01*
X471237Y337998D02*
X469237Y336998D01*
X467238Y334999D01*
Y333000D01*
X468238Y332000D01*
X470237D01*
X471237Y333000D01*
Y333999D01*
X470237Y334999D01*
X467238D01*
X536819Y337998D02*
X540818D01*
Y336998D01*
X536819Y333000D01*
Y332000D01*
X542817Y336998D02*
X543817Y337998D01*
X545816D01*
X546816Y336998D01*
Y335999D01*
X545816Y334999D01*
X546816Y333999D01*
Y333000D01*
X545816Y332000D01*
X543817D01*
X542817Y333000D01*
Y333999D01*
X543817Y334999D01*
X542817Y335999D01*
Y336998D01*
X543817Y334999D02*
X545816D01*
X548815Y332000D02*
Y335999D01*
X549815D01*
X550815Y334999D01*
Y332000D01*
Y334999D01*
X551815Y335999D01*
X552814Y334999D01*
Y332000D01*
X554813D02*
X556813D01*
X555813D01*
Y335999D01*
X554813D01*
X559812Y332000D02*
X561811D01*
X560812D01*
Y337998D01*
X559812D01*
X572808Y332000D02*
X570808Y333999D01*
Y335999D01*
X572808Y337998D01*
X575807Y332000D02*
X577806D01*
X576806D01*
Y337998D01*
X575807Y336998D01*
X580805Y332000D02*
Y333000D01*
X581805D01*
Y332000D01*
X580805D01*
X585804Y333000D02*
X586803Y332000D01*
X588802D01*
X589802Y333000D01*
Y336998D01*
X588802Y337998D01*
X586803D01*
X585804Y336998D01*
Y335999D01*
X586803Y334999D01*
X589802D01*
X591802Y336998D02*
X592801Y337998D01*
X594801D01*
X595800Y336998D01*
Y335999D01*
X594801Y334999D01*
X595800Y333999D01*
Y333000D01*
X594801Y332000D01*
X592801D01*
X591802Y333000D01*
Y333999D01*
X592801Y334999D01*
X591802Y335999D01*
Y336998D01*
X592801Y334999D02*
X594801D01*
X597800Y332000D02*
X599799D01*
X598799D01*
Y337998D01*
X597800Y336998D01*
X606797Y332000D02*
X602798D01*
X606797Y335999D01*
Y336998D01*
X605797Y337998D01*
X603798D01*
X602798Y336998D01*
X608796Y332000D02*
Y335999D01*
X609796D01*
X610795Y334999D01*
Y332000D01*
Y334999D01*
X611795Y335999D01*
X612795Y334999D01*
Y332000D01*
X614794D02*
Y335999D01*
X615794D01*
X616793Y334999D01*
Y332000D01*
Y334999D01*
X617793Y335999D01*
X618793Y334999D01*
Y332000D01*
X620792D02*
X622791Y333999D01*
Y335999D01*
X620792Y337998D01*
X640589Y332000D02*
Y337998D01*
X643588D01*
X644588Y336998D01*
Y334999D01*
X643588Y333999D01*
X640589D01*
X646587Y337998D02*
X650586D01*
X648587D01*
Y332000D01*
X652585Y337998D02*
Y332000D01*
Y334999D01*
X656584D01*
Y337998D01*
Y332000D01*
X690977D02*
Y337998D01*
X693976D01*
X694976Y336998D01*
Y334999D01*
X693976Y333999D01*
X690977D01*
X692976D02*
X694976Y332000D01*
X697974D02*
X699974D01*
X700974Y333000D01*
Y334999D01*
X699974Y335999D01*
X697974D01*
X696975Y334999D01*
Y333000D01*
X697974Y332000D01*
X702973Y335999D02*
Y333000D01*
X703973Y332000D01*
X706972D01*
Y335999D01*
X708971Y332000D02*
Y335999D01*
X711970D01*
X712970Y334999D01*
Y332000D01*
X718968Y337998D02*
Y332000D01*
X715969D01*
X714969Y333000D01*
Y334999D01*
X715969Y335999D01*
X718968D01*
X467238Y320000D02*
X469237D01*
X468238D01*
Y325998D01*
X467238Y324998D01*
X472236D02*
X473236Y325998D01*
X475235D01*
X476235Y324998D01*
Y323999D01*
X475235Y322999D01*
X474236D01*
X475235D01*
X476235Y321999D01*
Y321000D01*
X475235Y320000D01*
X473236D01*
X472236Y321000D01*
X482233Y325998D02*
X480234Y324998D01*
X478234Y322999D01*
Y321000D01*
X479234Y320000D01*
X481233D01*
X482233Y321000D01*
Y321999D01*
X481233Y322999D01*
X478234D01*
X493033Y325998D02*
X497032D01*
X495033D01*
Y320000D01*
X500031D02*
X502030D01*
X503030Y321000D01*
Y322999D01*
X502030Y323999D01*
X500031D01*
X499031Y322999D01*
Y321000D01*
X500031Y320000D01*
X506029Y324998D02*
Y323999D01*
X505029D01*
X507029D01*
X506029D01*
Y321000D01*
X507029Y320000D01*
X511027Y323999D02*
X513027D01*
X514026Y322999D01*
Y320000D01*
X511027D01*
X510028Y321000D01*
X511027Y321999D01*
X514026D01*
X516026Y320000D02*
X518025D01*
X517025D01*
Y325998D01*
X516026D01*
D44*
X421650Y335000D02*
G03*
X421650Y335000I-2400J0D01*
G01*
D67*
X296000Y395200D02*
Y399200D01*
X300000D01*
Y395200D01*
X296000D01*
Y376000D02*
Y380000D01*
X300000D01*
Y376000D01*
X296000D01*
X366000Y308000D02*
Y312000D01*
X370000D01*
Y308000D01*
X366000D01*
Y318000D02*
Y322000D01*
X370000D01*
Y318000D01*
X366000D01*
Y328000D02*
Y332000D01*
X370000D01*
Y328000D01*
X366000D01*
X328000Y308000D02*
Y312000D01*
X332000D01*
Y308000D01*
X328000D01*
Y318000D02*
Y322000D01*
X332000D01*
Y318000D01*
X328000D01*
Y328000D02*
Y332000D01*
X332000D01*
Y328000D01*
X328000D01*
X346000Y308000D02*
Y312000D01*
X350000D01*
Y308000D01*
X346000D01*
Y318000D02*
Y322000D01*
X350000D01*
Y318000D01*
X346000D01*
Y328000D02*
Y332000D01*
X350000D01*
Y328000D01*
X346000D01*
X386000Y308000D02*
Y312000D01*
X390000D01*
Y308000D01*
X386000D01*
Y318000D02*
Y322000D01*
X390000D01*
Y318000D01*
X386000D01*
Y328000D02*
Y332000D01*
X390000D01*
Y328000D01*
X386000D01*
X334000Y350000D02*
Y354000D01*
X338000D01*
Y350000D01*
X334000D01*
X344000D02*
Y354000D01*
X348000D01*
Y350000D01*
X344000D01*
X354000D02*
Y354000D01*
X358000D01*
Y350000D01*
X354000D01*
X364000D02*
Y354000D01*
X368000D01*
Y350000D01*
X364000D01*
X374000D02*
Y354000D01*
X378000D01*
Y350000D01*
X374000D01*
X384000D02*
Y354000D01*
X388000D01*
Y350000D01*
X384000D01*
X350000Y446000D02*
Y450000D01*
X354000D01*
Y446000D01*
X350000D01*
X360000D02*
Y450000D01*
X364000D01*
Y446000D01*
X360000D01*
X350000Y436000D02*
Y440000D01*
X354000D01*
Y436000D01*
X350000D01*
X360000D02*
Y440000D01*
X364000D01*
Y436000D01*
X360000D01*
X350000Y426000D02*
Y430000D01*
X354000D01*
Y426000D01*
X350000D01*
X360000D02*
Y430000D01*
X364000D01*
Y426000D01*
X360000D01*
X238000Y318000D02*
Y322000D01*
X242000D01*
Y318000D01*
X238000D01*
X248000D02*
Y322000D01*
X252000D01*
Y318000D01*
X248000D01*
X210000D02*
Y322000D01*
X214000D01*
Y318000D01*
X210000D01*
X220000D02*
Y322000D01*
X224000D01*
Y318000D01*
X220000D01*
X268000D02*
Y322000D01*
X272000D01*
Y318000D01*
X268000D01*
X278000D02*
Y322000D01*
X282000D01*
Y318000D01*
X278000D01*
X298000D02*
Y322000D01*
X302000D01*
Y318000D01*
X298000D01*
X308000D02*
Y322000D01*
X312000D01*
Y318000D01*
X308000D01*
X382000Y364000D02*
Y368000D01*
X386000D01*
Y364000D01*
X382000D01*
X372000D02*
Y368000D01*
X376000D01*
Y364000D01*
X372000D01*
X382000Y374000D02*
Y378000D01*
X386000D01*
Y374000D01*
X382000D01*
X372000D02*
Y378000D01*
X376000D01*
Y374000D01*
X372000D01*
X382000Y384000D02*
Y388000D01*
X386000D01*
Y384000D01*
X382000D01*
X372000D02*
Y388000D01*
X376000D01*
Y384000D01*
X372000D01*
X382000Y394000D02*
Y398000D01*
X386000D01*
Y394000D01*
X382000D01*
X372000D02*
Y398000D01*
X376000D01*
Y394000D01*
X372000D01*
X382000Y404000D02*
Y408000D01*
X386000D01*
Y404000D01*
X382000D01*
X372000D02*
Y408000D01*
X376000D01*
Y404000D01*
X372000D01*
X382000Y414000D02*
Y418000D01*
X386000D01*
Y414000D01*
X382000D01*
X372000D02*
Y418000D01*
X376000D01*
Y414000D01*
X372000D01*
X382000Y424000D02*
Y428000D01*
X386000D01*
Y424000D01*
X382000D01*
X372000D02*
Y428000D01*
X376000D01*
Y424000D01*
X372000D01*
X382000Y434000D02*
Y438000D01*
X386000D01*
Y434000D01*
X382000D01*
X372000D02*
Y438000D01*
X376000D01*
Y434000D01*
X372000D01*
X382000Y444000D02*
Y448000D01*
X386000D01*
Y444000D01*
X382000D01*
X372000D02*
Y448000D01*
X376000D01*
Y444000D01*
X372000D01*
X382000Y454000D02*
Y458000D01*
X386000D01*
Y454000D01*
X382000D01*
X372000D02*
Y458000D01*
X376000D01*
Y454000D01*
X372000D01*
X382000Y464000D02*
Y468000D01*
X386000D01*
Y464000D01*
X382000D01*
X372000D02*
Y468000D01*
X376000D01*
Y464000D01*
X372000D01*
X382000Y474000D02*
Y478000D01*
X386000D01*
Y474000D01*
X382000D01*
X372000D02*
Y478000D01*
X376000D01*
Y474000D01*
X372000D01*
X382000Y484000D02*
Y488000D01*
X386000D01*
Y484000D01*
X382000D01*
X372000D02*
Y488000D01*
X376000D01*
Y484000D01*
X372000D01*
X220000Y364157D02*
X218000Y368157D01*
X222000D01*
X220000Y364157D01*
Y383843D02*
X218000Y387843D01*
X222000D01*
X220000Y383843D01*
X282000Y364157D02*
X280000Y368157D01*
X284000D01*
X282000Y364157D01*
Y383843D02*
X280000Y387843D01*
X284000D01*
X282000Y383843D01*
X344000Y438000D02*
X345000Y439000D01*
X346000D01*
X345000Y440000D01*
X346000Y441000D01*
X345000D01*
X344000Y442000D01*
X343000Y441000D01*
X342000D01*
X343000Y440000D01*
X342000Y439000D01*
X343000D01*
X344000Y438000D01*
X262000Y420400D02*
X263000Y422400D01*
X262000Y424400D01*
X264000Y423400D01*
X266000Y424400D01*
X265000Y422400D01*
X266000Y420400D01*
X264000Y421400D01*
X262000Y420400D01*
X333346Y474846D02*
X334346Y476846D01*
X333346Y478846D01*
X335346Y477846D01*
X337346Y478846D01*
X336346Y476846D01*
X337346Y474846D01*
X335346Y475846D01*
X333346Y474846D01*
X363500Y477500D02*
X364500Y479500D01*
X363500Y481500D01*
X365500Y480500D01*
X367500Y481500D01*
X366500Y479500D01*
X367500Y477500D01*
X365500Y478500D01*
X363500Y477500D01*
X237500Y327900D02*
X238500Y329900D01*
X237500Y331900D01*
X239500Y330900D01*
X241500Y331900D01*
X240500Y329900D01*
X241500Y327900D01*
X239500Y328900D01*
X237500Y327900D01*
X284700Y454600D02*
X285700Y456600D01*
X284700Y458600D01*
X286700Y457600D01*
X288700Y458600D01*
X287700Y456600D01*
X288700Y454600D01*
X286700Y455600D01*
X284700Y454600D01*
X358000Y378200D02*
X359000Y380200D01*
X358000Y382200D01*
X360000Y381200D01*
X362000Y382200D01*
X361000Y380200D01*
X362000Y378200D01*
X360000Y379200D01*
X358000Y378200D01*
X299500Y459500D02*
X300500Y461500D01*
X299500Y463500D01*
X301500Y462500D01*
X303500Y463500D01*
X302500Y461500D01*
X303500Y459500D01*
X301500Y460500D01*
X299500Y459500D01*
X239900Y359600D02*
X240900Y361600D01*
X239900Y363600D01*
X241900Y362600D01*
X243900Y363600D01*
X242900Y361600D01*
X243900Y359600D01*
X241900Y360600D01*
X239900Y359600D01*
X304400Y326200D02*
X305400Y328200D01*
X304400Y330200D01*
X306400Y329200D01*
X308400Y330200D01*
X307400Y328200D01*
X308400Y326200D01*
X306400Y327200D01*
X304400Y326200D01*
X287600Y358000D02*
X288600Y360000D01*
X287600Y362000D01*
X289600Y361000D01*
X291600Y362000D01*
X290600Y360000D01*
X291600Y358000D01*
X289600Y359000D01*
X287600Y358000D01*
X328900Y359600D02*
X329900Y361600D01*
X328900Y363600D01*
X330900Y362600D01*
X332900Y363600D01*
X331900Y361600D01*
X332900Y359600D01*
X330900Y360600D01*
X328900Y359600D01*
X375000Y343500D02*
X376000Y345500D01*
X375000Y347500D01*
X377000Y346500D01*
X379000Y347500D01*
X378000Y345500D01*
X379000Y343500D01*
X377000Y344500D01*
X375000Y343500D01*
X214100Y389300D02*
X215100Y391300D01*
X214100Y393300D01*
X216100Y392300D01*
X218100Y393300D01*
X217100Y391300D01*
X218100Y389300D01*
X216100Y390300D01*
X214100Y389300D01*
X287700Y409600D02*
X288700Y411600D01*
X287700Y413600D01*
X289700Y412600D01*
X291700Y413600D01*
X290700Y411600D01*
X291700Y409600D01*
X289700Y410600D01*
X287700Y409600D01*
X245600Y384200D02*
X246600Y386200D01*
X245600Y388200D01*
X247600Y387200D01*
X249600Y388200D01*
X248600Y386200D01*
X249600Y384200D01*
X247600Y385200D01*
X245600Y384200D01*
X249600Y343600D02*
X250600Y345600D01*
X249600Y347600D01*
X251600Y346600D01*
X253600Y347600D01*
X252600Y345600D01*
X253600Y343600D01*
X251600Y344600D01*
X249600Y343600D01*
X313600Y371900D02*
X314600Y373900D01*
X313600Y375900D01*
X315600Y374900D01*
X317600Y375900D01*
X316600Y373900D01*
X317600Y371900D01*
X315600Y372900D01*
X313600Y371900D01*
X267800Y341900D02*
X268800Y343900D01*
X267800Y345900D01*
X269800Y344900D01*
X271800Y345900D01*
X270800Y343900D01*
X271800Y341900D01*
X269800Y342900D01*
X267800Y341900D01*
X290800Y363282D02*
X291800Y365282D01*
X290800Y367282D01*
X292800Y366282D01*
X294800Y367282D01*
X293800Y365282D01*
X294800Y363282D01*
X292800Y364282D01*
X290800Y363282D01*
X293100Y347000D02*
X294100Y349000D01*
X293100Y351000D01*
X295100Y350000D01*
X297100Y351000D01*
X296100Y349000D01*
X297100Y347000D01*
X295100Y348000D01*
X293100Y347000D01*
X313799Y363539D02*
X314799Y365539D01*
X313799Y367539D01*
X315799Y366539D01*
X317799Y367539D01*
X316799Y365539D01*
X317799Y363539D01*
X315799Y364539D01*
X313799Y363539D01*
X300848Y369000D02*
X301848Y371000D01*
X300848Y373000D01*
X302848Y372000D01*
X304848Y373000D01*
X303848Y371000D01*
X304848Y369000D01*
X302848Y370000D01*
X300848Y369000D01*
X309200Y350600D02*
X310200Y352600D01*
X309200Y354600D01*
X311200Y353600D01*
X313200Y354600D01*
X312200Y352600D01*
X313200Y350600D01*
X311200Y351600D01*
X309200Y350600D01*
X307100Y359200D02*
X308100Y361200D01*
X307100Y363200D01*
X309100Y362200D01*
X311100Y363200D01*
X310100Y361200D01*
X311100Y359200D01*
X309100Y360200D01*
X307100Y359200D01*
X309600Y340200D02*
X310600Y342200D01*
X309600Y344200D01*
X311600Y343200D01*
X313600Y344200D01*
X312600Y342200D01*
X313600Y340200D01*
X311600Y341200D01*
X309600Y340200D01*
X329500Y415700D02*
X330500Y417700D01*
X329500Y419700D01*
X331500Y418700D01*
X333500Y419700D01*
X332500Y417700D01*
X333500Y415700D01*
X331500Y416700D01*
X329500Y415700D01*
X322400Y425300D02*
X323400Y427300D01*
X322400Y429300D01*
X324400Y428300D01*
X326400Y429300D01*
X325400Y427300D01*
X326400Y425300D01*
X324400Y426300D01*
X322400Y425300D01*
X334200Y411400D02*
X335200Y413400D01*
X334200Y415400D01*
X336200Y414400D01*
X338200Y415400D01*
X337200Y413400D01*
X338200Y411400D01*
X336200Y412400D01*
X334200Y411400D01*
X312900Y420700D02*
X313900Y422700D01*
X312900Y424700D01*
X314900Y423700D01*
X316900Y424700D01*
X315900Y422700D01*
X316900Y420700D01*
X314900Y421700D01*
X312900Y420700D01*
X353575Y465600D02*
X354575Y467600D01*
X353575Y469600D01*
X355575Y468600D01*
X357575Y469600D01*
X356575Y467600D01*
X357575Y465600D01*
X355575Y466600D01*
X353575Y465600D01*
X213500Y357000D02*
X214500Y359000D01*
X213500Y361000D01*
X215500Y360000D01*
X217500Y361000D01*
X216500Y359000D01*
X217500Y357000D01*
X215500Y358000D01*
X213500Y357000D01*
X234347Y384500D02*
X235347Y386500D01*
X234347Y388500D01*
X236347Y387500D01*
X238347Y388500D01*
X237347Y386500D01*
X238347Y384500D01*
X236347Y385500D01*
X234347Y384500D01*
X311600Y410000D02*
X312600Y412000D01*
X311600Y414000D01*
X313600Y413000D01*
X315600Y414000D01*
X314600Y412000D01*
X315600Y410000D01*
X313600Y411000D01*
X311600Y410000D01*
X282000Y481500D02*
X283000Y483500D01*
X282000Y485500D01*
X284000Y484500D01*
X286000Y485500D01*
X285000Y483500D01*
X286000Y481500D01*
X284000Y482500D01*
X282000Y481500D01*
X283400Y450000D02*
X284400Y452000D01*
X283400Y454000D01*
X285400Y453000D01*
X287400Y454000D01*
X286400Y452000D01*
X287400Y450000D01*
X285400Y451000D01*
X283400Y450000D01*
X250700Y476900D02*
X251700Y478900D01*
X250700Y480900D01*
X252700Y479900D01*
X254700Y480900D01*
X253700Y478900D01*
X254700Y476900D01*
X252700Y477900D01*
X250700Y476900D01*
X321300Y484900D02*
X322300Y486900D01*
X321300Y488900D01*
X323300Y487900D01*
X325300Y488900D01*
X324300Y486900D01*
X325300Y484900D01*
X323300Y485900D01*
X321300Y484900D01*
X247300Y469400D02*
X248300Y471400D01*
X247300Y473400D01*
X249300Y472400D01*
X251300Y473400D01*
X250300Y471400D01*
X251300Y469400D01*
X249300Y470400D01*
X247300Y469400D01*
X304300Y445800D02*
X305300Y447800D01*
X304300Y449800D01*
X306300Y448800D01*
X308300Y449800D01*
X307300Y447800D01*
X308300Y445800D01*
X306300Y446800D01*
X304300Y445800D01*
X226400Y370800D02*
X227400Y372800D01*
X226400Y374800D01*
X228400Y373800D01*
X230400Y374800D01*
X229400Y372800D01*
X230400Y370800D01*
X228400Y371800D01*
X226400Y370800D01*
X232159Y376559D02*
X233159Y378559D01*
X232159Y380559D01*
X234159Y379559D01*
X236159Y380559D01*
X235159Y378559D01*
X236159Y376559D01*
X234159Y377559D01*
X232159Y376559D01*
X272412Y363911D02*
X273412Y365911D01*
X272412Y367911D01*
X274412Y366911D01*
X276412Y367911D01*
X275412Y365911D01*
X276412Y363911D01*
X274412Y364911D01*
X272412Y363911D01*
X283642Y343839D02*
X284642Y345839D01*
X283642Y347839D01*
X285642Y346839D01*
X287642Y347839D01*
X286642Y345839D01*
X287642Y343839D01*
X285642Y344839D01*
X283642Y343839D01*
X271900Y357900D02*
X272900Y359900D01*
X271900Y361900D01*
X273900Y360900D01*
X275900Y361900D01*
X274900Y359900D01*
X275900Y357900D01*
X273900Y358900D01*
X271900Y357900D01*
X287600Y338900D02*
X288600Y340900D01*
X287600Y342900D01*
X289600Y341900D01*
X291600Y342900D01*
X290600Y340900D01*
X291600Y338900D01*
X289600Y339900D01*
X287600Y338900D01*
X265500Y473200D02*
X266500Y475200D01*
X265500Y477200D01*
X267500Y476200D01*
X269500Y477200D01*
X268500Y475200D01*
X269500Y473200D01*
X267500Y474200D01*
X265500Y473200D01*
X324000Y476500D02*
X325000Y478500D01*
X324000Y480500D01*
X326000Y479500D01*
X328000Y480500D01*
X327000Y478500D01*
X328000Y476500D01*
X326000Y477500D01*
X324000Y476500D01*
X325100Y418675D02*
X326100Y420675D01*
X325100Y422675D01*
X327100Y421675D01*
X329100Y422675D01*
X328100Y420675D01*
X329100Y418675D01*
X327100Y419675D01*
X325100Y418675D01*
X283300Y331700D02*
X284300Y333700D01*
X283300Y335700D01*
X285300Y334700D01*
X287300Y335700D01*
X286300Y333700D01*
X287300Y331700D01*
X285300Y332700D01*
X283300Y331700D01*
X253000Y448000D02*
X254000Y450000D01*
X253000Y452000D01*
X255000Y451000D01*
X257000Y452000D01*
X256000Y450000D01*
X257000Y448000D01*
X255000Y449000D01*
X253000Y448000D01*
X348500Y407500D02*
X349500Y409500D01*
X348500Y411500D01*
X350500Y410500D01*
X352500Y411500D01*
X351500Y409500D01*
X352500Y407500D01*
X350500Y408500D01*
X348500Y407500D01*
X329575Y394400D02*
X330575Y396400D01*
X329575Y398400D01*
X331575Y397400D01*
X333575Y398400D01*
X332575Y396400D01*
X333575Y394400D01*
X331575Y395400D01*
X329575Y394400D01*
X305500Y387000D02*
X306500Y389000D01*
X305500Y391000D01*
X307500Y390000D01*
X309500Y391000D01*
X308500Y389000D01*
X309500Y387000D01*
X307500Y388000D01*
X305500Y387000D01*
X289000Y401000D02*
X290000Y403000D01*
X289000Y405000D01*
X291000Y404000D01*
X293000Y405000D01*
X292000Y403000D01*
X293000Y401000D01*
X291000Y402000D01*
X289000Y401000D01*
X304500Y396500D02*
X305500Y398500D01*
X304500Y400500D01*
X306500Y399500D01*
X308500Y400500D01*
X307500Y398500D01*
X308500Y396500D01*
X306500Y397500D01*
X304500Y396500D01*
X308000Y428000D02*
X309000Y430000D01*
X308000Y432000D01*
X310000Y431000D01*
X312000Y432000D01*
X311000Y430000D01*
X312000Y428000D01*
X310000Y429000D01*
X308000Y428000D01*
X328000D02*
X329000Y430000D01*
X328000Y432000D01*
X330000Y431000D01*
X332000Y432000D01*
X331000Y430000D01*
X332000Y428000D01*
X330000Y429000D01*
X328000Y428000D01*
X332300Y383600D02*
X333300Y385600D01*
X332300Y387600D01*
X334300Y386600D01*
X336300Y387600D01*
X335300Y385600D01*
X336300Y383600D01*
X334300Y384600D01*
X332300Y383600D01*
X326000Y380500D02*
X327000Y382500D01*
X326000Y384500D01*
X328000Y383500D01*
X330000Y384500D01*
X329000Y382500D01*
X330000Y380500D01*
X328000Y381500D01*
X326000Y380500D01*
X319500Y380000D02*
X320500Y382000D01*
X319500Y384000D01*
X321500Y383000D01*
X323500Y384000D01*
X322500Y382000D01*
X323500Y380000D01*
X321500Y381000D01*
X319500Y380000D01*
X334000Y397500D02*
X335000Y399500D01*
X334000Y401500D01*
X336000Y400500D01*
X338000Y401500D01*
X337000Y399500D01*
X338000Y397500D01*
X336000Y398500D01*
X334000Y397500D01*
X335500Y390000D02*
X336500Y392000D01*
X335500Y394000D01*
X337500Y393000D01*
X339500Y394000D01*
X338500Y392000D01*
X339500Y390000D01*
X337500Y391000D01*
X335500Y390000D01*
X338000Y383500D02*
X339000Y385500D01*
X338000Y387500D01*
X340000Y386500D01*
X342000Y387500D01*
X341000Y385500D01*
X342000Y383500D01*
X340000Y384500D01*
X338000Y383500D01*
X321500Y390500D02*
X322500Y392500D01*
X321500Y394500D01*
X323500Y393500D01*
X325500Y394500D01*
X324500Y392500D01*
X325500Y390500D01*
X323500Y391500D01*
X321500Y390500D01*
X349000Y484000D02*
X350000Y486000D01*
X349000Y488000D01*
X351000Y487000D01*
X353000Y488000D01*
X352000Y486000D01*
X353000Y484000D01*
X351000Y485000D01*
X349000Y484000D01*
X416850Y380600D02*
X418050Y383000D01*
X416850Y385400D01*
X419250Y384200D01*
X421650Y385400D01*
X420450Y383000D01*
X421650Y380600D01*
X419250Y381800D01*
X416850Y380600D01*
X419250Y368600D02*
X420450Y369800D01*
X421650D01*
X420450Y371000D01*
X421650Y372200D01*
X420450D01*
X419250Y373400D01*
X418050Y372200D01*
X416850D01*
X418050Y371000D01*
X416850Y369800D01*
X418050D01*
X419250Y368600D01*
Y356600D02*
X416850Y361400D01*
X421650D01*
X419250Y356600D01*
X416850Y344600D02*
Y349400D01*
X421650D01*
Y344600D01*
X416850D01*
D68*
X242000Y480000D02*
G03*
X242000Y480000I-2000J0D01*
G01*
Y456000D02*
G03*
X242000Y456000I-2000J0D01*
G01*
X216000Y423000D02*
G03*
X216000Y423000I-2000J0D01*
G01*
Y462000D02*
G03*
X216000Y462000I-2000J0D01*
G01*
Y403000D02*
G03*
X216000Y403000I-2000J0D01*
G01*
Y482000D02*
G03*
X216000Y482000I-2000J0D01*
G01*
D69*
X421649Y400398D02*
X420449Y401598D01*
X418050D01*
X416850Y400398D01*
Y399199D01*
X418050Y397999D01*
X420449D01*
X421649Y396799D01*
Y395600D01*
X420449Y394400D01*
X418050D01*
X416850Y395600D01*
X424048Y399199D02*
Y395600D01*
X425248Y394400D01*
X428847D01*
Y393200D01*
X427647Y392001D01*
X426447D01*
X428847Y394400D02*
Y399199D01*
X431246Y394400D02*
Y399199D01*
X432445D01*
X433645Y397999D01*
Y394400D01*
Y397999D01*
X434845Y399199D01*
X436044Y397999D01*
Y394400D01*
X438443Y401598D02*
Y394400D01*
X442042D01*
X443242Y395600D01*
Y396799D01*
Y397999D01*
X442042Y399199D01*
X438443D01*
X446841Y394400D02*
X449240D01*
X450440Y395600D01*
Y397999D01*
X449240Y399199D01*
X446841D01*
X445641Y397999D01*
Y395600D01*
X446841Y394400D01*
X452839D02*
X455238D01*
X454038D01*
Y401598D01*
X452839D01*
X467238D02*
Y394400D01*
Y397999D01*
X472036D01*
Y401598D01*
Y394400D01*
X474436D02*
X476835D01*
X475635D01*
Y399199D01*
X474436D01*
X481633Y400398D02*
Y399199D01*
X480434D01*
X482833D01*
X481633D01*
Y395600D01*
X482833Y394400D01*
X498428Y400398D02*
X497228Y401598D01*
X494829D01*
X493629Y400398D01*
Y395600D01*
X494829Y394400D01*
X497228D01*
X498428Y395600D01*
X502027Y394400D02*
X504426D01*
X505625Y395600D01*
Y397999D01*
X504426Y399199D01*
X502027D01*
X500827Y397999D01*
Y395600D01*
X502027Y394400D01*
X508025Y399199D02*
Y395600D01*
X509224Y394400D01*
X512823D01*
Y399199D01*
X515222Y394400D02*
Y399199D01*
X518821D01*
X520021Y397999D01*
Y394400D01*
X523620Y400398D02*
Y399199D01*
X522420D01*
X524819D01*
X523620D01*
Y395600D01*
X524819Y394400D01*
X536819Y401598D02*
X541618D01*
X539219D01*
Y394400D01*
X545217D02*
X547616D01*
X548815Y395600D01*
Y397999D01*
X547616Y399199D01*
X545217D01*
X544017Y397999D01*
Y395600D01*
X545217Y394400D01*
X552414D02*
X554813D01*
X556013Y395600D01*
Y397999D01*
X554813Y399199D01*
X552414D01*
X551215Y397999D01*
Y395600D01*
X552414Y394400D01*
X558412D02*
X560812D01*
X559612D01*
Y401598D01*
X558412D01*
X576406Y400398D02*
X575207Y401598D01*
X572808D01*
X571608Y400398D01*
Y399199D01*
X572808Y397999D01*
X575207D01*
X576406Y396799D01*
Y395600D01*
X575207Y394400D01*
X572808D01*
X571608Y395600D01*
X578806Y394400D02*
X581205D01*
X580005D01*
Y399199D01*
X578806D01*
X584804D02*
X589602D01*
X584804Y394400D01*
X589602D01*
X595600D02*
X593201D01*
X592001Y395600D01*
Y397999D01*
X593201Y399199D01*
X595600D01*
X596800Y397999D01*
Y396799D01*
X592001D01*
X640589Y394400D02*
Y401598D01*
X644188D01*
X645388Y400398D01*
Y397999D01*
X644188Y396799D01*
X640589D01*
X647787Y394400D02*
X650186D01*
X648986D01*
Y401598D01*
X647787D01*
X654985Y399199D02*
X657384D01*
X658583Y397999D01*
Y394400D01*
X654985D01*
X653785Y395600D01*
X654985Y396799D01*
X658583D01*
X662182Y400398D02*
Y399199D01*
X660983D01*
X663382D01*
X662182D01*
Y395600D01*
X663382Y394400D01*
X670579D02*
X668180D01*
X666981Y395600D01*
Y397999D01*
X668180Y399199D01*
X670579D01*
X671779Y397999D01*
Y396799D01*
X666981D01*
X678977Y401598D02*
Y394400D01*
X675378D01*
X674178Y395600D01*
Y397999D01*
X675378Y399199D01*
X678977D01*
X690977Y401598D02*
Y394400D01*
Y397999D01*
X695775D01*
Y401598D01*
Y394400D01*
X699374D02*
X701773D01*
X702973Y395600D01*
Y397999D01*
X701773Y399199D01*
X699374D01*
X698174Y397999D01*
Y395600D01*
X699374Y394400D01*
X705372D02*
X707771D01*
X706572D01*
Y401598D01*
X705372D01*
X714969Y394400D02*
X712570D01*
X711370Y395600D01*
Y397999D01*
X712570Y399199D01*
X714969D01*
X716169Y397999D01*
Y396799D01*
X711370D01*
X725766Y401598D02*
X730564D01*
X728165D01*
Y394400D01*
X732963Y399199D02*
Y395600D01*
X734163Y394400D01*
X737762D01*
Y393200D01*
X736562Y392001D01*
X735362D01*
X737762Y394400D02*
Y399199D01*
X740161Y392001D02*
Y399199D01*
X743760D01*
X744959Y397999D01*
Y395600D01*
X743760Y394400D01*
X740161D01*
X750957D02*
X748558D01*
X747359Y395600D01*
Y397999D01*
X748558Y399199D01*
X750957D01*
X752157Y397999D01*
Y396799D01*
X747359D01*
X408050Y405200D02*
X764157D01*
X408050Y389000D02*
X764157D01*
X408050Y405200D02*
Y317000D01*
X764157Y405200D02*
Y317000D01*
X462838Y405200D02*
Y317000D01*
X532419Y405200D02*
Y317000D01*
X636189Y405200D02*
Y317000D01*
X686577Y405200D02*
Y317000D01*
X408050Y329000D02*
X764157D01*
X408050Y317000D02*
X764157D01*
M02*
