%FSLAX25Y25*%
%MOIN*%
G70*
G01*
G75*
G04 Layer_Color=16711935*
%ADD10R,0.04331X0.03937*%
%ADD11R,0.03937X0.04331*%
%ADD12R,0.06496X0.01181*%
%ADD13O,0.04921X0.01181*%
%ADD14O,0.02165X0.06496*%
%ADD15O,0.06496X0.02165*%
%ADD16R,0.08465X0.01575*%
%ADD17R,0.08465X0.01575*%
%ADD18R,0.15748X0.39370*%
%ADD19R,0.05906X0.05118*%
%ADD20O,0.07087X0.02362*%
%ADD21R,0.16535X0.16535*%
%ADD22C,0.03937*%
%ADD23C,0.00787*%
%ADD24C,0.01000*%
%ADD25C,0.01575*%
%ADD26C,0.01969*%
%ADD27C,0.01181*%
%ADD28C,0.07874*%
%ADD29C,0.01890*%
%ADD30C,0.00630*%
%ADD31C,0.03150*%
%ADD32C,0.01260*%
%ADD33C,0.05906*%
%ADD34C,0.05906*%
%ADD35R,0.05906X0.05906*%
%ADD36C,0.15000*%
%ADD37R,0.05906X0.05906*%
%ADD38R,0.05315X0.05315*%
%ADD39C,0.05315*%
%ADD40C,0.05000*%
%ADD41C,0.03937*%
%ADD42C,0.00984*%
%ADD43C,0.02362*%
%ADD44C,0.00800*%
%ADD45R,0.05131X0.04737*%
%ADD46R,0.04737X0.05131*%
%ADD47R,0.07296X0.01981*%
%ADD48O,0.05721X0.01981*%
%ADD49O,0.02965X0.07296*%
%ADD50O,0.07296X0.02965*%
%ADD51R,0.09265X0.02375*%
%ADD52R,0.09265X0.02375*%
%ADD53R,0.16548X0.40170*%
%ADD54R,0.06706X0.05918*%
%ADD55O,0.07887X0.03162*%
%ADD56R,0.17335X0.17335*%
%ADD57C,0.06706*%
%ADD58C,0.06706*%
%ADD59R,0.06706X0.06706*%
%ADD60C,0.15800*%
%ADD61R,0.06706X0.06706*%
%ADD62R,0.06115X0.06115*%
%ADD63C,0.06115*%
%ADD64C,0.05800*%
%ADD65C,0.04737*%
D57*
X298000Y397200D02*
D03*
Y378000D02*
D03*
D58*
X368000Y310000D02*
D03*
Y320000D02*
D03*
X330000Y310000D02*
D03*
Y320000D02*
D03*
X348000Y310000D02*
D03*
Y320000D02*
D03*
X388000Y310000D02*
D03*
Y320000D02*
D03*
X336000Y352000D02*
D03*
X346000D02*
D03*
X356000D02*
D03*
X366000D02*
D03*
X376000D02*
D03*
X352000Y448000D02*
D03*
X362000D02*
D03*
X352000Y438000D02*
D03*
X362000D02*
D03*
X352000Y428000D02*
D03*
X250000Y320000D02*
D03*
X222000D02*
D03*
X280000D02*
D03*
X310000D02*
D03*
X384000Y366000D02*
D03*
X374000D02*
D03*
X384000Y376000D02*
D03*
X374000D02*
D03*
X384000Y386000D02*
D03*
X374000D02*
D03*
X384000Y396000D02*
D03*
X374000D02*
D03*
X384000Y406000D02*
D03*
X374000D02*
D03*
X384000Y416000D02*
D03*
X374000D02*
D03*
X384000Y426000D02*
D03*
X374000D02*
D03*
X384000Y436000D02*
D03*
X374000D02*
D03*
X384000Y446000D02*
D03*
X374000D02*
D03*
X384000Y456000D02*
D03*
X374000D02*
D03*
X384000Y466000D02*
D03*
X374000D02*
D03*
X384000Y476000D02*
D03*
X374000D02*
D03*
X384000Y486000D02*
D03*
D59*
X368000Y330000D02*
D03*
X330000D02*
D03*
X348000D02*
D03*
X388000D02*
D03*
X362000Y428000D02*
D03*
X374000Y486000D02*
D03*
D60*
X240000Y480000D02*
D03*
Y456000D02*
D03*
X214000Y423000D02*
D03*
Y462000D02*
D03*
Y403000D02*
D03*
Y482000D02*
D03*
D61*
X386000Y352000D02*
D03*
X240000Y320000D02*
D03*
X212000D02*
D03*
X270000D02*
D03*
X300000D02*
D03*
D62*
X220000Y366157D02*
D03*
X282000D02*
D03*
D63*
X220000Y385843D02*
D03*
X282000D02*
D03*
D64*
X344000Y440000D02*
D03*
D65*
X264000Y422400D02*
D03*
X335346Y476846D02*
D03*
X365500Y479500D02*
D03*
X239500Y329900D02*
D03*
X286700Y456600D02*
D03*
X360000Y380200D02*
D03*
X301500Y461500D02*
D03*
X241900Y361600D02*
D03*
X306400Y328200D02*
D03*
X289600Y360000D02*
D03*
X330900Y361600D02*
D03*
X377000Y345500D02*
D03*
X216100Y391300D02*
D03*
X289700Y411600D02*
D03*
X247600Y386200D02*
D03*
X251600Y345600D02*
D03*
X315600Y373900D02*
D03*
X269800Y343900D02*
D03*
X292800Y365282D02*
D03*
X295100Y349000D02*
D03*
X315799Y365539D02*
D03*
X302848Y371000D02*
D03*
X311200Y352600D02*
D03*
X309100Y361200D02*
D03*
X311600Y342200D02*
D03*
X331500Y417700D02*
D03*
X324400Y427300D02*
D03*
X336200Y413400D02*
D03*
X314900Y422700D02*
D03*
X355575Y467600D02*
D03*
X215500Y359000D02*
D03*
X236347Y386500D02*
D03*
X313600Y412000D02*
D03*
X284000Y483500D02*
D03*
X285400Y452000D02*
D03*
X252700Y478900D02*
D03*
X323300Y486900D02*
D03*
X249300Y471400D02*
D03*
X306300Y447800D02*
D03*
X228400Y372800D02*
D03*
X234159Y378559D02*
D03*
X274412Y365911D02*
D03*
X285642Y345839D02*
D03*
X273900Y359900D02*
D03*
X289600Y340900D02*
D03*
X267500Y475200D02*
D03*
X326000Y478500D02*
D03*
X327100Y420675D02*
D03*
X285300Y333700D02*
D03*
X255000Y450000D02*
D03*
X350500Y409500D02*
D03*
X331575Y396400D02*
D03*
X307500Y389000D02*
D03*
X291000Y403000D02*
D03*
X306500Y398500D02*
D03*
X310000Y430000D02*
D03*
X330000D02*
D03*
X334300Y385600D02*
D03*
X328000Y382500D02*
D03*
X321500Y382000D02*
D03*
X336000Y399500D02*
D03*
X337500Y392000D02*
D03*
X340000Y385500D02*
D03*
X323500Y392500D02*
D03*
X351000Y486000D02*
D03*
M02*
