%FSTAX23Y23*%
%MOIN*%
%SFA1B1*%

%IPPOS*%
%ADD22C,0.007870*%
%ADD24C,0.015750*%
%ADD25C,0.019690*%
%ADD28C,0.012600*%
%ADD33C,0.053150*%
%ADD34R,0.053150X0.053150*%
%ADD35R,0.059060X0.059060*%
%ADD36C,0.059060*%
%ADD37R,0.059060X0.059060*%
%ADD38C,0.150000*%
%ADD39C,0.059060*%
%ADD40C,0.039370*%
%ADD41C,0.050000*%
%LNpaw7-1*%
%LPD*%
G36*
X03231Y04166D02*
D01*
X03235Y04163*
X03235*
X0324Y04162*
X03291*
X03295Y04157*
X03301Y04152*
X03307Y0415*
X03315Y04149*
X03322Y0415*
X03328Y04152*
X0333Y04153*
X03337Y04147*
X03335Y04141*
X03334Y04134*
X03335Y04126*
X03337Y0412*
X03342Y04114*
X03348Y04109*
X03354Y04107*
X03362Y04106*
X03369Y04107*
X03371Y04107*
X03456Y04022*
X03449Y04015*
X03447Y04016*
X03442Y04017*
X03372*
X03371Y04019*
X03366Y04025*
X03361Y04029*
X03354Y04032*
X03347Y04033*
X0334Y04032*
X03333Y04029*
X03327Y04025*
X03323Y04019*
X0332Y04012*
X03319Y04005*
X0332Y03998*
X03323Y03991*
X03315Y03991*
X03308Y0399*
X03301Y03988*
X03296Y03983*
X03291Y03977*
X03289Y03973*
X0328Y03975*
Y04005*
X03279Y04009*
X03276Y04013*
X03219Y0407*
Y04165*
X03228Y04169*
X03231Y04166*
G37*
G36*
X03441Y04441D02*
X0344Y04433D01*
X03431Y04432*
X03423Y04428*
X03416Y04423*
X03411Y04416*
X03407Y04408*
X03406Y044*
X03407Y04391*
X03411Y04383*
X03416Y04376*
X03417Y04376*
X03417Y04366*
X03332Y04281*
X03324Y04286*
X03326Y04292*
X03327Y043*
X03326Y04307*
X03324Y04313*
X03319Y04319*
X03313Y04324*
X03307Y04326*
X033Y04327*
X03292Y04326*
X03286Y04324*
X0328Y04319*
X03275Y04313*
X03267Y04313*
X03263Y04316*
X03258Y04317*
X03231*
X03228Y04326*
X03379Y04477*
X03405*
X03441Y04441*
G37*
G36*
X02787Y03672D02*
Y03629D01*
X02803*
Y03386*
X02804Y0338*
X02805Y03379*
X02808Y03374*
X02831Y03351*
X0283Y03349*
X02828Y03343*
X02827Y03339*
X02818Y03336*
X02751Y03403*
Y03574*
X02752Y03574*
X02758Y03579*
X02763Y03585*
X02765Y03591*
X02766Y03599*
X02765Y03606*
X02763Y03612*
X02758Y03618*
X02752Y03623*
Y03632*
X02758Y03635*
X02763Y03639*
X02768Y03645*
X0277Y03651*
X02771Y03659*
X0277Y03666*
X0277Y03668*
X02778Y03676*
X02787Y03672*
G37*
G36*
X03167Y03802D02*
X03168Y03801D01*
X03167Y03795*
X03168Y03787*
X0317Y03781*
X03175Y03775*
X03181Y0377*
X03187Y03768*
X03195Y03767*
X03202Y03768*
X03208Y0377*
X03214Y03775*
X03219Y03781*
X03221Y03787*
X03222Y03795*
X03222Y038*
X0323Y03804*
X03251Y03784*
Y03661*
X03252Y03657*
X03254Y03653*
X03282Y03625*
X03282Y03623*
X03281Y03616*
X03282Y03608*
X03283Y03604*
X03275Y03599*
X03212Y03662*
Y03672*
X03211Y03677*
X03208Y03681*
X03181Y03708*
X03177Y03711*
X03172Y03712*
Y03717*
X03175Y03719*
X0318Y03725*
X03182Y03731*
X03183Y03739*
X03182Y03746*
X0318Y03752*
X03175Y03758*
X03169Y03763*
X03163Y03765*
X03156Y03766*
X03148Y03765*
X03142Y03763*
X03136Y03758*
X03132Y03753*
X03018*
X03012Y03761*
X03016Y0377*
X03017Y0378*
X03016Y03789*
X03012Y03798*
X03006Y03806*
X03007Y03809*
X03151*
X03167Y03802*
G37*
G36*
X03287Y03762D02*
X03295Y03761D01*
X03302Y03762*
X03304Y03762*
X03328Y03738*
Y03647*
X03326Y03644*
X0332Y0364*
X03316Y03642*
X03309Y03643*
X03301Y03642*
X03299Y03642*
X03275Y03666*
Y03757*
X03277Y03759*
X03283Y03763*
X03287Y03762*
G37*
G36*
X0276Y03692D02*
X02753Y03685D01*
X02751Y03685*
X02744Y03686*
X02736Y03685*
X0273Y03683*
X02724Y03678*
X0272Y03673*
X02717Y03666*
X02716Y03659*
X02717Y03651*
X0272Y03645*
X02724Y03639*
X0273Y03635*
Y03625*
X02725Y03623*
X02719Y03618*
X02714Y03612*
X02712Y03606*
X02711Y03599*
X02712Y03591*
X02714Y03585*
X02719Y03579*
X02725Y03574*
X02726Y03574*
Y03465*
X02717Y03458*
X02711Y03463*
X02705Y03465*
X02698Y03466*
X0269Y03465*
X02684Y03463*
X02678Y03458*
X02673Y03452*
X02671Y03446*
X0267Y03439*
X02671Y03431*
X02671Y03429*
X02652Y0341*
X02532*
X02515Y03427*
X02516Y03428*
X02523Y03429*
X02529Y03431*
X02535Y03436*
X0254Y03442*
X02542Y03448*
X02543Y03456*
X02542Y03463*
X0254Y03469*
X02535Y03475*
X02529Y0348*
X02528Y0348*
Y03517*
X02712Y03701*
X02757*
X0276Y03692*
G37*
G36*
X02948Y038D02*
X02947Y03798D01*
X02943Y03789*
X02942Y0378*
X02943Y0377*
X02947Y03761*
X02953Y03753*
X02961Y03747*
X0297Y03743*
X02971Y03743*
X02975Y03734*
X02967Y03726*
X02708*
X02703Y03725*
X02699Y03722*
X02507Y0353*
X02505Y03527*
X02496Y0353*
Y03658*
X02595Y03757*
X02875*
X0288Y03758*
X02884Y0376*
X02932Y03809*
X02944*
X02948Y038*
G37*
G36*
X03398Y03665D02*
X03401Y03661D01*
X03526Y03536*
X03523Y03529*
X03522Y0352*
X03523Y0351*
X03527Y03501*
X03529Y03498*
X03524Y0349*
X03506*
X03493Y03503*
X03496Y0351*
X03497Y0352*
X03496Y03529*
X03492Y03538*
X03486Y03546*
X03478Y03552*
X03469Y03556*
X0346Y03557*
X0345Y03556*
X03441Y03552*
X03435Y03548*
X03427Y03552*
Y03578*
X03426Y03582*
X03423Y03586*
X03389Y0362*
Y03664*
X03398Y03665*
X03398Y03665*
G37*
G36*
X02815Y04821D02*
X0282Y04815D01*
X02822Y04813*
X02819Y04804*
X02709*
X02702Y04802*
X02696Y04798*
X02676Y04779*
X02675Y04779*
X02667Y04778*
X02663Y04776*
X02657Y0478*
X02655Y04783*
Y04803*
X02674Y04822*
X02815*
X02815Y04821*
G37*
G36*
X03903Y03557D02*
D01*
X03897*
X03896*
X03822*
Y03543*
X03813Y03541*
X0381Y03545*
X03737Y03618*
X0374Y03622*
X03735Y03622*
Y0366*
X03739*
Y03665*
X03777*
X03776Y03669*
X03772Y03678*
X03766Y03686*
X03758Y03692*
X03751Y03695*
X03751Y03697*
X03748Y03701*
X03744Y03704*
X0374Y03705*
X03735Y03704*
X03731Y03701*
X03728Y03697*
X03728Y03695*
X03721Y03692*
X03713Y03686*
X03707Y03678*
X03703Y03669*
X03703Y03665*
X03693Y03662*
X03589Y03766*
X03594Y03774*
X03595Y03774*
Y03801*
Y03829*
X03592Y03828*
X03588Y03826*
X03582Y0383*
X0358Y03833*
Y03928*
X03579Y03932*
X03576Y03936*
X03388Y04124*
X03388Y04126*
X03389Y04134*
X03388Y04141*
X03386Y04147*
X03381Y04153*
X03375Y04158*
X03369Y0416*
X03362Y04161*
X03354Y0416*
X03348Y04158*
X03346Y04157*
X03339Y04163*
X03341Y04169*
X03342Y04177*
X03341Y04184*
X03339Y0419*
X03334Y04196*
X03328Y04201*
X03322Y04203*
X03315Y04204*
X03307Y04203*
X03307Y04203*
X03298Y04208*
X03298Y04212*
X03448Y04363*
X03451Y04367*
X03456Y04371*
X03463Y04376*
X03468Y04383*
X03472Y04391*
X03472Y04397*
X03477Y04399*
X03484Y04392*
X03483Y04389*
X03482Y0438*
X03483Y0437*
X03487Y04361*
X03493Y04353*
X03501Y04347*
X0351Y04343*
X0352Y04342*
X03529Y04343*
X03538Y04347*
X03546Y04353*
X03552Y04361*
X03556Y0437*
X03557Y0438*
X03556Y04389*
X03552Y04398*
X03546Y04406*
X03538Y04412*
X03529Y04416*
X0352Y04417*
X0351Y04416*
X03503Y04413*
X03418Y04498*
X03414Y04501*
X0341Y04502*
X03375*
X0337Y04501*
X03366Y04498*
X03186Y04318*
X03183Y04316*
X0318Y04312*
X03179Y04308*
Y04247*
X0317Y04244*
X03168Y04246*
X03162Y04251*
X03161Y04251*
Y04375*
X03449Y04663*
X0353*
X03531Y04662*
X03536Y04656*
X03541Y04651*
X03548Y04649*
X03555Y04648*
X03562Y04649*
X03569Y04651*
X03575Y04656*
X03579Y04662*
X03582Y04668*
X03583Y04676*
X03582Y04683*
X03579Y04689*
X03575Y04695*
X03569Y047*
X03562Y04702*
X03555Y04703*
X03548Y04702*
X03541Y047*
X03536Y04695*
X03531Y04689*
X0353Y04688*
X03444*
X03439Y04687*
X03438Y04686*
X03435Y04684*
X0338Y04629*
X03371Y04633*
Y04747*
X03373Y04748*
X03377Y04754*
X0338Y04761*
X03381Y04768*
X0338Y04772*
X03381Y04773*
X03637*
X03641Y0477*
X03647Y04768*
X03655Y04767*
X03662Y04768*
X03668Y0477*
X03674Y04775*
X03679Y04781*
X03681Y04787*
X03682Y04795*
X03681Y04802*
X0368Y04804*
X03681Y04805*
X03682Y0481*
X03681Y04814*
X03678Y04818*
X03674Y04821*
X0367Y04822*
X03665Y04821*
X03664Y0482*
X03662Y04821*
X03655Y04822*
X03647Y04821*
X03641Y04819*
X03635Y04814*
X0363Y04808*
X03629Y04806*
X03542*
X03535Y04811*
X03533Y04814*
X03535Y04819*
X03536Y04822*
X03481*
X03482Y04819*
X03484Y04814*
X03482Y04811*
X03475Y04806*
X03375*
X03369Y04805*
X03368Y04804*
X03363Y04801*
X03357Y04795*
X03353Y04796*
X03346Y04795*
X03339Y04792*
X03333Y04788*
X03329Y04782*
X03326Y04775*
X03325Y04768*
X03326Y04761*
X03329Y04754*
X03333Y04748*
X03335Y04747*
Y04627*
X02949Y04242*
X0266*
X02659Y04243*
X02653Y04248*
X02652Y04248*
Y0441*
X02651Y04414*
X02648Y04418*
X02576Y0449*
X02576Y04492*
X02577Y045*
X02576Y04507*
X02574Y04513*
X02569Y04519*
X02563Y04524*
X02557Y04526*
X0255Y04527*
X02542Y04526*
X02536Y04524*
X0253Y04519*
X02525Y04513*
X02523Y04507*
X02522Y045*
X02523Y04492*
X02525Y04486*
X0253Y0448*
X02536Y04475*
X02542Y04473*
X0255Y04472*
X02557Y04473*
X02559Y04473*
X02627Y04405*
Y04248*
X02626Y04248*
X0262Y04243*
X02615Y04237*
X02613Y04231*
X02612Y04224*
X02613Y04216*
X02615Y0421*
X0262Y04204*
X02626Y04199*
X02632Y04197*
X0264Y04196*
X02647Y04197*
X02653Y04199*
X02659Y04204*
X0266Y04205*
X02957*
X02963Y04207*
X02969Y04211*
X03063Y04304*
X03072Y043*
X03072Y04305*
X031*
Y043*
X03105*
Y04272*
X03107Y04273*
X03113Y04275*
X03119Y0428*
X03124Y04286*
X03126Y04292*
X03127Y04294*
X03136Y04294*
Y04251*
X03135Y04251*
X03129Y04246*
X03124Y0424*
X03122Y04234*
X03121Y04227*
X03122Y04219*
X03124Y04213*
X03129Y04207*
X03135Y04202*
X03141Y042*
X03149Y04199*
X03156Y042*
X03162Y04202*
X03168Y04207*
X0317Y04209*
X03179Y04206*
Y0386*
X0318Y03856*
X03183Y03852*
X03204Y0383*
X032Y03822*
X03195Y03822*
X03187Y03821*
X03185Y03821*
X03177Y03829*
X03173Y03832*
X03168Y03833*
X02993*
X02989Y03842*
X03038Y03891*
X03047Y03887*
X03047Y0389*
X03047Y03895*
X0307*
Y03917*
X03075Y03917*
X03073Y03926*
X03144Y03997*
X03146Y03999*
X03147Y04001*
X03148Y04006*
Y04095*
X03149Y04095*
X03155Y041*
X0316Y04106*
X03162Y04112*
X03163Y0412*
X03162Y04127*
X0316Y04133*
X03155Y04139*
X03149Y04144*
X03143Y04146*
X03136Y04147*
X03128Y04146*
X03122Y04144*
X03116Y04139*
X03111Y04133*
X03109Y04127*
X03108Y0412*
X03109Y04112*
X03111Y04106*
X03116Y041*
X03122Y04095*
X03123Y04095*
Y0401*
X03101Y03988*
X03091Y03991*
X03091Y03992*
X03089Y03998*
X03084Y04004*
X03078Y04009*
X03072Y04011*
X03065Y04012*
X03057Y04011*
X03051Y04009*
X03045Y04004*
X0304Y03998*
X03039Y03995*
X03036Y03993*
X03036*
X0303Y03987*
X03028Y03983*
X03027Y03979*
Y03975*
X03017Y03974*
X03016Y03981*
X03012Y0399*
X03006Y03998*
X02998Y04004*
X02989Y04008*
X0298Y04009*
X0297Y04008*
X02961Y04004*
X02953Y03998*
X02947Y0399*
X02943Y03981*
X02942Y03972*
X02943Y03962*
X02947Y03953*
X02953Y03945*
X02961Y03939*
X0297Y03935*
X0298Y03934*
X02989Y03935*
X02998Y03939*
X03006Y03945*
X03012Y03953*
X03016Y03962*
X03017Y03969*
X03027Y03968*
Y03941*
X03008Y03922*
X02524*
X02519Y03921*
X02515Y03918*
X02485Y03888*
X02483Y03888*
X02476Y03889*
X02468Y03888*
X02462Y03886*
X02456Y03881*
X02451Y03875*
X02449Y03869*
X02448Y03862*
X02449Y03854*
X02451Y03848*
X02456Y03842*
X02462Y03837*
X02468Y03835*
X02476Y03834*
X02483Y03835*
X02489Y03837*
X02495Y03842*
X025Y03848*
X02502Y03854*
X02503Y03862*
X02502Y03869*
X02502Y03871*
X02528Y03897*
X02798*
X02802Y03888*
X02795Y03882*
X02789Y03875*
X02786Y03867*
X02785Y03863*
X02854*
X02853Y03867*
X0285Y03875*
X02844Y03882*
X02837Y03888*
X02841Y03897*
X02998*
X03001Y03888*
X02962Y03849*
X02919*
X02914Y03848*
X02913Y03847*
X0291Y03845*
X02866Y03801*
X02518*
X02444*
X02389Y03855*
X0239Y03857*
X02391Y03865*
X0239Y03872*
X02387Y03878*
X02383Y03884*
X02377Y03889*
X0237Y03891*
X02363Y03892*
Y03894*
X0237Y039*
X02424*
X02428Y03901*
X02432Y03904*
X02631Y04103*
X02872*
X02872Y04102*
X02877Y04096*
X02883Y04091*
X02889Y04089*
X02897Y04088*
X02904Y04089*
X0291Y04091*
X02916Y04096*
X02921Y04102*
X02923Y04108*
X02924Y04116*
X02923Y04123*
X02921Y04129*
X02916Y04135*
X0291Y0414*
X02904Y04142*
X02897Y04143*
X02889Y04142*
X02883Y0414*
X02877Y04135*
X02872Y04129*
X02872Y04128*
X02627*
X02622Y04127*
X02618Y04124*
X02419Y03925*
X02185*
X02185Y03926*
X0218Y03932*
X02174Y03937*
X02168Y03939*
X02161Y0394*
X02153Y03939*
X02147Y03937*
X02141Y03932*
X02136Y03926*
X02134Y0392*
X02133Y03913*
X02134Y03905*
X02136Y03899*
X02141Y03893*
X02147Y03888*
X02153Y03886*
X02161Y03885*
X02166Y03885*
X02171Y03877*
X02169Y03875*
X02166Y03867*
X02165Y03863*
X02234*
X02233Y03867*
X0223Y03875*
X02224Y03882*
X02217Y03888*
X0221Y03891*
X02212Y039*
X02353*
X02353Y03897*
X02354Y03891*
X02349Y03889*
X02343Y03884*
X02339Y03878*
X02336Y03872*
X02335Y03865*
X02336Y03857*
X02339Y03851*
X02343Y03845*
X02349Y0384*
X02356Y03838*
X02363Y03837*
X0237Y03838*
X02372Y03838*
X0243Y0378*
X02434Y03778*
X02439Y03777*
X02476*
X0248Y03768*
X02314Y03602*
X02179*
X02179Y03603*
X02174Y03609*
X02168Y03614*
X02162Y03616*
X02155Y03617*
X02147Y03616*
X02141Y03614*
X02135Y03609*
X0213Y03603*
X02128Y03597*
X02127Y0359*
X02128Y03582*
X0213Y03576*
X02135Y0357*
X02141Y03565*
X02147Y03563*
X02155Y03562*
X02162Y03563*
X02168Y03565*
X02174Y0357*
X02179Y03576*
X02179Y03577*
X02319*
X02323Y03578*
X02327Y03581*
X02523Y03777*
X02568*
X02572Y03768*
X02475Y03671*
X02472Y03667*
X02471Y03663*
Y03442*
X02472Y03437*
X02475Y03433*
X02519Y03389*
X02523Y03386*
X02528Y03385*
X02657*
X02661Y03386*
X02665Y03389*
X02688Y03412*
X0269Y03412*
X02698Y03411*
X02705Y03412*
X02711Y03414*
X02717Y03419*
X02726Y03412*
Y03398*
X02727Y03393*
X0273Y03389*
X02823Y03296*
X02827Y03294*
X02832Y03293*
X02864*
X02868Y03294*
X02872Y03296*
X02904Y03328*
X02906Y03331*
X02907Y03332*
X02908Y03337*
Y03384*
X02909Y03384*
X02915Y03389*
X0292Y03395*
X02922Y03401*
X02923Y03409*
X02922Y03416*
X0292Y03422*
X02915Y03428*
X02909Y03433*
X02903Y03435*
X02896Y03436*
X02888Y03435*
X02884Y03434*
X02878Y03441*
X0288Y03444*
X02883Y03451*
X02884Y03458*
X02883Y03465*
X0288Y03472*
X02876Y03478*
X0287Y03482*
X02868Y03483*
Y03574*
X02872Y03577*
X02877Y03579*
X02882Y03575*
X02888Y03573*
X02891Y03572*
Y03599*
Y03627*
X02888Y03626*
X02882Y03624*
X02877Y0362*
X02872Y03622*
X02868Y03625*
Y03697*
X02871Y03701*
X02972*
X02976Y03702*
X0298Y03705*
X02992Y03717*
X03001Y03712*
X03Y0371*
X03001Y03702*
X03003Y03698*
X02999Y03692*
X02996Y0369*
X02953*
X02948Y03689*
X02944Y03686*
X02937Y03678*
X02935Y03679*
X02928Y0368*
X0292Y03679*
X02914Y03676*
X02908Y03672*
X02903Y03666*
X02901Y0366*
X029Y03652*
X02901Y03645*
X02903Y03638*
X02906Y03635*
X02901Y03627*
X02901Y03627*
Y03599*
Y03572*
X02903Y03573*
X02907Y03575*
X02913Y03571*
X02915Y03568*
Y03513*
X02916Y03508*
X02919Y03504*
X02924Y03499*
X02924Y03497*
X02923Y0349*
X02924Y03482*
X02926Y03476*
X02931Y0347*
X02937Y03465*
X02943Y03463*
X02951Y03462*
X02958Y03463*
X02964Y03465*
X0297Y0347*
X02975Y03476*
X02977Y03482*
X02978Y0349*
X02977Y03497*
X02975Y03503*
X0297Y03509*
X02964Y03514*
X02958Y03516*
X02951Y03517*
X02947Y03517*
X02941Y03522*
X0294Y03525*
Y03627*
X02941Y03628*
X02947Y03633*
X02952Y03638*
X02954Y03645*
X02955Y03652*
X02954Y0366*
X02954Y03661*
X02958Y03665*
X03122*
X03124Y03665*
X0313Y03658*
X0313Y03655*
X03131Y03648*
X03133Y03641*
X03138Y03635*
X03144Y03631*
X0315Y03628*
X03157Y03627*
X03165Y03628*
X03171Y03631*
X03177Y03635*
X03178Y03637*
X03187Y03633*
Y03618*
X03121Y03552*
X03119Y03552*
X03112Y03553*
X03104Y03552*
X031Y0355*
X03094Y03554*
X03092Y03557*
Y03584*
X03098Y03585*
X03104Y03587*
X0311Y03592*
X03115Y03598*
X03117Y03604*
X03118Y03612*
X03117Y03619*
X03115Y03625*
X0311Y03631*
X03104Y03636*
X03098Y03638*
X03091Y03639*
X03083Y03638*
X03077Y03636*
X03071Y03631*
X03066Y03625*
X03064Y03619*
X03063Y03612*
X03064Y03604*
X03066Y03598*
X03067Y03596*
Y03458*
X03068Y03453*
X03071Y03449*
X03089Y03431*
X03089Y03429*
X03088Y03422*
X03089Y03414*
X03091Y03408*
X03096Y03402*
X03102Y03397*
X03108Y03395*
X03116Y03394*
X03123Y03395*
X03129Y03397*
X03135Y03402*
X0314Y03408*
X03142Y03414*
X03143Y03422*
X03142Y03429*
X0314Y03435*
X03135Y03441*
X03129Y03446*
X03123Y03448*
X03116Y03449*
X03108Y03448*
X03106Y03448*
X03092Y03462*
Y03494*
X03094Y03497*
X031Y03501*
X03104Y03499*
X03112Y03498*
X03119Y03499*
X03125Y03501*
X03131Y03506*
X03136Y03512*
X03138Y03518*
X03139Y03526*
X03138Y03533*
X03138Y03535*
X03208Y03605*
X03211Y03609*
X03212Y03614*
Y03616*
X03221Y03619*
X03265Y03575*
X03269Y03572*
X03274Y03571*
X03325*
X03329Y03572*
X03333Y03575*
X03349Y03591*
X03352Y03595*
X03353Y036*
Y03743*
X03352Y03747*
X03349Y03751*
X03321Y03779*
X03321Y03781*
X03322Y03789*
X03321Y03796*
X03319Y03802*
X03314Y03808*
X03314Y03808*
X03327*
X03364Y03771*
Y03616*
X03365Y03611*
X03368Y03607*
X03402Y03573*
Y03539*
X03393Y03537*
X03392Y03538*
X03386Y03546*
X03378Y03552*
X03369Y03556*
X03365Y03557*
Y03519*
Y03482*
X03369Y03483*
X03378Y03487*
X03386Y03493*
X03392Y03501*
X03393Y03502*
X03402Y035*
Y03488*
X03403Y03483*
X03406Y03479*
X03439Y03446*
X03441Y03444*
X03443Y03443*
X03448Y03442*
X03745*
X03745Y03441*
X0375Y03435*
X03756Y0343*
X03762Y03428*
X0377Y03427*
X03777Y03428*
X03777Y03428*
X03783Y0342*
X037Y03337*
X03642*
Y03262*
X03717*
Y0332*
X0381Y03413*
X03813Y03417*
X03814Y03422*
Y03482*
X03822*
X03896*
X03903Y03475*
Y03337*
X03842*
Y03262*
X03903*
Y03239*
X03895Y03234*
X03889Y03236*
X0388Y03237*
X0387Y03236*
X03861Y03232*
X03853Y03226*
X03847Y03218*
X03843Y03209*
X03842Y032*
X03843Y0319*
X03847Y03181*
X03853Y03173*
X03861Y03167*
X0387Y03163*
X0388Y03162*
X03889Y03163*
X03895Y03165*
X03903Y0316*
Y03139*
X03895Y03134*
X03889Y03136*
X03885Y03137*
Y03099*
X0388*
Y03095*
X03842*
X03843Y0309*
X03847Y03081*
X03852Y03074*
X0385Y03069*
X03847Y03065*
X03712*
X03709Y03069*
X03707Y03074*
X03712Y03081*
X03716Y0309*
X03717Y03095*
X03642*
X03643Y0309*
X03647Y03081*
X03652Y03074*
X0365Y03069*
X03647Y03065*
X03512*
X03509Y03069*
X03507Y03074*
X03512Y03081*
X03516Y0309*
X03517Y03095*
X03442*
X03443Y0309*
X03447Y03081*
X03452Y03074*
X0345Y03069*
X03447Y03065*
X03332*
X03329Y03069*
X03327Y03074*
X03332Y03081*
X03336Y0309*
X03337Y03095*
X03262*
X03263Y0309*
X03267Y03081*
X03272Y03074*
X0327Y03069*
X03267Y03065*
X02065*
Y03978*
X02074Y03982*
X02082Y03972*
X02094Y03962*
X02108Y03954*
X02124Y0395*
X0214Y03948*
X02155Y0395*
X02171Y03954*
X02185Y03962*
X02197Y03972*
X02207Y03984*
X02215Y03998*
X02219Y04014*
X02221Y0403*
X02219Y04045*
X02215Y04061*
X02207Y04075*
X02197Y04087*
X02185Y04097*
X02171Y04105*
X02155Y04109*
X0214Y04111*
X02124Y04109*
X02108Y04105*
X02094Y04097*
X02082Y04087*
X02074Y04077*
X02065Y04081*
Y04178*
X02074Y04182*
X02082Y04172*
X02094Y04162*
X02108Y04154*
X02124Y0415*
X0214Y04148*
X02155Y0415*
X02171Y04154*
X02185Y04162*
X02197Y04172*
X02207Y04184*
X02215Y04198*
X02219Y04214*
X02221Y0423*
X02219Y04245*
X02215Y04261*
X02207Y04275*
X02197Y04287*
X02185Y04297*
X02171Y04305*
X02155Y04309*
X0214Y04311*
X02124Y04309*
X02108Y04305*
X02094Y04297*
X02082Y04287*
X02074Y04277*
X02065Y04281*
Y04568*
X02074Y04572*
X02082Y04562*
X02094Y04552*
X02108Y04544*
X02124Y0454*
X0214Y04538*
X02155Y0454*
X02171Y04544*
X02185Y04552*
X02197Y04562*
X02207Y04574*
X02215Y04588*
X02219Y04604*
X02221Y0462*
X02219Y04635*
X02215Y04651*
X02207Y04665*
X02197Y04677*
X02185Y04687*
X02171Y04695*
X02155Y04699*
X0214Y04701*
X02124Y04699*
X02108Y04695*
X02094Y04687*
X02082Y04677*
X02074Y04667*
X02065Y04671*
Y04768*
X02074Y04772*
X02082Y04762*
X02094Y04752*
X02108Y04744*
X02124Y0474*
X0214Y04738*
X02155Y0474*
X02171Y04744*
X02185Y04752*
X02197Y04762*
X02207Y04774*
X02215Y04788*
X02219Y04804*
X02221Y0482*
X02219Y04835*
X02215Y04851*
X02207Y04865*
X02197Y04877*
X02185Y04887*
X02171Y04895*
X02155Y04899*
X0214Y04901*
X02141Y04903*
X03218*
X0322Y04893*
X03219Y04893*
X03213Y04888*
X03208Y04882*
X03208Y04881*
X02607*
X02602Y0488*
X02598Y04877*
X02536Y04815*
X02534Y04815*
X02527Y04816*
X02519Y04815*
X02513Y04813*
X02507Y04808*
X02502Y04802*
X025Y04796*
X02499Y04789*
X025Y04781*
X02502Y04775*
X02507Y04769*
X02513Y04764*
X02519Y04762*
X02527Y04761*
X02534Y04762*
X0254Y04764*
X02546Y04769*
X02551Y04775*
X02553Y04781*
X02554Y04789*
X02553Y04796*
X02553Y04798*
X02611Y04856*
X02805*
X02806Y04856*
X02803Y04847*
X02669*
X02664Y04846*
X0266Y04843*
X02634Y04817*
X02631Y04813*
X02631Y04808*
Y0473*
X02631Y04726*
X02634Y04722*
X02827Y04529*
X02827Y04527*
X02826Y0452*
X02827Y04512*
X02829Y04506*
X02834Y045*
X02835Y04499*
X02832Y0449*
X02733*
X02519Y04704*
X02519Y04706*
X0252Y04714*
X02519Y04721*
X02517Y04727*
X02512Y04733*
X02506Y04738*
X025Y0474*
X02493Y04741*
X02485Y0474*
X02479Y04738*
X02473Y04733*
X02468Y04727*
X02466Y04721*
X02465Y04714*
X02466Y04706*
X02468Y047*
X02473Y04694*
X02479Y04689*
X02485Y04687*
X02493Y04686*
X025Y04687*
X02502Y04687*
X0272Y04469*
X02724Y04466*
X02729Y04465*
X03038*
X03038Y04464*
X03043Y04458*
X03049Y04453*
X03055Y04451*
X03063Y0445*
X0307Y04451*
X03076Y04453*
X03082Y04458*
X03087Y04464*
X03089Y0447*
X0309Y04478*
X03089Y04485*
X03087Y04491*
X03082Y04497*
X03076Y04502*
X0307Y04504*
X03063Y04505*
X03055Y04504*
X03049Y04502*
X03043Y04497*
X03038Y04491*
X03038Y0449*
X02875*
X02872Y04499*
X02873Y045*
X02878Y04506*
X0288Y04512*
X02881Y0452*
X0288Y04527*
X02878Y04533*
X02874Y04539*
X02874Y04539*
X0288Y04541*
X02886Y04546*
X02891Y04552*
X02893Y04558*
X02894Y04561*
X02839*
X02839Y04564*
X0283Y0456*
X02674Y04716*
X02675Y04724*
X02682Y04725*
X02688Y04727*
X02694Y04732*
X02699Y04738*
X02701Y04744*
X02702Y04752*
X02702Y04753*
X02716Y04767*
X03238*
X0324Y04765*
X03246Y0476*
X03252Y04758*
X0326Y04757*
X03267Y04758*
X03273Y0476*
X03279Y04765*
X03284Y04771*
X03286Y04777*
X03287Y04785*
X03286Y04792*
X03284Y04798*
X03279Y04804*
X03273Y04809*
X03267Y04811*
X0326Y04812*
X03252Y04811*
X03246Y04809*
X0324Y04804*
X03239Y04804*
X0286*
X02857Y04813*
X02859Y04815*
X02864Y04821*
X02866Y04827*
X02867Y04835*
X02866Y04842*
X02864Y04848*
X02859Y04854*
X0286Y04856*
X03208*
X03208Y04855*
X03213Y04849*
X03219Y04844*
X03225Y04842*
X03233Y04841*
X0324Y04842*
X03246Y04844*
X03252Y04849*
X03257Y04855*
X03259Y04861*
X0326Y04869*
X03259Y04876*
X03257Y04882*
X03252Y04888*
X03246Y04893*
X03245Y04893*
X03247Y04903*
X03695*
X03702Y04896*
Y04822*
X03777*
Y04896*
Y04897*
X03783Y04903*
X03821*
X03823Y04893*
X03821Y04892*
X03813Y04886*
X03807Y04878*
X03803Y04869*
X03802Y0486*
X03803Y0485*
X03807Y04841*
X03813Y04833*
X03821Y04827*
X0383Y04823*
X0384Y04822*
X03849Y04823*
X03858Y04827*
X03866Y04833*
X03872Y04841*
X03876Y0485*
X03877Y0486*
X03876Y04869*
X03872Y04878*
X03866Y04886*
X03858Y04892*
X03856Y04893*
X03858Y04903*
X03903*
Y03557*
G37*
G36*
X03555Y03923D02*
Y03771D01*
X03556Y03766*
X03559Y03762*
X03755Y03566*
X03752Y03556*
X0375Y03556*
X03743Y03553*
X03485Y03812*
Y03975*
X03484Y0398*
X03482Y03982*
X0349Y03988*
X03555Y03923*
G37*
G36*
X03726Y03536D02*
X03723Y03529D01*
X03722Y0352*
X03723Y0351*
X03727Y03501*
X03733Y03493*
X03741Y03487*
X0375Y03483*
X0375Y03474*
X03745Y03468*
X03745Y03467*
X03602*
X03599Y03476*
X0361Y03487*
X03612Y03489*
X03613Y03491*
X03614Y03496*
Y03507*
X03623Y03509*
X03627Y03501*
X03633Y03493*
X03641Y03487*
X0365Y03483*
X0366Y03482*
X03669Y03483*
X03678Y03487*
X03686Y03493*
X03692Y03501*
X03696Y0351*
X03697Y0352*
X03696Y03529*
X03692Y03538*
X03686Y03546*
X03678Y03552*
X03669Y03556*
X0366Y03557*
X0365Y03556*
X03643Y03553*
X03469Y03727*
Y0378*
X03478Y03784*
X03726Y03536*
G37*
G36*
X0338Y03955D02*
X0338Y03954D01*
X03379Y03947*
X0338Y0394*
X03382Y03933*
X03387Y03927*
X03393Y03923*
X03399Y0392*
X03407Y03919*
X03414Y0392*
X03416Y03921*
X03429Y03907*
Y03884*
X03421Y03879*
X03417Y0388*
X0341Y03881*
X03402Y0388*
X03396Y03878*
X0339Y03873*
X03385Y03867*
X03383Y03861*
X03382Y03854*
X03383Y03846*
X03385Y0384*
X0339Y03834*
X03396Y03829*
X03397Y03829*
Y03781*
X03388Y0378*
X03388Y0378*
X03385Y03784*
X03342Y03827*
X03343Y03828*
X0335Y03829*
X03356Y03831*
X03362Y03836*
X03367Y03842*
X03369Y03848*
X0337Y03856*
X03369Y03863*
X03367Y03869*
X03362Y03875*
X03356Y0388*
X0335Y03882*
X03343Y03883*
X03335Y03882*
X03329Y0388*
X03323Y03875*
X03319Y0387*
X03317Y0387*
X03303Y03876*
X0328Y03899*
Y03952*
X03289Y03954*
X03291Y0395*
X03296Y03944*
X03301Y03939*
X03308Y03937*
X03315Y03936*
X03322Y03937*
X03329Y03939*
X03335Y03944*
X03339Y0395*
X0334Y03951*
X03358*
X03362Y03952*
X03366Y03955*
X03372Y03961*
X0338Y03955*
G37*
G36*
X03432Y03695D02*
X03561Y03567D01*
X0356Y03562*
X03558Y03557*
X0355Y03556*
X03543Y03553*
X03422Y03674*
Y03695*
X03431Y03698*
X03432Y03695*
G37*
%LNpaw7-2*%
%LPC*%
G36*
X03777Y03655D02*
X03745D01*
Y03622*
X03749Y03623*
X03758Y03627*
X03766Y03633*
X03772Y03641*
X03776Y0365*
X03777Y03655*
G37*
G36*
X02232Y03694D02*
X02167D01*
Y03629*
X02232*
Y03694*
G37*
G36*
X02446Y03611D02*
X02424D01*
Y03588*
X02426Y03589*
X02432Y03591*
X02438Y03596*
X02443Y03602*
X02445Y03608*
X02446Y03611*
G37*
G36*
X02414D02*
X02391D01*
X02392Y03608*
X02394Y03602*
X02399Y03596*
X02405Y03591*
X02411Y03589*
X02414Y03588*
Y03611*
G37*
G36*
Y03643D02*
X02411Y03642D01*
X02405Y0364*
X02399Y03635*
X02394Y03629*
X02392Y03623*
X02391Y03621*
X02414*
Y03643*
G37*
G36*
X0384Y03697D02*
X0383Y03696D01*
X03821Y03692*
X03813Y03686*
X03807Y03678*
X03803Y03669*
X03802Y0366*
X03803Y0365*
X03807Y03641*
X03813Y03633*
X03821Y03627*
X0383Y03623*
X0384Y03622*
X03849Y03623*
X03858Y03627*
X03866Y03633*
X03872Y03641*
X03876Y0365*
X03877Y0366*
X03876Y03669*
X03872Y03678*
X03866Y03686*
X03858Y03692*
X03849Y03696*
X0384Y03697*
G37*
G36*
X02424Y03643D02*
Y03621D01*
X02446*
X02445Y03623*
X02443Y03629*
X02438Y03635*
X02432Y0364*
X02426Y03642*
X02424Y03643*
G37*
G36*
X02815Y03853D02*
X02785D01*
X02786Y03849*
X02789Y03841*
X02795Y03833*
X02802Y03828*
X02811Y03824*
X02815Y03824*
Y03853*
G37*
G36*
X02234D02*
X02205D01*
Y03824*
X02208Y03824*
X02217Y03828*
X02224Y03833*
X0223Y03841*
X02233Y03849*
X02234Y03853*
G37*
G36*
X02195D02*
X02165D01*
X02166Y03849*
X02169Y03841*
X02175Y03833*
X02182Y03828*
X02191Y03824*
X02195Y03824*
Y03853*
G37*
G36*
X02854D02*
X02825D01*
Y03824*
X02828Y03824*
X02837Y03828*
X02844Y03833*
X0285Y03841*
X02853Y03849*
X02854Y03853*
G37*
G36*
X0308Y03917D02*
Y03895D01*
X03102*
X03101Y03897*
X03099Y03903*
X03094Y03909*
X03088Y03914*
X03082Y03916*
X0308Y03917*
G37*
G36*
X03102Y03885D02*
X0308D01*
Y03862*
X03082Y03863*
X03088Y03865*
X03094Y0387*
X03099Y03876*
X03101Y03882*
X03102Y03885*
G37*
G36*
X0307D02*
X03047D01*
X03048Y03882*
X0305Y03876*
X03055Y0387*
X03061Y03865*
X03067Y03863*
X0307Y03862*
Y03885*
G37*
G36*
X02341Y03813D02*
X02334Y03812D01*
X02327Y03809*
X02321Y03805*
X02317Y03799*
X02314Y03792*
X02313Y03785*
X02314Y03778*
X02315Y03776*
X02293Y03754*
X02291Y03754*
X02284Y03755*
X02276Y03754*
X0227Y03752*
X02264Y03747*
X02259Y03741*
X02257Y03735*
X02256Y03728*
X02257Y0372*
X02259Y03714*
X02264Y03708*
X0227Y03703*
X02276Y03701*
X02284Y037*
X02291Y03701*
X02297Y03703*
X02303Y03708*
X02308Y03714*
X0231Y0372*
X02311Y03728*
X0231Y03735*
X0231Y03737*
X02332Y03759*
X02334Y03758*
X02341Y03757*
X02348Y03758*
X02355Y03761*
X02361Y03765*
X02365Y03771*
X02368Y03778*
X02369Y03785*
X02368Y03792*
X02365Y03799*
X02361Y03805*
X02355Y03809*
X02348Y03812*
X02341Y03813*
G37*
G36*
X0384Y03797D02*
X0383Y03796D01*
X03821Y03792*
X03813Y03786*
X03807Y03778*
X03803Y03769*
X03802Y0376*
X03803Y0375*
X03807Y03741*
X03813Y03733*
X03821Y03727*
X0383Y03723*
X0384Y03722*
X03849Y03723*
X03858Y03727*
X03866Y03733*
X03872Y03741*
X03876Y0375*
X03877Y0376*
X03876Y03769*
X03872Y03778*
X03866Y03786*
X03858Y03792*
X03849Y03796*
X0384Y03797*
G37*
G36*
X0374D02*
X0373Y03796D01*
X03721Y03792*
X03713Y03786*
X03707Y03778*
X03703Y03769*
X03702Y0376*
X03703Y0375*
X03707Y03741*
X03713Y03733*
X03721Y03727*
X0373Y03723*
X0374Y03722*
X03749Y03723*
X03758Y03727*
X03766Y03733*
X03772Y03741*
X03776Y0375*
X03777Y0376*
X03776Y03769*
X03772Y03778*
X03766Y03786*
X03758Y03792*
X03749Y03796*
X0374Y03797*
G37*
G36*
X03627Y03797D02*
X03605D01*
Y03774*
X03607Y03775*
X03613Y03777*
X03619Y03782*
X03624Y03788*
X03626Y03794*
X03627Y03797*
G37*
G36*
X0384Y03897D02*
X0383Y03896D01*
X03821Y03892*
X03813Y03886*
X03807Y03878*
X03803Y03869*
X03802Y0386*
X03803Y0385*
X03807Y03841*
X03813Y03833*
X03821Y03827*
X0383Y03823*
X0384Y03822*
X03849Y03823*
X03858Y03827*
X03866Y03833*
X03872Y03841*
X03876Y0385*
X03877Y0386*
X03876Y03869*
X03872Y03878*
X03866Y03886*
X03858Y03892*
X03849Y03896*
X0384Y03897*
G37*
G36*
X0374D02*
X0373Y03896D01*
X03721Y03892*
X03713Y03886*
X03707Y03878*
X03703Y03869*
X03702Y0386*
X03703Y0385*
X03707Y03841*
X03713Y03833*
X03721Y03827*
X0373Y03823*
X0374Y03822*
X03749Y03823*
X03758Y03827*
X03766Y03833*
X03772Y03841*
X03776Y0385*
X03777Y0386*
X03776Y03869*
X03772Y03878*
X03766Y03886*
X03758Y03892*
X03749Y03896*
X0374Y03897*
G37*
G36*
X03605Y03829D02*
Y03807D01*
X03627*
X03626Y03809*
X03624Y03815*
X03619Y03821*
X03613Y03826*
X03607Y03828*
X03605Y03829*
G37*
G36*
X031Y03237D02*
X0309Y03236D01*
X03081Y03232*
X03073Y03226*
X03067Y03218*
X03063Y03209*
X03062Y032*
X03063Y0319*
X03067Y03181*
X03073Y03173*
X03081Y03167*
X0309Y03163*
X031Y03162*
X03109Y03163*
X03118Y03167*
X03126Y03173*
X03132Y03181*
X03136Y0319*
X03137Y032*
X03136Y03209*
X03132Y03218*
X03126Y03226*
X03118Y03232*
X03109Y03236*
X031Y03237*
G37*
G36*
X028D02*
X0279Y03236D01*
X02781Y03232*
X02773Y03226*
X02767Y03218*
X02763Y03209*
X02762Y032*
X02763Y0319*
X02767Y03181*
X02773Y03173*
X02781Y03167*
X0279Y03163*
X028Y03162*
X02809Y03163*
X02818Y03167*
X02826Y03173*
X02832Y03181*
X02836Y0319*
X02837Y032*
X02836Y03209*
X02832Y03218*
X02826Y03226*
X02818Y03232*
X02809Y03236*
X028Y03237*
G37*
G36*
X025D02*
X0249Y03236D01*
X02481Y03232*
X02473Y03226*
X02467Y03218*
X02463Y03209*
X02462Y032*
X02463Y0319*
X02467Y03181*
X02473Y03173*
X02481Y03167*
X0249Y03163*
X025Y03162*
X02509Y03163*
X02518Y03167*
X02526Y03173*
X02532Y03181*
X02536Y0319*
X02537Y032*
X02536Y03209*
X02532Y03218*
X02526Y03226*
X02518Y03232*
X02509Y03236*
X025Y03237*
G37*
G36*
X033D02*
X0329Y03236D01*
X03281Y03232*
X03273Y03226*
X03267Y03218*
X03263Y03209*
X03262Y032*
X03263Y0319*
X03267Y03181*
X03273Y03173*
X03281Y03167*
X0329Y03163*
X033Y03162*
X03309Y03163*
X03318Y03167*
X03326Y03173*
X03332Y03181*
X03336Y0319*
X03337Y032*
X03336Y03209*
X03332Y03218*
X03326Y03226*
X03318Y03232*
X03309Y03236*
X033Y03237*
G37*
G36*
X02157Y03237D02*
X02082D01*
Y03162*
X02157*
Y03237*
G37*
G36*
X0368Y03237D02*
X0367Y03236D01*
X03661Y03232*
X03653Y03226*
X03647Y03218*
X03643Y03209*
X03642Y032*
X03643Y0319*
X03647Y03181*
X03653Y03173*
X03661Y03167*
X0367Y03163*
X0368Y03162*
X03689Y03163*
X03698Y03167*
X03706Y03173*
X03712Y03181*
X03716Y0319*
X03717Y032*
X03716Y03209*
X03712Y03218*
X03706Y03226*
X03698Y03232*
X03689Y03236*
X0368Y03237*
G37*
G36*
X0348D02*
X0347Y03236D01*
X03461Y03232*
X03453Y03226*
X03447Y03218*
X03443Y03209*
X03442Y032*
X03443Y0319*
X03447Y03181*
X03453Y03173*
X03461Y03167*
X0347Y03163*
X0348Y03162*
X03489Y03163*
X03498Y03167*
X03506Y03173*
X03512Y03181*
X03516Y0319*
X03517Y032*
X03516Y03209*
X03512Y03218*
X03506Y03226*
X03498Y03232*
X03489Y03236*
X0348Y03237*
G37*
G36*
X0222D02*
X0221Y03236D01*
X02201Y03232*
X02193Y03226*
X02187Y03218*
X02183Y03209*
X02182Y032*
X02183Y0319*
X02187Y03181*
X02193Y03173*
X02201Y03167*
X0221Y03163*
X0222Y03162*
X02229Y03163*
X02238Y03167*
X02246Y03173*
X02252Y03181*
X02256Y0319*
X02257Y032*
X02256Y03209*
X02252Y03218*
X02246Y03226*
X02238Y03232*
X02229Y03236*
X0222Y03237*
G37*
G36*
X03475Y03137D02*
X0347Y03136D01*
X03461Y03132*
X03453Y03126*
X03447Y03118*
X03443Y03109*
X03442Y03105*
X03475*
Y03137*
G37*
G36*
X03305D02*
Y03105D01*
X03337*
X03336Y03109*
X03332Y03118*
X03326Y03126*
X03318Y03132*
X03309Y03136*
X03305Y03137*
G37*
G36*
X03295D02*
X0329Y03136D01*
X03281Y03132*
X03273Y03126*
X03267Y03118*
X03263Y03109*
X03262Y03105*
X03295*
Y03137*
G37*
G36*
X03485D02*
Y03105D01*
X03517*
X03516Y03109*
X03512Y03118*
X03506Y03126*
X03498Y03132*
X03489Y03136*
X03485Y03137*
G37*
G36*
X03875D02*
X0387Y03136D01*
X03861Y03132*
X03853Y03126*
X03847Y03118*
X03843Y03109*
X03842Y03105*
X03875*
Y03137*
G37*
G36*
X03685D02*
Y03105D01*
X03717*
X03716Y03109*
X03712Y03118*
X03706Y03126*
X03698Y03132*
X03689Y03136*
X03685Y03137*
G37*
G36*
X03675D02*
X0367Y03136D01*
X03661Y03132*
X03653Y03126*
X03647Y03118*
X03643Y03109*
X03642Y03105*
X03675*
Y03137*
G37*
G36*
X03069Y03309D02*
Y03287D01*
X03091*
X0309Y03289*
X03088Y03295*
X03083Y03301*
X03077Y03306*
X03071Y03308*
X03069Y03309*
G37*
G36*
X03059D02*
X03056Y03308D01*
X0305Y03306*
X03044Y03301*
X03039Y03295*
X03037Y03289*
X03036Y03287*
X03059*
Y03309*
G37*
G36*
X02422Y03294D02*
X024D01*
Y03271*
X02402Y03272*
X02408Y03274*
X02414Y03279*
X02419Y03285*
X02421Y03291*
X02422Y03294*
G37*
G36*
X0239Y03326D02*
X02387Y03325D01*
X02381Y03323*
X02375Y03318*
X0237Y03312*
X02368Y03306*
X02367Y03304*
X0239*
Y03326*
G37*
G36*
X03355Y03557D02*
X0335Y03556D01*
X03341Y03552*
X03333Y03546*
X03327Y03538*
X03323Y03529*
X03322Y03525*
X03355*
Y03557*
G37*
G36*
Y03515D02*
X03322D01*
X03323Y0351*
X03327Y03501*
X03333Y03493*
X03341Y03487*
X0335Y03483*
X03355Y03482*
Y03515*
G37*
G36*
X024Y03326D02*
Y03304D01*
X02422*
X02421Y03306*
X02419Y03312*
X02414Y03318*
X02408Y03323*
X02402Y03325*
X024Y03326*
G37*
G36*
X0239Y03294D02*
X02367D01*
X02368Y03291*
X0237Y03285*
X02375Y03279*
X02381Y03274*
X02387Y03272*
X0239Y03271*
Y03294*
G37*
G36*
X03037Y03237D02*
X02962D01*
Y03162*
X03037*
Y03237*
G37*
G36*
X02737D02*
X02662D01*
Y03162*
X02737*
Y03237*
G37*
G36*
X02437D02*
X02362D01*
Y03162*
X02437*
Y03237*
G37*
G36*
X03059Y03277D02*
X03036D01*
X03037Y03274*
X03039Y03268*
X03044Y03262*
X0305Y03257*
X03056Y03255*
X03059Y03254*
Y03277*
G37*
G36*
X03517Y03337D02*
X03442D01*
Y03262*
X03517*
Y03337*
G37*
G36*
X03337D02*
X03262D01*
Y03262*
X03337*
Y03337*
G37*
G36*
X03091Y03277D02*
X03069D01*
Y03254*
X03071Y03255*
X03077Y03257*
X03083Y03262*
X03088Y03268*
X0309Y03274*
X03091Y03277*
G37*
G36*
X0374Y04597D02*
X0373Y04596D01*
X03721Y04592*
X03713Y04586*
X03707Y04578*
X03703Y04569*
X03702Y0456*
X03703Y0455*
X03707Y04541*
X03713Y04533*
X03721Y04527*
X0373Y04523*
X0374Y04522*
X03749Y04523*
X03758Y04527*
X03766Y04533*
X03772Y04541*
X03776Y0455*
X03777Y0456*
X03776Y04569*
X03772Y04578*
X03766Y04586*
X03758Y04592*
X03749Y04596*
X0374Y04597*
G37*
G36*
X03525Y04517D02*
Y04485D01*
X03557*
X03556Y04489*
X03552Y04498*
X03546Y04506*
X03538Y04512*
X03529Y04516*
X03525Y04517*
G37*
G36*
X03515D02*
X0351Y04516D01*
X03501Y04512*
X03493Y04506*
X03487Y04498*
X03483Y04489*
X03482Y04485*
X03515*
Y04517*
G37*
G36*
X0384Y04597D02*
X0383Y04596D01*
X03821Y04592*
X03813Y04586*
X03807Y04578*
X03803Y04569*
X03802Y0456*
X03803Y0455*
X03807Y04541*
X03813Y04533*
X03821Y04527*
X0383Y04523*
X0384Y04522*
X03849Y04523*
X03858Y04527*
X03866Y04533*
X03872Y04541*
X03876Y0455*
X03877Y0456*
X03876Y04569*
X03872Y04578*
X03866Y04586*
X03858Y04592*
X03849Y04596*
X0384Y04597*
G37*
G36*
X02862Y04593D02*
X02859Y04592D01*
X02853Y0459*
X02847Y04585*
X02842Y04579*
X0284Y04573*
X02839Y04571*
X02862*
Y04593*
G37*
G36*
X02405Y04642D02*
Y04565D01*
X02482*
X02481Y04576*
X02476Y04591*
X02469Y04606*
X02458Y04618*
X02446Y04629*
X02431Y04636*
X02416Y04641*
X02405Y04642*
G37*
G36*
X02395D02*
X02383Y04641D01*
X02368Y04636*
X02353Y04629*
X02341Y04618*
X0233Y04606*
X02323Y04591*
X02318Y04576*
X02317Y04565*
X02395*
Y04642*
G37*
G36*
X02482Y04555D02*
X02405D01*
Y04477*
X02416Y04478*
X02431Y04483*
X02446Y0449*
X02458Y04501*
X02469Y04513*
X02476Y04528*
X02481Y04543*
X02482Y04555*
G37*
G36*
X03515Y04475D02*
X03482D01*
X03483Y0447*
X03487Y04461*
X03493Y04453*
X03501Y04447*
X0351Y04443*
X03515Y04442*
Y04475*
G37*
G36*
X0362Y04517D02*
X0361Y04516D01*
X03601Y04512*
X03593Y04506*
X03587Y04498*
X03583Y04489*
X03582Y0448*
X03583Y0447*
X03587Y04461*
X03593Y04453*
X03601Y04447*
X0361Y04443*
X0362Y04442*
X03629Y04443*
X03638Y04447*
X03646Y04453*
X03652Y04461*
X03656Y0447*
X03657Y0448*
X03656Y04489*
X03652Y04498*
X03646Y04506*
X03638Y04512*
X03629Y04516*
X0362Y04517*
G37*
G36*
X03777Y04455D02*
X03745D01*
Y04422*
X03749Y04423*
X03758Y04427*
X03766Y04433*
X03772Y04441*
X03776Y0445*
X03777Y04455*
G37*
G36*
X03557Y04475D02*
X03525D01*
Y04442*
X03529Y04443*
X03538Y04447*
X03546Y04453*
X03552Y04461*
X03556Y0447*
X03557Y04475*
G37*
G36*
X02395Y04555D02*
X02317D01*
X02318Y04543*
X02323Y04528*
X0233Y04513*
X02341Y04501*
X02353Y0449*
X02368Y04483*
X02383Y04478*
X02395Y04477*
Y04555*
G37*
G36*
X03745Y04497D02*
Y04465D01*
X03777*
X03776Y04469*
X03772Y04478*
X03766Y04486*
X03758Y04492*
X03749Y04496*
X03745Y04497*
G37*
G36*
X03735D02*
X0373Y04496D01*
X03721Y04492*
X03713Y04486*
X03707Y04478*
X03703Y04469*
X03702Y04465*
X03735*
Y04497*
G37*
G36*
X024Y04881D02*
X02384Y04879D01*
X02368Y04875*
X02354Y04867*
X02342Y04857*
X02332Y04845*
X02324Y04831*
X0232Y04815*
X02318Y048*
X0232Y04784*
X02324Y04768*
X02332Y04754*
X02342Y04742*
X02354Y04732*
X02368Y04724*
X02384Y0472*
X024Y04718*
X02415Y0472*
X02431Y04724*
X02445Y04732*
X02457Y04742*
X02467Y04754*
X02475Y04768*
X02479Y04784*
X02481Y048*
X02479Y04815*
X02475Y04831*
X02467Y04845*
X02457Y04857*
X02445Y04867*
X02431Y04875*
X02415Y04879*
X024Y04881*
G37*
G36*
X03845Y04697D02*
Y04665D01*
X03877*
X03876Y04669*
X03872Y04678*
X03866Y04686*
X03858Y04692*
X03849Y04696*
X03845Y04697*
G37*
G36*
X03835D02*
X0383Y04696D01*
X03821Y04692*
X03813Y04686*
X03807Y04678*
X03803Y04669*
X03802Y04665*
X03835*
Y04697*
G37*
G36*
X0374Y04797D02*
X0373Y04796D01*
X03721Y04792*
X03713Y04786*
X03707Y04778*
X03703Y04769*
X03702Y0476*
X03703Y0475*
X03707Y04741*
X03713Y04733*
X03721Y04727*
X0373Y04723*
X0374Y04722*
X03749Y04723*
X03758Y04727*
X03766Y04733*
X03772Y04741*
X03776Y0475*
X03777Y0476*
X03776Y04769*
X03772Y04778*
X03766Y04786*
X03758Y04792*
X03749Y04796*
X0374Y04797*
G37*
G36*
X03514Y04854D02*
Y04832D01*
X03536*
X03535Y04834*
X03533Y0484*
X03528Y04846*
X03522Y04851*
X03516Y04853*
X03514Y04854*
G37*
G36*
X03504D02*
X03501Y04853D01*
X03495Y04851*
X03489Y04846*
X03484Y0484*
X03482Y04834*
X03481Y04832*
X03504*
Y04854*
G37*
G36*
X0384Y04797D02*
X0383Y04796D01*
X03821Y04792*
X03813Y04786*
X03807Y04778*
X03803Y04769*
X03802Y0476*
X03803Y0475*
X03807Y04741*
X03813Y04733*
X03821Y04727*
X0383Y04723*
X0384Y04722*
X03849Y04723*
X03858Y04727*
X03866Y04733*
X03872Y04741*
X03876Y0475*
X03877Y0476*
X03876Y04769*
X03872Y04778*
X03866Y04786*
X03858Y04792*
X03849Y04796*
X0384Y04797*
G37*
G36*
X03877Y04655D02*
X03845D01*
Y04622*
X03849Y04623*
X03858Y04627*
X03866Y04633*
X03872Y04641*
X03876Y0465*
X03877Y04655*
G37*
G36*
X03042Y0461D02*
X0302D01*
Y04587*
X03022Y04588*
X03028Y0459*
X03034Y04595*
X03039Y04601*
X03041Y04607*
X03042Y0461*
G37*
G36*
X0301D02*
X02987D01*
X02988Y04607*
X0299Y04601*
X02995Y04595*
X03001Y0459*
X03007Y04588*
X0301Y04587*
Y0461*
G37*
G36*
X02872Y04593D02*
Y04571D01*
X02894*
X02893Y04573*
X02891Y04579*
X02886Y04585*
X0288Y0459*
X02874Y04592*
X02872Y04593*
G37*
G36*
X0301Y04642D02*
X03007Y04641D01*
X03001Y04639*
X02995Y04634*
X0299Y04628*
X02988Y04622*
X02987Y0462*
X0301*
Y04642*
G37*
G36*
X03835Y04655D02*
X03802D01*
X03803Y0465*
X03807Y04641*
X03813Y04633*
X03821Y04627*
X0383Y04623*
X03835Y04622*
Y04655*
G37*
G36*
X0374Y04697D02*
X0373Y04696D01*
X03721Y04692*
X03713Y04686*
X03707Y04678*
X03703Y04669*
X03702Y0466*
X03703Y0465*
X03707Y04641*
X03713Y04633*
X03721Y04627*
X0373Y04623*
X0374Y04622*
X03749Y04623*
X03758Y04627*
X03766Y04633*
X03772Y04641*
X03776Y0465*
X03777Y0466*
X03776Y04669*
X03772Y04678*
X03766Y04686*
X03758Y04692*
X03749Y04696*
X0374Y04697*
G37*
G36*
X0302Y04642D02*
Y0462D01*
X03042*
X03041Y04622*
X03039Y04628*
X03034Y04634*
X03028Y04639*
X03022Y04641*
X0302Y04642*
G37*
G36*
X02915Y04057D02*
Y04035D01*
X02937*
X02936Y04037*
X02934Y04043*
X02929Y04049*
X02923Y04054*
X02917Y04056*
X02915Y04057*
G37*
G36*
X02905D02*
X02902Y04056D01*
X02896Y04054*
X0289Y04049*
X02885Y04043*
X02883Y04037*
X02882Y04035*
X02905*
Y04057*
G37*
G36*
X0384Y04097D02*
X0383Y04096D01*
X03821Y04092*
X03813Y04086*
X03807Y04078*
X03803Y04069*
X03802Y0406*
X03803Y0405*
X03807Y04041*
X03813Y04033*
X03821Y04027*
X0383Y04023*
X0384Y04022*
X03849Y04023*
X03858Y04027*
X03866Y04033*
X03872Y04041*
X03876Y0405*
X03877Y0406*
X03876Y04069*
X03872Y04078*
X03866Y04086*
X03858Y04092*
X03849Y04096*
X0384Y04097*
G37*
G36*
X035Y0409D02*
X03477D01*
X03478Y04087*
X0348Y04081*
X03485Y04075*
X03491Y0407*
X03497Y04068*
X035Y04067*
Y0409*
G37*
G36*
X0351Y04122D02*
Y041D01*
X03532*
X03531Y04102*
X03529Y04108*
X03524Y04114*
X03518Y04119*
X03512Y04121*
X0351Y04122*
G37*
G36*
X035D02*
X03497Y04121D01*
X03491Y04119*
X03485Y04114*
X0348Y04108*
X03478Y04102*
X03477Y041*
X035*
Y04122*
G37*
G36*
X03532Y0409D02*
X0351D01*
Y04067*
X03512Y04068*
X03518Y0407*
X03524Y04075*
X03529Y04081*
X03531Y04087*
X03532Y0409*
G37*
G36*
X0374Y04097D02*
X0373Y04096D01*
X03721Y04092*
X03713Y04086*
X03707Y04078*
X03703Y04069*
X03702Y0406*
X03703Y0405*
X03707Y04041*
X03713Y04033*
X03721Y04027*
X0373Y04023*
X0374Y04022*
X03749Y04023*
X03758Y04027*
X03766Y04033*
X03772Y04041*
X03776Y0405*
X03777Y0406*
X03776Y04069*
X03772Y04078*
X03766Y04086*
X03758Y04092*
X03749Y04096*
X0374Y04097*
G37*
G36*
X03877Y03955D02*
X03845D01*
Y03922*
X03849Y03923*
X03858Y03927*
X03866Y03933*
X03872Y03941*
X03876Y0395*
X03877Y03955*
G37*
G36*
X03835D02*
X03802D01*
X03803Y0395*
X03807Y03941*
X03813Y03933*
X03821Y03927*
X0383Y03923*
X03835Y03922*
Y03955*
G37*
G36*
X0374Y03997D02*
X0373Y03996D01*
X03721Y03992*
X03713Y03986*
X03707Y03978*
X03703Y03969*
X03702Y0396*
X03703Y0395*
X03707Y03941*
X03713Y03933*
X03721Y03927*
X0373Y03923*
X0374Y03922*
X03749Y03923*
X03758Y03927*
X03766Y03933*
X03772Y03941*
X03776Y0395*
X03777Y0396*
X03776Y03969*
X03772Y03978*
X03766Y03986*
X03758Y03992*
X03749Y03996*
X0374Y03997*
G37*
G36*
X03835Y03997D02*
X0383Y03996D01*
X03821Y03992*
X03813Y03986*
X03807Y03978*
X03803Y03969*
X03802Y03965*
X03835*
Y03997*
G37*
G36*
X02937Y04026D02*
X02937Y04025D01*
X02915*
Y04002*
X02915Y04002*
X02933*
X02937Y04003*
X02941Y04006*
X02944Y0401*
X02945Y04015*
X02944Y04019*
X02941Y04023*
X02937Y04026*
X02937Y04026*
G37*
G36*
X02905Y04025D02*
X02882D01*
X02883Y04022*
X02885Y04016*
X0289Y0401*
X02896Y04005*
X02902Y04003*
X02905Y04002*
Y04025*
G37*
G36*
X03845Y03997D02*
Y03965D01*
X03877*
X03876Y03969*
X03872Y03978*
X03866Y03986*
X03858Y03992*
X03849Y03996*
X03845Y03997*
G37*
G36*
X0374Y04397D02*
X0373Y04396D01*
X03721Y04392*
X03713Y04386*
X03707Y04378*
X03703Y04369*
X03702Y0436*
X03703Y0435*
X03707Y04341*
X03713Y04333*
X03721Y04327*
X0373Y04323*
X0374Y04322*
X03749Y04323*
X03758Y04327*
X03766Y04333*
X03772Y04341*
X03776Y0435*
X03777Y0436*
X03776Y04369*
X03772Y04378*
X03766Y04386*
X03758Y04392*
X03749Y04396*
X0374Y04397*
G37*
G36*
X03095Y04295D02*
X03072D01*
X03073Y04292*
X03075Y04286*
X0308Y0428*
X03086Y04275*
X03092Y04273*
X03095Y04272*
Y04295*
G37*
G36*
X03845Y04297D02*
Y04265D01*
X03877*
X03876Y04269*
X03872Y04278*
X03866Y04286*
X03858Y04292*
X03849Y04296*
X03845Y04297*
G37*
G36*
X0384Y04397D02*
X0383Y04396D01*
X03821Y04392*
X03813Y04386*
X03807Y04378*
X03803Y04369*
X03802Y0436*
X03803Y0435*
X03807Y04341*
X03813Y04333*
X03821Y04327*
X0383Y04323*
X0384Y04322*
X03849Y04323*
X03858Y04327*
X03866Y04333*
X03872Y04341*
X03876Y0435*
X03877Y0436*
X03876Y04369*
X03872Y04378*
X03866Y04386*
X03858Y04392*
X03849Y04396*
X0384Y04397*
G37*
G36*
X03735Y04455D02*
X03702D01*
X03703Y0445*
X03707Y04441*
X03713Y04433*
X03721Y04427*
X0373Y04423*
X03735Y04422*
Y04455*
G37*
G36*
X0384Y04497D02*
X0383Y04496D01*
X03821Y04492*
X03813Y04486*
X03807Y04478*
X03803Y04469*
X03802Y0446*
X03803Y0445*
X03807Y04441*
X03813Y04433*
X03821Y04427*
X0383Y04423*
X0384Y04422*
X03849Y04423*
X03858Y04427*
X03866Y04433*
X03872Y04441*
X03876Y0445*
X03877Y0446*
X03876Y04469*
X03872Y04478*
X03866Y04486*
X03858Y04492*
X03849Y04496*
X0384Y04497*
G37*
G36*
X0362Y04417D02*
X0361Y04416D01*
X03601Y04412*
X03593Y04406*
X03587Y04398*
X03583Y04389*
X03582Y0438*
X03583Y0437*
X03587Y04361*
X03593Y04353*
X03601Y04347*
X0361Y04343*
X0362Y04342*
X03629Y04343*
X03638Y04347*
X03646Y04353*
X03652Y04361*
X03656Y0437*
X03657Y0438*
X03656Y04389*
X03652Y04398*
X03646Y04406*
X03638Y04412*
X03629Y04416*
X0362Y04417*
G37*
G36*
X03835Y04297D02*
X0383Y04296D01*
X03821Y04292*
X03813Y04286*
X03807Y04278*
X03803Y04269*
X03802Y04265*
X03835*
Y04297*
G37*
G36*
X0374Y04297D02*
X0373Y04296D01*
X03721Y04292*
X03713Y04286*
X03707Y04278*
X03703Y04269*
X03702Y0426*
X03703Y0425*
X03707Y04241*
X03713Y04233*
X03721Y04227*
X0373Y04223*
X0374Y04222*
X03749Y04223*
X03758Y04227*
X03766Y04233*
X03772Y04241*
X03776Y0425*
X03777Y0426*
X03776Y04269*
X03772Y04278*
X03766Y04286*
X03758Y04292*
X03749Y04296*
X0374Y04297*
G37*
G36*
X0384Y04197D02*
X0383Y04196D01*
X03821Y04192*
X03813Y04186*
X03807Y04178*
X03803Y04169*
X03802Y0416*
X03803Y0415*
X03807Y04141*
X03813Y04133*
X03821Y04127*
X0383Y04123*
X0384Y04122*
X03849Y04123*
X03858Y04127*
X03866Y04133*
X03872Y04141*
X03876Y0415*
X03877Y0416*
X03876Y04169*
X03872Y04178*
X03866Y04186*
X03858Y04192*
X03849Y04196*
X0384Y04197*
G37*
G36*
X0374D02*
X0373Y04196D01*
X03721Y04192*
X03713Y04186*
X03707Y04178*
X03703Y04169*
X03702Y0416*
X03703Y0415*
X03707Y04141*
X03713Y04133*
X03721Y04127*
X0373Y04123*
X0374Y04122*
X03749Y04123*
X03758Y04127*
X03766Y04133*
X03772Y04141*
X03776Y0415*
X03777Y0416*
X03776Y04169*
X03772Y04178*
X03766Y04186*
X03758Y04192*
X03749Y04196*
X0374Y04197*
G37*
G36*
X03835Y04255D02*
X03802D01*
X03803Y0425*
X03807Y04241*
X03813Y04233*
X03821Y04227*
X0383Y04223*
X03835Y04222*
Y04255*
G37*
G36*
X03657Y04317D02*
X03582D01*
Y04242*
X03657*
Y04317*
G37*
G36*
X0352Y04317D02*
X0351Y04316D01*
X03501Y04312*
X03493Y04306*
X03487Y04298*
X03483Y04289*
X03482Y0428*
X03483Y0427*
X03487Y04261*
X03493Y04253*
X03501Y04247*
X0351Y04243*
X0352Y04242*
X03529Y04243*
X03538Y04247*
X03546Y04253*
X03552Y04261*
X03556Y0427*
X03557Y0428*
X03556Y04289*
X03552Y04298*
X03546Y04306*
X03538Y04312*
X03529Y04316*
X0352Y04317*
G37*
G36*
X03877Y04255D02*
X03845D01*
Y04222*
X03849Y04223*
X03858Y04227*
X03866Y04233*
X03872Y04241*
X03876Y0425*
X03877Y04255*
G37*
%LNpaw7-3*%
%LPD*%
G54D22*
X03509Y04859D02*
X0351Y0486D01*
X03235Y03925D02*
Y03929D01*
X03236*
Y03865D02*
Y03929D01*
X03268Y03895D02*
Y04005D01*
X03207Y04065D02*
X03268Y04005D01*
X03192Y0386D02*
Y04308D01*
Y0386D02*
X03201Y03851D01*
X03258Y04304D02*
X03263Y043D01*
X03298*
X03229Y04304D02*
X03258D01*
X03207Y04065D02*
Y04283D01*
X034Y03855D02*
X03409D01*
X0341Y03854*
X03375Y0392D02*
X03434D01*
X03441Y03912*
Y03704D02*
Y03912D01*
X0336Y03999D02*
X03366Y04005D01*
X0336Y03995D02*
Y03999D01*
X03366Y04005D02*
X03442D01*
X03316Y03963D02*
X03373D01*
X03315Y03964D02*
X03316Y03963D01*
X03388Y03978D02*
X03436D01*
X03373Y03963D02*
X03388Y03978D01*
X03436D02*
X03457Y03958D01*
X0321Y03815D02*
X03215Y0382D01*
X03175Y03815D02*
X0321D01*
X03168Y03821D02*
X03175Y03815D01*
X03246Y03678D02*
X03309Y03616D01*
X03246Y03678D02*
Y03833D01*
X03201Y03851D02*
X03228D01*
X03236Y03865D02*
X03245Y03856D01*
X03293*
X03228Y03851D02*
X03246Y03833D01*
X02927Y03821D02*
X03168D01*
X03293Y03856D02*
X03328Y03821D01*
X03315Y03856D02*
X03343D01*
X03299Y03872D02*
X03315Y03856D01*
X0329Y03872D02*
X03299D01*
X0328Y03804D02*
Y03825D01*
X03328Y03821D02*
X03332D01*
X0328Y03804D02*
X03341Y03743D01*
X03268Y03895D02*
X0329Y03872D01*
X03332Y03821D02*
X03377Y03776D01*
Y03616D02*
Y03776D01*
X03341Y036D02*
Y03743D01*
X03045Y03985D02*
X03065D01*
X03039Y03979D02*
X03045Y03985D01*
X02967Y03837D02*
X03136Y04006D01*
X02919Y03837D02*
X02967D01*
X03136Y04006D02*
Y0412D01*
X03039Y03936D02*
Y03979D01*
X03013Y0391D02*
X03039Y03936D01*
X0291Y0402D02*
Y0403D01*
Y0402D02*
X02915Y04015D01*
X02933*
X03655Y04795D02*
X0367Y0481D01*
X03655Y04795D02*
Y048D01*
X0255Y045D02*
X0264Y0441D01*
Y04224D02*
Y0441D01*
X02739Y03398D02*
Y03599D01*
X02896Y03337D02*
Y03409D01*
X02864Y03305D02*
X02896Y03337D01*
X02832Y03305D02*
X02864D01*
X02739Y03398D02*
X02832Y03305D01*
X02856Y03458D02*
Y03697D01*
X02783D02*
X02856D01*
X02744Y03659D02*
X02783Y03697D01*
X02284Y03728D02*
X02341Y03785D01*
X02493Y04714D02*
X02729Y04478D01*
X03063*
X02607Y04869D02*
X03233D01*
X02527Y04789D02*
X02607Y04869D01*
X02669Y04835D02*
X0284D01*
X02643Y04808D02*
X02669Y04835D01*
X02643Y0473D02*
X02854Y0452D01*
X02643Y0473D02*
Y04808D01*
X02871Y03789D02*
X02919Y03837D01*
X02518Y03789D02*
X02871D01*
X02439D02*
X02518D01*
X02363Y03865D02*
X02439Y03789D01*
X02319Y0359D02*
X02518Y03789D01*
X02155Y0359D02*
X02319D01*
X03444Y04676D02*
X03555D01*
X03149Y0438D02*
X03444Y04676D01*
X03149Y04227D02*
Y0438D01*
X03362Y04134D02*
X03568Y03928D01*
Y03771D02*
Y03928D01*
Y03771D02*
X03802Y03537D01*
Y03422D02*
Y03537D01*
X0368Y033D02*
X03802Y03422D01*
X03223Y04252D02*
X03244Y04273D01*
X03223Y04192D02*
X0324Y04175D01*
X03313D02*
X03315Y04177D01*
X0324Y04175D02*
X03313D01*
X03223Y04192D02*
Y04252D01*
X03207Y04283D02*
X03229Y04304D01*
X0308Y03601D02*
X03091Y03612D01*
X0308Y03458D02*
Y03601D01*
Y03458D02*
X03116Y03422D01*
X03157Y037D02*
X032Y03658D01*
X03172Y037D02*
X032Y03672D01*
X03157Y037D02*
X03172D01*
X032Y03658D02*
X03274Y03584D01*
X03325D02*
X03341Y036D01*
X03274Y03584D02*
X03325D01*
X032Y03614D02*
Y03658D01*
Y03672*
X03112Y03526D02*
X032Y03614D01*
X03028Y0371D02*
X03038Y037D01*
X03157*
X02953Y03678D02*
X03135D01*
X03157Y03655*
X02928Y03652D02*
X02953Y03678D01*
X02928Y03513D02*
Y03652D01*
Y03513D02*
X02951Y0349D01*
X02875Y03769D02*
X02927Y03821D01*
X0259Y03769D02*
X02875D01*
X02484Y03663D02*
X0259Y03769D01*
X02484Y03442D02*
Y03663D01*
X02657Y03398D02*
X02698Y03439D01*
X02484Y03442D02*
X02528Y03398D01*
X02657*
X03153Y03741D02*
X03156Y03739D01*
X02999Y03741D02*
X03153D01*
X02972Y03714D02*
X02999Y03741D01*
X02516Y03522D02*
X02708Y03714D01*
X02972*
X02516Y03456D02*
Y03522D01*
X02524Y0391D02*
X03013D01*
X02476Y03862D02*
X02524Y0391D01*
X02627Y04116D02*
X02897D01*
X02424Y03913D02*
X02627Y04116D01*
X02161Y03913D02*
X02424D01*
X03441Y03704D02*
X03602Y03544D01*
Y03496D02*
Y03544D01*
X03584Y03478D02*
X03602Y03496D01*
X03502Y03478D02*
X03584D01*
X0346Y0352D02*
X03502Y03478D01*
X0341Y0367D02*
Y03854D01*
Y0367D02*
X0356Y0352D01*
X03457Y03722D02*
Y03958D01*
Y03722D02*
X0366Y0352D01*
X03472Y03807D02*
Y03975D01*
X03442Y04005D02*
X03472Y03975D01*
Y03807D02*
X0376Y0352D01*
X03377Y03616D02*
X03415Y03578D01*
Y03488D02*
Y03578D01*
Y03488D02*
X03448Y03455D01*
X0377*
X0374Y0366D02*
Y03693D01*
X0344Y04371D02*
Y044D01*
X03271Y04206D02*
X03275D01*
X0328*
X03275D02*
X0344Y04371D01*
X0341Y0449D02*
X0352Y0438D01*
X03375Y0449D02*
X0341D01*
X03193Y04308D02*
X03375Y0449D01*
G54D24*
X03375Y0479D02*
X0365D01*
X03353Y04768D02*
X03375Y0479D01*
G54D25*
X0282Y03386D02*
X02853Y03353D01*
X0282Y03386D02*
Y03661D01*
X02709Y04786D02*
X03247D01*
X02675Y04752D02*
X02709Y04786D01*
X03353Y0462D02*
Y04768D01*
X02957Y04224D02*
X03353Y0462D01*
X0264Y04224D02*
X02957D01*
G54D28*
X02853Y03337D02*
Y03353D01*
G54D33*
X0282Y03858D03*
X022D03*
G54D34*
X0282Y03661D03*
X022D03*
G54D35*
X0374Y0486D03*
X0362Y0428D03*
X0388Y033D03*
X0348D03*
X033D03*
X0368D03*
G54D36*
X0384Y0486D03*
X0374Y0476D03*
X0384D03*
X0374Y0466D03*
X0384D03*
X0374Y0456D03*
X0384D03*
X0374Y0446D03*
X0384D03*
X0374Y0436D03*
X0384D03*
X0374Y0426D03*
X0384D03*
X0374Y0416D03*
X0384D03*
X0374Y0406D03*
X0384D03*
X0374Y0396D03*
X0384D03*
X0374Y0386D03*
X0384D03*
X0374Y0376D03*
X0384D03*
X0374Y0366D03*
X0384D03*
X031Y032D03*
X028D03*
X0222D03*
X025D03*
X0352Y0428D03*
X0362Y0438D03*
X0352D03*
X0362Y0448D03*
X0352D03*
X0376Y0352D03*
X0366D03*
X0356D03*
X0346D03*
X0336D03*
X0388Y032D03*
Y031D03*
X0348Y032D03*
Y031D03*
X033Y032D03*
Y031D03*
X0368Y032D03*
Y031D03*
G54D37*
X03Y032D03*
X027D03*
X0212D03*
X024D03*
X0386Y0352D03*
G54D38*
X0214Y0482D03*
Y0403D03*
Y0462D03*
Y0423D03*
X024Y0456D03*
Y048D03*
G54D39*
X0298Y0378D03*
Y03972D03*
G54D40*
X0351Y0486D03*
X03235Y03925D03*
X034Y03855D03*
X03375Y0392D03*
X0336Y03995D03*
X03215Y0382D03*
X0328Y03825D03*
X03343Y03856D03*
X033Y043D03*
X031D03*
X03065Y03985D03*
X0291Y0403D03*
X03075Y0389D03*
X03315Y03964D03*
X03505Y04095D03*
X0255Y045D03*
X02853Y03337D03*
X03271Y04206D03*
X0326Y04785D03*
X02675Y04752D03*
X02896Y03409D03*
X02739Y03599D03*
X02856Y03458D03*
X02744Y03659D03*
X02341Y03785D03*
X02284Y03728D03*
X03063Y04478D03*
X02493Y04714D03*
X03233Y04869D03*
X02527Y04789D03*
X02854Y0452D03*
X0284Y04835D03*
X03136Y0412D03*
X02363Y03865D03*
X02155Y0359D03*
X03555Y04676D03*
X03149Y04227D03*
X03362Y04134D03*
X03244Y04273D03*
X03315Y04177D03*
X03116Y03422D03*
X03091Y03612D03*
X03112Y03526D03*
X03028Y0371D03*
X03157Y03655D03*
X02951Y0349D03*
X02928Y03652D03*
X02698Y03439D03*
X03156Y03739D03*
X02516Y03456D03*
X02476Y03862D03*
X02897Y04116D03*
X02161Y03913D03*
X0377Y03455D03*
X03309Y03616D03*
X02896Y036D03*
X03064Y03282D03*
X02419Y03616D03*
X03015Y04615D03*
X036Y03802D03*
X02867Y04566D03*
X02395Y03299D03*
X03655Y04795D03*
X03353Y04768D03*
X0264Y04224D03*
G54D41*
X0344Y044D03*
M02*