%FSTAX23Y23*%
%MOIN*%
%SFA1B1*%

%IPPOS*%
%ADD10R,0.165350X0.165350*%
%ADD11O,0.070870X0.023620*%
%ADD12R,0.039370X0.043310*%
%ADD13R,0.059060X0.051180*%
%ADD14R,0.084650X0.015750*%
%ADD15R,0.084650X0.015750*%
%ADD16R,0.157480X0.393700*%
%ADD17R,0.043310X0.039370*%
%ADD18O,0.064960X0.021650*%
%ADD19O,0.021650X0.064960*%
%ADD20O,0.049210X0.011810*%
%ADD21R,0.064960X0.011810*%
%ADD22C,0.007870*%
%ADD23C,0.018900*%
%ADD24C,0.015750*%
%ADD25C,0.019690*%
%ADD26C,0.011810*%
%ADD27C,0.039370*%
%ADD28C,0.012600*%
%ADD29C,0.078740*%
%ADD30C,0.031500*%
%ADD31C,0.006300*%
%ADD32C,0.010000*%
%ADD33C,0.053150*%
%ADD34R,0.053150X0.053150*%
%ADD35R,0.059060X0.059060*%
%ADD36C,0.059060*%
%ADD37R,0.059060X0.059060*%
%ADD38C,0.150000*%
%ADD39C,0.059060*%
%ADD40C,0.039370*%
%ADD41C,0.050000*%
%LNpaw7-1*%
%LPD*%
G54D10*
X0304Y0476D03*
G54D11*
X02898Y04835D03*
Y04785D03*
Y04735D03*
Y04685D03*
X03181Y04835D03*
Y04785D03*
Y04735D03*
Y04685D03*
G54D12*
X0316Y03506D03*
Y03573D03*
X034Y04353D03*
Y04286D03*
X036Y03733D03*
Y03666D03*
X026Y03453D03*
Y03386D03*
G54D13*
X0256Y04562D03*
Y04637D03*
G54D14*
X02771Y03509D03*
X02171D03*
G54D15*
X02771Y03483D03*
Y03458D03*
Y03432D03*
Y03407D03*
Y03381D03*
Y03356D03*
Y0333D03*
X03028Y03509D03*
Y03483D03*
Y03458D03*
Y03432D03*
Y03407D03*
Y03381D03*
Y03356D03*
Y0333D03*
X02171Y03483D03*
Y03458D03*
Y03432D03*
Y03407D03*
Y03381D03*
Y03356D03*
Y0333D03*
X02428Y03509D03*
Y03483D03*
Y03458D03*
Y03432D03*
Y03407D03*
Y03381D03*
Y03356D03*
Y0333D03*
G54D16*
X02375Y0416D03*
X02785Y04165D03*
G54D17*
X02973Y0452D03*
X02906D03*
X02773D03*
X02706D03*
X03286Y0484D03*
X03353D03*
X03213Y0448D03*
X03146D03*
X03286Y0468D03*
X03353D03*
X02526Y0484D03*
X02593D03*
X02686D03*
X02753D03*
X02966Y036D03*
X03033D03*
X02946Y0408D03*
X03013D03*
X02946Y043D03*
X03013D03*
X02773Y047D03*
X02706D03*
G54D18*
X03134Y0401D03*
Y03978D03*
Y03947D03*
Y03915D03*
Y03884D03*
Y03852D03*
Y03821D03*
Y03789D03*
X03465D03*
Y03821D03*
Y03852D03*
Y03884D03*
Y03915D03*
Y03947D03*
Y03978D03*
Y0401D03*
G54D19*
X03189Y03734D03*
X03221D03*
X03252D03*
X03284D03*
X03315D03*
X03347D03*
X03378D03*
X0341D03*
Y04065D03*
X03378D03*
X03347D03*
X03315D03*
X03284D03*
X03252D03*
X03221D03*
X03189D03*
G54D20*
X03592Y0473D03*
Y0475D03*
Y04769D03*
Y04789D03*
X03487Y0473D03*
Y0475D03*
Y04769D03*
Y04789D03*
G54D21*
X02629Y03683D03*
Y03708D03*
Y03734D03*
Y0376D03*
Y03785D03*
Y03811D03*
Y03836D03*
X0241Y03683D03*
Y03708D03*
Y03734D03*
Y0376D03*
Y03785D03*
Y03811D03*
Y03836D03*
G54D22*
X0351Y04826D02*
Y0486D01*
Y04826D02*
X03524Y04811D01*
Y04769D02*
Y04811D01*
X03487Y04769D02*
X03524D01*
X0354Y0482D02*
X0358Y0486D01*
X0354Y0476D02*
Y0482D01*
X03259Y03949D02*
X03267D01*
X03235Y03925D02*
X03259Y03949D01*
X03267D02*
X03284Y03932D01*
X03341*
X03189Y03915D02*
Y04011D01*
X0277Y0415D02*
X02785D01*
X0305*
X034Y03855D02*
X03463D01*
X03465Y03852*
X03373Y03886D02*
X03463D01*
X03465Y03884*
X03343Y03856D02*
X03373Y03886D01*
X03375Y0392D02*
X03379D01*
X03407Y03947*
X03465*
X03341Y03932D02*
X03388Y03978D01*
X03465*
X03358Y03995D02*
X0336D01*
X03347Y04005D02*
X03358Y03995D01*
X03215Y0374D02*
Y0382D01*
Y0374D02*
X03221Y03734D01*
X03135Y03851D02*
X03261D01*
X03134Y03852D02*
X03135Y03851D01*
X03261D02*
X03266Y03856D01*
X03293D02*
X03328Y03821D01*
X03266Y03856D02*
X03293D01*
X0328Y03825D02*
X03284Y0382D01*
Y03734D02*
Y0382D01*
X03328Y03821D02*
X03465D01*
X0385Y0457D02*
X0386Y0456D01*
X0381Y0461D02*
X0385Y0457D01*
X03487Y03666D02*
Y03789D01*
X03446Y0401D02*
Y04199D01*
X03168Y03723D02*
X03189D01*
X02984Y03972D02*
Y03976D01*
Y03931D02*
Y03972D01*
X03275Y0363D02*
X03323D01*
X02396Y033D02*
Y0333D01*
X02171Y03509D02*
Y03526D01*
X02419Y03616D02*
Y03683D01*
X03064Y03282D02*
Y0333D01*
X03075Y03904D02*
X03094Y03884D01*
X03012Y04685D02*
X0304D01*
X03063Y03509D02*
Y03527D01*
X034Y0428D02*
X0355D01*
X0366Y04775D02*
Y04795D01*
X03064Y03984D02*
Y03984D01*
X03065Y03985*
X03064Y03984D02*
X0307Y03978D01*
X03134*
X03086Y03947D02*
X03134D01*
X03075Y03936D02*
X03086Y03947D01*
X0291Y0402D02*
Y0403D01*
Y0402D02*
X02915Y04015D01*
X02946Y04028D02*
Y0408D01*
X02933Y04015D02*
X02946Y04028D01*
X02915Y04015D02*
X02933D01*
X03189Y03853D02*
Y03915D01*
X03134D02*
X03189D01*
X0305Y0415D02*
X03189Y04011D01*
X03505Y04095D02*
X03525Y04075D01*
Y03926D02*
Y04075D01*
X03514Y03915D02*
X03525Y03926D01*
X03465Y03915D02*
X03514D01*
X033Y04733D02*
Y0482D01*
Y04733D02*
X03353Y0468D01*
X0255Y04502D02*
X0256Y04512D01*
Y04562*
X03487Y04672D02*
X0355Y0461D01*
X0381*
X03487Y04672D02*
Y0473D01*
X03578Y03886D02*
X03632Y03832D01*
X03578Y04338D02*
X0362Y0438D01*
X03578Y03886D02*
Y04338D01*
X03632Y03633D02*
Y03832D01*
X0352Y03633D02*
X03632D01*
X03465Y03789D02*
X03487D01*
Y03666D02*
X0352Y03633D01*
X0389Y04525D02*
Y04685D01*
X0384Y04475D02*
X0389Y04525D01*
X03865Y0471D02*
X0389Y04685D01*
X0384Y0446D02*
Y04475D01*
X03592Y0473D02*
X03629D01*
X0365Y0471D02*
X03865D01*
X03629Y0473D02*
X0365Y0471D01*
X0357Y0443D02*
X0362Y0448D01*
X0357Y04356D02*
Y0443D01*
X03284Y04065D02*
Y04161D01*
X03271Y04174D02*
Y04206D01*
Y04174D02*
X03284Y04161D01*
X03216Y04685D02*
X03296Y0474D01*
X03181Y04685D02*
X03216D01*
X02945Y03458D02*
X03028D01*
X02896Y03409D02*
X02945Y03458D01*
X0258Y0376D02*
X02629D01*
X02564Y03744D02*
X0258Y0376D01*
X02564Y03678D02*
Y03744D01*
Y03678D02*
X02643Y03599D01*
X02739*
X02771Y03458D02*
X02856D01*
X02629Y03683D02*
X0272D01*
X02744Y03659*
X02368Y03708D02*
X0241D01*
X02368Y03458D02*
X02428D01*
X02343Y03683D02*
X02368Y03708D01*
X02343Y03483D02*
Y03683D01*
Y03483D02*
X02368Y03458D01*
X02341Y03785D02*
X0241D01*
X02284Y03517D02*
Y03728D01*
X02225Y03458D02*
X02284Y03517D01*
X02171Y03458D02*
X02225D01*
X03144Y04839D02*
X03181Y04835D01*
X03095Y04887D02*
X03144Y04839D01*
X03065Y0448D02*
X03146D01*
X03063Y04478D02*
X03065Y0448D01*
X02493Y04868D02*
X02512Y04887D01*
X03095*
X02493Y04714D02*
Y04868D01*
X02721Y04848D02*
X02729Y0484D01*
X02721Y04848D02*
Y04871D01*
X02729Y0484D02*
X02753D01*
X02653Y04871D02*
X02721D01*
X02621Y0484D02*
X02653Y04871D01*
X02593Y0484D02*
X02621D01*
X03233Y04744D02*
Y04869D01*
X03224Y04735D02*
X03233Y04744D01*
X03181Y04735D02*
X03224D01*
X02526Y04789D02*
Y0484D01*
Y04789D02*
X02527Y04789D01*
X02854Y0452D02*
X02906D01*
X0284Y04835D02*
X02898D01*
X02973Y0452D02*
Y04536D01*
X02971Y0452D02*
X02973D01*
X02375Y0416D02*
Y04242D01*
X03168Y0412D02*
X03189Y04098D01*
X03136Y0412D02*
X03168D01*
X03189Y04065D02*
Y04098D01*
X0241Y03811D02*
Y03836D01*
X02368D02*
X0241D01*
X02363Y03865D02*
X02368Y0386D01*
Y03836D02*
Y0386D01*
X02128Y03483D02*
X02171D01*
X02116Y03495D02*
Y03551D01*
X02155Y0359*
X02116Y03495D02*
X02128Y03483D01*
X03555Y04789D02*
X03592D01*
X03555Y04676D02*
Y04789D01*
X03221Y04065D02*
Y04132D01*
X03149Y04204D02*
X03221Y04132D01*
X03149Y04204D02*
Y04227D01*
X03433Y04789D02*
X03487D01*
X03423Y04779D02*
X03433Y04789D01*
X03423Y04595D02*
Y04779D01*
X03337Y04509D02*
X03423Y04595D01*
X03337Y0426D02*
Y04509D01*
X03315Y04238D02*
X03337Y0426D01*
X03223Y04229D02*
X03232Y04238D01*
X03315*
X03223Y04159D02*
Y04229D01*
X03252Y04065D02*
Y0413D01*
X03223Y04159D02*
X03252Y0413D01*
X03378Y04065D02*
Y04117D01*
X03362Y04134D02*
X03378Y04117D01*
X03136Y04273D02*
X03244D01*
X03315Y04177D02*
X03395D01*
X02913Y04272D02*
Y04357D01*
X03115Y04252D02*
X03136Y04273D01*
X02896Y04374D02*
X02913Y04357D01*
X02933Y04252D02*
X03115D01*
X02913Y04272D02*
X02933Y04252D01*
X03412Y04089D02*
Y0416D01*
X03395Y04177D02*
X03412Y0416D01*
X0341Y04088D02*
X03412Y04089D01*
X0341Y04065D02*
Y04088D01*
X02958Y03407D02*
X03028D01*
X02928Y03377D02*
X02958Y03407D01*
X02834D02*
X02864Y03377D01*
X02928*
X02771Y03407D02*
X02834D01*
X02695Y04374D02*
X02896D01*
X02594Y04273D02*
X02695Y04374D01*
X02594Y04005D02*
Y04273D01*
X0253Y03941D02*
X02594Y04005D01*
X02368Y03941D02*
X0253D01*
X02301Y03759D02*
Y03874D01*
Y03759D02*
X02315Y03745D01*
X02301Y03874D02*
X02368Y03941D01*
X02336Y03407D02*
X02386D01*
X02428*
X02315Y03427D02*
Y03745D01*
X02695Y03407D02*
X02771D01*
X02592Y03304D02*
X02695Y03407D01*
X02592Y03107D02*
Y03304D01*
X02583Y03097D02*
X02592Y03107D01*
X02379Y03097D02*
X02583D01*
X02315Y03427D02*
X02336Y03407D01*
X02342Y03363D02*
X02386Y03407D01*
X02342Y03134D02*
Y03363D01*
Y03134D02*
X02379Y03097D01*
X02171Y03407D02*
X02336D01*
X0388Y033D02*
Y03331D01*
X03771Y03339D02*
X0388Y03331D01*
X03718Y03392D02*
X03771Y03339D01*
X03718Y03392D02*
Y03551D01*
X03782Y03615*
Y04488*
X0376Y0451D02*
X03782Y04488D01*
X03717Y0451D02*
X0376D01*
X0368Y04547D02*
X03717Y0451D01*
X03507Y04547D02*
X0368D01*
X03368Y04408D02*
X03507Y04547D01*
X03368Y04253D02*
Y04408D01*
Y04253D02*
X03392D01*
X03446Y04199*
Y0401D02*
X03465D01*
X03259Y04339D02*
X03298Y043D01*
X03077Y04339D02*
X03259D01*
X03013Y043D02*
X03038D01*
X03077Y04339*
X03347Y03677D02*
Y03734D01*
X0332Y0365D02*
X03347Y03677D01*
X033Y033D02*
Y03395D01*
X0327Y0365D02*
X0332D01*
X03225Y03605D02*
X0327Y0365D01*
X03225Y0347D02*
X033Y03395D01*
X03225Y0347D02*
Y03605D01*
X03315Y03696D02*
Y03734D01*
X03297Y03678D02*
X03315Y03696D01*
X03275Y03678D02*
X03297D01*
X03209Y03612D02*
X03275Y03678D01*
X03105Y03432D02*
X03116Y03422D01*
X03091Y03612D02*
X03209D01*
X03028Y03432D02*
X03105D01*
X02959Y0371D02*
X03028D01*
X02857Y03811D02*
X02959Y0371D01*
X02629Y03811D02*
X02857D01*
X02629Y03785D02*
Y03811D01*
X03112Y03523D02*
Y03526D01*
X03072Y03483D02*
X03112Y03523D01*
X03028Y03483D02*
X03072D01*
X03252Y03681D02*
Y03734D01*
X03226Y03655D02*
X03252Y03681D01*
X03157Y03655D02*
X03226D01*
X02629Y03708D02*
X02872D01*
X02928Y03652*
X02629Y03708D02*
Y03734D01*
X02822Y0349D02*
X02951D01*
X02771Y03483D02*
X02822Y0349D01*
X02704Y03432D02*
X02771D01*
X02698Y03439D02*
X02704Y03432D01*
X03189Y03723D02*
Y03734D01*
X03156Y03735D02*
Y03739D01*
Y03735D02*
X03168Y03723D01*
X02492Y03432D02*
X02516Y03456D01*
X02428Y03432D02*
X02492D01*
X03124Y0378D02*
X03134Y03789D01*
Y03764D02*
Y03789D01*
X03095Y03725D02*
X03134Y03764D01*
X03095Y03661D02*
Y03725D01*
X0298Y0378D02*
X03124D01*
X03033Y036D02*
X03095Y03661D01*
X03013Y04005D02*
Y0408D01*
X02984Y03976D02*
X03013Y04005D01*
X03093Y03821D02*
X03134D01*
X0298Y03972D02*
X02984Y03976D01*
Y03931D02*
X03093Y03821D01*
X02476Y03753D02*
Y03862D01*
Y03584D02*
Y03744D01*
X02471Y03748D02*
X02476Y03753D01*
X0246Y0376D02*
X02471Y03748D01*
X02457Y03734D02*
X02471Y03748D01*
X02476Y03744*
X0241Y0376D02*
X0246D01*
X0241Y03734D02*
X02457D01*
X0241D02*
Y0376D01*
X024Y0355D02*
X02442D01*
X02476Y03584*
X02384Y03483D02*
X02428D01*
X02374Y03493D02*
Y03524D01*
X024Y0355*
X02374Y03493D02*
X02384Y03483D01*
X03041Y04116D02*
X03096Y04061D01*
X02897Y04116D02*
X03041D01*
X03096Y0401D02*
Y04061D01*
Y0401D02*
X03134D01*
X02161Y03773D02*
X02236Y03698D01*
Y03625D02*
Y03698D01*
X02143Y03625D02*
X02236D01*
X02161Y03773D02*
Y03913D01*
X021Y03582D02*
X02143Y03625D01*
X02126Y03432D02*
X02171D01*
X021Y03458D02*
Y03582D01*
Y03458D02*
X02126Y03432D01*
X03315Y03964D02*
Y04065D01*
X03347Y04005D02*
Y04065D01*
X03795Y03455D02*
X0386Y0352D01*
X0377Y03455D02*
X03795D01*
X03335Y0363D02*
X03378Y03673D01*
X0342Y0338D02*
X0348Y0332D01*
Y033D02*
Y0332D01*
X0334Y0338D02*
X0342D01*
X03245Y03475D02*
X0334Y0338D01*
X03245Y03475D02*
Y036D01*
X03275Y0363*
X0362Y0428D02*
X03692Y04208D01*
X0366Y03616D02*
X03692Y03648D01*
Y04208*
X0341Y03624D02*
Y03734D01*
X03418Y03616D02*
X0366D01*
X0341Y03624D02*
X03418Y03616D01*
X02965Y04685D02*
X0304Y0476D01*
X02802Y0452D02*
X02848Y04566D01*
X03286Y04612D02*
Y04656D01*
X03144D02*
X03286D01*
X02898Y04685D02*
X02933D01*
X02376Y0333D02*
X02396D01*
X0241Y03683D02*
X02419D01*
X02896Y036D02*
X02966D01*
X0304Y04685D02*
Y0476D01*
X0316Y03404D02*
Y03506D01*
Y03404D02*
X03179Y03385D01*
Y03162D02*
Y03385D01*
X03136Y03119D02*
X03179Y03162D01*
X02975Y03119D02*
X03136D01*
X02958Y03136D02*
X02975Y03119D01*
X02958Y03136D02*
Y03308D01*
X0298Y0333*
X03028*
X03064*
X03213Y04538D02*
X03286Y04612D01*
X03213Y0448D02*
Y04538D01*
X036Y03733D02*
Y03802D01*
X02773Y0452D02*
X02802D01*
X02848Y04566D02*
X02867D01*
X02396Y0333D02*
X02428D01*
X02395Y03299D02*
X02396Y033D01*
X02946Y0428D02*
Y043D01*
Y0428D02*
X02958Y04268D01*
X03069*
X03101Y043*
X0304Y0476D02*
X03144Y04656D01*
X03286D02*
Y0468D01*
X026Y03386D02*
X02624D01*
X02641Y03403*
Y03496*
X02654Y03509*
X02771*
X0256Y04637D02*
Y04689D01*
X02686Y04815*
Y0484*
X02477Y04637D02*
X0256D01*
X024Y0456D02*
X02477Y04637D01*
X026Y03385D02*
Y03386D01*
X02574Y03359D02*
X026Y03385D01*
X02574Y03136D02*
Y03359D01*
X02558Y0312D02*
X02574Y03136D01*
X02396Y0312D02*
X02558D01*
X02358Y03158D02*
X02396Y0312D01*
X02358Y03158D02*
Y03312D01*
X02376Y0333*
X02171Y03509D02*
X02171D01*
X02171Y03526D02*
X02252Y03608D01*
Y03805*
X022Y03858D02*
X02252Y03805D01*
X03094Y03884D02*
X03134D01*
X03075Y03904D02*
Y03936D01*
X03654Y04769D02*
X0366Y04775D01*
X03592Y04769D02*
X03629D01*
X03592Y0475D02*
Y04769D01*
X03353Y04768D02*
Y0484D01*
X034Y0428D02*
Y04286D01*
X03504Y03821D02*
X03523Y03802D01*
Y03712D02*
X03568Y03666D01*
X03523Y03712D02*
Y03802D01*
X03568Y03666D02*
X036D01*
X03063Y03527D02*
X03085Y0355D01*
X03028Y03509D02*
X03063D01*
X02785Y04165D02*
Y04224D01*
X0277Y0415D02*
X02785Y04165D01*
X026Y03488D02*
Y03494D01*
Y03453D02*
Y03488D01*
X02428Y03509D02*
X02464D01*
X03592Y04769D02*
X03654D01*
X0358Y0486D02*
X0374D01*
X0353Y0475D02*
X0354Y0476D01*
X03487Y0475D02*
X0353D01*
X03309Y03616D02*
X03323Y0363D01*
X03335*
X03323D02*
X03378Y03685D01*
Y03673D02*
Y03685D01*
Y03734*
X03544Y0433D02*
X0357Y04356D01*
X034Y04353D02*
X03423Y0433D01*
X03544*
X034Y04353D02*
Y0436D01*
X0344Y044*
G54D23*
X03247Y04785D02*
Y04786D01*
X03181Y04785D02*
X03247D01*
G54D24*
X0273Y0327D02*
Y0333D01*
Y0333*
X02933Y04685D02*
X03012Y04606D01*
Y04685*
X02629Y04009D02*
X02702Y04082D01*
X032Y033D02*
Y0355D01*
X0379Y0481D02*
X0384Y0486D01*
X0367Y0481D02*
X0379D01*
X032Y0355D02*
Y0356D01*
X0316Y03573D02*
X03186D01*
X032Y0356*
X02835Y04735D02*
X02898D01*
X02694Y03381D02*
X02771D01*
X0261Y03296D02*
X02694Y03381D01*
X02113D02*
X02171D01*
X0261Y0308D02*
Y03296D01*
X02145Y0308D02*
X0261D01*
X0207Y03424D02*
X02113Y03381D01*
X0207Y03155D02*
X02145Y0308D01*
X0207Y03155D02*
Y03424D01*
X031Y032D02*
Y0334D01*
X03083Y03356D02*
X031Y0334D01*
X03028Y03356D02*
X03083D01*
X03108Y03381D02*
X0315Y0334D01*
Y03165D02*
Y0334D01*
X03028Y03381D02*
X03108D01*
X0313Y03145D02*
X0315Y03165D01*
X0305Y03145D02*
X0313D01*
X03Y03195D02*
Y032D01*
Y03195D02*
X0305Y03145D01*
X0273Y0333D02*
X02771D01*
X028Y032D02*
Y03205D01*
X02794Y03205D02*
X028Y03205D01*
X0273Y0333D02*
X0273Y0333D01*
X0273Y0327D02*
X02794Y03205D01*
X02703Y03356D02*
X02771D01*
X027Y032D02*
Y03347D01*
X02699Y03347D02*
X02703Y03356D01*
X02699Y03347D02*
X027Y03347D01*
X025Y032D02*
Y0334D01*
X02483Y03356D02*
X025Y0334D01*
X02428Y03356D02*
X02483D01*
X0255Y0316D02*
Y03325D01*
X02493Y03381D02*
X0255Y03325D01*
X0253Y0314D02*
X0255Y0316D01*
X0246Y0314D02*
X0253D01*
X02428Y03381D02*
X02493D01*
X024Y032D02*
X0246Y0314D01*
X0222Y032D02*
Y0323D01*
X02171Y03278D02*
Y0333D01*
Y03278D02*
X0222Y0323D01*
X02116Y03356D02*
X02171D01*
X0212Y032D02*
Y03285D01*
X02105Y03345D02*
X02116Y03356D01*
X02105Y033D02*
X0212Y03285D01*
X02105Y033D02*
Y03345D01*
X0238Y0482D02*
X024Y048D01*
X0282Y0464D02*
X0285Y0461D01*
X029D02*
X02973Y04536D01*
X0285Y0461D02*
X029D01*
X0282Y0464D02*
Y0472D01*
X02835Y04735*
X032Y033D02*
X033Y032D01*
X03109Y03573D02*
X0316D01*
X03085Y0355D02*
X03109Y03573D01*
X02702Y04082D02*
X0277Y0415D01*
X0252Y039D02*
X02629Y04009D01*
X02656Y0355D02*
X03085D01*
X026Y03494D02*
X02656Y0355D01*
X0252Y03565D02*
Y039D01*
X02464Y03509D02*
X0252Y03565D01*
X02464Y03509D02*
X02578D01*
X026Y03488*
G54D25*
X02375Y04242D02*
X02518D01*
X02971Y04492D02*
Y0452D01*
X0264Y04224D02*
X02785D01*
X0282Y04785D02*
X02898D01*
X02072Y03661D02*
X022D01*
X02675Y047D02*
X02706D01*
X02675D02*
Y04752D01*
X02944Y04465D02*
X02971Y04492D01*
X02741Y04465D02*
X02944D01*
X02518Y04242D02*
X02741Y04465D01*
X0368Y032D02*
X0388D01*
X033D02*
X0348D01*
X0368*
G54D26*
X0355Y03867D02*
Y0428D01*
X03655Y04795D02*
X0367Y0481D01*
X03504Y03821D02*
X0355Y03867D01*
X03465Y03821D02*
X03504D01*
G54D27*
X02773Y04738D02*
X0282Y04785D01*
X02773Y047D02*
Y04738D01*
Y04668D02*
Y047D01*
X02706Y04601D02*
X02773Y04668D01*
X02706Y0452D02*
Y04601D01*
X02255Y04435D02*
X02621D01*
X02706Y0452*
X0214Y0432D02*
X02255Y04435D01*
X0214Y0423D02*
Y0432D01*
G54D28*
X02824Y03381D02*
X02853Y03353D01*
Y03337D02*
Y03353D01*
X02771Y03381D02*
X02824D01*
G54D29*
X0214Y0403D02*
Y0423D01*
Y0462D02*
Y0482D01*
X0238*
G54D30*
X0207Y0396D02*
X0214Y0403D01*
X0207Y03424D02*
Y0396D01*
G54D31*
X0384Y0456D02*
X0386D01*
G54D32*
X02629Y03836D02*
Y04009D01*
G54D33*
X0282Y03858D03*
X022D03*
G54D34*
X0282Y03661D03*
X022D03*
G54D35*
X0374Y0486D03*
X0362Y0428D03*
X0388Y033D03*
X0348D03*
X033D03*
X0368D03*
G54D36*
X0384Y0486D03*
X0374Y0476D03*
X0384D03*
X0374Y0466D03*
X0384D03*
X0374Y0456D03*
X0384D03*
X0374Y0446D03*
X0384D03*
X0374Y0436D03*
X0384D03*
X0374Y0426D03*
X0384D03*
X0374Y0416D03*
X0384D03*
X0374Y0406D03*
X0384D03*
X0374Y0396D03*
X0384D03*
X0374Y0386D03*
X0384D03*
X0374Y0376D03*
X0384D03*
X0374Y0366D03*
X0384D03*
X031Y032D03*
X028D03*
X0222D03*
X025D03*
X0352Y0428D03*
X0362Y0438D03*
X0352D03*
X0362Y0448D03*
X0352D03*
X0376Y0352D03*
X0366D03*
X0356D03*
X0346D03*
X0336D03*
X0388Y032D03*
Y031D03*
X0348Y032D03*
Y031D03*
X033Y032D03*
Y031D03*
X0368Y032D03*
Y031D03*
G54D37*
X03Y032D03*
X027D03*
X0212D03*
X024D03*
X0386Y0352D03*
G54D38*
X0214Y0482D03*
Y0403D03*
Y0462D03*
Y0423D03*
X024Y0456D03*
Y048D03*
G54D39*
X0298Y0378D03*
Y03972D03*
G54D40*
X0351Y0486D03*
X03235Y03925D03*
X034Y03855D03*
X03375Y0392D03*
X0336Y03995D03*
X03215Y0382D03*
X0328Y03825D03*
X03343Y03856D03*
X033Y043D03*
X031D03*
X03065Y03985D03*
X0291Y0403D03*
X03075Y0389D03*
X03315Y03964D03*
X03505Y04095D03*
X0255Y045D03*
X02853Y03337D03*
X03271Y04206D03*
X0326Y04785D03*
X02675Y04752D03*
X02896Y03409D03*
X02739Y03599D03*
X02856Y03458D03*
X02744Y03659D03*
X02341Y03785D03*
X02284Y03728D03*
X03063Y04478D03*
X02493Y04714D03*
X03233Y04869D03*
X02527Y04789D03*
X02854Y0452D03*
X0284Y04835D03*
X03136Y0412D03*
X02363Y03865D03*
X02155Y0359D03*
X03555Y04676D03*
X03149Y04227D03*
X03362Y04134D03*
X03244Y04273D03*
X03315Y04177D03*
X03116Y03422D03*
X03091Y03612D03*
X03112Y03526D03*
X03028Y0371D03*
X03157Y03655D03*
X02951Y0349D03*
X02928Y03652D03*
X02698Y03439D03*
X03156Y03739D03*
X02516Y03456D03*
X02476Y03862D03*
X02897Y04116D03*
X02161Y03913D03*
X0377Y03455D03*
X03309Y03616D03*
X02896Y036D03*
X03064Y03282D03*
X02419Y03616D03*
X03015Y04615D03*
X036Y03802D03*
X02867Y04566D03*
X02395Y03299D03*
X03655Y04795D03*
X03353Y04768D03*
X0264Y04224D03*
G54D41*
X0344Y044D03*
M02*