%FSLAX25Y25*%
%MOIN*%
G70*
G01*
G75*
%ADD10R,0.03937X0.04331*%
%ADD11R,0.15748X0.39370*%
%ADD12R,0.07087X0.06299*%
%ADD13O,0.02165X0.06496*%
%ADD14O,0.06496X0.02165*%
%ADD15R,0.08465X0.01575*%
%ADD16R,0.08465X0.01575*%
%ADD17R,0.04331X0.03937*%
%ADD18R,0.06496X0.01181*%
%ADD19R,0.05906X0.05118*%
%ADD20O,0.04921X0.01181*%
%ADD21O,0.09843X0.02756*%
%ADD22R,0.06299X0.02362*%
%ADD23O,0.07087X0.02362*%
%ADD24R,0.16535X0.16535*%
%ADD25R,0.05118X0.02362*%
%ADD26C,0.00787*%
%ADD27C,0.01181*%
%ADD28C,0.05906*%
%ADD29C,0.01969*%
%ADD30C,0.01378*%
%ADD31C,0.04724*%
%ADD32C,0.01000*%
%ADD33C,0.00000*%
%ADD34C,0.03150*%
%ADD35C,0.03937*%
%ADD36C,0.01575*%
%ADD37C,0.05906*%
%ADD38R,0.05906X0.05906*%
%ADD39C,0.05315*%
%ADD40R,0.05315X0.05315*%
%ADD41C,0.05906*%
%ADD42R,0.05906X0.05906*%
%ADD43C,0.15000*%
%ADD44C,0.05000*%
%ADD45C,0.02362*%
%ADD46C,0.00984*%
%ADD47C,0.00800*%
%ADD48R,0.04737X0.05131*%
%ADD49R,0.16548X0.40170*%
%ADD50R,0.07887X0.07099*%
%ADD51O,0.02965X0.07296*%
%ADD52O,0.07296X0.02965*%
%ADD53R,0.09265X0.02375*%
%ADD54R,0.09265X0.02375*%
%ADD55R,0.05131X0.04737*%
%ADD56R,0.07296X0.01981*%
%ADD57R,0.06706X0.05918*%
%ADD58O,0.05721X0.01981*%
%ADD59O,0.10642X0.03556*%
%ADD60R,0.07099X0.03162*%
%ADD61O,0.07887X0.03162*%
%ADD62R,0.17335X0.17335*%
%ADD63R,0.05918X0.03162*%
%ADD64C,0.06706*%
%ADD65R,0.06706X0.06706*%
%ADD66C,0.06115*%
%ADD67R,0.06115X0.06115*%
%ADD68C,0.06706*%
%ADD69R,0.06706X0.06706*%
%ADD70C,0.15800*%
%ADD71C,0.05800*%
%ADD72C,0.00394*%
%ADD73C,0.00667*%
D33*
X208000Y108000D02*
Y112000D01*
X212000D01*
Y108000D01*
X208000D01*
X198000D02*
Y112000D01*
X202000D01*
Y108000D01*
X198000D01*
X208000Y118000D02*
Y122000D01*
X212000D01*
Y118000D01*
X208000D01*
X198000D02*
Y122000D01*
X202000D01*
Y118000D01*
X198000D01*
X208000Y128000D02*
Y132000D01*
X212000D01*
Y128000D01*
X208000D01*
X198000D02*
Y132000D01*
X202000D01*
Y128000D01*
X198000D01*
X208000Y138000D02*
Y142000D01*
X212000D01*
Y138000D01*
X208000D01*
X198000D02*
Y142000D01*
X202000D01*
Y138000D01*
X198000D01*
X208000Y148000D02*
Y152000D01*
X212000D01*
Y148000D01*
X208000D01*
X198000D02*
Y152000D01*
X202000D01*
Y148000D01*
X198000D01*
X208000Y158000D02*
Y162000D01*
X212000D01*
Y158000D01*
X208000D01*
X198000D02*
Y162000D01*
X202000D01*
Y158000D01*
X198000D01*
X208000Y168000D02*
Y172000D01*
X212000D01*
Y168000D01*
X208000D01*
X198000D02*
Y172000D01*
X202000D01*
Y168000D01*
X198000D01*
X208000Y178000D02*
Y182000D01*
X212000D01*
Y178000D01*
X208000D01*
X198000D02*
Y182000D01*
X202000D01*
Y178000D01*
X198000D01*
X208000Y188000D02*
Y192000D01*
X212000D01*
Y188000D01*
X208000D01*
X198000D02*
Y192000D01*
X202000D01*
Y188000D01*
X198000D01*
X208000Y198000D02*
Y202000D01*
X212000D01*
Y198000D01*
X208000D01*
X198000D02*
Y202000D01*
X202000D01*
Y198000D01*
X198000D01*
X208000Y208000D02*
Y212000D01*
X212000D01*
Y208000D01*
X208000D01*
X198000D02*
Y212000D01*
X202000D01*
Y208000D01*
X198000D01*
X208000Y218000D02*
Y222000D01*
X212000D01*
Y218000D01*
X208000D01*
X198000D02*
Y222000D01*
X202000D01*
Y218000D01*
X198000D01*
X208000Y228000D02*
Y232000D01*
X212000D01*
Y228000D01*
X208000D01*
X198000D02*
Y232000D01*
X202000D01*
Y228000D01*
X198000D01*
X136000Y6000D02*
Y10000D01*
X140000D01*
Y6000D01*
X136000D01*
Y16000D02*
Y20000D01*
X140000D01*
Y16000D01*
X136000D01*
Y26000D02*
Y30000D01*
X140000D01*
Y26000D01*
X136000D01*
X172000Y6000D02*
Y10000D01*
X176000D01*
Y6000D01*
X172000D01*
Y16000D02*
Y20000D01*
X176000D01*
Y16000D01*
X172000D01*
Y26000D02*
Y30000D01*
X176000D01*
Y26000D01*
X172000D01*
X190000Y6000D02*
Y10000D01*
X194000D01*
Y6000D01*
X190000D01*
Y16000D02*
Y20000D01*
X194000D01*
Y16000D01*
X190000D01*
Y26000D02*
Y30000D01*
X194000D01*
Y26000D01*
X190000D01*
X154000Y6000D02*
Y10000D01*
X158000D01*
Y6000D01*
X154000D01*
Y16000D02*
Y20000D01*
X158000D01*
Y16000D01*
X154000D01*
Y26000D02*
Y30000D01*
X158000D01*
Y26000D01*
X154000D01*
X110000Y88000D02*
Y92000D01*
X114000D01*
Y88000D01*
X110000D01*
Y107200D02*
Y111200D01*
X114000D01*
Y107200D01*
X110000D01*
X170000Y138000D02*
Y142000D01*
X174000D01*
Y138000D01*
X170000D01*
X160000D02*
Y142000D01*
X164000D01*
Y138000D01*
X160000D01*
X170000Y148000D02*
Y152000D01*
X174000D01*
Y148000D01*
X170000D01*
X160000D02*
Y152000D01*
X164000D01*
Y148000D01*
X160000D01*
X170000Y158000D02*
Y162000D01*
X174000D01*
Y158000D01*
X170000D01*
X160000D02*
Y162000D01*
X164000D01*
Y158000D01*
X160000D01*
X98000Y8000D02*
Y12000D01*
X102000D01*
Y8000D01*
X98000D01*
X108000D02*
Y12000D01*
X112000D01*
Y8000D01*
X108000D01*
X68000D02*
Y12000D01*
X72000D01*
Y8000D01*
X68000D01*
X78000D02*
Y12000D01*
X82000D01*
Y8000D01*
X78000D01*
X38000D02*
Y12000D01*
X42000D01*
Y8000D01*
X38000D01*
X48000D02*
Y12000D01*
X52000D01*
Y8000D01*
X48000D01*
X8000D02*
Y12000D01*
X12000D01*
Y8000D01*
X8000D01*
X18000D02*
Y12000D01*
X22000D01*
Y8000D01*
X18000D01*
X20000Y236000D02*
X18000Y240000D01*
X22000D01*
X20000Y236000D01*
Y212000D02*
X18000Y216000D01*
X22000D01*
X20000Y212000D01*
X48000Y236000D02*
X46000Y240000D01*
X50000D01*
X48000Y236000D01*
Y212000D02*
X46000Y216000D01*
X50000D01*
X48000Y212000D01*
X206000Y46000D02*
Y50000D01*
X210000D01*
Y46000D01*
X206000D01*
Y36000D02*
Y40000D01*
X210000D01*
Y36000D01*
X206000D01*
Y26000D02*
Y30000D01*
X210000D01*
Y26000D01*
X206000D01*
Y16000D02*
Y20000D01*
X210000D01*
Y16000D01*
X206000D01*
Y6000D02*
Y10000D01*
X210000D01*
Y6000D01*
X206000D01*
X183500Y237000D02*
X184500Y238000D01*
X185500D01*
X184500Y239000D01*
X185500Y240000D01*
X184500D01*
X183500Y241000D01*
X182500Y240000D01*
X181500D01*
X182500Y239000D01*
X181500Y238000D01*
X182500D01*
X183500Y237000D01*
X200000Y61500D02*
X201000Y62500D01*
X202000D01*
X201000Y63500D01*
X202000Y64500D01*
X201000D01*
X200000Y65500D01*
X199000Y64500D01*
X198000D01*
X199000Y63500D01*
X198000Y62500D01*
X199000D01*
X200000Y61500D01*
X185000Y158000D02*
X186000Y159000D01*
X187000D01*
X186000Y160000D01*
X187000Y161000D01*
X186000D01*
X185000Y162000D01*
X184000Y161000D01*
X183000D01*
X184000Y160000D01*
X183000Y159000D01*
X184000D01*
X185000Y158000D01*
X140000Y242500D02*
X141000Y243500D01*
X142000D01*
X141000Y244500D01*
X142000Y245500D01*
X141000D01*
X140000Y246500D01*
X139000Y245500D01*
X138000D01*
X139000Y244500D01*
X138000Y243500D01*
X139000D01*
X140000Y242500D01*
X161000Y171000D02*
X162000Y172000D01*
X163000D01*
X162000Y173000D01*
X163000Y174000D01*
X162000D01*
X161000Y175000D01*
X160000Y174000D01*
X159000D01*
X160000Y173000D01*
X159000Y172000D01*
X160000D01*
X161000Y171000D01*
X172500Y215500D02*
X173500Y216500D01*
X174500D01*
X173500Y217500D01*
X174500Y218500D01*
X173500D01*
X172500Y219500D01*
X171500Y218500D01*
X170500D01*
X171500Y217500D01*
X170500Y216500D01*
X171500D01*
X172500Y215500D01*
X156500Y204000D02*
X157500Y205000D01*
X158500D01*
X157500Y206000D01*
X158500Y207000D01*
X157500D01*
X156500Y208000D01*
X155500Y207000D01*
X154500D01*
X155500Y206000D01*
X154500Y205000D01*
X155500D01*
X156500Y204000D01*
X146000D02*
X147000Y205000D01*
X148000D01*
X147000Y206000D01*
X148000Y207000D01*
X147000D01*
X146000Y208000D01*
X145000Y207000D01*
X144000D01*
X145000Y206000D01*
X144000Y205000D01*
X145000D01*
X146000Y204000D01*
X120500Y194500D02*
X121500Y195500D01*
X122500D01*
X121500Y196500D01*
X122500Y197500D01*
X121500D01*
X120500Y198500D01*
X119500Y197500D01*
X118500D01*
X119500Y196500D01*
X118500Y195500D01*
X119500D01*
X120500Y194500D01*
X126500Y208000D02*
X127500Y209000D01*
X128500D01*
X127500Y210000D01*
X128500Y211000D01*
X127500D01*
X126500Y212000D01*
X125500Y211000D01*
X124500D01*
X125500Y210000D01*
X124500Y209000D01*
X125500D01*
X126500Y208000D01*
X169500Y196000D02*
X170500Y197000D01*
X171500D01*
X170500Y198000D01*
X171500Y199000D01*
X170500D01*
X169500Y200000D01*
X168500Y199000D01*
X167500D01*
X168500Y198000D01*
X167500Y197000D01*
X168500D01*
X169500Y196000D01*
X168000Y185500D02*
X169000Y186500D01*
X170000D01*
X169000Y187500D01*
X170000Y188500D01*
X169000D01*
X168000Y189500D01*
X167000Y188500D01*
X166000D01*
X167000Y187500D01*
X166000Y186500D01*
X167000D01*
X168000Y185500D01*
X188500Y249500D02*
X189500Y250500D01*
X190500D01*
X189500Y251500D01*
X190500Y252500D01*
X189500D01*
X188500Y253500D01*
X187500Y252500D01*
X186500D01*
X187500Y251500D01*
X186500Y250500D01*
X187500D01*
X188500Y249500D01*
X20000Y112500D02*
X21000Y113500D01*
X22000D01*
X21000Y114500D01*
X22000Y115500D01*
X21000D01*
X20000Y116500D01*
X19000Y115500D01*
X18000D01*
X19000Y114500D01*
X18000Y113500D01*
X19000D01*
X20000Y112500D01*
X77000Y143000D02*
X78000Y144000D01*
X79000D01*
X78000Y145000D01*
X79000Y146000D01*
X78000D01*
X77000Y147000D01*
X76000Y146000D01*
X75000D01*
X76000Y145000D01*
X75000Y144000D01*
X76000D01*
X77000Y143000D01*
X35000Y153500D02*
X36000Y154500D01*
X37000D01*
X36000Y155500D01*
X37000Y156500D01*
X36000D01*
X35000Y157500D01*
X34000Y156500D01*
X33000D01*
X34000Y155500D01*
X33000Y154500D01*
X34000D01*
X35000Y153500D01*
Y137000D02*
X36000Y138000D01*
X37000D01*
X36000Y139000D01*
X37000Y140000D01*
X36000D01*
X35000Y141000D01*
X34000Y140000D01*
X33000D01*
X34000Y139000D01*
X33000Y138000D01*
X34000D01*
X35000Y137000D01*
X28000D02*
X29000Y138000D01*
X30000D01*
X29000Y139000D01*
X30000Y140000D01*
X29000D01*
X28000Y141000D01*
X27000Y140000D01*
X26000D01*
X27000Y139000D01*
X26000Y138000D01*
X27000D01*
X28000Y137000D01*
Y149000D02*
X29000Y150000D01*
X30000D01*
X29000Y151000D01*
X30000Y152000D01*
X29000D01*
X28000Y153000D01*
X27000Y152000D01*
X26000D01*
X27000Y151000D01*
X26000Y150000D01*
X27000D01*
X28000Y149000D01*
X126000Y178000D02*
X127000Y179000D01*
X128000D01*
X127000Y180000D01*
X128000Y181000D01*
X127000D01*
X126000Y182000D01*
X125000Y181000D01*
X124000D01*
X125000Y180000D01*
X124000Y179000D01*
X125000D01*
X126000Y178000D01*
X64500Y35500D02*
X65500Y36500D01*
X66500D01*
X65500Y37500D01*
X66500Y38500D01*
X65500D01*
X64500Y39500D01*
X63500Y38500D01*
X62500D01*
X63500Y37500D01*
X62500Y36500D01*
X63500D01*
X64500Y35500D01*
X128500Y229500D02*
X129500Y230500D01*
X130500D01*
X129500Y231500D01*
X130500Y232500D01*
X129500D01*
X128500Y233500D01*
X127500Y232500D01*
X126500D01*
X127500Y231500D01*
X126500Y230500D01*
X127500D01*
X128500Y229500D01*
X138000Y69000D02*
X139000Y70000D01*
X140000D01*
X139000Y71000D01*
X140000Y72000D01*
X139000D01*
X138000Y73000D01*
X137000Y72000D01*
X136000D01*
X137000Y71000D01*
X136000Y70000D01*
X137000D01*
X138000Y69000D01*
X86000Y93000D02*
X87000Y94000D01*
X88000D01*
X87000Y95000D01*
X88000Y96000D01*
X87000D01*
X86000Y97000D01*
X85000Y96000D01*
X84000D01*
X85000Y95000D01*
X84000Y94000D01*
X85000D01*
X86000Y93000D01*
X46000Y57000D02*
X47000Y58000D01*
X48000D01*
X47000Y59000D01*
X48000Y60000D01*
X47000D01*
X46000Y61000D01*
X45000Y60000D01*
X44000D01*
X45000Y59000D01*
X44000Y58000D01*
X45000D01*
X46000Y57000D01*
X97000Y72000D02*
X98000Y73000D01*
X99000D01*
X98000Y74000D01*
X99000Y75000D01*
X98000D01*
X97000Y76000D01*
X96000Y75000D01*
X95000D01*
X96000Y74000D01*
X95000Y73000D01*
X96000D01*
X97000Y72000D01*
X62500Y69000D02*
X63500Y70000D01*
X64500D01*
X63500Y71000D01*
X64500Y72000D01*
X63500D01*
X62500Y73000D01*
X61500Y72000D01*
X60500D01*
X61500Y71000D01*
X60500Y70000D01*
X61500D01*
X62500Y69000D01*
X17000Y66000D02*
X18000Y67000D01*
X19000D01*
X18000Y68000D01*
X19000Y69000D01*
X18000D01*
X17000Y70000D01*
X16000Y69000D01*
X15000D01*
X16000Y68000D01*
X15000Y67000D01*
X16000D01*
X17000Y66000D01*
X10000Y38000D02*
X11000Y39000D01*
X12000D01*
X11000Y40000D01*
X12000Y41000D01*
X11000D01*
X10000Y42000D01*
X9000Y41000D01*
X8000D01*
X9000Y40000D01*
X8000Y39000D01*
X9000D01*
X10000Y38000D01*
X103000Y27000D02*
X104000Y28000D01*
X105000D01*
X104000Y29000D01*
X105000Y30000D01*
X104000D01*
X103000Y31000D01*
X102000Y30000D01*
X101000D01*
X102000Y29000D01*
X101000Y28000D01*
X102000D01*
X103000Y27000D01*
X45500Y27500D02*
X46500Y28500D01*
X47500D01*
X46500Y29500D01*
X47500Y30500D01*
X46500D01*
X45500Y31500D01*
X44500Y30500D01*
X43500D01*
X44500Y29500D01*
X43500Y28500D01*
X44500D01*
X45500Y27500D01*
X77000Y67000D02*
X78000Y68000D01*
X79000D01*
X78000Y69000D01*
X79000Y70000D01*
X78000D01*
X77000Y71000D01*
X76000Y70000D01*
X75000D01*
X76000Y69000D01*
X75000Y68000D01*
X76000D01*
X77000Y67000D01*
X60000Y45500D02*
X61000Y46500D01*
X62000D01*
X61000Y47500D01*
X62000Y48500D01*
X61000D01*
X60000Y49500D01*
X59000Y48500D01*
X58000D01*
X59000Y47500D01*
X58000Y46500D01*
X59000D01*
X60000Y45500D01*
X68000Y45000D02*
X69000Y46000D01*
X70000D01*
X69000Y47000D01*
X70000Y48000D01*
X69000D01*
X68000Y49000D01*
X67000Y48000D01*
X66000D01*
X67000Y47000D01*
X66000Y46000D01*
X67000D01*
X68000Y45000D01*
X148500Y45500D02*
X149500Y46500D01*
X150500D01*
X149500Y47500D01*
X150500Y48500D01*
X149500D01*
X148500Y49500D01*
X147500Y48500D01*
X146500D01*
X147500Y47500D01*
X146500Y46500D01*
X147500D01*
X148500Y45500D01*
X143500Y51000D02*
X144500Y52000D01*
X145500D01*
X144500Y53000D01*
X145500Y54000D01*
X144500D01*
X143500Y55000D01*
X142500Y54000D01*
X141500D01*
X142500Y53000D01*
X141500Y52000D01*
X142500D01*
X143500Y51000D01*
X102000Y58000D02*
X103000Y59000D01*
X104000D01*
X103000Y60000D01*
X104000Y61000D01*
X103000D01*
X102000Y62000D01*
X101000Y61000D01*
X100000D01*
X101000Y60000D01*
X100000Y59000D01*
X101000D01*
X102000Y58000D01*
X139500Y57000D02*
X140500Y58000D01*
X141500D01*
X140500Y59000D01*
X141500Y60000D01*
X140500D01*
X139500Y61000D01*
X138500Y60000D01*
X137500D01*
X138500Y59000D01*
X137500Y58000D01*
X138500D01*
X139500Y57000D01*
X68500Y52000D02*
X69500Y53000D01*
X70500D01*
X69500Y54000D01*
X70500Y55000D01*
X69500D01*
X68500Y56000D01*
X67500Y55000D01*
X66500D01*
X67500Y54000D01*
X66500Y53000D01*
X67500D01*
X68500Y52000D01*
X47500Y70000D02*
X48500Y71000D01*
X49500D01*
X48500Y72000D01*
X49500Y73000D01*
X48500D01*
X47500Y74000D01*
X46500Y73000D01*
X45500D01*
X46500Y72000D01*
X45500Y71000D01*
X46500D01*
X47500Y70000D01*
X194000Y87500D02*
X195000Y88500D01*
X196000D01*
X195000Y89500D01*
X196000Y90500D01*
X195000D01*
X194000Y91500D01*
X193000Y90500D01*
X192000D01*
X193000Y89500D01*
X192000Y88500D01*
X193000D01*
X194000Y87500D01*
X182500Y103500D02*
X183500Y104500D01*
X184500D01*
X183500Y105500D01*
X184500Y106500D01*
X183500D01*
X182500Y107500D01*
X181500Y106500D01*
X180500D01*
X181500Y105500D01*
X180500Y104500D01*
X181500D01*
X182500Y103500D01*
X164500Y38500D02*
X165500Y39500D01*
X166500D01*
X165500Y40500D01*
X166500Y41500D01*
X165500D01*
X164500Y42500D01*
X163500Y41500D01*
X162500D01*
X163500Y40500D01*
X162500Y39500D01*
X163500D01*
X164500Y38500D01*
X188000Y68000D02*
X189000Y69000D01*
X190000D01*
X189000Y70000D01*
X190000Y71000D01*
X189000D01*
X188000Y72000D01*
X187000Y71000D01*
X186000D01*
X187000Y70000D01*
X186000Y69000D01*
X187000D01*
X188000Y68000D01*
X187000Y43500D02*
X188000Y44500D01*
X189000D01*
X188000Y45500D01*
X189000Y46500D01*
X188000D01*
X187000Y47500D01*
X186000Y46500D01*
X185000D01*
X186000Y45500D01*
X185000Y44500D01*
X186000D01*
X187000Y43500D01*
X178000Y98000D02*
X179000Y99000D01*
X180000D01*
X179000Y100000D01*
X180000Y101000D01*
X179000D01*
X178000Y102000D01*
X177000Y101000D01*
X176000D01*
X177000Y100000D01*
X176000Y99000D01*
X177000D01*
X178000Y98000D01*
X132000Y102000D02*
X133000Y103000D01*
X134000D01*
X133000Y104000D01*
X134000Y105000D01*
X133000D01*
X132000Y106000D01*
X131000Y105000D01*
X130000D01*
X131000Y104000D01*
X130000Y103000D01*
X131000D01*
X132000Y102000D01*
X122000Y60500D02*
X123000Y61500D01*
X124000D01*
X123000Y62500D01*
X124000Y63500D01*
X123000D01*
X122000Y64500D01*
X121000Y63500D01*
X120000D01*
X121000Y62500D01*
X120000Y61500D01*
X121000D01*
X122000Y60500D01*
X115000Y57000D02*
X116000Y58000D01*
X117000D01*
X116000Y59000D01*
X117000Y60000D01*
X116000D01*
X115000Y61000D01*
X114000Y60000D01*
X113000D01*
X114000Y59000D01*
X113000Y58000D01*
X114000D01*
X115000Y57000D01*
X129500Y64500D02*
X130500Y65500D01*
X131500D01*
X130500Y66500D01*
X131500Y67500D01*
X130500D01*
X129500Y68500D01*
X128500Y67500D01*
X127500D01*
X128500Y66500D01*
X127500Y65500D01*
X128500D01*
X129500Y64500D01*
X184500Y50000D02*
X185500Y51000D01*
X186500D01*
X185500Y52000D01*
X186500Y53000D01*
X185500D01*
X184500Y54000D01*
X183500Y53000D01*
X182500D01*
X183500Y52000D01*
X182500Y51000D01*
X183500D01*
X184500Y50000D01*
X173500Y44000D02*
X174500Y45000D01*
X175500D01*
X174500Y46000D01*
X175500Y47000D01*
X174500D01*
X173500Y48000D01*
X172500Y47000D01*
X171500D01*
X172500Y46000D01*
X171500Y45000D01*
X172500D01*
X173500Y44000D01*
X177500Y50000D02*
X178500Y51000D01*
X179500D01*
X178500Y52000D01*
X179500Y53000D01*
X178500D01*
X177500Y54000D01*
X176500Y53000D01*
X175500D01*
X176500Y52000D01*
X175500Y51000D01*
X176500D01*
X177500Y50000D01*
X123000Y73500D02*
X124000Y74500D01*
X125000D01*
X124000Y75500D01*
X125000Y76500D01*
X124000D01*
X123000Y77500D01*
X122000Y76500D01*
X121000D01*
X122000Y75500D01*
X121000Y74500D01*
X122000D01*
X123000Y73500D01*
X165000Y79500D02*
X166000Y80500D01*
X167000D01*
X166000Y81500D01*
X167000Y82500D01*
X166000D01*
X165000Y83500D01*
X164000Y82500D01*
X163000D01*
X164000Y81500D01*
X163000Y80500D01*
X164000D01*
X165000Y79500D01*
X137000Y89500D02*
X138000Y90500D01*
X139000D01*
X138000Y91500D01*
X139000Y92500D01*
X138000D01*
X137000Y93500D01*
X136000Y92500D01*
X135000D01*
X136000Y91500D01*
X135000Y90500D01*
X136000D01*
X137000Y89500D01*
X138500Y121000D02*
X139500Y122000D01*
X140500D01*
X139500Y123000D01*
X140500Y124000D01*
X139500D01*
X138500Y125000D01*
X137500Y124000D01*
X136500D01*
X137500Y123000D01*
X136500Y122000D01*
X137500D01*
X138500Y121000D01*
X122500Y124000D02*
X123500Y125000D01*
X124500D01*
X123500Y126000D01*
X124500Y127000D01*
X123500D01*
X122500Y128000D01*
X121500Y127000D01*
X120500D01*
X121500Y126000D01*
X120500Y125000D01*
X121500D01*
X122500Y124000D01*
X143500Y110500D02*
X144500Y111500D01*
X145500D01*
X144500Y112500D01*
X145500Y113500D01*
X144500D01*
X143500Y114500D01*
X142500Y113500D01*
X141500D01*
X142500Y112500D01*
X141500Y111500D01*
X142500D01*
X143500Y110500D01*
X149500Y106000D02*
X150500Y107000D01*
X151500D01*
X150500Y108000D01*
X151500Y109000D01*
X150500D01*
X149500Y110000D01*
X148500Y109000D01*
X147500D01*
X148500Y108000D01*
X147500Y107000D01*
X148500D01*
X149500Y106000D01*
X46500Y94000D02*
X47500Y95000D01*
X48500D01*
X47500Y96000D01*
X48500Y97000D01*
X47500D01*
X46500Y98000D01*
X45500Y97000D01*
X44500D01*
X45500Y96000D01*
X44500Y95000D01*
X45500D01*
X46500Y94000D01*
X141000Y100500D02*
X142000Y101500D01*
X143000D01*
X142000Y102500D01*
X143000Y103500D01*
X142000D01*
X141000Y104500D01*
X140000Y103500D01*
X139000D01*
X140000Y102500D01*
X139000Y101500D01*
X140000D01*
X141000Y100500D01*
X185000Y118500D02*
X186000Y119500D01*
X187000D01*
X186000Y120500D01*
X187000Y121500D01*
X186000D01*
X185000Y122500D01*
X184000Y121500D01*
X183000D01*
X184000Y120500D01*
X183000Y119500D01*
X184000D01*
X185000Y118500D01*
X156500Y130000D02*
X157500Y131000D01*
X158500D01*
X157500Y132000D01*
X158500Y133000D01*
X157500D01*
X156500Y134000D01*
X155500Y133000D01*
X154500D01*
X155500Y132000D01*
X154500Y131000D01*
X155500D01*
X156500Y130000D01*
X141000Y140500D02*
X142000Y141500D01*
X143000D01*
X142000Y142500D01*
X143000Y143500D01*
X142000D01*
X141000Y144500D01*
X140000Y143500D01*
X139000D01*
X140000Y142500D01*
X139000Y141500D01*
X140000D01*
X141000Y140500D01*
X148000D02*
X149000Y141500D01*
X150000D01*
X149000Y142500D01*
X150000Y143500D01*
X149000D01*
X148000Y144500D01*
X147000Y143500D01*
X146000D01*
X147000Y142500D01*
X146000Y141500D01*
X147000D01*
X148000Y140500D01*
X185500Y166000D02*
X186500Y167000D01*
X187500D01*
X186500Y168000D01*
X187500Y169000D01*
X186500D01*
X185500Y170000D01*
X184500Y169000D01*
X183500D01*
X184500Y168000D01*
X183500Y167000D01*
X184500D01*
X185500Y166000D01*
Y173500D02*
X186500Y174500D01*
X187500D01*
X186500Y175500D01*
X187500Y176500D01*
X186500D01*
X185500Y177500D01*
X184500Y176500D01*
X183500D01*
X184500Y175500D01*
X183500Y174500D01*
X184500D01*
X185500Y173500D01*
X125000Y158000D02*
X126000Y159000D01*
X127000D01*
X126000Y160000D01*
X127000Y161000D01*
X126000D01*
X125000Y162000D01*
X124000Y161000D01*
X123000D01*
X124000Y160000D01*
X123000Y159000D01*
X124000D01*
X125000Y158000D01*
X92000Y100500D02*
X93000Y101500D01*
X94000D01*
X93000Y102500D01*
X94000Y103500D01*
X93000D01*
X92000Y104500D01*
X91000Y103500D01*
X90000D01*
X91000Y102500D01*
X90000Y101500D01*
X91000D01*
X92000Y100500D01*
X100500Y112500D02*
X101500Y113500D01*
X102500D01*
X101500Y114500D01*
X102500Y115500D01*
X101500D01*
X100500Y116500D01*
X99500Y115500D01*
X98500D01*
X99500Y114500D01*
X98500Y113500D01*
X99500D01*
X100500Y112500D01*
D73*
X119843Y152000D02*
G03*
X119843Y152000I-2000J0D01*
G01*
X100157D02*
G03*
X100157Y152000I-2000J0D01*
G01*
X8157Y88000D02*
G03*
X8157Y88000I-2000J0D01*
G01*
X27843D02*
G03*
X27843Y88000I-2000J0D01*
G01*
M02*
