%FSLAX25Y25*%
%MOIN*%
G70*
G01*
G75*
%ADD10R,0.03937X0.04331*%
%ADD11R,0.15748X0.39370*%
%ADD12R,0.07087X0.06299*%
%ADD13O,0.02165X0.06496*%
%ADD14O,0.06496X0.02165*%
%ADD15R,0.08465X0.01575*%
%ADD16R,0.08465X0.01575*%
%ADD17R,0.04331X0.03937*%
%ADD18R,0.06496X0.01181*%
%ADD19R,0.05906X0.05118*%
%ADD20O,0.04921X0.01181*%
%ADD21O,0.09843X0.02756*%
%ADD22R,0.06299X0.02362*%
%ADD23O,0.07087X0.02362*%
%ADD24R,0.16535X0.16535*%
%ADD25R,0.05118X0.02362*%
%ADD26C,0.00787*%
%ADD27C,0.01181*%
%ADD28C,0.05906*%
%ADD29C,0.01969*%
%ADD30C,0.01378*%
%ADD31C,0.04724*%
%ADD32C,0.01000*%
%ADD33C,0.00000*%
%ADD34C,0.03150*%
%ADD35C,0.03937*%
%ADD36C,0.01575*%
%ADD37C,0.05906*%
%ADD38R,0.05906X0.05906*%
%ADD39C,0.05315*%
%ADD40R,0.05315X0.05315*%
%ADD41C,0.05906*%
%ADD42R,0.05906X0.05906*%
%ADD43C,0.15000*%
%ADD44C,0.05000*%
%ADD45C,0.02362*%
%ADD46C,0.00984*%
%ADD47C,0.00800*%
%ADD48R,0.04737X0.05131*%
%ADD49R,0.16548X0.40170*%
%ADD50R,0.07887X0.07099*%
%ADD51O,0.02965X0.07296*%
%ADD52O,0.07296X0.02965*%
%ADD53R,0.09265X0.02375*%
%ADD54R,0.09265X0.02375*%
%ADD55R,0.05131X0.04737*%
%ADD56R,0.07296X0.01981*%
%ADD57R,0.06706X0.05918*%
%ADD58O,0.05721X0.01981*%
%ADD59O,0.10642X0.03556*%
%ADD60R,0.07099X0.03162*%
%ADD61O,0.07887X0.03162*%
%ADD62R,0.17335X0.17335*%
%ADD63R,0.05918X0.03162*%
%ADD64C,0.06706*%
%ADD65R,0.06706X0.06706*%
%ADD66C,0.06115*%
%ADD67R,0.06115X0.06115*%
%ADD68C,0.06706*%
%ADD69R,0.06706X0.06706*%
%ADD70C,0.15800*%
%ADD71C,0.05800*%
%ADD72C,0.00394*%
%ADD73C,0.00667*%
D33*
X208228Y110000D02*
X211772D01*
X210000Y108228D02*
Y111772D01*
X198228Y110000D02*
X201772D01*
X200000Y108228D02*
Y111772D01*
X208228Y120000D02*
X211772D01*
X210000Y118228D02*
Y121772D01*
X198228Y120000D02*
X201772D01*
X200000Y118228D02*
Y121772D01*
X208228Y130000D02*
X211772D01*
X210000Y128228D02*
Y131772D01*
X198228Y130000D02*
X201772D01*
X200000Y128228D02*
Y131772D01*
X208228Y140000D02*
X211772D01*
X210000Y138228D02*
Y141772D01*
X198228Y140000D02*
X201772D01*
X200000Y138228D02*
Y141772D01*
X208228Y150000D02*
X211772D01*
X210000Y148228D02*
Y151772D01*
X198228Y150000D02*
X201772D01*
X200000Y148228D02*
Y151772D01*
X208228Y160000D02*
X211772D01*
X210000Y158228D02*
Y161772D01*
X198228Y160000D02*
X201772D01*
X200000Y158228D02*
Y161772D01*
X208228Y170000D02*
X211772D01*
X210000Y168228D02*
Y171772D01*
X198228Y170000D02*
X201772D01*
X200000Y168228D02*
Y171772D01*
X208228Y180000D02*
X211772D01*
X210000Y178228D02*
Y181772D01*
X198228Y180000D02*
X201772D01*
X200000Y178228D02*
Y181772D01*
X208228Y190000D02*
X211772D01*
X210000Y188228D02*
Y191772D01*
X198228Y190000D02*
X201772D01*
X200000Y188228D02*
Y191772D01*
X208228Y200000D02*
X211772D01*
X210000Y198228D02*
Y201772D01*
X198228Y200000D02*
X201772D01*
X200000Y198228D02*
Y201772D01*
X208228Y210000D02*
X211772D01*
X210000Y208228D02*
Y211772D01*
X198228Y210000D02*
X201772D01*
X200000Y208228D02*
Y211772D01*
X208228Y220000D02*
X211772D01*
X210000Y218228D02*
Y221772D01*
X198228Y220000D02*
X201772D01*
X200000Y218228D02*
Y221772D01*
X208228Y230000D02*
X211772D01*
X210000Y228228D02*
Y231772D01*
X198228Y230000D02*
X201772D01*
X200000Y228228D02*
Y231772D01*
X116268Y152000D02*
X119417D01*
X117843Y150425D02*
Y153575D01*
X96583Y152000D02*
X99732D01*
X98157Y150425D02*
Y153575D01*
X136228Y8000D02*
X139772D01*
X138000Y6228D02*
Y9772D01*
X136228Y18000D02*
X139772D01*
X138000Y16228D02*
Y19772D01*
X136228Y28000D02*
X139772D01*
X138000Y26228D02*
Y29772D01*
X172228Y8000D02*
X175772D01*
X174000Y6228D02*
Y9772D01*
X172228Y18000D02*
X175772D01*
X174000Y16228D02*
Y19772D01*
X172228Y28000D02*
X175772D01*
X174000Y26228D02*
Y29772D01*
X190228Y8000D02*
X193772D01*
X192000Y6228D02*
Y9772D01*
X190228Y18000D02*
X193772D01*
X192000Y16228D02*
Y19772D01*
X190228Y28000D02*
X193772D01*
X192000Y26228D02*
Y29772D01*
X154228Y8000D02*
X157772D01*
X156000Y6228D02*
Y9772D01*
X154228Y18000D02*
X157772D01*
X156000Y16228D02*
Y19772D01*
X154228Y28000D02*
X157772D01*
X156000Y26228D02*
Y29772D01*
X110228Y90000D02*
X113772D01*
X112000Y88228D02*
Y91772D01*
X110228Y109200D02*
X113772D01*
X112000Y107428D02*
Y110972D01*
X170228Y140000D02*
X173772D01*
X172000Y138228D02*
Y141772D01*
X160228Y140000D02*
X163772D01*
X162000Y138228D02*
Y141772D01*
X170228Y150000D02*
X173772D01*
X172000Y148228D02*
Y151772D01*
X160228Y150000D02*
X163772D01*
X162000Y148228D02*
Y151772D01*
X170228Y160000D02*
X173772D01*
X172000Y158228D02*
Y161772D01*
X160228Y160000D02*
X163772D01*
X162000Y158228D02*
Y161772D01*
X98228Y10000D02*
X101772D01*
X100000Y8228D02*
Y11772D01*
X108228Y10000D02*
X111772D01*
X110000Y8228D02*
Y11772D01*
X68228Y10000D02*
X71772D01*
X70000Y8228D02*
Y11772D01*
X78228Y10000D02*
X81772D01*
X80000Y8228D02*
Y11772D01*
X38228Y10000D02*
X41772D01*
X40000Y8228D02*
Y11772D01*
X48228Y10000D02*
X51772D01*
X50000Y8228D02*
Y11772D01*
X8228Y10000D02*
X11772D01*
X10000Y8228D02*
Y11772D01*
X18228Y10000D02*
X21772D01*
X20000Y8228D02*
Y11772D01*
X4583Y88000D02*
X7732D01*
X6157Y86425D02*
Y89575D01*
X24268Y88000D02*
X27417D01*
X25843Y86425D02*
Y89575D01*
X16100Y238000D02*
X23900D01*
X20000Y234100D02*
Y241900D01*
X16100Y214000D02*
X23900D01*
X20000Y210100D02*
Y217900D01*
X44100Y238000D02*
X51900D01*
X48000Y234100D02*
Y241900D01*
X44100Y214000D02*
X51900D01*
X48000Y210100D02*
Y217900D01*
X206228Y48000D02*
X209772D01*
X208000Y46228D02*
Y49772D01*
X206228Y38000D02*
X209772D01*
X208000Y36228D02*
Y39772D01*
X206228Y28000D02*
X209772D01*
X208000Y26228D02*
Y29772D01*
X206228Y18000D02*
X209772D01*
X208000Y16228D02*
Y19772D01*
X206228Y8000D02*
X209772D01*
X208000Y6228D02*
Y9772D01*
X182100Y239000D02*
X184900D01*
X183500Y237600D02*
Y240400D01*
X198600Y63500D02*
X201400D01*
X200000Y62100D02*
Y64900D01*
X183600Y160000D02*
X186400D01*
X185000Y158600D02*
Y161400D01*
X138600Y244500D02*
X141400D01*
X140000Y243100D02*
Y245900D01*
X159600Y173000D02*
X162400D01*
X161000Y171600D02*
Y174400D01*
X171100Y217500D02*
X173900D01*
X172500Y216100D02*
Y218900D01*
X155100Y206000D02*
X157900D01*
X156500Y204600D02*
Y207400D01*
X144600Y206000D02*
X147400D01*
X146000Y204600D02*
Y207400D01*
X119100Y196500D02*
X121900D01*
X120500Y195100D02*
Y197900D01*
X125100Y210000D02*
X127900D01*
X126500Y208600D02*
Y211400D01*
X168100Y198000D02*
X170900D01*
X169500Y196600D02*
Y199400D01*
X166600Y187500D02*
X169400D01*
X168000Y186100D02*
Y188900D01*
X187100Y251500D02*
X189900D01*
X188500Y250100D02*
Y252900D01*
X18600Y114500D02*
X21400D01*
X20000Y113100D02*
Y115900D01*
X75600Y145000D02*
X78400D01*
X77000Y143600D02*
Y146400D01*
X33600Y155500D02*
X36400D01*
X35000Y154100D02*
Y156900D01*
X33600Y139000D02*
X36400D01*
X35000Y137600D02*
Y140400D01*
X26600Y139000D02*
X29400D01*
X28000Y137600D02*
Y140400D01*
X26600Y151000D02*
X29400D01*
X28000Y149600D02*
Y152400D01*
X124600Y180000D02*
X127400D01*
X126000Y178600D02*
Y181400D01*
X63100Y37500D02*
X65900D01*
X64500Y36100D02*
Y38900D01*
X127100Y231500D02*
X129900D01*
X128500Y230100D02*
Y232900D01*
X136600Y71000D02*
X139400D01*
X138000Y69600D02*
Y72400D01*
X84600Y95000D02*
X87400D01*
X86000Y93600D02*
Y96400D01*
X44600Y59000D02*
X47400D01*
X46000Y57600D02*
Y60400D01*
X95600Y74000D02*
X98400D01*
X97000Y72600D02*
Y75400D01*
X61100Y71000D02*
X63900D01*
X62500Y69600D02*
Y72400D01*
X15600Y68000D02*
X18400D01*
X17000Y66600D02*
Y69400D01*
X8600Y40000D02*
X11400D01*
X10000Y38600D02*
Y41400D01*
X101600Y29000D02*
X104400D01*
X103000Y27600D02*
Y30400D01*
X44100Y29500D02*
X46900D01*
X45500Y28100D02*
Y30900D01*
X75600Y69000D02*
X78400D01*
X77000Y67600D02*
Y70400D01*
X58600Y47500D02*
X61400D01*
X60000Y46100D02*
Y48900D01*
X66600Y47000D02*
X69400D01*
X68000Y45600D02*
Y48400D01*
X147100Y47500D02*
X149900D01*
X148500Y46100D02*
Y48900D01*
X142100Y53000D02*
X144900D01*
X143500Y51600D02*
Y54400D01*
X100600Y60000D02*
X103400D01*
X102000Y58600D02*
Y61400D01*
X138100Y59000D02*
X140900D01*
X139500Y57600D02*
Y60400D01*
X67100Y54000D02*
X69900D01*
X68500Y52600D02*
Y55400D01*
X46100Y72000D02*
X48900D01*
X47500Y70600D02*
Y73400D01*
X192600Y89500D02*
X195400D01*
X194000Y88100D02*
Y90900D01*
X181100Y105500D02*
X183900D01*
X182500Y104100D02*
Y106900D01*
X163100Y40500D02*
X165900D01*
X164500Y39100D02*
Y41900D01*
X186600Y70000D02*
X189400D01*
X188000Y68600D02*
Y71400D01*
X185600Y45500D02*
X188400D01*
X187000Y44100D02*
Y46900D01*
X176600Y100000D02*
X179400D01*
X178000Y98600D02*
Y101400D01*
X130600Y104000D02*
X133400D01*
X132000Y102600D02*
Y105400D01*
X120600Y62500D02*
X123400D01*
X122000Y61100D02*
Y63900D01*
X113600Y59000D02*
X116400D01*
X115000Y57600D02*
Y60400D01*
X128100Y66500D02*
X130900D01*
X129500Y65100D02*
Y67900D01*
X183100Y52000D02*
X185900D01*
X184500Y50600D02*
Y53400D01*
X172100Y46000D02*
X174900D01*
X173500Y44600D02*
Y47400D01*
X176100Y52000D02*
X178900D01*
X177500Y50600D02*
Y53400D01*
X121600Y75500D02*
X124400D01*
X123000Y74100D02*
Y76900D01*
X163600Y81500D02*
X166400D01*
X165000Y80100D02*
Y82900D01*
X135600Y91500D02*
X138400D01*
X137000Y90100D02*
Y92900D01*
X137100Y123000D02*
X139900D01*
X138500Y121600D02*
Y124400D01*
X121100Y126000D02*
X123900D01*
X122500Y124600D02*
Y127400D01*
X142100Y112500D02*
X144900D01*
X143500Y111100D02*
Y113900D01*
X148100Y108000D02*
X150900D01*
X149500Y106600D02*
Y109400D01*
X45100Y96000D02*
X47900D01*
X46500Y94600D02*
Y97400D01*
X139600Y102500D02*
X142400D01*
X141000Y101100D02*
Y103900D01*
X183600Y120500D02*
X186400D01*
X185000Y119100D02*
Y121900D01*
X155100Y132000D02*
X157900D01*
X156500Y130600D02*
Y133400D01*
X139600Y142500D02*
X142400D01*
X141000Y141100D02*
Y143900D01*
X146600Y142500D02*
X149400D01*
X148000Y141100D02*
Y143900D01*
X184100Y168000D02*
X186900D01*
X185500Y166600D02*
Y169400D01*
X184100Y175500D02*
X186900D01*
X185500Y174100D02*
Y176900D01*
X123600Y160000D02*
X126400D01*
X125000Y158600D02*
Y161400D01*
X90600Y102500D02*
X93400D01*
X92000Y101100D02*
Y103900D01*
X99100Y114500D02*
X101900D01*
X100500Y113100D02*
Y115900D01*
M02*
