%FSLAX25Y25*%
%MOIN*%
G70*
G01*
G75*
G04 Layer_Physical_Order=1*
G04 Layer_Color=255*
%ADD10R,0.05118X0.02362*%
%ADD11R,0.03937X0.04331*%
%ADD12R,0.16535X0.16535*%
%ADD13O,0.07087X0.02362*%
%ADD14R,0.05906X0.05118*%
%ADD15R,0.06299X0.02362*%
%ADD16O,0.09843X0.02756*%
%ADD17O,0.04921X0.01181*%
%ADD18R,0.04331X0.03937*%
%ADD19R,0.08465X0.01575*%
%ADD20R,0.08465X0.01575*%
%ADD21R,0.06496X0.01181*%
%ADD22O,0.06496X0.02165*%
%ADD23O,0.02165X0.06496*%
%ADD24R,0.07087X0.06299*%
%ADD25R,0.15748X0.39370*%
%ADD26C,0.00787*%
%ADD27C,0.03150*%
%ADD28C,0.04724*%
%ADD29C,0.01181*%
%ADD30C,0.01969*%
%ADD31C,0.05906*%
%ADD32C,0.01378*%
%ADD33C,0.01575*%
%ADD34C,0.01000*%
%ADD35C,0.03937*%
%ADD36C,0.00000*%
%ADD37C,0.00394*%
%ADD38C,0.05906*%
%ADD39R,0.05906X0.05906*%
%ADD40C,0.15000*%
%ADD41C,0.05315*%
%ADD42R,0.05315X0.05315*%
%ADD43R,0.05906X0.05906*%
%ADD44C,0.05906*%
%ADD45C,0.05000*%
D10*
X38134Y120000D02*
D03*
X29866Y116260D02*
D03*
Y123740D02*
D03*
D11*
X108000Y126654D02*
D03*
Y133346D02*
D03*
X100000Y126654D02*
D03*
Y133346D02*
D03*
X126000Y95346D02*
D03*
Y88654D02*
D03*
X162000Y119346D02*
D03*
Y112654D02*
D03*
X12000Y165346D02*
D03*
Y158654D02*
D03*
Y143346D02*
D03*
Y136654D02*
D03*
Y121346D02*
D03*
Y114654D02*
D03*
X178000Y204654D02*
D03*
Y211346D02*
D03*
X160000Y197346D02*
D03*
Y190654D02*
D03*
X150000Y197346D02*
D03*
Y190654D02*
D03*
X28000Y158654D02*
D03*
Y165346D02*
D03*
X82000Y150654D02*
D03*
Y157346D02*
D03*
Y133346D02*
D03*
Y126654D02*
D03*
X138000Y190654D02*
D03*
Y197346D02*
D03*
X148000Y245346D02*
D03*
Y238654D02*
D03*
X130000Y245346D02*
D03*
Y238654D02*
D03*
X160000D02*
D03*
Y245346D02*
D03*
X176000D02*
D03*
Y238654D02*
D03*
X64000Y173346D02*
D03*
Y166654D02*
D03*
X126000Y115346D02*
D03*
Y108654D02*
D03*
X116000Y126654D02*
D03*
Y133346D02*
D03*
X206000Y72654D02*
D03*
Y79346D02*
D03*
X198000Y72654D02*
D03*
Y79346D02*
D03*
D12*
X150000Y220000D02*
D03*
D13*
X135827Y227500D02*
D03*
Y222500D02*
D03*
Y217500D02*
D03*
Y212500D02*
D03*
X164173Y227500D02*
D03*
Y222500D02*
D03*
Y217500D02*
D03*
Y212500D02*
D03*
D14*
X50000Y174260D02*
D03*
Y181740D02*
D03*
X114000Y179740D02*
D03*
Y172260D02*
D03*
D15*
X64331Y120000D02*
D03*
X55669Y116260D02*
D03*
Y123740D02*
D03*
D16*
X97646Y172500D02*
D03*
Y177500D02*
D03*
Y182500D02*
D03*
Y187500D02*
D03*
X78354Y172500D02*
D03*
Y177500D02*
D03*
Y182500D02*
D03*
Y187500D02*
D03*
X65646Y140500D02*
D03*
Y145500D02*
D03*
Y150500D02*
D03*
Y155500D02*
D03*
X46354Y140500D02*
D03*
Y145500D02*
D03*
Y150500D02*
D03*
Y155500D02*
D03*
D17*
X143217Y129047D02*
D03*
Y131016D02*
D03*
Y132984D02*
D03*
Y134953D02*
D03*
X132783Y129047D02*
D03*
Y131016D02*
D03*
Y132984D02*
D03*
Y134953D02*
D03*
D18*
X38654Y64000D02*
D03*
X45346D02*
D03*
X109346Y66000D02*
D03*
X102654D02*
D03*
D19*
X19106Y52957D02*
D03*
X77106D02*
D03*
D20*
X19106Y50398D02*
D03*
Y47839D02*
D03*
Y45280D02*
D03*
Y42721D02*
D03*
Y40161D02*
D03*
Y37602D02*
D03*
Y35043D02*
D03*
X44894Y52957D02*
D03*
Y50398D02*
D03*
Y47839D02*
D03*
Y45280D02*
D03*
Y42721D02*
D03*
Y40161D02*
D03*
Y37602D02*
D03*
Y35043D02*
D03*
X77106Y50398D02*
D03*
Y47839D02*
D03*
Y45280D02*
D03*
Y42721D02*
D03*
Y40161D02*
D03*
Y37602D02*
D03*
Y35043D02*
D03*
X102894Y52957D02*
D03*
Y50398D02*
D03*
Y47839D02*
D03*
Y45280D02*
D03*
Y42721D02*
D03*
Y40161D02*
D03*
Y37602D02*
D03*
Y35043D02*
D03*
D21*
X55075Y93677D02*
D03*
Y91118D02*
D03*
Y88559D02*
D03*
Y86000D02*
D03*
Y83441D02*
D03*
Y80882D02*
D03*
Y78323D02*
D03*
X76925Y93677D02*
D03*
Y91118D02*
D03*
Y88559D02*
D03*
Y86000D02*
D03*
Y83441D02*
D03*
Y80882D02*
D03*
Y78323D02*
D03*
D22*
X147465Y87024D02*
D03*
Y83874D02*
D03*
Y80724D02*
D03*
Y77575D02*
D03*
Y74425D02*
D03*
Y71276D02*
D03*
Y68126D02*
D03*
Y64976D02*
D03*
X180535D02*
D03*
Y68126D02*
D03*
Y71276D02*
D03*
Y74425D02*
D03*
Y77575D02*
D03*
Y80724D02*
D03*
Y83874D02*
D03*
Y87024D02*
D03*
D23*
X152976Y59465D02*
D03*
X156126D02*
D03*
X159276D02*
D03*
X162425D02*
D03*
X165575D02*
D03*
X168724D02*
D03*
X171874D02*
D03*
X175024D02*
D03*
Y92535D02*
D03*
X171874D02*
D03*
X168724D02*
D03*
X165575D02*
D03*
X162425D02*
D03*
X159276D02*
D03*
X156126D02*
D03*
X152976D02*
D03*
D24*
X36000Y182488D02*
D03*
Y193512D02*
D03*
X20000D02*
D03*
Y182488D02*
D03*
D25*
X71500Y229500D02*
D03*
X112500Y230000D02*
D03*
D26*
X108000Y133346D02*
X109307D01*
X116000Y126654D01*
X136500Y90500D02*
Y117500D01*
X165000Y81000D02*
X180260D01*
X108000Y126654D02*
X115654Y119000D01*
X135000D01*
X101307Y133346D02*
X108000Y126654D01*
X121654Y91000D02*
X126000Y95346D01*
X113500Y91000D02*
X121654D01*
X112500Y110000D02*
X120654D01*
X126000Y115346D01*
X92000Y102500D02*
X96000D01*
X125000Y137500D02*
Y160000D01*
Y137500D02*
X129500Y133000D01*
X132768D01*
X132783Y132984D01*
X185500Y168000D02*
X191000Y173500D01*
Y182500D01*
X193000Y188568D02*
Y191000D01*
X185500Y181068D02*
X193000Y188568D01*
X185500Y175500D02*
Y181068D01*
X156500Y132000D02*
Y163000D01*
X167500Y154500D02*
X172000Y150000D01*
X167500Y154500D02*
Y163500D01*
X166000Y165000D02*
X167500Y163500D01*
X158500Y165000D02*
X166000D01*
X156500Y163000D02*
X158500Y165000D01*
X143217Y137717D02*
X148000Y142500D01*
X186500Y110500D02*
X214500Y82500D01*
X178500Y110500D02*
X186500D01*
X214500Y36500D02*
Y82500D01*
X192500Y101573D02*
Y102500D01*
X150965Y92535D02*
X152976D01*
X141000Y102500D02*
X150965Y92535D01*
X159276D02*
Y104724D01*
X143500Y112500D02*
X151500D01*
X159276Y104724D01*
X149500Y108000D02*
X156126Y101374D01*
Y92535D02*
Y101374D01*
X143217Y134953D02*
Y137717D01*
X133453Y134953D02*
X141000Y142500D01*
X132783Y134953D02*
X133453D01*
X122500Y126000D02*
X125547Y129047D01*
X132783D01*
X138500Y123000D02*
X143217Y127717D01*
Y129047D01*
X135000Y119000D02*
X136500Y117500D01*
X180260Y81000D02*
X180535Y80724D01*
X123000Y75500D02*
X141500D01*
X147465Y80724D02*
X152276D01*
X155425Y77575D01*
X180535D01*
Y55965D02*
X184500Y52000D01*
X180535Y55965D02*
Y64976D01*
X175024Y54476D02*
X177500Y52000D01*
X175024Y54476D02*
Y59465D01*
X140500Y66500D02*
X142126Y68126D01*
X147465D01*
X129500Y66500D02*
X140500D01*
X134976Y64976D02*
X147465D01*
X132500Y62500D02*
X134976Y64976D01*
X122000Y62500D02*
X132500D01*
X110000Y64000D02*
X115000Y59000D01*
X109346Y64000D02*
X110000D01*
X126000Y108654D02*
X130500Y104154D01*
X127154Y88654D02*
X130500Y92000D01*
X126000Y88654D02*
X127154D01*
X165575Y92535D02*
Y97575D01*
X178500Y110500D01*
X168724Y92535D02*
Y98724D01*
X178984Y108984D01*
X186016D01*
X177500Y105500D02*
X182500D01*
X172000Y100000D02*
X177500Y105500D01*
X172000Y92661D02*
Y100000D01*
X186016Y108984D02*
X192500Y102500D01*
Y101573D02*
X213000Y81073D01*
Y45126D02*
Y81073D01*
X208000Y40126D02*
X213000Y45126D01*
X208000Y30000D02*
X214500Y36500D01*
X208000Y38000D02*
Y40126D01*
Y28000D02*
Y30000D01*
X175024Y97024D02*
X178000Y100000D01*
X175024Y92535D02*
Y97024D01*
X171874Y92535D02*
X172000Y92661D01*
X187000Y41126D02*
Y45500D01*
Y41126D02*
X208000Y20126D01*
Y18000D02*
Y20126D01*
X180535Y71276D02*
X186724D01*
X142000Y37500D02*
X160000D01*
X136779Y42721D02*
X142000Y37500D01*
X137500Y45500D02*
X143000Y40000D01*
X103114Y45500D02*
X137500D01*
X102894Y42721D02*
X136779D01*
X180535Y87024D02*
X183012Y89500D01*
X194000D01*
X43323Y78323D02*
X51823D01*
X55075D01*
X34000Y69000D02*
X43323Y78323D01*
X34000Y68654D02*
Y69000D01*
Y68654D02*
X38654Y64000D01*
X102894Y30106D02*
X103000Y30000D01*
X102894Y30106D02*
Y35043D01*
X45500Y30000D02*
Y34437D01*
X44894Y35043D02*
X45500Y34437D01*
X144000Y81000D02*
X147189D01*
X141500Y78500D02*
X144000Y81000D01*
X141500Y75500D02*
Y78500D01*
Y75500D02*
X142516Y74484D01*
X147406D01*
X147189Y81000D02*
X147465Y80724D01*
X198000Y79346D02*
X206000D01*
X147406Y74484D02*
X147465Y74425D01*
X180535Y77575D02*
X196998Y77500D01*
X155000Y240850D02*
X159497Y245346D01*
X155000Y227618D02*
Y240850D01*
X96000Y102500D02*
Y110000D01*
X100500Y114500D01*
X19106Y52957D02*
Y68000D01*
X46500Y73000D02*
X51823Y78323D01*
X130500Y92000D02*
Y104000D01*
Y104154D01*
X113250Y91250D02*
X113500Y91000D01*
X112500Y92000D02*
X113250Y91250D01*
X102894Y50398D02*
X136102D01*
X144453Y42047D01*
X160000Y37500D02*
X163750Y41250D01*
X164000Y41500D01*
X160000Y37500D02*
X164000Y41500D01*
X112500Y92000D02*
X113500Y91000D01*
X130500Y92000D02*
Y104154D01*
X46500Y73000D02*
X51823Y78323D01*
X19106Y52957D02*
Y68000D01*
X193000Y191000D02*
X197000Y195000D01*
X205000D01*
X210000Y200000D01*
X191000Y182500D02*
X193500Y185000D01*
X205000D01*
X210000Y190000D01*
X116000Y133346D02*
X117500Y134846D01*
Y151657D02*
X117843Y152000D01*
D27*
X97600Y172500D02*
Y177500D01*
X129900Y223600D02*
X131000Y222500D01*
X135827D01*
X101200Y189654D02*
X102200Y190654D01*
X97646Y187500D02*
X101200D01*
X97600D02*
X97646D01*
X97600Y177500D02*
X97646D01*
X97600Y182500D02*
X97646D01*
X97600Y172500D02*
X97646D01*
X102200Y190654D02*
X129900D01*
X142246Y245346D02*
X148000D01*
X141400Y244500D02*
X142246Y245346D01*
X140000Y244500D02*
X141400D01*
X112500Y228000D02*
X123000Y217500D01*
X135827D01*
X126500Y210000D02*
X129900Y206600D01*
Y190654D02*
Y206600D01*
X159497Y245346D02*
X160000D01*
X150000Y222618D02*
X155000Y227618D01*
X138000Y197346D02*
Y205500D01*
X147882Y206000D02*
X156500D01*
X135827Y212500D02*
X138000Y210327D01*
Y205500D02*
Y210327D01*
X129900Y190654D02*
X138000D01*
X147382Y199964D02*
Y205500D01*
Y199964D02*
X150000Y197346D01*
X135827Y212500D02*
X139882D01*
X147382Y220000D01*
X114000Y157843D02*
X117500Y154343D01*
X114000Y157843D02*
Y172260D01*
X138000Y205500D02*
X146000D01*
X147382D01*
Y206000D01*
Y220000D01*
X157307Y204654D02*
X178000D01*
X97600Y182500D02*
Y187500D01*
Y177500D02*
Y182500D01*
X101200Y187500D02*
Y189654D01*
X129900Y223600D02*
Y231500D01*
Y223600D02*
Y231500D01*
X101200Y187500D02*
Y189654D01*
X97600Y177500D02*
Y182500D01*
Y187500D01*
X129900Y223600D02*
Y231500D01*
Y223600D02*
Y231500D01*
Y223600D02*
Y231500D01*
Y223600D02*
Y231500D01*
Y223600D02*
Y231500D01*
Y223600D02*
Y231500D01*
Y223600D02*
Y231500D01*
X101200Y187500D02*
Y189654D01*
Y187500D02*
Y189654D01*
Y187500D02*
Y189654D01*
Y187500D02*
Y189654D01*
Y187500D02*
Y189654D01*
Y187500D02*
Y189654D01*
Y187500D02*
Y189654D01*
X97600Y177500D02*
Y182500D01*
Y177500D02*
Y182500D01*
Y187500D01*
Y182500D02*
Y187500D01*
Y182500D02*
Y187500D01*
Y182500D02*
Y187500D01*
Y177500D02*
Y182500D01*
Y177500D02*
Y182500D01*
Y177500D02*
Y182500D01*
Y187500D01*
Y182500D02*
Y187500D01*
Y182500D02*
Y187500D01*
Y177500D02*
Y182500D01*
Y177500D02*
Y182500D01*
X147382Y206000D02*
Y220000D01*
X146000Y205500D02*
X147382D01*
Y206000D01*
Y205500D02*
Y220000D01*
X138000Y205500D02*
X146000D01*
X138000D02*
X147382D01*
Y206000D02*
Y220000D01*
Y206000D02*
Y220000D01*
Y206000D02*
Y220000D01*
Y206000D02*
Y220000D01*
Y206000D02*
Y220000D01*
X146000Y205500D02*
X147382D01*
Y206000D02*
Y220000D01*
X146000Y205500D02*
X147382D01*
X146000D02*
X147382D01*
X146000D02*
X147382D01*
Y206000D01*
Y205500D02*
Y206000D01*
Y205500D02*
Y206000D01*
Y205500D02*
Y206000D01*
Y205500D02*
Y206000D01*
Y205500D02*
Y206000D01*
X146000Y205500D02*
X147382D01*
X146000D02*
X147382D01*
X138000D02*
X146000D01*
X138000D02*
X146000D01*
X138000D02*
X146000D01*
X138000D02*
X146000D01*
X138000D02*
X146000D01*
X138000D02*
X146000D01*
D28*
X92154Y147020D02*
X97646Y152512D01*
X6500Y88000D02*
Y98500D01*
Y40000D02*
Y88000D01*
X92154Y120654D02*
Y147020D01*
X97646Y152512D02*
Y172500D01*
X185000Y120500D02*
Y160000D01*
X13843Y105843D02*
X77343D01*
X172000Y169500D02*
Y177500D01*
Y160000D02*
Y169500D01*
X18488Y193512D02*
X20000D01*
X172000Y160000D02*
X185000D01*
X138000Y17500D02*
X156000D01*
X174000D01*
X192000D01*
X6500Y98500D02*
X13843Y105843D01*
X77343D02*
X92154Y120654D01*
X174000Y17500D02*
X192000D01*
X156000D02*
X174000D01*
X138000D02*
X156000D01*
X174000D02*
X192000D01*
X156000D02*
X174000D01*
X138000D02*
X156000D01*
X210000Y229500D02*
Y230000D01*
D29*
X92500Y126500D02*
X99846D01*
X102118Y84500D02*
X129000D01*
X106500Y82500D02*
X130500D01*
X129000Y84500D02*
X131524Y87024D01*
X130500Y82500D02*
X131874Y83874D01*
X159475Y169319D02*
X171819D01*
X46500Y96000D02*
X52752D01*
X55075Y93677D01*
X162425Y92535D02*
Y112228D01*
X162000Y112654D02*
X162425Y112228D01*
X93000Y50500D02*
Y87000D01*
X76925Y86000D02*
X90500D01*
Y48000D02*
Y86000D01*
X77248Y78000D02*
X82500D01*
X83899Y76601D01*
Y50500D02*
Y76601D01*
X76925Y78323D02*
X77248Y78000D01*
X81399Y48000D02*
X83899Y50500D01*
X91441Y88559D02*
X93000Y87000D01*
X76925Y88559D02*
X91441D01*
X93000Y50500D02*
X102791D01*
X131524Y87024D02*
X147465D01*
X131874Y83874D02*
X147465D01*
X152425Y77575D02*
X153000Y77000D01*
X101500Y59500D02*
X102000Y59000D01*
X210000Y49000D02*
Y81500D01*
X207626Y83874D02*
X210000Y81500D01*
X180535Y74425D02*
X194228D01*
X196000Y72654D01*
X200000Y65500D02*
Y67000D01*
Y63500D02*
Y65500D01*
X183374Y68126D02*
X186000Y65500D01*
X180535Y68126D02*
X183374D01*
X143000Y40000D02*
X155000D01*
X144453Y42047D02*
X153547D01*
X143500Y46000D02*
Y53000D01*
Y46000D02*
X145681Y43819D01*
X151319D01*
X159276Y51776D01*
Y59465D01*
X102894Y45280D02*
X103114Y45500D01*
X165575Y59465D02*
X165780Y59260D01*
Y45280D02*
Y59260D01*
X160280Y45280D02*
X165780D01*
X155000Y40000D02*
X160280Y45280D01*
X76534Y83441D02*
X76925D01*
X70000Y53373D02*
X72385Y50988D01*
X76516D01*
X77106Y50398D01*
X159075Y47575D02*
X162425D01*
X156000Y55000D02*
Y59339D01*
X148500Y47500D02*
X156000Y55000D01*
X155874Y68126D02*
X180535D01*
X153000Y71000D02*
X155874Y68126D01*
X139965Y59465D02*
X152976D01*
X156000Y59339D02*
X156126Y59465D01*
X55000Y71000D02*
X62500D01*
X51398Y50398D02*
X55000Y54000D01*
X44894Y50398D02*
X51398D01*
X69000Y45500D02*
X76886D01*
X77106Y45280D01*
X77268Y48000D02*
X81399D01*
X77106Y47839D02*
X77268Y48000D01*
X57500Y47500D02*
X60000D01*
X55280Y45280D02*
X57500Y47500D01*
X44894Y45280D02*
X55280D01*
X44894Y52957D02*
X46000Y54063D01*
Y59000D01*
X87000Y100000D02*
X101943Y85057D01*
X21000Y100000D02*
X87000D01*
X10500Y89500D02*
X21000Y100000D01*
X10500Y47500D02*
Y89500D01*
Y47500D02*
X12720Y45280D01*
X19106D01*
X146988Y87500D02*
X147465Y87024D01*
X28500Y67000D02*
X42382Y80882D01*
X28500Y49500D02*
Y67000D01*
X42382Y80882D02*
X55075D01*
X12500Y88995D02*
X21734Y98228D01*
X12500Y50500D02*
Y88995D01*
Y50500D02*
X19004D01*
X15000Y77500D02*
X25500Y67000D01*
X15000Y77500D02*
Y88989D01*
X25500Y50101D02*
Y67000D01*
X15000Y88989D02*
X22468Y96457D01*
X27543D01*
X35441Y88559D01*
X29272Y98228D02*
X36382Y91118D01*
X21734Y98228D02*
X29272D01*
X36382Y91118D02*
X55075D01*
X35441Y88559D02*
X55075D01*
X28500Y49500D02*
X30000Y48000D01*
X44732D01*
X19106Y42721D02*
X44894D01*
X60500Y86000D02*
X62500Y84000D01*
X55075Y86000D02*
X60500D01*
X76925Y93677D02*
X85823D01*
X90500Y48000D02*
X102732D01*
X76925Y80882D02*
Y83441D01*
X162425Y47575D02*
Y59465D01*
Y47575D02*
X162500Y47500D01*
X102894Y50398D02*
X107102D01*
X102000Y53851D02*
X102894Y52957D01*
X102000Y53851D02*
Y57500D01*
X76925Y88559D02*
Y91118D01*
X77106Y42721D02*
X102894D01*
X44894D02*
X77106D01*
X44732Y48000D02*
X44894Y47839D01*
X55075Y91118D02*
Y93677D01*
X47006Y50500D02*
X48094D01*
X46000Y59000D02*
Y63346D01*
X55075Y83441D02*
Y86000D01*
X200000Y67000D02*
X204000Y71000D01*
X171874Y48126D02*
Y59465D01*
X168724Y41276D02*
Y59465D01*
Y41276D02*
X174000Y36000D01*
Y28000D02*
Y36000D01*
X20000Y48000D02*
X24000D01*
X143217Y131016D02*
X150484D01*
X162000Y140000D02*
X167500Y134500D01*
Y118154D02*
Y134500D01*
X162000Y112654D02*
X167500Y118154D01*
X171819Y169319D02*
X172000Y169500D01*
X150484Y131016D02*
Y132984D01*
X143217D02*
X150484D01*
X180535Y83874D02*
X207500Y84000D01*
X208000Y48000D02*
X209000Y49000D01*
X147740Y71000D02*
X153000D01*
X101500Y64000D02*
Y71000D01*
Y59500D02*
Y64000D01*
Y71000D02*
X138000D01*
X137000Y71276D02*
X138000D01*
X147465D01*
Y77575D02*
X152425D01*
X150484Y130862D02*
X162000Y119346D01*
X153000Y71000D02*
Y77000D01*
X150484Y132984D02*
X152500Y135000D01*
Y169500D01*
X159294D01*
X159475Y169319D01*
X171874Y48126D02*
X173750Y46250D01*
X192000Y28000D01*
X55000Y54000D02*
Y71000D01*
X62500D02*
Y84000D01*
X96626Y72626D02*
X97500Y73500D01*
X106500Y82500D01*
X67750Y46750D02*
X69000Y45500D01*
X67000Y47500D02*
X67750Y46750D01*
X70000Y54000D02*
Y76907D01*
Y53373D02*
Y54000D01*
Y77000D02*
X75403Y82403D01*
X153547Y42047D02*
X159075Y47575D01*
X24000Y48000D02*
X25500Y49500D01*
X70000Y77000D02*
X76534Y83534D01*
X70000Y53373D02*
Y76907D01*
X67000Y47500D02*
X69000Y45500D01*
X96626Y72626D02*
X106500Y82500D01*
X171874Y48126D02*
X192000Y28000D01*
X137000Y71276D02*
X147465D01*
X101500Y59500D02*
Y71000D01*
X186000Y65500D02*
X200000D01*
X117500Y134846D02*
Y151657D01*
D30*
X7000Y40000D02*
X10000D01*
X60000Y7500D02*
Y35500D01*
X55339Y40161D02*
X60000Y35500D01*
X54700Y14700D02*
Y33600D01*
X50698Y37602D02*
X54700Y33600D01*
X110839Y40161D02*
X116000Y35000D01*
X102894Y40161D02*
X110839D01*
X20000Y10000D02*
Y35043D01*
X10000Y10000D02*
Y33600D01*
X44894Y40161D02*
X55339D01*
X114000Y179740D02*
X125740D01*
X19106Y35043D02*
X20000Y35043D01*
X50000Y10000D02*
X54700Y14700D01*
X77200Y12800D02*
X80000Y10000D01*
X77200Y12800D02*
Y35043D01*
X77106Y35043D02*
X77200Y35043D01*
X110000Y10000D02*
Y35200D01*
X12000Y165346D02*
X28000D01*
X36000Y173346D01*
Y182488D01*
X178000Y245346D02*
X187154D01*
X56000Y3500D02*
X60000Y7500D01*
X42000Y3500D02*
X56000D01*
X40000Y5500D02*
X42000Y3500D01*
X40000Y5500D02*
Y10000D01*
X100000D02*
X107500Y2500D01*
X112500D01*
X116000Y6000D01*
Y35000D01*
X187154Y245346D02*
X190000Y242500D01*
X10000Y40161D02*
X19106D01*
X70000Y9500D02*
Y37000D01*
X10000Y40161D02*
X19106D01*
X190000Y233000D02*
Y242500D01*
Y225500D02*
Y233000D01*
X205000Y215000D02*
X210000Y220000D01*
X190000Y225500D02*
X190500Y225000D01*
X205000D01*
X210000Y230000D01*
X190000Y215000D02*
X205000D01*
D31*
X174500Y180000D02*
X190000Y195500D01*
X126000Y180000D02*
X174500D01*
X36000Y193512D02*
Y201000D01*
X20000Y238000D02*
X34000Y224000D01*
Y203000D02*
X36000Y201000D01*
X34000Y203000D02*
Y224000D01*
X20000Y193512D02*
X36000D01*
X71500Y217500D02*
X91500Y197500D01*
X120000D01*
X190000Y215000D02*
Y225500D01*
Y195500D02*
Y215000D01*
D32*
X175500Y187500D02*
X183500Y195500D01*
X168000Y187500D02*
X175500D01*
X123984Y131016D02*
X132783D01*
X120000Y170000D02*
X125000Y175000D01*
X120000Y157500D02*
Y170000D01*
Y157500D02*
X122500Y155000D01*
Y132500D02*
X123984Y131016D01*
X122500Y132500D02*
Y155000D01*
X125000Y175000D02*
X158500D01*
X160500Y173000D01*
X183500Y195500D02*
Y239000D01*
X189000Y252000D02*
X193000Y248000D01*
X200000Y241000D01*
Y230000D02*
Y241000D01*
D33*
X107598Y37602D02*
X110000Y35200D01*
X102894Y37602D02*
X107598D01*
X65646Y155500D02*
X70000Y159854D01*
X65646Y155500D02*
X74500D01*
X68000Y173000D02*
X70000Y171000D01*
X64346Y173000D02*
X68000D01*
X70000Y159854D02*
Y171000D01*
X77106Y52957D02*
Y68894D01*
X64661Y40161D02*
X77106D01*
X14002Y37602D02*
X19106D01*
X10000Y33600D02*
X14002Y37602D01*
X44894D02*
X50698D01*
X70102D02*
X77106D01*
X79346Y150654D02*
X82000D01*
X74500Y155500D02*
X79346Y150654D01*
X64000Y173346D02*
X64346Y173000D01*
D34*
X52000Y150500D02*
X62000Y140500D01*
X65646D01*
X54354Y132500D02*
X67500D01*
X46354Y140500D02*
X54354Y132500D01*
X67500D02*
X74500Y139500D01*
X64331Y120000D02*
X75346D01*
X32500Y111000D02*
X45000D01*
X29866Y113634D02*
X32500Y111000D01*
X29866Y113634D02*
Y116260D01*
X45000Y111000D02*
X50260Y116260D01*
X55669D01*
X161000Y173000D02*
X162500D01*
X160500D02*
X161000D01*
X12000Y143346D02*
Y158654D01*
Y121500D02*
Y136654D01*
Y143346D02*
X25846D01*
X28000Y145500D01*
X46354D01*
X28000Y150500D02*
Y151000D01*
Y158654D01*
Y125606D02*
Y139000D01*
Y125606D02*
X29866Y123740D01*
X75346Y120000D02*
X82000Y126654D01*
Y157346D02*
Y159500D01*
X78354Y163146D02*
X82000Y159500D01*
X78354Y163146D02*
Y172500D01*
X46354Y150500D02*
X52000D01*
X46354Y155500D02*
X57508Y166654D01*
X64000D01*
X46909Y132500D02*
X55669Y123740D01*
X37500Y132500D02*
X46909D01*
X35000Y135000D02*
X37500Y132500D01*
X35000Y135000D02*
Y139000D01*
Y155500D02*
X46354D01*
X65646Y145500D02*
X74500D01*
X82000Y133346D02*
X87500Y138846D01*
Y156000D01*
X86154Y157346D02*
X87500Y156000D01*
X82000Y157346D02*
X86154D01*
X28260Y114654D02*
X29866Y116260D01*
X148000Y238654D02*
Y239023D01*
X155000Y246023D01*
Y248000D02*
X157500Y250500D01*
X169000D01*
X170000Y249500D01*
Y225000D02*
Y249500D01*
X167500Y222500D02*
X170000Y225000D01*
X164173Y222500D02*
X167500D01*
X160000Y238654D02*
X164173Y234480D01*
Y227500D02*
Y234480D01*
X155000Y246023D02*
Y248000D01*
X150000Y190654D02*
X159500D01*
X160000D01*
X159346Y190500D02*
X159500Y190654D01*
X176000Y238654D02*
X178000Y236654D01*
Y212000D02*
Y236654D01*
X164173Y217500D02*
X172500D01*
X173500D01*
X160154Y197500D02*
X168000D01*
X160000Y197346D02*
X160154Y197500D01*
X123154Y238654D02*
X130000D01*
X164173Y212500D02*
X164673Y212000D01*
X177346D02*
X178000Y211346D01*
X164673Y212000D02*
X177346D01*
X130000Y245346D02*
X135827Y239520D01*
Y227500D02*
Y239520D01*
X50000Y181740D02*
Y212000D01*
X71500Y227500D02*
X76000D01*
X20000Y114654D02*
X28260D01*
X12000D02*
X20000D01*
X74500Y139500D02*
Y145000D01*
Y145500D01*
X112500Y228000D02*
X113500Y229000D01*
X123154Y238654D01*
X168000Y197500D02*
X169000Y198500D01*
X169500Y199000D01*
X28000Y150500D02*
X46354D01*
X28000D02*
X46354D01*
X28000D02*
X46354D01*
X28000D02*
X46354D01*
X28000D02*
X46354D01*
X28000D02*
X46354D01*
X28000D02*
X46354D01*
X28000D02*
X46354D01*
X28000D02*
X46354D01*
X169000Y198500D02*
X169500Y199000D01*
X168000Y197500D02*
X169000Y198500D01*
X168000Y197500D02*
X169500Y199000D01*
X169000Y198500D02*
X169500Y199000D01*
X169000Y198500D02*
X169500Y199000D01*
X169000Y198500D02*
X169500Y199000D01*
X169000Y198500D02*
X169500Y199000D01*
X169000Y198500D02*
X169500Y199000D01*
X169000Y198500D02*
X169500Y199000D01*
X168000Y197500D02*
X169000Y198500D01*
X168000Y197500D02*
X169000Y198500D01*
X168000Y197500D02*
X169000Y198500D01*
X168000Y197500D02*
X169000Y198500D01*
X168000Y197500D02*
X169000Y198500D01*
X168000Y197500D02*
X169000Y198500D01*
X112500Y228000D02*
X123154Y238654D01*
X112500Y228000D02*
X123154Y238654D01*
X112500Y228000D02*
X123154Y238654D01*
X112500Y228000D02*
X123154Y238654D01*
X112500Y228000D02*
X123154Y238654D01*
X112500Y228000D02*
X123154Y238654D01*
X112500Y228000D02*
X123154Y238654D01*
X112500Y228000D02*
X123154Y238654D01*
X74500Y145000D02*
Y145500D01*
Y139500D02*
Y145500D01*
Y139500D02*
Y145000D01*
X12000Y114654D02*
X20000D01*
X28260D01*
X12000D02*
X28260D01*
X74500Y145000D02*
Y145500D01*
Y145000D02*
Y145500D01*
Y145000D02*
Y145500D01*
Y145000D02*
Y145500D01*
Y145000D02*
Y145500D01*
Y145000D02*
Y145500D01*
Y139500D02*
Y145000D01*
Y139500D02*
Y145000D01*
Y139500D02*
Y145000D01*
Y139500D02*
Y145000D01*
Y139500D02*
Y145000D01*
Y139500D02*
Y145000D01*
X20000Y114654D02*
X28260D01*
X20000D02*
X28260D01*
X20000D02*
X28260D01*
X20000D02*
X28260D01*
X20000D02*
X28260D01*
X20000D02*
X28260D01*
X12000D02*
X20000D01*
X12000D02*
X20000D01*
X12000D02*
X20000D01*
X12000D02*
X20000D01*
X12000D02*
X20000D01*
X12000D02*
X20000D01*
X71500Y227500D02*
X76000D01*
X71500D02*
X76000D01*
X71500D02*
X76000D01*
X71500D02*
X76000D01*
X71500D02*
X76000D01*
X71500D02*
X76000D01*
X71500D02*
X76000D01*
X71500D02*
X76000D01*
X0Y0D02*
Y255500D01*
X216000D01*
Y0D02*
Y255500D01*
X0Y0D02*
X216000D01*
D35*
X18988Y183500D02*
X20000Y182488D01*
X71327Y182500D02*
X73354D01*
X36512Y182488D02*
X44500Y174500D01*
X36000Y182488D02*
X36512D01*
X48252Y174500D02*
X50000Y174260D01*
X44500Y174500D02*
X48252D01*
X12000Y250000D02*
X36000D01*
X6500Y244500D02*
X12000Y250000D01*
X36000D02*
X48000Y238000D01*
X6500Y188000D02*
Y244500D01*
Y188000D02*
X12012Y182488D01*
X20000D01*
X71500Y227500D02*
Y229500D01*
Y217500D02*
Y227500D01*
X63087Y174260D02*
X71327Y182500D01*
X50000Y174260D02*
X63087D01*
X73354Y182500D02*
X75854Y185000D01*
X73354Y182500D02*
X75854Y180000D01*
X78354Y177500D01*
X75854Y185000D02*
X78354Y187500D01*
X75854Y185000D02*
X78354Y187500D01*
X73354Y182500D02*
X75854Y185000D01*
X73354Y182500D02*
X75854Y180000D01*
X78354Y177500D01*
X63087Y174260D02*
X71327Y182500D01*
X75854Y185000D02*
X78354Y187500D01*
X75854Y185000D02*
X78354Y187500D01*
X75854Y185000D02*
X78354Y187500D01*
X75854Y185000D02*
X78354Y187500D01*
X75854Y185000D02*
X78354Y187500D01*
X75854Y185000D02*
X78354Y187500D01*
X75854Y185000D02*
X78354Y187500D01*
X73354Y182500D02*
X75854Y185000D01*
X73354Y182500D02*
X75854Y185000D01*
X73354Y182500D02*
X75854Y185000D01*
X73354Y182500D02*
X75854Y180000D01*
X73354Y182500D02*
X75854Y185000D01*
X73354Y182500D02*
X75854Y185000D01*
Y180000D02*
X78354Y177500D01*
X75854Y180000D02*
X78354Y177500D01*
X75854Y180000D02*
X78354Y177500D01*
X75854Y180000D02*
X78354Y177500D01*
X75854Y180000D02*
X78354Y177500D01*
X73354Y182500D02*
X75854Y180000D01*
X73354Y182500D02*
X75854Y180000D01*
X73354Y182500D02*
X75854Y180000D01*
X73354Y182500D02*
X75854Y180000D01*
X78354Y177500D01*
X75854Y180000D02*
X78354Y177500D01*
X75854Y180000D02*
X78354Y177500D01*
X73354Y182500D02*
X75854Y180000D01*
X73354Y182500D02*
X75854Y180000D01*
X73354Y182500D02*
X75854Y180000D01*
X73354Y182500D02*
X75854Y185000D01*
X73354Y182500D02*
X75854Y185000D01*
X63087Y174260D02*
X71327Y182500D01*
X63087Y174260D02*
X71327Y182500D01*
X63087Y174260D02*
X71327Y182500D01*
X63087Y174260D02*
X71327Y182500D01*
X63087Y174260D02*
X71327Y182500D01*
X63087Y174260D02*
X71327Y182500D01*
X63087Y174260D02*
X71327Y182500D01*
D36*
X117500Y149500D02*
Y150000D01*
D37*
X147205Y225453D02*
G03*
X147205Y225453I-1969J0D01*
G01*
X85638Y186299D02*
G03*
X85638Y186299I-1969J0D01*
G01*
X53638Y154299D02*
G03*
X53638Y154299I-1969J0D01*
G01*
X138984Y132394D02*
G03*
X138984Y132394I-1969J0D01*
G01*
X155732Y86236D02*
G03*
X155732Y86236I-1969J0D01*
G01*
X31244Y114094D02*
X36756D01*
X31244Y125906D02*
X36756D01*
Y114094D02*
Y125906D01*
X31244Y114094D02*
Y125906D01*
X141693Y211004D02*
Y228996D01*
X158307Y211004D02*
Y228996D01*
X141693D02*
X158307D01*
X141693Y211004D02*
X158307D01*
X57244Y114094D02*
X62756D01*
X57244Y125906D02*
X62756D01*
Y114094D02*
Y125906D01*
X57244Y114094D02*
Y125906D01*
X80126Y170157D02*
X95874D01*
X80126Y189843D02*
X95874D01*
Y170157D02*
Y189843D01*
X80126Y170157D02*
Y189843D01*
X48126Y138157D02*
X63874D01*
X48126Y157843D02*
X63874D01*
Y138157D02*
Y157843D01*
X48126Y138157D02*
Y157843D01*
X133276Y127866D02*
X142724D01*
X133276Y136134D02*
X142724D01*
Y127866D02*
Y136134D01*
X133276Y127866D02*
Y136134D01*
X150220Y62220D02*
Y89780D01*
X177780Y62220D02*
Y89780D01*
X150220D02*
X177780D01*
X150220Y62220D02*
X177780D01*
D38*
X208000Y8000D02*
D03*
Y18000D02*
D03*
Y28000D02*
D03*
Y38000D02*
D03*
X20000Y10000D02*
D03*
X50000D02*
D03*
X80000D02*
D03*
X110000D02*
D03*
X172000Y160000D02*
D03*
X162000Y150000D02*
D03*
X172000D02*
D03*
X162000Y140000D02*
D03*
X172000D02*
D03*
X156000Y18000D02*
D03*
Y8000D02*
D03*
X192000Y18000D02*
D03*
Y8000D02*
D03*
X174000Y18000D02*
D03*
Y8000D02*
D03*
X138000Y18000D02*
D03*
Y8000D02*
D03*
X210000Y230000D02*
D03*
X200000Y220000D02*
D03*
X210000D02*
D03*
X200000Y210000D02*
D03*
X210000D02*
D03*
X200000Y200000D02*
D03*
X210000D02*
D03*
X200000Y190000D02*
D03*
X210000D02*
D03*
X200000Y180000D02*
D03*
X210000D02*
D03*
X200000Y170000D02*
D03*
X210000D02*
D03*
X200000Y160000D02*
D03*
X210000D02*
D03*
X200000Y150000D02*
D03*
X210000D02*
D03*
X200000Y140000D02*
D03*
X210000D02*
D03*
X200000Y130000D02*
D03*
X210000D02*
D03*
X200000Y120000D02*
D03*
X210000D02*
D03*
X200000Y110000D02*
D03*
X210000D02*
D03*
D39*
X208000Y48000D02*
D03*
X162000Y160000D02*
D03*
X156000Y28000D02*
D03*
X192000D02*
D03*
X174000D02*
D03*
X138000D02*
D03*
X200000Y230000D02*
D03*
D40*
X48000Y214000D02*
D03*
Y238000D02*
D03*
X20000Y214000D02*
D03*
Y238000D02*
D03*
D41*
X25843Y88000D02*
D03*
X117843Y152000D02*
D03*
D42*
X6157Y88000D02*
D03*
X98157Y152000D02*
D03*
D43*
X10000Y10000D02*
D03*
X40000D02*
D03*
X70000D02*
D03*
X100000D02*
D03*
D44*
X112000Y109200D02*
D03*
Y90000D02*
D03*
D45*
X100500Y114500D02*
D03*
X92000Y102500D02*
D03*
X125000Y160000D02*
D03*
X185500Y175500D02*
D03*
Y168000D02*
D03*
X148000Y142500D02*
D03*
X141000D02*
D03*
X156500Y132000D02*
D03*
X185000Y120500D02*
D03*
X141000Y102500D02*
D03*
X46500Y96000D02*
D03*
X149500Y108000D02*
D03*
X143500Y112500D02*
D03*
X122500Y126000D02*
D03*
X138500Y123000D02*
D03*
X137000Y91500D02*
D03*
X165000Y81500D02*
D03*
X123000Y75500D02*
D03*
X177500Y52000D02*
D03*
X173500Y46000D02*
D03*
X184500Y52000D02*
D03*
X129500Y66500D02*
D03*
X115000Y59000D02*
D03*
X122000Y62500D02*
D03*
X132000Y104000D02*
D03*
X178000Y100000D02*
D03*
X187000Y45500D02*
D03*
X188000Y70000D02*
D03*
X164500Y40500D02*
D03*
X182500Y105500D02*
D03*
X194000Y89500D02*
D03*
X47500Y72000D02*
D03*
X68500Y54000D02*
D03*
X139500Y59000D02*
D03*
X102000Y60000D02*
D03*
X143500Y53000D02*
D03*
X148500Y47500D02*
D03*
X68000Y47000D02*
D03*
X60000Y47500D02*
D03*
X77000Y69000D02*
D03*
X45500Y29500D02*
D03*
X103000Y29000D02*
D03*
X10000Y40000D02*
D03*
X17000Y68000D02*
D03*
X62500Y71000D02*
D03*
X97000Y74000D02*
D03*
X46000Y59000D02*
D03*
X86000Y95000D02*
D03*
X138000Y71000D02*
D03*
X128500Y231500D02*
D03*
X64500Y37500D02*
D03*
X126000Y180000D02*
D03*
X28000Y151000D02*
D03*
Y139000D02*
D03*
X35000D02*
D03*
Y155500D02*
D03*
X77000Y145000D02*
D03*
X20000Y114500D02*
D03*
X188500Y251500D02*
D03*
X168000Y187500D02*
D03*
X169500Y198000D02*
D03*
X126500Y210000D02*
D03*
X120500Y196500D02*
D03*
X146000Y206000D02*
D03*
X156500D02*
D03*
X172500Y217500D02*
D03*
X161000Y173000D02*
D03*
X140000Y244500D02*
D03*
X185000Y160000D02*
D03*
X200000Y63500D02*
D03*
X183500Y239000D02*
D03*
M02*
