%FSLAX25Y25*%
%MOIN*%
G70*
G01*
G75*
G04 Layer_Color=8388736*
%ADD10R,0.05118X0.02362*%
%ADD11R,0.03937X0.04331*%
%ADD12R,0.16535X0.16535*%
%ADD13O,0.07087X0.02362*%
%ADD14R,0.05906X0.05118*%
%ADD15R,0.06299X0.02362*%
%ADD16O,0.09843X0.02756*%
%ADD17O,0.04921X0.01181*%
%ADD18R,0.04331X0.03937*%
%ADD19R,0.08465X0.01575*%
%ADD20R,0.08465X0.01575*%
%ADD21R,0.06496X0.01181*%
%ADD22O,0.06496X0.02165*%
%ADD23O,0.02165X0.06496*%
%ADD24R,0.07087X0.06299*%
%ADD25R,0.15748X0.39370*%
%ADD26C,0.00787*%
%ADD27C,0.03150*%
%ADD28C,0.04724*%
%ADD29C,0.01181*%
%ADD30C,0.01969*%
%ADD31C,0.05906*%
%ADD32C,0.01378*%
%ADD33C,0.01575*%
%ADD34C,0.01000*%
%ADD35C,0.03937*%
%ADD36C,0.00000*%
%ADD37C,0.00394*%
%ADD38C,0.05906*%
%ADD39R,0.05906X0.05906*%
%ADD40C,0.15000*%
%ADD41C,0.05315*%
%ADD42R,0.05315X0.05315*%
%ADD43R,0.05906X0.05906*%
%ADD44C,0.05906*%
%ADD45C,0.05000*%
%ADD46C,0.00984*%
%ADD47C,0.02362*%
%ADD48C,0.00800*%
%ADD49R,0.05918X0.03162*%
%ADD50R,0.04737X0.05131*%
%ADD51R,0.17335X0.17335*%
%ADD52O,0.07887X0.03162*%
%ADD53R,0.06706X0.05918*%
%ADD54R,0.07099X0.03162*%
%ADD55O,0.10642X0.03556*%
%ADD56O,0.05721X0.01981*%
%ADD57R,0.05131X0.04737*%
%ADD58R,0.09265X0.02375*%
%ADD59R,0.09265X0.02375*%
%ADD60R,0.07296X0.01981*%
%ADD61O,0.07296X0.02965*%
%ADD62O,0.02965X0.07296*%
%ADD63R,0.07887X0.07099*%
%ADD64R,0.16548X0.40170*%
%ADD65C,0.06706*%
%ADD66R,0.06706X0.06706*%
%ADD67C,0.15800*%
%ADD68C,0.06115*%
%ADD69R,0.06115X0.06115*%
%ADD70R,0.06706X0.06706*%
%ADD71C,0.06706*%
%ADD72C,0.05800*%
D34*
X0Y0D02*
Y255500D01*
X216000D01*
Y0D02*
Y255500D01*
X0Y0D02*
X216000D01*
D37*
X147205Y225453D02*
G03*
X147205Y225453I-1969J0D01*
G01*
X85638Y186299D02*
G03*
X85638Y186299I-1969J0D01*
G01*
X53638Y154299D02*
G03*
X53638Y154299I-1969J0D01*
G01*
X138984Y132394D02*
G03*
X138984Y132394I-1969J0D01*
G01*
X155732Y86236D02*
G03*
X155732Y86236I-1969J0D01*
G01*
X31244Y114094D02*
X36756D01*
X31244Y125906D02*
X36756D01*
Y114094D02*
Y125906D01*
X31244Y114094D02*
Y125906D01*
X141693Y211004D02*
Y228996D01*
X158307Y211004D02*
Y228996D01*
X141693D02*
X158307D01*
X141693Y211004D02*
X158307D01*
X57244Y114094D02*
X62756D01*
X57244Y125906D02*
X62756D01*
Y114094D02*
Y125906D01*
X57244Y114094D02*
Y125906D01*
X80126Y170157D02*
X95874D01*
X80126Y189843D02*
X95874D01*
Y170157D02*
Y189843D01*
X80126Y170157D02*
Y189843D01*
X48126Y138157D02*
X63874D01*
X48126Y157843D02*
X63874D01*
Y138157D02*
Y157843D01*
X48126Y138157D02*
Y157843D01*
X133276Y127866D02*
X142724D01*
X133276Y136134D02*
X142724D01*
Y127866D02*
Y136134D01*
X133276Y127866D02*
Y136134D01*
X150220Y62220D02*
Y89780D01*
X177780Y62220D02*
Y89780D01*
X150220D02*
X177780D01*
X150220Y62220D02*
X177780D01*
D49*
X38134Y120000D02*
D03*
X29866Y116260D02*
D03*
Y123740D02*
D03*
D50*
X108000Y126654D02*
D03*
Y133346D02*
D03*
X100000Y126654D02*
D03*
Y133346D02*
D03*
X126000Y95346D02*
D03*
Y88654D02*
D03*
X162000Y119346D02*
D03*
Y112654D02*
D03*
X12000Y165346D02*
D03*
Y158654D02*
D03*
Y143346D02*
D03*
Y136654D02*
D03*
Y121346D02*
D03*
Y114654D02*
D03*
X178000Y204654D02*
D03*
Y211346D02*
D03*
X160000Y197346D02*
D03*
Y190654D02*
D03*
X150000Y197346D02*
D03*
Y190654D02*
D03*
X28000Y158654D02*
D03*
Y165346D02*
D03*
X82000Y150654D02*
D03*
Y157346D02*
D03*
Y133346D02*
D03*
Y126654D02*
D03*
X138000Y190654D02*
D03*
Y197346D02*
D03*
X148000Y245346D02*
D03*
Y238654D02*
D03*
X130000Y245346D02*
D03*
Y238654D02*
D03*
X160000D02*
D03*
Y245346D02*
D03*
X176000D02*
D03*
Y238654D02*
D03*
X64000Y173346D02*
D03*
Y166654D02*
D03*
X126000Y115346D02*
D03*
Y108654D02*
D03*
X116000Y126654D02*
D03*
Y133346D02*
D03*
X206000Y72654D02*
D03*
Y79346D02*
D03*
X198000Y72654D02*
D03*
Y79346D02*
D03*
D51*
X150000Y220000D02*
D03*
D52*
X135827Y227500D02*
D03*
Y222500D02*
D03*
Y217500D02*
D03*
Y212500D02*
D03*
X164173Y227500D02*
D03*
Y222500D02*
D03*
Y217500D02*
D03*
Y212500D02*
D03*
D53*
X50000Y174260D02*
D03*
Y181740D02*
D03*
X114000Y179740D02*
D03*
Y172260D02*
D03*
D54*
X64331Y120000D02*
D03*
X55669Y116260D02*
D03*
Y123740D02*
D03*
D55*
X97646Y172500D02*
D03*
Y177500D02*
D03*
Y182500D02*
D03*
Y187500D02*
D03*
X78354Y172500D02*
D03*
Y177500D02*
D03*
Y182500D02*
D03*
Y187500D02*
D03*
X65646Y140500D02*
D03*
Y145500D02*
D03*
Y150500D02*
D03*
Y155500D02*
D03*
X46354Y140500D02*
D03*
Y145500D02*
D03*
Y150500D02*
D03*
Y155500D02*
D03*
D56*
X143217Y129047D02*
D03*
Y131016D02*
D03*
Y132984D02*
D03*
Y134953D02*
D03*
X132783Y129047D02*
D03*
Y131016D02*
D03*
Y132984D02*
D03*
Y134953D02*
D03*
D57*
X38654Y64000D02*
D03*
X45346D02*
D03*
X109346Y66000D02*
D03*
X102654D02*
D03*
D58*
X19106Y52957D02*
D03*
X77106D02*
D03*
D59*
X19106Y50398D02*
D03*
Y47839D02*
D03*
Y45280D02*
D03*
Y42721D02*
D03*
Y40161D02*
D03*
Y37602D02*
D03*
Y35043D02*
D03*
X44894Y52957D02*
D03*
Y50398D02*
D03*
Y47839D02*
D03*
Y45280D02*
D03*
Y42721D02*
D03*
Y40161D02*
D03*
Y37602D02*
D03*
Y35043D02*
D03*
X77106Y50398D02*
D03*
Y47839D02*
D03*
Y45280D02*
D03*
Y42721D02*
D03*
Y40161D02*
D03*
Y37602D02*
D03*
Y35043D02*
D03*
X102894Y52957D02*
D03*
Y50398D02*
D03*
Y47839D02*
D03*
Y45280D02*
D03*
Y42721D02*
D03*
Y40161D02*
D03*
Y37602D02*
D03*
Y35043D02*
D03*
D60*
X55075Y93677D02*
D03*
Y91118D02*
D03*
Y88559D02*
D03*
Y86000D02*
D03*
Y83441D02*
D03*
Y80882D02*
D03*
Y78323D02*
D03*
X76925Y93677D02*
D03*
Y91118D02*
D03*
Y88559D02*
D03*
Y86000D02*
D03*
Y83441D02*
D03*
Y80882D02*
D03*
Y78323D02*
D03*
D61*
X147465Y87024D02*
D03*
Y83874D02*
D03*
Y80724D02*
D03*
Y77575D02*
D03*
Y74425D02*
D03*
Y71276D02*
D03*
Y68126D02*
D03*
Y64976D02*
D03*
X180535D02*
D03*
Y68126D02*
D03*
Y71276D02*
D03*
Y74425D02*
D03*
Y77575D02*
D03*
Y80724D02*
D03*
Y83874D02*
D03*
Y87024D02*
D03*
D62*
X152976Y59465D02*
D03*
X156126D02*
D03*
X159276D02*
D03*
X162425D02*
D03*
X165575D02*
D03*
X168724D02*
D03*
X171874D02*
D03*
X175024D02*
D03*
Y92535D02*
D03*
X171874D02*
D03*
X168724D02*
D03*
X165575D02*
D03*
X162425D02*
D03*
X159276D02*
D03*
X156126D02*
D03*
X152976D02*
D03*
D63*
X36000Y182488D02*
D03*
Y193512D02*
D03*
X20000D02*
D03*
Y182488D02*
D03*
D64*
X71500Y229500D02*
D03*
X112500Y230000D02*
D03*
D65*
X208000Y8000D02*
D03*
Y18000D02*
D03*
Y28000D02*
D03*
Y38000D02*
D03*
X20000Y10000D02*
D03*
X50000D02*
D03*
X80000D02*
D03*
X110000D02*
D03*
X172000Y160000D02*
D03*
X162000Y150000D02*
D03*
X172000D02*
D03*
X162000Y140000D02*
D03*
X172000D02*
D03*
X156000Y18000D02*
D03*
Y8000D02*
D03*
X192000Y18000D02*
D03*
Y8000D02*
D03*
X174000Y18000D02*
D03*
Y8000D02*
D03*
X138000Y18000D02*
D03*
Y8000D02*
D03*
X210000Y230000D02*
D03*
X200000Y220000D02*
D03*
X210000D02*
D03*
X200000Y210000D02*
D03*
X210000D02*
D03*
X200000Y200000D02*
D03*
X210000D02*
D03*
X200000Y190000D02*
D03*
X210000D02*
D03*
X200000Y180000D02*
D03*
X210000D02*
D03*
X200000Y170000D02*
D03*
X210000D02*
D03*
X200000Y160000D02*
D03*
X210000D02*
D03*
X200000Y150000D02*
D03*
X210000D02*
D03*
X200000Y140000D02*
D03*
X210000D02*
D03*
X200000Y130000D02*
D03*
X210000D02*
D03*
X200000Y120000D02*
D03*
X210000D02*
D03*
X200000Y110000D02*
D03*
X210000D02*
D03*
D66*
X208000Y48000D02*
D03*
X162000Y160000D02*
D03*
X156000Y28000D02*
D03*
X192000D02*
D03*
X174000D02*
D03*
X138000D02*
D03*
X200000Y230000D02*
D03*
D67*
X48000Y214000D02*
D03*
Y238000D02*
D03*
X20000Y214000D02*
D03*
Y238000D02*
D03*
D68*
X25843Y88000D02*
D03*
X117843Y152000D02*
D03*
D69*
X6157Y88000D02*
D03*
X98157Y152000D02*
D03*
D70*
X10000Y10000D02*
D03*
X40000D02*
D03*
X70000D02*
D03*
X100000D02*
D03*
D71*
X112000Y109200D02*
D03*
Y90000D02*
D03*
D72*
X100500Y114500D02*
D03*
X92000Y102500D02*
D03*
X125000Y160000D02*
D03*
X185500Y175500D02*
D03*
Y168000D02*
D03*
X148000Y142500D02*
D03*
X141000D02*
D03*
X156500Y132000D02*
D03*
X185000Y120500D02*
D03*
X141000Y102500D02*
D03*
X46500Y96000D02*
D03*
X149500Y108000D02*
D03*
X143500Y112500D02*
D03*
X122500Y126000D02*
D03*
X138500Y123000D02*
D03*
X137000Y91500D02*
D03*
X165000Y81500D02*
D03*
X123000Y75500D02*
D03*
X177500Y52000D02*
D03*
X173500Y46000D02*
D03*
X184500Y52000D02*
D03*
X129500Y66500D02*
D03*
X115000Y59000D02*
D03*
X122000Y62500D02*
D03*
X132000Y104000D02*
D03*
X178000Y100000D02*
D03*
X187000Y45500D02*
D03*
X188000Y70000D02*
D03*
X164500Y40500D02*
D03*
X182500Y105500D02*
D03*
X194000Y89500D02*
D03*
X47500Y72000D02*
D03*
X68500Y54000D02*
D03*
X139500Y59000D02*
D03*
X102000Y60000D02*
D03*
X143500Y53000D02*
D03*
X148500Y47500D02*
D03*
X68000Y47000D02*
D03*
X60000Y47500D02*
D03*
X77000Y69000D02*
D03*
X45500Y29500D02*
D03*
X103000Y29000D02*
D03*
X10000Y40000D02*
D03*
X17000Y68000D02*
D03*
X62500Y71000D02*
D03*
X97000Y74000D02*
D03*
X46000Y59000D02*
D03*
X86000Y95000D02*
D03*
X138000Y71000D02*
D03*
X128500Y231500D02*
D03*
X64500Y37500D02*
D03*
X126000Y180000D02*
D03*
X28000Y151000D02*
D03*
Y139000D02*
D03*
X35000D02*
D03*
Y155500D02*
D03*
X77000Y145000D02*
D03*
X20000Y114500D02*
D03*
X188500Y251500D02*
D03*
X168000Y187500D02*
D03*
X169500Y198000D02*
D03*
X126500Y210000D02*
D03*
X120500Y196500D02*
D03*
X146000Y206000D02*
D03*
X156500D02*
D03*
X172500Y217500D02*
D03*
X161000Y173000D02*
D03*
X140000Y244500D02*
D03*
X185000Y160000D02*
D03*
X200000Y63500D02*
D03*
X183500Y239000D02*
D03*
M02*
