M48
;Layer_Color=9474304
;FILE_FORMAT=2:5
INCH,LZ
;TYPE=PLATED
T1F00S00C0.02800
T2F00S00C0.03150
T3F00S00C0.03543
T4F00S00C0.07800
%
T01
X0068Y0047
X00685Y0054
X0077Y0069
X0097Y0074
X0102Y006
X0115Y0059
X0122Y00625
X01295Y00665
X0138Y0071
X01395Y0059
X01435Y0053
X01485Y00475
X01645Y00405
X01735Y0046
X01775Y0052
X01845
X0187Y00455
X0188Y007
X02Y00635
X0194Y00895
X0178Y01
X01825Y01055
X01495Y0108
X0141Y01025
X0132Y0104
X0137Y00915
X0123Y00755
X0165Y00815
X0086Y0095
X0092Y01025
X0103Y0029
X00645Y00375
X006Y00475
X0046Y0059
X00475Y0072
X00625Y0071
X00465Y0096
X0017Y0068
X001Y004
X00455Y00295
X002Y01145
X0028Y0139
X0035
Y01555
X0028Y0151
X0077Y0145
X01005Y01145
X01225Y0126
X01385Y0123
X01435Y01125
X01565Y0132
X0148Y01425
X0141
X0125Y016
X0126Y018
X01205Y01965
X01265Y021
X0146Y0206
X01565
X01695Y0198
X0168Y01875
X0161Y0173
X01855Y01755
Y0168
X0185Y016
Y01205
X01725Y02175
X01835Y0239
X01885Y02515
X014Y02445
X01285Y02315
T02
X0006157Y0088
X0025843
X0098157Y0152
X0117843
T03
X007Y001
X008
X01
X011
X0138Y0008
Y0018
Y0028
X0156
Y0018
Y0008
X0174
Y0018
Y0028
X0192
Y0018
Y0008
X0208
Y0018
Y0028
Y0038
Y0048
X021Y011
X02
X0112Y01092
Y009
X005Y001
X004
X002
X001
X0162Y014
X0172
Y015
X0162
Y016
X0172
X02
Y015
Y014
Y013
Y012
X021
Y013
Y014
Y015
Y016
Y017
X02
Y018
X021
Y019
X02
Y02
X021
Y021
X02
Y022
X021
Y023
X02
T04
X002Y0214
Y0238
X0048
Y0214
M30
