%FSLAX25Y25*%
%MOIN*%
G70*
G01*
G75*
G04 Layer_Color=32768*
%ADD10R,0.03937X0.04331*%
%ADD11R,0.15748X0.39370*%
%ADD12R,0.07087X0.06299*%
%ADD13O,0.02165X0.06496*%
%ADD14O,0.06496X0.02165*%
%ADD15R,0.08465X0.01575*%
%ADD16R,0.08465X0.01575*%
%ADD17R,0.04331X0.03937*%
%ADD18R,0.06496X0.01181*%
%ADD19R,0.05906X0.05118*%
%ADD20O,0.04921X0.01181*%
%ADD21O,0.09843X0.02756*%
%ADD22R,0.06299X0.02362*%
%ADD23O,0.07087X0.02362*%
%ADD24R,0.16535X0.16535*%
%ADD25R,0.05118X0.02362*%
%ADD26C,0.00787*%
%ADD27C,0.01181*%
%ADD28C,0.05906*%
%ADD29C,0.01969*%
%ADD30C,0.01378*%
%ADD31C,0.04724*%
%ADD32C,0.01000*%
%ADD33C,0.00000*%
%ADD34C,0.03150*%
%ADD35C,0.03937*%
%ADD36C,0.01575*%
%ADD37C,0.05906*%
%ADD38R,0.05906X0.05906*%
%ADD39C,0.05315*%
%ADD40R,0.05315X0.05315*%
%ADD41C,0.05906*%
%ADD42R,0.05906X0.05906*%
%ADD43C,0.15000*%
%ADD44C,0.05000*%
%ADD45C,0.02362*%
%ADD46C,0.00984*%
%ADD47C,0.00800*%
%ADD48R,0.04737X0.05131*%
%ADD49R,0.16548X0.40170*%
%ADD50R,0.07887X0.07099*%
%ADD51O,0.02965X0.07296*%
%ADD52O,0.07296X0.02965*%
%ADD53R,0.09265X0.02375*%
%ADD54R,0.09265X0.02375*%
%ADD55R,0.05131X0.04737*%
%ADD56R,0.07296X0.01981*%
%ADD57R,0.06706X0.05918*%
%ADD58O,0.05721X0.01981*%
%ADD59O,0.10642X0.03556*%
%ADD60R,0.07099X0.03162*%
%ADD61O,0.07887X0.03162*%
%ADD62R,0.17335X0.17335*%
%ADD63R,0.05918X0.03162*%
%ADD64C,0.06706*%
%ADD65R,0.06706X0.06706*%
%ADD66C,0.06115*%
%ADD67R,0.06115X0.06115*%
%ADD68C,0.06706*%
%ADD69R,0.06706X0.06706*%
%ADD70C,0.15800*%
%ADD71C,0.05800*%
%ADD72C,0.00394*%
D72*
X164000Y74032D02*
Y77969D01*
X162032Y76000D02*
X165969D01*
X143331Y55331D02*
X184669D01*
X143331Y96669D02*
X184669D01*
Y55331D02*
Y96669D01*
X143331Y55331D02*
Y96669D01*
X129339Y126882D02*
Y137118D01*
X146661Y126882D02*
Y137118D01*
X129339D02*
X146661D01*
X129339Y126882D02*
X146661D01*
X136031Y132000D02*
X139969D01*
X138000Y130032D02*
Y133969D01*
X39465Y136189D02*
Y159811D01*
X72535Y136189D02*
Y159811D01*
X39465D02*
X72535D01*
X39465Y136189D02*
X72535D01*
X54032Y148000D02*
X57969D01*
X56000Y146032D02*
Y149969D01*
X71465Y168189D02*
Y191811D01*
X104535Y168189D02*
Y191811D01*
X71465D02*
X104535D01*
X71465Y168189D02*
X104535D01*
X86032Y180000D02*
X89969D01*
X88000Y178032D02*
Y181969D01*
X50551Y112126D02*
Y127874D01*
X69449Y112126D02*
Y127874D01*
X50551D02*
X69449D01*
X50551Y112126D02*
X69449D01*
X58031Y120000D02*
X61969D01*
X60000Y118032D02*
Y121969D01*
X150000Y218032D02*
Y221969D01*
X148031Y220000D02*
X151969D01*
X131299Y209961D02*
X168701D01*
X131299Y230039D02*
X168701D01*
Y209961D02*
Y230039D01*
X131299Y209961D02*
Y230039D01*
X26323Y113110D02*
Y126890D01*
X41677Y113110D02*
Y126890D01*
X26323D02*
X41677D01*
X26323Y113110D02*
X41677D01*
X32031Y120000D02*
X35969D01*
X34000Y118032D02*
Y121969D01*
M02*
