%FSLAX25Y25*%
%MOIN*%
G70*
G01*
G75*
%ADD10R,0.05118X0.02362*%
%ADD11R,0.03937X0.04331*%
%ADD12R,0.16535X0.16535*%
%ADD13O,0.07087X0.02362*%
%ADD14R,0.05906X0.05118*%
%ADD15R,0.06299X0.02362*%
%ADD16O,0.09843X0.02756*%
%ADD17O,0.04921X0.01181*%
%ADD18R,0.04331X0.03937*%
%ADD19R,0.08465X0.01575*%
%ADD20R,0.08465X0.01575*%
%ADD21R,0.06496X0.01181*%
%ADD22O,0.06496X0.02165*%
%ADD23O,0.02165X0.06496*%
%ADD24R,0.07087X0.06299*%
%ADD25R,0.15748X0.39370*%
%ADD26C,0.00787*%
%ADD27C,0.03150*%
%ADD28C,0.04724*%
%ADD29C,0.01181*%
%ADD30C,0.01969*%
%ADD31C,0.05906*%
%ADD32C,0.01378*%
%ADD33C,0.01575*%
%ADD34C,0.01000*%
%ADD35C,0.03937*%
%ADD36C,0.00000*%
%ADD37C,0.00394*%
%ADD38C,0.05906*%
%ADD39R,0.05906X0.05906*%
%ADD40C,0.15000*%
%ADD41C,0.05315*%
%ADD42R,0.05315X0.05315*%
%ADD43R,0.05906X0.05906*%
%ADD44C,0.05906*%
%ADD45C,0.05000*%
%ADD46C,0.00984*%
%ADD47C,0.02362*%
%ADD48C,0.00800*%
%ADD49R,0.05918X0.03162*%
%ADD50R,0.04737X0.05131*%
%ADD51R,0.17335X0.17335*%
%ADD52O,0.07887X0.03162*%
%ADD53R,0.06706X0.05918*%
%ADD54R,0.07099X0.03162*%
%ADD55O,0.10642X0.03556*%
%ADD56O,0.05721X0.01981*%
%ADD57R,0.05131X0.04737*%
%ADD58R,0.09265X0.02375*%
%ADD59R,0.09265X0.02375*%
%ADD60R,0.07296X0.01981*%
%ADD61O,0.07296X0.02965*%
%ADD62O,0.02965X0.07296*%
%ADD63R,0.07887X0.07099*%
%ADD64R,0.16548X0.40170*%
%ADD65C,0.06706*%
%ADD66R,0.06706X0.06706*%
%ADD67C,0.15800*%
%ADD68C,0.06115*%
%ADD69R,0.06115X0.06115*%
%ADD70R,0.06706X0.06706*%
%ADD71C,0.06706*%
%ADD72C,0.05800*%
D34*
X0Y0D02*
Y255500D01*
X216000D01*
Y0D02*
Y255500D01*
X0Y0D02*
X216000D01*
D37*
X147205Y225453D02*
G03*
X147205Y225453I-1969J0D01*
G01*
X85638Y186299D02*
G03*
X85638Y186299I-1969J0D01*
G01*
X53638Y154299D02*
G03*
X53638Y154299I-1969J0D01*
G01*
X138984Y132394D02*
G03*
X138984Y132394I-1969J0D01*
G01*
X155732Y86236D02*
G03*
X155732Y86236I-1969J0D01*
G01*
X31244Y114094D02*
X36756D01*
X31244Y125906D02*
X36756D01*
Y114094D02*
Y125906D01*
X31244Y114094D02*
Y125906D01*
X141693Y211004D02*
Y228996D01*
X158307Y211004D02*
Y228996D01*
X141693D02*
X158307D01*
X141693Y211004D02*
X158307D01*
X57244Y114094D02*
X62756D01*
X57244Y125906D02*
X62756D01*
Y114094D02*
Y125906D01*
X57244Y114094D02*
Y125906D01*
X80126Y170157D02*
X95874D01*
X80126Y189843D02*
X95874D01*
Y170157D02*
Y189843D01*
X80126Y170157D02*
Y189843D01*
X48126Y138157D02*
X63874D01*
X48126Y157843D02*
X63874D01*
Y138157D02*
Y157843D01*
X48126Y138157D02*
Y157843D01*
X133276Y127866D02*
X142724D01*
X133276Y136134D02*
X142724D01*
Y127866D02*
Y136134D01*
X133276Y127866D02*
Y136134D01*
X150220Y62220D02*
Y89780D01*
X177780Y62220D02*
Y89780D01*
X150220D02*
X177780D01*
X150220Y62220D02*
X177780D01*
D38*
X208000Y8000D02*
D03*
Y18000D02*
D03*
Y28000D02*
D03*
Y38000D02*
D03*
X20000Y10000D02*
D03*
X50000D02*
D03*
X80000D02*
D03*
X110000D02*
D03*
X172000Y160000D02*
D03*
X162000Y150000D02*
D03*
X172000D02*
D03*
X162000Y140000D02*
D03*
X172000D02*
D03*
X156000Y18000D02*
D03*
Y8000D02*
D03*
X192000Y18000D02*
D03*
Y8000D02*
D03*
X174000Y18000D02*
D03*
Y8000D02*
D03*
X138000Y18000D02*
D03*
Y8000D02*
D03*
X210000Y230000D02*
D03*
X200000Y220000D02*
D03*
X210000D02*
D03*
X200000Y210000D02*
D03*
X210000D02*
D03*
X200000Y200000D02*
D03*
X210000D02*
D03*
X200000Y190000D02*
D03*
X210000D02*
D03*
X200000Y180000D02*
D03*
X210000D02*
D03*
X200000Y170000D02*
D03*
X210000D02*
D03*
X200000Y160000D02*
D03*
X210000D02*
D03*
X200000Y150000D02*
D03*
X210000D02*
D03*
X200000Y140000D02*
D03*
X210000D02*
D03*
X200000Y130000D02*
D03*
X210000D02*
D03*
X200000Y120000D02*
D03*
X210000D02*
D03*
X200000Y110000D02*
D03*
X210000D02*
D03*
D39*
X208000Y48000D02*
D03*
X162000Y160000D02*
D03*
X156000Y28000D02*
D03*
X192000D02*
D03*
X174000D02*
D03*
X138000D02*
D03*
X200000Y230000D02*
D03*
D40*
X48000Y214000D02*
D03*
Y238000D02*
D03*
X20000Y214000D02*
D03*
Y238000D02*
D03*
D41*
X25843Y88000D02*
D03*
X117843Y152000D02*
D03*
D42*
X6157Y88000D02*
D03*
X98157Y152000D02*
D03*
D43*
X10000Y10000D02*
D03*
X40000D02*
D03*
X70000D02*
D03*
X100000D02*
D03*
D44*
X112000Y109200D02*
D03*
Y90000D02*
D03*
M02*
