%FSLAX25Y25*%
%MOIN*%
G70*
G01*
G75*
G04 Layer_Color=8421504*
%ADD10R,0.03937X0.04331*%
%ADD11R,0.15748X0.39370*%
%ADD12R,0.07087X0.06299*%
%ADD13O,0.02165X0.06496*%
%ADD14O,0.06496X0.02165*%
%ADD15R,0.08465X0.01575*%
%ADD16R,0.08465X0.01575*%
%ADD17R,0.04331X0.03937*%
%ADD18R,0.06496X0.01181*%
%ADD19R,0.05906X0.05118*%
%ADD20O,0.04921X0.01181*%
%ADD21O,0.09843X0.02756*%
%ADD22R,0.06299X0.02362*%
%ADD23O,0.07087X0.02362*%
%ADD24R,0.16535X0.16535*%
%ADD25R,0.05118X0.02362*%
%ADD26C,0.00787*%
%ADD27C,0.01181*%
%ADD28C,0.05906*%
%ADD29C,0.01969*%
%ADD30C,0.01378*%
%ADD31C,0.04724*%
%ADD32C,0.01000*%
%ADD33C,0.00000*%
%ADD34C,0.03150*%
%ADD35C,0.03937*%
%ADD36C,0.01575*%
%ADD37C,0.05906*%
%ADD38R,0.05906X0.05906*%
%ADD39C,0.05315*%
%ADD40R,0.05315X0.05315*%
%ADD41C,0.05906*%
%ADD42R,0.05906X0.05906*%
%ADD43C,0.15000*%
%ADD44C,0.05000*%
%ADD45C,0.02362*%
%ADD46C,0.00984*%
%ADD47C,0.00800*%
D10*
X198000Y79346D02*
D03*
Y72654D02*
D03*
X206000Y79346D02*
D03*
Y72654D02*
D03*
X116000Y133346D02*
D03*
Y126654D02*
D03*
X126000Y108654D02*
D03*
Y115346D02*
D03*
X64000Y166654D02*
D03*
Y173346D02*
D03*
X176000Y238654D02*
D03*
Y245346D02*
D03*
X160000D02*
D03*
Y238654D02*
D03*
X130000D02*
D03*
Y245346D02*
D03*
X148000Y238654D02*
D03*
Y245346D02*
D03*
X138000Y197346D02*
D03*
Y190654D02*
D03*
X82000Y126654D02*
D03*
Y133346D02*
D03*
Y157346D02*
D03*
Y150654D02*
D03*
X28000Y165346D02*
D03*
Y158654D02*
D03*
X150000Y190654D02*
D03*
Y197346D02*
D03*
X160000Y190654D02*
D03*
Y197346D02*
D03*
X178000Y211346D02*
D03*
Y204654D02*
D03*
X12000Y114654D02*
D03*
Y121346D02*
D03*
Y136654D02*
D03*
Y143346D02*
D03*
Y158654D02*
D03*
Y165346D02*
D03*
X162000Y112654D02*
D03*
Y119346D02*
D03*
X126000Y88654D02*
D03*
Y95346D02*
D03*
X100000Y133346D02*
D03*
Y126654D02*
D03*
X108000Y133346D02*
D03*
Y126654D02*
D03*
D11*
X112500Y230000D02*
D03*
X71500Y229500D02*
D03*
D12*
X20000Y182488D02*
D03*
Y193512D02*
D03*
X36000D02*
D03*
Y182488D02*
D03*
D13*
X152976Y92535D02*
D03*
X156126D02*
D03*
X159276D02*
D03*
X162425D02*
D03*
X165575D02*
D03*
X168724D02*
D03*
X171874D02*
D03*
X175024D02*
D03*
Y59465D02*
D03*
X171874D02*
D03*
X168724D02*
D03*
X165575D02*
D03*
X162425D02*
D03*
X159276D02*
D03*
X156126D02*
D03*
X152976D02*
D03*
D14*
X180535Y87024D02*
D03*
Y83874D02*
D03*
Y80724D02*
D03*
Y77575D02*
D03*
Y74425D02*
D03*
Y71276D02*
D03*
Y68126D02*
D03*
Y64976D02*
D03*
X147465D02*
D03*
Y68126D02*
D03*
Y71276D02*
D03*
Y74425D02*
D03*
Y77575D02*
D03*
Y80724D02*
D03*
Y83874D02*
D03*
Y87024D02*
D03*
D15*
X102894Y35043D02*
D03*
Y37602D02*
D03*
Y40161D02*
D03*
Y42721D02*
D03*
Y45280D02*
D03*
Y47839D02*
D03*
Y50398D02*
D03*
Y52957D02*
D03*
X77106Y35043D02*
D03*
Y37602D02*
D03*
Y40161D02*
D03*
Y42721D02*
D03*
Y45280D02*
D03*
Y47839D02*
D03*
Y50398D02*
D03*
X44894Y35043D02*
D03*
Y37602D02*
D03*
Y40161D02*
D03*
Y42721D02*
D03*
Y45280D02*
D03*
Y47839D02*
D03*
Y50398D02*
D03*
Y52957D02*
D03*
X19106Y35043D02*
D03*
Y37602D02*
D03*
Y40161D02*
D03*
Y42721D02*
D03*
Y45280D02*
D03*
Y47839D02*
D03*
Y50398D02*
D03*
D16*
X77106Y52957D02*
D03*
X19106D02*
D03*
D17*
X102654Y66000D02*
D03*
X109346D02*
D03*
X45346Y64000D02*
D03*
X38654D02*
D03*
D18*
X76925Y78323D02*
D03*
Y80882D02*
D03*
Y83441D02*
D03*
Y86000D02*
D03*
Y88559D02*
D03*
Y91118D02*
D03*
Y93677D02*
D03*
X55075Y78323D02*
D03*
Y80882D02*
D03*
Y83441D02*
D03*
Y86000D02*
D03*
Y88559D02*
D03*
Y91118D02*
D03*
Y93677D02*
D03*
D19*
X114000Y172260D02*
D03*
Y179740D02*
D03*
X50000Y181740D02*
D03*
Y174260D02*
D03*
D20*
X132783Y134953D02*
D03*
Y132984D02*
D03*
Y131016D02*
D03*
Y129047D02*
D03*
X143217Y134953D02*
D03*
Y132984D02*
D03*
Y131016D02*
D03*
Y129047D02*
D03*
D21*
X46354Y155500D02*
D03*
Y150500D02*
D03*
Y145500D02*
D03*
Y140500D02*
D03*
X65646Y155500D02*
D03*
Y150500D02*
D03*
Y145500D02*
D03*
Y140500D02*
D03*
X78354Y187500D02*
D03*
Y182500D02*
D03*
Y177500D02*
D03*
Y172500D02*
D03*
X97646Y187500D02*
D03*
Y182500D02*
D03*
Y177500D02*
D03*
Y172500D02*
D03*
D22*
X55669Y123740D02*
D03*
Y116260D02*
D03*
X64331Y120000D02*
D03*
D23*
X164173Y212500D02*
D03*
Y217500D02*
D03*
Y222500D02*
D03*
Y227500D02*
D03*
X135827Y212500D02*
D03*
Y217500D02*
D03*
Y222500D02*
D03*
Y227500D02*
D03*
D24*
X150000Y220000D02*
D03*
D25*
X29866Y123740D02*
D03*
Y116260D02*
D03*
X38134Y120000D02*
D03*
M02*
