%FSLAX25Y25*%
%MOIN*%
G70*
G01*
G75*
%ADD10R,0.03937X0.04331*%
%ADD11R,0.15748X0.39370*%
%ADD12R,0.07087X0.06299*%
%ADD13O,0.02165X0.06496*%
%ADD14O,0.06496X0.02165*%
%ADD15R,0.08465X0.01575*%
%ADD16R,0.08465X0.01575*%
%ADD17R,0.04331X0.03937*%
%ADD18R,0.06496X0.01181*%
%ADD19R,0.05906X0.05118*%
%ADD20O,0.04921X0.01181*%
%ADD21O,0.09843X0.02756*%
%ADD22R,0.06299X0.02362*%
%ADD23O,0.07087X0.02362*%
%ADD24R,0.16535X0.16535*%
%ADD25R,0.05118X0.02362*%
%ADD26C,0.00787*%
%ADD27C,0.01181*%
%ADD28C,0.05906*%
%ADD29C,0.01969*%
%ADD30C,0.01378*%
%ADD31C,0.04724*%
%ADD32C,0.01000*%
%ADD33C,0.00000*%
%ADD34C,0.03150*%
%ADD35C,0.03937*%
%ADD36C,0.01575*%
%ADD37C,0.05906*%
%ADD38R,0.05906X0.05906*%
%ADD39C,0.05315*%
%ADD40R,0.05315X0.05315*%
%ADD41C,0.05906*%
%ADD42R,0.05906X0.05906*%
%ADD43C,0.15000*%
%ADD44C,0.05000*%
%ADD45C,0.02362*%
%ADD46C,0.00984*%
%ADD47C,0.00800*%
%ADD48R,0.04737X0.05131*%
%ADD49R,0.16548X0.40170*%
%ADD50R,0.07887X0.07099*%
%ADD51O,0.02965X0.07296*%
%ADD52O,0.07296X0.02965*%
%ADD53R,0.09265X0.02375*%
%ADD54R,0.09265X0.02375*%
%ADD55R,0.05131X0.04737*%
%ADD56R,0.07296X0.01981*%
%ADD57R,0.06706X0.05918*%
%ADD58O,0.05721X0.01981*%
%ADD59O,0.10642X0.03556*%
%ADD60R,0.07099X0.03162*%
%ADD61O,0.07887X0.03162*%
%ADD62R,0.17335X0.17335*%
%ADD63R,0.05918X0.03162*%
%ADD64C,0.06706*%
%ADD65R,0.06706X0.06706*%
%ADD66C,0.06115*%
%ADD67R,0.06115X0.06115*%
%ADD68C,0.06706*%
%ADD69R,0.06706X0.06706*%
%ADD70C,0.15800*%
%ADD71C,0.05800*%
%ADD72C,0.00394*%
D37*
X210000Y110000D02*
D03*
X200000D02*
D03*
X210000Y120000D02*
D03*
X200000D02*
D03*
X210000Y130000D02*
D03*
X200000D02*
D03*
X210000Y140000D02*
D03*
X200000D02*
D03*
X210000Y150000D02*
D03*
X200000D02*
D03*
X210000Y160000D02*
D03*
X200000D02*
D03*
X210000Y170000D02*
D03*
X200000D02*
D03*
X210000Y180000D02*
D03*
X200000D02*
D03*
X210000Y190000D02*
D03*
X200000D02*
D03*
X210000Y200000D02*
D03*
X200000D02*
D03*
X210000Y210000D02*
D03*
X200000D02*
D03*
X210000Y220000D02*
D03*
X200000D02*
D03*
X210000Y230000D02*
D03*
X138000Y8000D02*
D03*
Y18000D02*
D03*
X174000Y8000D02*
D03*
Y18000D02*
D03*
X192000Y8000D02*
D03*
Y18000D02*
D03*
X156000Y8000D02*
D03*
Y18000D02*
D03*
X172000Y140000D02*
D03*
X162000D02*
D03*
X172000Y150000D02*
D03*
X162000D02*
D03*
X172000Y160000D02*
D03*
X110000Y10000D02*
D03*
X80000D02*
D03*
X50000D02*
D03*
X20000D02*
D03*
X208000Y38000D02*
D03*
Y28000D02*
D03*
Y18000D02*
D03*
Y8000D02*
D03*
D38*
X200000Y230000D02*
D03*
X138000Y28000D02*
D03*
X174000D02*
D03*
X192000D02*
D03*
X156000D02*
D03*
X162000Y160000D02*
D03*
X208000Y48000D02*
D03*
D39*
X117843Y152000D02*
D03*
X25843Y88000D02*
D03*
D40*
X98157Y152000D02*
D03*
X6157Y88000D02*
D03*
D41*
X112000Y90000D02*
D03*
Y109200D02*
D03*
D42*
X100000Y10000D02*
D03*
X70000D02*
D03*
X40000D02*
D03*
X10000D02*
D03*
D43*
X20000Y238000D02*
D03*
Y214000D02*
D03*
X48000Y238000D02*
D03*
Y214000D02*
D03*
M02*
