%FSLAX25Y25*%
%MOIN*%
G70*
G01*
G75*
G04 Layer_Color=65535*
%ADD10R,0.05118X0.02362*%
%ADD11R,0.03937X0.04331*%
%ADD12R,0.16535X0.16535*%
%ADD13O,0.07087X0.02362*%
%ADD14R,0.05906X0.05118*%
%ADD15R,0.06299X0.02362*%
%ADD16O,0.09843X0.02756*%
%ADD17O,0.04921X0.01181*%
%ADD18R,0.04331X0.03937*%
%ADD19R,0.08465X0.01575*%
%ADD20R,0.08465X0.01575*%
%ADD21R,0.06496X0.01181*%
%ADD22O,0.06496X0.02165*%
%ADD23O,0.02165X0.06496*%
%ADD24R,0.07087X0.06299*%
%ADD25R,0.15748X0.39370*%
%ADD26C,0.00787*%
%ADD27C,0.03150*%
%ADD28C,0.04724*%
%ADD29C,0.01181*%
%ADD30C,0.01969*%
%ADD31C,0.05906*%
%ADD32C,0.01378*%
%ADD33C,0.01575*%
%ADD34C,0.01000*%
%ADD35C,0.03937*%
%ADD36C,0.00000*%
%ADD37C,0.00394*%
%ADD38C,0.05906*%
%ADD39R,0.05906X0.05906*%
%ADD40C,0.15000*%
%ADD41C,0.05315*%
%ADD42R,0.05315X0.05315*%
%ADD43R,0.05906X0.05906*%
%ADD44C,0.05906*%
%ADD45C,0.05000*%
%ADD46C,0.00984*%
%ADD47C,0.02362*%
%ADD48C,0.00800*%
D26*
X23161Y91274D02*
G03*
X9360Y92232I-7161J-3274D01*
G01*
Y83768D02*
G03*
X23161Y84726I6640J4232D01*
G01*
X29638Y56795D02*
G03*
X34362Y56795I2362J0D01*
G01*
X63966Y96039D02*
G03*
X68034Y96039I2034J0D01*
G01*
X87638Y56795D02*
G03*
X92362Y56795I2362J0D01*
G01*
X101360Y147768D02*
G03*
X115161Y148726I6640J4232D01*
G01*
Y155274D02*
G03*
X101360Y156232I-7161J-3274D01*
G01*
X36756Y114094D02*
Y117244D01*
X34000Y114094D02*
X36756D01*
Y122756D02*
Y125906D01*
X34000D02*
X36756D01*
X203000Y53000D02*
X213000D01*
Y3000D02*
Y53000D01*
X203000Y3000D02*
Y53000D01*
Y3000D02*
X213000D01*
X47441Y185480D02*
X52559D01*
X62756Y114094D02*
Y117244D01*
X60394Y114094D02*
X62756D01*
Y122756D02*
Y125906D01*
X60394D02*
X62756D01*
X84850Y170157D02*
X91150D01*
X84850Y189843D02*
X91150D01*
Y170157D02*
Y189843D01*
X84850Y170157D02*
Y189843D01*
X52850Y138157D02*
X59150D01*
X52850Y157843D02*
X59150D01*
Y138157D02*
Y157843D01*
X52850Y138157D02*
Y157843D01*
X136819Y127866D02*
X139181D01*
X136819Y136134D02*
X139181D01*
Y127866D02*
Y136134D01*
X136819Y127866D02*
Y136134D01*
X111441Y168520D02*
X116559D01*
X24913Y56795D02*
X29638D01*
X34362D02*
X39087D01*
X24913Y31205D02*
X39087D01*
X24913D02*
Y56795D01*
X39087Y31205D02*
Y56795D01*
X21667Y-13333D02*
Y0D01*
X20000Y-15000D02*
X21667Y-13333D01*
X18333D02*
X20000Y-15000D01*
X18333Y-13333D02*
Y0D01*
X11667Y-13333D02*
Y0D01*
X10000Y-15000D02*
X11667Y-13333D01*
X8333D02*
X10000Y-15000D01*
X8333Y-13333D02*
Y0D01*
X5000Y5000D02*
X25000D01*
X5000Y0D02*
Y5000D01*
X25000Y0D02*
Y5000D01*
X5000Y0D02*
X25000D01*
X51667Y-13333D02*
Y0D01*
X50000Y-15000D02*
X51667Y-13333D01*
X48333D02*
X50000Y-15000D01*
X48333Y-13333D02*
Y0D01*
X41667Y-13333D02*
Y0D01*
X40000Y-15000D02*
X41667Y-13333D01*
X38333D02*
X40000Y-15000D01*
X38333Y-13333D02*
Y0D01*
X35000Y5000D02*
X55000D01*
X35000Y0D02*
Y5000D01*
X55000Y0D02*
Y5000D01*
X35000Y0D02*
X55000D01*
X59898Y96039D02*
X63966D01*
X68034D02*
X72102D01*
X59898Y75961D02*
X72102D01*
X59898D02*
Y96039D01*
X72102Y75961D02*
Y96039D01*
X82913Y56795D02*
X87638D01*
X92362D02*
X97087D01*
X82913Y31205D02*
X97087D01*
X82913D02*
Y56795D01*
X97087Y31205D02*
Y56795D01*
X81667Y-13333D02*
Y0D01*
X80000Y-15000D02*
X81667Y-13333D01*
X78333D02*
X80000Y-15000D01*
X78333Y-13333D02*
Y0D01*
X71667Y-13333D02*
Y0D01*
X70000Y-15000D02*
X71667Y-13333D01*
X68333D02*
X70000Y-15000D01*
X68333Y-13333D02*
Y0D01*
X65000Y5000D02*
X85000D01*
X65000Y0D02*
Y5000D01*
X85000Y0D02*
Y5000D01*
X65000Y0D02*
X85000D01*
X111667Y-13333D02*
Y0D01*
X110000Y-15000D02*
X111667Y-13333D01*
X108333D02*
X110000Y-15000D01*
X108333Y-13333D02*
Y0D01*
X101667Y-13333D02*
Y0D01*
X100000Y-15000D02*
X101667Y-13333D01*
X98333D02*
X100000Y-15000D01*
X98333Y-13333D02*
Y0D01*
X95000Y5000D02*
X115000D01*
X95000Y0D02*
Y5000D01*
X115000Y0D02*
Y5000D01*
X95000Y0D02*
X115000D01*
X157000Y135000D02*
X177000D01*
X157000Y165000D02*
X177000D01*
Y135000D02*
Y165000D01*
X157000Y135000D02*
Y165000D01*
Y135000D02*
Y154167D01*
X152386Y64386D02*
Y87614D01*
X175614Y64386D02*
Y87614D01*
X152386D02*
X175614D01*
X152386Y64386D02*
X175614D01*
X151000Y3000D02*
Y33000D01*
Y3000D02*
X161000D01*
Y33000D01*
X151000D02*
X161000D01*
X187000Y3000D02*
Y33000D01*
Y3000D02*
X197000D01*
Y33000D01*
X187000D02*
X197000D01*
X169000Y3000D02*
Y33000D01*
Y3000D02*
X179000D01*
Y33000D01*
X169000D02*
X179000D01*
X133000Y3000D02*
Y33000D01*
Y3000D02*
X143000D01*
Y33000D01*
X133000D02*
X143000D01*
X32850Y186819D02*
Y189181D01*
X39150Y186819D02*
Y189181D01*
X23150Y186819D02*
Y189181D01*
X16850Y186819D02*
Y189181D01*
X195000Y105000D02*
X215000D01*
X195000Y235000D02*
X215000D01*
Y105000D02*
Y235000D01*
X195000Y105000D02*
Y235000D01*
D34*
X32000Y238000D02*
X39000D01*
X48000Y234000D02*
X53000D01*
X35500Y235000D02*
Y241500D01*
Y210500D02*
Y217000D01*
X4000Y238000D02*
X11000D01*
X20000Y234000D02*
X25000D01*
X7500Y235000D02*
Y241500D01*
Y210500D02*
Y217000D01*
X112000Y95000D02*
Y105000D01*
Y94200D02*
Y104200D01*
X50224Y192180D02*
X49568Y192836D01*
X48256D01*
X47600Y192180D01*
Y189556D01*
X48256Y188900D01*
X49568D01*
X50224Y189556D01*
X51536Y191524D02*
X52848Y188900D01*
X54160Y191524D01*
X58095Y188900D02*
X55471D01*
X58095Y191524D01*
Y192180D01*
X57439Y192836D01*
X56127D01*
X55471Y192180D01*
X28500Y133936D02*
Y131312D01*
X29812Y130000D01*
X31124Y131312D01*
Y133936D01*
X32436Y132624D02*
Y130000D01*
Y131312D01*
X33092Y131968D01*
X33748Y132624D01*
X34404D01*
X38339Y130000D02*
X37027D01*
X36371Y130656D01*
Y131968D01*
X37027Y132624D01*
X38339D01*
X38995Y131968D01*
Y131312D01*
X36371D01*
X40963Y130000D02*
Y133280D01*
Y131968D01*
X40307D01*
X41619D01*
X40963D01*
Y133280D01*
X41619Y133936D01*
X40300Y166936D02*
Y163656D01*
X40956Y163000D01*
X42268D01*
X42924Y163656D01*
Y166936D01*
X44236Y163000D02*
X45548D01*
X44892D01*
Y166936D01*
X44236Y166280D01*
X10600Y126900D02*
Y130836D01*
X12568D01*
X13224Y130180D01*
Y128868D01*
X12568Y128212D01*
X10600D01*
X11912D02*
X13224Y126900D01*
X14536Y129524D02*
X15848Y126900D01*
X17160Y129524D01*
X18472Y130180D02*
X19127Y130836D01*
X20439D01*
X21095Y130180D01*
Y129524D01*
X20439Y128868D01*
X21095Y128212D01*
Y127556D01*
X20439Y126900D01*
X19127D01*
X18472Y127556D01*
Y128212D01*
X19127Y128868D01*
X18472Y129524D01*
Y130180D01*
X19127Y128868D02*
X20439D01*
X10600Y148900D02*
Y152836D01*
X12568D01*
X13224Y152180D01*
Y150868D01*
X12568Y150212D01*
X10600D01*
X11912D02*
X13224Y148900D01*
X14536Y151524D02*
X15848Y148900D01*
X17160Y151524D01*
X18472Y152836D02*
X21095D01*
Y152180D01*
X18472Y149556D01*
Y148900D01*
X10600Y170900D02*
Y174836D01*
X12568D01*
X13224Y174180D01*
Y172868D01*
X12568Y172212D01*
X10600D01*
X11912D02*
X13224Y170900D01*
X14536Y173524D02*
X15848Y170900D01*
X17160Y173524D01*
X21095Y174836D02*
X19783Y174180D01*
X18472Y172868D01*
Y171556D01*
X19127Y170900D01*
X20439D01*
X21095Y171556D01*
Y172212D01*
X20439Y172868D01*
X18472D01*
X74924Y195656D02*
Y198280D01*
X74268Y198936D01*
X72956D01*
X72300Y198280D01*
Y195656D01*
X72956Y195000D01*
X74268D01*
X73612Y196312D02*
X74924Y195000D01*
X74268D02*
X74924Y195656D01*
X78860Y195000D02*
X76236D01*
X78860Y197624D01*
Y198280D01*
X78204Y198936D01*
X76892D01*
X76236Y198280D01*
X4500Y248900D02*
Y252836D01*
X6468D01*
X7124Y252180D01*
Y250868D01*
X6468Y250212D01*
X4500D01*
X8436Y251524D02*
Y249556D01*
X9092Y248900D01*
X9748Y249556D01*
X10404Y248900D01*
X11060Y249556D01*
Y251524D01*
X12371D02*
Y248900D01*
Y250212D01*
X13027Y250868D01*
X13683Y251524D01*
X14339D01*
X130100Y141700D02*
X131412D01*
X130756D01*
Y145636D01*
X130100D01*
X133380Y144324D02*
X134692Y141700D01*
X136004Y144324D01*
X137315Y141700D02*
X138627D01*
X137971D01*
Y145636D01*
X137315D01*
X143000Y250500D02*
Y254436D01*
X144968D01*
X145624Y253780D01*
Y252468D01*
X144968Y251812D01*
X143000D01*
X144312D02*
X145624Y250500D01*
X148904D02*
X147592D01*
X146936Y251156D01*
Y252468D01*
X147592Y253124D01*
X148904D01*
X149560Y252468D01*
Y251812D01*
X146936D01*
X150872Y250500D02*
Y253124D01*
X152839D01*
X153495Y252468D01*
Y250500D01*
X144000Y230500D02*
Y234436D01*
X145968D01*
X146624Y233780D01*
Y232468D01*
X145968Y231812D01*
X144000D01*
X145312D02*
X146624Y230500D01*
X150560Y234436D02*
X147936D01*
Y230500D01*
X150560D01*
X147936Y232468D02*
X149248D01*
X154495Y233780D02*
X153839Y234436D01*
X152527D01*
X151872Y233780D01*
Y231156D01*
X152527Y230500D01*
X153839D01*
X154495Y231156D01*
Y232468D01*
X153183D01*
X148600Y202900D02*
Y206836D01*
X150568D01*
X151224Y206180D01*
Y204868D01*
X150568Y204212D01*
X148600D01*
X149912D02*
X151224Y202900D01*
X155160Y205524D02*
X153192D01*
X152536Y204868D01*
Y203556D01*
X153192Y202900D01*
X155160D01*
X176600Y216900D02*
Y220836D01*
X178568D01*
X179224Y220180D01*
Y218868D01*
X178568Y218212D01*
X176600D01*
X177912D02*
X179224Y216900D01*
X183160D02*
X180536D01*
X183160Y219524D01*
Y220180D01*
X182504Y220836D01*
X181192D01*
X180536Y220180D01*
X174500Y249500D02*
Y253436D01*
X176468D01*
X177124Y252780D01*
Y251468D01*
X176468Y250812D01*
X174500D01*
X175812D02*
X177124Y249500D01*
X178436D02*
X179748D01*
X179092D01*
Y253436D01*
X178436Y252780D01*
X52400Y100400D02*
Y104336D01*
X55024Y100400D01*
Y104336D01*
X56336Y100400D02*
Y103024D01*
X57648Y104336D01*
X58960Y103024D01*
Y100400D01*
Y102368D01*
X56336D01*
X60272Y100400D02*
Y104336D01*
X62895Y100400D01*
Y104336D01*
X64207D02*
Y100400D01*
X66175D01*
X66831Y101056D01*
Y103680D01*
X66175Y104336D01*
X64207D01*
X73500Y60200D02*
Y64136D01*
X74812Y62824D01*
X76124Y64136D01*
Y60200D01*
X80060Y63480D02*
X79404Y64136D01*
X78092D01*
X77436Y63480D01*
Y60856D01*
X78092Y60200D01*
X79404D01*
X80060Y60856D01*
X83995Y60200D02*
X81371D01*
X83995Y62824D01*
Y63480D01*
X83339Y64136D01*
X82027D01*
X81371Y63480D01*
X15500Y60200D02*
Y64136D01*
X16812Y62824D01*
X18124Y64136D01*
Y60200D01*
X22060Y63480D02*
X21404Y64136D01*
X20092D01*
X19436Y63480D01*
Y60856D01*
X20092Y60200D01*
X21404D01*
X22060Y60856D01*
X23371Y60200D02*
X24683D01*
X24027D01*
Y64136D01*
X23371Y63480D01*
X95650Y16350D02*
Y22348D01*
X97649Y20349D01*
X99649Y22348D01*
Y16350D01*
X104647D02*
Y22348D01*
X101648Y19349D01*
X105647D01*
X65650Y16350D02*
Y22348D01*
X67649Y20349D01*
X69649Y22348D01*
Y16350D01*
X71648Y21348D02*
X72648Y22348D01*
X74647D01*
X75647Y21348D01*
Y20349D01*
X74647Y19349D01*
X73647D01*
X74647D01*
X75647Y18349D01*
Y17350D01*
X74647Y16350D01*
X72648D01*
X71648Y17350D01*
X35650Y16350D02*
Y22348D01*
X37649Y20349D01*
X39649Y22348D01*
Y16350D01*
X45647D02*
X41648D01*
X45647Y20349D01*
Y21348D01*
X44647Y22348D01*
X42648D01*
X41648Y21348D01*
X5650Y16350D02*
Y22348D01*
X7649Y20349D01*
X9649Y22348D01*
Y16350D01*
X11648D02*
X13647D01*
X12648D01*
Y22348D01*
X11648Y21348D01*
X64500Y254936D02*
Y251000D01*
X67124D01*
X68436D02*
X69748D01*
X69092D01*
Y254936D01*
X68436Y254280D01*
X161124Y253280D02*
X160468Y253936D01*
X159156D01*
X158500Y253280D01*
Y250656D01*
X159156Y250000D01*
X160468D01*
X161124Y250656D01*
X162436Y250000D02*
X164404D01*
X165060Y250656D01*
X164404Y251312D01*
X163092D01*
X162436Y251968D01*
X163092Y252624D01*
X165060D01*
X166372Y250000D02*
X168339D01*
X168995Y250656D01*
X168339Y251312D01*
X167027D01*
X166372Y251968D01*
X167027Y252624D01*
X168995D01*
X114224Y188980D02*
X113568Y189636D01*
X112256D01*
X111600Y188980D01*
Y186356D01*
X112256Y185700D01*
X113568D01*
X114224Y186356D01*
X116192Y185700D02*
X117504D01*
X118160Y186356D01*
Y187668D01*
X117504Y188324D01*
X116192D01*
X115536Y187668D01*
Y186356D01*
X116192Y185700D01*
X119472Y188324D02*
Y186356D01*
X120127Y185700D01*
X122095D01*
Y188324D01*
X124063Y188980D02*
Y188324D01*
X123407D01*
X124719D01*
X124063D01*
Y186356D01*
X124719Y185700D01*
X136624Y206280D02*
X135968Y206936D01*
X134656D01*
X134000Y206280D01*
Y203656D01*
X134656Y203000D01*
X135968D01*
X136624Y203656D01*
X137936Y203000D02*
X139248D01*
X138592D01*
Y205624D01*
X137936D01*
X141216Y203000D02*
Y205624D01*
X143183D01*
X143839Y204968D01*
Y203000D01*
X161224Y206180D02*
X160568Y206836D01*
X159256D01*
X158600Y206180D01*
Y203556D01*
X159256Y202900D01*
X160568D01*
X161224Y203556D01*
X165160Y205524D02*
X163192D01*
X162536Y204868D01*
Y203556D01*
X163192Y202900D01*
X165160D01*
X129624Y253780D02*
X128968Y254436D01*
X127656D01*
X127000Y253780D01*
Y251156D01*
X127656Y250500D01*
X128968D01*
X129624Y251156D01*
X130936Y254436D02*
Y250500D01*
X132904D01*
X133560Y251156D01*
Y251812D01*
Y252468D01*
X132904Y253124D01*
X130936D01*
X135527Y253780D02*
Y253124D01*
X134871D01*
X136183D01*
X135527D01*
Y251156D01*
X136183Y250500D01*
X6724Y102580D02*
X6068Y103236D01*
X4756D01*
X4100Y102580D01*
Y99956D01*
X4756Y99300D01*
X6068D01*
X6724Y99956D01*
X8036Y103236D02*
X10660D01*
Y102580D01*
X8036Y99956D01*
Y99300D01*
X103724Y74680D02*
X103068Y75336D01*
X101756D01*
X101100Y74680D01*
Y72056D01*
X101756Y71400D01*
X103068D01*
X103724Y72056D01*
X107660Y75336D02*
X106348Y74680D01*
X105036Y73368D01*
Y72056D01*
X105692Y71400D01*
X107004D01*
X107660Y72056D01*
Y72712D01*
X107004Y73368D01*
X105036D01*
X39724Y72680D02*
X39068Y73336D01*
X37756D01*
X37100Y72680D01*
Y70056D01*
X37756Y69400D01*
X39068D01*
X39724Y70056D01*
X43660Y73336D02*
X41036D01*
Y71368D01*
X42348Y72024D01*
X43004D01*
X43660Y71368D01*
Y70056D01*
X43004Y69400D01*
X41692D01*
X41036Y70056D01*
X109600Y118224D02*
X112224Y115600D01*
X110912Y116912D01*
X112224Y118224D01*
X109600Y115600D01*
X114192Y118880D02*
Y118224D01*
X113536D01*
X114848D01*
X114192D01*
Y116256D01*
X114848Y115600D01*
X190224Y39680D02*
X189568Y40336D01*
X188256D01*
X187600Y39680D01*
Y39024D01*
X188256Y38368D01*
X189568D01*
X190224Y37712D01*
Y37056D01*
X189568Y36400D01*
X188256D01*
X187600Y37056D01*
X194160Y36400D02*
X191536D01*
X194160Y39024D01*
Y39680D01*
X193504Y40336D01*
X192192D01*
X191536Y39680D01*
X172224D02*
X171568Y40336D01*
X170256D01*
X169600Y39680D01*
Y39024D01*
X170256Y38368D01*
X171568D01*
X172224Y37712D01*
Y37056D01*
X171568Y36400D01*
X170256D01*
X169600Y37056D01*
X173536Y36400D02*
X174848D01*
X174192D01*
Y40336D01*
X173536Y39680D01*
X156500Y125000D02*
Y128936D01*
X158468D01*
X159124Y128280D01*
Y126968D01*
X158468Y126312D01*
X156500D01*
X157812D02*
X159124Y125000D01*
X160436D02*
X162404D01*
X163060Y125656D01*
X162404Y126312D01*
X161092D01*
X160436Y126968D01*
X161092Y127624D01*
X163060D01*
X165027Y128280D02*
Y127624D01*
X164372D01*
X165683D01*
X165027D01*
Y125656D01*
X165683Y125000D01*
X104500Y138000D02*
Y141936D01*
X106468D01*
X107124Y141280D01*
Y139968D01*
X106468Y139312D01*
X104500D01*
X105812D02*
X107124Y138000D01*
X110404D02*
Y141936D01*
X108436Y139968D01*
X111060D01*
X95500Y127000D02*
X91564D01*
Y128968D01*
X92220Y129624D01*
X93532D01*
X94188Y128968D01*
Y127000D01*
Y128312D02*
X95500Y129624D01*
X92220Y130936D02*
X91564Y131592D01*
Y132904D01*
X92220Y133560D01*
X92876D01*
X93532Y132904D01*
Y132248D01*
Y132904D01*
X94188Y133560D01*
X94844D01*
X95500Y132904D01*
Y131592D01*
X94844Y130936D01*
X151600Y37700D02*
Y40324D01*
X153568D01*
X154224Y39668D01*
Y37700D01*
X155536Y36388D02*
Y40324D01*
X157504D01*
X158160Y39668D01*
Y38356D01*
X157504Y37700D01*
X155536D01*
X162095D02*
X159471D01*
X162095Y40324D01*
Y40980D01*
X161439Y41636D01*
X160127D01*
X159471Y40980D01*
X133600Y37700D02*
Y40324D01*
X135568D01*
X136224Y39668D01*
Y37700D01*
X137536Y36388D02*
Y40324D01*
X139504D01*
X140160Y39668D01*
Y38356D01*
X139504Y37700D01*
X137536D01*
X141472D02*
X142783D01*
X142127D01*
Y41636D01*
X141472Y40980D01*
X157600Y177736D02*
X158912D01*
X158256D01*
Y173800D01*
X157600D01*
X158912D01*
X163504Y177080D02*
X162848Y177736D01*
X161536D01*
X160880Y177080D01*
Y174456D01*
X161536Y173800D01*
X162848D01*
X163504Y174456D01*
X167439Y177080D02*
X166783Y177736D01*
X165471D01*
X164815Y177080D01*
Y176424D01*
X165471Y175768D01*
X166783D01*
X167439Y175112D01*
Y174456D01*
X166783Y173800D01*
X165471D01*
X164815Y174456D01*
X168751Y173800D02*
Y177736D01*
X170719D01*
X171375Y177080D01*
Y175768D01*
X170719Y175112D01*
X168751D01*
X35724Y204036D02*
X33100D01*
Y202068D01*
X34412D01*
X33100D01*
Y200100D01*
X39660Y204036D02*
X37036D01*
Y202068D01*
X38348Y202724D01*
X39004D01*
X39660Y202068D01*
Y200756D01*
X39004Y200100D01*
X37692D01*
X37036Y200756D01*
X200124Y88280D02*
X199468Y88936D01*
X198156D01*
X197500Y88280D01*
Y85656D01*
X198156Y85000D01*
X199468D01*
X200124Y85656D01*
X203404Y85000D02*
Y88936D01*
X201436Y86968D01*
X204060D01*
X209624Y88780D02*
X208968Y89436D01*
X207656D01*
X207000Y88780D01*
Y86156D01*
X207656Y85500D01*
X208968D01*
X209624Y86156D01*
X213560Y85500D02*
X210936D01*
X213560Y88124D01*
Y88780D01*
X212904Y89436D01*
X211592D01*
X210936Y88780D01*
X129624Y123780D02*
X128968Y124436D01*
X127656D01*
X127000Y123780D01*
Y121156D01*
X127656Y120500D01*
X128968D01*
X129624Y121156D01*
X130936Y120500D02*
X132248D01*
X131592D01*
Y124436D01*
X130936Y123780D01*
X127124Y102780D02*
X126468Y103436D01*
X125156D01*
X124500Y102780D01*
Y100156D01*
X125156Y99500D01*
X126468D01*
X127124Y100156D01*
X128436Y102780D02*
X129092Y103436D01*
X130404D01*
X131060Y102780D01*
Y100156D01*
X130404Y99500D01*
X129092D01*
X128436Y100156D01*
Y102780D01*
X144756Y103824D02*
X146068D01*
X146724Y103168D01*
Y101200D01*
X144756D01*
X144100Y101856D01*
X144756Y102512D01*
X146724D01*
X148692Y104480D02*
Y103824D01*
X148036D01*
X149348D01*
X148692D01*
Y101856D01*
X149348Y101200D01*
X151315D02*
Y103824D01*
X151971D01*
X152627Y103168D01*
Y101200D01*
Y103168D01*
X153283Y103824D01*
X153939Y103168D01*
Y101200D01*
X157219D02*
X155907D01*
X155251Y101856D01*
Y103168D01*
X155907Y103824D01*
X157219D01*
X157875Y103168D01*
Y102512D01*
X155251D01*
X160499Y99888D02*
X161155D01*
X161811Y100544D01*
Y103824D01*
X159843D01*
X159187Y103168D01*
Y101856D01*
X159843Y101200D01*
X161811D01*
X163779Y103824D02*
X165091D01*
X165747Y103168D01*
Y101200D01*
X163779D01*
X163123Y101856D01*
X163779Y102512D01*
X165747D01*
X196000Y58500D02*
Y61124D01*
X197312Y62436D01*
X198624Y61124D01*
Y58500D01*
Y60468D01*
X196000D01*
X199936Y62436D02*
Y58500D01*
X201904D01*
X202560Y59156D01*
Y61780D01*
X201904Y62436D01*
X199936D01*
X206495Y61780D02*
X205839Y62436D01*
X204527D01*
X203871Y61780D01*
Y59156D01*
X204527Y58500D01*
X205839D01*
X206495Y59156D01*
X32500Y248900D02*
X33812D01*
X33156D01*
Y252836D01*
X32500Y252180D01*
X38404Y248900D02*
X35780D01*
X38404Y251524D01*
Y252180D01*
X37748Y252836D01*
X36436D01*
X35780Y252180D01*
X39715Y252836D02*
Y248900D01*
Y250868D01*
X40372Y251524D01*
X41683D01*
X42339Y250868D01*
Y248900D01*
X46275Y252836D02*
Y248900D01*
X44307D01*
X43651Y249556D01*
Y250868D01*
X44307Y251524D01*
X46275D01*
X47587D02*
Y248900D01*
Y250212D01*
X48243Y250868D01*
X48899Y251524D01*
X49555D01*
X98724Y166580D02*
X98068Y167236D01*
X96756D01*
X96100Y166580D01*
Y163956D01*
X96756Y163300D01*
X98068D01*
X98724Y163956D01*
X100036Y165924D02*
X101348Y163300D01*
X102660Y165924D01*
X103972Y163300D02*
X105283D01*
X104627D01*
Y167236D01*
X103972Y166580D01*
X19724Y204036D02*
X17100D01*
Y202068D01*
X18412D01*
X17100D01*
Y200100D01*
X21036D02*
X22348D01*
X21692D01*
Y204036D01*
X21036Y203380D01*
X26939Y200100D02*
X24316D01*
X26939Y202724D01*
Y203380D01*
X26283Y204036D01*
X24972D01*
X24316Y203380D01*
X54024Y131756D02*
Y134380D01*
X53368Y135036D01*
X52056D01*
X51400Y134380D01*
Y131756D01*
X52056Y131100D01*
X53368D01*
X52712Y132412D02*
X54024Y131100D01*
X53368D02*
X54024Y131756D01*
X55336Y131100D02*
X56648D01*
X55992D01*
Y135036D01*
X55336Y134380D01*
X26600Y170900D02*
Y174836D01*
X28568D01*
X29224Y174180D01*
Y172868D01*
X28568Y172212D01*
X26600D01*
X27912D02*
X29224Y170900D01*
X30536Y173524D02*
X31848Y170900D01*
X33160Y173524D01*
X34471Y170900D02*
X35783D01*
X35127D01*
Y174836D01*
X34471Y174180D01*
X60000Y179000D02*
Y182936D01*
X61968D01*
X62624Y182280D01*
Y180968D01*
X61968Y180312D01*
X60000D01*
X61312D02*
X62624Y179000D01*
X63936Y181624D02*
X65248Y179000D01*
X66560Y181624D01*
X70495Y179000D02*
X67871D01*
X70495Y181624D01*
Y182280D01*
X69839Y182936D01*
X68527D01*
X67871Y182280D01*
X80600Y162900D02*
Y166836D01*
X82568D01*
X83224Y166180D01*
Y164868D01*
X82568Y164212D01*
X80600D01*
X81912D02*
X83224Y162900D01*
X84536Y165524D02*
X85848Y162900D01*
X87160Y165524D01*
X88472Y166180D02*
X89127Y166836D01*
X90439D01*
X91095Y166180D01*
Y165524D01*
X90439Y164868D01*
X89783D01*
X90439D01*
X91095Y164212D01*
Y163556D01*
X90439Y162900D01*
X89127D01*
X88472Y163556D01*
X80000Y139000D02*
Y142936D01*
X81968D01*
X82624Y142280D01*
Y140968D01*
X81968Y140312D01*
X80000D01*
X81312D02*
X82624Y139000D01*
X83936Y141624D02*
X85248Y139000D01*
X86560Y141624D01*
X89839Y139000D02*
Y142936D01*
X87871Y140968D01*
X90495D01*
X120000Y137000D02*
X123936D01*
Y135032D01*
X123280Y134376D01*
X121968D01*
X121312Y135032D01*
Y137000D01*
Y135688D02*
X120000Y134376D01*
X123936Y130440D02*
Y133064D01*
X121968D01*
X122624Y131752D01*
Y131096D01*
X121968Y130440D01*
X120656D01*
X120000Y131096D01*
Y132408D01*
X120656Y133064D01*
X189188Y169500D02*
X193124D01*
Y167532D01*
X192468Y166876D01*
X191156D01*
X190500Y167532D01*
Y169500D01*
Y165564D02*
Y164252D01*
Y164908D01*
X193124D01*
Y165564D01*
X194436Y162285D02*
X190500D01*
X192468D01*
X193124Y161628D01*
Y160317D01*
X192468Y159661D01*
X190500D01*
X194436Y155725D02*
X190500D01*
Y157693D01*
X191156Y158349D01*
X192468D01*
X193124Y157693D01*
Y155725D01*
Y154413D02*
X190500D01*
X191812D01*
X192468Y153757D01*
X193124Y153101D01*
Y152445D01*
X0Y0D02*
Y255500D01*
X216000D01*
Y0D02*
Y255500D01*
X0Y0D02*
X216000D01*
D37*
X147205Y225453D02*
G03*
X147205Y225453I-1969J0D01*
G01*
X85638Y186299D02*
G03*
X85638Y186299I-1969J0D01*
G01*
X53638Y154299D02*
G03*
X53638Y154299I-1969J0D01*
G01*
X138984Y132394D02*
G03*
X138984Y132394I-1969J0D01*
G01*
X155732Y86236D02*
G03*
X155732Y86236I-1969J0D01*
G01*
X31244Y114094D02*
X36756D01*
X31244Y125906D02*
X36756D01*
Y114094D02*
Y125906D01*
X31244Y114094D02*
Y125906D01*
X141693Y211004D02*
Y228996D01*
X158307Y211004D02*
Y228996D01*
X141693D02*
X158307D01*
X141693Y211004D02*
X158307D01*
X57244Y114094D02*
X62756D01*
X57244Y125906D02*
X62756D01*
Y114094D02*
Y125906D01*
X57244Y114094D02*
Y125906D01*
X80126Y170157D02*
X95874D01*
X80126Y189843D02*
X95874D01*
Y170157D02*
Y189843D01*
X80126Y170157D02*
Y189843D01*
X48126Y138157D02*
X63874D01*
X48126Y157843D02*
X63874D01*
Y138157D02*
Y157843D01*
X48126Y138157D02*
Y157843D01*
X133276Y127866D02*
X142724D01*
X133276Y136134D02*
X142724D01*
Y127866D02*
Y136134D01*
X133276Y127866D02*
Y136134D01*
X150220Y62220D02*
Y89780D01*
X177780Y62220D02*
Y89780D01*
X150220D02*
X177780D01*
X150220Y62220D02*
X177780D01*
D46*
X30358Y127087D02*
G03*
X30358Y127087I-492J0D01*
G01*
X136319Y230847D02*
G03*
X136319Y230847I-492J0D01*
G01*
X56161Y127087D02*
G03*
X56161Y127087I-492J0D01*
G01*
X78847Y191043D02*
G03*
X78847Y191043I-492J0D01*
G01*
X46847Y159043D02*
G03*
X46847Y159043I-492J0D01*
G01*
X133276Y137709D02*
G03*
X133276Y137709I-492J0D01*
G01*
X19598Y55910D02*
G03*
X19598Y55910I-492J0D01*
G01*
X55567Y96433D02*
G03*
X55567Y96433I-492J0D01*
G01*
X77598Y55910D02*
G03*
X77598Y55910I-492J0D01*
G01*
X147957Y90272D02*
G03*
X147957Y90272I-492J0D01*
G01*
D47*
X157504Y83677D02*
G03*
X157504Y83677I-1181J0D01*
G01*
D48*
X174998Y130668D02*
X174165Y132334D01*
X172499Y134000D01*
X170833D01*
X170000Y133167D01*
Y131501D01*
X170833Y130668D01*
X171666D01*
X172499Y131501D01*
Y134000D01*
X164998Y130668D02*
Y134000D01*
X162499D01*
X163332Y132334D01*
Y131501D01*
X162499Y130668D01*
X160833D01*
X160000Y131501D01*
Y133167D01*
X160833Y134000D01*
X170000Y166668D02*
Y170000D01*
X173332Y166668D01*
X174165D01*
X174998Y167501D01*
Y169167D01*
X174165Y170000D01*
X160000Y168000D02*
Y166334D01*
Y167167D01*
X164998D01*
X164165Y168000D01*
X208000Y236668D02*
Y240000D01*
X211332Y236668D01*
X212165D01*
X212998Y237501D01*
Y239167D01*
X212165Y240000D01*
X198000D02*
Y238334D01*
Y239167D01*
X202998D01*
X202165Y240000D01*
X198000Y100668D02*
Y104000D01*
X201332Y100668D01*
X202165D01*
X202998Y101501D01*
Y103167D01*
X202165Y104000D01*
X202998Y95669D02*
Y99002D01*
X200499D01*
X201332Y97335D01*
Y96502D01*
X200499Y95669D01*
X198833D01*
X198000Y96502D01*
Y98169D01*
X198833Y99002D01*
X208000Y100668D02*
Y104000D01*
X211332Y100668D01*
X212165D01*
X212998Y101501D01*
Y103167D01*
X212165Y104000D01*
X212998Y95669D02*
X212165Y97335D01*
X210499Y99002D01*
X208833D01*
X208000Y98169D01*
Y96502D01*
X208833Y95669D01*
X209666D01*
X210499Y96502D01*
Y99002D01*
M02*
