%FSLAX25Y25*%
%MOIN*%
G70*
G01*
G75*
G04 Layer_Color=8388736*
%ADD10R,0.03937X0.04331*%
%ADD11R,0.15748X0.39370*%
%ADD12R,0.07087X0.06299*%
%ADD13O,0.02165X0.06496*%
%ADD14O,0.06496X0.02165*%
%ADD15R,0.08465X0.01575*%
%ADD16R,0.08465X0.01575*%
%ADD17R,0.04331X0.03937*%
%ADD18R,0.06496X0.01181*%
%ADD19R,0.05906X0.05118*%
%ADD20O,0.04921X0.01181*%
%ADD21O,0.09843X0.02756*%
%ADD22R,0.06299X0.02362*%
%ADD23O,0.07087X0.02362*%
%ADD24R,0.16535X0.16535*%
%ADD25R,0.05118X0.02362*%
%ADD26C,0.00787*%
%ADD27C,0.01181*%
%ADD28C,0.05906*%
%ADD29C,0.01969*%
%ADD30C,0.01378*%
%ADD31C,0.04724*%
%ADD32C,0.01000*%
%ADD33C,0.00000*%
%ADD34C,0.03150*%
%ADD35C,0.03937*%
%ADD36C,0.01575*%
%ADD37C,0.05906*%
%ADD38R,0.05906X0.05906*%
%ADD39C,0.05315*%
%ADD40R,0.05315X0.05315*%
%ADD41C,0.05906*%
%ADD42R,0.05906X0.05906*%
%ADD43C,0.15000*%
%ADD44C,0.05000*%
%ADD45C,0.02362*%
%ADD46C,0.00984*%
%ADD47C,0.00800*%
%ADD48R,0.04737X0.05131*%
%ADD49R,0.16548X0.40170*%
%ADD50R,0.07887X0.07099*%
%ADD51O,0.02965X0.07296*%
%ADD52O,0.07296X0.02965*%
%ADD53R,0.09265X0.02375*%
%ADD54R,0.09265X0.02375*%
%ADD55R,0.05131X0.04737*%
%ADD56R,0.07296X0.01981*%
%ADD57R,0.06706X0.05918*%
%ADD58O,0.05721X0.01981*%
%ADD59O,0.10642X0.03556*%
%ADD60R,0.07099X0.03162*%
%ADD61O,0.07887X0.03162*%
%ADD62R,0.17335X0.17335*%
%ADD63R,0.05918X0.03162*%
%ADD64C,0.06706*%
%ADD65R,0.06706X0.06706*%
%ADD66C,0.06115*%
%ADD67R,0.06115X0.06115*%
%ADD68C,0.06706*%
%ADD69R,0.06706X0.06706*%
%ADD70C,0.15800*%
%ADD71C,0.05800*%
D48*
X198000Y79346D02*
D03*
Y72654D02*
D03*
X206000Y79346D02*
D03*
Y72654D02*
D03*
X116000Y133346D02*
D03*
Y126654D02*
D03*
X126000Y108654D02*
D03*
Y115346D02*
D03*
X64000Y166654D02*
D03*
Y173346D02*
D03*
X176000Y238654D02*
D03*
Y245346D02*
D03*
X160000D02*
D03*
Y238654D02*
D03*
X130000D02*
D03*
Y245346D02*
D03*
X148000Y238654D02*
D03*
Y245346D02*
D03*
X138000Y197346D02*
D03*
Y190654D02*
D03*
X82000Y126654D02*
D03*
Y133346D02*
D03*
Y157346D02*
D03*
Y150654D02*
D03*
X28000Y165346D02*
D03*
Y158654D02*
D03*
X150000Y190654D02*
D03*
Y197346D02*
D03*
X160000Y190654D02*
D03*
Y197346D02*
D03*
X178000Y211346D02*
D03*
Y204654D02*
D03*
X12000Y114654D02*
D03*
Y121346D02*
D03*
Y136654D02*
D03*
Y143346D02*
D03*
Y158654D02*
D03*
Y165346D02*
D03*
X162000Y112654D02*
D03*
Y119346D02*
D03*
X126000Y88654D02*
D03*
Y95346D02*
D03*
X100000Y133346D02*
D03*
Y126654D02*
D03*
X108000Y133346D02*
D03*
Y126654D02*
D03*
D49*
X112500Y230000D02*
D03*
X71500Y229500D02*
D03*
D50*
X20000Y182488D02*
D03*
Y193512D02*
D03*
X36000D02*
D03*
Y182488D02*
D03*
D51*
X152976Y92535D02*
D03*
X156126D02*
D03*
X159276D02*
D03*
X162425D02*
D03*
X165575D02*
D03*
X168724D02*
D03*
X171874D02*
D03*
X175024D02*
D03*
Y59465D02*
D03*
X171874D02*
D03*
X168724D02*
D03*
X165575D02*
D03*
X162425D02*
D03*
X159276D02*
D03*
X156126D02*
D03*
X152976D02*
D03*
D52*
X180535Y87024D02*
D03*
Y83874D02*
D03*
Y80724D02*
D03*
Y77575D02*
D03*
Y74425D02*
D03*
Y71276D02*
D03*
Y68126D02*
D03*
Y64976D02*
D03*
X147465D02*
D03*
Y68126D02*
D03*
Y71276D02*
D03*
Y74425D02*
D03*
Y77575D02*
D03*
Y80724D02*
D03*
Y83874D02*
D03*
Y87024D02*
D03*
D53*
X102894Y35043D02*
D03*
Y37602D02*
D03*
Y40161D02*
D03*
Y42721D02*
D03*
Y45280D02*
D03*
Y47839D02*
D03*
Y50398D02*
D03*
Y52957D02*
D03*
X77106Y35043D02*
D03*
Y37602D02*
D03*
Y40161D02*
D03*
Y42721D02*
D03*
Y45280D02*
D03*
Y47839D02*
D03*
Y50398D02*
D03*
X44894Y35043D02*
D03*
Y37602D02*
D03*
Y40161D02*
D03*
Y42721D02*
D03*
Y45280D02*
D03*
Y47839D02*
D03*
Y50398D02*
D03*
Y52957D02*
D03*
X19106Y35043D02*
D03*
Y37602D02*
D03*
Y40161D02*
D03*
Y42721D02*
D03*
Y45280D02*
D03*
Y47839D02*
D03*
Y50398D02*
D03*
D54*
X77106Y52957D02*
D03*
X19106D02*
D03*
D55*
X102654Y66000D02*
D03*
X109346D02*
D03*
X45346Y64000D02*
D03*
X38654D02*
D03*
D56*
X76925Y78323D02*
D03*
Y80882D02*
D03*
Y83441D02*
D03*
Y86000D02*
D03*
Y88559D02*
D03*
Y91118D02*
D03*
Y93677D02*
D03*
X55075Y78323D02*
D03*
Y80882D02*
D03*
Y83441D02*
D03*
Y86000D02*
D03*
Y88559D02*
D03*
Y91118D02*
D03*
Y93677D02*
D03*
D57*
X114000Y172260D02*
D03*
Y179740D02*
D03*
X50000Y181740D02*
D03*
Y174260D02*
D03*
D58*
X132783Y134953D02*
D03*
Y132984D02*
D03*
Y131016D02*
D03*
Y129047D02*
D03*
X143217Y134953D02*
D03*
Y132984D02*
D03*
Y131016D02*
D03*
Y129047D02*
D03*
D59*
X46354Y155500D02*
D03*
Y150500D02*
D03*
Y145500D02*
D03*
Y140500D02*
D03*
X65646Y155500D02*
D03*
Y150500D02*
D03*
Y145500D02*
D03*
Y140500D02*
D03*
X78354Y187500D02*
D03*
Y182500D02*
D03*
Y177500D02*
D03*
Y172500D02*
D03*
X97646Y187500D02*
D03*
Y182500D02*
D03*
Y177500D02*
D03*
Y172500D02*
D03*
D60*
X55669Y123740D02*
D03*
Y116260D02*
D03*
X64331Y120000D02*
D03*
D61*
X164173Y212500D02*
D03*
Y217500D02*
D03*
Y222500D02*
D03*
Y227500D02*
D03*
X135827Y212500D02*
D03*
Y217500D02*
D03*
Y222500D02*
D03*
Y227500D02*
D03*
D62*
X150000Y220000D02*
D03*
D63*
X29866Y123740D02*
D03*
Y116260D02*
D03*
X38134Y120000D02*
D03*
D64*
X210000Y110000D02*
D03*
X200000D02*
D03*
X210000Y120000D02*
D03*
X200000D02*
D03*
X210000Y130000D02*
D03*
X200000D02*
D03*
X210000Y140000D02*
D03*
X200000D02*
D03*
X210000Y150000D02*
D03*
X200000D02*
D03*
X210000Y160000D02*
D03*
X200000D02*
D03*
X210000Y170000D02*
D03*
X200000D02*
D03*
X210000Y180000D02*
D03*
X200000D02*
D03*
X210000Y190000D02*
D03*
X200000D02*
D03*
X210000Y200000D02*
D03*
X200000D02*
D03*
X210000Y210000D02*
D03*
X200000D02*
D03*
X210000Y220000D02*
D03*
X200000D02*
D03*
X210000Y230000D02*
D03*
X138000Y8000D02*
D03*
Y18000D02*
D03*
X174000Y8000D02*
D03*
Y18000D02*
D03*
X192000Y8000D02*
D03*
Y18000D02*
D03*
X156000Y8000D02*
D03*
Y18000D02*
D03*
X172000Y140000D02*
D03*
X162000D02*
D03*
X172000Y150000D02*
D03*
X162000D02*
D03*
X172000Y160000D02*
D03*
X110000Y10000D02*
D03*
X80000D02*
D03*
X50000D02*
D03*
X20000D02*
D03*
X208000Y38000D02*
D03*
Y28000D02*
D03*
Y18000D02*
D03*
Y8000D02*
D03*
D65*
X200000Y230000D02*
D03*
X138000Y28000D02*
D03*
X174000D02*
D03*
X192000D02*
D03*
X156000D02*
D03*
X162000Y160000D02*
D03*
X208000Y48000D02*
D03*
D66*
X117843Y152000D02*
D03*
X25843Y88000D02*
D03*
D67*
X98157Y152000D02*
D03*
X6157Y88000D02*
D03*
D68*
X112000Y90000D02*
D03*
Y109200D02*
D03*
D69*
X100000Y10000D02*
D03*
X70000D02*
D03*
X40000D02*
D03*
X10000D02*
D03*
D70*
X20000Y238000D02*
D03*
Y214000D02*
D03*
X48000Y238000D02*
D03*
Y214000D02*
D03*
D71*
X183500Y239000D02*
D03*
X200000Y63500D02*
D03*
X185000Y160000D02*
D03*
X140000Y244500D02*
D03*
X161000Y173000D02*
D03*
X172500Y217500D02*
D03*
X156500Y206000D02*
D03*
X146000D02*
D03*
X120500Y196500D02*
D03*
X126500Y210000D02*
D03*
X169500Y198000D02*
D03*
X168000Y187500D02*
D03*
X188500Y251500D02*
D03*
X20000Y114500D02*
D03*
X77000Y145000D02*
D03*
X35000Y155500D02*
D03*
Y139000D02*
D03*
X28000D02*
D03*
Y151000D02*
D03*
X126000Y180000D02*
D03*
X64500Y37500D02*
D03*
X128500Y231500D02*
D03*
X138000Y71000D02*
D03*
X86000Y95000D02*
D03*
X46000Y59000D02*
D03*
X97000Y74000D02*
D03*
X62500Y71000D02*
D03*
X17000Y68000D02*
D03*
X10000Y40000D02*
D03*
X103000Y29000D02*
D03*
X45500Y29500D02*
D03*
X77000Y69000D02*
D03*
X60000Y47500D02*
D03*
X68000Y47000D02*
D03*
X148500Y47500D02*
D03*
X143500Y53000D02*
D03*
X102000Y60000D02*
D03*
X139500Y59000D02*
D03*
X68500Y54000D02*
D03*
X47500Y72000D02*
D03*
X194000Y89500D02*
D03*
X182500Y105500D02*
D03*
X164500Y40500D02*
D03*
X188000Y70000D02*
D03*
X187000Y45500D02*
D03*
X178000Y100000D02*
D03*
X132000Y104000D02*
D03*
X122000Y62500D02*
D03*
X115000Y59000D02*
D03*
X129500Y66500D02*
D03*
X184500Y52000D02*
D03*
X173500Y46000D02*
D03*
X177500Y52000D02*
D03*
X123000Y75500D02*
D03*
X165000Y81500D02*
D03*
X137000Y91500D02*
D03*
X138500Y123000D02*
D03*
X122500Y126000D02*
D03*
X143500Y112500D02*
D03*
X149500Y108000D02*
D03*
X46500Y96000D02*
D03*
X141000Y102500D02*
D03*
X185000Y120500D02*
D03*
X156500Y132000D02*
D03*
X141000Y142500D02*
D03*
X148000D02*
D03*
X185500Y168000D02*
D03*
Y175500D02*
D03*
X125000Y160000D02*
D03*
X92000Y102500D02*
D03*
X100500Y114500D02*
D03*
M02*
