%FSLAX25Y25*%
%MOIN*%
G70*
G01*
G75*
G04 Layer_Color=16711935*
%ADD10R,0.03937X0.04331*%
%ADD11R,0.15748X0.39370*%
%ADD12R,0.07087X0.06299*%
%ADD13O,0.02165X0.06496*%
%ADD14O,0.06496X0.02165*%
%ADD15R,0.08465X0.01575*%
%ADD16R,0.08465X0.01575*%
%ADD17R,0.04331X0.03937*%
%ADD18R,0.06496X0.01181*%
%ADD19R,0.05906X0.05118*%
%ADD20O,0.04921X0.01181*%
%ADD21O,0.09843X0.02756*%
%ADD22R,0.06299X0.02362*%
%ADD23O,0.07087X0.02362*%
%ADD24R,0.16535X0.16535*%
%ADD25R,0.05118X0.02362*%
%ADD26C,0.00787*%
%ADD27C,0.01181*%
%ADD28C,0.05906*%
%ADD29C,0.01969*%
%ADD30C,0.01378*%
%ADD31C,0.04724*%
%ADD32C,0.01000*%
%ADD33C,0.00000*%
%ADD34C,0.03150*%
%ADD35C,0.03937*%
%ADD36C,0.01575*%
%ADD37C,0.05906*%
%ADD38R,0.05906X0.05906*%
%ADD39C,0.05315*%
%ADD40R,0.05315X0.05315*%
%ADD41C,0.05906*%
%ADD42R,0.05906X0.05906*%
%ADD43C,0.15000*%
%ADD44C,0.05000*%
%ADD45C,0.02362*%
%ADD46C,0.00984*%
%ADD47C,0.00800*%
%ADD48R,0.04737X0.05131*%
%ADD49R,0.16548X0.40170*%
%ADD50R,0.07887X0.07099*%
%ADD51O,0.02965X0.07296*%
%ADD52O,0.07296X0.02965*%
%ADD53R,0.09265X0.02375*%
%ADD54R,0.09265X0.02375*%
%ADD55R,0.05131X0.04737*%
%ADD56R,0.07296X0.01981*%
%ADD57R,0.06706X0.05918*%
%ADD58O,0.05721X0.01981*%
%ADD59O,0.10642X0.03556*%
%ADD60R,0.07099X0.03162*%
%ADD61O,0.07887X0.03162*%
%ADD62R,0.17335X0.17335*%
%ADD63R,0.05918X0.03162*%
%ADD64C,0.06706*%
%ADD65R,0.06706X0.06706*%
%ADD66C,0.06115*%
%ADD67R,0.06115X0.06115*%
%ADD68C,0.06706*%
%ADD69R,0.06706X0.06706*%
%ADD70C,0.15800*%
%ADD71C,0.05800*%
%ADD72C,0.00394*%
D72*
X155732Y86236D02*
G03*
X155732Y86236I-1969J0D01*
G01*
X138984Y132394D02*
G03*
X138984Y132394I-1969J0D01*
G01*
X53638Y154299D02*
G03*
X53638Y154299I-1969J0D01*
G01*
X85638Y186299D02*
G03*
X85638Y186299I-1969J0D01*
G01*
X147205Y225453D02*
G03*
X147205Y225453I-1969J0D01*
G01*
X150220Y62220D02*
X177780D01*
X150220Y89780D02*
X177780D01*
Y62220D02*
Y89780D01*
X150220Y62220D02*
Y89780D01*
X133276Y127866D02*
Y136134D01*
X142724Y127866D02*
Y136134D01*
X133276D02*
X142724D01*
X133276Y127866D02*
X142724D01*
X48126Y138157D02*
Y157843D01*
X63874Y138157D02*
Y157843D01*
X48126D02*
X63874D01*
X48126Y138157D02*
X63874D01*
X80126Y170157D02*
Y189843D01*
X95874Y170157D02*
Y189843D01*
X80126D02*
X95874D01*
X80126Y170157D02*
X95874D01*
X57244Y114094D02*
Y125906D01*
X62756Y114094D02*
Y125906D01*
X57244D02*
X62756D01*
X57244Y114094D02*
X62756D01*
X141693Y211004D02*
X158307D01*
X141693Y228996D02*
X158307D01*
Y211004D02*
Y228996D01*
X141693Y211004D02*
Y228996D01*
X31244Y114094D02*
Y125906D01*
X36756Y114094D02*
Y125906D01*
X31244D02*
X36756D01*
X31244Y114094D02*
X36756D01*
M02*
